<?xml version="1.0" encoding="utf-8"?>
<!-- Generator: Adobe Illustrator 21.0.0, SVG Export Plug-In . SVG Version: 6.00 Build 0)  -->
<svg version="1.1" id="Warstwa_1" xmlns="http://www.w3.org/2000/svg" xmlns:xlink="http://www.w3.org/1999/xlink" x="0px" y="0px"
	 viewBox="0 0 500 250" style="enable-background:new 0 0 500 250;" xml:space="preserve">
<style type="text/css">
	.st0{fill:url(#SVGID_1_);}
	.st1{display:none;}
	.st2{display:inline;fill:#10263C;}
	.st3{fill:#FFFFFF;}
	.st4{fill:#10263C;}
</style>
<linearGradient id="SVGID_1_" gradientUnits="userSpaceOnUse" x1="20.76" y1="789.9285" x2="186.7979" y2="843.3393" gradientTransform="matrix(1 0 0 1 0 -689.89)">
	<stop  offset="0" style="stop-color:#0BA1E1"/>
	<stop  offset="1" style="stop-color:#116EDB"/>
</linearGradient>
<path class="st0" d="M190,124.5c0,23.5-3.1,43.2-23.2,61.4c-19.1,17.3-42,31.5-69.7,31.5c-28.7,0-62.7-16.6-77.8-38.5
	c-12-17.4-15.2-31.8-15.2-54.5c0-21.6,4.1-45,17.9-59.6c18.9-20.1,43.5-37.7,75-33.4c22.9,3.2,49.2,8.7,65.5,22.7
	C182.4,71.3,190,96.3,190,124.5z"/>
<g class="st1">
	<path class="st2" d="M570.3,69.3c2.8,2.8,4.2,7,4.2,12.5v21.6h-10.9V83.5c0-3-0.6-5.2-1.9-6.7c-1.2-1.5-3-2.2-5.3-2.2
		c-2.6,0-4.6,0.8-6.1,2.5s-2.2,4.1-2.2,7.4v18.9h-10.9V83.5c0-5.9-2.4-8.9-7.1-8.9c-2.5,0-4.5,0.8-6,2.5s-2.2,4.1-2.2,7.4v18.9H511
		V65.7h10.4V70c1.4-1.6,3.1-2.8,5.2-3.6c2-0.8,4.3-1.3,6.7-1.3c2.7,0,5.1,0.5,7.2,1.6c2.1,1.1,3.9,2.6,5.2,4.6
		c1.5-2,3.5-3.5,5.9-4.6c2.4-1.1,4.9-1.6,7.7-1.6C563.8,65.2,567.6,66.6,570.3,69.3z"/>
	<path class="st2" d="M592,101.5c-3.2-1.7-5.6-4-7.4-6.9s-2.7-6.3-2.7-10s0.9-7.1,2.7-10c1.8-2.9,4.2-5.2,7.4-6.9
		c3.2-1.7,6.7-2.5,10.7-2.5s7.5,0.8,10.7,2.5c3.1,1.7,5.6,4,7.4,6.9s2.7,6.3,2.7,10s-0.9,7.1-2.7,10c-1.8,2.9-4.2,5.2-7.4,6.9
		c-3.1,1.7-6.7,2.5-10.7,2.5S595.1,103.2,592,101.5z M609.6,92.2c1.8-1.9,2.7-4.4,2.7-7.6s-0.9-5.7-2.7-7.6
		c-1.8-1.9-4.1-2.8-6.9-2.8s-5.1,0.9-6.9,2.8s-2.7,4.4-2.7,7.6s0.9,5.7,2.7,7.6s4.1,2.8,6.9,2.8S607.8,94.1,609.6,92.2z M605.6,50.8
		h11.8l-12.7,10.1h-8.6L605.6,50.8z"/>
	<path class="st2" d="M619.1,115.5l2.9-7.9c1.3,0.9,2.8,1.3,4.6,1.3c1.4,0,2.5-0.5,3.3-1.4s1.2-2.3,1.2-4.1V65.7H642v37.6
		c0,4.4-1.3,7.9-3.7,10.4c-2.5,2.5-6,3.8-10.5,3.8C624,117.6,621.1,116.9,619.1,115.5z M631.7,58.7c-1.3-1.2-1.9-2.6-1.9-4.3
		s0.6-3.2,1.9-4.3c1.3-1.2,2.9-1.8,4.9-1.8s3.6,0.6,4.9,1.7c1.3,1.1,1.9,2.5,1.9,4.2c0,1.8-0.6,3.3-1.9,4.5s-2.9,1.8-4.9,1.8
		S633,59.9,631.7,58.7z"/>
	<path class="st2" d="M548.4,125.9c3.4,1.9,6,4.6,8,8c1.9,3.4,2.9,7.4,2.9,12s-1,8.6-2.9,12c-1.9,3.4-4.6,6.1-8,8
		c-3.4,1.9-7.1,2.8-11.2,2.8c-5.7,0-10.1-1.8-13.3-5.4V184H511v-60.3h12.3v5.1c3.2-3.8,7.8-5.8,13.9-5.8
		C541.3,123,545.1,124,548.4,125.9z M543.1,154.8c2.1-2.2,3.2-5.2,3.2-8.9s-1.1-6.7-3.2-8.9c-2.1-2.2-4.8-3.3-8.1-3.3
		s-6,1.1-8.1,3.3c-2.1,2.2-3.2,5.2-3.2,8.9s1.1,6.7,3.2,8.9c2.1,2.2,4.8,3.3,8.1,3.3S541,157,543.1,154.8z"/>
	<path class="st2" d="M576.4,165.8c-3.7-1.9-6.6-4.7-8.7-8.1c-2.1-3.5-3.1-7.4-3.1-11.8c0-4.4,1-8.3,3.1-11.8c2.1-3.5,5-6.2,8.7-8.1
		c3.7-1.9,7.9-2.9,12.6-2.9s8.8,1,12.5,2.9c3.7,2,6.6,4.7,8.7,8.1c2.1,3.5,3.1,7.4,3.1,11.8c0,4.4-1,8.3-3.1,11.8
		c-2.1,3.5-5,6.2-8.7,8.1c-3.7,2-7.9,2.9-12.5,2.9C584.3,168.7,580.1,167.7,576.4,165.8z M597.1,154.8c2.1-2.2,3.2-5.2,3.2-8.9
		s-1.1-6.7-3.2-8.9c-2.1-2.2-4.8-3.3-8.1-3.3c-3.3,0-6,1.1-8.2,3.3c-2.1,2.2-3.2,5.2-3.2,8.9s1.1,6.7,3.2,8.9
		c2.1,2.2,4.9,3.3,8.2,3.3C592.3,158.1,594.9,157,597.1,154.8z"/>
	<path class="st2" d="M640.3,124.7c2.6-1.1,5.6-1.6,9-1.6V135c-1.4-0.1-2.4-0.2-2.9-0.2c-3.7,0-6.6,1-8.7,3.1
		c-2.1,2.1-3.1,5.2-3.1,9.3v20.9h-12.9v-44.3H634v5.9C635.6,127.4,637.7,125.8,640.3,124.7z"/>
	<path class="st2" d="M687.2,165.9c-1.3,0.9-2.8,1.6-4.7,2.1c-1.8,0.5-3.8,0.7-5.8,0.7c-5.3,0-9.4-1.3-12.2-4
		c-2.9-2.7-4.3-6.6-4.3-11.9v-18.2h-6.9v-9.9h6.8v-10.8H673v10.8h11v9.9h-11v18c0,1.9,0.5,3.3,1.4,4.3c1,1,2.3,1.5,4.1,1.5
		c2,0,3.8-0.5,5.2-1.6L687.2,165.9z"/>
	<path class="st2" d="M708.5,124.7h11.4v9.9h-11v33.5H696v-33.5h-6.8v-9.9h6.8v-2c0-5.1,1.5-9.1,4.5-12c3-3,7.2-4.5,12.6-4.5
		c1.9,0,3.7,0.2,5.5,0.6c1.7,0.4,3.2,1,4.3,1.8l-3.4,9.3c-1.5-1-3.2-1.6-5.2-1.6c-3.9,0-5.9,2.1-5.9,6.4L708.5,124.7L708.5,124.7z"
		/>
	<path class="st2" d="M768.9,149.5h-33.5c0.6,2.7,2,4.9,4.3,6.5s5.1,2.4,8.4,2.4c2.3,0,4.4-0.3,6.1-1c1.8-0.7,3.4-1.8,5-3.3l6.8,7.4
		c-4.2,4.8-10.3,7.2-18.3,7.2c-5,0-9.4-1-13.3-2.9c-3.8-1.9-6.8-4.7-8.9-8.1c-2.1-3.5-3.1-7.4-3.1-11.8c0-4.3,1-8.3,3.1-11.7
		c2.1-3.5,4.9-6.2,8.5-8.2c3.6-1.9,7.6-2.9,12.1-2.9c4.3,0,8.3,0.9,11.8,2.8c3.5,1.9,6.3,4.5,8.3,8s3,7.5,3,12.2
		C769.2,146.2,769.1,147.3,768.9,149.5z M738.8,135.2c-2,1.6-3.2,3.9-3.6,6.8H757c-0.4-2.8-1.6-5-3.6-6.7s-4.4-2.5-7.3-2.5
		C743.3,132.8,740.8,133.6,738.8,135.2z"/>
	<path class="st2" d="M777.7,106.9h12.9V168h-12.9V106.9z"/>
</g>
<g>
	<g>
		<g>
			<g>
				<path class="st3" d="M145.4,101.9H80.6c-6.3,0-11.4,5.2-11.4,11.4v41.1c0,6.3,5.2,11.4,11.4,11.4h64.9c6.3,0,11.4-5.2,11.4-11.4
					v-41.1C156.9,107,151.7,101.9,145.4,101.9z M150.7,154.6c0,2.3-1.9,4.1-4.1,4.1H80.4c-2.3,0-4.1-1.9-4.1-4.1v-28.9h74.4V154.6z
					 M150.7,114.8H76.3v-1.6c0-2.3,1.9-4.1,4.1-4.1h66.2c2.3,0,4.1,1.9,4.1,4.1V114.8z"/>
			</g>
		</g>
		<g>
			<path class="st3" d="M79.7,94.9H120l-8.2-16.6c-2.8-5.7-9.7-8-15.3-5.2l-58.1,28.7c-5.7,2.8-8,9.7-5.2,15.3L51.4,154
				c2.4,5,8.1,7.4,13.3,6c-1.5-2.6-2.4-5.6-2.4-8.8v-38.8C62.2,102.8,70.1,94.9,79.7,94.9z"/>
		</g>
		<g>
			<path class="st3" d="M88,154.3c2.2,0,4.3-1,5.6-2.6c1.4,1.6,3.4,2.6,5.6,2.6c4.1,0,7.4-3.3,7.4-7.4s-3.3-7.4-7.4-7.4
				c-2.2,0-4.3,1-5.6,2.6c-1.4-1.6-3.4-2.6-5.6-2.6c-4.1,0-7.4,3.3-7.4,7.4S83.9,154.3,88,154.3z"/>
		</g>
	</g>
</g>
<g>
	<path class="st4" d="M249.6,93v5.6H227v-4.4l12.9-15.2h-12.5v-5.6h21.8v4.4L236.3,93H249.6z"/>
	<path class="st4" d="M273.5,75.7c2.1,1.9,3.1,4.7,3.1,8.4v14.4h-6.9v-3.1c-1.4,2.4-3.9,3.5-7.7,3.5c-1.9,0-3.6-0.3-5.1-1
		c-1.4-0.7-2.5-1.6-3.3-2.7c-0.8-1.2-1.1-2.5-1.1-3.9c0-2.3,0.9-4.2,2.7-5.5c1.8-1.3,4.5-2,8.2-2h5.8c0-1.6-0.5-2.8-1.5-3.7
		c-1-0.9-2.4-1.3-4.4-1.3c-1.3,0-2.7,0.2-4,0.6c-1.3,0.4-2.4,1-3.3,1.7l-2.6-5.1c1.4-1,3-1.7,5-2.3c1.9-0.5,3.9-0.8,5.9-0.8
		C268.4,72.9,271.4,73.9,273.5,75.7z M267.2,93.2c1-0.6,1.7-1.4,2.1-2.6V88h-5c-3,0-4.5,1-4.5,3c0,0.9,0.4,1.7,1.1,2.2
		c0.7,0.5,1.7,0.8,3,0.8C265.2,94,266.3,93.7,267.2,93.2z"/>
	<path class="st4" d="M304.6,74.6c1.9,1.1,3.4,2.6,4.5,4.6c1.1,2,1.6,4.2,1.6,6.8c0,2.6-0.5,4.9-1.6,6.8c-1.1,2-2.6,3.5-4.5,4.6
		c-1.9,1.1-4.1,1.6-6.4,1.6c-3.2,0-5.8-1-7.6-3.1v11.8h-7.3V73.3h7v2.9c1.8-2.2,4.5-3.3,7.9-3.3C300.6,72.9,302.7,73.5,304.6,74.6z
		 M301.6,91c1.2-1.3,1.8-3,1.8-5.1c0-2.1-0.6-3.8-1.8-5.1s-2.7-1.9-4.6-1.9c-1.9,0-3.4,0.6-4.6,1.9c-1.2,1.3-1.8,3-1.8,5.1
		c0,2.1,0.6,3.8,1.8,5.1c1.2,1.3,2.7,1.9,4.6,1.9C298.8,93,300.4,92.3,301.6,91z"/>
	<path class="st4" d="M311,85.4l15.2-11.5l2.7,3.8L313.7,89L311,85.4z M316.3,63.7h7.3v34.9h-7.3V63.7z"/>
	<path class="st4" d="M350.3,75.7c2.1,1.9,3.1,4.7,3.1,8.4v14.4h-6.9v-3.1c-1.4,2.4-3.9,3.5-7.7,3.5c-1.9,0-3.6-0.3-5.1-1
		c-1.4-0.7-2.5-1.6-3.3-2.7c-0.8-1.2-1.1-2.5-1.1-3.9c0-2.3,0.9-4.2,2.7-5.5c1.8-1.3,4.5-2,8.2-2h5.8c0-1.6-0.5-2.8-1.5-3.7
		c-1-0.9-2.4-1.3-4.4-1.3c-1.3,0-2.7,0.2-4,0.6c-1.3,0.4-2.4,1-3.3,1.7l-2.6-5.1c1.4-1,3-1.7,5-2.3s3.9-0.8,5.9-0.8
		C345.2,72.9,348.2,73.9,350.3,75.7z M344,93.2c1-0.6,1.7-1.4,2.1-2.6V88h-5c-3,0-4.5,1-4.5,3c0,0.9,0.4,1.7,1.1,2.2
		c0.7,0.5,1.7,0.8,3,0.8C341.9,94,343.1,93.7,344,93.2z"/>
	<path class="st4" d="M365.3,97.3c-2.1-1.1-3.8-2.7-5-4.6c-1.2-2-1.8-4.2-1.8-6.7c0-2.5,0.6-4.7,1.8-6.7c1.2-2,2.9-3.5,5-4.6
		c2.1-1.1,4.6-1.7,7.3-1.7c2.7,0,5,0.6,7,1.7c2,1.1,3.4,2.7,4.3,4.8l-5.7,3.1c-1.3-2.3-3.2-3.5-5.7-3.5c-1.9,0-3.5,0.6-4.7,1.9
		c-1.3,1.3-1.9,3-1.9,5.1s0.6,3.9,1.9,5.1c1.3,1.3,2.8,1.9,4.7,1.9c2.5,0,4.4-1.2,5.7-3.5l5.7,3.1c-0.9,2-2.4,3.6-4.3,4.7
		c-2,1.1-4.3,1.7-7,1.7C369.9,99,367.4,98.4,365.3,97.3z M373.7,63.3h7.9l-8.5,6.8h-5.7L373.7,63.3z"/>
	<path class="st4" d="M247.6,161.6l-6.8,6.7v12.5h-14.2v-67.5h14.2v38.2l20.7-19.7h16.9L258,152.6l22.2,28.2H263L247.6,161.6z"/>
	<path class="st4" d="M322.9,136.5c4.1,3.6,6.1,9.1,6.1,16.3v27.9h-13.3v-6.1c-2.7,4.5-7.6,6.8-14.9,6.8c-3.8,0-7-0.6-9.8-1.9
		c-2.8-1.3-4.9-3-6.3-5.3c-1.5-2.2-2.2-4.8-2.2-7.6c0-4.5,1.7-8.1,5.1-10.7c3.4-2.6,8.7-3.9,15.9-3.9h11.3c0-3.1-0.9-5.5-2.8-7.1
		c-1.9-1.7-4.7-2.5-8.5-2.5c-2.6,0-5.2,0.4-7.7,1.2c-2.5,0.8-4.7,1.9-6.4,3.3l-5.1-9.9c2.7-1.9,5.9-3.3,9.6-4.4
		c3.7-1,7.6-1.5,11.5-1.5C313,131.1,318.9,132.9,322.9,136.5z M310.8,170.3c1.9-1.1,3.2-2.8,4-5v-5h-9.7c-5.8,0-8.7,1.9-8.7,5.7
		c0,1.8,0.7,3.3,2.1,4.3c1.4,1.1,3.4,1.6,5.9,1.6C306.8,171.9,308.9,171.4,310.8,170.3z"/>
	<path class="st4" d="M362.3,132.9c2.9-1.2,6.2-1.8,10-1.8v13.1c-1.6-0.1-2.6-0.2-3.2-0.2c-4.1,0-7.3,1.1-9.6,3.4
		c-2.3,2.3-3.5,5.7-3.5,10.2v23.1h-14.2v-49h13.6v6.5C357.1,135.9,359.4,134.1,362.3,132.9z"/>
	<path class="st4" d="M414,178.4c-1.4,1-3.1,1.8-5.1,2.3c-2,0.5-4.2,0.8-6.4,0.8c-5.8,0-10.3-1.5-13.5-4.5c-3.2-3-4.8-7.3-4.8-13.1
		v-20.1h-7.6v-10.9h7.6V121h14.2v11.9h12.2v10.9h-12.2v19.9c0,2.1,0.5,3.7,1.6,4.8c1.1,1.1,2.6,1.7,4.5,1.7c2.2,0,4.2-0.6,5.7-1.8
		L414,178.4z"/>
	<path class="st4" d="M459.2,136.5c4.1,3.6,6.1,9.1,6.1,16.3v27.9H452v-6.1c-2.7,4.5-7.6,6.8-14.9,6.8c-3.8,0-7-0.6-9.8-1.9
		c-2.8-1.3-4.9-3-6.3-5.3c-1.5-2.2-2.2-4.8-2.2-7.6c0-4.5,1.7-8.1,5.1-10.7c3.4-2.6,8.7-3.9,15.9-3.9h11.3c0-3.1-0.9-5.5-2.8-7.1
		c-1.9-1.7-4.7-2.5-8.5-2.5c-2.6,0-5.2,0.4-7.7,1.2c-2.5,0.8-4.7,1.9-6.4,3.3l-5.1-9.9c2.7-1.9,5.9-3.3,9.6-4.4
		c3.7-1,7.6-1.5,11.5-1.5C449.3,131.1,455.2,132.9,459.2,136.5z M447.1,170.3c1.9-1.1,3.2-2.8,4-5v-5h-9.7c-5.8,0-8.7,1.9-8.7,5.7
		c0,1.8,0.7,3.3,2.1,4.3c1.4,1.1,3.4,1.6,5.9,1.6C443.1,171.9,445.3,171.4,447.1,170.3z M449,199.1c-2.2-1.9-3.4-4.3-3.4-7.4
		c0-3,1.2-5.7,3.5-8.3c2.3-2.5,5.8-4.7,10.5-6.4l5.6,3.7c-3.8,1.7-6.6,3.3-8.2,4.9c-1.6,1.5-2.5,3.2-2.5,4.9c0,1.3,0.5,2.3,1.4,3
		c0.9,0.8,2.2,1.1,3.8,1.1c2.1,0,3.9-0.5,5.6-1.4l2,6.5c-1.2,0.6-2.5,1.1-4.2,1.5c-1.6,0.4-3.3,0.6-5,0.6
		C454.4,201.9,451.3,201,449,199.1z"/>
</g>
</svg>
