<?xml version="1.0" encoding="utf-8"?>
<!-- Generator: Adobe Illustrator 21.0.0, SVG Export Plug-In . SVG Version: 6.00 Build 0)  -->
<svg version="1.1" id="Warstwa_1" xmlns="http://www.w3.org/2000/svg" xmlns:xlink="http://www.w3.org/1999/xlink" x="0px" y="0px"
	 viewBox="0 0 500 250" style="enable-background:new 0 0 500 250;" xml:space="preserve">
<style type="text/css">
	.st0{fill:#BA0404;}
</style>
<g>
	<path class="st0" d="M101.6,170.7c-3,0-5.4-0.3-7.2-0.8c-1.8-0.5-3.4-1.2-4.6-2.1c-1.3-0.9-2.3-1.9-3.2-3.2
		c-0.9-1.2-1.8-2.5-2.9-3.8l-0.3,8.6H68.8V71.6h16.6v37c1.8-2.4,3.9-4.3,6.5-5.7c2.5-1.4,5.6-2,9.1-2c4.3,0,8,0.8,11.1,2.5
		c3.1,1.7,5.6,4,7.6,7c2,3,3.4,6.5,4.3,10.6c0.9,4.1,1.4,8.4,1.4,13.1c0,12.5-2.1,21.7-6.3,27.6C114.8,167.7,109,170.7,101.6,170.7z
		 M108.5,135.5c0-8-1.1-13.6-3.2-16.8c-2.1-3.1-5-4.7-8.6-4.7s-6.5,1.7-8.4,5.1c-2,3.4-2.9,9-2.9,16.9c0,7.6,1,12.9,2.9,16.1
		c2,3.1,4.8,4.7,8.4,4.7c1.8,0,3.4-0.3,4.9-1c1.5-0.7,2.7-1.8,3.7-3.4c1-1.6,1.8-3.8,2.3-6.6C108.2,143,108.5,139.6,108.5,135.5z"/>
	<path class="st0" d="M190.5,141.4c0,3.1-0.4,6.4-1.1,9.9c-0.7,3.5-2,6.7-4,9.7c-2,2.9-4.7,5.4-8.2,7.4c-3.5,2-8.1,2.9-13.7,2.9
		c-5.9,0-10.7-1-14.4-2.9c-3.7-2-6.6-4.4-8.7-7.4c-2.1-2.9-3.5-6.2-4.2-9.7c-0.7-3.5-1.1-6.8-1.1-9.9v-11.1c0-2.4,0.3-5.3,0.9-8.7
		c0.6-3.4,1.9-6.6,3.9-9.7c2-3.1,4.9-5.7,8.6-7.9c3.7-2.2,8.7-3.2,15-3.2c5.4,0,9.9,1,13.3,3.1c3.5,2.1,6.2,4.6,8.2,7.6
		c2,3,3.4,6.2,4.2,9.6c0.8,3.4,1.2,6.5,1.2,9.2V141.4z M175,132.1c0-5.1-0.9-9.2-2.7-12.3c-1.8-3-4.7-4.6-8.6-4.6
		c-4.5,0-7.6,1.5-9.3,4.4c-1.7,2.9-2.6,7.1-2.6,12.4v7.7c0,2.6,0.2,5,0.5,7.1c0.3,2.1,0.9,3.9,1.8,5.5c0.8,1.5,2,2.7,3.5,3.6
		c1.5,0.8,3.5,1.3,5.9,1.3c4.6,0,7.7-1.5,9.3-4.6c1.6-3.1,2.4-7.3,2.4-12.8V132.1z"/>
	<path class="st0" d="M238.6,168.6c-1.5,0.7-3.5,1.3-5.9,1.9c-2.4,0.6-4.6,0.9-6.5,0.9c-2.9,0-5.5-0.2-7.9-0.7
		c-2.3-0.5-4.3-1.3-6-2.5c-1.7-1.2-3-2.9-3.9-5c-0.9-2.1-1.4-4.8-1.4-8.1v-39.3h-8.1v-11.4h8.1V92.7l12.9-9.3h2.8v21H236v11.4h-13.2
		v36.1c0,1.7,0.4,3.1,1.1,4.3c0.7,1.2,2.3,1.8,4.7,1.8c0.6,0,1.5-0.1,2.8-0.3c1.3-0.2,2.4-0.4,3.2-0.7L238.6,168.6z"/>
	<path d="M249.9,71.8h25.7c3.6,0,6.9,0.4,9.7,1.2c2.8,0.8,5.3,1.8,7.4,3.2c2.1,1.3,3.9,2.8,5.3,4.5c1.4,1.7,2.6,3.4,3.6,5.2
		c2.2,4.1,3.5,8.8,3.8,14c0,5.1-0.7,9.6-2,13.3c-1.3,3.7-3.1,6.9-5.3,9.3c-2.2,2.5-4.8,4.3-7.8,5.5c-2.9,1.2-6,1.8-9.2,1.8h-14.6
		v39.7h-16.6V71.8z M288.7,100.7c0-3.1-0.4-5.6-1.3-7.4c-0.8-1.9-1.9-3.3-3.1-4.3c-1.2-1-2.6-1.7-4.1-2c-1.5-0.3-2.9-0.5-4.1-0.5
		h-9.8v29.3h10.1c1.3,0,2.7-0.2,4.1-0.6c1.4-0.4,2.8-1.1,3.9-2.2c1.2-1.1,2.1-2.7,2.9-4.6C288.3,106.3,288.7,103.8,288.7,100.7z"/>
	<path d="M348.8,163.4c-1.4,1.7-3,3-4.7,4c-1.7,1-3.5,1.7-5.3,2.2c-1.8,0.5-3.5,0.7-5,0.8c-1.6,0.1-2.9,0.1-3.8,0.1
		c-1.8,0-3.7-0.2-5.8-0.5c-2.1-0.3-4.1-1.1-6-2.5c-1.9-1.3-3.4-3.2-4.7-5.8c-1.3-2.5-1.9-6-1.9-10.4c0-3.5,0.6-6.4,1.9-8.9
		c1.3-2.5,3.3-4.6,6.1-6.4c2.8-1.8,6.5-3.2,10.9-4.3c4.5-1.1,10-1.9,16.6-2.5c0-4.8-0.6-8.5-1.7-11.1c-1.1-2.6-3.6-3.9-7.3-3.9
		c-2.7,0-4.8,0.8-6.3,2.4c-1.5,1.6-2.5,3.5-2.9,5.6l-13.5-5.8c0.9-2.9,2.4-5.5,4.5-7.9c1.8-2,4.2-3.8,7.4-5.5
		c3.1-1.7,7.2-2.5,12.3-2.5c2,0,4.3,0.3,7.1,0.8c2.8,0.6,5.4,1.7,7.9,3.4c2.5,1.7,4.7,4.2,6.5,7.4c1.8,3.2,2.7,7.6,2.7,13v27.1
		c0,1.6,0.2,3,0.7,4.3c0.5,1.3,1.5,2,3.2,2c1,0,2.1-0.3,3.1-1l2.2,7.6c-0.7,0.9-1.6,1.7-2.7,2.4c-0.9,0.7-2.1,1.2-3.6,1.7
		c-1.5,0.5-3.1,0.7-5,0.7c-2.4,0-4.5-0.4-6.1-1.1c-1.6-0.7-3-1.5-4-2.3C350.5,165.9,349.5,164.7,348.8,163.4z M347.1,139.3
		c-3.8,0.5-6.9,1.1-9.3,1.8c-2.3,0.7-4.2,1.6-5.5,2.6c-1.3,1-2.2,2-2.7,3.2c-0.5,1.1-0.7,2.2-0.7,3.4c0,3,0.6,5.1,1.8,6.3
		c1.2,1.2,2.9,1.8,5.2,1.8c2.7,0,4.9-0.6,6.5-1.7c1.6-1.1,3.1-2.4,4.6-3.8V139.3z"/>
	<path d="M377.8,102.8h17.4l12.9,47.1l11.9-47.1h16.1c-3.3,11.3-6.6,22.6-9.9,33.8c-3.3,11.2-6.6,22.5-9.9,33.8
		c-2.1,6.6-4.5,11.9-7.2,15.6c-2.8,3.8-5.7,6.7-8.8,8.6c-3.1,2-6.3,3.2-9.5,3.9c-3.2,0.6-6.3,1.1-9.3,1.3l-6.2-13.3
		c7,0.2,12.5-1.1,16.6-3.8c4-2.7,6.7-6.7,8-12.1L377.8,102.8z"/>
</g>
</svg>
