<?xml version="1.0" encoding="utf-8"?>
<!-- Generator: Adobe Illustrator 21.0.0, SVG Export Plug-In . SVG Version: 6.00 Build 0)  -->
<svg version="1.1" id="Warstwa_1" xmlns="http://www.w3.org/2000/svg" xmlns:xlink="http://www.w3.org/1999/xlink" x="0px" y="0px"
	 viewBox="0 0 500 250" style="enable-background:new 0 0 500 250;" xml:space="preserve">
<style type="text/css">
	.st0{fill:url(#SVGID_1_);}
	.st1{fill:#FFFFFF;}
	.st2{fill:#10263C;}
</style>
<linearGradient id="SVGID_1_" gradientUnits="userSpaceOnUse" x1="20.7312" y1="51.8721" x2="186.7691" y2="-1.5387" gradientTransform="matrix(1 0 0 -1 0 152)">
	<stop  offset="0" style="stop-color:#0BA1E1"/>
	<stop  offset="1" style="stop-color:#116EDB"/>
</linearGradient>
<path class="st0" d="M190,124.5c0,23.5-3.1,43.2-23.2,61.4c-19.1,17.3-42,31.5-69.7,31.5c-28.7,0-62.7-16.6-77.8-38.5
	c-12-17.4-15.2-31.8-15.2-54.5c0-21.6,4.1-45,17.9-59.6c18.9-20.1,43.5-37.7,75-33.4c22.9,3.2,49.2,8.7,65.5,22.7
	C182.4,71.3,190,96.3,190,124.5z"/>
<g>
	<g>
		<path class="st1" d="M71.7,93.4L109.9,83l-2-4.1c-1.3-2.7-4.6-3.8-7.2-2.4l-34.2,17H71.7z"/>
		<path class="st1" d="M121.8,83.3c-0.5,0-0.9,0.1-1.4,0.2l-9,2.5L84,93.4h31.1h13.6l-1.7-6.2C126.3,84.9,124.2,83.3,121.8,83.3z"/>
		<path class="st1" d="M134.3,97.2H133h-1.7h-1.7H117H70.2H64h-5.2h-1h-3.2c-1.7,0-3.2,0.8-4.2,2c-0.5,0.6-0.8,1.2-1,1.9
			c-0.1,0.5-0.2,0.9-0.2,1.4v0.6v6.1v53.2c0,3,2.4,5.4,5.4,5.4h79.6c3,0,5.4-2.4,5.4-5.4v-15h-32c-5.1,0-9.2-4.1-9.2-9.2v-4.9v-1.7
			v-1.7v-3.7c0-2.5,1-4.7,2.6-6.4c1.4-1.5,3.3-2.5,5.5-2.7c0.4,0,0.7-0.1,1.1-0.1h27.5h1.7h1.7h1.1v-14.7
			C139.7,99.6,137.2,97.2,134.3,97.2z"/>
		<path class="st1" d="M143.4,122.4c-0.5-0.5-1.2-0.9-1.9-1.1c-0.5-0.2-1.1-0.3-1.7-0.3h-0.1h-0.1h-1.7h-6h-24.2
			c-3,0-5.4,2.4-5.4,5.4v2.7v1.7v1.7v6c0,3,2.4,5.4,5.4,5.4h32h0.1c0.6,0,1.2-0.1,1.7-0.3c0.7-0.2,1.3-0.6,1.9-1.1
			c1.1-1,1.8-2.4,1.8-4v-12C145.2,124.8,144.5,123.4,143.4,122.4z M118.9,133.5c0,1.5-1.2,2.7-2.7,2.7h-1.8c-1.5,0-2.7-1.2-2.7-2.7
			v-1.8c0-0.9,0.4-1.6,1-2.1c0.5-0.4,1-0.6,1.7-0.6h0.5h1.3c1.5,0,2.7,1.2,2.7,2.7V133.5L118.9,133.5z"/>
	</g>
</g>
<g>
	<path class="st2" d="M277,75.8c2.8,2.8,4.2,7,4.2,12.5v21.6h-10.9V90c0-3-0.6-5.2-1.9-6.7c-1.2-1.5-3-2.2-5.3-2.2
		c-2.6,0-4.6,0.8-6.1,2.5c-1.5,1.7-2.2,4.1-2.2,7.4v18.9h-10.9V90c0-5.9-2.4-8.9-7.1-8.9c-2.5,0-4.5,0.8-6,2.5
		c-1.5,1.7-2.2,4.1-2.2,7.4v18.9h-10.9V72.2h10.4v4.3c1.4-1.6,3.1-2.8,5.2-3.6c2-0.8,4.3-1.3,6.7-1.3c2.7,0,5.1,0.5,7.2,1.6
		c2.1,1.1,3.9,2.6,5.2,4.6c1.5-2,3.5-3.5,5.9-4.6c2.4-1.1,4.9-1.6,7.7-1.6C270.5,71.7,274.3,73.1,277,75.8z"/>
	<path class="st2" d="M298.7,108c-3.2-1.7-5.6-4-7.4-6.9c-1.8-2.9-2.7-6.3-2.7-10c0-3.7,0.9-7.1,2.7-10c1.8-2.9,4.2-5.2,7.4-6.9
		c3.2-1.7,6.7-2.5,10.7-2.5c4,0,7.5,0.8,10.7,2.5c3.1,1.7,5.6,4,7.4,6.9c1.8,2.9,2.7,6.3,2.7,10c0,3.7-0.9,7.1-2.7,10
		s-4.2,5.2-7.4,6.9c-3.1,1.7-6.7,2.5-10.7,2.5C305.4,110.5,301.8,109.7,298.7,108z M316.3,98.7c1.8-1.9,2.7-4.4,2.7-7.6
		c0-3.2-0.9-5.7-2.7-7.6c-1.8-1.9-4.1-2.8-6.9-2.8c-2.8,0-5.1,0.9-6.9,2.8c-1.8,1.9-2.7,4.4-2.7,7.6c0,3.2,0.9,5.7,2.7,7.6
		c1.8,1.9,4.1,2.8,6.9,2.8C312.2,101.5,314.5,100.6,316.3,98.7z M312.3,57.3h11.8l-12.7,10.1h-8.6L312.3,57.3z"/>
	<path class="st2" d="M325.8,122l2.9-7.9c1.3,0.9,2.8,1.3,4.6,1.3c1.4,0,2.5-0.5,3.3-1.4c0.8-0.9,1.2-2.3,1.2-4.1V72.2h10.9v37.6
		c0,4.4-1.3,7.9-3.7,10.4c-2.5,2.5-6,3.8-10.5,3.8C330.7,124.1,327.8,123.4,325.8,122z M338.4,65.2c-1.3-1.2-1.9-2.6-1.9-4.3
		c0-1.7,0.6-3.2,1.9-4.3c1.3-1.2,2.9-1.8,4.9-1.8c2,0,3.6,0.6,4.9,1.7c1.3,1.1,1.9,2.5,1.9,4.2c0,1.8-0.6,3.3-1.9,4.5
		c-1.3,1.2-2.9,1.8-4.9,1.8C341.3,67,339.7,66.4,338.4,65.2z"/>
	<path class="st2" d="M255.1,132.4c3.4,1.9,6,4.6,8,8c1.9,3.4,2.9,7.4,2.9,12s-1,8.6-2.9,12c-1.9,3.4-4.6,6.1-8,8
		c-3.4,1.9-7.1,2.8-11.2,2.8c-5.7,0-10.1-1.8-13.3-5.4v20.7h-12.9v-60.3H230v5.1c3.2-3.8,7.8-5.8,13.9-5.8
		C248,129.5,251.8,130.5,255.1,132.4z M249.8,161.3c2.1-2.2,3.2-5.2,3.2-8.9c0-3.7-1.1-6.7-3.2-8.9c-2.1-2.2-4.8-3.3-8.1-3.3
		c-3.3,0-6,1.1-8.1,3.3c-2.1,2.2-3.2,5.2-3.2,8.9c0,3.7,1.1,6.7,3.2,8.9c2.1,2.2,4.8,3.3,8.1,3.3C245,164.6,247.7,163.5,249.8,161.3
		z"/>
	<path class="st2" d="M283.1,172.3c-3.7-1.9-6.6-4.7-8.7-8.1c-2.1-3.5-3.1-7.4-3.1-11.8c0-4.4,1-8.3,3.1-11.8c2.1-3.5,5-6.2,8.7-8.1
		c3.7-1.9,7.9-2.9,12.6-2.9c4.7,0,8.8,1,12.5,2.9c3.7,2,6.6,4.7,8.7,8.1c2.1,3.5,3.1,7.4,3.1,11.8c0,4.4-1,8.3-3.1,11.8
		c-2.1,3.5-5,6.2-8.7,8.1c-3.7,2-7.9,2.9-12.5,2.9C291,175.2,286.8,174.2,283.1,172.3z M303.8,161.3c2.1-2.2,3.2-5.2,3.2-8.9
		c0-3.7-1.1-6.7-3.2-8.9c-2.1-2.2-4.8-3.3-8.1-3.3s-6,1.1-8.2,3.3c-2.1,2.2-3.2,5.2-3.2,8.9c0,3.7,1.1,6.7,3.2,8.9
		c2.1,2.2,4.9,3.3,8.2,3.3S301.6,163.5,303.8,161.3z"/>
	<path class="st2" d="M347,131.2c2.6-1.1,5.6-1.6,9-1.6v11.9c-1.4-0.1-2.4-0.2-2.9-0.2c-3.7,0-6.6,1-8.7,3.1
		c-2.1,2.1-3.1,5.2-3.1,9.3v20.9h-12.9v-44.3h12.3v5.9C342.3,133.9,344.4,132.3,347,131.2z"/>
	<path class="st2" d="M393.9,172.4c-1.3,0.9-2.8,1.6-4.7,2.1c-1.8,0.5-3.8,0.7-5.8,0.7c-5.3,0-9.4-1.3-12.2-4
		c-2.9-2.7-4.3-6.6-4.3-11.9v-18.2H360v-9.9h6.8v-10.8h12.9v10.8h11v9.9h-11v18c0,1.9,0.5,3.3,1.4,4.3c1,1,2.3,1.5,4.1,1.5
		c2,0,3.8-0.5,5.2-1.6L393.9,172.4z"/>
	<path class="st2" d="M415.2,131.2h11.4v9.9h-11v33.5h-12.9v-33.5h-6.8v-9.9h6.8v-2c0-5.1,1.5-9.1,4.5-12c3-3,7.2-4.5,12.6-4.5
		c1.9,0,3.7,0.2,5.5,0.6c1.7,0.4,3.2,1,4.3,1.8l-3.4,9.3c-1.5-1-3.2-1.6-5.2-1.6c-3.9,0-5.9,2.1-5.9,6.4V131.2z"/>
	<path class="st2" d="M475.6,156h-33.5c0.6,2.7,2,4.9,4.3,6.5c2.3,1.6,5.1,2.4,8.4,2.4c2.3,0,4.4-0.3,6.1-1c1.8-0.7,3.4-1.8,5-3.3
		l6.8,7.4c-4.2,4.8-10.3,7.2-18.3,7.2c-5,0-9.4-1-13.3-2.9c-3.8-1.9-6.8-4.7-8.9-8.1c-2.1-3.5-3.1-7.4-3.1-11.8
		c0-4.3,1-8.3,3.1-11.7c2.1-3.5,4.9-6.2,8.5-8.2c3.6-1.9,7.6-2.9,12.1-2.9c4.3,0,8.3,0.9,11.8,2.8c3.5,1.9,6.3,4.5,8.3,8
		c2,3.5,3,7.5,3,12.2C475.9,152.7,475.8,153.8,475.6,156z M445.5,141.7c-2,1.6-3.2,3.9-3.6,6.8h21.8c-0.4-2.8-1.6-5-3.6-6.7
		c-2-1.7-4.4-2.5-7.3-2.5C450,139.3,447.5,140.1,445.5,141.7z"/>
	<path class="st2" d="M484.4,113.4h12.9v61.1h-12.9V113.4z"/>
</g>
</svg>
