<?xml version="1.0" encoding="utf-8"?>
<!-- Generator: Adobe Illustrator 21.0.0, SVG Export Plug-In . SVG Version: 6.00 Build 0)  -->
<svg version="1.1" id="Warstwa_1" xmlns="http://www.w3.org/2000/svg" xmlns:xlink="http://www.w3.org/1999/xlink" x="0px" y="0px"
	 viewBox="0 0 500 250" style="enable-background:new 0 0 500 250;" xml:space="preserve">
<style type="text/css">
	.st0{fill:#878787;}
	.st1{fill:#26A80F;}
</style>
<g>
	<path class="st0" d="M50.6,154.8c-4.1-1.4-7.4-3.1-9.7-5.2l2.5-4.4c2.3,2,5.3,3.6,9,4.9c3.7,1.3,7.5,2,11.5,2
		c5.7,0,10-0.9,12.7-2.8c2.7-1.9,4.1-4.5,4.1-7.8c0-2.4-0.7-4.3-2.2-5.7c-1.5-1.4-3.3-2.4-5.5-3.1c-2.2-0.7-5.2-1.3-9-2.1
		c-4.5-0.8-8.1-1.7-10.9-2.6c-2.8-0.9-5.1-2.5-7.1-4.6c-2-2.1-2.9-5-2.9-8.7c0-4.5,1.9-8.2,5.6-11.2c3.7-2.9,9.1-4.4,16-4.4
		c3.6,0,7.2,0.5,10.8,1.5c3.6,1,6.5,2.4,8.7,4l-2.5,4.4c-2.3-1.7-5-2.9-8-3.8c-3-0.9-6-1.3-9.2-1.3c-5.3,0-9.3,1-12,2.9
		c-2.7,2-4,4.5-4,7.7c0,2.5,0.8,4.5,2.3,5.9c1.5,1.4,3.4,2.5,5.6,3.2c2.2,0.7,5.3,1.4,9.3,2.2c4.4,0.8,8,1.7,10.7,2.6
		c2.7,0.9,5,2.4,6.9,4.4c1.9,2,2.8,4.8,2.8,8.4c0,4.7-2,8.5-5.9,11.3c-3.9,2.8-9.4,4.3-16.6,4.3C59.1,156.9,54.8,156.2,50.6,154.8z"
		/>
	<path class="st1" d="M91.1,94.4c-3.6-3.5-5.4-7.7-5.4-12.9c0-5.1,1.8-9.5,5.4-13.1s8-5.4,13.1-5.4c5.1,0,9.5,1.7,13.1,5.2
		c3.6,3.5,5.4,7.7,5.4,12.9c0,5.1-1.8,9.5-5.4,13.1s-8,5.4-13.1,5.4C99,99.5,94.7,97.8,91.1,94.4z M101.4,99.5h5.5v56.9h-5.5V99.5z"
		/>
	<path class="st0" d="M217.4,105.3c4,4.1,6.1,10.1,6.1,17.9v33.3H218v-32.8c0-6.4-1.6-11.3-4.7-14.6c-3.1-3.3-7.5-5-13.1-5
		c-6.4,0-11.5,2-15.2,6c-3.7,4-5.6,9.4-5.6,16.1v30.3h-5.5v-32.8c0-6.4-1.6-11.3-4.7-14.6c-3.1-3.3-7.5-5-13.1-5
		c-6.4,0-11.5,2-15.2,6c-3.7,4-5.6,9.4-5.6,16.1v30.3h-5.5V99.5h5.2v12.2c1.9-4,4.7-7.1,8.4-9.3c3.7-2.2,8.2-3.3,13.4-3.3
		c5.2,0,9.5,1.2,13.1,3.5c3.6,2.3,6.2,5.7,7.7,10.2c1.9-4.2,4.9-7.6,8.9-10c4-2.5,8.7-3.7,14.1-3.7
		C207.8,99.1,213.3,101.2,217.4,105.3z"/>
	<path class="st0" d="M288.8,102.8c4.3,2.5,7.6,5.9,10.1,10.2c2.4,4.4,3.7,9.3,3.7,14.9c0,5.6-1.2,10.6-3.7,15
		c-2.4,4.4-5.8,7.8-10.1,10.2c-4.3,2.4-9.1,3.7-14.4,3.7c-5,0-9.6-1.2-13.6-3.5c-4.1-2.4-7.2-5.7-9.5-9.9v34.1h-5.5V99.5h5.2V113
		c2.3-4.4,5.4-7.8,9.5-10.2c4.1-2.4,8.7-3.7,13.8-3.7C279.7,99.1,284.5,100.3,288.8,102.8z M285.9,148.9c3.5-2,6.2-4.9,8.2-8.5
		c2-3.6,3-7.8,3-12.4c0-4.6-1-8.8-3-12.4c-2-3.6-4.7-6.5-8.2-8.5c-3.5-2-7.4-3.1-11.8-3.1c-4.4,0-8.3,1-11.7,3.1
		c-3.5,2-6.2,4.9-8.2,8.5c-2,3.6-3,7.8-3,12.4c0,4.7,1,8.8,3,12.4c2,3.6,4.7,6.5,8.2,8.5c3.5,2,7.4,3.1,11.7,3.1
		C278.5,152,282.4,151,285.9,148.9z"/>
	<path class="st0" d="M319.5,75.6h5.5v80.9h-5.5V75.6z"/>
	<path class="st0" d="M396,129.3h-49c0.1,4.4,1.3,8.4,3.4,11.8c2.1,3.5,5,6.1,8.6,8c3.6,1.9,7.6,2.8,12.2,2.8c3.7,0,7.1-0.7,10.3-2
		c3.2-1.3,5.8-3.3,7.9-5.9l3.2,3.6c-2.5,3-5.6,5.3-9.3,6.9c-3.7,1.6-7.8,2.4-12.2,2.4c-5.7,0-10.7-1.2-15.2-3.7
		c-4.4-2.5-7.9-5.9-10.4-10.2c-2.5-4.4-3.8-9.3-3.8-14.9c0-5.5,1.2-10.5,3.5-14.9c2.4-4.4,5.6-7.8,9.8-10.3c4.1-2.5,8.8-3.7,14-3.7
		c5.2,0,9.8,1.2,13.9,3.7c4.1,2.4,7.3,5.8,9.7,10.2c2.4,4.4,3.5,9.3,3.5,14.8L396,129.3z M358.2,106.6c-3.2,1.8-5.8,4.3-7.7,7.5
		c-1.9,3.2-3,6.9-3.3,11h43.6c-0.2-4.1-1.3-7.7-3.3-10.9c-2-3.2-4.5-5.7-7.7-7.5c-3.2-1.8-6.8-2.7-10.8-2.7
		C365,103.9,361.4,104.8,358.2,106.6z"/>
	<path class="st0" d="M447.6,156.5L428.1,131l-19.5,25.4h-6.2l22.6-29.3l-21.4-27.6h6.2l18.3,23.7l18.3-23.7h6.1l-21.4,27.6
		l22.9,29.3H447.6z"/>
</g>
</svg>
