<?xml version="1.0" encoding="utf-8"?>
<!-- Generator: Adobe Illustrator 21.0.0, SVG Export Plug-In . SVG Version: 6.00 Build 0)  -->
<svg version="1.1" id="Warstwa_1" xmlns="http://www.w3.org/2000/svg" xmlns:xlink="http://www.w3.org/1999/xlink" x="0px" y="0px"
	 viewBox="0 0 500 250" style="enable-background:new 0 0 500 250;" xml:space="preserve">
<style type="text/css">
	.st0{clip-path:url(#SVGID_2_);fill:url(#SVGID_3_);}
</style>
<g id="XMLID_1_">
	<g id="XMLID_2_">
		<g>
			<defs>
				<path id="SVGID_1_" d="M249.8,104.3c-0.2,17.7,15.7,27.6,27.8,33.4c12.4,6,16.5,9.9,16.5,15.3c-0.1,8.3-9.9,11.8-19.1,12.1
					c-15.9,0.2-25.2-4.3-32.6-7.8l-5.7,26.9c7.4,3.4,21.1,6.4,35.3,6.6c33.4,0,55.1-16.5,55.3-42c0.1-32.4-44.8-34.3-44.5-48.7
					c0.1-4.4,4.3-9,13.5-10.2c4.5-0.6,17.1-1.1,31.3,5.5l5.6-26.1c-7.6-2.8-17.4-5.5-29.7-5.5C272,63.8,249.9,80.5,249.8,104.3
					 M386.8,65.9c-6.1,0-11.2,3.6-13.5,9l-47.6,113.7h33.4l6.7-18.3h40.7l3.9,18.3h29.4L414.1,65.9H386.8 M391.4,99.1l9.6,46.1
					h-26.4L391.4,99.1 M209.3,65.9L183,188.7h31.8l26.3-122.8H209.3 M162.3,65.9l-33.1,83.6l-13.4-71.1c-1.6-8-7.8-12.5-14.6-12.5
					H47.2l-0.8,3.6c11.1,2.4,23.7,6.2,31.3,10.4c4.6,2.6,6,4.7,7.5,10.8l25.3,98h33.6l51.5-122.8H162.3"/>
			</defs>
			<clipPath id="SVGID_2_">
				<use xlink:href="#SVGID_1_"  style="overflow:visible;"/>
			</clipPath>
			
				<linearGradient id="SVGID_3_" gradientUnits="userSpaceOnUse" x1="1.392" y1="251.2461" x2="2.1814" y2="251.2461" gradientTransform="matrix(419.708 -154.5691 -154.5691 -419.708 38332.6133 105851.6953)">
				<stop  offset="0" style="stop-color:#222357"/>
				<stop  offset="1" style="stop-color:#254AA5"/>
			</linearGradient>
			<polyline class="st0" points="5.3,78.9 392.6,-63.7 480.7,175.6 93.4,318.2 			"/>
		</g>
	</g>
</g>
</svg>
