<?xml version="1.0" encoding="utf-8"?>
<!-- Generator: Adobe Illustrator 21.0.0, SVG Export Plug-In . SVG Version: 6.00 Build 0)  -->
<svg version="1.1" id="Warstwa_1" xmlns="http://www.w3.org/2000/svg" xmlns:xlink="http://www.w3.org/1999/xlink" x="0px" y="0px"
	 viewBox="0 0 500 500" style="enable-background:new 0 0 500 500;" xml:space="preserve">
<style type="text/css">
	.st0{fill:#3468D1;}
	.st1{display:none;}
	.st2{display:inline;fill:#343434;}
	.st3{display:inline;fill:#8C8C8C;}
	.st4{display:inline;fill:#3C3C3B;}
	.st5{display:inline;fill:#141414;}
	.st6{display:inline;fill:#393939;}
	.st7{display:none;fill:#FFFFFF;}
	.st8{display:none;fill:#231815;}
	.st9{display:inline;}
	.st10{fill:#FFFFFF;}
</style>
<g transform="translate(0.00630876,-0.00301984)">
	<path class="st0" d="M490.2,309.9C457.1,442.6,322.7,523.3,190,490.2C57.4,457.2-23.3,322.8,9.8,190.1
		C42.8,57.4,177.2-23.3,309.9,9.7C442.6,42.8,523.3,177.2,490.2,309.9z"/>
</g>
<g class="st1">
	<polygon class="st2" points="250,36.7 247.2,46.2 247.2,321.8 250,324.6 377.9,249 	"/>
	<polygon class="st3" points="250,36.7 122,249 250,324.6 250,190.8 	"/>
	<polygon class="st4" points="250,348.9 248.4,350.8 248.4,449 250,453.6 378,273.3 	"/>
	<polygon class="st3" points="250,453.6 250,348.9 122,273.3 	"/>
	<polygon class="st5" points="250,324.6 377.9,249 250,190.8 	"/>
	<polygon class="st6" points="122,249 250,324.6 250,190.8 	"/>
</g>
<path class="st7" d="M296.7,207.9c13.1-13.1,20.2-30.3,20.2-48.8c0-16.2-5.7-31.8-16-44.3L341,74.7l-8.9-8.7L292,106.1
	c-12.4-10.3-27.7-16-44-16c-38.1,0-69,31-69,69.1c0,18.3,7.3,35.8,20.2,48.7c11.4,11.4,26.4,18.6,42.4,20v50.9
	c-16.1,1.3-31.1,8.4-42.4,20c-26.9,27-26.9,70.6,0,97.6c13.1,13.1,30.3,20.2,48.8,20.2c18.3,0.1,35.9-7.2,48.8-20.2
	c13.1-13.1,20.2-30.3,20.2-48.8s-7.1-35.7-20.2-48.8c-11.4-11.4-26.4-18.6-42.4-20v-50.9C270.4,226.5,285.5,219.4,296.7,207.9
	 M287.8,307.6c10.5,10.7,16.5,24.8,16.5,39.9c0,15-5.9,29.3-16.5,39.9c-10.5,10.7-24.8,16.5-39.9,16.5c-15,0-29.3-5.9-39.9-16.5
	c-10.5-10.7-16.5-24.8-16.5-39.9c0-15,5.9-29.3,16.5-39.9c10.5-10.7,24.8-16.5,39.9-16.5C263.1,291.1,277.2,296.8,287.8,307.6
	 M247.9,215.7c-15,0-29.3-5.9-39.9-16.5c-10.5-10.7-16.5-24.8-16.5-39.9c0-15,5.9-29.3,16.5-39.9c10.5-10.7,24.8-16.5,39.9-16.5
	c15,0,29.3,5.9,39.9,16.5c10.7,10.5,16.5,24.8,16.5,39.9c0,15-5.9,29.3-16.5,39.9C277.2,209.9,263.1,215.7,247.9,215.7"/>
<path class="st8" d="M384.9,335.7c17.9,24,36.3,48.6,54.7,73.2c-36.9,43.6-82.7,71.5-138,83.2c-61.5,12.8-119.6,3.4-176-27.9
	c50.3-37.4,99.4-74.3,149.2-111.2c11.2,10.6,21.8,21.2,32.4,31.3c11.7,11.2,7.3,11.7,22.3,3.4c20.7-11.7,38-27.9,51.4-47.5
	c0.6-1.1,1.7-2.2,2.2-3.4C382.7,336.8,383.2,336.8,384.9,335.7L384.9,335.7z M165.4,384.8c-14,10.6-26.8,20.1-39.7,30.2
	c-9.5,7.3-19,14-28.5,21.2c-3.9,3.4-6.7,3.4-11.2-0.6c-42.5-38-69.3-84.9-79.3-140.8c-10-56.3-1.1-110,25.7-160.8
	c0.6-1.1,1.7-2.8,2.2-3.9c0-0.6,0.6-0.6,1.7-1.1c36.9,48.6,74.3,97.2,111.2,145.8c-1.1,1.7-1.7,2.8-2.8,3.9
	c-11.2,11.7-22.3,23.5-34.1,34.6c-3.4,3.4-3.9,6.1-1.7,10.1c11.7,22.3,27.9,40.8,48,55.9C159.8,380.9,162,382.6,165.4,384.8
	L165.4,384.8z M373.8,37.9c-17.9,12.8-35.8,25.7-53.6,38c-30.7,21.8-61.5,44.1-91.6,65.9c-3.9,2.8-6.7,3.4-10.1-0.6
	c-10.1-10.6-20.7-20.1-30.7-30.7c-2.8-2.8-5.6-3.4-9.5-1.7c-24,12.3-43,29.6-58.7,51.4c-1.1,1.1-2.2,2.8-3.4,4.5
	c-8.9-11.7-17.3-22.3-25.7-33.5c-8.9-11.7-17.3-23.5-25.7-34.6c-2.8-3.9-3.4-6.7,0.6-10.6c43-47.5,96.1-75.4,159.8-82.1
	c50.3-5.6,98.3,4.5,143,28.5c1.7,1.1,3.4,1.7,5,2.8C373.2,36.8,373.2,37.4,373.8,37.9z M464.8,373.1c-11.7-15.1-22.3-29.1-33-43
	c-24.6-32.4-49.2-65.4-74.3-97.8c-3.4-4.5-3.4-7.3,0.6-11.2c10.6-10.6,20.7-21.2,31.3-31.8c2.8-2.8,3.9-5.6,1.7-9.5
	c-12.3-23.5-29.1-43-50.8-58.7c-1.7-1.1-3.4-2.8-5.6-3.9c1.7-1.7,3.4-2.8,4.5-3.9c21.2-16.2,42.5-31.8,63.7-48
	c3.4-2.8,6.1-3.9,10.1,0c53.1,48,81.6,107.8,84.4,179.9c1.1,41.9-8.4,81.6-27.4,119C468.2,366.4,466.5,369.2,464.8,373.1z"/>
<path class="st7" d="M388.9,170.6L252.7,93.4l-134.9,79.4l1.3,156.6l136.2,77.1l134.9-79.4L388.9,170.6z M176.7,347.4l-46.1-26.8
	V180.1l46.1-26.8L176.7,347.4L176.7,347.4z M253.9,391.4l-66.5-37.5V164l125.5,192L253.9,391.4z M317.2,342L189.6,146.8l64.4-38.6
	l63.3,37.5L317.2,342L317.2,342z M376.2,320.6L329,347.4V153.3l47.2,26.8V320.6z"/>
<g id="cardano_ada" class="st1">
	<g id="cardano_ada-2" class="st9">
		<circle id="Эллипс_6" class="st0" cx="831.3" cy="155.2" r="248.8"/>
		<path id="Эллипс_6_копия_29" class="st10" d="M803.5,78.8c13.6,0,24.6,11,24.6,24.6c0,13.6-11,24.6-24.6,24.6
			c-13.6,0-24.6-11-24.6-24.6C778.9,89.8,789.9,78.8,803.5,78.8z M862.9,78.8c13.6,0,24.6,11,24.6,24.6c0,13.6-11,24.6-24.6,24.6
			c-13.6,0-24.6-11-24.6-24.6C838.3,89.8,849.3,78.8,862.9,78.8L862.9,78.8z M862.9,182.3c13.6,0,24.6,11,24.6,24.6
			c0,13.6-11,24.6-24.6,24.6c-13.6,0-24.6-11-24.6-24.6C838.3,193.3,849.3,182.3,862.9,182.3C862.9,182.3,862.9,182.3,862.9,182.3
			L862.9,182.3z M803.5,182.3c13.6,0,24.6,11,24.6,24.6c0,13.6-11,24.6-24.6,24.6c-13.6,0-24.6-11-24.6-24.6
			C778.9,193.3,789.9,182.3,803.5,182.3z M773,131.4c13.6,0,24.6,11,24.6,24.6c0,13.6-11,24.6-24.6,24.6c-13.6,0-24.6-11-24.6-24.6
			C748.4,142.4,759.4,131.4,773,131.4L773,131.4z M893.4,131.4c13.6,0,24.6,11,24.6,24.6c0,13.6-11,24.6-24.6,24.6
			c-13.6,0-24.6-11-24.6-24.6C868.8,142.4,879.9,131.4,893.4,131.4C893.4,131.4,893.4,131.4,893.4,131.4z M921.4,89
			c8.4,0,15.3,6.8,15.3,15.3c0,8.4-6.8,15.3-15.3,15.3c-8.4,0-15.3-6.8-15.3-15.3C906.2,95.8,913,89,921.4,89
			C921.4,89,921.4,89,921.4,89z M921.4,190.8c8.4,0,15.3,6.8,15.3,15.3c0,8.4-6.8,15.3-15.3,15.3c-8.4,0-15.3-6.8-15.3-15.3
			C906.2,197.6,913,190.8,921.4,190.8C921.4,190.8,921.4,190.8,921.4,190.8z M745,190.8c8.4,0,15.3,6.8,15.3,15.3
			c0,8.4-6.8,15.3-15.3,15.3c-8.4,0-15.3-6.8-15.3-15.3C729.7,197.6,736.5,190.8,745,190.8L745,190.8z M745,89
			c8.4,0,15.3,6.8,15.3,15.3s-6.8,15.3-15.3,15.3c-8.4,0-15.3-6.8-15.3-15.3C729.7,95.8,736.5,89,745,89L745,89z M833.2,38.1
			c8.4,0,15.3,6.8,15.3,15.3c0,8.4-6.8,15.3-15.3,15.3c-8.4,0-15.3-6.8-15.3-15.3C817.9,44.9,824.8,38.1,833.2,38.1
			C833.2,38.1,833.2,38.1,833.2,38.1z M833.2,241.7c8.4,0,15.3,6.8,15.3,15.3c0,8.4-6.8,15.3-15.3,15.3c-8.4,0-15.3-6.8-15.3-15.3
			C817.9,248.5,824.8,241.7,833.2,241.7C833.2,241.7,833.2,241.7,833.2,241.7z M898.5,256.9c7,0,12.7,5.7,12.7,12.7
			c0,7-5.7,12.7-12.7,12.7c-7,0-12.7-5.7-12.7-12.7C885.8,262.6,891.5,256.9,898.5,256.9C898.5,256.9,898.5,256.9,898.5,256.9z
			 M767.9,256.9c7,0,12.7,5.7,12.7,12.7c0,7-5.7,12.7-12.7,12.7c-7,0-12.7-5.7-12.7-12.7C755.2,262.6,760.9,256.9,767.9,256.9
			C767.9,256.9,767.9,256.9,767.9,256.9L767.9,256.9z M767.9,27.9c7,0,12.7,5.7,12.7,12.7c0,7-5.7,12.7-12.7,12.7
			c-7,0-12.7-5.7-12.7-12.7C755.2,33.6,760.9,27.9,767.9,27.9C767.9,27.9,767.9,27.9,767.9,27.9L767.9,27.9z M898.5,27.9
			c7,0,12.7,5.7,12.7,12.7c0,7-5.7,12.7-12.7,12.7c-7,0-12.7-5.7-12.7-12.7C885.8,33.6,891.5,27.9,898.5,27.9
			C898.5,27.9,898.5,27.9,898.5,27.9z M964.7,141.6c7,0,12.7,5.7,12.7,12.7c0,7-5.7,12.7-12.7,12.7c-7,0-12.7-5.7-12.7-12.7
			C952,147.3,957.7,141.6,964.7,141.6L964.7,141.6z M701.7,141.6c7,0,12.7,5.7,12.7,12.7c0,7-5.7,12.7-12.7,12.7
			c-7,0-12.7-5.7-12.7-12.7C689,147.3,694.7,141.6,701.7,141.6C701.7,141.6,701.7,141.6,701.7,141.6L701.7,141.6z M692.4,63.6
			c5.6,0,10.2,4.6,10.2,10.2c0,5.6-4.6,10.2-10.2,10.2c-5.6,0-10.2-4.6-10.2-10.2c0,0,0,0,0,0C682.2,68.1,686.8,63.6,692.4,63.6
			L692.4,63.6z M692.4,226.4c5.6,0,10.2,4.6,10.2,10.2c0,5.6-4.6,10.2-10.2,10.2c-5.6,0-10.2-4.6-10.2-10.2c0,0,0,0,0,0
			C682.2,231,686.8,226.4,692.4,226.4L692.4,226.4z M974,226.4c5.6,0,10.2,4.6,10.2,10.2c0,5.6-4.6,10.2-10.2,10.2
			s-10.2-4.6-10.2-10.2c0,0,0,0,0,0C963.8,231,968.4,226.4,974,226.4L974,226.4z M974,63.6c5.6,0,10.2,4.6,10.2,10.2
			c0,5.6-4.6,10.2-10.2,10.2s-10.2-4.6-10.2-10.2c0,0,0,0,0,0C963.8,68.1,968.4,63.6,974,63.6L974,63.6z M833.2-17.9
			c5.6,0,10.2,4.6,10.2,10.2s-4.6,10.2-10.2,10.2c-5.6,0-10.2-4.6-10.2-10.2l0,0C823-13.3,827.6-17.9,833.2-17.9
			C833.2-17.9,833.2-17.9,833.2-17.9z M833.2,307.8c5.6,0,10.2,4.6,10.2,10.2s-4.6,10.2-10.2,10.2c-5.6,0-10.2-4.6-10.2-10.2
			C823,312.4,827.6,307.8,833.2,307.8C833.2,307.8,833.2,307.8,833.2,307.8z M923.1,301c4.7,0,8.5,3.8,8.5,8.5
			c0,4.7-3.8,8.5-8.5,8.5c-4.7,0-8.5-3.8-8.5-8.5l0,0C914.6,304.8,918.4,301,923.1,301z M743.3,301c4.7,0,8.5,3.8,8.5,8.5
			c0,4.7-3.8,8.5-8.5,8.5c-4.7,0-8.5-3.8-8.5-8.5l0,0C734.8,304.8,738.6,301,743.3,301z M743.3-7.7c4.7,0,8.5,3.8,8.5,8.5
			c0,4.7-3.8,8.5-8.5,8.5c-4.7,0-8.5-3.8-8.5-8.5l0,0C734.8-3.9,738.6-7.7,743.3-7.7C743.3-7.7,743.3-7.7,743.3-7.7L743.3-7.7z
			 M923.1-7.7c4.7,0,8.5,3.8,8.5,8.5c0,4.7-3.8,8.5-8.5,8.5c-4.7,0-8.5-3.8-8.5-8.5l0,0C914.6-3.9,918.4-7.7,923.1-7.7
			C923.1-7.7,923.1-7.7,923.1-7.7L923.1-7.7z M1011.4,146.7c4.7,0,8.5,3.8,8.5,8.5c0,4.7-3.8,8.5-8.5,8.5c-4.7,0-8.5-3.8-8.5-8.5
			c0,0,0,0,0,0C1002.9,150.5,1006.7,146.7,1011.4,146.7L1011.4,146.7z M655.1,146.7c4.7,0,8.5,3.8,8.5,8.5s-3.8,8.5-8.5,8.5
			s-8.5-3.8-8.5-8.5c0,0,0,0,0,0C646.6,150.5,650.4,146.7,655.1,146.7L655.1,146.7z"/>
	</g>
</g>
<path id="Эллипс_6_копия_29_1_" class="st10" d="M220.3,173.7c13.6,0,24.6,11,24.6,24.6c0,13.6-11,24.6-24.6,24.6
	c-13.6,0-24.6-11-24.6-24.6C195.7,184.7,206.7,173.7,220.3,173.7z M279.7,173.7c13.6,0,24.6,11,24.6,24.6c0,13.6-11,24.6-24.6,24.6
	c-13.6,0-24.6-11-24.6-24.6C255.1,184.7,266.1,173.7,279.7,173.7L279.7,173.7z M279.7,277.1c13.6,0,24.6,11,24.6,24.6
	c0,13.6-11,24.6-24.6,24.6c-13.6,0-24.6-11-24.6-24.6C255.1,288.2,266.1,277.1,279.7,277.1C279.7,277.1,279.7,277.1,279.7,277.1
	L279.7,277.1z M220.3,277.1c13.6,0,24.6,11,24.6,24.6c0,13.6-11,24.6-24.6,24.6c-13.6,0-24.6-11-24.6-24.6
	C195.7,288.2,206.7,277.1,220.3,277.1z M189.8,226.3c13.6,0,24.6,11,24.6,24.6c0,13.6-11,24.6-24.6,24.6c-13.6,0-24.6-11-24.6-24.6
	C165.2,237.3,176.2,226.3,189.8,226.3L189.8,226.3z M310.2,226.3c13.6,0,24.6,11,24.6,24.6c0,13.6-11,24.6-24.6,24.6
	c-13.6,0-24.6-11-24.6-24.6C285.6,237.3,296.6,226.2,310.2,226.3C310.2,226.3,310.2,226.3,310.2,226.3z M338.2,183.8
	c8.4,0,15.3,6.8,15.3,15.3c0,8.4-6.8,15.3-15.3,15.3c-8.4,0-15.3-6.8-15.3-15.3C323,190.7,329.8,183.8,338.2,183.8
	C338.2,183.8,338.2,183.8,338.2,183.8z M338.2,285.6c8.4,0,15.3,6.8,15.3,15.3c0,8.4-6.8,15.3-15.3,15.3c-8.4,0-15.3-6.8-15.3-15.3
	C323,292.5,329.8,285.6,338.2,285.6C338.2,285.6,338.2,285.6,338.2,285.6z M161.8,285.6c8.4,0,15.3,6.8,15.3,15.3
	c0,8.4-6.8,15.3-15.3,15.3c-8.4,0-15.3-6.8-15.3-15.3C146.5,292.5,153.3,285.6,161.8,285.6L161.8,285.6z M161.8,183.8
	c8.4,0,15.3,6.8,15.3,15.3c0,8.4-6.8,15.3-15.3,15.3c-8.4,0-15.3-6.8-15.3-15.3C146.5,190.7,153.3,183.8,161.8,183.8L161.8,183.8z
	 M250,133c8.4,0,15.3,6.8,15.3,15.3c0,8.4-6.8,15.3-15.3,15.3c-8.4,0-15.3-6.8-15.3-15.3C234.7,139.8,241.6,133,250,133
	C250,133,250,133,250,133z M250,336.5c8.4,0,15.3,6.8,15.3,15.3c0,8.4-6.8,15.3-15.3,15.3c-8.4,0-15.3-6.8-15.3-15.3
	C234.7,343.3,241.6,336.5,250,336.5C250,336.5,250,336.5,250,336.5z M315.3,351.8c7,0,12.7,5.7,12.7,12.7c0,7-5.7,12.7-12.7,12.7
	c-7,0-12.7-5.7-12.7-12.7C302.6,357.5,308.3,351.8,315.3,351.8C315.3,351.8,315.3,351.8,315.3,351.8z M184.7,351.8
	c7,0,12.7,5.7,12.7,12.7c0,7-5.7,12.7-12.7,12.7c-7,0-12.7-5.7-12.7-12.7C172,357.5,177.6,351.8,184.7,351.8
	C184.7,351.8,184.7,351.8,184.7,351.8L184.7,351.8z M184.7,122.8c7,0,12.7,5.7,12.7,12.7c0,7-5.7,12.7-12.7,12.7
	c-7,0-12.7-5.7-12.7-12.7C172,128.5,177.6,122.8,184.7,122.8C184.7,122.8,184.7,122.8,184.7,122.8L184.7,122.8z M315.3,122.8
	c7,0,12.7,5.7,12.7,12.7c0,7-5.7,12.7-12.7,12.7c-7,0-12.7-5.7-12.7-12.7C302.6,128.5,308.3,122.8,315.3,122.8
	C315.3,122.8,315.3,122.8,315.3,122.8z M381.5,236.4c7,0,12.7,5.7,12.7,12.7c0,7-5.7,12.7-12.7,12.7c-7,0-12.7-5.7-12.7-12.7
	C368.8,242.1,374.5,236.4,381.5,236.4L381.5,236.4z M118.5,236.4c7,0,12.7,5.7,12.7,12.7c0,7-5.7,12.7-12.7,12.7
	c-7,0-12.7-5.7-12.7-12.7C105.8,242.1,111.5,236.4,118.5,236.4C118.5,236.4,118.5,236.4,118.5,236.4L118.5,236.4z M109.2,158.4
	c5.6,0,10.2,4.6,10.2,10.2c0,5.6-4.6,10.2-10.2,10.2c-5.6,0-10.2-4.6-10.2-10.2c0,0,0,0,0,0C99,163,103.6,158.4,109.2,158.4
	L109.2,158.4z M109.2,321.2c5.6,0,10.2,4.6,10.2,10.2c0,5.6-4.6,10.2-10.2,10.2c-5.6,0-10.2-4.6-10.2-10.2c0,0,0,0,0,0
	C99,325.8,103.6,321.2,109.2,321.2L109.2,321.2z M390.8,321.2c5.6,0,10.2,4.6,10.2,10.2c0,5.6-4.6,10.2-10.2,10.2
	c-5.6,0-10.2-4.6-10.2-10.2c0,0,0,0,0,0C380.6,325.8,385.2,321.2,390.8,321.2L390.8,321.2z M390.8,158.4c5.6,0,10.2,4.6,10.2,10.2
	c0,5.6-4.6,10.2-10.2,10.2c-5.6,0-10.2-4.6-10.2-10.2c0,0,0,0,0,0C380.6,163,385.2,158.4,390.8,158.4L390.8,158.4z M250,77
	c5.6,0,10.2,4.6,10.2,10.2c0,5.6-4.6,10.2-10.2,10.2c-5.6,0-10.2-4.6-10.2-10.2l0,0C239.8,81.5,244.4,77,250,77
	C250,77,250,77,250,77z M250,402.7c5.6,0,10.2,4.6,10.2,10.2c0,5.6-4.6,10.2-10.2,10.2c-5.6,0-10.2-4.6-10.2-10.2
	C239.8,407.2,244.4,402.7,250,402.7C250,402.7,250,402.7,250,402.7z M339.9,395.9c4.7,0,8.5,3.8,8.5,8.5c0,4.7-3.8,8.5-8.5,8.5
	c-4.7,0-8.5-3.8-8.5-8.5l0,0C331.4,399.7,335.2,395.9,339.9,395.9z M160.1,395.9c4.7,0,8.5,3.8,8.5,8.5c0,4.7-3.8,8.5-8.5,8.5
	s-8.5-3.8-8.5-8.5l0,0C151.6,399.7,155.4,395.9,160.1,395.9z M160.1,87.2c4.7,0,8.5,3.8,8.5,8.5c0,4.7-3.8,8.5-8.5,8.5
	s-8.5-3.8-8.5-8.5l0,0C151.6,91,155.4,87.2,160.1,87.2C160.1,87.2,160.1,87.2,160.1,87.2L160.1,87.2z M339.9,87.2
	c4.7,0,8.5,3.8,8.5,8.5c0,4.7-3.8,8.5-8.5,8.5c-4.7,0-8.5-3.8-8.5-8.5l0,0C331.4,91,335.2,87.2,339.9,87.2
	C339.9,87.2,339.9,87.2,339.9,87.2L339.9,87.2z M428.1,241.5c4.7,0,8.5,3.8,8.5,8.5c0,4.7-3.8,8.5-8.5,8.5c-4.7,0-8.5-3.8-8.5-8.5
	c0,0,0,0,0,0C419.7,245.3,423.5,241.5,428.1,241.5L428.1,241.5z M71.9,241.5c4.7,0,8.5,3.8,8.5,8.5s-3.8,8.5-8.5,8.5
	s-8.5-3.8-8.5-8.5c0,0,0,0,0,0C63.4,245.3,67.2,241.5,71.9,241.5L71.9,241.5z"/>
</svg>
