<?xml version="1.0" encoding="utf-8"?>
<!-- Generator: Adobe Illustrator 21.0.0, SVG Export Plug-In . SVG Version: 6.00 Build 0)  -->
<svg version="1.1" id="Warstwa_1" xmlns="http://www.w3.org/2000/svg" xmlns:xlink="http://www.w3.org/1999/xlink" x="0px" y="0px"
	 viewBox="0 0 500 500" style="enable-background:new 0 0 500 500;" xml:space="preserve">
<style type="text/css">
	.st0{fill:#F7931A;}
	.st1{fill:#FFFFFF;}
</style>
<g transform="translate(0.00630876,-0.00301984)">
	<path class="st0" d="M490.2,309.9c-33.1,132.7-167.5,213.4-300.2,180.3C57.4,457.2-23.3,322.8,9.8,190.1
		C42.8,57.4,177.2-23.3,309.9,9.7C442.6,42.8,523.3,177.2,490.2,309.9z"/>
	<path class="st1" d="M359.2,214.7c4.9-33-20.2-50.7-54.5-62.5l11.1-44.6l-27.2-6.8l-10.8,43.5c-7.1-1.8-14.5-3.5-21.8-5.1L267,95.4
		l-27.2-6.8l-11.1,44.6c-5.9-1.3-11.7-2.7-17.4-4.1l0-0.1l-37.5-9.4l-7.2,29c0,0,20.2,4.6,19.7,4.9c11,2.7,13,10,12.7,15.8
		l-12.7,50.9c0.8,0.2,1.7,0.5,2.8,0.9c-0.9-0.2-1.9-0.5-2.9-0.7l-17.8,71.2c-1.3,3.3-4.8,8.4-12.5,6.5c0.3,0.4-19.8-4.9-19.8-4.9
		l-13.5,31.1l35.4,8.8c6.6,1.6,13,3.4,19.4,5l-11.2,45.2l27.1,6.8l11.1-44.7c7.4,2,14.6,3.9,21.7,5.6l-11.1,44.5l27.2,6.8l11.2-45.1
		c46.3,8.8,81.2,5.2,95.8-36.7c11.8-33.7-0.6-53.2-25-65.9C342.2,250.5,355.6,238.8,359.2,214.7z M297.1,301.8
		c-8.4,33.7-65.2,15.5-83.6,10.9l14.9-59.8C246.8,257.5,305.9,266.6,297.1,301.8z M305.5,214.2c-7.7,30.7-55,15.1-70.3,11.3
		l13.5-54.3C264.1,175.1,313.5,182.2,305.5,214.2z"/>
</g>
</svg>
