<?xml version="1.0" encoding="utf-8"?>
<!-- Generator: Adobe Illustrator 21.0.0, SVG Export Plug-In . SVG Version: 6.00 Build 0)  -->
<svg version="1.1" id="Warstwa_1" xmlns="http://www.w3.org/2000/svg" xmlns:xlink="http://www.w3.org/1999/xlink" x="0px" y="0px"
	 viewBox="0 0 500 500" style="enable-background:new 0 0 500 500;" xml:space="preserve">
<style type="text/css">
	.st0{fill:#F9F9F9;}
	.st1{display:none;}
	.st2{display:inline;fill:#343434;}
	.st3{display:inline;fill:#8C8C8C;}
	.st4{display:inline;fill:#3C3C3B;}
	.st5{display:inline;fill:#141414;}
	.st6{display:inline;fill:#393939;}
	.st7{display:none;fill:#FFFFFF;}
	.st8{display:none;fill:#231815;}
	.st9{fill:#E6007A;}
</style>
<g transform="translate(0.00630876,-0.00301984)">
	<path class="st0" d="M490.2,309.9C457.1,442.6,322.7,523.3,190,490.2C57.4,457.2-23.3,322.8,9.8,190.1
		C42.8,57.4,177.2-23.3,309.9,9.7C442.6,42.8,523.3,177.2,490.2,309.9z"/>
</g>
<g class="st1">
	<polygon class="st2" points="250,36.7 247.2,46.2 247.2,321.8 250,324.6 377.9,249 	"/>
	<polygon class="st3" points="250,36.7 122,249 250,324.6 250,190.8 	"/>
	<polygon class="st4" points="250,348.9 248.4,350.8 248.4,449 250,453.6 378,273.3 	"/>
	<polygon class="st3" points="250,453.6 250,348.9 122,273.3 	"/>
	<polygon class="st5" points="250,324.6 377.9,249 250,190.8 	"/>
	<polygon class="st6" points="122,249 250,324.6 250,190.8 	"/>
</g>
<path class="st7" d="M296.7,207.9c13.1-13.1,20.2-30.3,20.2-48.8c0-16.2-5.7-31.8-16-44.3L341,74.7l-8.9-8.7L292,106.1
	c-12.4-10.3-27.7-16-44-16c-38.1,0-69,31-69,69.1c0,18.3,7.3,35.8,20.2,48.7c11.4,11.4,26.4,18.6,42.4,20v50.9
	c-16.1,1.3-31.1,8.4-42.4,20c-26.9,27-26.9,70.6,0,97.6c13.1,13.1,30.3,20.2,48.8,20.2c18.3,0.1,35.9-7.2,48.8-20.2
	c13.1-13.1,20.2-30.3,20.2-48.8s-7.1-35.7-20.2-48.8c-11.4-11.4-26.4-18.6-42.4-20v-50.9C270.4,226.5,285.5,219.4,296.7,207.9
	 M287.8,307.6c10.5,10.7,16.5,24.8,16.5,39.9c0,15-5.9,29.3-16.5,39.9c-10.5,10.7-24.8,16.5-39.9,16.5c-15,0-29.3-5.9-39.9-16.5
	c-10.5-10.7-16.5-24.8-16.5-39.9c0-15,5.9-29.3,16.5-39.9c10.5-10.7,24.8-16.5,39.9-16.5C263.1,291.1,277.2,296.8,287.8,307.6
	 M247.9,215.7c-15,0-29.3-5.9-39.9-16.5c-10.5-10.7-16.5-24.8-16.5-39.9c0-15,5.9-29.3,16.5-39.9c10.5-10.7,24.8-16.5,39.9-16.5
	c15,0,29.3,5.9,39.9,16.5c10.7,10.5,16.5,24.8,16.5,39.9c0,15-5.9,29.3-16.5,39.9C277.2,209.9,263.1,215.7,247.9,215.7"/>
<path class="st8" d="M384.9,335.7c17.9,24,36.3,48.6,54.7,73.2c-36.9,43.6-82.7,71.5-138,83.2c-61.5,12.8-119.6,3.4-176-27.9
	c50.3-37.4,99.4-74.3,149.2-111.2c11.2,10.6,21.8,21.2,32.4,31.3c11.7,11.2,7.3,11.7,22.3,3.4c20.7-11.7,38-27.9,51.4-47.5
	c0.6-1.1,1.7-2.2,2.2-3.4C382.7,336.8,383.2,336.8,384.9,335.7L384.9,335.7z M165.4,384.8c-14,10.6-26.8,20.1-39.7,30.2
	c-9.5,7.3-19,14-28.5,21.2c-3.9,3.4-6.7,3.4-11.2-0.6c-42.5-38-69.3-84.9-79.3-140.8c-10-56.3-1.1-110,25.7-160.8
	c0.6-1.1,1.7-2.8,2.2-3.9c0-0.6,0.6-0.6,1.7-1.1c36.9,48.6,74.3,97.2,111.2,145.8c-1.1,1.7-1.7,2.8-2.8,3.9
	c-11.2,11.7-22.3,23.5-34.1,34.6c-3.4,3.4-3.9,6.1-1.7,10.1c11.7,22.3,27.9,40.8,48,55.9C159.8,380.9,162,382.6,165.4,384.8
	L165.4,384.8z M373.8,37.9c-17.9,12.8-35.8,25.7-53.6,38c-30.7,21.8-61.5,44.1-91.6,65.9c-3.9,2.8-6.7,3.4-10.1-0.6
	c-10.1-10.6-20.7-20.1-30.7-30.7c-2.8-2.8-5.6-3.4-9.5-1.7c-24,12.3-43,29.6-58.7,51.4c-1.1,1.1-2.2,2.8-3.4,4.5
	c-8.9-11.7-17.3-22.3-25.7-33.5c-8.9-11.7-17.3-23.5-25.7-34.6c-2.8-3.9-3.4-6.7,0.6-10.6c43-47.5,96.1-75.4,159.8-82.1
	c50.3-5.6,98.3,4.5,143,28.5c1.7,1.1,3.4,1.7,5,2.8C373.2,36.8,373.2,37.4,373.8,37.9z M464.8,373.1c-11.7-15.1-22.3-29.1-33-43
	c-24.6-32.4-49.2-65.4-74.3-97.8c-3.4-4.5-3.4-7.3,0.6-11.2c10.6-10.6,20.7-21.2,31.3-31.8c2.8-2.8,3.9-5.6,1.7-9.5
	c-12.3-23.5-29.1-43-50.8-58.7c-1.7-1.1-3.4-2.8-5.6-3.9c1.7-1.7,3.4-2.8,4.5-3.9c21.2-16.2,42.5-31.8,63.7-48
	c3.4-2.8,6.1-3.9,10.1,0c53.1,48,81.6,107.8,84.4,179.9c1.1,41.9-8.4,81.6-27.4,119C468.2,366.4,466.5,369.2,464.8,373.1z"/>
<path class="st7" d="M388.9,170.6L252.7,93.4l-134.9,79.4l1.3,156.6l136.2,77.1l134.9-79.4L388.9,170.6z M176.7,347.4l-46.1-26.8
	V180.1l46.1-26.8L176.7,347.4L176.7,347.4z M253.9,391.4l-66.5-37.5V164l125.5,192L253.9,391.4z M317.2,342L189.6,146.8l64.4-38.6
	l63.3,37.5L317.2,342L317.2,342z M376.2,320.6L329,347.4V153.3l47.2,26.8V320.6z"/>
<path d="M256.6,88.2c-67.6,0.3-122.3,55-122.6,122.6c0,13.5,2.2,27,6.5,39.8c3.2,8.7,12.7,13.4,21.6,10.7
	c8.6-3.3,13.2-12.7,10.4-21.5c-3.6-10-5.2-20.6-4.8-31.3c1.5-48.8,42.2-87.2,91.1-85.7c48.8,1.5,87.2,42.2,85.7,91.1
	c-1.4,45.7-37.4,82.8-83,85.6c0,0-17.2,1-25.8,2.1c-3.2,0.5-6.3,1.1-9.4,1.9c-0.4,0.5-1.2,0.5-1.6,0l0,0c-0.3-0.4-0.3-1,0-1.4
	l2.7-14.5l16.2-72.7c1.9-9.1-3.8-18-12.9-19.9c-9.1-1.9-18,3.8-19.9,12.9c0,0-38.4,177.9-38.4,179.5c-2.2,8.6,3,17.4,11.7,19.6
	c0.1,0,0.2,0.1,0.3,0.1h0.9c8.6,2.2,17.5-3,19.7-11.6c0-0.1,0.1-0.3,0.1-0.4c0-0.3,0-0.5,0-0.8c0.5-2.1,5.3-25.8,5.3-25.8
	c3.7-17.9,18.1-31.6,36.1-34.3c3.7-0.6,19.3-1.6,19.3-1.6c67.3-6.7,116.5-66.7,109.8-134.1C369.2,137,318.3,89.8,256.6,88.2z"/>
<path class="st9" d="M264,370.8c-11.1-2.3-21.9,4.8-24.2,15.8c0,0.1,0,0.2-0.1,0.3c-2.4,11,4.6,21.8,15.6,24.2c0,0,0,0,0,0h0.6
	c10.8,2.6,21.6-4,24.2-14.8c0-0.1,0-0.2,0.1-0.2v-1.1C282.1,384,275,373.3,264,370.8z"/>
</svg>
