<?xml version="1.0" encoding="utf-8"?>
<!-- Generator: Adobe Illustrator 21.0.0, SVG Export Plug-In . SVG Version: 6.00 Build 0)  -->
<svg version="1.1" id="Warstwa_1" xmlns="http://www.w3.org/2000/svg" xmlns:xlink="http://www.w3.org/1999/xlink" x="0px" y="0px"
	 viewBox="0 0 500 500" style="enable-background:new 0 0 500 500;" xml:space="preserve">
<style type="text/css">
	.st0{fill:#002D64;}
	.st1{display:none;}
	.st2{display:inline;fill:#343434;}
	.st3{display:inline;fill:#8C8C8C;}
	.st4{display:inline;fill:#3C3C3B;}
	.st5{display:inline;fill:#141414;}
	.st6{display:inline;fill:#393939;}
	.st7{fill:#FFFFFF;}
</style>
<g transform="translate(0.00630876,-0.00301984)">
	<path class="st0" d="M490.2,309.9c-33.1,132.7-167.5,213.4-300.2,180.3C57.4,457.2-23.3,322.8,9.8,190.1
		C42.8,57.4,177.2-23.3,309.9,9.7C442.6,42.8,523.3,177.2,490.2,309.9z"/>
</g>
<g class="st1">
	<polygon class="st2" points="250,36.7 247.2,46.2 247.2,321.8 250,324.6 377.9,249 	"/>
	<polygon class="st3" points="250,36.7 122,249 250,324.6 250,190.8 	"/>
	<polygon class="st4" points="250,348.9 248.4,350.8 248.4,449 250,453.6 378,273.3 	"/>
	<polygon class="st3" points="250,453.6 250,348.9 122,273.3 	"/>
	<polygon class="st5" points="250,324.6 377.9,249 250,190.8 	"/>
	<polygon class="st6" points="122,249 250,324.6 250,190.8 	"/>
</g>
<path class="st7" d="M296.7,207.9c13.1-13.1,20.2-30.3,20.2-48.8c0-16.2-5.7-31.8-16-44.3L341,74.7l-8.9-8.7l-40.1,40.1
	c-12.4-10.3-27.7-16-44-16c-38.1,0-69,31-69,69.1c0,18.3,7.3,35.8,20.2,48.7c11.4,11.4,26.4,18.6,42.4,20v50.9
	c-16.1,1.3-31.1,8.4-42.4,20c-26.9,27-26.9,70.6,0,97.6c13.1,13.1,30.3,20.2,48.8,20.2c18.3,0.1,35.9-7.2,48.8-20.2
	c13.1-13.1,20.2-30.3,20.2-48.8c0-18.5-7.1-35.7-20.2-48.8c-11.4-11.4-26.4-18.6-42.4-20v-50.9C270.4,226.5,285.5,219.4,296.7,207.9
	 M287.8,307.6c10.5,10.7,16.5,24.8,16.5,39.9c0,15-5.9,29.3-16.5,39.9c-10.5,10.7-24.8,16.5-39.9,16.5c-15,0-29.3-5.9-39.9-16.5
	c-10.5-10.7-16.5-24.8-16.5-39.9c0-15,5.9-29.3,16.5-39.9c10.5-10.7,24.8-16.5,39.9-16.5C263.1,291.1,277.2,296.8,287.8,307.6
	 M247.9,215.7c-15,0-29.3-5.9-39.9-16.5c-10.5-10.7-16.5-24.8-16.5-39.9c0-15,5.9-29.3,16.5-39.9c10.5-10.7,24.8-16.5,39.9-16.5
	c15,0,29.3,5.9,39.9,16.5c10.7,10.5,16.5,24.8,16.5,39.9c0,15-5.9,29.3-16.5,39.9C277.2,209.9,263.1,215.7,247.9,215.7"/>
</svg>
