<?xml version="1.0" encoding="utf-8"?>
<!-- Generator: Adobe Illustrator 21.0.0, SVG Export Plug-In . SVG Version: 6.00 Build 0)  -->
<svg version="1.1" id="Warstwa_1" xmlns="http://www.w3.org/2000/svg" xmlns:xlink="http://www.w3.org/1999/xlink" x="0px" y="0px"
	 viewBox="0 0 500 500" style="enable-background:new 0 0 500 500;" xml:space="preserve">
<style type="text/css">
	.st0{fill:#5B6DEE;}
	.st1{display:none;}
	.st2{display:inline;fill:#343434;}
	.st3{display:inline;fill:#8C8C8C;}
	.st4{display:inline;fill:#3C3C3B;}
	.st5{display:inline;fill:#141414;}
	.st6{display:inline;fill:#393939;}
	.st7{display:none;fill:#FFFFFF;}
	.st8{display:none;fill:#231815;}
	.st9{fill:#FFFFFF;}
</style>
<g transform="translate(0.00630876,-0.00301984)">
	<path class="st0" d="M490.2,309.9c-33.1,132.7-167.5,213.4-300.2,180.3C57.4,457.2-23.3,322.8,9.8,190.1
		C42.8,57.4,177.2-23.3,309.9,9.7C442.6,42.8,523.3,177.2,490.2,309.9z"/>
</g>
<g class="st1">
	<polygon class="st2" points="250,36.7 247.2,46.2 247.2,321.8 250,324.6 377.9,249 	"/>
	<polygon class="st3" points="250,36.7 122,249 250,324.6 250,190.8 	"/>
	<polygon class="st4" points="250,348.9 248.4,350.8 248.4,449 250,453.6 378,273.3 	"/>
	<polygon class="st3" points="250,453.6 250,348.9 122,273.3 	"/>
	<polygon class="st5" points="250,324.6 377.9,249 250,190.8 	"/>
	<polygon class="st6" points="122,249 250,324.6 250,190.8 	"/>
</g>
<path class="st7" d="M296.7,207.9c13.1-13.1,20.2-30.3,20.2-48.8c0-16.2-5.7-31.8-16-44.3L341,74.7l-8.9-8.7l-40.1,40.1
	c-12.4-10.3-27.7-16-44-16c-38.1,0-69,31-69,69.1c0,18.3,7.3,35.8,20.2,48.7c11.4,11.4,26.4,18.6,42.4,20v50.9
	c-16.1,1.3-31.1,8.4-42.4,20c-26.9,27-26.9,70.6,0,97.6c13.1,13.1,30.3,20.2,48.8,20.2c18.3,0.1,35.9-7.2,48.8-20.2
	c13.1-13.1,20.2-30.3,20.2-48.8c0-18.5-7.1-35.7-20.2-48.8c-11.4-11.4-26.4-18.6-42.4-20v-50.9C270.4,226.5,285.5,219.4,296.7,207.9
	 M287.8,307.6c10.5,10.7,16.5,24.8,16.5,39.9c0,15-5.9,29.3-16.5,39.9c-10.5,10.7-24.8,16.5-39.9,16.5c-15,0-29.3-5.9-39.9-16.5
	c-10.5-10.7-16.5-24.8-16.5-39.9c0-15,5.9-29.3,16.5-39.9c10.5-10.7,24.8-16.5,39.9-16.5C263.1,291.1,277.2,296.8,287.8,307.6
	 M247.9,215.7c-15,0-29.3-5.9-39.9-16.5c-10.5-10.7-16.5-24.8-16.5-39.9c0-15,5.9-29.3,16.5-39.9c10.5-10.7,24.8-16.5,39.9-16.5
	c15,0,29.3,5.9,39.9,16.5c10.7,10.5,16.5,24.8,16.5,39.9c0,15-5.9,29.3-16.5,39.9C277.2,209.9,263.1,215.7,247.9,215.7"/>
<path class="st8" d="M384.9,335.7c17.9,24,36.3,48.6,54.7,73.2c-36.9,43.6-82.7,71.5-138,83.2c-61.5,12.8-119.6,3.4-176-27.9
	c50.3-37.4,99.4-74.3,149.2-111.2c11.2,10.6,21.8,21.2,32.4,31.3c11.7,11.2,7.3,11.7,22.3,3.4c20.7-11.7,38-27.9,51.4-47.5
	c0.6-1.1,1.7-2.2,2.2-3.4C382.7,336.8,383.2,336.8,384.9,335.7L384.9,335.7z M165.4,384.8c-14,10.6-26.8,20.1-39.7,30.2
	c-9.5,7.3-19,14-28.5,21.2c-3.9,3.4-6.7,3.4-11.2-0.6c-42.5-38-69.3-84.9-79.3-140.8C-3.3,238.5,5.6,184.8,32.4,134
	c0.6-1.1,1.7-2.8,2.2-3.9c0-0.6,0.6-0.6,1.7-1.1c36.9,48.6,74.3,97.2,111.2,145.8c-1.1,1.7-1.7,2.8-2.8,3.9
	c-11.2,11.7-22.3,23.5-34.1,34.6c-3.4,3.4-3.9,6.1-1.7,10.1c11.7,22.3,27.9,40.8,48,55.9C159.8,380.9,162,382.6,165.4,384.8
	L165.4,384.8z M373.8,37.9c-17.9,12.8-35.8,25.7-53.6,38c-30.7,21.8-61.5,44.1-91.6,65.9c-3.9,2.8-6.7,3.4-10.1-0.6
	c-10.1-10.6-20.7-20.1-30.7-30.7c-2.8-2.8-5.6-3.4-9.5-1.7c-24,12.3-43,29.6-58.7,51.4c-1.1,1.1-2.2,2.8-3.4,4.5
	c-8.9-11.7-17.3-22.3-25.7-33.5c-8.9-11.7-17.3-23.5-25.7-34.6c-2.8-3.9-3.4-6.7,0.6-10.6c43-47.5,96.1-75.4,159.8-82.1
	c50.3-5.6,98.3,4.5,143,28.5c1.7,1.1,3.4,1.7,5,2.8C373.2,36.8,373.2,37.4,373.8,37.9z M464.8,373.1c-11.7-15.1-22.3-29.1-33-43
	c-24.6-32.4-49.2-65.4-74.3-97.8c-3.4-4.5-3.4-7.3,0.6-11.2c10.6-10.6,20.7-21.2,31.3-31.8c2.8-2.8,3.9-5.6,1.7-9.5
	c-12.3-23.5-29.1-43-50.8-58.7c-1.7-1.1-3.4-2.8-5.6-3.9c1.7-1.7,3.4-2.8,4.5-3.9c21.2-16.2,42.5-31.8,63.7-48
	c3.4-2.8,6.1-3.9,10.1,0c53.1,48,81.6,107.8,84.4,179.9c1.1,41.9-8.4,81.6-27.4,119C468.2,366.4,466.5,369.2,464.8,373.1z"/>
<path class="st7" d="M388.9,170.6L252.7,93.4l-134.9,79.4l1.3,156.6l136.2,77.1l134.9-79.4L388.9,170.6z M176.7,347.4l-46.1-26.8
	V180.1l46.1-26.8V347.4z M253.9,391.4l-66.5-37.5V164l125.5,192L253.9,391.4z M317.2,342L189.6,146.8l64.4-38.6l63.3,37.5V342z
	 M376.2,320.6L329,347.4V153.3l47.2,26.8V320.6z"/>
<path class="st9" d="M219,235c-8.5,0-17,0.7-25.4,2.2c6.9-63.8,60.1-112.2,123.4-112.2c38.8,0,65.3,19,65.3,58.3
	c0,39.3-31.9,58.3-78.4,58.3C269.6,241.7,253.3,235.1,219,235 M216.5,258.3c-46.5,0-78.4,19-78.4,58.3s26.6,58.3,65.3,58.3
	c63.3,0,116.5-48.3,123.4-112.2c-8.4,1.5-16.9,2.2-25.4,2.2C267.1,265,250.8,258.3,216.5,258.3"/>
</svg>
