<?xml version="1.0" encoding="UTF-8" standalone="no"?>
<!DOCTYPE svg PUBLIC "-//W3C//DTD SVG 1.1//EN" "http://www.w3.org/Graphics/SVG/1.1/DTD/svg11.dtd">
<svg width="100%" height="100%" viewBox="0 0 500 500" version="1.1" xmlns="http://www.w3.org/2000/svg" xmlns:xlink="http://www.w3.org/1999/xlink" xml:space="preserve" xmlns:serif="http://www.serif.com/" style="fill-rule:evenodd;clip-rule:evenodd;stroke-linejoin:round;stroke-miterlimit:2;">
    <g transform="matrix(1,0,0,1,0.00630876,-0.00301984)">
        <path d="M490.2,309.9C457.1,442.6 322.7,523.3 190,490.2C57.4,457.2 -23.3,322.8 9.8,190.1C42.8,57.4 177.2,-23.3 309.9,9.7C442.6,42.8 523.3,177.2 490.2,309.9Z" style="fill:rgb(249,249,249);fill-rule:nonzero;"/>
    </g>
    <g transform="matrix(4.428,0,0,4.428,119.174,114.279)">
        <path d="M61.55,19.28C58.55,16.51 54.4,12.28 51.02,9.28L50.82,9.14C50.487,8.873 50.112,8.663 49.71,8.52C41.56,7 3.63,-0.09 2.89,0C2.683,0.029 2.484,0.104 2.31,0.22L2.12,0.37C1.886,0.608 1.708,0.895 1.6,1.21L1.55,1.34L1.55,2.16C5.82,14.05 22.68,53 26,62.14C26.2,62.76 26.58,63.94 27.29,64L27.45,64C27.83,64 29.45,61.86 29.45,61.86C29.45,61.86 58.41,26.74 61.34,23C61.719,22.539 62.054,22.044 62.34,21.52C62.488,20.687 62.188,19.835 61.55,19.28ZM36.88,23.37L49.24,13.12L56.49,19.8L36.88,23.37ZM32.08,22.7L10.8,5.26L45.23,11.61L32.08,22.7ZM34,27.27L55.78,23.76L30.88,53.76L34,27.27ZM7.91,7L30.3,26L27.06,53.78L7.91,7Z" style="fill:rgb(255,6,10);fill-rule:nonzero;"/>
    </g>
</svg>
