<?xml version="1.0" encoding="utf-8"?>
<!-- Generator: Adobe Illustrator 21.0.0, SVG Export Plug-In . SVG Version: 6.00 Build 0)  -->
<svg version="1.1" id="Warstwa_1" xmlns="http://www.w3.org/2000/svg" xmlns:xlink="http://www.w3.org/1999/xlink" x="0px" y="0px"
	 viewBox="0 0 500 500" style="enable-background:new 0 0 500 500;" xml:space="preserve">
<style type="text/css">
	.st0{fill:#F9F9F9;}
	.st1{display:none;}
	.st2{display:inline;fill:#343434;}
	.st3{display:inline;fill:#8C8C8C;}
	.st4{display:inline;fill:#3C3C3B;}
	.st5{display:inline;fill:#141414;}
	.st6{display:inline;fill:#393939;}
	.st7{display:none;fill:#FFFFFF;}
	.st8{display:none;fill:#231815;}
	.st9{display:inline;}
	.st10{fill:#3468D1;}
	.st11{fill:#FFFFFF;}
	.st12{fill:#FF007A;}
</style>
<g transform="translate(0.00630876,-0.00301984)">
	<path class="st0" d="M490.2,309.9C457.1,442.6,322.7,523.3,190,490.2C57.4,457.2-23.3,322.8,9.8,190.1
		C42.8,57.4,177.2-23.3,309.9,9.7C442.6,42.8,523.3,177.2,490.2,309.9z"/>
</g>
<g class="st1">
	<polygon class="st2" points="250,36.7 247.2,46.2 247.2,321.8 250,324.6 377.9,249 	"/>
	<polygon class="st3" points="250,36.7 122,249 250,324.6 250,190.8 	"/>
	<polygon class="st4" points="250,348.9 248.4,350.8 248.4,449 250,453.6 378,273.3 	"/>
	<polygon class="st3" points="250,453.6 250,348.9 122,273.3 	"/>
	<polygon class="st5" points="250,324.6 377.9,249 250,190.8 	"/>
	<polygon class="st6" points="122,249 250,324.6 250,190.8 	"/>
</g>
<path class="st7" d="M296.7,207.9c13.1-13.1,20.2-30.3,20.2-48.8c0-16.2-5.7-31.8-16-44.3L341,74.7l-8.9-8.7L292,106.1
	c-12.4-10.3-27.7-16-44-16c-38.1,0-69,31-69,69.1c0,18.3,7.3,35.8,20.2,48.7c11.4,11.4,26.4,18.6,42.4,20v50.9
	c-16.1,1.3-31.1,8.4-42.4,20c-26.9,27-26.9,70.6,0,97.6c13.1,13.1,30.3,20.2,48.8,20.2c18.3,0.1,35.9-7.2,48.8-20.2
	c13.1-13.1,20.2-30.3,20.2-48.8s-7.1-35.7-20.2-48.8c-11.4-11.4-26.4-18.6-42.4-20v-50.9C270.4,226.5,285.5,219.4,296.7,207.9
	 M287.8,307.6c10.5,10.7,16.5,24.8,16.5,39.9c0,15-5.9,29.3-16.5,39.9c-10.5,10.7-24.8,16.5-39.9,16.5c-15,0-29.3-5.9-39.9-16.5
	c-10.5-10.7-16.5-24.8-16.5-39.9c0-15,5.9-29.3,16.5-39.9c10.5-10.7,24.8-16.5,39.9-16.5C263.1,291.1,277.2,296.8,287.8,307.6
	 M247.9,215.7c-15,0-29.3-5.9-39.9-16.5c-10.5-10.7-16.5-24.8-16.5-39.9c0-15,5.9-29.3,16.5-39.9c10.5-10.7,24.8-16.5,39.9-16.5
	c15,0,29.3,5.9,39.9,16.5c10.7,10.5,16.5,24.8,16.5,39.9c0,15-5.9,29.3-16.5,39.9C277.2,209.9,263.1,215.7,247.9,215.7"/>
<path class="st8" d="M384.9,335.7c17.9,24,36.3,48.6,54.7,73.2c-36.9,43.6-82.7,71.5-138,83.2c-61.5,12.8-119.6,3.4-176-27.9
	c50.3-37.4,99.4-74.3,149.2-111.2c11.2,10.6,21.8,21.2,32.4,31.3c11.7,11.2,7.3,11.7,22.3,3.4c20.7-11.7,38-27.9,51.4-47.5
	c0.6-1.1,1.7-2.2,2.2-3.4C382.7,336.8,383.2,336.8,384.9,335.7L384.9,335.7z M165.4,384.8c-14,10.6-26.8,20.1-39.7,30.2
	c-9.5,7.3-19,14-28.5,21.2c-3.9,3.4-6.7,3.4-11.2-0.6c-42.5-38-69.3-84.9-79.3-140.8c-10-56.3-1.1-110,25.7-160.8
	c0.6-1.1,1.7-2.8,2.2-3.9c0-0.6,0.6-0.6,1.7-1.1c36.9,48.6,74.3,97.2,111.2,145.8c-1.1,1.7-1.7,2.8-2.8,3.9
	c-11.2,11.7-22.3,23.5-34.1,34.6c-3.4,3.4-3.9,6.1-1.7,10.1c11.7,22.3,27.9,40.8,48,55.9C159.8,380.9,162,382.6,165.4,384.8
	L165.4,384.8z M373.8,37.9c-17.9,12.8-35.8,25.7-53.6,38c-30.7,21.8-61.5,44.1-91.6,65.9c-3.9,2.8-6.7,3.4-10.1-0.6
	c-10.1-10.6-20.7-20.1-30.7-30.7c-2.8-2.8-5.6-3.4-9.5-1.7c-24,12.3-43,29.6-58.7,51.4c-1.1,1.1-2.2,2.8-3.4,4.5
	c-8.9-11.7-17.3-22.3-25.7-33.5c-8.9-11.7-17.3-23.5-25.7-34.6c-2.8-3.9-3.4-6.7,0.6-10.6c43-47.5,96.1-75.4,159.8-82.1
	c50.3-5.6,98.3,4.5,143,28.5c1.7,1.1,3.4,1.7,5,2.8C373.2,36.8,373.2,37.4,373.8,37.9z M464.8,373.1c-11.7-15.1-22.3-29.1-33-43
	c-24.6-32.4-49.2-65.4-74.3-97.8c-3.4-4.5-3.4-7.3,0.6-11.2c10.6-10.6,20.7-21.2,31.3-31.8c2.8-2.8,3.9-5.6,1.7-9.5
	c-12.3-23.5-29.1-43-50.8-58.7c-1.7-1.1-3.4-2.8-5.6-3.9c1.7-1.7,3.4-2.8,4.5-3.9c21.2-16.2,42.5-31.8,63.7-48
	c3.4-2.8,6.1-3.9,10.1,0c53.1,48,81.6,107.8,84.4,179.9c1.1,41.9-8.4,81.6-27.4,119C468.2,366.4,466.5,369.2,464.8,373.1z"/>
<path class="st7" d="M388.9,170.6L252.7,93.4l-134.9,79.4l1.3,156.6l136.2,77.1l134.9-79.4L388.9,170.6z M176.7,347.4l-46.1-26.8
	V180.1l46.1-26.8L176.7,347.4L176.7,347.4z M253.9,391.4l-66.5-37.5V164l125.5,192L253.9,391.4z M317.2,342L189.6,146.8l64.4-38.6
	l63.3,37.5L317.2,342L317.2,342z M376.2,320.6L329,347.4V153.3l47.2,26.8V320.6z"/>
<g id="cardano_ada" class="st1">
	<g id="cardano_ada-2" class="st9">
		<circle id="Эллипс_6" class="st10" cx="831.3" cy="155.2" r="248.8"/>
		<path id="Эллипс_6_копия_29" class="st11" d="M803.5,78.8c13.6,0,24.6,11,24.6,24.6c0,13.6-11,24.6-24.6,24.6
			c-13.6,0-24.6-11-24.6-24.6C778.9,89.8,789.9,78.8,803.5,78.8z M862.9,78.8c13.6,0,24.6,11,24.6,24.6c0,13.6-11,24.6-24.6,24.6
			c-13.6,0-24.6-11-24.6-24.6C838.3,89.8,849.3,78.8,862.9,78.8L862.9,78.8z M862.9,182.3c13.6,0,24.6,11,24.6,24.6
			c0,13.6-11,24.6-24.6,24.6c-13.6,0-24.6-11-24.6-24.6C838.3,193.3,849.3,182.3,862.9,182.3C862.9,182.3,862.9,182.3,862.9,182.3
			L862.9,182.3z M803.5,182.3c13.6,0,24.6,11,24.6,24.6c0,13.6-11,24.6-24.6,24.6c-13.6,0-24.6-11-24.6-24.6
			C778.9,193.3,789.9,182.3,803.5,182.3z M773,131.4c13.6,0,24.6,11,24.6,24.6c0,13.6-11,24.6-24.6,24.6c-13.6,0-24.6-11-24.6-24.6
			C748.4,142.4,759.4,131.4,773,131.4L773,131.4z M893.4,131.4c13.6,0,24.6,11,24.6,24.6c0,13.6-11,24.6-24.6,24.6
			c-13.6,0-24.6-11-24.6-24.6C868.8,142.4,879.9,131.4,893.4,131.4C893.4,131.4,893.4,131.4,893.4,131.4z M921.4,89
			c8.4,0,15.3,6.8,15.3,15.3c0,8.4-6.8,15.3-15.3,15.3c-8.4,0-15.3-6.8-15.3-15.3C906.2,95.8,913,89,921.4,89
			C921.4,89,921.4,89,921.4,89z M921.4,190.8c8.4,0,15.3,6.8,15.3,15.3c0,8.4-6.8,15.3-15.3,15.3c-8.4,0-15.3-6.8-15.3-15.3
			C906.2,197.6,913,190.8,921.4,190.8C921.4,190.8,921.4,190.8,921.4,190.8z M745,190.8c8.4,0,15.3,6.8,15.3,15.3
			c0,8.4-6.8,15.3-15.3,15.3c-8.4,0-15.3-6.8-15.3-15.3C729.7,197.6,736.5,190.8,745,190.8L745,190.8z M745,89
			c8.4,0,15.3,6.8,15.3,15.3s-6.8,15.3-15.3,15.3c-8.4,0-15.3-6.8-15.3-15.3C729.7,95.8,736.5,89,745,89L745,89z M833.2,38.1
			c8.4,0,15.3,6.8,15.3,15.3c0,8.4-6.8,15.3-15.3,15.3c-8.4,0-15.3-6.8-15.3-15.3C817.9,44.9,824.8,38.1,833.2,38.1
			C833.2,38.1,833.2,38.1,833.2,38.1z M833.2,241.7c8.4,0,15.3,6.8,15.3,15.3c0,8.4-6.8,15.3-15.3,15.3c-8.4,0-15.3-6.8-15.3-15.3
			C817.9,248.5,824.8,241.7,833.2,241.7C833.2,241.7,833.2,241.7,833.2,241.7z M898.5,256.9c7,0,12.7,5.7,12.7,12.7
			c0,7-5.7,12.7-12.7,12.7c-7,0-12.7-5.7-12.7-12.7C885.8,262.6,891.5,256.9,898.5,256.9C898.5,256.9,898.5,256.9,898.5,256.9z
			 M767.9,256.9c7,0,12.7,5.7,12.7,12.7c0,7-5.7,12.7-12.7,12.7c-7,0-12.7-5.7-12.7-12.7C755.2,262.6,760.9,256.9,767.9,256.9
			C767.9,256.9,767.9,256.9,767.9,256.9L767.9,256.9z M767.9,27.9c7,0,12.7,5.7,12.7,12.7c0,7-5.7,12.7-12.7,12.7
			c-7,0-12.7-5.7-12.7-12.7C755.2,33.6,760.9,27.9,767.9,27.9C767.9,27.9,767.9,27.9,767.9,27.9L767.9,27.9z M898.5,27.9
			c7,0,12.7,5.7,12.7,12.7c0,7-5.7,12.7-12.7,12.7c-7,0-12.7-5.7-12.7-12.7C885.8,33.6,891.5,27.9,898.5,27.9
			C898.5,27.9,898.5,27.9,898.5,27.9z M964.7,141.6c7,0,12.7,5.7,12.7,12.7c0,7-5.7,12.7-12.7,12.7c-7,0-12.7-5.7-12.7-12.7
			C952,147.3,957.7,141.6,964.7,141.6L964.7,141.6z M701.7,141.6c7,0,12.7,5.7,12.7,12.7c0,7-5.7,12.7-12.7,12.7
			c-7,0-12.7-5.7-12.7-12.7C689,147.3,694.7,141.6,701.7,141.6C701.7,141.6,701.7,141.6,701.7,141.6L701.7,141.6z M692.4,63.6
			c5.6,0,10.2,4.6,10.2,10.2c0,5.6-4.6,10.2-10.2,10.2c-5.6,0-10.2-4.6-10.2-10.2c0,0,0,0,0,0C682.2,68.1,686.8,63.6,692.4,63.6
			L692.4,63.6z M692.4,226.4c5.6,0,10.2,4.6,10.2,10.2c0,5.6-4.6,10.2-10.2,10.2c-5.6,0-10.2-4.6-10.2-10.2c0,0,0,0,0,0
			C682.2,231,686.8,226.4,692.4,226.4L692.4,226.4z M974,226.4c5.6,0,10.2,4.6,10.2,10.2c0,5.6-4.6,10.2-10.2,10.2
			s-10.2-4.6-10.2-10.2c0,0,0,0,0,0C963.8,231,968.4,226.4,974,226.4L974,226.4z M974,63.6c5.6,0,10.2,4.6,10.2,10.2
			c0,5.6-4.6,10.2-10.2,10.2s-10.2-4.6-10.2-10.2c0,0,0,0,0,0C963.8,68.1,968.4,63.6,974,63.6L974,63.6z M833.2-17.9
			c5.6,0,10.2,4.6,10.2,10.2s-4.6,10.2-10.2,10.2c-5.6,0-10.2-4.6-10.2-10.2l0,0C823-13.3,827.6-17.9,833.2-17.9
			C833.2-17.9,833.2-17.9,833.2-17.9z M833.2,307.8c5.6,0,10.2,4.6,10.2,10.2s-4.6,10.2-10.2,10.2c-5.6,0-10.2-4.6-10.2-10.2
			C823,312.4,827.6,307.8,833.2,307.8C833.2,307.8,833.2,307.8,833.2,307.8z M923.1,301c4.7,0,8.5,3.8,8.5,8.5
			c0,4.7-3.8,8.5-8.5,8.5c-4.7,0-8.5-3.8-8.5-8.5l0,0C914.6,304.8,918.4,301,923.1,301z M743.3,301c4.7,0,8.5,3.8,8.5,8.5
			c0,4.7-3.8,8.5-8.5,8.5c-4.7,0-8.5-3.8-8.5-8.5l0,0C734.8,304.8,738.6,301,743.3,301z M743.3-7.7c4.7,0,8.5,3.8,8.5,8.5
			c0,4.7-3.8,8.5-8.5,8.5c-4.7,0-8.5-3.8-8.5-8.5l0,0C734.8-3.9,738.6-7.7,743.3-7.7C743.3-7.7,743.3-7.7,743.3-7.7L743.3-7.7z
			 M923.1-7.7c4.7,0,8.5,3.8,8.5,8.5c0,4.7-3.8,8.5-8.5,8.5c-4.7,0-8.5-3.8-8.5-8.5l0,0C914.6-3.9,918.4-7.7,923.1-7.7
			C923.1-7.7,923.1-7.7,923.1-7.7L923.1-7.7z M1011.4,146.7c4.7,0,8.5,3.8,8.5,8.5c0,4.7-3.8,8.5-8.5,8.5c-4.7,0-8.5-3.8-8.5-8.5
			c0,0,0,0,0,0C1002.9,150.5,1006.7,146.7,1011.4,146.7L1011.4,146.7z M655.1,146.7c4.7,0,8.5,3.8,8.5,8.5s-3.8,8.5-8.5,8.5
			s-8.5-3.8-8.5-8.5c0,0,0,0,0,0C646.6,150.5,650.4,146.7,655.1,146.7L655.1,146.7z"/>
	</g>
</g>
<path class="st12" d="M221.8,171.5c-3.3-0.5-3.4-0.6-1.9-0.8c2.9-0.5,9.9,0.2,14.7,1.3c11.2,2.7,21.3,9.5,32.2,21.5l2.9,3.2l4.1-0.7
	c17.4-2.8,35.1-0.6,49.8,6.3c4.1,1.9,10.5,5.6,11.3,6.6c0.3,0.3,0.7,2.3,1,4.4c1.1,7.3,0.5,12.9-1.7,17c-1.2,2.3-1.3,3-0.5,4.9
	c0.7,1.5,2.5,2.7,4.3,2.7c3.7,0,7.6-5.9,9.5-14.2l0.7-3.3l1.4,1.6c7.9,9,14.1,21.2,15.2,29.9l0.3,2.3l-1.3-2.1
	c-2.3-3.5-4.6-6-7.5-7.9c-5.3-3.5-10.9-4.7-25.8-5.5c-13.4-0.7-21-1.9-28.6-4.3c-12.8-4.2-19.3-9.7-34.5-29.7
	c-6.8-8.9-10.9-13.8-15.1-17.7C243,178.1,233.7,173.4,221.8,171.5z"/>
<path class="st12" d="M338,191.3c0.3-5.9,1.1-9.9,2.8-13.4c0.6-1.4,1.2-2.6,1.3-2.6s-0.2,1-0.6,2.3c-1.2,3.5-1.4,8.2-0.6,13.8
	c1,7,1.6,8,9,15.6c3.5,3.6,7.5,8,9,10l2.7,3.5l-2.7-2.5c-3.3-3.1-10.8-9-12.4-9.9c-1.1-0.6-1.3-0.6-2,0.1c-0.6,0.6-0.8,1.6-0.9,6
	c-0.1,7-1.1,11.4-3.4,15.9c-1.2,2.4-1.4,1.9-0.3-0.8c0.8-2,0.9-2.9,0.9-9.7c0-13.5-1.6-16.8-11-22.4c-2.4-1.4-6.3-3.4-8.7-4.5
	c-2.4-1.1-4.3-2-4.3-2.1c0.3-0.3,9.5,2.4,13.2,3.8c5.5,2.1,6.4,2.4,7.1,2.1C337.5,196.5,337.7,195.2,338,191.3z"/>
<path class="st12" d="M228.1,214.5c-6.6-9.1-10.7-23.1-9.8-33.5l0.3-3.2l1.5,0.3c2.8,0.5,7.7,2.3,10,3.7c6.3,3.8,9,8.8,11.7,21.7
	c0.8,3.8,1.9,8,2.4,9.5c0.8,2.3,3.8,7.8,6.2,11.3c1.7,2.5,0.6,3.7-3.3,3.4C241.2,227,233.3,221.5,228.1,214.5z"/>
<path class="st12" d="M329.9,282.3c-30.9-12.5-41.8-23.3-41.8-41.5c0-2.7,0.1-4.9,0.2-4.9c0.1,0,1.3,0.9,2.7,2
	c6.3,5,13.3,7.2,32.8,10c11.4,1.7,17.9,3,23.8,5c18.9,6.3,30.6,19,33.4,36.3c0.8,5,0.3,14.5-1,19.4c-1,3.9-4.2,11-5,11.3
	c-0.2,0.1-0.5-0.8-0.5-2c-0.3-6.5-3.6-12.8-9.1-17.6C359,294.9,350.5,290.6,329.9,282.3z"/>
<path class="st12" d="M308.2,287.5c-0.4-2.3-1.1-5.3-1.5-6.5l-0.8-2.4l1.5,1.6c2,2.3,3.6,5.2,5,9.1c1,3,1.2,3.8,1.1,8.7
	c0,4.7-0.1,5.7-1.1,8.4c-1.5,4.2-3.4,7.2-6.5,10.4c-5.7,5.8-12.9,8.9-23.4,10.3c-1.8,0.2-7.1,0.6-11.8,0.9
	c-11.8,0.6-19.5,1.9-26.5,4.3c-1,0.4-1.9,0.6-2,0.5c-0.3-0.3,4.5-3.1,8.4-5c5.5-2.7,11-4.1,23.3-6.2c6.1-1,12.4-2.2,14-2.7
	C302.9,314.2,310.7,302.3,308.2,287.5z"/>
<path class="st12" d="M322.4,312.7c-4.1-8.8-5.1-17.4-2.8-25.3c0.2-0.9,0.6-1.5,0.9-1.5c0.2,0,1.2,0.5,2.2,1.2
	c1.9,1.3,5.7,3.4,15.8,8.9c12.6,6.9,19.8,12.2,24.7,18.3c4.3,5.3,6.9,11.4,8.2,18.8c0.7,4.2,0.3,14.3-0.8,18.5
	c-3.4,13.3-11.3,23.8-22.6,29.9c-1.6,0.9-3.1,1.6-3.3,1.6c-0.2,0,0.4-1.5,1.3-3.4c3.8-7.9,4.2-15.6,1.4-24.2
	c-1.8-5.2-5.3-11.7-12.5-22.5C326.5,320.5,324.5,317.1,322.4,312.7z"/>
<path class="st12" d="M206.2,360.4c11.5-9.7,25.8-16.6,38.8-18.7c5.6-0.9,15-0.5,20.1,0.8c8.3,2.1,15.8,6.9,19.6,12.6
	c3.8,5.6,5.4,10.4,7.1,21.2c0.7,4.3,1.4,8.5,1.6,9.5c1.3,5.6,3.7,10,6.8,12.3c4.9,3.6,13.2,3.8,21.5,0.6c1.4-0.5,2.6-0.9,2.7-0.8
	c0.3,0.3-3.8,3.1-6.8,4.5c-3.9,2-7.1,2.7-11.2,2.7c-7.5,0-13.8-3.8-19-11.7c-1-1.5-3.3-6.2-5.1-10.3c-5.5-12.6-8.2-16.4-14.7-20.6
	c-5.6-3.7-12.8-4.3-18.2-1.7c-7.1,3.5-9.1,12.6-4,18.3c2,2.3,5.8,4.3,8.9,4.6c5.8,0.7,10.7-3.7,10.7-9.5c0-3.8-1.5-5.9-5.1-7.6
	c-5-2.3-10.4,0.4-10.3,5.1c0,2,0.9,3.3,2.9,4.2c1.3,0.6,1.3,0.6,0.3,0.4c-4.6-1-5.7-6.5-2-10.2c4.4-4.4,13.6-2.5,16.7,3.6
	c1.3,2.5,1.5,7.6,0.3,10.6c-2.6,6.8-10.1,10.4-17.7,8.4c-5.2-1.3-7.3-2.8-13.6-9.2c-10.9-11.2-15.1-13.4-30.8-15.8l-3-0.5
	L206.2,360.4z"/>
<path class="st12" d="M124.1,109.4c36.3,44.1,92.3,112.7,95.1,116.6c2.3,3.2,1.4,6-2.5,8.3c-2.2,1.2-6.7,2.5-8.9,2.5
	c-2.5,0-5.4-1.2-7.5-3.2c-1.5-1.4-7.4-10.3-21.2-31.6c-10.5-16.3-19.3-29.9-19.6-30.1c-0.6-0.5-0.5-0.5,18.5,33.6
	c12,21.4,16,29,16,30c0,2.1-0.6,3.1-3.1,6c-4.2,4.7-6.1,10-7.5,21c-1.5,12.3-5.8,21-17.8,35.9c-7,8.7-8.1,10.3-9.9,13.8
	c-2.2,4.4-2.8,6.9-3.1,12.5c-0.3,5.9,0.2,9.7,2.1,15.4c1.6,4.9,3.2,8.2,7.4,14.7c3.6,5.6,5.7,9.8,5.7,11.5c0,1.3,0.2,1.3,5.9,0
	c13.5-3,24.4-8.4,30.6-15c3.8-4.1,4.7-6.3,4.7-11.9c0-3.6-0.1-4.4-1.1-6.5c-1.6-3.4-4.5-6.2-10.9-10.6c-8.4-5.8-12-10.4-13-16.8
	c-0.8-5.2,0.1-8.9,4.8-18.7c4.8-10.1,6-14.4,6.8-24.6c0.5-6.6,1.2-9.2,3.1-11.3c2-2.2,3.7-2.9,8.6-3.6c8-1.1,13-3.1,17.2-7
	c3.6-3.3,5.1-6.5,5.4-11.4l0.2-3.7l-2-2.4c-7.3-8.5-108.9-120.1-109.4-120.1C118.7,102.7,121.1,105.7,124.1,109.4z M172,331.2
	c1.7-2.9,0.8-6.7-2-8.5c-2.6-1.7-6.7-0.9-6.7,1.3c0,0.7,0.4,1.2,1.2,1.6c1.4,0.7,1.6,1.6,0.4,3.3c-1.2,1.7-1.1,3.3,0.3,4.3
	C167.4,334.9,170.5,334,172,331.2z"/>
<path class="st12" d="M235.2,249.1c-3.7,1.1-7.4,5.1-8.5,9.3c-0.7,2.5-0.3,7,0.7,8.3c1.7,2.2,3.3,2.8,7.6,2.8
	c8.5-0.1,15.9-3.7,16.8-8.3c0.7-3.7-2.5-8.9-7-11.2C242.5,248.9,237.6,248.4,235.2,249.1z M245.1,256.9c1.3-1.9,0.7-3.9-1.5-5.2
	c-4.2-2.6-10.7-0.4-10.7,3.6c0,2,3.4,4.2,6.4,4.2C241.4,259.4,244.2,258.2,245.1,256.9z"/>
</svg>
