<svg xmlns="http://www.w3.org/2000/svg" xmlns:xlink="http://www.w3.org/1999/xlink" viewBox="0 0 1376.22 1376.6"><defs><style>.cls-1{fill:#fafafa;}.cls-2{fill:#afc9f9;}.cls-3{fill:#bdd0fb;}.cls-4{fill:url(#linear-gradient);}.cls-5{fill:#10263c;}.cls-6{fill:#91b3fa;}.cls-7{fill:url(#linear-gradient-2);}.cls-8{fill:#007cff;}.cls-9{fill:#b5d4ff;}.cls-10,.cls-12{fill:#fff;}.cls-10{opacity:0.78;}.cls-11{opacity:0.6;}.cls-13{fill:#10273b;}.cls-14{fill:url(#linear-gradient-3);}.cls-15{fill:url(#linear-gradient-4);}.cls-16{fill:url(#linear-gradient-5);}.cls-17{fill:url(#linear-gradient-6);}.cls-18{fill:url(#linear-gradient-7);}.cls-19{fill:url(#linear-gradient-8);}.cls-20{fill:url(#linear-gradient-9);}.cls-21{fill:url(#linear-gradient-10);}.cls-22{fill:url(#linear-gradient-11);}.cls-23{fill:url(#linear-gradient-12);}.cls-24{fill:url(#linear-gradient-13);}.cls-25{fill:url(#linear-gradient-14);}.cls-26{fill:url(#linear-gradient-15);}.cls-27{fill:url(#linear-gradient-16);}.cls-28{fill:url(#linear-gradient-17);}.cls-29{fill:url(#linear-gradient-18);}.cls-30{fill:url(#linear-gradient-19);}.cls-31{fill:url(#linear-gradient-20);}</style><linearGradient id="linear-gradient" x1="1027.85" y1="628.48" x2="1294.82" y2="628.48" gradientUnits="userSpaceOnUse"><stop offset="0" stop-color="#dae3fe"/><stop offset="1" stop-color="#e9effd"/></linearGradient><linearGradient id="linear-gradient-2" x1="175.98" y1="1034.35" x2="877.52" y2="1480.04" gradientUnits="userSpaceOnUse"><stop offset="0" stop-color="#a737d5"/><stop offset="1" stop-color="#ef497a"/></linearGradient><linearGradient id="linear-gradient-3" x1="456.05" y1="1103.73" x2="377.13" y2="1215.05" gradientUnits="userSpaceOnUse"><stop offset="0" stop-color="#10273b"/><stop offset="1" stop-color="#0061c2"/></linearGradient><linearGradient id="linear-gradient-4" x1="674.38" y1="841.84" x2="132.73" y2="1583.54" gradientUnits="userSpaceOnUse"><stop offset="0" stop-color="#006edb"/><stop offset="1" stop-color="#0080ff"/></linearGradient><linearGradient id="linear-gradient-5" x1="326.23" y1="1192.12" x2="341.24" y2="880.33" xlink:href="#linear-gradient-4"/><linearGradient id="linear-gradient-6" x1="806.48" y1="738.18" x2="667.91" y2="878.41" xlink:href="#linear-gradient-3"/><linearGradient id="linear-gradient-7" x1="1456.88" y1="1395.11" x2="1584.82" y2="1426.68" gradientTransform="translate(1854.04 -311.59) rotate(64.07)" xlink:href="#linear-gradient-4"/><linearGradient id="linear-gradient-8" x1="868.47" y1="1138.65" x2="1050.05" y2="1252.34" gradientTransform="translate(1815.31 -287.36) rotate(64.07)" xlink:href="#linear-gradient-4"/><linearGradient id="linear-gradient-9" x1="1369.26" y1="943.41" x2="468.65" y2="504.79" gradientTransform="matrix(1, -0.05, 0.05, 1, -11.54, 530.09)" xlink:href="#linear-gradient-4"/><linearGradient id="linear-gradient-10" x1="389.26" y1="908.35" x2="529.25" y2="1008.59" gradientTransform="translate(1193.08 96.39) rotate(64.07)" xlink:href="#linear-gradient-3"/><linearGradient id="linear-gradient-11" x1="754.76" y1="1086.64" x2="303.18" y2="901.1" gradientTransform="translate(969.86 242.33) rotate(64.07)" xlink:href="#linear-gradient-4"/><linearGradient id="linear-gradient-12" x1="277.3" y1="909.87" x2="489.14" y2="1014.54" gradientTransform="translate(1087.59 192.69) rotate(64.07)" xlink:href="#linear-gradient-4"/><linearGradient id="linear-gradient-13" x1="134.67" y1="1259.77" x2="259.28" y2="1170.05" gradientTransform="translate(1194.08 362.89) rotate(64.07)" xlink:href="#linear-gradient-3"/><linearGradient id="linear-gradient-14" x1="206.44" y1="1403.72" x2="279.54" y2="1206" xlink:href="#linear-gradient-4"/><linearGradient id="linear-gradient-15" x1="151.06" y1="689.79" x2="226.28" y2="881.26" xlink:href="#linear-gradient-3"/><linearGradient id="linear-gradient-16" x1="199.56" y1="1443.65" x2="309.06" y2="1132.24" xlink:href="#linear-gradient-4"/><linearGradient id="linear-gradient-17" x1="9994.57" y1="-3111.05" x2="10130.91" y2="-3296.44" gradientTransform="matrix(1, 0, 0, -1, -12722.89, -6701.84)" xlink:href="#linear-gradient-3"/><linearGradient id="linear-gradient-18" x1="684.67" y1="444.05" x2="583.32" y2="608.54" xlink:href="#linear-gradient-4"/><linearGradient id="linear-gradient-19" x1="428.87" y1="493.99" x2="453.8" y2="683.07" xlink:href="#linear-gradient-3"/><linearGradient id="linear-gradient-20" x1="703.41" y1="465.65" x2="550.68" y2="681.88" gradientTransform="translate(981.18 27.14) rotate(64.07)" xlink:href="#linear-gradient-4"/></defs><title>Zasób 35</title><g id="Warstwa_2" data-name="Warstwa 2"><g id="DESIGNED_BY_FREEPIK" data-name="DESIGNED BY FREEPIK"><path class="cls-1" d="M1211.37,1183c-28.14,29.62-54.76,48.73-75.79,63.82-247.25,177.4-539.8,125.69-602,113.06-91.81-18.65-269.29-54.7-397.6-205.59C-58.12,926-27.9,566.31,122.68,328.89c27.54-43.43,173-284.46,468.74-323.11,179-23.4,387.56,23.78,538.63,150.35C1447.15,421.8,1424.58,958.5,1211.37,1183Z"/><path class="cls-2" d="M988.85,783.54s-4-169.23,73.92-214.52,226.14-73.61,231.69-316.6c3.25-142.25,6.77-204.45,9.13-231.57A16,16,0,0,0,1284.68,3.7c-73.82,13.9-313.63,71.14-363.9,234.82C861.17,432.56,988.85,783.54,988.85,783.54Z"/><path class="cls-3" d="M1227.59,71.3c-81,72.27-174.73,200.17-224.67,328.07-6.41,21.08-25.16,65.9-33.31,145.55C962.34,611.34,966,681.53,974.78,728a5.4,5.4,0,0,0,6.32,4.3c5-.95,4.38-6.39,4.34-6.21-10.08-79.39-5.89-178.19,17.18-267.34,29.49-109.47,95.25-215.6,163.27-305.62l7-8.86c52.7-67.68,63.79-68.18,58.87-72.89A3.08,3.08,0,0,0,1227.59,71.3Z"/><path class="cls-3" d="M891.44,1093.94c-10.54,5.17,99.84-133.63,134.41-351.63,16.3-102.73,16.51-231.44,75-281,48.7-41.28,214.43-15.21,268.65-5.31a8.14,8.14,0,0,1,3.79,14.23c-26,21.84-81.64,73.35-96.13,125.26-19.11,68.43-84.16,112-142.41,123.74s-90.64,23.21-119,116.35S921.41,1079.25,891.44,1093.94Z"/><path class="cls-4" d="M1293.27,484.87c-69.19,2.9-143.45,34.46-181.14,93.66l-3.55,5.65c-8.22,13.24-54.78,107.4-80.64,185.46a1.86,1.86,0,0,0,1.18,2.34,1.89,1.89,0,0,0,2.32-1.11c18-44.09,43.9-100,64.5-141.8,22.11-45.62,37.57-76.52,88-106.11,56.11-31.87,109.71-35.15,109.55-35.12a1.49,1.49,0,0,0-.21-3Z"/><path class="cls-5" d="M265.29,328.47a79.14,79.14,0,0,1,79.14-79.14h673a69.73,69.73,0,0,1,69.64,66.18l49.68,975.75a51.43,51.43,0,0,1-50.42,54l-771.37,14a48.81,48.81,0,0,1-49.69-48.8Z"/><path class="cls-6" d="M427.72,1342.72h0l-86.31-1.12a53.23,53.23,0,0,1-52.34-53V1158.27a1.85,1.85,0,1,1,3.69,0v130.31a49.53,49.53,0,0,0,48.7,49.34l86.31,1.11a1.85,1.85,0,0,1,0,3.69Z"/><path class="cls-7" d="M290.88,1119.74a1.84,1.84,0,0,1-1.84-1.84v-21.1a1.85,1.85,0,1,1,3.69,0v21.1A1.84,1.84,0,0,1,290.88,1119.74Z"/><path class="cls-8" d="M320.43,264.35a23,23,0,0,1,26.07-22.93c91.91,12.46,408,51,669.25,31a21.27,21.27,0,0,1,22.9,20.05l52.09,980.11a24.46,24.46,0,0,1-23,25.72c-109.89,6.5-562.49,31.65-723.93,14.74a19.38,19.38,0,0,1-17.34-19.18Z"/><path class="cls-9" d="M331.25,288.91a22.13,22.13,0,0,1,25.09-22.07c88.45,12,392.59,49.09,644.06,29.79a20.46,20.46,0,0,1,22,19.29l50.13,943.2a23.55,23.55,0,0,1-22.12,24.76c-105.76,6.26-541.32,30.45-696.67,14.18a18.65,18.65,0,0,1-16.69-18.46Z"/><path class="cls-10" d="M413.13,361.63l9.39,202.21A12.85,12.85,0,0,0,435,576.1c37.45,1.06,154.14,3.91,220,.47a14.36,14.36,0,0,0,13.6-13.88c1.26-37.92,4-148.3-4.63-194.44a16.22,16.22,0,0,0-15.39-13.18l-221.35-7.74A13.67,13.67,0,0,0,413.13,361.63Z"/><g class="cls-11"><path class="cls-12" d="M967.29,379.23c4.14,0,7.43-3.05,7.32-6.78s-3.58-6.85-7.72-6.92l-243.45-4.34c-4.14-.07-6.4,3.06-5,7l1.4,4a11.41,11.41,0,0,0,10,7.1Z"/></g><g class="cls-11"><path class="cls-12" d="M723.44,398.89c-4.14-.08-6.4,3.06-5,7l1.4,4a11.43,11.43,0,0,0,10,7.1H967.29c4.14,0,7.43-3.06,7.32-6.79s-3.58-6.84-7.72-6.91Z"/></g><g class="cls-11"><path class="cls-12" d="M723.44,437.13c-4.14-.07-6.4,3.06-5,7l1.4,4a11.41,11.41,0,0,0,10,7.1H967.29c4.14,0,7.43-3.05,7.32-6.78s-3.58-6.85-7.72-6.92Z"/></g><g class="cls-11"><path class="cls-12" d="M990.86,639.61c4.14,0,7.33-3.05,7.08-6.78s-3.83-6.81-8-6.85L420.59,621.5c-4.14,0-5.42,2.59-2.84,5.82l5.1,6.4a17.69,17.69,0,0,0,12.21,5.89Z"/></g><g class="cls-11"><path class="cls-12" d="M420.59,659.19c-4.14,0-5.42,2.59-2.84,5.83l5.1,6.4a17.69,17.69,0,0,0,12.21,5.89h555.8c4.14,0,7.33-3.06,7.08-6.79s-3.83-6.81-8-6.84Z"/></g><path class="cls-8" d="M418.38,722.14c13.67-1,39.28-1.54,53.37-1.73a12.76,12.76,0,0,1,12.61,9.76c2.72,11.28,6.48,30.86,6,51.61a11.33,11.33,0,0,1-11.44,11.1l-52-.56A12.47,12.47,0,0,1,414.61,781L410,732.07A9.1,9.1,0,0,1,418.38,722.14Z"/><g class="cls-11"><path class="cls-12" d="M514.2,742.21a6,6,0,0,0-6.4,7.13l1.37,9.1a9,9,0,0,0,8.64,7.44h127a7.42,7.42,0,0,0,7.43-7.52l0-2.86a8.06,8.06,0,0,0-7.61-7.84Z"/></g><path class="cls-8" d="M701.73,722.14c13.68-1,39.28-1.54,53.37-1.73a12.78,12.78,0,0,1,12.62,9.76c2.72,11.28,6.47,30.86,6,51.61a11.35,11.35,0,0,1-11.45,11.1l-52-.56A12.47,12.47,0,0,1,698,781l-4.58-48.93A9.1,9.1,0,0,1,701.73,722.14Z"/><g class="cls-11"><path class="cls-12" d="M797.56,742.21a6,6,0,0,0-6.4,7.13l1.36,9.1a9.05,9.05,0,0,0,8.65,7.44h127a7.43,7.43,0,0,0,7.43-7.52l0-2.86a8.06,8.06,0,0,0-7.61-7.84Z"/></g><g class="cls-11"><path class="cls-12" d="M402.44,889.53c1.78,5.27,7.92,8.92,14.92,8.88l569.72-3.79c6.44,0,11.6-4.19,11.46-9.21s-5.24-8.79-11.51-8.81l-569.74-2C407.24,874.54,399.88,882,402.44,889.53Z"/></g><g class="cls-11"><path class="cls-12" d="M402.44,992.39c1.78,5.27,7.92,8.93,14.92,8.88l569.72-3.79c6.44,0,11.6-4.18,11.46-9.21s-5.24-8.79-11.51-8.81l-569.74-2C407.24,977.4,399.88,984.81,402.44,992.39Z"/></g><g class="cls-11"><path class="cls-12" d="M402.44,1095.25c1.78,5.27,7.92,8.93,14.92,8.88l569.72-3.78c6.44,0,11.6-4.19,11.46-9.21s-5.24-8.79-11.51-8.82l-569.74-2C407.24,1080.26,399.88,1087.68,402.44,1095.25Z"/></g><g class="cls-11"><path class="cls-12" d="M402.44,1198.12h0c1.78,5.27,7.92,8.92,14.92,8.88l569.72-3.79c6.44,0,11.6-4.19,11.46-9.21s-5.24-8.79-11.51-8.81l-569.74-2C407.24,1183.13,399.88,1190.54,402.44,1198.12Z"/></g><path class="cls-13" d="M722.68,116.29c-24.31-16.91-45.45-16.58-60.33-12.19a29.69,29.69,0,0,0-21.08,31.21l6.42,70,76.36,6.78S770.36,149.46,722.68,116.29ZM689.1,172.8a19,19,0,1,1,19-19A19,19,0,0,1,689.1,172.8Z"/><path class="cls-8" d="M655.32,175.89a1.85,1.85,0,0,1-1.84-1.68l-1-11.15a1.86,1.86,0,0,1,1.67-2,1.84,1.84,0,0,1,2,1.67l1,11.16a1.83,1.83,0,0,1-1.66,2Zm-2-21.86a1.84,1.84,0,0,1-1.83-1.68l-.77-8.47a28.31,28.31,0,0,1,20.08-29.72A57.07,57.07,0,0,1,698.7,113a1.84,1.84,0,1,1-.74,3.61,53.61,53.61,0,0,0-26.13,1.07,24.65,24.65,0,0,0-17.46,25.86l.78,8.47a1.84,1.84,0,0,1-1.67,2Z"/><path class="cls-13" d="M543.47,250.62V215.4a21.49,21.49,0,0,1,22.22-21.48l242.8,8.32a20.91,20.91,0,0,1,20.15,19.64l2,33.84Z"/><path class="cls-8" d="M634,207.19H623.56a1.84,1.84,0,1,1,0-3.68H634a1.84,1.84,0,1,1,0,3.68Z"/><path class="cls-8" d="M556.61,239.56a1.84,1.84,0,0,1-1.84-1.84V223.47a20,20,0,0,1,20-20h38.39a1.84,1.84,0,1,1,0,3.68H574.73a16.3,16.3,0,0,0-16.28,16.28v14.25A1.84,1.84,0,0,1,556.61,239.56Z"/><path class="cls-9" d="M445.73,257.06A22.88,22.88,0,0,1,469,235.71l424.51,7.89a31.37,31.37,0,0,1,30.43,26.6l.32,2.08a27,27,0,0,1-27.14,31.05l-435.51-8.11a17.51,17.51,0,0,1-17.16-18.68Z"/><rect class="cls-14" x="18.8" y="1218.88" width="610.38" height="142.25"/><path class="cls-15" d="M6.1,1297.4H639.93a0,0,0,0,1,0,0v49.46a5.17,5.17,0,0,1-5.17,5.17H13.83a7.73,7.73,0,0,1-7.73-7.73V1297.4A0,0,0,0,1,6.1,1297.4Z"/><path class="cls-16" d="M6.1,1235.38H639.93a0,0,0,0,1,0,0v47a7.67,7.67,0,0,1-7.67,7.67H15.66a9.57,9.57,0,0,1-9.57-9.57v-45.06a0,0,0,0,1,0,0Z"/><path class="cls-17" d="M14,1214.89H631.93a8,8,0,0,1,8,8v12.48a0,0,0,0,1,0,0H6.1a0,0,0,0,1,0,0v-12.58A7.9,7.9,0,0,1,14,1214.89Z"/><ellipse class="cls-18" cx="1176.02" cy="1325.81" rx="48.04" ry="41.35" transform="translate(-530.58 1803.61) rotate(-64.07)"/><rect class="cls-19" x="1110.12" y="1289.21" width="54.35" height="35.53" rx="6.25" transform="translate(-535.44 1758.19) rotate(-64.07)"/><path class="cls-20" d="M1136.82,1272.25c-3.77,19.37-12.37,36.67-25.44,52-7.06,8.32-18.39,12-29.66,9.77-107.75-21.63-333.57-161.2-552.87-283.12-14.53-8.08-24.57-17.25-17.73-31.33l15.13-31.11c6.8-14,23.09-6.11,38.38.17,232,95.3,478,178.38,562.47,255.24A30.55,30.55,0,0,1,1136.82,1272.25Z"/><rect class="cls-21" x="457.8" y="983.55" width="123.41" height="36.12" rx="3" transform="translate(-608.44 1030.79) rotate(-64.07)"/><rect class="cls-22" x="229.57" y="878.15" width="123.41" height="36.12" rx="3" transform="translate(-642.07 766.23) rotate(-64.07)"/><rect class="cls-23" x="204.31" y="839.79" width="371" height="251.34" transform="translate(-648.91 893.81) rotate(-64.07)"/><rect class="cls-24" x="283.72" y="1009.99" width="46.66" height="251.34" transform="translate(-848.54 915.15) rotate(-64.07)"/><path class="cls-25" d="M419.08,1192.65l-10.14,20.86a14.51,14.51,0,0,1-17.16,7.55c-70.46-20.92-138.66-53.53-204.27-99.45a14.26,14.26,0,0,1-4.65-17.93L193,1082.74Z"/><path class="cls-26" d="M441.9,1161.21l-8.46,17.38a3.12,3.12,0,0,1-4.17,1.45L192.61,1065a3.13,3.13,0,0,1-1.44-4.18l8.45-17.39a3.13,3.13,0,0,1,4.18-1.44L440.45,1157A3.12,3.12,0,0,1,441.9,1161.21Z"/><path class="cls-27" d="M440.55,1164l-5.75,11.82a2.84,2.84,0,0,1-3.79,1.31L193.83,1061.78a2.83,2.83,0,0,1-1.31-3.78l5.75-11.83a2.84,2.84,0,0,1,3.79-1.31L439.24,1160.2A2.84,2.84,0,0,1,440.55,1164Z"/><rect class="cls-28" x="459.12" y="649.28" width="46.66" height="251.34" transform="translate(1390.36 679.98) rotate(115.93)"/><path class="cls-29" d="M596.46,827.88,606.6,807a14.49,14.49,0,0,0-4.66-18.16c-60-42.5-127.72-76-204.36-99.26a14.27,14.27,0,0,0-17,7.42L370.42,718Z"/><path class="cls-30" d="M585.81,865.25l8.46-17.38a3.13,3.13,0,0,0-1.45-4.18L356.17,728.61a3.13,3.13,0,0,0-4.18,1.44l-8.45,17.39a3.13,3.13,0,0,0,1.44,4.18L581.64,866.7A3.12,3.12,0,0,0,585.81,865.25Z"/><rect class="cls-31" x="459.5" y="662.95" width="18.81" height="269.4" rx="2.83" transform="translate(-453.49 870.51) rotate(-64.07)"/></g></g></svg>