<svg xmlns="http://www.w3.org/2000/svg" xmlns:xlink="http://www.w3.org/1999/xlink" viewBox="0 0 1158.4 902.53"><defs><style>.cls-1,.cls-6{fill:#008dff;}.cls-2,.cls-5{fill:#fff;}.cls-3{fill:#10273b;}.cls-4{fill:#e0eeff;}.cls-5{opacity:0.5;}.cls-6{opacity:0.58;}.cls-7{fill:url(#linear-gradient);}.cls-8{fill:#fafafa;}.cls-9{fill:#e1e1e1;}.cls-10{fill:#ececec;}.cls-11{fill:#f5f5f5;}.cls-12{fill:#0080ff;}.cls-13{fill:#0e2033;}.cls-14{fill:#ffbf9d;}.cls-15{fill:#ff9a6c;}.cls-16{opacity:0.3;}</style><linearGradient id="linear-gradient" x1="946.33" y1="563.25" x2="950.62" y2="563.25" gradientUnits="userSpaceOnUse"><stop offset="0" stop-color="#dae3fe"/><stop offset="1" stop-color="#e9effd"/></linearGradient></defs><title>Asset 52</title><g id="Layer_2" data-name="Layer 2"><g id="DESIGNED_BY_FREEPIK" data-name="DESIGNED BY FREEPIK"><circle class="cls-1" cx="925.3" cy="29.36" r="6.98"/><path class="cls-1" d="M1048.16,252l-15.68-24.19h33.67Zm-10.4-21.32,10.56,16.3,12.12-16.3Z"/><rect class="cls-1" x="1078.58" y="401.9" width="77.26" height="63.26" rx="20.6" ry="20.6" transform="translate(192.78 -329.06) rotate(18.31)"/><rect class="cls-2" x="1112.82" y="414.87" width="8.6" height="36.44" transform="translate(-80.13 479.18) rotate(-23.4)"/><rect class="cls-2" x="1097.71" y="429.17" width="37.56" height="8.6" transform="translate(-80.98 456.23) rotate(-22.31)"/><rect class="cls-3" x="67.34" y="571.35" width="26.88" height="8.6" transform="matrix(0.35, -0.94, 0.94, 0.35, -487.32, 452.47)"/><rect class="cls-1" x="15.89" y="328.79" width="2.87" height="39.4" transform="translate(-284.7 173.76) rotate(-57.1)"/><rect class="cls-1" x="-3.51" y="346.91" width="39.29" height="2.87" transform="translate(-280.99 165.81) rotate(-55.78)"/><rect class="cls-1" x="1049.07" y="673.86" width="2.87" height="39.4" transform="translate(-102.4 1198.94) rotate(-57.1)"/><rect class="cls-1" x="1029.67" y="691.99" width="39.29" height="2.87" transform="translate(-114.13 1171.2) rotate(-55.78)"/><path class="cls-4" d="M921.3,782.51c-17.7,18.36-34.44,30.2-47.67,39.55C718.11,932,534.1,900,495,892.15c-57.75-11.56-169.38-33.9-250.08-127.43-122.1-141.5-103.09-364.44-8.38-511.6C253.86,226.2,345.37,76.79,531.36,52.83,643.92,38.33,775.13,67.58,870.15,146,1069.6,310.7,1055.4,643.38,921.3,782.51Z"/><path class="cls-1" d="M486.85,632.85S332.08,310.37,124.67,161.28A21.68,21.68,0,0,0,90.32,177.7C84.31,292.36,99.09,633,486.85,632.85Z"/><path class="cls-5" d="M448.19,618.31a1,1,0,0,1-.89,1.66c-39.92-18-200.09-114.57-303.7-354a.66.66,0,0,1,1.18-.6C174.11,319.75,288.92,518.64,448.19,618.31Z"/><path class="cls-6" d="M550.37,669.72S453.28,272,256.26,56C243,41.5,219,47.29,213.91,66.28,180.08,193.26,116.11,578.17,550.37,669.72Z"/><path class="cls-5" d="M510.51,644.3a1.08,1.08,0,0,1-1.4,1.65c-40.44-29.65-197-175.6-256.41-468.19a.76.76,0,0,1,1.46-.39C274.16,245.16,355.7,495,510.51,644.3Z"/><path class="cls-7" d="M948.24,581h0a1.91,1.91,0,0,1-1.89-1.94l.46-31.61a1.92,1.92,0,0,1,1.91-1.89h0a1.91,1.91,0,0,1,1.89,1.94l-.46,31.61A1.92,1.92,0,0,1,948.24,581Z"/><rect class="cls-3" x="165.38" y="824.07" width="846.85" height="41.56" rx="1.73" ry="1.73" transform="translate(1177.61 1689.69) rotate(180)"/><path class="cls-2" d="M488.19,273.59a2.6,2.6,0,0,1-2.57-3q.34-2.08.73-4.15a2.6,2.6,0,0,1,5.1,1q-.38,2-.7,4A2.6,2.6,0,0,1,488.19,273.59Z"/><path class="cls-2" d="M919.51,140.93a2.6,2.6,0,0,1-2.56-2.18c-.21-1.3-.46-2.63-.75-3.93a2.6,2.6,0,0,1,5.07-1.13c.31,1.4.59,2.82.81,4.23a2.6,2.6,0,0,1-2.15,3A2.65,2.65,0,0,1,919.51,140.93Z"/><path class="cls-2" d="M895.94,98.42a2.59,2.59,0,0,1-1.71-.64c-1-.88-2-1.73-3.08-2.55a2.6,2.6,0,0,1,3.19-4.09c1.13.88,2.24,1.8,3.31,2.74a2.6,2.6,0,0,1-1.71,4.55Z"/><path class="cls-2" d="M562.25,430.52a2.6,2.6,0,0,1-2.26-1.31q-1-1.78-2.07-3.53a2.6,2.6,0,1,1,4.45-2.68q1.08,1.8,2.13,3.63a2.6,2.6,0,0,1-2.25,3.88Z"/><path class="cls-2" d="M345.45,693.42a2.59,2.59,0,0,1-.84-.14q-2-.68-4-1.4a2.6,2.6,0,1,1,1.79-4.88q1.92.7,3.86,1.36a2.6,2.6,0,0,1-.84,5.05Z"/><circle class="cls-1" cx="381.91" cy="29.36" r="15.07"/><circle class="cls-1" cx="425.41" cy="198.81" r="3.86"/><circle class="cls-1" cx="332.05" cy="886.87" r="6.98"/><circle class="cls-3" cx="962.38" cy="774.27" r="3.49"/><circle class="cls-3" cx="523.95" cy="112.01" r="3.49"/><circle class="cls-3" cx="135.12" cy="108.52" r="3.49"/><circle class="cls-3" cx="687.51" cy="14.68" r="14.68"/><rect class="cls-3" x="365.88" y="496.41" width="1.92" height="17.94" transform="translate(-253.93 573.4) rotate(-60.28)"/><rect class="cls-3" x="352.36" y="350.79" width="28.96" height="5.74" transform="translate(-137.49 426.47) rotate(-52.17)"/><path class="cls-1" d="M304.36,266.75l-10.47-16.15h22.48Zm-6.95-14.24,7.05,10.88,8.09-10.88Z"/><circle class="cls-1" cx="361.84" cy="638.01" r="4.66"/><circle class="cls-1" cx="386.58" cy="441.36" r="4.66"/><rect class="cls-8" x="201.17" y="190.51" width="315.98" height="282.7"/><path class="cls-9" d="M517.15,473.21s-.05-1.81-.08-5.25,0-8.54-.08-15.15c0-13.27-.11-32.67-.19-57.38-.09-49.39-.22-120-.37-204.92l.72.72-316,.13h0l.84-.84c0,102.85-.07,199.63-.1,282.7l-.74-.74,228.54.38,64.46.2,17.06.09,4.4,0c1,0,1.52,0,1.52,0s-.47,0-1.43,0l-4.32,0-16.92.09-64.29.2-229,.38h-.74v-.75c0-83.07-.06-179.85-.1-282.7v-.84h.87l316,.13h.72v.72c-.15,85.13-.28,155.87-.37,205.37-.08,24.64-.14,44-.19,57.22,0,6.55-.06,11.57-.08,15S517.15,473.21,517.15,473.21Z"/><path class="cls-9" d="M322.33,240.74c0,.47-16.63.84-37.14.84s-37.15-.38-37.15-.84,16.63-.84,37.15-.84S322.33,240.27,322.33,240.74Z"/><path class="cls-9" d="M456.21,262c0,.47-45.69.84-102,.84s-102.05-.38-102.05-.84,45.68-.84,102.05-.84S456.21,261.5,456.21,262Z"/><rect class="cls-9" x="248.58" y="297.92" width="13.31" height="13.31"/><rect class="cls-9" x="281.35" y="297.92" width="13.31" height="13.31"/><rect class="cls-9" x="314.72" y="297.32" width="13.31" height="13.31"/><rect class="cls-9" x="346.89" y="297.92" width="13.31" height="13.31"/><rect class="cls-9" x="379.66" y="297.92" width="13.31" height="13.31"/><rect class="cls-9" x="412.42" y="297.92" width="13.31" height="13.31"/><rect class="cls-10" x="445.19" y="297.92" width="13.31" height="13.31"/><rect class="cls-10" x="248.58" y="326.22" width="13.31" height="13.31"/><rect class="cls-9" x="281.35" y="326.22" width="13.31" height="13.31"/><rect class="cls-10" x="314.12" y="326.22" width="13.31" height="13.31"/><rect class="cls-9" x="346.89" y="326.22" width="13.31" height="13.31"/><rect class="cls-9" x="379.66" y="326.22" width="13.31" height="13.31"/><rect class="cls-9" x="413.03" y="325.62" width="13.31" height="13.31"/><rect class="cls-9" x="445.19" y="326.22" width="13.31" height="13.31"/><rect class="cls-9" x="248.58" y="354.52" width="13.31" height="13.31"/><rect class="cls-9" x="281.95" y="353.92" width="13.31" height="13.31"/><rect class="cls-9" x="314.12" y="354.52" width="13.31" height="13.31"/><rect class="cls-10" x="346.89" y="354.52" width="13.31" height="13.31"/><rect class="cls-9" x="379.66" y="354.52" width="13.31" height="13.31"/><rect class="cls-9" x="412.42" y="354.52" width="13.31" height="13.31"/><rect class="cls-9" x="445.19" y="354.52" width="13.31" height="13.31"/><rect class="cls-9" x="248.58" y="382.83" width="13.31" height="13.31"/><rect class="cls-9" x="281.35" y="382.83" width="13.31" height="13.31"/><rect class="cls-9" x="314.12" y="382.83" width="13.31" height="13.31"/><rect class="cls-9" x="347.49" y="382.22" width="13.31" height="13.31"/><rect class="cls-9" x="379.66" y="382.83" width="13.31" height="13.31"/><rect class="cls-10" x="412.42" y="382.83" width="13.31" height="13.31"/><rect class="cls-9" x="445.19" y="382.83" width="13.31" height="13.31"/><rect class="cls-9" x="248.58" y="411.13" width="13.31" height="13.31"/><rect class="cls-10" x="281.35" y="411.13" width="13.31" height="13.31"/><rect class="cls-9" x="314.12" y="411.13" width="13.31" height="13.31"/><rect class="cls-9" x="346.89" y="411.13" width="13.31" height="13.31"/><rect class="cls-9" x="379.66" y="411.13" width="13.31" height="13.31"/><rect class="cls-9" x="413.03" y="410.52" width="13.31" height="13.31"/><rect class="cls-9" x="445.19" y="411.13" width="13.31" height="13.31"/><rect class="cls-9" x="853.93" y="123.3" width="20.31" height="101.04" transform="translate(-0.92 4.63) rotate(-0.31)"/><rect class="cls-10" x="677.89" y="123.65" width="52.59" height="55.78" transform="translate(-0.8 3.77) rotate(-0.31)"/><rect class="cls-11" x="730.23" y="123.37" width="52.59" height="55.78" transform="translate(-0.8 4.05) rotate(-0.31)"/><path class="cls-9" d="M677.82,139.19c34.95.29,70,.08,104.92-.48a.56.56,0,0,0,0-1.12c-34.95-.19-70,0-104.92.64a.48.48,0,0,0,0,1Z"/><rect class="cls-10" x="645.08" y="178.61" width="95.54" height="45.46" transform="matrix(1, -0.01, 0.01, 1, -1.07, 3.71)"/><rect class="cls-11" x="740.16" y="178.1" width="95.54" height="45.46" transform="translate(-1.06 4.22) rotate(-0.31)"/><path class="cls-9" d="M645,191.51c63.47.72,127.16.07,190.63-.94a.56.56,0,0,0,0-1.12c-63.47-.34-127.17-.3-190.62,1.1a.48.48,0,0,0,0,1Z"/><rect class="cls-9" x="609.29" y="224.33" width="370.15" height="16.29"/><rect class="cls-9" x="669.89" y="232.16" width="15.03" height="55.57"/><rect class="cls-9" x="894.2" y="232.16" width="15.03" height="55.57"/><rect class="cls-10" x="873.85" y="85.62" width="20.31" height="138.97" transform="translate(-0.82 4.74) rotate(-0.31)"/><rect class="cls-11" x="894.26" y="111.52" width="31.55" height="112.62" transform="matrix(1, -0.01, 0.01, 1, -0.89, 4.89)"/><ellipse class="cls-9" cx="909.52" cy="133.13" rx="15.78" ry="0.55"/><ellipse class="cls-9" cx="909.52" cy="128.4" rx="15.78" ry="0.55"/><ellipse class="cls-9" cx="909.52" cy="207.11" rx="15.78" ry="0.55"/><ellipse class="cls-9" cx="909.52" cy="202.38" rx="15.78" ry="0.55"/><ellipse class="cls-9" cx="910.03" cy="166.68" rx="0.55" ry="25.38"/><rect class="cls-10" x="925.64" y="139.09" width="34.34" height="85"/><circle class="cls-9" cx="883.33" cy="109.29" r="5.84"/><rect class="cls-9" x="881.52" y="125.34" width="3.61" height="82.67"/><path class="cls-12" d="M261.44,652.85c9.53-4.91,20.74-5.55,31.32-3.81,5.68.94,11.61,2.64,15.47,6.91s4.6,11.78.16,15.45c-2.64,2.18-6.33,2.51-9.75,2.47-8.28-.1-17.47-1.55-24.08,3.43-3.77,2.84-6.29,7.57-10.8,9S254.36,685,252,681s-2.42-9-1.33-13.45A20.54,20.54,0,0,1,261.44,652.85Z"/><path class="cls-12" d="M239.62,610.72c5.82,8.32,17.15,5.56,22.4.49s7.47-12.44,9.49-19.46c4.61-16,9.27-32.86,5.84-49.19-1-4.88-2.85-9.75-6.28-13.37s-8.71-5.78-13.53-4.5c-5.71,1.51-9.26,7.1-11.82,12.42a117.25,117.25,0,0,0-11.59,50.32c0,8.11.93,16.61,5.5,23.3"/><path class="cls-12" d="M223.62,622.66c6.32-7.51,7.52-18.45,4.71-27.86s-9.17-17.4-16.5-23.93a88.83,88.83,0,0,0-29.55-17.43c-4.27-1.5-8.78-2.69-13.29-2.26s-9,2.74-11.15,6.75c-3.11,5.93-.13,13.12,3.1,19a225.13,225.13,0,0,0,19.41,29.55c5.82,7.5,12.48,14.9,21.34,18.28s18.07,3,22.77-3.16"/><path class="cls-13" d="M239.22,736.22a18.13,18.13,0,0,0,.53-3.78l1-10.32A149,149,0,0,1,243.07,707a116.8,116.8,0,0,1,5.5-17.86A65.85,65.85,0,0,1,257.69,673a34.06,34.06,0,0,1,11.53-9.59,32.26,32.26,0,0,1,9.71-3,18.17,18.17,0,0,0,3.76-.54,17.71,17.71,0,0,0-3.83-.06,29.42,29.42,0,0,0-10.13,2.63,34,34,0,0,0-12.16,9.67,64.33,64.33,0,0,0-9.45,16.49,109.22,109.22,0,0,0-5.46,18.15,128,128,0,0,0-2,15.32c-.33,4.38-.45,7.93-.51,10.38A17.73,17.73,0,0,0,239.22,736.22Z"/><path class="cls-13" d="M239.93,728.28a7.48,7.48,0,0,0,.1-1.75c0-1.32,0-3,0-5,0-4.35,0-10.65.22-18.43.39-15.56,1.72-32.3,4.31-55.91,2.45-22.2,5.74-48,9.21-64.83.74-3.82,1.49-7.26,2.2-10.27s1.25-5.62,1.8-7.72l1.17-4.88a7.48,7.48,0,0,0,.31-1.73,7.37,7.37,0,0,0-.61,1.64l-1.46,4.81c-.65,2.08-1.31,4.67-2.06,7.67s-1.61,6.43-2.43,10.24A569.27,569.27,0,0,0,243,642.26c-2.59,23.66-3.76,45.2-3.86,60.79-.09,7.8.07,14.11.27,18.47l.31,5A7.41,7.41,0,0,0,239.93,728.28Z"/><path class="cls-13" d="M240,686.74a33.32,33.32,0,0,0,0-5.24c-.19-3.37-.66-8.23-1.6-14.2a187.14,187.14,0,0,0-4.62-20.68,169.45,169.45,0,0,0-8.65-24.48c-7.17-17-16.92-30.93-25.4-39.55a64.5,64.5,0,0,0-6-5.55c-.92-.78-1.73-1.55-2.55-2.16l-2.32-1.6a33.38,33.38,0,0,0-4.41-2.82c-.25.34,6.25,4.17,14.46,12.9s17.65,22.53,24.77,39.41a193.42,193.42,0,0,1,8.7,24.25,210.36,210.36,0,0,1,4.91,20.48c1.08,5.9,1.71,10.72,2.09,14.06A33.82,33.82,0,0,0,240,686.74Z"/><polygon class="cls-13" points="199.88 760.02 204.04 817.05 277.31 817.05 281.47 760.02 199.88 760.02"/><rect class="cls-13" x="192.81" y="737.54" width="97.41" height="22.48"/><polygon class="cls-3" points="192.81 814.87 192.81 821.1 197.38 821.1 288.61 821.1 288.61 814.87 192.81 814.87"/><polygon class="cls-3" points="201.87 832.06 197.38 821.1 285.12 821.1 279.88 832.06 201.87 832.06"/><path class="cls-9" d="M280.11,778.66a2.36,2.36,0,0,1-.34.52l-1.09,1.45-4.27,5.46-.19.24-.18-.25-10.49-14.5h.6L253.83,786.2l-.32.46-.36-.43L240.9,771.66h.71l-.67.85L230,786.22l-.36.46-.34-.48L219,771.59l.6,0-12.72,14.49-.23.26-.17-.29-4-6.69-1-1.78a2.84,2.84,0,0,1-.31-.64,2.84,2.84,0,0,1,.43.56l1.13,1.71,4.18,6.57-.4,0L219,771.12l.32-.37.29.4L230,785.69l-.7,0,10.92-13.74.67-.85.35-.44.36.43,12.21,14.6-.69,0,10.43-14.54.31-.43.3.43,10.26,14.66H274l4.44-5.32,1.19-1.38C279.95,778.8,280.1,778.64,280.11,778.66Z"/><path class="cls-3" d="M282.49,759.64c0,.25-18.36.46-41,.46s-41-.2-41-.46,18.35-.46,41-.46S282.49,759.39,282.49,759.64Z"/><path class="cls-13" d="M286.19,821.71c0,.25-20,.46-44.56.46s-44.56-.2-44.56-.46,19.95-.46,44.56-.46S286.19,821.46,286.19,821.71Z"/><path class="cls-3" d="M769.77,591.47H974.88a10.1,10.1,0,0,1,10.1,10.1V833.1a0,0,0,0,1,0,0H759.67a0,0,0,0,1,0,0V601.57A10.1,10.1,0,0,1,769.77,591.47Z"/><path class="cls-13" d="M966,592.7c.26,0,.47,53.79.47,120.13S966.3,833,966,833s-.47-53.78-.47-120.14S965.78,592.7,966,592.7Z"/><path class="cls-13" d="M855,329.15a191.08,191.08,0,0,1,34.25,100.73c1.06,24.21-2.2,50,9.29,71.35,16.48,30.61,52.15,29.57,63.07,62.58,4.75,14.35-4,45.95-6.37,60.88-2.68,17,7.7,31.23,5,48.21-2.46,15.56-14.1,26.67-28.09,33.91-12.44,6.45-23.95,6.62-36.9,1.26-24.67-10.21-45.2-21-62.78-41.09-24.68-28.22-32.13-67.29-36.35-104.53a917.42,917.42,0,0,1,5.59-247.11"/><path class="cls-3" d="M907.8,711.53s.27-.08.8-.2,1.32-.25,2.33-.55a38.55,38.55,0,0,0,8.52-3.41,37.83,37.83,0,0,0,11.26-9,23.67,23.67,0,0,0,4.4-7.81,42.78,42.78,0,0,0,1.54-10c.35-7.14-.74-14.94-2.36-23.2s-3.74-17.08-4.26-26.62a54.86,54.86,0,0,1,1-14.6,95.1,95.1,0,0,1,4.63-14.52c1.85-4.82,3.8-9.69,5.21-14.79s2.16-10.5,1.26-15.83a35.8,35.8,0,0,0-5.91-14.71,68.39,68.39,0,0,0-10.32-11.7c-7.52-7-15.66-12.82-22.61-19.32a128,128,0,0,1-29.45-40.66,124.67,124.67,0,0,1-6.78-18.15c-.87-2.72-1.37-5.34-2-7.7l-1.28-6.56c-.58-4-1-7.06-1.12-9.18l-.19-2.4c0-.54,0-.82,0-.82s.06.27.13.81l.28,2.38c.18,2.1.66,5.18,1.29,9.13l1.36,6.52c.65,2.35,1.17,4.95,2.07,7.65a126.37,126.37,0,0,0,6.88,18,128.36,128.36,0,0,0,29.43,40.3c6.91,6.44,15.07,12.23,22.66,19.29A69.12,69.12,0,0,1,937,555.73a36.7,36.7,0,0,1,6.06,15.1c.92,5.5.07,11.05-1.29,16.22s-3.4,10.07-5.26,14.87a94.66,94.66,0,0,0-4.61,14.38,54.1,54.1,0,0,0-1,14.36c.49,9.43,2.6,18.23,4.16,26.51s2.65,16.16,2.26,23.38a43.11,43.11,0,0,1-1.63,10.16,24.14,24.14,0,0,1-4.57,8,37.77,37.77,0,0,1-11.49,9A36.72,36.72,0,0,1,911,711,21.84,21.84,0,0,1,907.8,711.53Z"/><path class="cls-12" d="M568.89,776.57l87.35-41.49s34-165.18,40.45-177.59S730,534.37,730,534.37l-4.51,223.68-8,51.6-123.2,11.67Z"/><path class="cls-14" d="M494.33,815.7c-.48,0-2.91,1.5-.88,5.34s16.82,16.52,21.18,12.1-2.29-9.81-2.29-9.81Z"/><path class="cls-14" d="M513,823.5s17.86,2.25,24.74,4.87c7.47,2.84,16.57.9,22.69-3.24a64.52,64.52,0,0,0,9.69-7.9l22.79-.36s10.94-11.34,4.45-28.24a30.53,30.53,0,0,0-5.22-8.89c-2.71-2.93-7-5.3-14.37-6.58L550.66,779s-41.94-3-49.4.53c0,0-9.37,5.56-12.27,7.89-1.09.88-4.41,11.55,2.41,17.1,0,0-5.94,4.72-2.72,9l1.54,1.88s-4,5.17-1.94,7.42,20,12.77,26.42,10.26,1.11-8.45-1.72-9.54"/><path class="cls-15" d="M495.89,795.3a16.62,16.62,0,0,1,2.22.79c1.41.54,3.47,1.3,6,2.12,1.29.41,2.71.83,4.24,1.23s3.2.75,4.94,1.31a10.59,10.59,0,0,1,4.92,3,6.07,6.07,0,0,1,1.31,6,4.72,4.72,0,0,1-2.22,2.38,8.31,8.31,0,0,1-3,.83,24.72,24.72,0,0,1-5.69-.3,50.22,50.22,0,0,1-9.26-2.41c-2.56-.91-4.59-1.76-6-2.36a13.88,13.88,0,0,1-2.13-1,14.7,14.7,0,0,1,2.24.74c1.43.51,3.48,1.29,6,2.13a53.55,53.55,0,0,0,9.18,2.23,24.67,24.67,0,0,0,5.51.25,7.65,7.65,0,0,0,2.71-.76,4,4,0,0,0,1.87-2,5.38,5.38,0,0,0-1.18-5.24,10,10,0,0,0-4.58-2.78c-1.67-.56-3.34-.92-4.88-1.36s-3-.88-4.25-1.33c-2.57-.89-4.6-1.73-6-2.36A12.51,12.51,0,0,1,495.89,795.3Z"/><path class="cls-15" d="M497.49,782.39a15.9,15.9,0,0,1,2.21.8c1.41.54,3.44,1.32,6,2.17s5.63,1.78,9.09,2.61c1.71.44,3.67.79,5.3,2.14a4.51,4.51,0,0,1,1.55,2.74,5.71,5.71,0,0,1-.46,3.19,7.66,7.66,0,0,1-4.67,4,12.36,12.36,0,0,1-5.69.45,54.73,54.73,0,0,1-9.16-2.65l-6-2.11a14.14,14.14,0,0,1-2.18-.87,14.17,14.17,0,0,1,2.27.6l6.11,1.89a59.26,59.26,0,0,0,9.08,2.47,11.78,11.78,0,0,0,5.37-.46,7,7,0,0,0,4.23-3.59,4.22,4.22,0,0,0-.89-5.07c-1.39-1.19-3.28-1.58-5-2a94.16,94.16,0,0,1-9.09-2.77c-2.55-.92-4.56-1.78-5.94-2.41A12.77,12.77,0,0,1,497.49,782.39Z"/><path class="cls-15" d="M506.1,786.08c-.22,0-.34-1.64-.81-3.59s-1.1-3.47-.91-3.57,1.15,1.34,1.63,3.39S506.3,786.09,506.1,786.08Z"/><path class="cls-14" d="M569.13,786.62l-15.92-6.14S509,759.84,508.25,761s-3.14,1-2.62,6.39,26.29,16.26,27.11,18.13-.54,11.31,9,18.07,16.38,6.91,16.38,6.91"/><path class="cls-15" d="M558.09,810.46a1.19,1.19,0,0,1-.38,0c-.25,0-.62,0-1.1-.11a24.75,24.75,0,0,1-4.14-1A40,40,0,0,1,539,801.6a19.17,19.17,0,0,1-5.43-9.31,43.46,43.46,0,0,1-.94-5.95,3.38,3.38,0,0,0-.16-.68,1.3,1.3,0,0,0-.42-.43,14.71,14.71,0,0,0-1.29-.84c-.9-.53-1.85-1-2.8-1.56-3.83-2-7.92-4.11-12-6.48-2.06-1.18-4.13-2.44-6.14-3.87a23.33,23.33,0,0,1-2.88-2.4,7.93,7.93,0,0,1-1.21-1.54,3.34,3.34,0,0,1-.37-1,7.75,7.75,0,0,1-.09-1,7,7,0,0,1,.68-3.85,4.55,4.55,0,0,1,1.4-1.41,2.71,2.71,0,0,0,.61-.53s0,0,.15-.15a.48.48,0,0,1,.31-.1,1.46,1.46,0,0,1,.31,0l.48.11c2.4.74,4.59,1.7,6.79,2.61,4.37,1.84,8.54,3.7,12.52,5.49,7.94,3.58,15.05,6.88,21,9.67,1.49.68,2.9,1.4,4.25,2l3.9,1.53,6.23,2.47,3.93,1.59,1,.43a1.45,1.45,0,0,1,.34.17,1.42,1.42,0,0,1-.36-.1l-1-.36-4-1.46-6.28-2.35-3.92-1.48c-1.39-.57-2.78-1.26-4.29-1.93l-21.07-9.52c-4-1.77-8.16-3.61-12.52-5.44-2.18-.89-4.42-1.86-6.7-2.56l-.41-.1h-.14s0,.05,0-.06,0-.12,0-.18a.13.13,0,0,0-.05-.05c.5.34.13.11.23.19l0,.06a3.35,3.35,0,0,1-.77.68,3.81,3.81,0,0,0-1.2,1.19,6.33,6.33,0,0,0-.58,3.43,3.29,3.29,0,0,0,.37,1.64,7.25,7.25,0,0,0,1.1,1.38,22.75,22.75,0,0,0,2.78,2.32c2,1.41,4,2.66,6.07,3.84,4.09,2.36,8.16,4.44,12,6.5,1,.52,1.9,1,2.82,1.58a15.23,15.23,0,0,1,1.35.89,1.85,1.85,0,0,1,.62.71,3.92,3.92,0,0,1,.19.83,43.56,43.56,0,0,0,.89,5.9,18.7,18.7,0,0,0,5.2,9.08,36.71,36.71,0,0,0,7.17,5.1,38.09,38.09,0,0,0,6.06,2.78,28.53,28.53,0,0,0,4.07,1.12c.47.09.84.14,1.08.18A1.8,1.8,0,0,1,558.09,810.46Z"/><path class="cls-15" d="M509.32,812.54A5.55,5.55,0,0,1,511,813a16.71,16.71,0,0,1,4.17,2.41,15.1,15.1,0,0,1,2.41,2.34,5.07,5.07,0,0,1,1.28,3.72,4.13,4.13,0,0,1-2.95,3.19,8,8,0,0,1-4.63-.15,85.1,85.1,0,0,1-14.66-5.89,47,47,0,0,1-4.12-2.44,7.23,7.23,0,0,1-1.4-1.06,8.81,8.81,0,0,1,1.56.81c1,.55,2.41,1.33,4.21,2.22a101.91,101.91,0,0,0,14.62,5.64,7.34,7.34,0,0,0,4.21.17,3.45,3.45,0,0,0,2.5-2.59,4.49,4.49,0,0,0-1.1-3.25,15.31,15.31,0,0,0-2.25-2.31A25.11,25.11,0,0,0,509.32,812.54Z"/><g class="cls-16"><path d="M716.9,809.7C702.6,761.44,690,699.29,675.67,651c-5.23,44.55,1.32,103.36,9.52,147.46,1,5.17,1.4,10.23,5.41,13.63l26.3-2.44"/></g><path class="cls-13" d="M693.47,776.57c-.19,0-.8-3.15-2.74-8a55.87,55.87,0,0,0-4.1-8.12,56.2,56.2,0,0,0-15.06-16.23,55.86,55.86,0,0,0-7.79-4.69c-4.66-2.29-7.8-3.13-7.74-3.32a10.44,10.44,0,0,1,2.22.52,20.8,20.8,0,0,1,2.54.84,34.48,34.48,0,0,1,3.28,1.35,50.89,50.89,0,0,1,8,4.59A53.58,53.58,0,0,1,687.38,760a50.89,50.89,0,0,1,4,8.33,34.51,34.51,0,0,1,1.1,3.37,20.82,20.82,0,0,1,.65,2.59A10.42,10.42,0,0,1,693.47,776.57Z"/><path class="cls-12" d="M720.76,532.12S675,634.33,675,653.1s34.29,149.15,34.29,149.15c-.33,5.17-1.66,31.16-1.66,31.16l192.2.66h0l2.93-41.32-15-39.37,15-111.3s10.09-64.62,11-82.7c1.12-22.61-75.48-48.83-73.39-52l-13.23-17.71-75.79,61.53-15-43.25-17.94,17Z"/><path class="cls-12" d="M846.62,559.31c-20.8,35.2-58.88,99.34-58.88,99.34l-68.22,77.79S715.06,776,724,788.09s24.23,20.4,24.23,20.4,18,0,40.89-19.13,86-98.19,86-98.19L896.78,665s25.84-63.5,21-95.81c-1.86-12.46-7.16-17.64-14.24-23.36C885.77,531.51,858.25,539.63,846.62,559.31Z"/><path class="cls-13" d="M904.79,643a4.85,4.85,0,0,1-.31.72l-1,2.07c-.91,1.81-2.29,4.46-4.19,7.81-3.76,6.72-9.61,16.21-17.27,27.65-3.83,5.72-8.12,11.92-12.82,18.51S859.11,713.11,854.7,721s-8.41,16.6-13.24,25.28a158.5,158.5,0,0,1-17.34,25.32,101.4,101.4,0,0,1-23,20.31,72.29,72.29,0,0,1-26.61,10.3,59.83,59.83,0,0,1-25.78-1.09,49.19,49.19,0,0,1-10.9-4.42,49.75,49.75,0,0,1-9-6.08,41.91,41.91,0,0,1-11.26-14.73,47.55,47.55,0,0,1-3.67-13.55,60.74,60.74,0,0,1-.31-8.87l.13-2.3a4.79,4.79,0,0,1,.08-.78,4.87,4.87,0,0,1,0,.79l0,2.3a67.1,67.1,0,0,0,.49,8.82,48,48,0,0,0,3.78,13.37,41.59,41.59,0,0,0,11.2,14.44,49.32,49.32,0,0,0,8.9,6A48.61,48.61,0,0,0,749,800.41a59.21,59.21,0,0,0,25.43,1,71.63,71.63,0,0,0,26.26-10.23A100.88,100.88,0,0,0,823.4,771a158.62,158.62,0,0,0,17.25-25.16c4.82-8.62,8.72-17.36,13.29-25.26s9.94-14.76,14.6-21.34,9-12.74,12.9-18.43C889.17,669.46,895.1,660,899,653.39c1.94-3.32,3.38-5.94,4.34-7.72l1.09-2A4.8,4.8,0,0,1,904.79,643Z"/><path class="cls-13" d="M716.11,732.93c.08.14-1,.73-2.22,2.13a11,11,0,0,0-1.24,13.41c1,1.6,1.9,2.38,1.8,2.5s-1.16-.52-2.35-2.13a10.77,10.77,0,0,1,1.32-14.25C714.87,733.23,716.07,732.84,716.11,732.93Z"/><path class="cls-13" d="M728.66,753.58a4.82,4.82,0,0,1,1.07.25c.35.09.76.23,1.27.35l1.76.32a25.26,25.26,0,0,0,11.25-1,41.51,41.51,0,0,0,14.48-8.51c4.78-4.23,9.08-9.86,13.58-15.75s9-11.47,14-15.63c2.47-2.08,4.91-3.92,6.93-5.9a19.58,19.58,0,0,0,4.55-6.27c1.71-4.48.56-8.69-1-10.74a8.24,8.24,0,0,0-3.29-2.46,4.3,4.3,0,0,1,1.06.3,7.1,7.1,0,0,1,2.52,1.92c1.78,2.09,3.11,6.44,1.39,11.21a20,20,0,0,1-4.63,6.59c-2,2-4.48,3.93-6.91,6-4.88,4.14-9.32,9.64-13.8,15.55S764,741.32,759.07,745.6a41.3,41.3,0,0,1-14.86,8.5,24.6,24.6,0,0,1-11.51.77l-1.77-.41c-.51-.15-.92-.32-1.26-.44A4.72,4.72,0,0,1,728.66,753.58Z"/><path class="cls-13" d="M855.88,548.5a7.09,7.09,0,0,1-.76,1.1l-2.33,3c-2.08,2.59-4.93,6.45-8.41,11.25a369,369,0,0,0-24.28,39.45c-8.58,15.95-15.69,30.75-21.12,41.31-2.7,5.29-4.93,9.55-6.53,12.46l-1.85,3.35a7,7,0,0,1-.7,1.14,7.06,7.06,0,0,1,.53-1.23l1.69-3.43,6.26-12.59c5.28-10.63,12.29-25.48,20.89-41.46a333.74,333.74,0,0,1,24.57-39.39c3.56-4.76,6.5-8.57,8.67-11.09l2.47-2.92A7.05,7.05,0,0,1,855.88,548.5Z"/><g class="cls-16"><path d="M713.85,750.43c8.87,4.81,18.62,4.3,28.52,2.35a44.27,44.27,0,0,0,25.48-15.24c-1.72,8.65-5.43,17.1-11.74,23.26S740.66,770.55,732,769s-17.43-9.74-18.14-18.53"/></g><g class="cls-16"><path d="M797.77,697.9a39.13,39.13,0,0,1,5.41,29.34c7.52-11.51,9.28-26.08,7.26-39.68s-7.55-26.42-13.7-38.71c0,0-6.79,11.46-6.85,12.72-.33,6.62,2.11,19.08,3.39,25.57A14.25,14.25,0,0,1,797.41,700"/></g><g class="cls-16"><path d="M743.93,798.05c18.09,14.1,44.93,14.77,64.73,3.18,19.06-11.16,30.8-31.25,41.69-50.46,16.86-29.74,37.44-66.53,49.49-98.52,0,0-33.77,46.07-43.95,65.93a328.36,328.36,0,0,1-23,38.79c-19,28-53.42,44.75-87.17,42.46"/></g><path class="cls-13" d="M707.62,833.4a2.08,2.08,0,0,1,0-.57l0-1.66.23-6.31,1-22.64,0,.13c-3.27-10.92-7.09-24.16-11-38.47-5.25-19-9.67-36.22-12.65-48.77-1.49-6.27-2.64-11.36-3.37-14.89l-.83-4.07a8.3,8.3,0,0,1-.23-1.43,8.31,8.31,0,0,1,.41,1.39l1,4L685.86,715c3.14,12.5,7.67,29.72,12.91,48.67,4,14.3,7.72,27.56,10.89,38.5l0,.07v.06l-1.37,22.63-.44,6.3-.15,1.65A2.07,2.07,0,0,1,707.62,833.4Z"/><path class="cls-13" d="M899.91,544.77c-.06.15-2-.53-5.12-1.31a59,59,0,0,0-25.17-.75c-3.2.59-5.15,1.15-5.19,1a4.21,4.21,0,0,1,1.31-.58,33.57,33.57,0,0,1,3.74-1.08,49.92,49.92,0,0,1,25.49.76,33.65,33.65,0,0,1,3.67,1.31C899.48,544.47,899.93,544.7,899.91,544.77Z"/><path class="cls-13" d="M839,511.21a4.48,4.48,0,0,1-.49.94L837,514.76c-1.37,2.25-3.39,5.48-6,9.44-5.15,7.89-12.52,18.64-21.23,30.09-7,9.23-13.8,17.5-19.36,24l-.39.46-.25-.54-6.42-14.08-1.72-3.91a7.52,7.52,0,0,1-.53-1.41,7.54,7.54,0,0,1,.74,1.31l1.91,3.82,6.72,13.94-.64-.08c5.47-6.55,12.19-14.86,19.19-24.07,8.7-11.43,16.14-22.1,21.43-29.88l6.21-9.26,1.7-2.51A4.47,4.47,0,0,1,839,511.21Z"/><ellipse class="cls-13" cx="885.61" cy="783.67" rx="21.18" ry="0.47" transform="translate(9.11 1577.52) rotate(-83.67)"/><ellipse class="cls-13" cx="753.22" cy="818.15" rx="0.47" ry="16" transform="translate(-82.55 84.53) rotate(-6.09)"/><path class="cls-2" d="M848.75,594.34a2.33,2.33,0,0,0-3.53-1.4l-.12.1a2.21,2.21,0,1,0,3.65,1.3Z"/><path class="cls-2" d="M829.77,548.08a2.33,2.33,0,0,0-3.53-1.4l-.12.1a2.21,2.21,0,1,0,3.65,1.3Z"/><path class="cls-2" d="M786.21,585.33a2.33,2.33,0,0,0-3.53-1.4l-.12.1a2.21,2.21,0,1,0,3.65,1.3Z"/><path class="cls-2" d="M739.12,566.62a2.33,2.33,0,0,0-3.53-1.4l-.12.1a2.21,2.21,0,1,0,3.65,1.3Z"/><path class="cls-2" d="M730.79,548.18a2.33,2.33,0,0,0-3.53-1.4l-.12.1a2.21,2.21,0,1,0,3.65,1.3Z"/><path class="cls-2" d="M734.41,526.88a2.33,2.33,0,0,0-3.53-1.4l-.12.1a2.21,2.21,0,1,0,3.65,1.3Z"/><path class="cls-2" d="M708.33,556.18a2.33,2.33,0,0,0-3.53-1.4l-.12.1a2.21,2.21,0,1,0,3.65,1.3Z"/><path class="cls-2" d="M768.74,564.63a2.33,2.33,0,0,0-3.53-1.4l-.12.1a2.21,2.21,0,1,0,3.65,1.3Z"/><path class="cls-2" d="M717.6,602.62a2.33,2.33,0,0,0-3.53-1.4l-.12.1a2.21,2.21,0,1,0,3.65,1.3Z"/><path class="cls-2" d="M670.78,711.87a2.33,2.33,0,0,0-3.53-1.4l-.12.1a2.21,2.21,0,1,0,3.65,1.3Z"/><path class="cls-2" d="M687.49,648.86a2.33,2.33,0,0,0-3.53-1.4l-.12.1a2.21,2.21,0,1,0,3.65,1.3Z"/><path class="cls-2" d="M810.61,538.21a2.33,2.33,0,0,0-3.53-1.4l-.12.1a2.21,2.21,0,1,0,3.65,1.3Z"/><path class="cls-2" d="M869.37,663.68a2.33,2.33,0,0,0-3.53-1.4l-.12.1a2.21,2.21,0,1,0,3.65,1.3Z"/><path class="cls-2" d="M892.26,555.71a2.33,2.33,0,0,0-3.53-1.4l-.12.1a2.21,2.21,0,1,0,3.65,1.3Z"/><path class="cls-2" d="M883.27,626.42a2.33,2.33,0,0,0-3.53-1.4l-.12.1a2.21,2.21,0,1,0,3.65,1.3Z"/><path class="cls-2" d="M831.93,677.48a2.33,2.33,0,0,0-3.53-1.4l-.12.1a2.21,2.21,0,1,0,3.65,1.3Z"/><path class="cls-2" d="M834.09,635a2.33,2.33,0,0,0-3.53-1.4l-.12.1a2.21,2.21,0,1,0,3.65,1.3Z"/><path class="cls-2" d="M865.07,556.08a2.33,2.33,0,0,0-3.53-1.4l-.12.1a2.21,2.21,0,1,0,3.65,1.3Z"/><path class="cls-2" d="M823.37,514.9a2.33,2.33,0,0,0-3.53-1.4l-.12.1a2.21,2.21,0,1,0,3.65,1.3Z"/><path class="cls-2" d="M821.85,581.28a2.33,2.33,0,0,0-3.53-1.4l-.12.1a2.21,2.21,0,1,0,3.65,1.3Z"/><path class="cls-2" d="M768.62,783.79a2.33,2.33,0,0,0-3.53-1.4l-.12.1a2.21,2.21,0,1,0,3.65,1.3Z"/><path class="cls-2" d="M707.55,750.49a2.33,2.33,0,0,0-3.53-1.4l-.12.1a2.21,2.21,0,1,0,3.65,1.3Z"/><path class="cls-2" d="M658.17,766.81a2.33,2.33,0,0,0-3.53-1.4l-.12.1a2.21,2.21,0,1,0,3.65,1.3Z"/><path class="cls-2" d="M652.89,794.93a2.33,2.33,0,0,0-3.53-1.4l-.12.1a2.21,2.21,0,1,0,3.65,1.3Z"/><path class="cls-2" d="M699.18,804.35a2.33,2.33,0,0,0-3.53-1.4l-.12.1a2.21,2.21,0,1,0,3.65,1.3Z"/><path class="cls-2" d="M683.7,741.37a2.33,2.33,0,0,0-3.53-1.4l-.12.1a2.21,2.21,0,1,0,3.65,1.3Z"/><path class="cls-2" d="M740.5,757.38A2.33,2.33,0,0,0,737,756l-.12.1a2.21,2.21,0,1,0,3.65,1.3Z"/><path class="cls-2" d="M875.52,741.27a2.33,2.33,0,0,0-3.53-1.4l-.12.1a2.21,2.21,0,1,0,3.65,1.3Z"/><path class="cls-2" d="M792,821.32a2.33,2.33,0,0,0-3.53-1.4l-.12.1a2.21,2.21,0,1,0,3.65,1.3Z"/><path class="cls-2" d="M827.61,776.76a2.33,2.33,0,0,0-3.53-1.4l-.12.1a2.21,2.21,0,1,0,3.65,1.3Z"/><path class="cls-2" d="M848.77,813a2.33,2.33,0,0,0-3.53-1.4l-.12.1a2.21,2.21,0,1,0,3.65,1.3Z"/><path class="cls-2" d="M789.88,623.21a2.33,2.33,0,0,0-3.53-1.4l-.12.1a2.21,2.21,0,1,0,3.65,1.3Z"/><path class="cls-2" d="M837.8,715.73a2.33,2.33,0,0,0-3.53-1.4l-.12.1a2.21,2.21,0,1,0,3.65,1.3Z"/><path class="cls-2" d="M822.26,750.77a2.33,2.33,0,0,0-3.53-1.4l-.12.1a2.21,2.21,0,1,0,3.65,1.3Z"/><path class="cls-2" d="M873.36,778.92a2.33,2.33,0,0,0-3.53-1.4l-.12.1a2.21,2.21,0,1,0,3.65,1.3Z"/><path class="cls-2" d="M733.55,819.56a2.33,2.33,0,0,0-3.53-1.4l-.12.1a2.21,2.21,0,1,0,3.65,1.3Z"/><path class="cls-2" d="M617,808.92a2.33,2.33,0,0,0-3.53-1.4l-.12.1a2.21,2.21,0,1,0,3.65,1.3Z"/><path class="cls-2" d="M719.64,789.79a2.33,2.33,0,0,0-3.53-1.4l-.12.1a2.21,2.21,0,1,0,3.65,1.3Z"/><path class="cls-2" d="M621.36,769a2.33,2.33,0,0,0-3.53-1.4l-.12.1a2.21,2.21,0,1,0,3.65,1.3Z"/><path class="cls-2" d="M785.56,702.9a2.33,2.33,0,0,0-3.53-1.4l-.12.1a2.21,2.21,0,1,0,3.65,1.3Z"/><path class="cls-2" d="M751.2,602.62a2.33,2.33,0,0,0-3.53-1.4l-.12.1a2.21,2.21,0,1,0,3.65,1.3Z"/><path class="cls-2" d="M742.61,689.58a2.33,2.33,0,0,0-3.53-1.4l-.12.1a2.21,2.21,0,1,0,3.65,1.3Z"/><path class="cls-2" d="M728.63,661.22a2.33,2.33,0,0,0-3.53-1.4l-.12.1a2.21,2.21,0,1,0,3.65,1.3Z"/><path class="cls-2" d="M790.46,750.38a2.33,2.33,0,0,0-3.53-1.4l-.12.1a2.21,2.21,0,1,0,3.65,1.3Z"/><path class="cls-2" d="M746.88,732.89a2.33,2.33,0,0,0-3.53-1.4l-.12.1a2.21,2.21,0,1,0,3.65,1.3Z"/><path class="cls-2" d="M765.54,636.86a2.33,2.33,0,0,0-3.53-1.4l-.12.1a2.21,2.21,0,1,0,3.65,1.3Z"/><path class="cls-2" d="M699.18,704.85a2.33,2.33,0,0,0-3.53-1.4l-.12.1a2.21,2.21,0,1,0,3.65,1.3Z"/><path class="cls-2" d="M801.6,673.64a2.33,2.33,0,0,0-3.53-1.4l-.12.1a2.21,2.21,0,1,0,3.65,1.3Z"/><path class="cls-2" d="M896.58,592.18a2.33,2.33,0,0,0-3.53-1.4l-.12.1a2.21,2.21,0,1,0,3.65,1.3Z"/><path class="cls-2" d="M858,530.49a2.33,2.33,0,0,0-3.53-1.4l-.12.1a2.21,2.21,0,1,0,3.65,1.3Z"/><path class="cls-2" d="M783.27,538.21a2.33,2.33,0,0,0-3.53-1.4l-.12.1a2.21,2.21,0,1,0,3.65,1.3Z"/><path class="cls-13" d="M707,316.78C692.69,325.91,687,345,689.7,356.32c1.38,5.69,4,11.42,2.83,17.17-1,5-4.55,8.94-7.22,13.24-8.91,14.34-7.34,34.4,3.71,47.17s30.68,17.22,46.15,10.45"/><path class="cls-13" d="M698.54,391.39c-34.88-76.71,48.08-115.24,93.35-102.46,42.54,12,60.69,33.19,67.69,61.64s6.67,59.29-4.49,86.4c-5.5,13.37-15.41,26.95-29.77,28.62"/><path class="cls-14" d="M739.4,578.72c-.6-36.65-1-87-1-86.78,0,0-31.5-5.23-38-46.33-3.25-20.44-2.22-54-.49-81.35,1.56-24.66,17.89-54.91,42.46-52.31L819,331.33A14.46,14.46,0,0,1,832,346h0l-5,158.69"/><path class="cls-13" d="M713.56,389.35a5.24,5.24,0,0,0,5,5.35A5,5,0,0,0,724,390a5.24,5.24,0,0,0-5-5.35A5,5,0,0,0,713.56,389.35Z"/><path class="cls-13" d="M768,389.35a5.24,5.24,0,0,0,5,5.35,5,5,0,0,0,5.46-4.66,5.24,5.24,0,0,0-5-5.35A5,5,0,0,0,768,389.35Z"/><path class="cls-13" d="M707.88,379.78c.63.71,4.72-2.11,10.39-1.91s9.73,3.18,10.37,2.5c.31-.3-.31-1.56-2.08-2.94a14.47,14.47,0,0,0-8.27-2.85A13.89,13.89,0,0,0,710,377C708.21,378.23,707.57,379.46,707.88,379.78Z"/><path class="cls-13" d="M761.72,381.13c.66.68,4.64-2.29,10.31-2.3s9.84,2.81,10.45,2.11c.3-.31-.36-1.55-2.19-2.86a14.46,14.46,0,0,0-8.37-2.54,13.9,13.9,0,0,0-8.2,2.69C762,379.58,761.4,380.82,761.72,381.13Z"/><path class="cls-13" d="M742.28,424.81c0-.32-3.5-.93-9.21-1.66-1.45-.15-2.82-.44-3.06-1.43s.26-2.61,1-4.29l4.28-11c5.95-15.7,10.25-28.62,9.62-28.85s-6,12.3-11.92,28q-2.15,5.81-4.1,11.1c-.55,1.65-1.49,3.51-.75,5.68a3.64,3.64,0,0,0,2.38,2.12,9.83,9.83,0,0,0,2.46.34C738.69,425.11,742.26,425.13,742.28,424.81Z"/><path class="cls-15" d="M738.36,491.94s27.65,1.78,55-14.68c0,0-13.91,28.59-55,24.75Z"/><path class="cls-13" d="M760.32,373.06c.56,1.54,6.22.81,12.88,1.61s12,2.62,12.92,1.23c.39-.66-.54-2.11-2.71-3.61a22.56,22.56,0,0,0-19.66-2.17C761.31,371.12,760.08,372.33,760.32,373.06Z"/><path class="cls-13" d="M709.2,365.52c1,1.29,4.91,0,9.6-.11,4.7-.23,8.68.87,9.59-.48.4-.65-.23-1.94-2-3.16a13.9,13.9,0,0,0-15.47.48C709.3,363.57,708.76,364.89,709.2,365.52Z"/><path class="cls-14" d="M824.91,400.1c.6-.29,22-9.75,22.25,14.85S822.65,434.74,822.6,434,824.91,400.1,824.91,400.1Z"/><path class="cls-15" d="M830,424.63c.11-.08.43.3,1.16.62a4.29,4.29,0,0,0,3.2,0c2.59-1,4.74-5.13,4.81-9.57a14.15,14.15,0,0,0-1.26-6.13c-.77-1.79-1.95-3-3.26-3.26a2.18,2.18,0,0,0-2.52,1.2c-.32.69-.16,1.18-.29,1.22s-.53-.41-.34-1.42a2.74,2.74,0,0,1,1-1.55,3.24,3.24,0,0,1,2.36-.65c1.9.11,3.62,1.84,4.52,3.77a14.55,14.55,0,0,1,1.56,6.84c-.11,5-2.6,9.63-6.14,10.69a4.59,4.59,0,0,1-3.93-.61C830.07,425.23,829.94,424.68,830,424.63Z"/><path class="cls-13" d="M734.11,299.8c-13.69,7.07-19.33,35.08-13.66,49.42s20.93,21.33,36,24.63,29.81,3.69,44.66-.44c1,10,7,20.23,16.7,22.87,12.82,3.49,25.75-8.26,28.6-21.24s-1.42-26.35-5.65-38.95"/><path class="cls-13" d="M842.68,389.09c.06.08-.61.72-1.9,1.79a66.71,66.71,0,0,1-5.68,4.28,34.72,34.72,0,0,1-9.57,4.63,20.71,20.71,0,0,1-13.06-.19,20.25,20.25,0,0,1-9.88-8.54,27.41,27.41,0,0,1-3.54-10,36.46,36.46,0,0,1-.39-7.13,8.07,8.07,0,0,1,.32-2.6c.27,0,0,3.74,1.05,9.55a28,28,0,0,0,3.66,9.53,19.42,19.42,0,0,0,9.28,7.91,19.9,19.9,0,0,0,12.2.26,36.49,36.49,0,0,0,9.38-4.22C839.6,391.18,842.54,388.89,842.68,389.09Z"/><path class="cls-15" d="M744,440.62a23.6,23.6,0,0,0,3.06,6,8,8,0,0,0,5.66,3.29,7.14,7.14,0,0,0,6-3.29,11.41,11.41,0,0,0,1.68-6.87c-.1-2.17-1.09-4.75-3.24-5a5.41,5.41,0,0,0-2.61.58l-11.32,4.59"/><path class="cls-13" d="M748.48,449.93c.06-.35,2.54.65,6-.75a8.62,8.62,0,0,0,4.56-4.15,9.08,9.08,0,0,0,.15-7.4,8.12,8.12,0,0,0-1-1.69c-.45-.47-.37-.45-.85-.38s-1.21.47-1.81.71l-1.86.76c-2.42,1-4.62,1.84-6.47,2.53-3.71,1.38-6.05,2.11-6.16,1.86s2-1.45,5.6-3.17c1.78-.86,3.92-1.85,6.3-2.93l1.83-.82a20.38,20.38,0,0,1,2.07-.85,2.65,2.65,0,0,1,1.68,0,3.11,3.11,0,0,1,1.25,1,9.72,9.72,0,0,1,1.27,2.15,10.61,10.61,0,0,1-.35,9.05,9.68,9.68,0,0,1-5.74,4.64,9.13,9.13,0,0,1-4.9.19C749,450.42,748.43,450,748.48,449.93Z"/><path class="cls-3" d="M852.5,383.26c-2.52-.18-22.84,2.45-21.24,40.23,1.5,35.29,26.25,27.52,34.15,14.23C872.89,425.14,877.21,385,852.5,383.26Z"/><path class="cls-3" d="M865.07,387.72a4.74,4.74,0,0,1-.1-1l-.12-2.88-.3-10.76L863.81,336l.46.45H853.79l.47-.48.24,8.79,1,38.43v.32l-.31.07a19.06,19.06,0,0,0-10.79,6.95A25.44,25.44,0,0,0,840,399.7a37.82,37.82,0,0,0-1.11,6.45c-.07.75-.1,1.33-.12,1.72a2.6,2.6,0,0,1-.06.59,1.92,1.92,0,0,1-.07-.59c0-.39,0-1,0-1.74a33.45,33.45,0,0,1,.91-6.55,25.4,25.4,0,0,1,4.24-9.39A19.64,19.64,0,0,1,855,382.86l-.31.4-1.1-38.43-.23-8.79v-.48h11.41V336c.16,14.89.31,27.78.41,37.06l0,10.76,0,2.88A4.74,4.74,0,0,1,865.07,387.72Z"/><path class="cls-3" d="M852.5,336s-10.63-24.88-36-37.15a150.39,150.39,0,0,0-30.34-11.25s14.78-3.51,38.69,7.13c10.86,4.83,21.81,11.13,29,20.56,4.6,6,10.34,17.7,10.33,20.71Z"/><path class="cls-2" d="M786.93,637.22a4.1,4.1,0,0,1,.45-.5c.3-.32.79-.78,1.37-1.42a68.23,68.23,0,0,0,4.91-5.83,95.53,95.53,0,0,0,6.64-10.19c2.38-4.13,4.84-9,7.52-14.44,5.37-10.88,11.58-24.07,18-39.18,3.22-7.55,6.5-15.58,9.76-24l2.45-6.42a37.15,37.15,0,0,1,2.92-6.45,13.31,13.31,0,0,1,5.29-5,7.39,7.39,0,0,1,3.7-.94,3.75,3.75,0,0,1,1.93.7,4.17,4.17,0,0,1,1.23,1.64l.06.12,0,.14a6.41,6.41,0,0,1-1,2.43,3.78,3.78,0,0,1-2.27,1.49,8.1,8.1,0,0,1-5.08-.93,8,8,0,0,1-4.5-8.82,7.12,7.12,0,0,1,3-4.44,8.29,8.29,0,0,1,5.17-1.47,5.71,5.71,0,0,1,4.78,2.63,2.75,2.75,0,0,1-.19,3,5.28,5.28,0,0,1-2.31,1.69,7.6,7.6,0,0,1-8.72-2.47,6.43,6.43,0,0,1-1.18-4.59,7.84,7.84,0,0,1,1.89-4.29,6.57,6.57,0,0,1,4.1-2.27,5.28,5.28,0,0,1,4.43,1.52,3.29,3.29,0,0,1,.87,2.32,3.15,3.15,0,0,1-1,2.24,5.15,5.15,0,0,1-4.45,1.2,5.62,5.62,0,0,1-3.54-2.85,11.79,11.79,0,0,1-1.33-4.2,14.94,14.94,0,0,1,1-8.49,6.36,6.36,0,0,1,3.1-3.07,5.77,5.77,0,0,1,4.32.14,4.1,4.1,0,0,1,2.67,3.37,3.75,3.75,0,0,1-2.31,3.56,4.64,4.64,0,0,1-4.19-.06,5.69,5.69,0,0,1-2.59-3.19,7.94,7.94,0,0,1-.25-4,17.78,17.78,0,0,1,.84-3.78,6.92,6.92,0,0,1,2.21-3.22,8.84,8.84,0,0,1,3.43-1.7,3.78,3.78,0,0,1,2,0,4.32,4.32,0,0,1,1.67,1.06,4.84,4.84,0,0,1,1.07,1.61,2.66,2.66,0,0,1,.06,2,3.28,3.28,0,0,1-3.26,1.8,6,6,0,0,1-3.42-1.15,9.3,9.3,0,0,1-3.66-5.73,9.68,9.68,0,0,1,.77-6.48,7.53,7.53,0,0,1,2-2.5,6.8,6.8,0,0,1,2.91-1.25,4.75,4.75,0,0,1,3.1.44,3.25,3.25,0,0,1,1.67,2.58,4.56,4.56,0,0,1-3.43,4.37,5,5,0,0,1-4.95-1.86,8,8,0,0,1-1.87-4.66c-.16-3.31,1.15-6.1,1.78-8.72l2-7.17,2.84-9.9.76-2.57c.18-.58.29-.87.29-.87s-.05.31-.2.89l-.67,2.59-2.67,10-1.95,7.18c-.62,2.64-1.87,5.45-1.69,8.56a7.45,7.45,0,0,0,1.77,4.32,4.43,4.43,0,0,0,4.36,1.65,4,4,0,0,0,3-3.74,2.61,2.61,0,0,0-1.36-2.06,4.1,4.1,0,0,0-2.66-.34,6.13,6.13,0,0,0-2.61,1.14,6.86,6.86,0,0,0-1.84,2.28,9,9,0,0,0-.67,6,8.56,8.56,0,0,0,3.37,5.26,5.25,5.25,0,0,0,3,1A2.51,2.51,0,0,0,854,491.5c.37-.88-.22-2-1-2.77a3.53,3.53,0,0,0-1.34-.86,3,3,0,0,0-1.58,0,6.87,6.87,0,0,0-5,4.41,17,17,0,0,0-.79,3.6,7.06,7.06,0,0,0,.22,3.6,4.84,4.84,0,0,0,2.19,2.72,3.77,3.77,0,0,0,3.4,0,2.87,2.87,0,0,0,1.8-2.72,3.23,3.23,0,0,0-2.14-2.6,4.89,4.89,0,0,0-3.64-.12,5.5,5.5,0,0,0-2.63,2.64,14.09,14.09,0,0,0-.86,7.95,10.89,10.89,0,0,0,1.22,3.87,4.73,4.73,0,0,0,2.93,2.4,4.24,4.24,0,0,0,3.62-1,2.27,2.27,0,0,0,.12-3.27,4.36,4.36,0,0,0-3.63-1.21,5.64,5.64,0,0,0-3.49,2c-1.84,2.06-2.37,5.44-.66,7.7a6.67,6.67,0,0,0,7.6,2.16,4.39,4.39,0,0,0,1.89-1.36,1.78,1.78,0,0,0,.12-2,4.8,4.8,0,0,0-4-2.13c-3.22-.22-6.59,2-7.15,5.16a7.05,7.05,0,0,0,4,7.79,7.24,7.24,0,0,0,4.46.87c1.47-.27,2.28-1.7,2.55-3.18l0,.26a2.72,2.72,0,0,0-2.37-1.78,6.52,6.52,0,0,0-3.22.84,12.4,12.4,0,0,0-4.94,4.69,36.39,36.39,0,0,0-2.86,6.29l-2.47,6.42c-3.28,8.46-6.59,16.49-9.84,24-6.49,15.11-12.77,28.28-18.22,39.13-2.72,5.43-5.23,10.29-7.65,14.41a92.15,92.15,0,0,1-6.79,10.15A48.69,48.69,0,0,1,786.93,637.22Z"/><path class="cls-3" d="M874.56,365.54a23.67,23.67,0,0,0-1.66-6.73,26.45,26.45,0,0,0-13.07-13.09,35.07,35.07,0,0,0-12.59-3.08,59.39,59.39,0,0,0-14.94,1.14c-10.44,1.92-21.39,6.42-33.66,8.27a68.35,68.35,0,0,1-18,0,72.64,72.64,0,0,1-16.2-4.39,71.51,71.51,0,0,1-23.59-15.58,63.49,63.49,0,0,1-11.43-15.29,20.49,20.49,0,0,1-1.34-2.68l-.88-2-.52-1.24a1.65,1.65,0,0,1-.15-.44,1.72,1.72,0,0,1,.24.4l.61,1.2,1,2a21.56,21.56,0,0,0,1.41,2.63,65.89,65.89,0,0,0,11.58,15,71,71,0,0,0,39.45,19.53,68,68,0,0,0,17.76,0c12.11-1.82,23.08-6.29,33.63-8.19a59.59,59.59,0,0,1,15.15-1.07,35.48,35.48,0,0,1,12.83,3.26,26.49,26.49,0,0,1,13.12,13.55,19.6,19.6,0,0,1,1.27,5.06l.06,1.35A1.66,1.66,0,0,1,874.56,365.54Z"/><path class="cls-3" d="M847.09,326.31a7,7,0,0,1-1.31.23c-.86.12-2.12.3-3.74.59-3.25.54-7.89,1.57-13.61,3a144,144,0,0,1-20.36,3.94,102.33,102.33,0,0,1-25.38-.55,107.55,107.55,0,0,1-24.52-6.59,104.85,104.85,0,0,1-18.41-9.56c-2.44-1.66-4.64-3.19-6.48-4.64s-3.43-2.71-4.63-3.85l-2.77-2.6a6.9,6.9,0,0,1-.92-1,7,7,0,0,1,1,.81l2.88,2.46c1.23,1.09,2.88,2.25,4.71,3.7s4.07,2.89,6.52,4.5a109.81,109.81,0,0,0,42.7,15.78,104,104,0,0,0,25.16.62,151.94,151.94,0,0,0,20.29-3.73c5.74-1.34,10.43-2.28,13.71-2.71,1.64-.23,2.91-.36,3.78-.41A7,7,0,0,1,847.09,326.31Z"/><path class="cls-13" d="M849.8,448.28a2.19,2.19,0,0,1-.71-.21,11.21,11.21,0,0,1-1.89-1,16.57,16.57,0,0,1-5.33-5.68,27.3,27.3,0,0,1-3.27-11.08,80.64,80.64,0,0,1,0-14.12,85.89,85.89,0,0,1,2.34-13.92A39.94,39.94,0,0,1,845,391.48a16.67,16.67,0,0,1,5.36-5.65,11.08,11.08,0,0,1,1.9-1,2,2,0,0,1,.72-.2c0,.08-.93.42-2.41,1.46a17.37,17.37,0,0,0-5,5.68,41.34,41.34,0,0,0-3.79,10.68,91.08,91.08,0,0,0-2.24,13.79,85.14,85.14,0,0,0-.06,14,27.49,27.49,0,0,0,3,10.83,17.25,17.25,0,0,0,5,5.71C848.87,447.85,849.84,448.19,849.8,448.28Z"/><rect class="cls-3" x="744.97" y="444.36" width="29.41" height="11.08" rx="1.9" ry="1.9" transform="translate(-72.42 154.72) rotate(-11.1)"/><path class="cls-3" d="M771.5,445.43l86.37-27.09A4.07,4.07,0,0,1,863,421h0a4.07,4.07,0,0,1-2.82,5.18L771.83,450Z"/><path class="cls-13" d="M835.34,433.52a18.55,18.55,0,0,1,2.86-1l7.9-2.41c3.31-1,7.38-2.1,11.68-3.51a7.87,7.87,0,0,0,2.83-1.74,4.33,4.33,0,0,0,1.22-3,2.61,2.61,0,0,0-1.78-2.47,6.64,6.64,0,0,0-3.61.11l-25.89,8.33-7.89,2.44a18.52,18.52,0,0,1-2.93.77,18.54,18.54,0,0,1,2.82-1.12l7.79-2.72c6.61-2.25,15.68-5.35,25.87-8.61a7.48,7.48,0,0,1,4.15-.08,3.56,3.56,0,0,1,2.4,3.34,5.22,5.22,0,0,1-1.5,3.66,8.68,8.68,0,0,1-3.16,1.92c-4.46,1.41-8.45,2.39-11.81,3.34l-8,2.12A18.53,18.53,0,0,1,835.34,433.52Z"/><path class="cls-13" d="M694.11,367.37c3,10.38-7.59,19.28-11.31,29.41-3.59,9.8-.53,20.78,3.89,30.23s10.24,18.42,12.5,28.61c5.58,25.12-17.13,52.18-12.8,77.55,1.58,9.24,5.3,18.88,8.52,27.68s3,16.85,0,25.73C690,601.1,681.67,608,675.81,622.12c-3,7.24-2.76,15.36-2.61,23.2s.09,16-3.39,23-11.47,12.45-19,10.42c7.93,9.32,22.56,12.1,33.35,6.35,10-5.31,15.53-16.09,20.3-26.32,23.08-49.53,35.29-53.72,34.66-108.36,0-3.52-.7-58.25-.7-58.25s-8.64-2.3-13.63-5.74C699,468.65,698,436.93,698.22,412.35"/><path class="cls-14" d="M745.71,533.17v20.62s-15.86,80.9-20.62,125.85-5.56,56.8-5.56,56.8,11.38,17.75,35.18-12.39,28-34.9,37.54-35.43c0,0-11.63-126.38-11.1-131.14s4.23-9,4.23-9Z"/><path class="cls-14" d="M776.91,486.63S751,521,748.88,525.76s-3.17,7.4-3.17,7.4l39.66,15.33L824,506.2l14.28-37.54L834,424.24s-8.46-.53-10,6.87a56.07,56.07,0,0,0-1.06,14.28l-11.85-9.52L792,430.05s-4.49,7.4,2.91,11.1,9.52,3.7,9.52,3.7l6.66,11.63-2.91,13-13.5-12.66a7.74,7.74,0,0,0-9.84-.61l-8.72,6.34-8.18-3.65-15.86,13.94-6.35,5.82s4.23,7.93,12.69,4.23l8.46-3.7Z"/><path class="cls-15" d="M745.71,540.13a10.32,10.32,0,0,1,0-1.1c0-.73.09-1.81.26-3.23a38.46,38.46,0,0,1,1-5.18,23.14,23.14,0,0,1,2.78-6.66c5.93-9.11,15.27-21.78,26.91-37.52l.07.47-10.06-7.38.36,0-5.23,2.3A35,35,0,0,1,756.2,484a9,9,0,0,1-6.19-.7,11.43,11.43,0,0,1-4.65-4.44l-.16-.26.24-.22c6.82-6.4,14.4-12.88,22.19-19.79l.23-.21.27.16,7,4.16h-.47l8.24-5.42c1.42-.91,2.73-1.85,4.28-2.76a5.14,5.14,0,0,1,5.3.46l16.05,13.56-.76.25,2.78-12.45.05.34L804,445.09l.41.24a14.21,14.21,0,0,1-3.29-.89c-1-.38-2.08-.82-3.11-1.28s-2.06-1-3.09-1.46c-.51-.25-1-.59-1.55-.88a9.37,9.37,0,0,1-1.37-1.2,6.74,6.74,0,0,1-1.83-4.86,10.71,10.71,0,0,1,1.41-4.95l.18-.32.37.11,19.08,5.82.09,0,.07.06L823.2,445l-.75.4a56.24,56.24,0,0,1,1-14.08,8.53,8.53,0,0,1,3.86-5.86,12.24,12.24,0,0,1,6.73-1.7h.38l0,.4,4.18,44.42v.09l0,.09-14.34,37.52,0,.06,0,0-30,32.63-8.13,8.78L784,550.09c-.48.51-.75.75-.75.75s.22-.29.68-.81L786,547.7l8-8.9L823.73,506l-.06.1,14.21-37.57,0,.18-4.28-44.41.42.4a11.39,11.39,0,0,0-6.19,1.57,7.61,7.61,0,0,0-3.45,5.28,55.45,55.45,0,0,0-1,13.82l.06,1-.81-.65-11.85-9.51.16.08-19.09-5.81.54-.21a9.81,9.81,0,0,0-1.27,4.47,5.78,5.78,0,0,0,1.58,4.2,8.45,8.45,0,0,0,1.21,1.06c.48.27.92.56,1.43.82,1,.5,2,1,3.05,1.45a26.46,26.46,0,0,0,6,2.09l.3,0,.11.19,6.66,11.63.09.16,0,.18L808.74,469l-.17.75-.59-.5-16-13.54a4.23,4.23,0,0,0-4.36-.39c-1.36.8-2.8,1.81-4.18,2.7l-8.25,5.41-.23.15-.24-.14-7-4.17.51,0c-7.8,6.89-15.4,13.35-22.23,19.72l.08-.48a10.69,10.69,0,0,0,4.3,4.12,8.28,8.28,0,0,0,5.68.66,34.77,34.77,0,0,0,5.44-2.11l5.24-2.28.19-.08.17.12,10,7.42.27.2-.2.27c-11.7,15.68-21.13,28.3-27.13,37.32a23.09,23.09,0,0,0-2.82,6.54,40.36,40.36,0,0,0-1.07,5.13c-.2,1.4-.3,2.48-.35,3.21S745.71,540.13,745.71,540.13Z"/><path class="cls-15" d="M794.79,494.59c-.19,0,.51-2.8.8-7.31a16.51,16.51,0,0,0-1.25-7.64c-1.21-2.67-3.59-5-6.32-7.09a157.06,157.06,0,0,0-14.68-10l-4.65-2.74a8.37,8.37,0,0,1-1.67-1.07,7.75,7.75,0,0,1,1.84.75c1.16.54,2.81,1.38,4.81,2.48a120.28,120.28,0,0,1,14.93,9.83c2.76,2.13,5.27,4.58,6.53,7.48a16.56,16.56,0,0,1,1.12,8,36.08,36.08,0,0,1-.9,5.36A7.69,7.69,0,0,1,794.79,494.59Z"/><path class="cls-15" d="M822.54,478.09a36.58,36.58,0,0,1,.67-4.76,72.62,72.62,0,0,0-.19-23,36.54,36.54,0,0,1-.75-4.74,18.23,18.23,0,0,1,1.41,4.62,56.58,56.58,0,0,1,.2,23.2A18.23,18.23,0,0,1,822.54,478.09Z"/><path class="cls-2" d="M645.78,343.22l-19-33.44a89.6,89.6,0,1,0-21.46,23.87l0,0Z"/><path class="cls-13" d="M645.78,343.22l-40.52-9.3-.36-.08.22-.29,0,0,.33.33a91.62,91.62,0,0,1-18.4,11.08,89.72,89.72,0,0,1-24.52,7,80.51,80.51,0,0,1-14.16.71c-2.44-.14-4.92-.2-7.42-.41l-7.55-1.14a90.22,90.22,0,0,1-55.87-35.88,89.14,89.14,0,0,1-15.11-34.54,91.15,91.15,0,0,1,1.06-39.77,88.2,88.2,0,0,1,19.16-36.77l3.65-4c1.2-1.35,2.63-2.46,3.93-3.7s2.59-2.5,4.05-3.53l4.29-3.21a37.78,37.78,0,0,1,4.44-2.94l4.54-2.75,4.75-2.31a41.71,41.71,0,0,1,4.79-2.13,91.22,91.22,0,0,1,40.07-6.16A88.2,88.2,0,0,1,594,184.24a90.72,90.72,0,0,1,42.45,52.22,96.66,96.66,0,0,1,3.89,29.08A89,89,0,0,1,636,290.65a90.71,90.71,0,0,1-9,19.25v-.23l18.78,33.55L626.6,309.89l-.07-.12.07-.12a90.8,90.8,0,0,0,8.82-19.18,88.67,88.67,0,0,0,4.25-25,96.21,96.21,0,0,0-3.94-28.85A90,90,0,0,0,593.57,185a87.4,87.4,0,0,0-36.43-10.72,90.38,90.38,0,0,0-39.66,6.12,41,41,0,0,0-4.74,2.11l-4.7,2.28-4.49,2.73a37.17,37.17,0,0,0-4.39,2.91l-4.25,3.17c-1.45,1-2.66,2.34-4,3.5s-2.7,2.33-3.89,3.67l-3.61,4a87.33,87.33,0,0,0-19,36.38,90.31,90.31,0,0,0-1.07,39.36,88.34,88.34,0,0,0,14.92,34.21,89.54,89.54,0,0,0,55.3,35.65l7.49,1.15c2.48.21,4.94.28,7.36.42a80,80,0,0,0,14.05-.66,89.39,89.39,0,0,0,24.38-6.86,91.64,91.64,0,0,0,18.34-10.93l1.43-1.09-1.1,1.42,0,0-.13-.37Z"/><circle class="cls-13" cx="523.95" cy="262.94" r="7.26"/><circle class="cls-13" cx="553.02" cy="262.94" r="7.26"/><circle class="cls-13" cx="582.98" cy="262.94" r="7.26" transform="translate(-53.36 326.72) rotate(-30)"/><path class="cls-3" d="M769.83,834.06s12.34-21.08,38.93-22,39.88,22,39.88,22Z"/><path class="cls-13" d="M820.78,833.4c-.2,0-.24-1.56-.78-4a25.53,25.53,0,0,0-10.54-15.51c-2-1.39-3.47-2-3.4-2.19s1.6.23,3.84,1.49a22.58,22.58,0,0,1,10.91,16.06C821.16,831.83,820.91,833.41,820.78,833.4Z"/><path class="cls-3" d="M753.37,833.1v-.17a10.21,10.21,0,0,0-10.21-10H516.82a10.21,10.21,0,0,0-10.21,10.21H753.37Z"/><path class="cls-13" d="M320.07,436.62c0,4.76,3.57,289,3.57,289l211.13,50.8h17.46L541.12,379.59H525.24Z"/><path class="cls-13" d="M364.72,713.75,299.29,833.68H359.1c-10.7-1.07,94.71,0,94.71,0L359.1,808.56l29.61-67.26-2.53-27.56Z"/><polygon class="cls-13" points="366.18 735.88 359.1 512.36 423.38 506.2 431.31 744.86 408.35 746.03 366.18 735.88"/><path class="cls-3" d="M440.3,753.71s0-.35,0-1l0-3.06-.07-11.88c0-10.39-.08-25.49-.13-44.46,0-38-.1-91.46-.17-153.46l.45.45-75.86,0,.47-.47c0,3.26,0,6.78,0,10.31,0,60.46-.05,116.73-.08,163.61v.1l0,.09-47.45,87-13.29,24.23-3.52,6.36c-.8,1.43-1.24,2.16-1.24,2.16s.37-.76,1.13-2.22l3.42-6.41,13.1-24.33,47.15-87.16,0,.19c0-46.88,0-103.16-.08-163.61,0-3.53,0-7.05,0-10.31v-.47h.47l75.86,0h.45v.45c-.07,62-.13,115.47-.17,153.46-.06,19-.1,34.07-.13,44.46,0,5.16-.06,9.15-.07,11.88l0,3.06C440.32,753.36,440.3,753.71,440.3,753.71Z"/><path class="cls-3" d="M388.71,741.3c.24.11-8.87,21.16-20.33,47s-21,46.74-21.2,46.63,8.86-21.15,20.34-47S388.47,741.2,388.71,741.3Z"/><path class="cls-3" d="M534.77,776.44s0-.35-.05-1l-.06-3-.14-11.54c-.08-10-.3-24.51-.65-42.42-.68-35.82-2.3-85.28-4.28-139.91s-3.5-104.13-4-140c-.27-17.91-.39-32.41-.35-42.43,0-5,0-8.86,0-11.54l0-3c0-.68,0-1,0-1s0,.35.05,1l.06,3,.14,11.53c.08,10,.3,24.51.65,42.42.68,35.82,2.3,85.29,4.28,139.93s3.49,104.1,4,139.93c.27,17.91.39,32.41.35,42.43,0,5,0,8.86,0,11.54l0,3C534.8,776.1,534.77,776.44,534.77,776.44Z"/><path class="cls-3" d="M428.78,538.16c.26,0,.47,47.54.47,106.17s-.21,106.18-.47,106.18-.47-47.53-.47-106.18S428.52,538.16,428.78,538.16Z"/><path class="cls-3" d="M315,815a9.54,9.54,0,0,1-.91-1.27l-1-1.58a17.6,17.6,0,0,1-1.31-2.22A55.76,55.76,0,0,1,306,794.51a75.69,75.69,0,0,1-1.13-24.33,96.85,96.85,0,0,1,7.89-28.77A59.67,59.67,0,0,1,321,728.28a34.78,34.78,0,0,1,2.41-2.84c.84-.9,1.64-1.82,2.48-2.68,1.75-1.66,3.4-3.36,5.2-4.79a84.43,84.43,0,0,1,10.58-7.67c1.79-1,3.49-2,5.19-2.85s3.33-1.68,5-2.27a57.13,57.13,0,0,1,15.87-4.23,32.88,32.88,0,0,1,4.46-.27,9.5,9.5,0,0,1,1.56,0,9.67,9.67,0,0,1-1.55.17,41.18,41.18,0,0,0-4.42.45,59.84,59.84,0,0,0-15.66,4.48c-1.62.6-3.19,1.51-4.9,2.3s-3.35,1.88-5.12,2.87a85.28,85.28,0,0,0-10.42,7.66c-1.78,1.43-3.4,3.12-5.12,4.76-.83.86-1.62,1.77-2.44,2.66a34.29,34.29,0,0,0-2.37,2.81,59.31,59.31,0,0,0-8.12,12.94,97.58,97.58,0,0,0-7.88,28.47,76.57,76.57,0,0,0,.91,24.1,58.31,58.31,0,0,0,5.44,15.35,18.75,18.75,0,0,0,1.23,2.25l1,1.62A9.65,9.65,0,0,1,315,815Z"/></g></g></svg>