<svg xmlns="http://www.w3.org/2000/svg" viewBox="0 0 244.57 191.22"><defs><style>.cls-1{isolation:isolate;}.cls-2{fill:#e3b400;}.cls-3{fill:#ffef4a;}.cls-4{fill:#fd0;}.cls-5{fill:#fdc800;}.cls-6{fill:#f5a20a;}.cls-13,.cls-15,.cls-20,.cls-21,.cls-7{fill:none;}.cls-13,.cls-20,.cls-21,.cls-7{stroke:#f39411;}.cls-13,.cls-15,.cls-16,.cls-20,.cls-21,.cls-7{stroke-miterlimit:10;}.cls-7{stroke-width:4px;}.cls-19,.cls-8{mix-blend-mode:soft-light;}.cls-9{fill:#fff;}.cls-10{fill:#0080ff;}.cls-11{fill:#0062ff;}.cls-12{fill:#b5d4ff;}.cls-13{stroke-width:2.69px;}.cls-14{fill:#fafafa;}.cls-15,.cls-16{stroke:#0e2033;}.cls-15{stroke-width:3px;}.cls-16{fill:#0e2033;}.cls-17{fill:#e0920b;}.cls-18{fill:#efd8d5;mix-blend-mode:multiply;}.cls-19{fill:#fff8c3;}.cls-20{stroke-width:3.14px;}.cls-21{stroke-width:2px;}</style></defs><title>Zasób 33</title><g class="cls-1"><g id="Warstwa_2" data-name="Warstwa 2"><g id="DESIGNED_BY_FREEPIK" data-name="DESIGNED BY FREEPIK"><path class="cls-2" d="M153.62,27.57A27.57,27.57,0,1,1,126.05,0,27.58,27.58,0,0,1,153.62,27.57Z"/><path class="cls-3" d="M151.39,27.57A27.57,27.57,0,1,1,123.82,0,27.57,27.57,0,0,1,151.39,27.57Z"/><path class="cls-4" d="M149.54,27.57A27.57,27.57,0,1,1,122,0,27.57,27.57,0,0,1,149.54,27.57Z"/><path class="cls-5" d="M145.47,27.57A23.5,23.5,0,1,1,122,4.07,23.5,23.5,0,0,1,145.47,27.57Z"/><path class="cls-6" d="M124.42,48.62A23.49,23.49,0,0,1,106.63,9.78a23.49,23.49,0,1,0,33.13,33.13A23.43,23.43,0,0,1,124.42,48.62Z"/><path class="cls-7" d="M113.81,40.94h14.35c7,0,7.74-14.27,0-14.27H113.81"/><path class="cls-7" d="M117.79,40.94V14.73h8.26c7.43,0,8,12-1.33,12"/><line class="cls-7" x1="117.79" y1="14.73" x2="117.79" y2="10.46"/><line class="cls-7" x1="122.5" y1="14.73" x2="122.5" y2="10.46"/><line class="cls-7" x1="117.79" y1="45.21" x2="117.79" y2="40.94"/><line class="cls-7" x1="122.5" y1="45.21" x2="122.5" y2="40.94"/><g class="cls-8"><path class="cls-9" d="M142.88,9.6,98.58,42.16a27,27,0,0,1-3.37-8L136.29,4A27.4,27.4,0,0,1,142.88,9.6Z"/><path class="cls-9" d="M147,16.09l-43.5,32A27.41,27.41,0,0,1,100.61,45L145,12.39A26.12,26.12,0,0,1,147,16.09Z"/><path class="cls-9" d="M149.13,22.86,109.36,52.09l-2.18-1.26L148.6,20.4A25,25,0,0,1,149.13,22.86Z"/></g><polygon class="cls-10" points="159.76 35.66 147.79 139.85 70.28 133.47 85.62 29.55 159.76 35.66"/><polygon class="cls-11" points="159.76 35.66 159.68 134.38 147.78 139.85 159.76 35.66"/><path class="cls-12" d="M136,44.94c-1.63,6.2-5.24,11.15-9.9,13.57a14.19,14.19,0,0,1-7.71,1.54,12.06,12.06,0,0,1-8.63-4.4C107.29,52.5,106.51,48,107.36,42c.13-.92.28-1.84.43-2.77a37.75,37.75,0,0,0,.76-7.78l2.55.21a42.53,42.53,0,0,1-.8,8c-.15.9-.3,1.8-.43,2.7-.75,5.33-.14,9.17,1.86,11.77,2.74,3.53,8.65,4.5,13.17,2.16,4-2.1,7.17-6.46,8.62-12a44,44,0,0,0,1.17-10.7l2.52.2A44.79,44.79,0,0,1,136,44.94Z"/><path class="cls-2" d="M99,66.7A15.18,15.18,0,1,1,83.78,51.52,15.18,15.18,0,0,1,99,66.7Z"/><path class="cls-3" d="M97.74,66.7A15.18,15.18,0,1,1,82.56,51.52,15.18,15.18,0,0,1,97.74,66.7Z"/><path class="cls-4" d="M96.72,66.7A15.18,15.18,0,1,1,81.54,51.52,15.18,15.18,0,0,1,96.72,66.7Z"/><path class="cls-5" d="M94.48,66.7A12.94,12.94,0,1,1,81.54,53.76,12.94,12.94,0,0,1,94.48,66.7Z"/><path class="cls-6" d="M82.89,78.29a12.93,12.93,0,0,1-9.8-21.38A12.93,12.93,0,1,0,91.33,75.15,12.88,12.88,0,0,1,82.89,78.29Z"/><path class="cls-13" d="M77,74.06H85c3.83,0,4.26-7.86,0-7.86H77"/><path class="cls-13" d="M79.23,74.06V59.63h4.55c4.1,0,4.4,6.59-.72,6.59"/><line class="cls-13" x1="79.23" y1="59.63" x2="79.23" y2="57.28"/><line class="cls-13" x1="81.83" y1="59.63" x2="81.83" y2="57.28"/><line class="cls-13" x1="79.23" y1="76.41" x2="79.23" y2="74.06"/><line class="cls-13" x1="81.83" y1="76.41" x2="81.83" y2="74.06"/><g class="cls-8"><path class="cls-9" d="M93.05,56.81,68.66,74.73a15.22,15.22,0,0,1-1.86-4.38L89.42,53.73A14.92,14.92,0,0,1,93.05,56.81Z"/><path class="cls-9" d="M95.34,60.38,71.39,78a14.3,14.3,0,0,1-1.61-1.69l24.43-18A13.45,13.45,0,0,1,95.34,60.38Z"/><path class="cls-9" d="M96.49,64.1,74.6,80.2l-1.2-.69L96.2,62.75A12.47,12.47,0,0,1,96.49,64.1Z"/></g><path class="cls-2" d="M233.35,120.31a15.18,15.18,0,1,1-15.18-15.18A15.18,15.18,0,0,1,233.35,120.31Z"/><path class="cls-3" d="M232.13,120.31A15.18,15.18,0,1,1,217,105.13,15.18,15.18,0,0,1,232.13,120.31Z"/><path class="cls-4" d="M231.11,120.31a15.18,15.18,0,1,1-15.18-15.18A15.18,15.18,0,0,1,231.11,120.31Z"/><path class="cls-5" d="M228.87,120.31a12.94,12.94,0,1,1-12.94-12.94A12.93,12.93,0,0,1,228.87,120.31Z"/><path class="cls-6" d="M217.28,131.9a12.94,12.94,0,0,1-9.8-21.39,12.94,12.94,0,1,0,18.25,18.24A12.89,12.89,0,0,1,217.28,131.9Z"/><path class="cls-13" d="M211.44,127.67h7.9c3.84,0,4.26-7.86,0-7.86h-7.9"/><path class="cls-13" d="M213.63,127.67V113.24h4.54c4.1,0,4.41,6.59-.72,6.59"/><line class="cls-13" x1="213.63" y1="113.24" x2="213.63" y2="110.89"/><line class="cls-13" x1="216.22" y1="113.24" x2="216.22" y2="110.89"/><line class="cls-13" x1="213.63" y1="130.02" x2="213.63" y2="127.67"/><line class="cls-13" x1="216.22" y1="130.02" x2="216.22" y2="127.67"/><g class="cls-8"><path class="cls-9" d="M227.44,110.41l-24.39,17.93A14.93,14.93,0,0,1,201.2,124l22.61-16.62A14.88,14.88,0,0,1,227.44,110.41Z"/><path class="cls-9" d="M229.73,114l-23.95,17.6a14.3,14.3,0,0,1-1.61-1.69l24.43-18A13.45,13.45,0,0,1,229.73,114Z"/><path class="cls-9" d="M230.89,117.71,209,133.81l-1.2-.69,22.8-16.76Q230.77,117,230.89,117.71Z"/></g><path class="cls-14" d="M184.34,188.08c-.26,3.7-35.83,4.2-79.44,1.11s-78.76-8.6-78.49-12.3,35.83-4.2,79.44-1.12S184.6,184.37,184.34,188.08Z"/><polygon class="cls-12" points="106.63 71.47 99.24 135.73 51.43 131.79 60.9 67.7 106.63 71.47"/><polygon class="cls-9" points="106.62 71.46 107.73 135.9 99.24 135.73 106.62 71.46"/><path class="cls-9" d="M92,77.19a12.94,12.94,0,0,1-6.1,8.37,8.8,8.8,0,0,1-4.76,1,7.45,7.45,0,0,1-5.32-2.71c-1.51-2-2-4.71-1.46-8.43.08-.57.17-1.14.26-1.71a23,23,0,0,0,.47-4.8l1.57.13a26.08,26.08,0,0,1-.49,4.93l-.27,1.67c-.46,3.28-.09,5.65,1.15,7.25,1.69,2.18,5.34,2.78,8.12,1.34a11.38,11.38,0,0,0,5.32-7.39,26.51,26.51,0,0,0,.72-6.6l1.56.13A27.64,27.64,0,0,1,92,77.19Z"/><polyline class="cls-15" points="222.69 46.75 188.18 44.05 156.2 140.55 51.65 132.35 33.82 57.22 180.31 67.67"/><path class="cls-15" d="M156.2,140.55l1.2.09c5.94.47,10.63,2.55,9.44,17.76h0a10.81,10.81,0,0,1-11.61,9.92l-103.7-8.13"/><path class="cls-16" d="M135.83,176.26a9.94,9.94,0,1,0,10.68-9.13A9.94,9.94,0,0,0,135.83,176.26Z"/><path class="cls-16" d="M55.53,170a9.94,9.94,0,1,0,10.69-9.13A9.93,9.93,0,0,0,55.53,170Z"/><line class="cls-15" x1="149.67" y1="65.95" x2="140.88" y2="138.66"/><line class="cls-15" x1="128.32" y1="64.28" x2="121.06" y2="137.11"/><line class="cls-15" x1="106.96" y1="62.6" x2="101.25" y2="135.55"/><line class="cls-15" x1="85.61" y1="60.93" x2="81.43" y2="134"/><line class="cls-15" x1="62.72" y1="59.14" x2="61.61" y2="132.45"/><line class="cls-15" x1="172.42" y1="89.39" x2="38.99" y2="78.93"/><line class="cls-15" x1="162.91" y1="116.32" x2="46.74" y2="107.22"/><polygon class="cls-10" points="238.83 123.31 235.86 189.64 186.63 189.02 191.75 122.72 238.83 123.31"/><polygon class="cls-11" points="238.83 123.31 244.57 189.2 235.86 189.64 238.83 123.31"/><path class="cls-12" d="M224.22,130.22a13.28,13.28,0,0,1-5.65,9,9,9,0,0,1-4.81,1.31,7.65,7.65,0,0,1-5.64-2.4c-1.68-1.88-2.37-4.67-2.1-8.52,0-.59.1-1.18.15-1.77a23.59,23.59,0,0,0,.14-4.94l1.62,0a26.77,26.77,0,0,1-.16,5.07l-.15,1.73c-.24,3.4.32,5.8,1.7,7.35,1.88,2.11,5.66,2.46,8.41.78a11.65,11.65,0,0,0,4.91-7.94,27.6,27.6,0,0,0,.27-6.8l1.61,0A29,29,0,0,1,224.22,130.22Z"/><path class="cls-2" d="M23.78,184.08c-11.49,0-20.8-3.34-20.8-7.46v-5.3l41.59-.44v5.74C44.57,180.74,35.26,184.08,23.78,184.08Z"/><path class="cls-17" d="M23.49,179.16v4.92h-.62v-4.91Z"/><path class="cls-17" d="M26,179.16V184l-.62,0v-4.9Z"/><path class="cls-17" d="M21.31,178.86V184l-.62,0v-5.15Z"/><path class="cls-17" d="M19,178.29v5.59l-.62,0v-5.54Z"/><path class="cls-17" d="M14.2,177.57v5.67c-.21,0-.41-.07-.62-.12v-5.55Z"/><path class="cls-17" d="M11.85,176.94v5.79l-.62-.16v-5.63Z"/><path class="cls-17" d="M9.68,176.54v5.57l-.62-.22v-5.35Z"/><polygon class="cls-17" points="6.67 180.87 6.67 175.54 6.06 175.54 6.06 180.53 6.67 180.87"/><polygon class="cls-17" points="4.54 179.46 4.54 174.16 3.92 174.16 3.92 178.85 4.54 179.46"/><path class="cls-17" d="M16.37,177.57v6l-.62-.08v-5.94Z"/><path class="cls-17" d="M28.62,178.59v5.29l-.62.05v-5.34Z"/><path class="cls-17" d="M30.8,178.29v5.35l-.62.08v-5.43Z"/><path class="cls-17" d="M33.34,177.57v5.68l-.62.11v-5.79Z"/><path class="cls-17" d="M35.54,177.47v5.31l-.62.14v-5.45Z"/><path class="cls-17" d="M38.08,176.54V182l-.62.2v-5.7Z"/><polygon class="cls-17" points="41.03 180.79 41.03 175.54 40.41 175.54 40.41 181.1 41.03 180.79"/><path class="cls-17" d="M43.44,174v5.08a4.77,4.77,0,0,1-.61.57V174Z"/><path class="cls-18" d="M26.85,183.14c-11.48,0-17.79-2.85-17.79-7v-4.4L3,171.32v5.3c0,4.12,9.31,7.46,20.8,7.46a44.68,44.68,0,0,0,15-2.28A50.14,50.14,0,0,1,26.85,183.14Z"/><path class="cls-18" d="M5.78,176.8v-5.37L3,171.32v5.3c0,4.12,9.31,7.46,20.8,7.46C15.94,183.17,5.78,180.92,5.78,176.8Z"/><path class="cls-19" d="M11.23,176.54s2,4,9,5.08c19,2.91,24.36-5,24.36-5v-4.56Z"/><path class="cls-19" d="M15.69,175.75s1.74,3.31,7.78,4.18c16.48,2.4,21.1-5,21.1-5v-2.87Z"/><path class="cls-3" d="M23.78,179.75c-11.49,0-20.8-3.44-20.8-7.69s9.31-7.7,20.8-7.7,20.79,3.44,20.79,7.7S35.26,179.75,23.78,179.75Z"/><path class="cls-4" d="M23.78,178.78c-11.49,0-20.8-3.34-20.8-7.46s9.31-7.46,20.8-7.46,20.79,3.34,20.79,7.46S35.26,178.78,23.78,178.78Z"/><ellipse class="cls-5" cx="23.78" cy="170.71" rx="17.72" ry="6.36"/><path class="cls-6" d="M7.9,171.38c0-3.52,7.93-6.36,17.72-6.36a40.27,40.27,0,0,1,11.57,1.54,36.71,36.71,0,0,0-13.41-2.2c-9.79,0-17.72,2.84-17.72,6.35,0,1.93,2.38,3.65,6.15,4.82C9.52,174.41,7.9,173,7.9,171.38Z"/><line class="cls-20" x1="27.56" y1="174.18" x2="27.56" y2="168.92"/><line class="cls-20" x1="23.27" y1="174.18" x2="23.27" y2="168.92"/><path class="cls-20" d="M31.84,168.45h3.05c1.11,0,1.11,4.47-10,4.47-11.58,0-10.76-4.47-8.8-4.47h1.59"/><g class="cls-8"><path class="cls-9" d="M37.33,177,12.77,165a48,48,0,0,1,6-.92l22.78,11.12A20,20,0,0,1,37.33,177Z"/><path class="cls-9" d="M32.44,178.1,8.32,166.33a24,24,0,0,1,2.31-.79l24.6,12C34.35,177.75,33.41,177.94,32.44,178.1Z"/><path class="cls-9" d="M27.33,178.66l-22-10.76,1-.59,23,11.21C28.58,178.58,28,178.63,27.33,178.66Z"/></g><path class="cls-2" d="M20.79,177.43C9.31,177.43,0,174.09,0,170v-5.31l41.59-.43V170C41.59,174.09,32.28,177.43,20.79,177.43Z"/><path class="cls-17" d="M20.51,172.5v4.92c-.21,0-.42,0-.62,0V172.5Z"/><path class="cls-17" d="M23,172.5v4.88l-.62,0v-4.9Z"/><path class="cls-17" d="M18.33,172.2v5.17l-.62,0V172.2Z"/><path class="cls-17" d="M16,171.63v5.6l-.62-.06v-5.54Z"/><path class="cls-17" d="M11.22,170.91v5.68l-.62-.12v-5.56Z"/><path class="cls-17" d="M8.87,170.28v5.8l-.62-.16v-5.64Z"/><path class="cls-17" d="M6.7,169.89v5.56l-.62-.21v-5.35Z"/><polygon class="cls-17" points="3.69 174.22 3.69 168.89 3.07 168.89 3.07 173.87 3.69 174.22"/><polygon class="cls-17" points="1.55 172.81 1.55 167.5 0.94 167.5 0.94 172.19 1.55 172.81"/><path class="cls-17" d="M13.38,170.91v6l-.62-.09v-5.94Z"/><path class="cls-17" d="M25.64,171.94v5.29l-.62,0v-5.33Z"/><path class="cls-17" d="M27.82,171.63V177l-.62.08v-5.44Z"/><path class="cls-17" d="M30.35,170.91v5.68l-.61.11v-5.79Z"/><path class="cls-17" d="M32.55,170.81v5.31l-.61.14v-5.45Z"/><path class="cls-17" d="M35.09,169.89v5.49l-.61.21v-5.7Z"/><polygon class="cls-17" points="38.05 174.14 38.05 168.89 37.43 168.89 37.43 174.45 38.05 174.14"/><path class="cls-17" d="M40.46,167.32v5.08a6.64,6.64,0,0,1-.61.56v-5.64Z"/><path class="cls-18" d="M23.87,176.49c-11.49,0-17.79-2.85-17.79-7v-4.4L0,164.66V170c0,4.12,9.31,7.46,20.79,7.46a44.58,44.58,0,0,0,15-2.29A49.57,49.57,0,0,1,23.87,176.49Z"/><path class="cls-18" d="M2.79,170.14v-5.36L0,164.66V170c0,4.12,9.31,7.46,20.79,7.46C13,176.51,2.79,174.26,2.79,170.14Z"/><path class="cls-19" d="M8.25,169.89s2,4,9,5.07c19,2.91,24.36-5,24.36-5V165.4Z"/><path class="cls-19" d="M12.7,169.09s1.75,3.31,7.79,4.19c16.47,2.39,21.1-5,21.1-5V165.4Z"/><path class="cls-3" d="M20.79,173.1C9.31,173.1,0,169.65,0,165.4s9.31-7.7,20.79-7.7,20.8,3.45,20.8,7.7S32.28,173.1,20.79,173.1Z"/><path class="cls-4" d="M20.79,172.12C9.31,172.12,0,168.78,0,164.66s9.31-7.46,20.79-7.46,20.8,3.34,20.8,7.46S32.28,172.12,20.79,172.12Z"/><ellipse class="cls-5" cx="20.79" cy="164.06" rx="17.72" ry="6.36"/><path class="cls-6" d="M4.92,164.72c0-3.51,7.93-6.36,17.72-6.36a40.29,40.29,0,0,1,11.57,1.55,36.71,36.71,0,0,0-13.42-2.21c-9.78,0-17.72,2.85-17.72,6.36,0,1.92,2.39,3.65,6.15,4.81C6.54,167.76,4.92,166.31,4.92,164.72Z"/><line class="cls-21" x1="24.57" y1="167.53" x2="24.57" y2="162.27"/><line class="cls-21" x1="20.29" y1="167.53" x2="20.29" y2="162.27"/><path class="cls-21" d="M28.86,161.8h3c1.11,0,1.11,4.47-10,4.47-11.58,0-10.76-4.47-8.81-4.47h1.59"/><g class="cls-8"><path class="cls-9" d="M34.35,170.32l-24.56-12a46.23,46.23,0,0,1,6-.91l22.77,11.11A19.87,19.87,0,0,1,34.35,170.32Z"/><path class="cls-9" d="M29.46,171.44,5.34,159.67c.71-.28,1.48-.55,2.31-.79l24.6,12C31.36,171.1,30.43,171.28,29.46,171.44Z"/><path class="cls-9" d="M24.35,172l-22-10.76,1-.59,23,11.2C25.59,171.92,25,172,24.35,172Z"/></g></g></g></g></svg>