<svg xmlns="http://www.w3.org/2000/svg" xmlns:xlink="http://www.w3.org/1999/xlink" viewBox="0 0 1394.16 772.31"><defs><style>.cls-1,.cls-8{fill:#97ceff;}.cls-11,.cls-2{fill:none;}.cls-3,.cls-47{fill:#2281bc;}.cls-4{isolation:isolate;}.cls-5,.cls-6{fill:#0b1238;}.cls-6{opacity:0.25;}.cls-6,.cls-66,.cls-68,.cls-70,.cls-72,.cls-73{mix-blend-mode:multiply;}.cls-7{clip-path:url(#clip-path);}.cls-29,.cls-47,.cls-8{mix-blend-mode:screen;}.cls-9{clip-path:url(#clip-path-2);}.cls-10{fill:#caaa75;}.cls-11,.cls-22,.cls-23,.cls-41,.cls-42{stroke:#00325b;stroke-miterlimit:10;}.cls-11{stroke-width:1.43px;}.cls-12{font-size:30.31px;letter-spacing:0.06em;}.cls-12,.cls-22,.cls-23,.cls-31,.cls-41,.cls-42{fill:#00325b;}.cls-12,.cls-31,.cls-49{font-family:Montserrat-SemiBold, Montserrat;font-weight:600;}.cls-13{letter-spacing:0.1em;}.cls-14{letter-spacing:0.04em;}.cls-15{letter-spacing:0.1em;}.cls-16{letter-spacing:0.1em;}.cls-17{letter-spacing:0.1em;}.cls-18{letter-spacing:0.04em;}.cls-19{letter-spacing:0.06em;}.cls-20{letter-spacing:0.08em;}.cls-21{letter-spacing:-0.02em;}.cls-22,.cls-59{font-size:15.95px;}.cls-22,.cls-23,.cls-41,.cls-42{stroke-width:0.21px;}.cls-22,.cls-23,.cls-41,.cls-42,.cls-59,.cls-60{font-family:Montserrat-Regular, Montserrat;}.cls-22{letter-spacing:0.02em;}.cls-23{font-size:24.44px;letter-spacing:0.04em;}.cls-24{letter-spacing:0.02em;}.cls-25,.cls-49,.cls-59,.cls-60{fill:#fefeff;}.cls-26{fill:url(#Gradient_bez_nazwy_8);}.cls-27{fill:url(#Gradient_bez_nazwy_8-2);}.cls-28{clip-path:url(#clip-path-3);}.cls-29{fill:#e89f1f;}.cls-29,.cls-66{opacity:0.3;}.cls-30{clip-path:url(#clip-path-4);}.cls-31{font-size:30.31px;letter-spacing:0.06em;}.cls-32{letter-spacing:0.1em;}.cls-33{letter-spacing:0.04em;}.cls-34{letter-spacing:0.1em;}.cls-35{letter-spacing:0.1em;}.cls-36{letter-spacing:0.1em;}.cls-37{letter-spacing:0.04em;}.cls-38{letter-spacing:0.06em;}.cls-39{letter-spacing:0.08em;}.cls-40{letter-spacing:-0.02em;}.cls-41{font-size:15.95px;letter-spacing:0.02em;}.cls-42{font-size:24.44px;letter-spacing:0.04em;}.cls-43{letter-spacing:0.02em;}.cls-44{fill:#386167;}.cls-45{opacity:0.43;}.cls-46{clip-path:url(#clip-path-5);}.cls-48{clip-path:url(#clip-path-6);}.cls-49{font-size:30.31px;letter-spacing:0.06em;}.cls-50{letter-spacing:0.1em;}.cls-51{letter-spacing:0.04em;}.cls-52{letter-spacing:0.1em;}.cls-53{letter-spacing:0.1em;}.cls-54{letter-spacing:0.1em;}.cls-55{letter-spacing:0.06em;}.cls-56{letter-spacing:0.08em;}.cls-57{letter-spacing:-0.02em;}.cls-58{letter-spacing:0.06em;}.cls-59{letter-spacing:0.02em;}.cls-60{font-size:24.44px;letter-spacing:0.04em;}.cls-61{letter-spacing:0.02em;}.cls-62{letter-spacing:0.04em;}.cls-63,.cls-66{fill:#f9af9a;}.cls-64{fill:#d6802b;}.cls-65,.cls-70,.cls-72{fill:#fcba33;}.cls-67{fill:#0a5487;}.cls-68{fill:#0078c2;opacity:0.39;}.cls-69{fill:url(#Gradient_bez_nazwy_8-3);}.cls-70{opacity:0.32;}.cls-71{fill:url(#Gradient_bez_nazwy_8-4);}.cls-72{opacity:0.2;}.cls-73{fill:#299c90;opacity:0.6;}</style><clipPath id="clip-path"><path class="cls-1" d="M1068.32,575.43,824.57,300.3a29.79,29.79,0,0,1,2.54-42L969.53,132.09a29.78,29.78,0,0,1,42,2.54l243.75,275.13a29.78,29.78,0,0,1-2.54,42L1110.36,578A29.78,29.78,0,0,1,1068.32,575.43Z"/></clipPath><clipPath id="clip-path-2"><rect class="cls-2" x="918.86" y="200.2" width="81.66" height="56.16" rx="5.68" transform="translate(494.39 -641.55) rotate(48.48)"/></clipPath><linearGradient id="Gradient_bez_nazwy_8" x1="446.91" y1="429.99" x2="919.83" y2="429.99" gradientUnits="userSpaceOnUse"><stop offset="0" stop-color="#0ba1e1"/><stop offset="1" stop-color="#1170db"/></linearGradient><linearGradient id="Gradient_bez_nazwy_8-2" x1="440.29" y1="425.46" x2="923.3" y2="425.46" gradientTransform="translate(-114.83 319.37) rotate(-24.38)" xlink:href="#Gradient_bez_nazwy_8"/><clipPath id="clip-path-3"><rect class="cls-2" x="468.23" y="300.55" width="427.14" height="249.83" rx="14.18" transform="translate(236.41 -243.49) rotate(24.38)"/></clipPath><clipPath id="clip-path-4"><rect class="cls-2" x="515.97" y="314.41" width="81.66" height="56.16" rx="5.68" transform="translate(191.17 -199.39) rotate(24.39)"/></clipPath><clipPath id="clip-path-5"><path class="cls-3" d="M470.27,384,207.79,641.33a29.8,29.8,0,0,1-42.12-.42L32.48,505.05a29.78,29.78,0,0,1,.42-42.12L295.38,205.61a29.77,29.77,0,0,1,42.11.41l133.2,135.87A29.77,29.77,0,0,1,470.27,384Z"/></clipPath><clipPath id="clip-path-6"><rect class="cls-2" x="88.22" y="481.94" width="81.66" height="56.16" rx="5.68" transform="translate(-320.08 236.04) rotate(-44.42)"/></clipPath><linearGradient id="Gradient_bez_nazwy_8-3" x1="1245.61" y1="614.2" x2="1297.02" y2="614.2" xlink:href="#Gradient_bez_nazwy_8"/><linearGradient id="Gradient_bez_nazwy_8-4" x1="1278.31" y1="609.89" x2="1366.38" y2="609.89" xlink:href="#Gradient_bez_nazwy_8"/></defs><title>Zasób 37</title><g class="cls-4"><g id="Warstwa_2" data-name="Warstwa 2"><g id="DESIGNED_BY_FREEPIK" data-name="DESIGNED BY FREEPIK"><path class="cls-5" d="M1295.79,419.43s-35.56,6.1-44.22.54c-10.49-6.73-25.66-41.59-25.66-41.59l-16.85,8s9.54,45.3,24.1,56.92c11.3,9,48,16.36,59.42,17.36C1309.42,462.17,1322.29,420.23,1295.79,419.43Z"/><path class="cls-6" d="M1295.79,419.43s-35.56,6.1-44.22.54c-10.49-6.73-25.66-41.59-25.66-41.59l-16.85,8s9.54,45.3,24.1,56.92c11.3,9,48,16.36,59.42,17.36C1309.42,462.17,1322.29,420.23,1295.79,419.43Z"/><path class="cls-1" d="M1067.91,580.21,824.16,305.07a29.78,29.78,0,0,1,2.54-42L969.11,136.86a29.8,29.8,0,0,1,42,2.55l243.75,275.13a29.78,29.78,0,0,1-2.55,42L1110,582.75A29.78,29.78,0,0,1,1067.91,580.21Z"/><path class="cls-1" d="M1068.32,575.43,824.57,300.3a29.79,29.79,0,0,1,2.54-42L969.53,132.09a29.78,29.78,0,0,1,42,2.54l243.75,275.13a29.78,29.78,0,0,1-2.54,42L1110.36,578A29.78,29.78,0,0,1,1068.32,575.43Z"/><path class="cls-1" d="M1068.32,575.43,824.57,300.3a29.79,29.79,0,0,1,2.54-42L969.53,132.09a29.78,29.78,0,0,1,42,2.54l243.75,275.13a29.78,29.78,0,0,1-2.54,42L1110.36,578A29.78,29.78,0,0,1,1068.32,575.43Z"/><g class="cls-7"><polygon class="cls-8" points="737.71 283.88 814.37 370.4 1236.54 359.37 1159.89 272.85 737.71 283.88"/><polygon class="cls-8" points="702.61 118.44 779.27 204.96 1201.44 193.93 1124.79 107.41 702.61 118.44"/><polygon class="cls-8" points="825.78 383.28 858.77 420.51 1280.94 409.49 1247.95 372.25 825.78 383.28"/><polygon class="cls-8" points="939 502.33 971.99 539.57 1394.16 528.54 1361.17 491.31 939 502.33"/></g><g class="cls-9"><rect class="cls-10" x="918.86" y="200.2" width="81.66" height="56.16" rx="5.68" transform="translate(494.39 -641.55) rotate(48.48)"/><path class="cls-11" d="M940.34,188.72,953,203a11.74,11.74,0,0,1-1,16.56h0L994,267"/><path class="cls-11" d="M922.76,204.28l12.62,14.26a11.74,11.74,0,0,0,16.57,1h0L973.59,244"/><path class="cls-11" d="M996.39,252l-12.62-14.25a11.72,11.72,0,0,0-16.56-1h0L931.55,196.5"/><path class="cls-11" d="M978.82,267.59,966.2,253.34a11.73,11.73,0,0,1,1-16.57h0l-21.64-24.43"/></g><text class="cls-12" transform="matrix(0.66, 0.75, -0.75, 0.66, 876.17, 247.56)">1<tspan class="cls-13" x="13.37" y="0">23</tspan><tspan class="cls-14" x="54.71" y="0">4 </tspan><tspan class="cls-15" x="86.08" y="0"> </tspan><tspan class="cls-16" x="97.48" y="0">4</tspan><tspan class="cls-15" x="121" y="0">5</tspan><tspan class="cls-17" x="141.73" y="0">6</tspan><tspan class="cls-18" x="163.61" y="0" xml:space="preserve">7  </tspan><tspan class="cls-19" x="202.41" y="0">7</tspan><tspan class="cls-20" x="222.72" y="0">899</tspan><tspan class="cls-21" x="287.76" y="0"> </tspan><tspan class="cls-18" x="295.52" y="0"> </tspan><tspan x="305.1" y="0">1234</tspan></text><text class="cls-22" transform="matrix(0.66, 0.75, -0.75, 0.66, 852.65, 268.4)"><tspan xml:space="preserve">NAME    SURNAME</tspan></text><text class="cls-23" transform="matrix(0.66, 0.75, -0.75, 0.66, 969.38, 164.99)">CREDIT <tspan class="cls-24" x="106.44" y="0">C</tspan><tspan x="124.54" y="0">ARD</tspan></text><path class="cls-25" d="M1196,404.48A18.13,18.13,0,0,1,1206.5,400a4.59,4.59,0,0,0,3.2-7.52,19.13,19.13,0,0,0-2-2,18.26,18.26,0,0,0-25.36,26.13l.06.08a4.6,4.6,0,0,0,7.85-2.28A18.18,18.18,0,0,1,1196,404.48Z"/><path class="cls-25" d="M1228,413.43a18.84,18.84,0,0,0-1.73-2.27,4.6,4.6,0,0,0-7.85,2.28,18.2,18.2,0,0,1-16.28,14.42,4.6,4.6,0,0,0-3.2,7.52l.07.07a18.25,18.25,0,0,0,29-22Z"/><path class="cls-25" d="M1210.39,420.74a18.2,18.2,0,0,0,5-7.27A8,8,0,0,0,1206.1,403a18.24,18.24,0,0,0-12.81,11.35,8,8,0,0,0,9.28,10.47A18,18,0,0,0,1210.39,420.74Z"/><path class="cls-26" d="M799.21,619.63,464.41,467.9a29.77,29.77,0,0,1-14.83-39.41l78.53-173.3a29.78,29.78,0,0,1,39.42-14.83l334.8,151.72a29.78,29.78,0,0,1,14.83,39.42L838.63,604.8A29.78,29.78,0,0,1,799.21,619.63Z"/><rect class="cls-27" x="468.23" y="300.55" width="427.14" height="249.83" rx="14.18" transform="translate(236.41 -243.49) rotate(24.38)"/><g class="cls-28"><polygon class="cls-29" points="376.84 483.82 482.12 531.54 863.05 349.21 757.76 301.5 376.84 483.82"/><polygon class="cls-29" points="277.29 347.11 382.57 394.82 763.5 212.49 658.22 164.78 277.29 347.11"/><polygon class="cls-29" points="497.8 538.64 543.11 559.17 924.04 376.85 878.72 356.31 497.8 538.64"/><polygon class="cls-29" points="649.74 601.14 695.05 621.67 1075.98 439.35 1030.67 418.81 649.74 601.14"/></g><g class="cls-30"><rect class="cls-10" x="515.97" y="314.41" width="81.66" height="56.16" rx="5.68" transform="translate(191.17 -199.39) rotate(24.39)"/><path class="cls-11" d="M523,314.28l17.34,7.86a11.74,11.74,0,0,1,5.84,15.53h0l57.75,26.2"/><path class="cls-11" d="M513.3,335.65l17.34,7.87a11.75,11.75,0,0,0,15.54-5.85h0l29.72,13.49"/><path class="cls-11" d="M600,349.2l-17.34-7.86a11.74,11.74,0,0,0-15.54,5.84h0l-49-22.22"/><path class="cls-11" d="M590.31,370.58,573,362.71a11.74,11.74,0,0,1-5.84-15.53h0L537.41,333.7"/></g><text class="cls-31" transform="translate(488.43 394.27) rotate(24.38)">1<tspan class="cls-32" x="13.37" y="0">23</tspan><tspan class="cls-33" x="54.71" y="0">4 </tspan><tspan class="cls-34" x="86.08" y="0"> </tspan><tspan class="cls-35" x="97.48" y="0">4</tspan><tspan class="cls-34" x="121" y="0">5</tspan><tspan class="cls-36" x="141.73" y="0">6</tspan><tspan class="cls-37" x="163.62" y="0" xml:space="preserve">7  </tspan><tspan class="cls-38" x="202.41" y="0">7</tspan><tspan class="cls-39" x="222.72" y="0">899</tspan><tspan class="cls-40" x="287.77" y="0"> </tspan><tspan class="cls-33" x="295.52" y="0"> </tspan><tspan x="305.1" y="0">1234</tspan></text><text class="cls-41" transform="translate(475.46 422.89) rotate(24.38)"><tspan xml:space="preserve">NAME    SURNAME</tspan></text><text class="cls-42" transform="translate(539.83 280.85) rotate(24.38)">CREDIT <tspan class="cls-43" x="106.44" y="0">C</tspan><tspan x="124.55" y="0">ARD</tspan></text><path class="cls-25" d="M844.42,406.94a18.2,18.2,0,0,1,7.77-8.42,4.6,4.6,0,0,0-.14-8.17,17.77,17.77,0,0,0-2.68-1,18.26,18.26,0,0,0-12.49,34.2l.1,0a4.59,4.59,0,0,0,6.23-5.28A18.21,18.21,0,0,1,844.42,406.94Z"/><path class="cls-25" d="M877.33,402a18.5,18.5,0,0,0-2.5-1.36,4.6,4.6,0,0,0-6.24,5.28,18.2,18.2,0,0,1-9,19.8,4.6,4.6,0,0,0,.15,8.18l.09,0A18.26,18.26,0,0,0,877.33,402Z"/><path class="cls-25" d="M864.22,415.91a18.29,18.29,0,0,0,1.59-8.67,8,8,0,0,0-12.75-5.78A18.27,18.27,0,0,0,846,417.05a8,8,0,0,0,12.74,5.78A18.18,18.18,0,0,0,864.22,415.91Z"/><line class="cls-44" x1="959.75" y1="206.38" x2="962.08" y2="182.04"/><rect class="cls-3" x="42.81" y="298.72" width="427.14" height="249.83" rx="14.18" transform="translate(-223.27 300.6) rotate(-44.43)"/><path class="cls-3" d="M470.27,384,207.79,641.33a29.8,29.8,0,0,1-42.12-.42L32.48,505.05a29.78,29.78,0,0,1,.42-42.12L295.38,205.61a29.77,29.77,0,0,1,42.11.41l133.2,135.87A29.77,29.77,0,0,1,470.27,384Z"/><g class="cls-45"><path class="cls-3" d="M470.27,384,207.79,641.33a29.8,29.8,0,0,1-42.12-.42L32.48,505.05a29.78,29.78,0,0,1,.42-42.12L295.38,205.61a29.77,29.77,0,0,1,42.11.41l133.2,135.87A29.77,29.77,0,0,1,470.27,384Z"/><g class="cls-46"><polygon class="cls-47" points="195.77 728.9 278.31 647.98 246 226.9 163.46 307.83 195.77 728.9"/><polygon class="cls-47" points="32.31 772.31 114.86 691.39 82.54 270.31 0 351.23 32.31 772.31"/><polygon class="cls-47" points="290.6 635.93 326.13 601.11 293.81 180.03 258.29 214.86 290.6 635.93"/><polygon class="cls-47" points="403.79 516.85 439.32 482.03 407 60.95 371.48 95.78 403.79 516.85"/></g></g><g class="cls-48"><rect class="cls-10" x="88.22" y="481.94" width="81.66" height="56.16" rx="5.68" transform="translate(-320.08 236.04) rotate(-44.42)"/><path class="cls-11" d="M90.52,531.34,104.11,518a11.74,11.74,0,0,1,16.6.17h0L166,473.81"/><path class="cls-11" d="M106.94,548.11l13.6-13.33a11.72,11.72,0,0,0,.17-16.59h0L144,495.34"/><path class="cls-11" d="M150.91,472.16l-13.59,13.32a11.74,11.74,0,0,0-.17,16.6h0L98.73,539.72"/><path class="cls-11" d="M167.34,488.93l-13.6,13.32a11.72,11.72,0,0,1-16.59-.17h0l-23.32,22.84"/></g><text class="cls-49" transform="translate(152.57 592.24) rotate(-44.43)">1<tspan class="cls-50" x="13.37" y="0">23</tspan><tspan class="cls-51" x="54.71" y="0">4 </tspan><tspan class="cls-52" x="86.08" y="0"> </tspan><tspan class="cls-53" x="97.48" y="0">4</tspan><tspan class="cls-50" x="121" y="0">5</tspan><tspan class="cls-54" x="141.73" y="0">6</tspan><tspan class="cls-51" x="163.61" y="0" xml:space="preserve">7  </tspan><tspan class="cls-55" x="202.41" y="0">7</tspan><tspan class="cls-56" x="222.72" y="0">899</tspan><tspan class="cls-57" x="287.77" y="0"> </tspan><tspan class="cls-51" x="295.52" y="0"> </tspan><tspan class="cls-58" x="305.1" y="0">1234</tspan></text><text class="cls-59" transform="translate(174.57 614.68) rotate(-44.43)"><tspan xml:space="preserve">NAME    SURNAME</tspan></text><text class="cls-60" transform="translate(65.4 503.32) rotate(-44.43)">CREDIT <tspan class="cls-61" x="106.44" y="0">C</tspan><tspan class="cls-62" x="124.55" y="0">ARD</tspan></text><path class="cls-25" d="M293.09,265.14a18.14,18.14,0,0,1-5-10.29,4.59,4.59,0,0,0-7.67-2.81,17.55,17.55,0,0,0-1.88,2.13,18.26,18.26,0,0,0,27.37,24l.08-.07a4.6,4.6,0,0,0-2.67-7.73A18.14,18.14,0,0,1,293.09,265.14Z"/><path class="cls-25" d="M300.41,232.68a19.41,19.41,0,0,0-2.17,1.85,4.59,4.59,0,0,0,2.67,7.72,18.2,18.2,0,0,1,15.23,15.53,4.6,4.6,0,0,0,7.67,2.82l.07-.07a18.26,18.26,0,0,0-23.47-27.85Z"/><path class="cls-25" d="M308.61,249.93a18.07,18.07,0,0,0-7.51-4.62,7.94,7.94,0,0,0-10,9.79,18.25,18.25,0,0,0,12,12.23,8,8,0,0,0,10-9.8A18.06,18.06,0,0,0,308.61,249.93Z"/><path class="cls-63" d="M1204.74,359.05s.61,1.33,3.28,1.68,7.79.31,9.77,4.59l.55.47s1-2.18.61-3.39h0a4.53,4.53,0,0,0-.87-2.1,4.39,4.39,0,0,0-1.2-1.07,4.86,4.86,0,0,0-1-2.65,5.89,5.89,0,0,0-2.09-1.62,6.55,6.55,0,0,0-2.93-4.21,4,4,0,0,0-.69-.36c0-.44-.28-1.1-1.48-2.12-1.88-1.62-8.64-1.85-8.46,0a3.18,3.18,0,0,0,2.32.79,13.93,13.93,0,0,1,3.28.52c-3.29-.13-6.76.6-6.76,2.34,0,0,.75,1.05,3.13.91a23,23,0,0,1,5.24.44c-3.3-.32-6.34.19-6.67,1.92,0,0,.69,1.51,3.71,1.91.8.11,1.79.19,2.85.32C1206,357.62,1204.92,358.14,1204.74,359.05Z"/><circle class="cls-64" cx="302.94" cy="568.42" r="54.99" transform="translate(-336.01 649.79) rotate(-69.2)"/><circle class="cls-65" cx="302.95" cy="563.65" r="54.99" transform="translate(-46.56 27.62) rotate(-4.85)"/><circle class="cls-65" cx="302.95" cy="563.65" r="42.61" transform="translate(-336.63 543.31) rotate(-59.92)"/><path class="cls-64" d="M272,540.92a42.6,42.6,0,0,1,72.1,11.54,42.6,42.6,0,1,0-80.63,27.1A42.57,42.57,0,0,1,272,540.92Z"/><path class="cls-64" d="M274.82,594a44.84,44.84,0,0,1-11.29-14.37,42.6,42.6,0,0,0,73.09,10.79A45,45,0,0,1,274.82,594Z"/><path class="cls-64" d="M292.27,583.52l-4.46,5.28-4.71-4,4.33-5.14c-4.43-4.22-7.68-9.46-8.56-13.67l7.44-3.57a24.94,24.94,0,0,0,6.33,11.06l6.63-7.88c-4.16-5.68-8.53-12.35-2.85-19.09,4.21-5,11.46-6.23,19.62-.8l4.42-5.24,4.71,4-4.33,5.14A27.9,27.9,0,0,1,328,560.56l-7.25,3.81a25.21,25.21,0,0,0-5.15-8.53l-6.75,8c4.2,5.63,8.48,12.23,2.88,18.87C307.58,587.64,300.42,588.86,292.27,583.52Zm12.85-24.82,5.64-6.69c-3-1.54-5.12-1-6.43.55S303.6,556.29,305.12,558.7Zm-1.47,18.2c1.39-1.65.78-3.7-.66-6.11l-5.48,6.5C300.31,578.76,302.38,578.41,303.65,576.9Z"/><circle class="cls-64" cx="1044.9" cy="149.7" r="48.31" transform="translate(-3.43 26.29) rotate(-1.44)"/><circle class="cls-65" cx="1044.9" cy="145.51" r="48.31" transform="translate(-8.5 87.76) rotate(-4.79)"/><circle class="cls-65" cx="1044.9" cy="145.51" r="37.43" transform="translate(-8.66 90.74) rotate(-4.95)"/><path class="cls-64" d="M1017.67,125.54A37.43,37.43,0,0,1,1081,135.68a37.43,37.43,0,1,0-70.83,23.8A37.34,37.34,0,0,1,1017.67,125.54Z"/><path class="cls-64" d="M1020.19,172.2a39.53,39.53,0,0,1-9.92-12.63,38.12,38.12,0,0,0,2.77,5.63,37.42,37.42,0,0,0,51.38,12.72,36.93,36.93,0,0,0,10-8.87A39.55,39.55,0,0,1,1020.19,172.2Z"/><path class="cls-64" d="M1035.51,163l-3.91,4.64-4.14-3.49,3.81-4.52c-3.89-3.7-6.75-8.3-7.52-12l6.53-3.14a21.94,21.94,0,0,0,5.56,9.72l5.83-6.92c-3.65-5-7.5-10.86-2.51-16.78,3.7-4.39,10.07-5.47,17.24-.7l3.88-4.6,4.14,3.49-3.81,4.52a24.35,24.35,0,0,1,6.28,9.61l-6.36,3.35a22.28,22.28,0,0,0-4.52-7.5l-5.94,7.05c3.69,4.95,7.45,10.74,2.53,16.58C1049,166.58,1042.68,167.65,1035.51,163Zm11.29-21.8,5-5.88c-2.61-1.36-4.5-.89-5.65.48S1045.47,139,1046.8,141.16Zm-1.29,16c1.23-1.45.69-3.25-.57-5.37l-4.82,5.71C1042.58,158.78,1044.4,158.47,1045.51,157.15Z"/><circle class="cls-64" cx="825.58" cy="52.51" r="48.31" transform="translate(526.37 823.75) rotate(-72.43)"/><circle class="cls-65" cx="825.59" cy="48.31" r="48.31" transform="translate(4.29 145.3) rotate(-10.08)"/><circle class="cls-65" cx="825.59" cy="48.31" r="37.43" transform="translate(-1.14 69.58) rotate(-4.82)"/><path class="cls-64" d="M798.36,28.34A37.42,37.42,0,0,1,861.7,38.49a37.43,37.43,0,1,0-70.84,23.8A37.39,37.39,0,0,1,798.36,28.34Z"/><path class="cls-64" d="M800.88,75A39.36,39.36,0,0,1,791,62.38a37.41,37.41,0,0,0,64.2,9.48A39.54,39.54,0,0,1,800.88,75Z"/><path class="cls-64" d="M816.2,65.77l-3.91,4.64-4.14-3.5L812,62.4c-3.9-3.71-6.75-8.31-7.53-12L811,47.26A21.85,21.85,0,0,0,816.53,57l5.83-6.91c-3.66-5-7.5-10.86-2.51-16.78,3.7-4.39,10.07-5.47,17.24-.7L841,28l4.14,3.49L841.3,36a24.45,24.45,0,0,1,6.28,9.62L841.22,49a22.28,22.28,0,0,0-4.52-7.5l-5.94,7c3.69,5,7.45,10.75,2.53,16.59C829.66,69.39,823.37,70.46,816.2,65.77ZM827.49,44l5-5.88c-2.62-1.36-4.5-.89-5.65.48S826.16,41.85,827.49,44ZM826.2,60c1.22-1.45.69-3.25-.57-5.37l-4.82,5.72C823.27,61.59,825.08,61.28,826.2,60Z"/><circle class="cls-64" cx="354.5" cy="113.46" r="54.99" transform="translate(23.6 283.9) rotate(-45)"/><circle class="cls-65" cx="350.22" cy="111.36" r="54.99" transform="translate(150.13 419.62) rotate(-74.65)"/><circle class="cls-65" cx="350.22" cy="111.36" r="42.61" transform="translate(179.96 437.04) rotate(-80.04)"/><path class="cls-64" d="M316.19,129.24a42.6,42.6,0,0,1,42-59.72,42.6,42.6,0,1,0-11,84.34A42.55,42.55,0,0,1,316.19,129.24Z"/><path class="cls-64" d="M365.18,150a44.72,44.72,0,0,1-17.87,3.85,43.67,43.67,0,0,0,7.14,0,42.59,42.59,0,0,0,34.62-60.93A45,45,0,0,1,365.18,150Z"/><path class="cls-64" d="M363.38,129.68l2.8,6.31-5.64,2.5-2.72-6.15c-5.73,2.13-11.86,2.75-16,1.7l.06-8.25a24.93,24.93,0,0,0,12.71-.84l-4.16-9.42c-6.94,1.25-14.85,2.26-18.42-5.81-2.64-6-.57-13,7.89-18l-2.76-6.26L342.74,83l2.71,6.15a27.82,27.82,0,0,1,13-1.62l.25,8.18a25.23,25.23,0,0,0-9.92.88l4.23,9.59c6.91-1.3,14.72-2.26,18.23,5.69C373.81,117.72,371.76,124.69,363.38,129.68Zm-16.66-22.44-3.54-8c-2.69,2-3.15,4.15-2.33,6S343.89,107.55,346.72,107.24Zm15.71,9.31c-.87-2-3-2.33-5.78-2.1l3.44,7.78C362.64,120.37,363.23,118.35,362.43,116.55Z"/><circle class="cls-64" cx="759.56" cy="197.95" r="54.99" transform="translate(82.5 595.07) rotate(-45)"/><circle class="cls-65" cx="755.27" cy="195.85" r="54.99" transform="translate(366.51 872.36) rotate(-74.65)"/><circle class="cls-65" cx="755.27" cy="195.85" r="42.61" transform="translate(431.75 905.87) rotate(-80.04)"/><path class="cls-64" d="M721.24,213.73a42.62,42.62,0,0,1,42-59.73,42.61,42.61,0,1,0-11,84.35A42.55,42.55,0,0,1,721.24,213.73Z"/><path class="cls-64" d="M770.24,234.45a44.89,44.89,0,0,1-17.87,3.85,43.67,43.67,0,0,0,7.14,0,42.62,42.62,0,0,0,34.62-60.93A45,45,0,0,1,770.24,234.45Z"/><path class="cls-64" d="M768.44,214.17l2.79,6.31-5.64,2.5-2.72-6.15c-5.73,2.13-11.86,2.75-16,1.7l.06-8.26a24.93,24.93,0,0,0,12.71-.83L755.44,200c-6.93,1.25-14.85,2.25-18.41-5.81-2.65-6-.57-13,7.89-18L742.15,170l5.64-2.49,2.72,6.15a27.82,27.82,0,0,1,13-1.63l.25,8.19a25.11,25.11,0,0,0-9.93.88l4.24,9.59c6.91-1.3,14.71-2.26,18.23,5.69C778.86,202.21,776.82,209.18,768.44,214.17Zm-16.66-22.44-3.54-8c-2.69,2-3.16,4.16-2.33,6S749,192,751.78,191.73Zm15.71,9.3c-.88-2-3-2.32-5.78-2.09l3.44,7.78C767.69,204.85,768.29,202.84,767.49,201Z"/><circle class="cls-64" cx="132.94" cy="289.57" r="48.55" transform="translate(-24.42 12.51) rotate(-4.94)"/><circle class="cls-65" cx="132.94" cy="285.36" r="48.55" transform="translate(-181.82 290.61) rotate(-65.98)"/><circle class="cls-65" cx="132.94" cy="285.36" r="37.61" transform="translate(-23.54 12.2) rotate(-4.83)"/><path class="cls-64" d="M105.58,265.29a37.61,37.61,0,0,1,63.65,10.2,37.61,37.61,0,1,0-71.18,23.92A37.57,37.57,0,0,1,105.58,265.29Z"/><path class="cls-64" d="M108.11,312.18a39.67,39.67,0,0,1-10-12.69,38,38,0,0,0,2.78,5.66A37.59,37.59,0,0,0,162.66,309,39.73,39.73,0,0,1,108.11,312.18Z"/><path class="cls-64" d="M123.51,302.9l-3.93,4.66-4.16-3.51,3.82-4.53c-3.91-3.73-6.77-8.35-7.56-12.07l6.57-3.15a22,22,0,0,0,5.59,9.76l5.86-6.95c-3.68-5-7.54-10.91-2.52-16.86,3.72-4.41,10.11-5.5,17.32-.7l3.9-4.62,4.16,3.51L148.73,273a24.55,24.55,0,0,1,6.31,9.66L148.65,286a22.28,22.28,0,0,0-4.55-7.53l-6,7.07c3.71,5,7.49,10.8,2.54,16.67C137,306.54,130.71,307.62,123.51,302.9ZM134.85,281l5-5.91c-2.63-1.36-4.52-.89-5.68.49S133.51,278.87,134.85,281Zm-1.29,16.07c1.23-1.46.69-3.27-.58-5.4l-4.84,5.75C130.61,298.7,132.44,298.39,133.56,297.06Z"/><circle class="cls-64" cx="549.95" cy="131.49" r="66.53" transform="translate(-9.52 49.47) rotate(-5.11)"/><circle class="cls-65" cx="549.95" cy="125.72" r="66.53" transform="translate(-8.56 46.27) rotate(-4.78)"/><circle class="cls-65" cx="549.95" cy="125.72" r="51.54" transform="matrix(0.57, -0.82, 0.82, 0.57, 134.42, 507.27)"/><path class="cls-64" d="M512.45,98.22a51.55,51.55,0,0,1,87.23,14A51.54,51.54,0,1,0,502.13,145,51.49,51.49,0,0,1,512.45,98.22Z"/><path class="cls-64" d="M515.93,162.47a54.2,54.2,0,0,1-13.67-17.38,52.52,52.52,0,0,0,3.82,7.75,51.53,51.53,0,0,0,84.6,5.3A54.44,54.44,0,0,1,515.93,162.47Z"/><path class="cls-64" d="M537,149.75l-5.39,6.39-5.7-4.81,5.24-6.21c-5.36-5.11-9.29-11.44-10.36-16.54l9-4.31a30.24,30.24,0,0,0,7.66,13.37l8-9.52c-5-6.88-10.32-15-3.45-23.11,5.1-6,13.87-7.53,23.74-1l5.34-6.33,5.7,4.81-5.24,6.21c4,4,7.19,8.6,8.65,13.24l-8.77,4.61a30.58,30.58,0,0,0-6.22-10.32l-8.18,9.7c5.08,6.82,10.27,14.79,3.49,22.84C555.56,154.74,546.89,156.22,537,149.75Zm15.54-30,6.83-8.09c-3.6-1.87-6.19-1.22-7.78.66S550.74,116.82,552.57,119.73Zm-1.77,22c1.68-2,.94-4.47-.79-7.4l-6.64,7.87C546.75,144,549.26,143.57,550.8,141.75Z"/><path class="cls-63" d="M1298.83,391.8s-2.1,17,4.05,23.82-26.63,21.09-26.63,21.09,4.37-11.1,3.61-30.62C1279.59,399,1298.83,391.8,1298.83,391.8Z"/><path class="cls-66" d="M1298.83,391.8s-2.1,17,4.05,23.82-26.63,21.09-26.63,21.09,4.37-11.1,3.61-30.62C1279.59,399,1298.83,391.8,1298.83,391.8Z"/><path class="cls-63" d="M1295.1,365.28c-8-3.26-15.45-1.65-22.54,7.45-4.24,5.44-3.27,12.37-6.42,15-2.08,1.75-3.1,1.09-2.67,2.5a4.47,4.47,0,0,0,2.61,2.6s-.55,12.94,6.37,17.13c6.23,3.76,20.23,2.14,26.64-6.93C1303,397.48,1313.46,372.76,1295.1,365.28Z"/><path class="cls-66" d="M1295.1,365.28a19.73,19.73,0,0,0-6.56-1.52c11,8.32,6.77,29.59,3.74,34.66-5.06,8.47-13.71,12.8-20.31,11.22.16.11.31.24.48.35,6.23,3.76,18.74,2.45,26.13-6.34C1303,398.43,1313.46,372.76,1295.1,365.28Z"/><path class="cls-5" d="M1275.13,352.17s4.32,3.73,6.38,2.58,8.61-2.59,13.22-.43c6.24,2.92,4.82,5.53,6.5,5.57,7.25.17,14.61,5.37,15.69,13.49,1.48,11-6.09,21.9-10.93,27.9a29.43,29.43,0,0,0-4.33,8.25s-9.48-5.33-3.62-22c1.62-4.6.6-5.84-.27-3.76-1.29,3.06-2.49,3.12-2.49,3.12.13-.52-1.15-13.34-9-13.11a36.65,36.65,0,0,1-6.68-.07c-7.42-1.1-14.6-4.79-12.15-8.39a3.06,3.06,0,0,1,.35-.37,9.53,9.53,0,0,1-1.92-3.21C1263.6,354.85,1268.39,347.58,1275.13,352.17Z"/><path class="cls-67" d="M1281.05,697.61l-.48,6.55a11.06,11.06,0,0,0,1.21,5.9c1.53,2.94,3.61,9.15,2.65,11.21-1.45,3.14-42.64,3-43.85,1.1s1.92-2.36,18.6-9c5.33-2.13,5-11.85,5-11.85Z"/><path class="cls-68" d="M1281.78,710.06a11.06,11.06,0,0,1-1.21-5.9l.48-6.55-4,.91-.23,3.17a11,11,0,0,0,1.21,5.89c1.53,2.94,1.19,7.7.24,9.76-1.19,2.57-26.58,4.41-37.3,3.41-.76.55-.81,1-.43,1.62,1.21,1.93,42.4,2,43.85-1.1C1285.39,719.21,1283.31,713,1281.78,710.06Z"/><path class="cls-67" d="M1359.35,686.59l5.6,7.81s9,4.46,9.93,7.63c.86,3-7.45,10.4-13.31,16.64a14.69,14.69,0,0,1-10,4.62c-6,.29-12.57.59-13.38-.33-1-1.19,3.64-3.24,8-6a10.65,10.65,0,0,0,4.58-12l-3.1-10.54Z"/><path class="cls-68" d="M1374.88,702c-.91-3.17-9.93-7.63-9.93-7.63l-5.6-7.81-3.28,2.19,3.32,4.63s9,4.46,9.93,7.63c.85,3-7.46,10.4-13.32,16.64a14.65,14.65,0,0,1-10,4.62c-2.74.13-5.58.26-8,.28a.57.57,0,0,0,.13.38c.81.92,7.35.62,13.38.33a14.69,14.69,0,0,0,10-4.62C1367.43,712.43,1375.74,705,1374.88,702Z"/><path class="cls-65" d="M1254.59,520.37s-9.77,71.06-8.92,94.86c.83,23.33,16.54,93.14,16.54,93.14l19.87-.17s13.06-67,2.16-90.38c-7.58-16.23,12.84-48,12.78-75.63,0-14.24-2.06-19.39-2.06-19.39Z"/><path class="cls-69" d="M1254.59,520.37s-9.77,71.06-8.92,94.86c.83,23.33,16.54,92.8,16.54,92.8l19.87-.18s13.06-66.66,2.16-90c-7.58-16.23,12.84-48,12.78-75.63,0-14.24-2.06-19.39-2.06-19.39Z"/><path class="cls-70" d="M1280.88,544.53s-2.34,31-7.61,50.08c-4.23,15.28,8.17,29.07,5,36.25-2.79,6.4-9.43,18-7,16.44s5.52-8,7-4.81-9,22.47-5,19.66,6.29-4.81,5,6.82-4.55,38.26-4.55,38.26v1l8.32-.07s13.06-67,2.16-90.38c-5.09-10.9,2.45-28.8,7.93-47.76Z"/><path class="cls-71" d="M1278.31,516.9s3.75,42.82,6.42,62.79c2.49,18.6,6.73,26.34,8.79,33.85a41.85,41.85,0,0,0,5,11.37l50,79.18,17.77-11.21s-14.65-58.7-27.43-71.9c-10.32-10.65-14.64-14.55-14.64-29.6,0-17.94,3.53-63.19-5.71-71S1278.31,516.9,1278.31,516.9Z"/><path class="cls-72" d="M1301.52,527.33c9.8,7.1,11.45,52.48,12.81,70.37,1.14,15,7.48,18.57,18.57,28.4,13.48,11.95,29.77,66.35,30.37,68.22l3.11-1.44s-14.65-58.7-27.43-71.9c-10.32-10.65-14.64-14.55-14.64-29.6,0-17.94,3.53-63.19-5.71-71S1296.86,524,1301.52,527.33Z"/><path class="cls-5" d="M1278.92,421.24s9.44,2.58,21.18-10c0,0,5.46.67,13.17,22.53,6.34,18,9.31,95.56,9.31,95.56s-51.74,19.7-70.72,2.8c0,0,10.62-75.84,11.52-79.6C1265.39,444.06,1274.12,428.74,1278.92,421.24Z"/><path class="cls-73" d="M1295.17,449.07l6,15.62s-24.93,24.28-44,26.43l4-26.66Z"/><path class="cls-63" d="M1219.13,451.71c15.46.73,2.11-8-1.4-9.2-11.56-3.86-19.6-8-20-10.14-.7-3.36-6.6-9.46-9.47-12a12,12,0,0,1-3.5-4.71c-.69-1.95-2.21-2.86-2.33-.69s.45,3.36,2.47,6.19c1,1.37.8,1.79.51,2.09-.49.52-3.44-1.85-6.48-5.11s-5.06-5.26-6.7-5.48c-1.27-.17-2.29-.27-.37,2.07s7,6,6.55,7.27-3.82-2-5.65-4-3.25-5.23-4.66-4.47c-1,.53-.84,1.89,1.32,4.84s7.64,6.24,7,7.11-5.69-3.67-6.75-5-2.55-1.15-1.23,1.6,3.4,3.74,5.92,5.79,4.12,2.54,3.84,3.37-2.08.17-4.13-2-3.82-4.09-4-2.61,1.77,4.7,6,7.82,9.58,7.38,14.34,7.16c0,0,2.49,2.86,14,15,27.5,29.05,14.11,2.5,14.85-4.87Z"/><path class="cls-5" d="M1282,428.07s-26.77,24.19-37.06,24.13c-12.47-.07-43.94-21.39-43.94-21.39l-9.93,15.8s32.3,33.16,50.83,35.18c14.37,1.57,49.27-11.87,59.48-17.15C1316.36,456.87,1304.78,414.56,1282,428.07Z"/><polygon class="cls-73" points="1282.65 427.53 1268.85 438.97 1278.1 428.55 1282.65 427.53"/><path class="cls-63" d="M1294.08,383.94s1.73-4.61,6-1.85c3.55,2.29-.4,12.63-7.11,9.71"/></g></g></g></svg>