<?xml version="1.0" encoding="utf-8"?>
<!-- Generator: Adobe Illustrator 21.0.0, SVG Export Plug-In . SVG Version: 6.00 Build 0)  -->
<svg version="1.1" id="Warstwa_1" xmlns="http://www.w3.org/2000/svg" xmlns:xlink="http://www.w3.org/1999/xlink" x="0px" y="0px"
	 viewBox="0 0 1000 1000" style="enable-background:new 0 0 1000 1000;" xml:space="preserve">
<style type="text/css">
	.st0{fill:url(#SVGID_1_);}
</style>
<linearGradient id="SVGID_1_" gradientUnits="userSpaceOnUse" x1="-480.5322" y1="495.2677" x2="1515.6414" y2="506.1559" gradientTransform="matrix(-1 0 0 1 1002.2155 0)">
	<stop  offset="0" style="stop-color:#1E00CE"/>
	<stop  offset="1" style="stop-color:#00FFEC"/>
</linearGradient>
<path class="st0" d="M88.8,694.3c75.4,153.7,237.5,257.5,422.1,247C730.6,928.8,910,752,925.4,532.5
	C943.5,274.8,739.1,59.4,485.2,59.4c-174.4,0-325.5,101.8-397.1,249c-5.4,11-16.8,17.8-29,17.8l-37.8,0
	C95.5,129.4,291.6-8.2,517.1,6c244.9,15.4,444,211.9,462.4,456.5c21.9,290.5-208.3,534-494.3,534c-211.5,0-392.4-133.2-463.5-320.1
	h38C72,676.4,83.4,683.3,88.8,694.3z"/>
</svg>
