<?xml version="1.0" encoding="utf-8"?>
<!-- Generator: Adobe Illustrator 21.0.0, SVG Export Plug-In . SVG Version: 6.00 Build 0)  -->
<svg version="1.1" id="Warstwa_1" xmlns="http://www.w3.org/2000/svg" xmlns:xlink="http://www.w3.org/1999/xlink" x="0px" y="0px"
	 viewBox="0 0 1000 1000" style="enable-background:new 0 0 1000 1000;" xml:space="preserve">
<style type="text/css">
	.st0{fill:url(#SVGID_1_);}
</style>
<linearGradient id="SVGID_1_" gradientUnits="userSpaceOnUse" x1="-480.5322" y1="495.2677" x2="1515.6414" y2="506.1559">
	<stop  offset="0" style="stop-color:#1E00CE"/>
	<stop  offset="1" style="stop-color:#00FFEC"/>
</linearGradient>
<path class="st0" d="M913.4,694.3C838.1,848,676,951.8,491.3,941.3C271.6,928.8,92.3,752,76.8,532.5C58.7,274.8,263.2,59.4,517,59.4
	c174.4,0,325.5,101.8,397.1,249c5.4,11,16.8,17.8,29,17.8l37.8,0C906.7,129.4,710.6-8.2,485.1,6C240.2,21.4,41.1,217.8,22.7,462.5
	C0.8,753,231,996.5,517,996.5c211.5,0,392.4-133.2,463.5-320.1h-38C930.2,676.4,918.9,683.3,913.4,694.3z"/>
</svg>
