<?xml version="1.0" encoding="utf-8"?>
<!-- Generator: Adobe Illustrator 21.0.0, SVG Export Plug-In . SVG Version: 6.00 Build 0)  -->
<svg version="1.1" id="Warstwa_1" xmlns="http://www.w3.org/2000/svg" xmlns:xlink="http://www.w3.org/1999/xlink" x="0px" y="0px"
	 viewBox="0 0 400 400" style="enable-background:new 0 0 400 400;" xml:space="preserve">
<style type="text/css">
	.st0{fill:url(#SVGID_1_);}
	.st1{fill:#FFFFFF;}
</style>
<linearGradient id="SVGID_1_" gradientUnits="userSpaceOnUse" x1="37.9165" y1="249.9823" x2="390.2441" y2="363.3185" gradientTransform="matrix(1 0 0 1 0 -100)">
	<stop  offset="0" style="stop-color:#0BA1E1"/>
	<stop  offset="1" style="stop-color:#116EDB"/>
</linearGradient>
<path class="st0" d="M397.1,201.7c0,49.9-6.5,91.7-49.2,130.3c-40.5,36.7-89.1,66.9-148,66.9c-60.8,0-133-35.2-165-81.6
	c-25.5-37-32.2-67.5-32.2-115.6c0-45.9,8.8-95.4,38-126.4C80.9,32.6,133.1-4.8,199.9,4.5c48.6,6.8,104.4,18.5,138.9,48.2
	C380.9,88.9,397.1,141.9,397.1,201.7z"/>
<g>
	<path class="st1" d="M290.2,101h-179c-10.2,0-18.6,8.3-18.6,18.5v16.9v102.1v16.9c0,10.2,8.3,18.6,18.6,18.6h58.7v12.8h-22.8
		c-3.7,0-6.8,3-6.8,6.8c0,3.7,3,6.8,6.8,6.8h29.6h48h29.6c3.7,0,6.8-3,6.8-6.8c0-3.7-3-6.8-6.8-6.8h-22.8v-12.8h58.8
		c10.2,0,18.5-8.3,18.5-18.6v-16.9V136.5v-16.9C308.8,109.3,300.4,101,290.2,101z M111.2,114.5h179c2.8,0,5,2.2,5,5v10.2h-189v-10.2
		C106.2,116.8,108.4,114.5,111.2,114.5z M295.2,231.8h-189v-88.6h189V231.8z M217.9,286.9h-34.4v-12.8h34.4V286.9z M290.2,260.5
		h-65.5h-48h-65.5c-2.8,0-5-2.2-5-5v-10.2h189v10.2C295.2,258.3,293,260.5,290.2,260.5z"/>
	<path class="st1" d="M181.6,213.4c1.7,0,3.5-0.7,4.8-2l38.2-38.2c2.6-2.6,2.6-6.9,0-9.6c-2.6-2.6-6.9-2.6-9.6,0l-38.2,38.2
		c-2.6,2.6-2.6,6.9,0,9.6C178.1,212.7,179.8,213.4,181.6,213.4z"/>
	<path class="st1" d="M157.9,211.4c1.3,1.3,3.1,2,4.8,2c1.7,0,3.5-0.7,4.8-2c2.6-2.6,2.6-6.9,0-9.6l-14-14l14.1-14.1
		c2.6-2.6,2.6-6.9,0-9.6c-2.6-2.6-6.9-2.6-9.6,0L139.1,183c-2.6,2.6-2.6,6.9,0,9.6L157.9,211.4z"/>
	<path class="st1" d="M233.9,211.4c1.3,1.3,3.1,2,4.8,2c1.7,0,3.5-0.7,4.8-2l18.9-18.9c1.3-1.3,2-3,2-4.8c0-1.8-0.7-3.5-2-4.8
		l-18.8-18.8c-2.6-2.6-6.9-2.6-9.6,0c-2.6,2.6-2.6,6.9,0,9.6l14,14l-14.1,14.1C231.2,204.5,231.2,208.8,233.9,211.4z"/>
</g>
</svg>
