<?xml version="1.0" encoding="utf-8"?>
<!-- Generator: Adobe Illustrator 21.0.0, SVG Export Plug-In . SVG Version: 6.00 Build 0)  -->
<svg version="1.1" id="Warstwa_1" xmlns="http://www.w3.org/2000/svg" xmlns:xlink="http://www.w3.org/1999/xlink" x="0px" y="0px"
	 viewBox="0 0 400 400" style="enable-background:new 0 0 400 400;" xml:space="preserve">
<style type="text/css">
	.st0{fill:url(#SVGID_1_);}
	.st1{fill:#FFFFFF;}
</style>
<linearGradient id="SVGID_1_" gradientUnits="userSpaceOnUse" x1="38.3066" y1="98.1569" x2="390.2999" y2="211.3854" gradientTransform="matrix(1 0 0 1 0 52)">
	<stop  offset="0" style="stop-color:#0BA1E1"/>
	<stop  offset="1" style="stop-color:#116EDB"/>
</linearGradient>
<path class="st0" d="M397.1,202c0,49.8-6.6,91.6-49.2,130.2c-40.5,36.7-89,66.8-147.8,66.8c-60.8,0-132.9-35.2-164.9-81.6
	C9.8,280.4,3,249.9,3,201.8c0-45.8,8.7-95.4,37.9-126.3c40.1-42.7,92.3-80,159-70.9c48.5,6.8,104.3,18.4,138.9,48.1
	C381,89.2,397.1,142.2,397.1,202z"/>
<g>
	<g>
		<path class="st1" d="M179.2,253.4c0-1.8,0.3-3.6,1-5.1c0.7-1.6,1.6-2.9,2.8-4.1c1.2-1.1,2.6-2,4.3-2.7c1.7-0.6,3.6-1,5.7-1
			c2.1,0,4,0.3,5.8,0.9c1.7,0.6,3.2,1.5,4.4,2.7c1.2,1.1,2.1,2.5,2.8,4.1c0.7,1.6,1,3.3,1,5.1c0,1.8-0.3,3.5-1,5.1
			c-0.7,1.5-1.6,2.9-2.8,4c-1.2,1.2-2.7,2-4.4,2.7c-1.7,0.6-3.6,1-5.8,1c-2.1,0-4-0.3-5.7-0.9c-1.7-0.6-3.1-1.5-4.3-2.7
			c-1.2-1.1-2.1-2.5-2.8-4C179.6,256.9,179.2,255.3,179.2,253.4z M203.3,229.5l-20.6,0.1l-3.1-70.5L206,159L203.3,229.5z"/>
	</g>
</g>
<path class="st1" d="M255.2,180.2c2.6-8.1,5.5-23.3,8.2-31.6c0.6-1.7-1.1-3.3-2.8-2.6l-9.6,4l0.6-24.2c0-1-1.5-1.2-1.7-0.2
	l-9.8,38.4c-0.3,1.1,0.9,2,1.9,1.5l10.3-5.8l0.9,20.4C253.3,181.1,254.9,181.3,255.2,180.2z"/>
<path class="st1" d="M129.1,261c5-13.6,10.8-39.3,16-53.3c1.1-2.9-1.7-5.7-4.6-4.6l-16.6,6.1l2.5-41.2c0.1-1.8-2.4-2.2-2.9-0.5
	l-19.1,64.6c-0.6,1.9,1.4,3.5,3.2,2.6l17.9-9.3l0.2,34.8C125.8,262.3,128.5,262.8,129.1,261z"/>
<path class="st1" d="M281.9,257.3L210,127.8c-3.5-6.4-10-10.2-17.3-10.1c-7.3,0-13.7,3.8-17.2,10.2l-41.8,76.3l7.8-2.9
	c2.1-0.8,4.2,0.1,5.2,1.7l38.3-69.9c1.6-2.9,4.5-4.6,7.8-4.6s6.2,1.7,7.8,4.6l71.9,129.5c1.5,2.8,1.5,6.1-0.1,8.8
	c-1.6,2.7-4.5,4.4-7.6,4.4l-143.2,0.4c-3.2,0-6-1.6-7.6-4.3c-1.6-2.7-1.7-6-0.2-8.8l9.5-17.3l-0.1-16.9l-4.2,2.2l-14.7,26.8
	c-3.4,6.2-3.3,13.5,0.3,19.5c3.6,6.1,9.9,9.7,17,9.6l143.2-0.4c7,0,13.4-3.7,16.9-9.7C285.3,270.8,285.4,263.5,281.9,257.3z"/>
</svg>
