<?xml version="1.0" encoding="utf-8"?>
<!-- Generator: Adobe Illustrator 21.0.0, SVG Export Plug-In . SVG Version: 6.00 Build 0)  -->
<svg version="1.1" id="Warstwa_1" xmlns="http://www.w3.org/2000/svg" xmlns:xlink="http://www.w3.org/1999/xlink" x="0px" y="0px"
	 viewBox="0 0 24 13.2" style="enable-background:new 0 0 24 13.2;" xml:space="preserve">
<style type="text/css">
	.st0{fill:#DE0E5C;}
</style>
<polygon class="st0" points="4.4,2.9 3,2.9 3,5.9 0,5.9 0,7.3 3,7.3 3,10.3 4.4,10.3 4.4,7.3 7.4,7.3 7.4,5.9 4.4,5.9 "/>
<g>
	<path class="st0" d="M9.6,6.2C9,5.6,8.7,4.7,8.7,3.6c0-1.1,0.3-2,0.9-2.6c0.6-0.7,1.4-1,2.3-1c1,0,1.7,0.3,2.3,1
		c0.6,0.7,0.9,1.5,0.9,2.6c0,1.1-0.3,2-0.9,2.6c-0.6,0.7-1.4,1-2.3,1C11,7.2,10.2,6.9,9.6,6.2z M12.9,5.1c0.2-0.3,0.4-0.9,0.4-1.5
		c0-0.7-0.1-1.2-0.4-1.5c-0.2-0.3-0.6-0.5-1-0.5c-0.4,0-0.7,0.2-1,0.5c-0.2,0.4-0.4,0.9-0.4,1.5c0,0.7,0.1,1.2,0.4,1.5
		c0.2,0.4,0.6,0.5,1,0.5C12.3,5.7,12.7,5.5,12.9,5.1z M19.7,0.1h2.2l-8.9,13h-2.2L19.7,0.1z M19.1,12.9c-0.5-0.3-0.9-0.7-1.1-1.3
		c-0.3-0.5-0.4-1.2-0.4-1.9c0-0.7,0.1-1.4,0.4-1.9c0.3-0.5,0.7-1,1.1-1.3c0.5-0.3,1-0.4,1.7-0.4c1,0,1.7,0.3,2.3,1
		C23.7,7.8,24,8.7,24,9.7c0,1.1-0.3,2-0.9,2.6c-0.6,0.7-1.4,1-2.3,1C20.1,13.3,19.6,13.2,19.1,12.9z M21.8,11.3
		c0.2-0.4,0.4-0.9,0.4-1.5c0-0.7-0.1-1.2-0.4-1.5c-0.2-0.4-0.6-0.5-1-0.5c-0.4,0-0.7,0.2-1,0.5c-0.2,0.3-0.4,0.9-0.4,1.5
		c0,0.7,0.1,1.2,0.4,1.5c0.2,0.3,0.6,0.5,1,0.5C21.2,11.8,21.5,11.6,21.8,11.3z"/>
</g>
</svg>
