<?xml version="1.0" encoding="utf-8"?>
<!-- Generator: Adobe Illustrator 21.0.0, SVG Export Plug-In . SVG Version: 6.00 Build 0)  -->
<svg version="1.1" id="Warstwa_1" xmlns="http://www.w3.org/2000/svg" xmlns:xlink="http://www.w3.org/1999/xlink" x="0px" y="0px"
	 viewBox="0 0 400 400" style="enable-background:new 0 0 400 400;" xml:space="preserve">
<style type="text/css">
	.st0{fill:url(#SVGID_1_);}
	.st1{fill:#FFFFFF;}
</style>
<linearGradient id="SVGID_1_" gradientUnits="userSpaceOnUse" x1="37.9165" y1="149.9823" x2="390.2441" y2="263.3185">
	<stop  offset="0" style="stop-color:#0BA1E1"/>
	<stop  offset="1" style="stop-color:#116EDB"/>
</linearGradient>
<path class="st0" d="M397.1,201.7c0,49.9-6.5,91.7-49.2,130.3c-40.5,36.7-89.1,66.9-148,66.9c-60.8,0-133-35.2-165-81.6
	c-25.5-37-32.2-67.5-32.2-115.6c0-45.9,8.8-95.4,38-126.4C80.9,32.6,133.1-4.8,199.9,4.5c48.6,6.8,104.4,18.5,138.9,48.2
	C380.9,88.9,397.1,141.9,397.1,201.7z"/>
<g>
	<g>
		<ellipse class="st1" cx="202.1" cy="130.4" rx="91.7" ry="23.7"/>
		<path class="st1" d="M200,267.8c-20.3,0-39-1.7-54.2-4.6v13.1c0,2.2-1.8,4.1-4.1,4.1c-2.2,0-4.1-1.8-4.1-4.1v-14.8
			c-1.4-0.3-3-0.8-4.9-1.3v10.2c0,1.7-1.4,3-3,3c-1.7,0-3-1.4-3-3v-12.2c-7.3-2.7-15.3-6.7-18.5-12.1c0,0.2-0.1,0.4-0.1,0.7v19.3
			c0,4.2,5.6,8.9,15.5,13.1c0,0,24.3,12.1,76.3,12.6c23.6,0.2,46.6-3,64.9-8.3c16.8-5,26.9-11.3,26.9-16.9v-19.7
			c0-0.2,0-0.4-0.1-0.7C287.7,258.2,248.1,267.8,200,267.8z"/>
	</g>
</g>
<g>
	<path class="st1" d="M140.4,206.4h-18.2v17.8h-13.5v-17.8H90.6v-12.8h18.1v-17.8h13.5v17.8h18.2V206.4z"/>
</g>
<g>
	<path class="st1" d="M151,182.8c15.5,3.2,33.1,5.1,51.1,4.9c52-0.5,76.3-12.6,76.3-12.6c9.9-4.2,15.5-8.8,15.5-13.1v-19.3
		c0-0.2,0-0.4-0.1-0.7c-3.2,5.3-11.2,9.4-18.5,12.1v12.2c0,1.7-1.4,3-3,3c-1.7,0-3-1.4-3-3v-10.2c-1.8,0.6-3.5,1-4.9,1.3v14.8
		c0,2.2-1.8,4.1-4.1,4.1c-2.2,0-4.1-1.8-4.1-4.1v-13.1c-15.2,2.9-33.9,4.6-54.2,4.6c-48.2,0-87.7-9.6-91.8-21.8
		c0,0.2-0.1,0.4-0.1,0.7V161c1.7-0.2,3.5-0.4,5.3-0.4C131.1,160.6,144.6,169.7,151,182.8z"/>
	<path class="st1" d="M311.2,194.6c-3.2,5.3-11.2,9.4-18.5,12.1v12.2c0,1.7-1.4,3-3,3c-1.7,0-3-1.4-3-3v-10.2
		c-1.8,0.6-3.5,1-4.9,1.3v14.8c0,2.2-1.8,4.1-4.1,4.1c-2.2,0-4.1-1.8-4.1-4.1v-13.1c-15.2,2.9-33.9,4.6-54.2,4.6
		c-25.7,0-48.9-2.7-65.6-7.1c-1.7,7.2-5.4,13.6-10.5,18.7c3.3,1.3,7,2.6,11.1,3.9c18.3,5.4,41.4,8.6,64.9,8.3
		c52-0.5,76.3-12.6,76.3-12.6c9.9-4.2,15.5-8.8,15.5-13.1v-19.3C311.3,195,311.2,194.8,311.2,194.6z"/>
	<path class="st1" d="M219.6,206.9c50.6,0,91.7-10.6,91.7-23.7c0-4.7-5.2-9.1-14.3-12.7v0.6c0,4.4-6.2,9.3-17.1,13.7
		c0,0-23.8,10.6-74.8,12c-17.9,0.5-35.6-1.5-51-4.8c0.6,2.6,0.8,5.3,0.9,8.1C171.5,204.3,194.3,206.9,219.6,206.9z"/>
	<path class="st1" d="M110.2,239.1c8.1,11,45.3,19.3,90,19.3c49.5,0,89.8-10.2,91.6-22.9c-3.5,1.5-7.6,3-12.2,4.3
		c-18.3,5.4-41.4,9-64.9,8.3c-51-1.4-74.8-12-74.8-12c-1.7-0.7-3.2-1.3-4.6-2c-5.8,3.4-12.6,5.3-19.8,5.3
		C113.7,239.5,111.9,239.4,110.2,239.1z"/>
</g>
</svg>
