<svg xmlns="http://www.w3.org/2000/svg" xmlns:xlink="http://www.w3.org/1999/xlink" viewBox="0 0 1076.11 855.7"><defs><style>.cls-1{fill:#10273b;}.cls-2,.cls-5{fill:#008dff;}.cls-3{fill:#e0eeff;}.cls-11,.cls-12,.cls-4,.cls-9{fill:#fff;}.cls-4{opacity:0.5;}.cls-5{opacity:0.58;}.cls-6{fill:url(#Áåçûìÿííûé_ãðàäèåíò_79);}.cls-7{fill:url(#linear-gradient);}.cls-8{fill:url(#linear-gradient-2);}.cls-10{fill:#bdd0fb;}.cls-11{opacity:0.56;}.cls-12{opacity:0.64;}.cls-13{fill:url(#Áåçûìÿííûé_ãðàäèåíò_6);}.cls-14{fill:#0080ff;}.cls-15{fill:url(#Áåçûìÿííûé_ãðàäèåíò_6-2);}.cls-16{fill:url(#Áåçûìÿííûé_ãðàäèåíò_6-3);}.cls-17{fill:url(#linear-gradient-3);}.cls-18{fill:url(#Áåçûìÿííûé_ãðàäèåíò_6-4);}.cls-19{fill:#091a26;}.cls-20{fill:url(#Áåçûìÿííûé_ãðàäèåíò_6-5);}.cls-21{fill:url(#Áåçûìÿííûé_ãðàäèåíò_6-6);}.cls-22{fill:url(#Áåçûìÿííûé_ãðàäèåíò_6-7);}.cls-23{fill:url(#Áåçûìÿííûé_ãðàäèåíò_6-8);}.cls-24{fill:url(#linear-gradient-4);}</style><linearGradient id="Áåçûìÿííûé_ãðàäèåíò_79" x1="163.74" y1="504.83" x2="922.28" y2="504.83" gradientUnits="userSpaceOnUse"><stop offset="0" stop-color="#ece8ff"/><stop offset="1" stop-color="#fefefe"/></linearGradient><linearGradient id="linear-gradient" x1="906.76" y1="515.37" x2="911.05" y2="515.37" gradientUnits="userSpaceOnUse"><stop offset="0" stop-color="#dae3fe"/><stop offset="1" stop-color="#e9effd"/></linearGradient><linearGradient id="linear-gradient-2" x1="656.51" y1="377.1" x2="913.5" y2="377.1" xlink:href="#linear-gradient"/><linearGradient id="Áåçûìÿííûé_ãðàäèåíò_6" x1="-1547.05" y1="516.49" x2="-1485.62" y2="679.29" gradientTransform="translate(2234.16)" gradientUnits="userSpaceOnUse"><stop offset="0.02" stop-color="#ffac85"/><stop offset="1" stop-color="#ffa378"/></linearGradient><linearGradient id="Áåçûìÿííûé_ãðàäèåíò_6-2" x1="18705.49" y1="820.83" x2="18722.79" y2="820.83" gradientTransform="matrix(-1, 0, 0, 1, 19609.74, 0)" xlink:href="#Áåçûìÿííûé_ãðàäèåíò_6"/><linearGradient id="Áåçûìÿííûé_ãðàäèåíò_6-3" x1="19397.03" y1="819.12" x2="19412.47" y2="819.12" gradientTransform="matrix(-1, 0, 0, 1, 20202.29, 0)" xlink:href="#Áåçûìÿííûé_ãðàäèåíò_6"/><linearGradient id="linear-gradient-3" x1="19435.43" y1="581.68" x2="19372.22" y2="663.4" gradientTransform="matrix(-1, 0, 0, 1, 20202.29, 0)" gradientUnits="userSpaceOnUse"><stop offset="0" stop-color="#4f52ff"/><stop offset="1" stop-color="#4042e2"/></linearGradient><linearGradient id="Áåçûìÿííûé_ãðàäèåíò_6-4" x1="19443.14" y1="435.08" x2="19450.75" y2="388.15" gradientTransform="matrix(-1, 0, 0, 1, 20202.29, 0)" xlink:href="#Áåçûìÿííûé_ãðàäèåíò_6"/><linearGradient id="Áåçûìÿííûé_ãðàäèåíò_6-5" x1="-1507.05" y1="-109.27" x2="-1530.5" y2="-214.11" xlink:href="#Áåçûìÿííûé_ãðàäèåíò_6"/><linearGradient id="Áåçûìÿííûé_ãðàäèåíò_6-6" x1="-1590.26" y1="532.8" x2="-1528.83" y2="695.6" xlink:href="#Áåçûìÿííûé_ãðàäèåíò_6"/><linearGradient id="Áåçûìÿííûé_ãðàäèåíò_6-7" x1="-1397.65" y1="541.43" x2="-1327.74" y2="642.41" xlink:href="#Áåçûìÿííûé_ãðàäèåíò_6"/><linearGradient id="Áåçûìÿííûé_ãðàäèåíò_6-8" x1="6811.74" y1="-500.76" x2="6762.99" y2="-436.27" gradientTransform="matrix(-0.88, -0.48, -0.48, 0.88, 6473.32, 4052.56)" xlink:href="#Áåçûìÿííûé_ãðàäèåíò_6"/><linearGradient id="linear-gradient-4" x1="1022.8" y1="-92.6" x2="1144.77" y2="-138.66" gradientTransform="translate(-256.89 684.84) rotate(-11.51)" gradientUnits="userSpaceOnUse"><stop offset="0" stop-color="#febbba"/><stop offset="1" stop-color="#ff928e"/></linearGradient></defs><title>Asset 50</title><g id="Layer_2" data-name="Layer 2"><g id="DESIGNED_BY_FREEPIK" data-name="DESIGNED BY FREEPIK"><rect class="cls-1" x="46.65" y="620.52" width="26.88" height="8.6" transform="matrix(0.35, -0.94, 0.94, 0.35, -546.99, 465.22)"/><rect class="cls-1" x="1038.13" y="491.4" width="2.87" height="26.86" transform="translate(85.75 1157.35) rotate(-60.28)"/><rect class="cls-1" x="1017.89" y="273.32" width="43.36" height="8.6" transform="translate(182.68 928.4) rotate(-52.17)"/><rect class="cls-2" x="15.89" y="389.4" width="2.87" height="39.4" transform="translate(-335.59 201.46) rotate(-57.1)"/><rect class="cls-2" x="-3.51" y="407.53" width="39.29" height="2.87" transform="translate(-331.12 192.34) rotate(-55.78)"/><path class="cls-2" d="M946,147.47l-15.68-24.19H964Zm-10.4-21.32,10.56,16.3,12.12-16.3Z"/><path class="cls-3" d="M881.73,734.64c-17.7,18.36-34.44,30.2-47.67,39.55-155.51,110-339.52,77.91-378.63,70.08-57.75-11.56-169.38-33.9-250.08-127.43C83.25,575.34,102.26,352.4,197,205.24,214.29,178.32,305.8,28.92,491.79,5,604.35-9.54,735.56,19.7,830.58,98.15,1030,262.83,1015.83,595.5,881.73,734.64Z"/><path class="cls-2" d="M447.29,585S292.52,262.5,85.1,113.41a21.68,21.68,0,0,0-34.35,16.42C44.74,244.49,59.53,585.08,447.29,585Z"/><path class="cls-4" d="M408.62,570.44a1,1,0,0,1-.89,1.66c-39.92-18-200.09-114.57-303.7-354a.66.66,0,0,1,1.18-.6C134.54,271.87,249.35,470.77,408.62,570.44Z"/><path class="cls-5" d="M510.8,621.84S413.71,224.14,216.69,8.14C203.45-6.38,179.4-.58,174.34,18.41,140.51,145.39,76.54,530.29,510.8,621.84Z"/><path class="cls-4" d="M470.94,596.43a1.08,1.08,0,0,1-1.4,1.65c-40.44-29.65-197-175.6-256.41-468.19a.76.76,0,0,1,1.46-.39C234.59,197.28,316.14,447.16,470.94,596.43Z"/><path class="cls-1" d="M160.52,731.47a13.85,13.85,0,0,0,13.81,13.8h747a13.85,13.85,0,0,0,13.81-13.8l6.22-429.3c0-7.59-8.94-22.41-25.33-21.3L186,262a34.81,34.81,0,0,0-35.72,35.6Z"/><path class="cls-6" d="M174.15,718.23a13.11,13.11,0,0,0,13.07,13.07H903.34a13.11,13.11,0,0,0,13.07-13.07l5.87-389.72c-.69-23.45-21.25-31.88-33.72-31.38L188.85,278.36a24.47,24.47,0,0,0-25.1,25Z"/><path class="cls-7" d="M908.67,533.09h0a1.91,1.91,0,0,1-1.89-1.94l.46-31.61a1.92,1.92,0,0,1,1.91-1.89h0a1.91,1.91,0,0,1,1.89,1.94l-.46,31.61A1.92,1.92,0,0,1,908.67,533.09Z"/><path class="cls-8" d="M909.81,455.64h0a1.92,1.92,0,0,1-1.89-1.94l1.78-121.05c0-7.19-2.22-12.93-6.49-17-8-7.64-20.63-7.25-21.17-7.22l-223.64-6a1.91,1.91,0,0,1-1.86-2,1.83,1.83,0,0,1,2-1.86l223.51,6c1.39-.08,14.87-.32,23.85,8.29,5,4.84,7.63,11.51,7.67,19.81l-1.78,121.09A1.92,1.92,0,0,1,909.81,455.64Z"/><rect class="cls-1" x="125.81" y="743.19" width="846.85" height="41.56" rx="1.73" ry="1.73" transform="translate(1098.48 1527.94) rotate(180)"/><path class="cls-9" d="M782.29,269.45H782a2.6,2.6,0,0,1-2.32-2.85q.21-2,.36-4.07a2.6,2.6,0,1,1,5.18.39q-.16,2.1-.37,4.2A2.6,2.6,0,0,1,782.29,269.45Z"/><path class="cls-9" d="M608.81,420.82h-.09c-2.8-.1-5.63-.27-8.42-.51a2.6,2.6,0,0,1,.44-5.17c2.7.23,5.45.4,8.17.49a2.6,2.6,0,0,1-.09,5.19Zm13.5-.07a2.6,2.6,0,0,1-.12-5.19c2.7-.12,5.45-.31,8.16-.57a2.6,2.6,0,0,1,.49,5.17c-2.8.27-5.63.46-8.41.59Zm-35.19-2.12a2.6,2.6,0,0,1-.43,0c-2.76-.46-5.55-1-8.29-1.6a2.6,2.6,0,1,1,1.11-5.07c2.65.58,5.35,1.1,8,1.55a2.6,2.6,0,0,1-.42,5.16Zm56.84-.28a2.6,2.6,0,0,1-.45-5.15c2.67-.47,5.37-1,8-1.62a2.6,2.6,0,0,1,1.16,5.06c-2.73.62-5.52,1.19-8.27,1.67A2.61,2.61,0,0,1,644,418.35Zm-78.07-4.71a2.6,2.6,0,0,1-.76-.11c-2.67-.82-5.37-1.71-8-2.66a2.6,2.6,0,0,1,1.76-4.89c2.56.92,5.17,1.79,7.76,2.58a2.6,2.6,0,0,1-.76,5.08Zm99.24-.47a2.6,2.6,0,0,1-.78-5.07c2.59-.81,5.2-1.7,7.74-2.64a2.6,2.6,0,1,1,1.8,4.87c-2.63,1-5.31,1.88-8,2.72A2.6,2.6,0,0,1,665.14,413.17ZM545.5,406a2.58,2.58,0,0,1-1.07-.23l-.9-.41c-2.25-1-4.51-2.13-6.7-3.25a2.6,2.6,0,0,1,2.37-4.62c2.13,1.09,4.31,2.15,6.5,3.15l.88.4a2.6,2.6,0,0,1-1.07,5Zm140-.63a2.6,2.6,0,0,1-1.09-5c2.47-1.14,4.94-2.36,7.34-3.62a2.6,2.6,0,1,1,2.41,4.6c-2.47,1.3-5,2.55-7.57,3.73A2.59,2.59,0,0,1,685.48,405.32Zm-159.24-9.6a2.59,2.59,0,0,1-1.36-.39c-2.38-1.47-4.76-3-7.07-4.61a2.6,2.6,0,1,1,2.94-4.28c2.24,1.54,4.55,3,6.86,4.47a2.6,2.6,0,0,1-1.37,4.81Zm178.4-.8a2.6,2.6,0,0,1-1.39-4.79c2.29-1.44,4.59-3,6.82-4.53a2.6,2.6,0,0,1,3,4.25c-2.3,1.61-4.67,3.19-7,4.67A2.59,2.59,0,0,1,704.64,394.92ZM508.46,383.09a2.59,2.59,0,0,1-1.64-.58c-2.17-1.77-4.33-3.62-6.41-5.49a2.6,2.6,0,0,1,3.47-3.86c2,1.82,4.11,3.61,6.22,5.32a2.6,2.6,0,0,1-1.64,4.61Zm213.83-1a2.6,2.6,0,0,1-1.66-4.6c2.09-1.73,4.16-3.54,6.17-5.38a2.6,2.6,0,1,1,3.51,3.83c-2.07,1.9-4.21,3.77-6.37,5.55A2.59,2.59,0,0,1,722.3,382.12ZM492.49,368.25a2.59,2.59,0,0,1-1.89-.81c-1.93-2-3.83-4.15-5.64-6.28a2.6,2.6,0,1,1,3.95-3.37c1.76,2.06,3.6,4.1,5.47,6.09a2.6,2.6,0,0,1-1.89,4.38Zm245.66-1.11a2.6,2.6,0,0,1-1.9-4.36c1.85-2,3.67-4.06,5.42-6.14a2.6,2.6,0,1,1,4,3.34c-1.8,2.15-3.68,4.28-5.59,6.33A2.59,2.59,0,0,1,738.15,367.14Zm13.77-16.92a2.6,2.6,0,0,1-2.11-4.1c1.57-2.21,3.11-4.5,4.57-6.78a2.6,2.6,0,0,1,4.38,2.79c-1.51,2.36-3.09,4.71-4.71,7A2.59,2.59,0,0,1,751.91,350.22Zm11.44-18.55a2.6,2.6,0,0,1-2.29-3.81c1.27-2.4,2.51-4.86,3.66-7.32a2.6,2.6,0,1,1,4.7,2.21c-1.19,2.53-2.46,5.07-3.77,7.54A2.6,2.6,0,0,1,763.36,331.67Zm9-19.87a2.6,2.6,0,0,1-2.43-3.51c1-2.53,1.86-5.13,2.7-7.72a2.6,2.6,0,0,1,4.94,1.59c-.86,2.67-1.8,5.35-2.78,8A2.6,2.6,0,0,1,772.34,311.8ZM778.7,291a2.6,2.6,0,0,1-2.53-3.19c.62-2.64,1.19-5.34,1.68-8a2.6,2.6,0,1,1,5.11.94c-.51,2.75-1.09,5.53-1.73,8.26A2.6,2.6,0,0,1,778.7,291Z"/><path class="cls-9" d="M478.54,351.42a2.59,2.59,0,0,1-2.1-1.07q-1.24-1.71-2.43-3.45a2.6,2.6,0,0,1,4.28-2.94q1.16,1.68,2.35,3.34a2.6,2.6,0,0,1-2.1,4.12Z"/><path class="cls-9" d="M448.62,225.71a2.6,2.6,0,0,1-2.57-3q.34-2.08.73-4.15a2.6,2.6,0,0,1,5.1,1q-.38,2-.7,4A2.6,2.6,0,0,1,448.62,225.71Z"/><path class="cls-9" d="M452.3,208.67a2.6,2.6,0,0,1-2.51-3.28c.72-2.66,1.52-5.34,2.37-8a2.6,2.6,0,0,1,4.94,1.6c-.82,2.54-1.6,5.14-2.3,7.72A2.6,2.6,0,0,1,452.3,208.67Zm6.93-20.31a2.6,2.6,0,0,1-2.4-3.59c.83-2,1.72-4.05,2.64-6.06l.71-1.53a2.6,2.6,0,0,1,4.7,2.2l-.69,1.49c-.89,1.94-1.75,3.92-2.56,5.88A2.6,2.6,0,0,1,459.23,188.36Zm9.43-19.27a2.6,2.6,0,0,1-2.25-3.88c1.37-2.4,2.81-4.8,4.28-7.11a2.6,2.6,0,1,1,4.38,2.79c-1.43,2.25-2.83,4.57-4.15,6.9A2.6,2.6,0,0,1,468.65,169.09Zm11.79-17.93a2.6,2.6,0,0,1-2.07-4.16c1.66-2.2,3.4-4.4,5.17-6.52a2.6,2.6,0,0,1,4,3.32c-1.71,2.06-3.4,4.18-5,6.32A2.59,2.59,0,0,1,480.44,151.16Zm267.3-1.84a2.59,2.59,0,0,1-2.05-1c-1.64-2.11-3.35-4.21-5.09-6.24a2.6,2.6,0,1,1,3.94-3.38c1.8,2.1,3.56,4.26,5.25,6.44a2.6,2.6,0,0,1-2,4.19Zm-253.3-14.45a2.6,2.6,0,0,1-1.86-4.41c1.93-2,3.93-3.92,6-5.8a2.6,2.6,0,1,1,3.53,3.81c-2,1.82-3.91,3.71-5.77,5.62A2.59,2.59,0,0,1,494.44,134.88Zm239.09-1.64a2.59,2.59,0,0,1-1.83-.76c-1.89-1.88-3.86-3.75-5.85-5.54a2.6,2.6,0,1,1,3.48-3.86c2.05,1.85,4.08,3.77,6,5.71a2.6,2.6,0,0,1-1.83,4.44ZM510.4,120.53a2.6,2.6,0,0,1-1.61-4.63c2.17-1.71,4.4-3.39,6.65-5a2.6,2.6,0,1,1,3,4.23c-2.18,1.55-4.34,3.18-6.44,4.84A2.58,2.58,0,0,1,510.4,120.53Zm207-1.41a2.58,2.58,0,0,1-1.58-.54c-2.12-1.63-4.31-3.23-6.51-4.74a2.6,2.6,0,1,1,3-4.27c2.26,1.57,4.52,3.21,6.71,4.89a2.6,2.6,0,0,1-1.58,4.66ZM528.06,108.34a2.6,2.6,0,0,1-1.34-4.82c2.37-1.42,4.8-2.8,7.22-4.1A2.6,2.6,0,0,1,536.4,104c-2.35,1.26-4.71,2.6-7,4A2.59,2.59,0,0,1,528.06,108.34Zm171.48-1.17a2.59,2.59,0,0,1-1.3-.35c-2.31-1.34-4.68-2.65-7.06-3.88a2.6,2.6,0,1,1,2.39-4.61c2.45,1.27,4.9,2.62,7.28,4a2.6,2.6,0,0,1-1.31,4.84ZM547.13,98.49a2.6,2.6,0,0,1-1-5c2.53-1.11,5.11-2.17,7.68-3.15a2.6,2.6,0,0,1,1.85,4.85c-2.49,1-5,2-7.45,3.06A2.59,2.59,0,0,1,547.13,98.49Zm133.21-.91a2.58,2.58,0,0,1-1-.21c-2.46-1-5-2-7.49-3a2.6,2.6,0,1,1,1.79-4.87c2.59,1,5.19,2,7.72,3.05a2.6,2.6,0,0,1-1,5ZM567.28,91.13a2.6,2.6,0,0,1-.73-5.09c2.64-.78,5.34-1.5,8-2.15a2.6,2.6,0,1,1,1.23,5c-2.59.63-5.21,1.33-7.77,2.09A2.61,2.61,0,0,1,567.28,91.13Zm92.82-.66a2.59,2.59,0,0,1-.7-.1c-2.57-.72-5.2-1.39-7.8-2a2.6,2.6,0,0,1,1.16-5.06c2.69.62,5.39,1.3,8,2a2.6,2.6,0,0,1-.7,5.1Zm-71.9-4.09a2.6,2.6,0,0,1-.41-5.16c2.72-.44,5.48-.81,8.22-1.12a2.6,2.6,0,0,1,.58,5.16c-2.66.3-5.34.66-8,1.09A2.64,2.64,0,0,1,588.2,86.38ZM639.12,86l-.38,0c-2.64-.39-5.33-.71-8-1a2.6,2.6,0,1,1,.5-5.17c2.75.27,5.52.6,8.24,1a2.6,2.6,0,0,1-.37,5.17Zm-29.57-1.68a2.6,2.6,0,0,1-.08-5.19c2.75-.09,5.54-.11,8.3-.06a2.6,2.6,0,0,1,2.55,2.64,2.56,2.56,0,0,1-2.64,2.55c-2.68,0-5.38,0-8.05.06Z"/><path class="cls-9" d="M757.71,163.67a2.59,2.59,0,0,1-2.21-1.23q-1.08-1.74-2.2-3.44a2.6,2.6,0,0,1,4.34-2.85q1.16,1.76,2.27,3.56a2.6,2.6,0,0,1-2.2,4Z"/><path class="cls-2" d="M732.31,196.07a2,2,0,0,0-1.9-1.38l-24.58-.21a107.09,107.09,0,0,0-22.77-26.18l3.19-24.36a2,2,0,0,0-1.1-2.07l-26.4-13.15a2,2,0,0,0-2.32.37L638.91,146.3a107.09,107.09,0,0,0-34.61-2.39l-15-19.49a2,2,0,0,0-2.24-.68l-28,9.37a2,2,0,0,0-1.38,1.9l-.22,24.58a107.09,107.09,0,0,0-26.18,22.77L507,179.16a2,2,0,0,0-2.07,1.1l-13.15,26.4a2,2,0,0,0,.37,2.32l17.22,17.52a107.07,107.07,0,0,0-2.39,34.61l-19.49,15a2,2,0,0,0-.68,2.24l9.37,28a2,2,0,0,0,1.9,1.38l24.58.21a107.08,107.08,0,0,0,22.77,26.18l-3.19,24.36a2,2,0,0,0,1.1,2.07l26.4,13.15a2,2,0,0,0,2.32-.37l17.52-17.22a107.08,107.08,0,0,0,34.61,2.39l15,19.49a2,2,0,0,0,2.24.68l28-9.37a2,2,0,0,0,1.38-1.9l.21-24.58A107.09,107.09,0,0,0,697.12,320l24.36,3.19a2,2,0,0,0,2.07-1.1l13.15-26.4a2,2,0,0,0-.37-2.32l-17.22-17.52a107.1,107.1,0,0,0,2.39-34.61l19.49-15a2,2,0,0,0,.68-2.24Z"/><path class="cls-10" d="M614.28,278.94a28,28,0,0,1-6-.65,27.74,27.74,0,1,1,11.83-54.21h0a27.75,27.75,0,0,1-5.86,54.86Zm-.1-52.39a24.7,24.7,0,1,0,5.3.57h0A24.86,24.86,0,0,0,614.17,226.55Z"/><path class="cls-10" d="M613.53,324.14a72.71,72.71,0,1,1,32.53-137.8h0l.11.05h0a73.17,73.17,0,0,1,12.91,8.25,1.56,1.56,0,0,1-1.95,2.43,70,70,0,0,0-12.5-8h0a69.56,69.56,0,1,0,38.58,62.33q0-2.69-.21-5.39s0-.08,0-.12a1.56,1.56,0,0,1,3.11-.12q.22,2.81.22,5.63a72.74,72.74,0,0,1-72.85,72.68Z"/><path class="cls-2" d="M859.62,72.21,848.47,73a48.67,48.67,0,0,0-11.26-11l.57-11.15a.92.92,0,0,0-.57-.9l-12.43-5a.92.92,0,0,0-1,.25l-7.32,8.43a48.66,48.66,0,0,0-15.77.16l-7.49-8.29a.92.92,0,0,0-1-.23L779.8,50.48a.92.92,0,0,0-.56.91L780,62.53a48.67,48.67,0,0,0-11,11.26l-11.15-.57a.92.92,0,0,0-.9.57l-5,12.43a.92.92,0,0,0,.25,1l8.43,7.32a48.65,48.65,0,0,0,.16,15.77l-8.29,7.49a.92.92,0,0,0-.23,1l5.25,12.33a.92.92,0,0,0,.91.56l11.14-.79a48.65,48.65,0,0,0,11.26,11l-.57,11.15a.92.92,0,0,0,.57.9l12.43,5a.92.92,0,0,0,1-.25l7.32-8.43a48.65,48.65,0,0,0,15.77-.16l7.49,8.29a.92.92,0,0,0,1,.23l12.33-5.25a.92.92,0,0,0,.56-.91L838,141.44a48.66,48.66,0,0,0,11-11.26l11.15.57a.92.92,0,0,0,.9-.57l5-12.43a.92.92,0,0,0-.25-1l-8.43-7.32a48.67,48.67,0,0,0-.16-15.77l8.29-7.49a.92.92,0,0,0,.23-1l-5.25-12.33A.92.92,0,0,0,859.62,72.21Z"/><path class="cls-11" d="M809,114.92a12.94,12.94,0,1,1,1.74-25.76h0A12.94,12.94,0,0,1,809,114.92Zm0-23.8a10.87,10.87,0,1,0,1.49.1h0A11,11,0,0,0,809,91.12Z"/><path class="cls-9" d="M879.94,93.05a2.6,2.6,0,0,1-2.56-2.18c-.21-1.3-.46-2.63-.75-3.93a2.6,2.6,0,0,1,5.07-1.13c.31,1.4.59,2.82.81,4.23a2.6,2.6,0,0,1-2.15,3A2.65,2.65,0,0,1,879.94,93.05Z"/><path class="cls-9" d="M809.12,176.43h0a75.27,75.27,0,0,1-8.71-.51,2.6,2.6,0,1,1,.6-5.16,70.09,70.09,0,0,0,8.11.47,2.6,2.6,0,1,1,0,5.19Zm13.61-1.31a2.6,2.6,0,0,1-.49-5.15,68.91,68.91,0,0,0,7.86-2,2.6,2.6,0,1,1,1.58,4.95,74.07,74.07,0,0,1-8.46,2.17A2.61,2.61,0,0,1,822.73,175.12Zm-35.4-2a2.61,2.61,0,0,1-.78-.12,74.22,74.22,0,0,1-8.16-3.11,2.6,2.6,0,1,1,2.13-4.73,69.05,69.05,0,0,0,7.59,2.89,2.6,2.6,0,0,1-.78,5.07Zm56.13-5.44a2.6,2.6,0,0,1-1.25-4.87,69.66,69.66,0,0,0,6.88-4.31,2.6,2.6,0,0,1,3,4.23,75.14,75.14,0,0,1-7.4,4.63A2.59,2.59,0,0,1,843.46,167.63Zm17.49-13.41a2.6,2.6,0,0,1-1.88-4.39,69.42,69.42,0,0,0,5.27-6.18,2.6,2.6,0,1,1,4.14,3.13,74.73,74.73,0,0,1-5.66,6.65A2.59,2.59,0,0,1,860.95,154.23Zm12.62-18.07a2.6,2.6,0,0,1-2.33-3.74,69,69,0,0,0,3.13-7.5,2.6,2.6,0,1,1,4.9,1.71,74.37,74.37,0,0,1-3.37,8.06A2.6,2.6,0,0,1,873.57,136.15Zm6.52-21.06-.38,0a2.6,2.6,0,0,1-2.19-2.95l.11-.78a70.22,70.22,0,0,0,.61-7.31,2.57,2.57,0,0,1,2.68-2.52,2.6,2.6,0,0,1,2.52,2.67,75.7,75.7,0,0,1-.66,7.85l-.12.84A2.6,2.6,0,0,1,880.09,115.1Z"/><path class="cls-9" d="M767.54,163.25a2.58,2.58,0,0,1-1.5-.48c-1.16-.82-2.32-1.69-3.44-2.59a2.6,2.6,0,1,1,3.24-4.06c1,.83,2.12,1.64,3.2,2.41a2.6,2.6,0,0,1-1.5,4.72Z"/><path class="cls-9" d="M737.82,114.21a2.6,2.6,0,0,1-2.57-2.25c-.19-1.42-.34-2.86-.45-4.28a2.6,2.6,0,0,1,5.18-.39c.1,1.32.24,2.66.42,4a2.6,2.6,0,0,1-2.23,2.92Z"/><path class="cls-9" d="M737.63,96.62l-.29,0a2.6,2.6,0,0,1-2.29-2.87q.1-.9.22-1.8c.31-2.24.71-4.48,1.21-6.66a2.6,2.6,0,1,1,5.06,1.16c-.47,2-.84,4.11-1.13,6.2q-.12.84-.21,1.68A2.6,2.6,0,0,1,737.63,96.62Zm5.61-20.94A2.6,2.6,0,0,1,740.86,72a74.2,74.2,0,0,1,3.9-7.65A2.6,2.6,0,1,1,749.25,67a69.12,69.12,0,0,0-3.63,7.12A2.6,2.6,0,0,1,743.24,75.68Zm11.63-18.31a2.6,2.6,0,0,1-2-4.3,75,75,0,0,1,6-6.13,2.6,2.6,0,0,1,3.49,3.84,69.61,69.61,0,0,0-5.59,5.7A2.59,2.59,0,0,1,754.87,57.37Zm16.56-14a2.6,2.6,0,0,1-1.36-4.81,75,75,0,0,1,7.56-4.07,2.6,2.6,0,1,1,2.19,4.71,69.88,69.88,0,0,0-7,3.79A2.58,2.58,0,0,1,771.43,43.37Zm70.36-2.73a2.59,2.59,0,0,1-1.18-.29,68.89,68.89,0,0,0-7.31-3.22,2.6,2.6,0,0,1,1.82-4.86A74.14,74.14,0,0,1,843,35.73a2.6,2.6,0,0,1-1.19,4.91Zm-50.4-5.71a2.6,2.6,0,0,1-.64-5.11,74.12,74.12,0,0,1,8.43-1.62,2.6,2.6,0,1,1,.68,5.15A68.89,68.89,0,0,0,792,34.85,2.6,2.6,0,0,1,791.39,34.93Zm29.83-1.14a2.61,2.61,0,0,1-.44,0q-1.19-.2-2.4-.37c-1.84-.25-3.7-.43-5.54-.53a2.6,2.6,0,0,1,.29-5.18c2,.11,4,.3,6,.57q1.3.18,2.58.4a2.6,2.6,0,0,1-.43,5.16Z"/><path class="cls-9" d="M856.37,50.55a2.59,2.59,0,0,1-1.71-.64c-1-.88-2-1.73-3.08-2.55a2.6,2.6,0,0,1,3.19-4.09c1.13.88,2.24,1.8,3.31,2.74a2.6,2.6,0,0,1-1.71,4.55Z"/><path class="cls-11" d="M809,135.38A33.38,33.38,0,1,1,821.49,71h0q1.29.52,2.52,1.14a33.45,33.45,0,0,1,3,1.69l.05,0,.71.47a1,1,0,1,1-1.16,1.72A31.42,31.42,0,0,0,820.71,73h0q-.83-.33-1.66-.62A31.05,31.05,0,0,0,804.29,71h-.08A31.44,31.44,0,0,0,797.33,73l-.08,0-.17.07-.32.14a31.3,31.3,0,1,0,43.18,23.92,1,1,0,0,1,0-.16,1,1,0,0,1,2.06-.16,33.42,33.42,0,0,1-33,38.59Z"/><path class="cls-9" d="M522.68,382.64a2.6,2.6,0,0,1-2.26-1.31q-1-1.78-2.07-3.53a2.6,2.6,0,1,1,4.45-2.68q1.08,1.8,2.13,3.63a2.6,2.6,0,0,1-2.25,3.88Z"/><path class="cls-9" d="M364.28,655.23q-1.74,0-3.47,0a2.6,2.6,0,1,1,.1-5.19q4,.07,8,0H369a2.6,2.6,0,0,1,.07,5.19Q366.67,655.23,364.28,655.23Zm-16.61-.76h-.24c-2.73-.25-5.49-.57-8.2-.94a2.6,2.6,0,1,1,.71-5.14c2.63.36,5.31.67,8,.92a2.6,2.6,0,0,1-.24,5.18Zm34.52-.12a2.6,2.6,0,0,1-.25-5.18c2.65-.26,5.33-.59,8-1a2.6,2.6,0,0,1,.74,5.14c-2.71.39-5.47.72-8.19,1Zm-55.62-3.09a2.6,2.6,0,0,1-.54-.06c-2.69-.57-5.39-1.21-8-1.9a2.6,2.6,0,0,1,1.31-5c2.57.67,5.19,1.29,7.8,1.85a2.6,2.6,0,0,1-.54,5.14Zm76.71-.24a2.6,2.6,0,0,1-.55-5.13c2.6-.56,5.22-1.2,7.8-1.88a2.6,2.6,0,0,1,1.33,5c-2.65.7-5.35,1.35-8,1.93A2.59,2.59,0,0,1,403.27,651Zm20.55-5.74a2.6,2.6,0,0,1-.84-5.05c2.52-.87,5.05-1.8,7.52-2.77a2.6,2.6,0,1,1,1.9,4.83c-2.54,1-5.15,2-7.74,2.85A2.59,2.59,0,0,1,423.82,645.28Zm19.74-8.1a2.6,2.6,0,0,1-1.13-4.94c2.41-1.16,4.81-2.38,7.14-3.64a2.6,2.6,0,1,1,2.46,4.57c-2.4,1.29-4.88,2.55-7.35,3.74A2.59,2.59,0,0,1,443.57,637.18Zm18.64-10.36a2.6,2.6,0,0,1-1.4-4.79c2.24-1.42,4.48-2.92,6.66-4.44a2.6,2.6,0,0,1,3,4.25c-2.24,1.57-4.54,3.11-6.85,4.57A2.59,2.59,0,0,1,462.21,626.82Zm17.29-12.48a2.6,2.6,0,0,1-1.64-4.61c2.06-1.68,4.11-3.43,6.09-5.2a2.6,2.6,0,0,1,3.46,3.87c-2,1.82-4.14,3.62-6.27,5.35A2.59,2.59,0,0,1,479.49,614.34Zm15.71-14.42a2.6,2.6,0,0,1-1.86-4.4c1.85-1.91,3.68-3.88,5.45-5.88a2.6,2.6,0,0,1,3.89,3.44c-1.82,2.05-3.7,4.09-5.6,6A2.59,2.59,0,0,1,495.2,599.91Zm13.92-16.16a2.6,2.6,0,0,1-2.06-4.17c1.62-2.12,3.21-4.3,4.73-6.47a2.6,2.6,0,1,1,4.26,3c-1.56,2.24-3.2,4.48-4.86,6.66A2.59,2.59,0,0,1,509.13,583.75Zm12-17.68a2.6,2.6,0,0,1-2.23-3.92c1.36-2.29,2.69-4.64,3.95-7a2.6,2.6,0,1,1,4.58,2.45c-1.29,2.41-2.66,4.83-4.06,7.18A2.59,2.59,0,0,1,521.08,566.07Zm9.82-19a2.6,2.6,0,0,1-2.37-3.65c1.09-2.44,2.13-4.93,3.11-7.4a2.6,2.6,0,1,1,4.83,1.9c-1,2.54-2.08,5.11-3.19,7.61A2.6,2.6,0,0,1,530.91,547.12Zm7.54-20a2.6,2.6,0,0,1-2.48-3.37c.79-2.54,1.54-5.13,2.22-7.71a2.6,2.6,0,0,1,5,1.32c-.7,2.66-1.47,5.33-2.28,7.94A2.6,2.6,0,0,1,538.45,527.15Zm5.15-20.73a2.63,2.63,0,0,1-.48,0,2.6,2.6,0,0,1-2.08-3c.49-2.61.92-5.28,1.3-7.93a2.6,2.6,0,1,1,5.14.72c-.38,2.73-.83,5.47-1.33,8.16A2.6,2.6,0,0,1,543.6,506.42Zm2.67-21.19h-.18a2.6,2.6,0,0,1-2.42-2.76c.18-2.64.29-5.33.35-8a2.6,2.6,0,1,1,5.19.11c-.06,2.75-.18,5.53-.36,8.24A2.6,2.6,0,0,1,546.27,485.23Zm.15-21.34a2.6,2.6,0,0,1-2.59-2.46c-.14-2.65-.34-5.35-.59-8a2.6,2.6,0,0,1,5.17-.5c.26,2.73.47,5.5.61,8.23a2.6,2.6,0,0,1-2.46,2.73Zm-2.34-21.22a2.6,2.6,0,0,1-2.56-2.16q-.3-1.77-.63-3.53-.41-2.18-.88-4.34a2.6,2.6,0,0,1,5.08-1.09q.48,2.22.9,4.47.34,1.82.65,3.63a2.6,2.6,0,0,1-2.12,3A2.63,2.63,0,0,1,544.08,442.68Zm-4.77-20.8a2.6,2.6,0,0,1-2.49-1.87c-.74-2.55-1.55-5.13-2.41-7.65a2.6,2.6,0,0,1,4.92-1.67c.88,2.59,1.72,5.24,2.48,7.87a2.6,2.6,0,0,1-2.49,3.32Zm-7.16-20.11a2.6,2.6,0,0,1-2.39-1.58c-1-2.45-2.15-4.91-3.29-7.31a2.6,2.6,0,0,1,4.69-2.24c1.18,2.47,2.32,5,3.39,7.52a2.6,2.6,0,0,1-2.39,3.61Z"/><path class="cls-9" d="M305.88,645.54a2.59,2.59,0,0,1-.84-.14q-2-.68-4-1.4a2.6,2.6,0,1,1,1.79-4.88q1.92.7,3.86,1.36a2.6,2.6,0,0,1-.84,5.05Z"/><path class="cls-12" d="M201,553.49a2.6,2.6,0,0,1-2.33-1.45c-1.24-2.51-2.43-5.09-3.54-7.65a2.6,2.6,0,1,1,4.76-2.07c1.08,2.49,2.24,5,3.44,7.43a2.6,2.6,0,0,1-2.33,3.74Zm-8.42-20.1a2.6,2.6,0,0,1-2.45-1.74c-.93-2.65-1.8-5.34-2.6-8a2.6,2.6,0,1,1,5-1.49c.78,2.6,1.63,5.22,2.52,7.79a2.6,2.6,0,0,1-2.45,3.45Zm-6-21a2.6,2.6,0,0,1-2.53-2c-.4-1.82-.78-3.67-1.13-5.51q-.26-1.38-.5-2.75a2.6,2.6,0,1,1,5.12-.89q.23,1.34.49,2.67c.34,1.79.71,3.59,1.1,5.36a2.6,2.6,0,0,1-2.54,3.16Zm-3.44-21.52a2.6,2.6,0,0,1-2.58-2.34c-.28-2.79-.5-5.62-.64-8.4a2.6,2.6,0,1,1,5.18-.28c.15,2.7.36,5.45.63,8.17a2.6,2.6,0,0,1-2.33,2.84Zm-.86-21.78h-.05a2.6,2.6,0,0,1-2.54-2.65c.06-2.79.18-5.62.37-8.42a2.6,2.6,0,1,1,5.18.34c-.18,2.72-.3,5.47-.35,8.18A2.6,2.6,0,0,1,182.33,469.12Zm1.76-21.72-.37,0a2.6,2.6,0,0,1-2.21-2.94c.4-2.78.86-5.58,1.38-8.33a2.6,2.6,0,1,1,5.1,1c-.51,2.66-1,5.39-1.34,8.09A2.6,2.6,0,0,1,184.09,447.4ZM188.45,426a2.6,2.6,0,0,1-2.51-3.27c.72-2.71,1.52-5.43,2.37-8.1a2.6,2.6,0,0,1,4.95,1.57c-.82,2.59-1.6,5.24-2.3,7.87A2.6,2.6,0,0,1,188.45,426Zm6.89-20.69a2.6,2.6,0,0,1-2.41-3.56c1-2.61,2.16-5.22,3.32-7.75a2.6,2.6,0,0,1,4.73,2.15c-1.12,2.46-2.21,5-3.23,7.53A2.6,2.6,0,0,1,195.35,405.34Zm9.31-19.71a2.6,2.6,0,0,1-2.27-3.84c1.35-2.46,2.77-4.92,4.21-7.3a2.6,2.6,0,0,1,4.44,2.7c-1.41,2.31-2.79,4.7-4.1,7.09A2.59,2.59,0,0,1,204.66,385.63Zm11.59-18.46a2.6,2.6,0,0,1-2.11-4.1c1.63-2.28,3.33-4.55,5-6.74a2.6,2.6,0,0,1,4.09,3.21c-1.67,2.13-3.32,4.34-4.91,6.55A2.59,2.59,0,0,1,216.25,367.17Zm13.69-16.95a2.6,2.6,0,0,1-1.92-4.35c1.88-2.06,3.83-4.11,5.81-6.09a2.6,2.6,0,0,1,3.68,3.67c-1.92,1.93-3.82,3.92-5.65,5.92A2.59,2.59,0,0,1,229.94,350.22ZM245.55,335a2.6,2.6,0,0,1-1.7-4.56c2.12-1.83,4.31-3.63,6.49-5.35a2.6,2.6,0,0,1,3.21,4.08c-2.12,1.67-4.25,3.42-6.31,5.2A2.58,2.58,0,0,1,245.55,335Zm17.31-13.22a2.6,2.6,0,0,1-1.45-4.75c2.32-1.56,4.7-3.08,7.08-4.53a2.6,2.6,0,1,1,2.7,4.44c-2.31,1.41-4.63,2.89-6.88,4.4A2.58,2.58,0,0,1,262.86,321.81Zm18.76-11a2.6,2.6,0,0,1-1.18-4.91c2.49-1.27,5-2.5,7.59-3.66a2.6,2.6,0,0,1,2.14,4.73c-2.47,1.12-5,2.32-7.38,3.55A2.58,2.58,0,0,1,281.62,310.77ZM434.85,305a2.59,2.59,0,0,1-1-.2c-1.68-.71-3.41-1.4-5.14-2.06a2.6,2.6,0,0,1,1.86-4.85c1.78.68,3.56,1.4,5.29,2.13a2.6,2.6,0,0,1-1,5Zm-133.26-2.95a2.6,2.6,0,0,1-.89-5c2.62-1,5.3-1.88,8-2.72a2.6,2.6,0,1,1,1.56,5c-2.59.82-5.2,1.71-7.75,2.64A2.59,2.59,0,0,1,301.59,302.06Zm115.28-3.52a2.6,2.6,0,0,1-.75-.11c-2.6-.78-5.25-1.52-7.89-2.18a2.6,2.6,0,0,1,1.27-5c2.72.68,5.45,1.44,8.12,2.24a2.6,2.6,0,0,1-.75,5.08Zm-94.41-2.75a2.6,2.6,0,0,1-.6-5.12c2.7-.64,5.45-1.22,8.19-1.74l.1,0A2.6,2.6,0,1,1,331,294c-2.65.5-5.33,1.07-8,1.69A2.62,2.62,0,0,1,322.45,295.8Zm73.21-2.27a2.58,2.58,0,0,1-.45,0c-2.68-.46-5.4-.87-8.1-1.22a2.6,2.6,0,1,1,.65-5.15c2.78.35,5.58.77,8.33,1.25a2.6,2.6,0,0,1-.44,5.15ZM343.92,292a2.6,2.6,0,0,1-.29-5.18c2.78-.32,5.6-.58,8.39-.77a2.6,2.6,0,0,1,.36,5.18c-2.71.19-5.45.44-8.16.75Zm30.07-.95h-.14c-2.71-.14-5.46-.22-8.18-.23a2.6,2.6,0,0,1,0-5.19h0c2.8,0,5.64.1,8.42.24a2.6,2.6,0,0,1-.13,5.19Z"/><path class="cls-2" d="M445.5,329.91a2.54,2.54,0,0,0-2.94,0l-25.3,17.64a134.36,134.36,0,0,0-42.31-10.24L360.5,310.05a2.53,2.53,0,0,0-2.63-1.32l-36.55,5.73a2.54,2.54,0,0,0-2.1,2.06l-5.41,30.35a134.36,134.36,0,0,0-37.14,22.7l-29.49-9.05a2.53,2.53,0,0,0-2.79.93l-21.79,29.9a2.53,2.53,0,0,0,0,2.94l17.64,25.3A134.36,134.36,0,0,0,230,461.91l-27.23,14.44a2.53,2.53,0,0,0-1.32,2.63l5.73,36.55a2.53,2.53,0,0,0,2.06,2.1L239.55,523a134.34,134.34,0,0,0,22.7,37.14l-9.05,29.49a2.53,2.53,0,0,0,.93,2.79L284,614.26a2.53,2.53,0,0,0,2.94,0l25.3-17.64a134.34,134.34,0,0,0,42.31,10.24L369,634.13a2.53,2.53,0,0,0,2.63,1.32l36.55-5.73a2.53,2.53,0,0,0,2.1-2.06l5.41-30.35a134.34,134.34,0,0,0,37.14-22.7l29.49,9.05a2.53,2.53,0,0,0,2.79-.93l21.79-29.9a2.54,2.54,0,0,0,0-2.94l-17.64-25.3a134.36,134.36,0,0,0,10.24-42.31l27.23-14.44a2.53,2.53,0,0,0,1.32-2.63l-5.73-36.55a2.53,2.53,0,0,0-2.06-2.1L490,421.13A134.38,134.38,0,0,0,467.28,384l9-29.49a2.53,2.53,0,0,0-.93-2.79Z"/><path class="cls-10" d="M364.81,506.5a34.41,34.41,0,1,1,13.44-2.75A34.46,34.46,0,0,1,364.81,506.5Zm-.05-65.72a31.24,31.24,0,0,0-12.26,2.52h0a31.09,31.09,0,1,0,12.26-2.52Zm-12.87,1.09h0Z"/><path class="cls-10" d="M364.3,563.6a90.84,90.84,0,0,1-14-180.58h0a91.62,91.62,0,0,1,16-1.09q1.67,0,3.33.13a1.56,1.56,0,0,1,1.47,1.55s0,.06,0,.09a1.54,1.54,0,0,1-1.64,1.47,87.76,87.76,0,0,0-92.74,84.59q-.05,1.47-.05,2.95A87.72,87.72,0,1,0,431.76,416.6a1.56,1.56,0,0,1,2.39-2,90.87,90.87,0,0,1-69.85,149Z"/><path class="cls-13" d="M671.12,544.69l12.07,11.9c17.14-1.65,30.34-7,40.48-13.74-6.1-15.18-12.3-24.18-17.17-29.46C690.55,535.83,671.12,544.69,671.12,544.69Z"/><path class="cls-14" d="M755.14,500.15l-28.49-44.54c-1.87,25.12-10.36,44-20.15,57.78,4.87,5.28,11.07,14.28,17.17,29.46C749,526,755.14,500.15,755.14,500.15Z"/><path class="cls-1" d="M785.44,852.17c-14.2.65-28,.24-37.13-.23,8.36-5.95,27.61-18.89,43.72-24l11.06-.66s3.75,5.7,5.08,18.74C806.34,848.26,801,851.45,785.44,852.17Z"/><path class="cls-1" d="M748.19,852l.11-.08c9.18.47,22.93.88,37.13.23,15.55-.72,20.91-3.9,22.74-6.19.06.6.12,1.2.18,1.83a5.18,5.18,0,0,1-4.76,5.59c-11.63.88-40.47,2.87-54.38,2.14A1.94,1.94,0,0,1,748.19,852Z"/><path class="cls-1" d="M888.55,848.36c1-6.67,2.71-16.31,4-18.77,2-3.87,8.94,0,8.94,0s4.86,2.27,7.09,6c1.43,2.41,5.37,9.26,8,13.91a3.12,3.12,0,0,1,.42,1.66l-27.71,1A5.53,5.53,0,0,1,888.55,848.36Z"/><path class="cls-1" d="M917,851.2a3.16,3.16,0,0,1-3.07,3.07l-19.74.54a5.57,5.57,0,0,1-4.9-2.64Z"/><path class="cls-15" d="M887,809.71c1-7.56,14.57-4.51,14.57-4.51,0,.83,1.82,18.45,2.62,26.18a4.35,4.35,0,0,1-3,4.69c-1.05.31-2.29.63-3.6.89a4.83,4.83,0,0,1-5.46-3.35C890.08,827.34,886.3,815.19,887,809.71Z"/><path class="cls-16" d="M805.27,812.4c-1.54,0,.61,7.93-1.71,15.77a4,4,0,0,1-3.69,3.18c-1.2,0-2.61,0-4.05-.12a4.45,4.45,0,0,1-4.1-4l-1.89-20.34Z"/><path class="cls-2" d="M762.31,596.19c.69,3.34,24.88,144.46,26.35,217.49a2.49,2.49,0,0,0,2.14,2.42,48.84,48.84,0,0,0,14.85-.1,1.75,1.75,0,0,0,1.44-1.61c.85-13.61,7.65-128.67-.68-182.83,0,0,68.79,144.79,79.22,184.71a2.1,2.1,0,0,0,2.15,1.57,52,52,0,0,0,13.94-2.48,3.64,3.64,0,0,0,2.3-4.28c-5.83-23.89-46.66-188.51-74.38-224.77Z"/><path class="cls-17" d="M806.41,632.46a.9.9,0,0,0,.65-1.53l-9.21-9.42a.9.9,0,0,0-1.29,1.26l9.21,9.42A.9.9,0,0,0,806.41,632.46Z"/><path class="cls-14" d="M723,419.5c17.67-4.63,50.27-11.88,76.21-10.33a11.74,11.74,0,0,1,11.07,11c3.92,69.11,9.28,130.43,19.36,166.11-22.67,9-45.15,13.13-67.33,9.88q-24.92-53.38-43.55-123.32s-7.28-37.21-.21-49.61A7.31,7.31,0,0,1,723,419.5Z"/><path class="cls-18" d="M765.49,371.09s4.46,26.62,5.79,38.93a4.82,4.82,0,0,1-2.62,4.81c-4.88,2.51-15.29,6.55-26.63,2.84A4.5,4.5,0,0,1,739,413.3l.78-35.54Z"/><path class="cls-19" d="M943.29,576.74l11.63,2.94c20,5,33.37,20,30,33.49l-4,16c-3.4,13.45-22.33,20.27-42.28,15.23l-11.63-2.94q-1.15-.29-2.3-.63l-341-102L592.49,504,941,576.21Q942.14,576.45,943.29,576.74Zm-5,16c-15-3.8-29,.36-31.29,9.29s8.09,19.24,23.11,23,29-.36,31.29-9.29S953.31,596.5,938.28,592.7Z"/><path class="cls-19" d="M479.13,456.61l67.47,17.05a16,16,0,0,1,10.74,9.14l10.09,23.31a16,16,0,0,1-4.78,18.9l-20,15.71a16,16,0,0,1-13.79,2.93L461.44,526.6c-10.18-2.57-18.82,8-14,17.38a91.85,91.85,0,0,0,59.43,46.77c48.52,12.26,91.46-17.13,103.26-63.8s-12-92.94-60.54-105.2a91.85,91.85,0,0,0-74.52,12.91C466.39,440.59,469,454,479.13,456.61Z"/><path class="cls-1" d="M477.52,463,545,480a16,16,0,0,1,10.74,9.14l10.09,23.31a16,16,0,0,1-4.78,18.9l-20,15.71A16,16,0,0,1,527.3,550L459.83,533c-10.18-2.57-18.82,8-14,17.38a91.85,91.85,0,0,0,59.43,46.77C553.76,609.37,596.7,580,608.5,533.3s-12-92.94-60.54-105.2A91.85,91.85,0,0,0,473.45,441C464.79,446.94,467.35,460.4,477.52,463Z"/><path class="cls-1" d="M942,581.81l11.63,2.94c20,5,33.37,20,30,33.49l-4,16c-3.4,13.45-22.33,20.27-42.28,15.23l-11.63-2.94q-1.15-.29-2.3-.63l-341-102L591.21,509l348.48,72.25Q940.85,581.52,942,581.81Zm-5,16c-15-3.8-29,.36-31.29,9.29s8.09,19.24,23.11,23,29-.36,31.29-9.29S952,601.57,937,597.78Z"/><path class="cls-20" d="M856,511.54c8.74,24.52,3.82,50.8,3.82,50.8l11.52,3.07s14.88-17.7,11.48-57C872.18,506.82,862.22,509.31,856,511.54Z"/><path class="cls-14" d="M882.81,508.44c-.38-4.42-1-9.09-1.88-14.06-7.78-43.32-63.32-76.64-76.38-83.93a1.79,1.79,0,0,0-2.65,1.63L803.76,471c30.93,4.16,45.57,21.85,52.24,40.58C862.22,509.31,872.18,506.82,882.81,508.44Z"/><path class="cls-21" d="M646.82,566.29a7.47,7.47,0,0,1-4.83-4.18c-1.77-4-3.76-10.31.49-12.24,6.34-2.88,17.85,8.93,17.85,8.93l5.63,9.12,5.15,2.5C666.41,571.72,657.31,569.56,646.82,566.29Z"/><path class="cls-22" d="M860.58,556.59H846.34s11.55,6.93,11.94,14.22-4.59,22.38-6.91,26.49c-2.54,4.49,32.25-6.69,20-40.7Z"/><path class="cls-23" d="M731.73,336.2c-.31.56-6.93,42.53-6.93,42.53l24,3.27L761,343.16S736.9,326.76,731.73,336.2Z"/><path class="cls-19" d="M752.12,347a3.49,3.49,0,0,1,.7,3l-4.75,20.65a3.4,3.4,0,0,1-.34.89c-.86,1.55-4,6.26-8.74,2.78-4-3-7.8-5.65-11.07-6.19a3.48,3.48,0,0,0-4,2.93,130.09,130.09,0,0,0-1.62,19.13,3.47,3.47,0,0,0,3.24,3.42c4.76.34,14.08.71,21.79-.67a3.49,3.49,0,0,0,2.7-2.35c1.76-5.38,6.76-20.45,8.82-24.48,1.92-3.75,7.5-4.39,10.08-4.48a3.5,3.5,0,0,0,2.53-1.21c1.93-2.22,4.94-7.17-.86-12a3.49,3.49,0,0,1-.44-4.84c2.1-2.63,3.93-6.87-.57-11.32s-9.71-3.36-13-1.84a3.62,3.62,0,0,1-4.26-.83,2.31,2.31,0,0,0-2.15-.79,3.38,3.38,0,0,1-3.83-2.93c-.4-3.26-2.14-7.09-7.9-8.19-10.57-2-15.81,8.57-15.6,16s11.79,9,18.36,7.71C746.06,340.48,750.24,344.71,752.12,347Z"/><path class="cls-24" d="M757,373.73s.19-13,5.44-14.19,10.91,2.55,6.45,10.32C763.37,379.52,757,373.73,757,373.73Z"/><circle class="cls-2" cx="452.88" cy="35.64" r="15.07"/><circle class="cls-2" cx="385.84" cy="150.93" r="3.86"/><circle class="cls-2" cx="1032.09" cy="703.43" r="6.98"/><circle class="cls-2" cx="292.49" cy="838.99" r="6.98"/><circle class="cls-2" cx="1069.13" cy="408.96" r="6.98"/><circle class="cls-2" cx="116.97" cy="108.8" r="6.98"/><circle class="cls-1" cx="922.81" cy="726.39" r="3.49"/><circle class="cls-1" cx="520.64" cy="64.13" r="3.49"/><circle class="cls-1" cx="715.36" cy="32.01" r="14.68"/></g></g></svg>