<?xml version="1.0" encoding="utf-8"?>
<!-- Generator: Adobe Illustrator 21.0.0, SVG Export Plug-In . SVG Version: 6.00 Build 0)  -->
<svg version="1.1" id="Warstwa_1" xmlns="http://www.w3.org/2000/svg" xmlns:xlink="http://www.w3.org/1999/xlink" x="0px" y="0px"
	 viewBox="0 0 400 400" style="enable-background:new 0 0 400 400;" xml:space="preserve">
<style type="text/css">
	.st0{fill:url(#SVGID_1_);}
	.st1{fill:#FFFFFF;}
</style>
<linearGradient id="SVGID_1_" gradientUnits="userSpaceOnUse" x1="37.9165" y1="149.9823" x2="390.2441" y2="263.3185">
	<stop  offset="0" style="stop-color:#0BA1E1"/>
	<stop  offset="1" style="stop-color:#116EDB"/>
</linearGradient>
<path class="st0" d="M397.1,201.7c0,49.9-6.5,91.7-49.2,130.3c-40.5,36.7-89.1,66.9-148,66.9c-60.8,0-133-35.2-165-81.6
	c-25.5-37-32.2-67.5-32.2-115.6c0-45.9,8.8-95.4,38-126.4C80.9,32.6,133.1-4.8,199.9,4.5c48.6,6.8,104.4,18.5,138.9,48.2
	C380.9,88.9,397.1,141.9,397.1,201.7z"/>
<g>
	<path class="st1" d="M305.9,164.1c0-8.2-1.6-16.1-4.7-23.5c-3-7.2-7.4-13.7-13-19.2c-5.5-5.5-12-9.9-19.2-13
		c-7.5-3.2-15.4-4.7-23.5-4.7s-16.1,1.6-23.5,4.7c-7.2,3-13.7,7.4-19.2,13s-9.9,12-13,19.2c-3.2,7.5-4.7,15.4-4.7,23.5
		c0,10.2,2.6,20.2,7.5,29.1L120,265.5c-1.7,1.7-2.2,4.2-1.2,6.6c0.2,0.5,0.6,1,0.9,1.4l16.2,16.2c0.4,0.4,0.8,0.7,1.4,0.9
		c2.4,1,5,0.5,6.6-1.2l10-10l14.4,14.4c0.4,0.4,0.8,0.7,1.4,0.9c2.4,1,5,0.5,6.6-1.2l16-16c0.4-0.4,0.7-0.8,0.9-1.4
		c1-2.4,0.5-5-1.2-6.6l-14.2-14.2l38.3-38.4c8.9,4.9,18.9,7.5,29.1,7.5c8.2,0,16.1-1.6,23.5-4.7c7.2-3,13.7-7.4,19.2-13
		c5.5-5.5,9.9-12,13-19.2C304.3,180.2,305.9,172.3,305.9,164.1z M266.6,185.3c-5.7,5.7-13.2,8.8-21.2,8.8c-8,0-15.5-3.1-21.2-8.8
		c-5.7-5.7-8.8-13.2-8.8-21.2c0-8,3.1-15.5,8.8-21.2c5.7-5.7,13.2-8.8,21.2-8.8c8,0,15.5,3.1,21.2,8.8s8.8,13.2,8.8,21.2
		C275.4,172.1,272.3,179.7,266.6,185.3z"/>
</g>
<g>
	<g>
		<path class="st1" d="M163,180.1l-2.7-2.5c-2.9-2.7-6.8-4.3-10.8-4.4c-4.7-0.1-9.2,1.8-12.4,5.2l-8.1,8.7c-1,1.1-1.6,2.6-1.5,4.1
			c0.1,1.5,0.7,2.9,1.8,4l0.7,0.7c1,1,2.4,1.5,3.8,1.5l0.3,0c1.5-0.1,2.9-0.7,4-1.8l8.1-8.7c1.4-1.5,4.1-1.6,5.6-0.2l2.7,2.5
			c0.8,0.7,1.2,1.7,1.3,2.8c0,1.1-0.3,2.1-1.1,2.8L137,213.8c-1.2,1.3-3.3,1.6-4.8,0.8c-2.4-1.3-5.6-0.8-7.4,1.2l-0.1,0.2
			c-1.3,1.4-1.9,3.3-1.6,5.1c0.3,1.9,1.4,3.5,3.1,4.4c2.3,1.3,4.9,2,7.5,2.1l0,0c4.7,0.1,9.2-1.8,12.4-5.3l17.7-19.1
			C170,196.7,169.6,186.2,163,180.1z"/>
		<path class="st1" d="M124.4,230.4c-2.2-2.1-6-1.9-8.1,0.3l-8.1,8.7c-1.4,1.5-4.1,1.6-5.6,0.2l-2.7-2.5c-0.8-0.7-1.2-1.7-1.3-2.8
			c0-1.1,0.3-2.1,1.1-2.8l17.7-19.1c1.2-1.3,3.2-1.6,4.7-0.8c2.5,1.3,5.7,0.8,7.7-1.4c1.3-1.4,1.8-3.2,1.5-5c-0.3-1.8-1.4-3.4-3-4.3
			c-2.3-1.3-5-2.1-7.7-2.1c-4.7-0.1-9.2,1.8-12.4,5.2L90.6,223c-6.2,6.6-5.8,17,0.8,23.2l2.7,2.5c2.9,2.7,6.8,4.3,10.8,4.3
			c0,0,0,0,0,0c4.7,0.1,9.2-1.8,12.4-5.2l8.1-8.7c1-1.1,1.6-2.6,1.5-4.1c-0.1-1.5-0.7-3-1.8-4L124.4,230.4z"/>
	</g>
</g>
</svg>
