<?xml version="1.0" encoding="utf-8"?>
<!-- Generator: Adobe Illustrator 21.0.0, SVG Export Plug-In . SVG Version: 6.00 Build 0)  -->
<svg version="1.1" id="Warstwa_1" xmlns="http://www.w3.org/2000/svg" xmlns:xlink="http://www.w3.org/1999/xlink" x="0px" y="0px"
	 viewBox="0 0 527.3 95.5" style="enable-background:new 0 0 527.3 95.5;" xml:space="preserve">
<style type="text/css">
	.st0{fill:#10263C;}
	.st1{fill:url(#SVGID_1_);}
	.st2{fill:#FFFFFF;}
</style>
<g>
	<path class="st0" d="M19.3,54.1l-4.5,4.4v5.2c0,1.7-1.4,3-3,3H5.4V22.2h9.4v25.2l12.8-12.1c0.6-0.5,1.3-0.8,2.1-0.8h10L26.2,48.1
		l14.6,18.6H31c-0.9,0-1.8-0.4-2.4-1.1L19.3,54.1z"/>
	<path class="st0" d="M59.5,35.2c1.9-0.8,4.1-1.2,6.6-1.2v8.6c-1-0.1-1.7-0.1-2.1-0.1c-2.7,0-4.8,0.8-6.3,2.3
		c-1.5,1.5-2.3,3.8-2.3,6.8v12.2c0,1.7-1.3,3-3,3H46V34.5h8.9v4.3C56.1,37.2,57.6,36,59.5,35.2z"/>
	<path class="st0" d="M106,34.5L91.4,68.7c-1.5,3.7-3.3,6.3-5.5,7.9c-2.2,1.5-4.8,2.3-7.9,2.3c-1.7,0-3.3-0.3-5-0.8
		c-1.6-0.5-3-1.2-4-2.2l2-3.8c0.7-1.4,2.4-2,3.9-1.4c0,0,0.1,0,0.1,0c0.9,0.4,1.9,0.5,2.8,0.5c1.3,0,2.3-0.3,3.1-0.9
		c0.8-0.6,1.5-1.6,2.2-3.1l0.1-0.3l-14-32.5h7.6c1.2,0,2.3,0.7,2.8,1.9l8.3,20l8.3-20c0.5-1.1,1.6-1.9,2.8-1.9H106z"/>
	<path class="st0" d="M138.3,36.1c2.5,1.4,4.4,3.3,5.8,5.8c1.4,2.5,2.1,5.4,2.1,8.7c0,3.3-0.7,6.2-2.1,8.7c-1.4,2.5-3.3,4.4-5.8,5.8
		c-2.5,1.4-5.2,2.1-8.2,2.1c-4.1,0-7.4-1.3-9.7-3.9v12.1c0,1.7-1.3,3-3,3H111V37.5c0-1.7,1.3-3,3-3h5.9v3.7
		c2.3-2.8,5.7-4.2,10.1-4.2C133.1,34,135.8,34.7,138.3,36.1z M134.4,57.1c1.5-1.6,2.3-3.8,2.3-6.5c0-2.7-0.8-4.9-2.3-6.5
		c-1.5-1.6-3.5-2.4-5.9-2.4c-2.4,0-4.4,0.8-5.9,2.4c-1.5,1.6-2.3,3.8-2.3,6.5c0,2.7,0.8,4.9,2.3,6.5c1.5,1.6,3.5,2.4,5.9,2.4
		C130.9,59.5,132.9,58.7,134.4,57.1z"/>
	<path class="st0" d="M174.4,65.2c-0.9,0.7-2.1,1.2-3.4,1.5c-1.3,0.3-2.8,0.5-4.2,0.5c-3.8,0-6.8-1-8.9-2.9c-2.1-2-3.1-4.8-3.1-8.6
		V42.4h-5v-4.2c0-1.6,1.3-3,3-3h2v-7.9h9.4v7.9h8v4.3c0,1.6-1.3,2.9-2.9,2.9h-5.1v13.1c0,1.4,0.4,2.4,1.1,3.2c0.7,0.7,1.7,1.1,3,1.1
		c0.5,0,1,0,1.4-0.1c1.5-0.3,2.9,0.4,3.5,1.8L174.4,65.2z"/>
	<path class="st0" d="M186.1,65.1c-2.7-1.4-4.8-3.4-6.3-5.9c-1.5-2.5-2.3-5.4-2.3-8.6c0-3.2,0.8-6.1,2.3-8.6
		c1.5-2.5,3.6-4.5,6.3-5.9c2.7-1.4,5.8-2.1,9.2-2.1c3.4,0,6.4,0.7,9.1,2.1c2.7,1.4,4.8,3.4,6.3,5.9c1.5,2.5,2.3,5.4,2.3,8.6
		c0,3.2-0.8,6.1-2.3,8.6c-1.5,2.5-3.6,4.5-6.3,5.9c-2.7,1.4-5.7,2.1-9.1,2.1C191.9,67.2,188.8,66.5,186.1,65.1z M201.2,57.1
		c1.5-1.6,2.3-3.8,2.3-6.5c0-2.7-0.8-4.9-2.3-6.5c-1.5-1.6-3.5-2.4-5.9-2.4c-2.4,0-4.4,0.8-5.9,2.4c-1.6,1.6-2.3,3.8-2.3,6.5
		c0,2.7,0.8,4.9,2.3,6.5c1.6,1.6,3.5,2.4,5.9,2.4C197.7,59.5,199.6,58.7,201.2,57.1z"/>
	<path class="st0" d="M271.3,34.5l-11.7,32.3h-9l-7.3-20l-7.5,20h-9l-11.6-32.3h6.7c1.3,0,2.4,0.8,2.8,2l6.9,19.8l7.9-21.8h7.9
		l7.7,21.8l7.2-19.9c0.4-1.2,1.5-1.9,2.8-1.9H271.3z"/>
	<path class="st0" d="M300.4,37.6c2.7,2.4,4,6,4,10.8v18.4h-5.8c-1.7,0-3-1.3-3-3v-1c-1.8,3-5,4.5-9.8,4.5c-2.5,0-4.6-0.4-6.4-1.3
		c-1.8-0.8-3.2-2-4.2-3.5c-1-1.5-1.4-3.2-1.4-5c0-3,1.1-5.4,3.4-7.1c2.3-1.7,5.8-2.6,10.5-2.6h7.4c0-2-0.6-3.6-1.9-4.7
		c-1.2-1.1-3.1-1.6-5.6-1.6c-1.7,0-3.4,0.3-5.1,0.8c-0.6,0.2-1.2,0.4-1.8,0.7c-1.5,0.7-3.2,0-3.9-1.4l-1.9-3.7
		c1.8-1.2,3.9-2.2,6.3-2.9c2.5-0.7,5-1,7.6-1C293.9,34,297.7,35.2,300.4,37.6z M292.4,59.8c1.2-0.7,2.1-1.8,2.6-3.3v-3.3h-6.4
		c-3.8,0-5.8,1.3-5.8,3.8c0,1.2,0.5,2.2,1.4,2.9c0.9,0.7,2.2,1.1,3.9,1.1C289.7,60.9,291.2,60.6,292.4,59.8z"/>
	<path class="st0" d="M317.1,22.2h6.4v44.5h-9.4V25.2C314.1,23.6,315.4,22.2,317.1,22.2z"/>
	<path class="st0" d="M365.8,34.5v29.3c0,1.7-1.4,3-3,3H357v-3.8c-1.2,1.4-2.7,2.5-4.4,3.2c-1.7,0.7-3.6,1.1-5.6,1.1
		c-4.2,0-7.6-1.2-10.1-3.7c-2.5-2.4-3.7-6.1-3.7-10.9V37.5c0-1.7,1.3-3,3-3h6.4v16.9c0,5.2,2.2,7.8,6.5,7.8c2.2,0,4-0.7,5.4-2.2
		c1.4-1.5,2-3.6,2-6.5v-16H365.8z"/>
	<path class="st0" d="M396.6,65.2c-0.9,0.7-2,1.2-3.4,1.5c-1.3,0.3-2.8,0.5-4.2,0.5c-3.8,0-6.8-1-8.9-2.9c-2.1-2-3.1-4.8-3.1-8.6
		V42.4h-5v-4.2c0-1.6,1.3-3,3-3h2v-7.9h9.4v7.9h8v4.2c0,1.7-1.3,3-3,3h-5v13.1c0,1.4,0.4,2.4,1.1,3.2c0.7,0.7,1.7,1.1,3,1.1
		c0.5,0,1,0,1.4-0.1c1.5-0.3,2.9,0.4,3.5,1.8L396.6,65.2z"/>
	<path class="st0" d="M434.5,34.5l-14.6,34.3c-1.5,3.7-3.3,6.3-5.5,7.9c-2.2,1.5-4.8,2.3-7.9,2.3c-1.7,0-3.3-0.3-5-0.8
		c-1.6-0.5-3-1.2-4-2.2l1.9-3.7c0.7-1.4,2.4-2.1,3.9-1.5l0.1,0c0.9,0.4,1.9,0.5,2.8,0.5c1.3,0,2.3-0.3,3.1-0.9
		c0.8-0.6,1.5-1.6,2.2-3.1l0.1-0.3l-14-32.5h7.6c1.3,0,2.4,0.8,2.9,1.9l8.3,20l8.4-20.1c0.5-1.1,1.6-1.8,2.8-1.8H434.5z"/>
</g>
<linearGradient id="SVGID_1_" gradientUnits="userSpaceOnUse" x1="449.1603" y1="38.6084" x2="520.6603" y2="61.6084">
	<stop  offset="0" style="stop-color:#0BA1E1"/>
	<stop  offset="1" style="stop-color:#116EDB"/>
</linearGradient>
<path class="st1" d="M522,49.1c0,10.1-1.3,18.6-10,26.4c-8.2,7.4-18.1,13.6-30,13.6c-12.3,0-27-7.1-33.5-16.6
	c-5.2-7.5-6.5-13.7-6.5-23.5c0-9.3,1.8-19.4,7.7-25.6c8.2-8.7,18.8-16.3,32.3-14.4c9.9,1.4,21.2,3.8,28.2,9.8
	C518.8,26.2,522,37,522,49.1z"/>
<g>
	<path class="st2" d="M483.1,37.5c2,1.1,3.6,2.7,4.7,4.7c1.1,2,1.7,4.4,1.7,7.1c0,2.7-0.6,5.1-1.7,7.1c-1.1,2-2.7,3.6-4.7,4.7
		c-2,1.1-4.2,1.7-6.7,1.7c-3.4,0-6-1.1-7.9-3.2v9.8c0,1.4-1.1,2.5-2.5,2.5h-5.1V38.7c0-1.4,1.1-2.5,2.5-2.5h4.8v3
		c1.9-2.3,4.6-3.4,8.3-3.4C478.9,35.8,481.1,36.4,483.1,37.5z M479.9,54.6c1.3-1.3,1.9-3.1,1.9-5.3c0-2.2-0.6-4-1.9-5.3
		c-1.3-1.3-2.9-2-4.8-2c-2,0-3.6,0.7-4.8,2c-1.3,1.3-1.9,3.1-1.9,5.3c0,2.2,0.6,4,1.9,5.3c1.3,1.3,2.9,2,4.8,2
		C477,56.6,478.7,56,479.9,54.6z"/>
	<path class="st2" d="M498.1,26.2h5.1v36.2h-7.6V28.8C495.6,27.4,496.7,26.2,498.1,26.2z"/>
</g>
</svg>
