<?xml version="1.0" encoding="utf-8"?>
<!-- Generator: Adobe Illustrator 21.0.0, SVG Export Plug-In . SVG Version: 6.00 Build 0)  -->
<svg version="1.1" id="Warstwa_1" xmlns="http://www.w3.org/2000/svg" xmlns:xlink="http://www.w3.org/1999/xlink" x="0px" y="0px"
	 viewBox="0 0 400 400" style="enable-background:new 0 0 400 400;" xml:space="preserve">
<style type="text/css">
	.st0{fill:url(#SVGID_1_);}
	.st1{fill:#FFFFFF;}
</style>
<linearGradient id="SVGID_1_" gradientUnits="userSpaceOnUse" x1="38.3066" y1="151.8431" x2="390.2999" y2="38.6146" gradientTransform="matrix(1 0 0 -1 0 302)">
	<stop  offset="0" style="stop-color:#0BA1E1"/>
	<stop  offset="1" style="stop-color:#116EDB"/>
</linearGradient>
<path class="st0" d="M397.1,202c0,49.8-6.6,91.6-49.2,130.2c-40.5,36.7-89,66.8-147.8,66.8c-60.8,0-132.9-35.2-164.9-81.6
	C9.8,280.4,3,249.9,3,201.8c0-45.8,8.7-95.4,37.9-126.3c40.1-42.7,92.3-80,159-70.9c48.5,6.8,104.3,18.4,138.9,48.1
	C381,89.2,397.1,142.2,397.1,202z"/>
<g>
	<path class="st1" d="M282.9,149.2v20.2h-5.7v-15.8h-3.8v-4.4H282.9z"/>
</g>
<g>
	<path class="st1" d="M93.7,152.8v121.9c0,0.7,0.7,1,1.2,0.6l63.4-58c0.8-0.7,0.8-1.9,0.1-2.6l-63.4-62.4
		C94.4,151.8,93.7,152.2,93.7,152.8z"/>
	<path class="st1" d="M217.7,220.4l-14.8,14.6c-3.3,3.2-7.6,5-12.1,5c-4.4,0-8.5-1.7-11.6-4.7l-15.1-14.8l-0.4-0.4l-62.3,57
		c-0.3,0.3-0.1,0.7,0.3,0.7h178.6c0.4,0,0.5-0.5,0.3-0.7l-62.3-57L217.7,220.4z"/>
	<path class="st1" d="M223.4,217.3l63.3,57.9c0.5,0.4,1.2,0.1,1.2-0.6v-88.4c11.7-4,20.2-15.1,20.2-28.2c0-16.5-13.4-29.9-29.9-29.9
		c-12.4,0-23,7.6-27.5,18.3H97.9c-0.4,0-0.5,0.5-0.3,0.7l66.2,65.1l4,3.9l15.1,14.8c0.5,0.5,1.1,1,1.8,1.4l0.7,0.4
		c0.4,0.2,0.8,0.5,1.3,0.6l0.9,0.2c0.4,0.1,0.8,0.3,1.2,0.3l0.9,0.1c0.4,0,0.8,0.1,1.2,0.1c0.4,0,0.8-0.1,1.3-0.1l1-0.1
		c0.4-0.1,0.9-0.2,1.3-0.4l0.9-0.3c0.5-0.2,0.9-0.5,1.4-0.7l0.7-0.4c0.7-0.4,1.3-0.9,1.9-1.5l14.8-14.6l4-3.9l36.7-36.1
		c1.1,1.5,2.4,2.8,3.8,4.1l-35,34.5C222.7,215.4,222.7,216.6,223.4,217.3z M256,158c0-12.3,10-22.2,22.2-22.2
		c12.3,0,22.2,10,22.2,22.2c0,12.3-10,22.2-22.2,22.2C266,180.2,256,170.2,256,158z"/>
</g>
</svg>
