<svg xmlns="http://www.w3.org/2000/svg" viewBox="0 0 1186.67 673.95"><defs><style>.cls-1{fill:#f0f3f8;}.cls-2{fill:#10273b;}.cls-3,.cls-6{fill:#fff;}.cls-4{fill:#1a2e35;}.cls-11,.cls-5{fill:#0080ff;}.cls-6{opacity:0.3;}.cls-7,.cls-8{fill:#0071ed;}.cls-10,.cls-11,.cls-8{opacity:0.2;}.cls-9{fill:#007cff;}</style></defs><title>oops!</title><g id="Warstwa_2" data-name="Warstwa 2"><g id="DESIGNED_BY_FREEPIK" data-name="DESIGNED BY FREEPIK"><path class="cls-1" d="M1108.83,504.67,1119,495.2l-4-8a83.25,83.25,0,0,0,8.24-11.45l8.86,1.34,5.75-12.68-6.82-5.8a81.65,81.65,0,0,0,3.21-13.73l8.73-2.18.45-13.9-8.53-2.75a86.58,86.58,0,0,0-2.25-13.93l7.18-5.35-4.89-13-8.91.7a86.4,86.4,0,0,0-7.43-12l4.61-7.67-9.49-10.17-8,4.08a85.74,85.74,0,0,0-11.45-8.24l1.29-8.87-12.65-5.77-5.81,6.83a83.94,83.94,0,0,0-13.74-3.19l-2.17-8.7-13.89-.51-2.78,8.56a81.34,81.34,0,0,0-13.91,2.27l-5.32-7.2-13,4.86.73,8.94a83.09,83.09,0,0,0-12,7.43l-7.72-4.61L983.07,370l4.08,8a82,82,0,0,0-8.24,11.45L970,388.11l-5.74,12.68,6.82,5.8a82.67,82.67,0,0,0-3.22,13.73l-8.72,2.18-.45,13.9,8.53,2.75a85,85,0,0,0,2.24,13.94l-7.2,5.32,4.89,13,8.93-.68a85,85,0,0,0,7.44,12L979,490.4l9.49,10.17,8-4.08a85.84,85.84,0,0,0,11.46,8.24l-1.32,8.84,12.65,5.77,5.83-6.8a86.76,86.76,0,0,0,13.75,3.19l2.16,8.71,13.89.5,2.78-8.56a81.18,81.18,0,0,0,13.91-2.27l5.33,7.2,13-4.86-.73-8.94a82.1,82.1,0,0,0,12-7.43Zm-72.27-58.55a19.8,19.8,0,1,1,28,1A19.8,19.8,0,0,1,1036.56,446.12Z"/><path class="cls-1" d="M727.69,180.31,696,158.45s0,0,0-.07a174.43,174.43,0,0,0-12.72-33l8.1-31.82L645.5,44.43l-32.31,5.92a173.91,173.91,0,0,0-32-14.94l-.08,0L561.47,2.3,494.26,0,472.4,31.65l-.12,0a173.36,173.36,0,0,0-32.93,12.71l-31.8-8.11L358.39,82.19l5.9,32.24,0,0a170.26,170.26,0,0,0-14.94,32.11l-33.08,19.64L314,233.43l31.67,21.87a169.34,169.34,0,0,0,12.69,33.11h0l-8.08,31.72,45.9,49.16,32.11-5.88a175.27,175.27,0,0,0,32.27,15h0l19.61,33,67.22,2.31,21.84-31.63a175,175,0,0,0,33.2-12.72h0l31.66,8.07,49.16-45.9-5.9-32.25a171,171,0,0,0,14.95-32.12h0l33.08-19.64ZM518.21,282.48a75.63,75.63,0,1,1,78.18-73A75.65,75.65,0,0,1,518.21,282.48Z"/><path class="cls-1" d="M1025.05,144l-4.95-3.41h0a26.67,26.67,0,0,0-2-5.15l1.27-5-7.17-7.68-5.05.92a27.15,27.15,0,0,0-5-2.33h0l-3.07-5.16-10.5-.36-3.41,4.94h0a27.6,27.6,0,0,0-5.15,2l-5-1.27-7.68,7.17.92,5h0a26.27,26.27,0,0,0-2.34,5l-5.17,3.07-.36,10.5,5,3.42a26.46,26.46,0,0,0,2,5.17h0l-1.27,5,7.17,7.68,5-.92a27.55,27.55,0,0,0,5,2.34h0l3.06,5.16,10.5.36,3.41-4.94a27,27,0,0,0,5.19-2h0l4.95,1.26,7.68-7.17-.93-5a26.07,26.07,0,0,0,2.34-5h0l5.17-3.07Zm-32.73,16a11.81,11.81,0,1,1,12.22-11.4A11.82,11.82,0,0,1,992.32,160Z"/><polygon class="cls-1" points="139.76 448.17 99.18 437.27 88.29 396.7 104.17 380.81 120.93 415.52 155.65 432.28 139.76 448.17"/><path class="cls-1" d="M142.28,421a18.94,18.94,0,1,0-26.78-26.78L135.68,364l27.07,13.69,5.93,28.44Z"/><path class="cls-1" d="M101,384l29.74-29.73,40.57,10.89,10.9,40.58-29.74,29.74-40.57-10.9Zm54,24.31a18.93,18.93,0,1,0-26.78-.05A19,19,0,0,0,155,408.32Z"/><polygon class="cls-1" points="104.38 273.51 116.16 270.35 119.33 258.57 114.71 253.96 109.85 264.03 99.77 268.9 104.38 273.51"/><path class="cls-1" d="M103.65,265.63a5.5,5.5,0,1,1,7.77-7.78l-5.85-8.79-7.86,4L96,261.29Z"/><path class="cls-1" d="M115.64,254.89,107,246.25l-11.78,3.17L92.07,261.2l8.63,8.63,11.78-3.17ZM100,261.94a5.49,5.49,0,1,1,7.77,0A5.51,5.51,0,0,1,100,261.94Z"/><path class="cls-1" d="M830.22,176.93l9.77,9.78a6.56,6.56,0,0,0,9.26,0h0a6.58,6.58,0,0,0,0-9.26l-9.78-9.77a6.55,6.55,0,0,0-9.25,0h0A6.55,6.55,0,0,0,830.22,176.93Z"/><path class="cls-1" d="M823.33,152.58c7.53-2.7,15.7.84,18.24,7.91s-1.51,15-9,17.7-15.7-.83-18.24-7.9S815.79,155.29,823.33,152.58Z"/><rect class="cls-1" x="825.83" y="149.93" width="4.19" height="30.91" transform="translate(952.15 1000.49) rotate(-109.76)"/><ellipse id="_Path_" data-name="&lt;Path&gt;" class="cls-1" cx="593.34" cy="639.29" rx="593.34" ry="34.65"/><path class="cls-2" d="M509,298.4c4.25-68.56-3.57-193.18,125.3-176.68,138.12,17.68,98.61,179.19,98.61,179.19Z"/><circle class="cls-3" cx="597.97" cy="200.96" r="56.23"/><path class="cls-4" d="M605.35,144.82c-26.63-4.55-55.11,15.08-57.92,35L653,189.5C649.31,166.83,626.49,148.43,605.35,144.82Z"/><path class="cls-4" d="M641,199.56c-.76,14.7-8.77,26.24-17.9,25.77s-15.91-12.76-15.16-27.47,8.77-26.24,17.9-25.77S641.75,184.86,641,199.56Z"/><path class="cls-5" d="M598,260.25A59.29,59.29,0,1,1,657.26,201,59.36,59.36,0,0,1,598,260.25Zm0-112.46A53.17,53.17,0,1,0,651.14,201,53.24,53.24,0,0,0,598,147.79Z"/><path class="cls-6" d="M717.23,296.67a1.47,1.47,0,0,1-.36,0,1.52,1.52,0,0,1-1.13-1.84c.1-.42,9.85-41.91-.28-83.86a1.53,1.53,0,0,1,3-.72c10.3,42.69.37,84.87.27,85.29A1.51,1.51,0,0,1,717.23,296.67Z"/><path class="cls-6" d="M708.7,188a1.54,1.54,0,0,1-1.4-.89,107.57,107.57,0,0,0-14.51-23.43,1.55,1.55,0,0,1,.22-2.16,1.53,1.53,0,0,1,2.15.22,111.4,111.4,0,0,1,14.93,24.09,1.53,1.53,0,0,1-.76,2A1.41,1.41,0,0,1,708.7,188Z"/><path class="cls-2" d="M222.24,620H221.1a15.3,15.3,0,0,1,.84-30.59h.3c8.84,0,30.11-10.74,74.6-80.88a15.3,15.3,0,0,1,23-3.33c54.91,47.87,113.09,77.66,113.67,78a15.3,15.3,0,0,1-13.85,27.29c-2.31-1.17-53.16-27.18-106.49-70.84C275.85,595.62,248.18,620,222.24,620Z"/><path class="cls-2" d="M316.91,502.39a8.35,8.35,0,0,1-1.31-.1,9.17,9.17,0,0,1-7.79-10.38c2.18-15.23-.52-72.3-19.81-116.68A9.17,9.17,0,0,1,291.24,364c41.92-28.57,131.21-32,135-32.12a9.18,9.18,0,0,1,.64,18.35c-.83,0-78.9,3-119,25.1,17.09,44.19,21,99.26,18.12,119.19A9.19,9.19,0,0,1,316.91,502.39Z"/><path class="cls-5" d="M332.33,490.5c-6.11-14.4-33.62-12.76-49.78-.42-8.64,6.59-20.32,26.44-21.55,33.63s3.75,13.71,12.31,13c10.55-.91,25-16.24,25-16.24-9.63,9.45,2.8,16.11,21.36,2.45C330,515.31,339.17,506.63,332.33,490.5Z"/><path class="cls-4" d="M858.67,302.44a1.53,1.53,0,0,1-1.47-1.95c4.07-14.2,8.53-22.88,14.38-27.7a15.83,15.83,0,0,1,.47-10,19.71,19.71,0,0,1,7.23-9.2,7.79,7.79,0,0,1-1.81-7.29c.69-3.18,3-6.64,6.54-9.65a7,7,0,0,1-1.74-4.62c-.08-9.13,16.85-23,36-25.64a1.5,1.5,0,0,1,1.72,1.31,1.53,1.53,0,0,1-1.31,1.72c-18.17,2.48-33.41,15.64-33.35,22.58a4,4,0,0,0,1.11,2.77,37.48,37.48,0,0,1,28.4-5.7c9.4,1.79,13.22,3.78,12.77,6.63-.83,5.36-20.83,6.47-34.24,4.87a18.75,18.75,0,0,1-6.89-2c-3.33,2.73-5.46,5.79-6,8.36a4.82,4.82,0,0,0,1.51,5c5.68-2.93,13.68-4.15,24.23-1.82,13.88,3.06,14.4,4.76,14.71,5.76a2,2,0,0,1-.49,2c-2.93,3.1-24.2,1.63-34.88-1a15.15,15.15,0,0,1-3.68-1.38,16.74,16.74,0,0,0-6.94,8.29,13.18,13.18,0,0,0-.69,7c.55-.33,1.11-.62,1.69-.9,6.33-3,14-2.5,23.42,1.53,6.26,2.68,9.28,5.05,9.5,7.47a3.41,3.41,0,0,1-1.75,3.19c-4.67,3.1-21,2.63-29.53-1.9a12,12,0,0,1-4.7-4.55c-5,4.57-9,12.75-12.72,25.57A1.54,1.54,0,0,1,858.67,302.44Zm16.6-28.56a9.06,9.06,0,0,0,3.73,3.73c6.91,3.67,20.5,4.51,25.59,2.46,1-.42,1.2-.77,1.2-.78s-.17-1.72-7.65-4.92c-8.58-3.67-15.42-4.19-20.91-1.59A18.09,18.09,0,0,0,875.27,273.88Zm10.2-20.1.8.22c10.8,2.64,25.39,3.1,30.39,2.27a69.39,69.39,0,0,0-11.12-3.11C897.05,251.29,890.41,251.87,885.47,253.78Zm3.86-17.2a19.6,19.6,0,0,0,4.4,1c15.25,1.8,28.71-.33,30.73-2.23-.52-.47-2.58-1.78-10.19-3.24A34.5,34.5,0,0,0,889.33,236.58Z"/><path class="cls-4" d="M460.3,614.84c2-.64,1.34-2.59-.91-2.59H418c-78.89-8.35-134,2.84-99.28,5.48s-2.45,2.09-27.82,11.69,188.68,12,208.14,0C517,618.34,432.34,623.8,460.3,614.84Z"/><polygon class="cls-5" points="756.96 627.05 396.46 615.1 381.5 265.56 807.21 275.08 756.96 627.05"/><path class="cls-4" d="M509,620.37a1.53,1.53,0,0,1-1.52-1.41L478.61,267.9a1.53,1.53,0,0,1,3.05-.26l28.9,351.07a1.53,1.53,0,0,1-1.4,1.65Z"/><polygon class="cls-7" points="756.96 627.05 853.85 612.3 884.37 287.28 807.21 275.08 756.96 627.05"/><polygon class="cls-8" points="756.96 627.05 853.85 612.3 884.37 287.28 807.21 275.08 756.96 627.05"/><path class="cls-2" d="M427.27,547.73l-8.89-207.67a37.55,37.55,0,0,1,38.35-39.14l269.48,6a37.56,37.56,0,0,1,36.33,42.85L732.66,559.07a37.54,37.54,0,0,1-38.41,32.22l-230.71-7.64A37.55,37.55,0,0,1,427.27,547.73Z"/><path class="cls-3" d="M456.38,364.64,498.07,366l-.34,10.75-26.1-.83-.25,8,24.21.77-.33,10.27-24.21-.77-.32,9.92,26.86.86-.36,11.4L454.78,415Z"/><path class="cls-3" d="M505.81,416.61l1.61-50.34,25.92.82a37.8,37.8,0,0,1,11,1.59,11.76,11.76,0,0,1,6,4.78,13.9,13.9,0,0,1,2.08,8.23,13.48,13.48,0,0,1-7.09,11.94,18.8,18.8,0,0,1-5.53,1.82,15.51,15.51,0,0,1,4,2,16,16,0,0,1,2.41,2.72,21,21,0,0,1,2.08,3.2l7.07,14.83-17.58-.56L529.93,402a11.86,11.86,0,0,0-2.69-4,6.62,6.62,0,0,0-3.78-1.29l-1.37,0-.65,20.43Zm16.58-29.45,6.56.21a22.79,22.79,0,0,0,4.14-.55,4.18,4.18,0,0,0,2.58-1.5,5.1,5.1,0,0,0-.36-6.68c-1-.91-2.92-1.4-5.76-1.49l-6.83-.22Z"/><path class="cls-3" d="M560.52,418.35l1.6-50.34,25.93.82a37.8,37.8,0,0,1,11,1.59,11.81,11.81,0,0,1,6,4.78,14.22,14.22,0,0,1-5,20.18,18.65,18.65,0,0,1-5.52,1.81,10.56,10.56,0,0,1,6.39,4.71,19.52,19.52,0,0,1,2.08,3.2L610,419.93l-17.58-.56-7.82-15.65a11.86,11.86,0,0,0-2.69-4,6.62,6.62,0,0,0-3.78-1.29l-1.37,0-.65,20.43Zm16.58-29.44,6.56.2a22.79,22.79,0,0,0,4.14-.55,4.09,4.09,0,0,0,2.58-1.5,4.75,4.75,0,0,0,1.07-2.89,4.64,4.64,0,0,0-1.43-3.79q-1.5-1.35-5.76-1.49l-6.84-.22Z"/><path class="cls-3" d="M612.66,394.85q.39-12.33,7.48-19t19.35-6.26q12.57.4,19.15,7.36t6.2,19.13q-.29,8.82-3.43,14.38a21.22,21.22,0,0,1-8.86,8.52q-5.71,3-14.1,2.69t-14-3.16a21.27,21.27,0,0,1-8.78-8.87Q612.38,403.68,612.66,394.85Zm15.56.56q-.24,7.63,2.48,11a10.72,10.72,0,0,0,15.47.56q2.85-3.18,3.12-11.62.23-7.11-2.54-10.48a9.78,9.78,0,0,0-7.67-3.53,9.45,9.45,0,0,0-7.66,3.09Q628.47,387.72,628.22,395.41Z"/><path class="cls-3" d="M672.61,421.92l1.61-50.35,25.93.83a37.44,37.44,0,0,1,11,1.59,11.72,11.72,0,0,1,6,4.78,14.22,14.22,0,0,1-5,20.17,18.7,18.7,0,0,1-5.53,1.82,15.53,15.53,0,0,1,4,2,16.2,16.2,0,0,1,2.41,2.73,20.5,20.5,0,0,1,2.08,3.2l7.07,14.83-17.58-.56-7.83-15.65a11.75,11.75,0,0,0-2.69-4,6.48,6.48,0,0,0-3.78-1.29l-1.37,0-.65,20.44Zm16.58-29.45,6.56.21a24,24,0,0,0,4.15-.55,4.18,4.18,0,0,0,2.57-1.5,5.1,5.1,0,0,0-.36-6.68c-1-.91-2.92-1.4-5.76-1.49l-6.83-.22Z"/><path class="cls-3" d="M697.38,507.46a4,4,0,0,1-3-1.3l-26.2-28.68L640,503.31a4,4,0,0,1-5.68-.25l-26.2-28.67-28.26,25.82a4,4,0,0,1-5.68-.25l-26.19-28.67-28.27,25.83a4,4,0,0,1-2.89,1,4,4,0,0,1-2.78-1.3l-26.2-28.67L459.53,494a4,4,0,0,1-5.42-5.93l31.23-28.54a4,4,0,0,1,5.68.26l26.2,28.67,28.26-25.83a4.07,4.07,0,0,1,2.89-1,4,4,0,0,1,2.79,1.3l26.19,28.67,28.27-25.82a4,4,0,0,1,5.68.25l26.19,28.67,28.27-25.82a4,4,0,0,1,5.67.25l28.91,31.63a4,4,0,0,1-.26,5.68A4,4,0,0,1,697.38,507.46Z"/><polygon class="cls-9" points="213.11 634.49 193.96 625.35 176.87 542.22 186.14 532 213.11 634.49"/><polygon class="cls-9" points="213.11 634.49 238.52 619.64 216.74 551.14 186.14 532 213.11 634.49"/><polygon class="cls-10" points="213.11 634.49 238.52 619.64 216.74 551.14 186.14 532 213.11 634.49"/><path class="cls-2" d="M629.9,649.6c-.72,0-1.43,0-2.11,0a15.3,15.3,0,1,1,.83-30.59c23.58.77,73.47-13.71,102-41.38a15.23,15.23,0,0,1,6.26-3.67c48.31-14.5,66.29,14.79,67,16.05l-26.34,15.57a4.19,4.19,0,0,0,.35.56c-.29-.4-7.14-9.3-28.93-3.79C713.21,635,658.31,649.6,629.9,649.6Z"/><polygon class="cls-5" points="628.2 669.94 572.47 666.43 568.07 563.68 642.98 566.48 628.2 669.94"/><polygon class="cls-5" points="628.2 669.94 641.23 656.97 649.31 592.9 642.98 566.48 628.2 669.94"/><polygon class="cls-11" points="628.2 669.94 641.23 656.97 649.31 592.9 642.98 566.48 628.2 669.94"/><path class="cls-2" d="M951.1,631a9.15,9.15,0,0,1-5.55-1.87c-31.81-24.18-74.81-67.1-91.3-108.51a8.68,8.68,0,0,1-.53-1.87c-8-47.84-15.73-148.55-16.05-152.81a9.18,9.18,0,1,1,18.3-1.39c.08,1,7.84,102.72,15.7,150.17,16.45,40.26,61.07,81.61,85,99.79A9.18,9.18,0,0,1,951.1,631Z"/><path class="cls-4" d="M993.54,635.67c-7.1,0-15.15-3.22-23.92-9.57a9.18,9.18,0,0,1,10.77-14.87c7.58,5.48,11.72,6.08,13.15,6.08a9.18,9.18,0,1,1,0,18.36Z"/><path class="cls-5" d="M972.2,625.84c9.82-29.18,50.09-23.41,64-19.08s26.36,9.79,33.87,14.7,7.64,13.11-2.38,17.8c-12.35,5.78-43.34.65-43.34.65,16,7,0,18.27-28.16,7.22C987,643.53,968.73,636.53,972.2,625.84Z"/><path class="cls-2" d="M874.45,378.56c-3.65,24.79-24.18,43.08-40.88,40.62s-17.4-24.6-13.75-49.39,10.25-42.85,26.95-40.39S878.09,353.77,874.45,378.56Z"/><circle class="cls-4" cx="470.54" cy="277.08" r="2.51"/><path class="cls-4" d="M496.05,295.15a2.51,2.51,0,1,1-2.51-2.51A2.51,2.51,0,0,1,496.05,295.15Z"/><path class="cls-4" d="M498.85,591.69a2.51,2.51,0,1,1-2.51-2.51A2.51,2.51,0,0,1,498.85,591.69Z"/><path class="cls-4" d="M521.85,609.76a2.51,2.51,0,1,1-2.51-2.51A2.51,2.51,0,0,1,521.85,609.76Z"/><path class="cls-4" d="M80.79,639.85c-7.29,0-17.13-4.42-22.45-12.09A1.53,1.53,0,0,1,60.86,626c5.71,8.25,18.3,12.64,23.89,10a4.3,4.3,0,0,0,1.43-1,18.53,18.53,0,0,1-10.79-13.71c-.7-3.88-1.25-9.12,2-9.84,4.39-1,10.13,9.62,12.34,17.67a10.93,10.93,0,0,1,.4,4.11,13.61,13.61,0,0,0,5.47.43,5.9,5.9,0,0,0,4.2-2.28c-3.71-2.51-6.22-6.94-7-12.82-1.19-8.37-.3-9.83.63-10.54a2.05,2.05,0,0,1,2.11-.24c3.27,1.39,7.24,13.26,8,20a9.41,9.41,0,0,1,0,2.12,11.68,11.68,0,0,0,4.13.8,13.3,13.3,0,0,0,7.37-1.92,12.12,12.12,0,0,1-1.23-.9c-3.17-2.72-4.45-7-3.92-13.26.42-4.79,1.51-7.42,3.44-8.24a3.48,3.48,0,0,1,3.7.73c3.3,2.64,6.39,11,5.28,17a9,9,0,0,1-1.54,3.52c5.61,1,13.52-.61,20.33-2.29a1.53,1.53,0,1,1,.73,3c-8.29,2-17.22,3.72-23.52,1.89a17.37,17.37,0,0,1-10.71,3.55,14.77,14.77,0,0,1-5-.94,8.65,8.65,0,0,1-6.5,3.89,16.5,16.5,0,0,1-6.85-.59,7,7,0,0,1-3.1,2.71A12.51,12.51,0,0,1,80.79,639.85Zm-2.65-25.33c-.18.47-.5,2,.26,6.25a15.53,15.53,0,0,0,8.69,11.35,9.25,9.25,0,0,0-.36-2.17C84.33,621.21,79.76,615.18,78.14,614.52Zm17-2.67a42.94,42.94,0,0,0,.54,6.3c.62,4.37,2.23,7.72,4.65,9.86A48.36,48.36,0,0,0,95.19,611.85Zm19.25-2.66h0s-1.14.58-1.59,5.69.49,8.64,2.86,10.67a8.13,8.13,0,0,0,1.83,1.16,6.55,6.55,0,0,0,1.67-3.15c.82-4.43-1.3-10.93-3.66-13.56C114.92,609.32,114.53,609.19,114.44,609.19Z"/><polygon class="cls-4" points="528.68 662.98 536.98 648.6 528.68 634.21 519.8 634.21 524.82 648.6 519.8 662.98 528.68 662.98"/><path class="cls-4" d="M520.39,656.09a7.48,7.48,0,1,1,0-15l-14.1-2.82-3.74,11.38,6.29,9.61Z"/><path class="cls-9" d="M521.59,634.21H505l-8.3,14.39L505,663h16.61l8.3-14.38Zm-8.29,21.88a7.48,7.48,0,1,1,7.47-7.49A7.51,7.51,0,0,1,513.3,656.09Z"/><polygon class="cls-9" points="1107.11 633.26 1100.95 622.57 1107.11 611.89 1113.7 611.89 1109.97 622.57 1113.7 633.26 1107.11 633.26"/><path class="cls-9" d="M1113.26,628.14a5.56,5.56,0,1,0,0-11.11l10.48-2.1,2.77,8.46-4.67,7.13Z"/><path class="cls-4" d="M1112.37,611.89h12.34l6.16,10.68-6.16,10.69h-12.34l-6.16-10.69Zm6.16,16.25a5.56,5.56,0,1,0-5.55-5.57A5.58,5.58,0,0,0,1118.53,628.14Z"/><path class="cls-4" d="M877.77,647.43H891.6a6.56,6.56,0,0,0,6.54-6.54h0a6.56,6.56,0,0,0-6.54-6.55H877.77a6.56,6.56,0,0,0-6.54,6.55h0A6.56,6.56,0,0,0,877.77,647.43Z"/><path class="cls-9" d="M855.68,635.09c3.42-7.24,11.69-10.52,18.49-7.31s9.54,11.67,6.13,18.91S868.6,657.2,861.81,654,852.27,642.33,855.68,635.09Z"/><rect class="cls-4" x="865.89" y="625.43" width="4.19" height="30.91" transform="translate(1379.79 1590.73) rotate(-154.76)"/></g></g></svg>