<svg xmlns="http://www.w3.org/2000/svg" viewBox="0 0 1444.43 1288.27"><defs><style>.cls-1{fill:#b5d4ff;}.cls-2{fill:#0080ff;}.cls-3{fill:#e1eaf7;}.cls-4{fill:#10273b;}</style></defs><title>Zasób 32</title><g id="Warstwa_2" data-name="Warstwa 2"><g id="DESIGNED_BY_FREEPIK" data-name="DESIGNED BY FREEPIK"><path class="cls-1" d="M1216.59,794.11a4,4,0,0,1-.91-.1,4.1,4.1,0,0,1-3.1-4.9c7.89-34.9,11.88-73.17,11.88-113.74v-2.68a4.11,4.11,0,0,1,8.21,0v2.68c0,41.17-4.07,80-12.09,115.55A4.1,4.1,0,0,1,1216.59,794.11Z"/><path class="cls-1" d="M1168.75,839.46a4.12,4.12,0,0,1-4-5.07c13.76-56.91,20-135.58,20-184.61,0-11.37,3.64-20.57,10.25-25.9a4.1,4.1,0,1,1,5.15,6.38c-4.64,3.75-7.2,10.68-7.2,19.52,0,49.49-6.33,129-20.24,186.54A4.11,4.11,0,0,1,1168.75,839.46Z"/><path class="cls-1" d="M1264.8,697.71a4.1,4.1,0,0,1-4.11-4.1c0-22.71-16.11-50.48-35.9-61.92a4.1,4.1,0,1,1,4.1-7.1c22.06,12.74,40,43.7,40,69A4.1,4.1,0,0,1,1264.8,697.71Z"/><path class="cls-1" d="M1252.74,811.15a3.89,3.89,0,0,1-.68,0,4.11,4.11,0,0,1-3.37-4.72c3.53-21.17,6.35-41,8.4-58.81a4.1,4.1,0,1,1,8.14.93c-2.06,18-4.9,37.92-8.45,59.22A4.1,4.1,0,0,1,1252.74,811.15Z"/><path class="cls-1" d="M1238.13,778.45a3.86,3.86,0,0,1-.58,0,4.1,4.1,0,0,1-3.48-4.64c5.49-38.28,8.51-69.51,8.51-87.95v-2.67c0-11-8.15-25.1-17.79-30.67-3.93-2.27-7.55-2.78-10-1.4s-3.72,4.71-3.72,9.16c0,5.54-.17,12.11-.5,19.52a4.17,4.17,0,0,1-4.28,3.91,4.1,4.1,0,0,1-3.92-4.28c.33-7.29.5-13.73.5-19.15,0-7.57,2.78-13.34,7.82-16.26s11.53-2.44,18.17,1.4c12.27,7.08,21.89,23.68,21.89,37.77v2.67c0,18.82-3,50.46-8.59,89.11A4.11,4.11,0,0,1,1238.13,778.45Z"/><path class="cls-1" d="M1188.07,857a3.63,3.63,0,0,1-.65,0,4.1,4.1,0,0,1-3.4-4.7c5.27-32.82,11.32-83.21,15-125.39a4.1,4.1,0,0,1,8.17.72c-3.74,42.36-9.82,93-15.12,126A4.11,4.11,0,0,1,1188.07,857Z"/><path class="cls-1" d="M1314.16,814.86l-.51,0a4.11,4.11,0,0,1-3.57-4.58,668.19,668.19,0,0,0,5-82.59V725c0-39-19.77-86.79-50.37-121.9a4.1,4.1,0,0,1,6.18-5.39c32.32,37.08,52.39,85.85,52.39,127.29v2.67a676.9,676.9,0,0,1-5,83.61A4.09,4.09,0,0,1,1314.16,814.86Z"/><path class="cls-1" d="M1134.54,622.51a4.1,4.1,0,0,1-4.1-4.1c0-29.65,10.27-51.91,28.91-62.67,18.79-10.85,43.5-8.55,69.54,6.49a4.1,4.1,0,0,1-4.1,7.1c-23.41-13.51-45.19-15.82-61.34-6.49s-24.81,29-24.81,55.57A4.11,4.11,0,0,1,1134.54,622.51Z"/><path class="cls-1" d="M1117.39,776.18a4,4,0,0,1-1-.11,4.11,4.11,0,0,1-3-5c9.6-39.56,15.2-82.72,16.66-128.29a4.09,4.09,0,0,1,4.09-4h.14a4.09,4.09,0,0,1,4,4.23c-1.47,46.13-7.15,89.85-16.88,130A4.09,4.09,0,0,1,1117.39,776.18Z"/><path class="cls-1" d="M1328.83,850.56a3.88,3.88,0,0,1-.67-.06,4.09,4.09,0,0,1-3.38-4.71,667.49,667.49,0,0,0,8.37-107.67v-2.68c0-68.55-48.61-152.39-108.36-186.89-28.3-16.35-54.65-19.12-74.22-7.83-19.38,11.18-30,35.06-30,67.23,0,49.83-4.87,97-14.47,140.16a4.1,4.1,0,0,1-8-1.78c9.48-42.59,14.28-89.15,14.28-138.38,0-35.23,12.13-61.62,34.15-74.33,22.2-12.83,51.48-10,82.42,7.82,62,35.81,112.47,122.84,112.47,194v2.68a675.87,675.87,0,0,1-8.49,109A4.1,4.1,0,0,1,1328.83,850.56Z"/><path class="cls-1" d="M1275.16,802.87a3.31,3.31,0,0,1-.62,0,4.09,4.09,0,0,1-3.43-4.67c5-33.08,7.7-64.69,7.7-91.41v-2.67c0-34.17-24.24-76-54-93.16-13.7-7.91-26.36-9.31-35.65-3.95s-14.27,16.81-14.27,32.37a4.1,4.1,0,0,1-8.2,0c0-18.62,6.52-32.63,18.36-39.47s27.51-5.49,43.86,3.94c32,18.5,58.12,63.49,58.12,100.27v2.67c0,27.13-2.69,59.17-7.8,92.65A4.09,4.09,0,0,1,1275.16,802.87Z"/><path class="cls-1" d="M1151.26,820.83a3.69,3.69,0,0,1-.93-.11,4.1,4.1,0,0,1-3.07-4.92,767.6,767.6,0,0,0,18.65-140.41,4.19,4.19,0,0,1,4.27-3.93,4.1,4.1,0,0,1,3.92,4.27,775.17,775.17,0,0,1-18.85,141.92A4.1,4.1,0,0,1,1151.26,820.83Z"/><path class="cls-1" d="M1133.16,798.51a4,4,0,0,1-1-.13,4.11,4.11,0,0,1-3-5,587.3,587.3,0,0,0,12.58-63.87,4.1,4.1,0,0,1,8.13,1.14,594,594,0,0,1-12.77,64.78A4.09,4.09,0,0,1,1133.16,798.51Z"/><path class="cls-1" d="M1148.28,714.74l-.46,0a4.11,4.11,0,0,1-3.62-4.53,740.68,740.68,0,0,0,4.35-81.33c0-15.78,3.7-29.31,10.68-39.14a4.1,4.1,0,0,1,6.69,4.75c-6,8.44-9.17,20.33-9.17,34.39a749.37,749.37,0,0,1-4.4,82.23A4.1,4.1,0,0,1,1148.28,714.74Z"/><path class="cls-1" d="M1290.76,669.53a4.1,4.1,0,0,1-3.81-2.59c-13-32.75-36.82-62.19-62.16-76.82-14.82-8.56-28.84-11.49-40.51-8.47a4.1,4.1,0,1,1-2.06-7.94c13.8-3.58,29.94-.35,46.67,9.3,26.87,15.52,52,46.52,65.68,80.9a4.1,4.1,0,0,1-2.3,5.33A4,4,0,0,1,1290.76,669.53Z"/><path class="cls-1" d="M1293.39,821.44a5.14,5.14,0,0,1-.66-.05,4.1,4.1,0,0,1-3.39-4.7,629,629,0,0,0,7.58-99.49v-2.67a4.11,4.11,0,0,1,8.21,0v2.67A637.11,637.11,0,0,1,1297.44,818,4.11,4.11,0,0,1,1293.39,821.44Z"/><path class="cls-1" d="M262.21,645.26,24.81,508.2C11.11,500.29,0,479.07,0,460.8V437.42c0-18.27,11.11-26.66,24.81-18.75l237.4,137.07c13.7,7.91,24.81,29.13,24.81,47.39v23.38C287,644.78,275.91,653.17,262.21,645.26Z"/><path class="cls-2" d="M742.43,378.73a219.62,219.62,0,0,0-1.9-27l45.08-5.7a407.92,407.92,0,0,0-20.43-68.25l-51.37-15.53a360.3,360.3,0,0,0-32-55.15l12.31-51.84A412.35,412.35,0,0,0,645,103.37L617.3,139.14a225,225,0,0,0-22.6-15.24A174.72,174.72,0,0,0,572.1,113L544.45,45.35c-17.47-4.82-34-6.39-49.2-5l12.31,66.05a70.51,70.51,0,0,0-32,18.23L424.22,80.89c-8.9,12.32-15.85,27.25-20.43,44.65l45.07,57.76a171.73,171.73,0,0,0-1.9,24.84,221.43,221.43,0,0,0,1.9,27l-45.07,5.7a407.26,407.26,0,0,0,20.43,68.25l51.36,15.54a360.74,360.74,0,0,0,32,55.14l-12.31,51.84a411.63,411.63,0,0,0,49.2,51.85l27.65-35.77A222.7,222.7,0,0,0,594.7,463a173.47,173.47,0,0,0,22.6,10.86L645,541.51c17.47,4.83,34,6.39,49.2,5l-12.31-66.05a70.55,70.55,0,0,0,32-18.22L765.18,506c8.9-12.33,15.84-27.25,20.43-44.65l-45.08-57.76A170.3,170.3,0,0,0,742.43,378.73ZM596.12,420.61c-61.6-35.56-111.53-121.69-111.53-192.37s49.93-99.15,111.53-63.58S707.64,286.34,707.64,357,657.71,456.17,596.12,420.61Z"/><path class="cls-2" d="M521.54,564.56a156.63,156.63,0,0,0-1.37-19.37l32.31-4.09a291.39,291.39,0,0,0-14.64-48.91L501,481.05a258.11,258.11,0,0,0-22.91-39.52l8.82-37.15a294.9,294.9,0,0,0-35.26-37.16l-19.82,25.63a160.67,160.67,0,0,0-16.19-10.92,125.15,125.15,0,0,0-16.2-7.78l-19.82-48.52a98.29,98.29,0,0,0-35.26-3.55l8.82,47.33a50.69,50.69,0,0,0-22.91,13.07L293.48,351.1a96.25,96.25,0,0,0-14.65,32l32.31,41.39a121.68,121.68,0,0,0-1.37,17.8,156.5,156.5,0,0,0,1.37,19.37l-32.31,4.09a292.48,292.48,0,0,0,14.65,48.92l36.81,11.13a259.29,259.29,0,0,0,22.91,39.52l-8.82,37.15a294.9,294.9,0,0,0,35.26,37.16L399.46,614a159.67,159.67,0,0,0,16.2,10.92,124.43,124.43,0,0,0,16.19,7.78l19.82,48.52a98.08,98.08,0,0,0,35.26,3.56l-8.82-47.34A50.57,50.57,0,0,0,501,624.39l36.82,31.37a96,96,0,0,0,14.64-32l-32.31-41.39A121.57,121.57,0,0,0,521.54,564.56Zm-104.87,30c-44.14-25.49-79.93-87.21-79.93-137.87s35.79-71.06,79.93-45.57S496.61,498.35,496.61,549,460.82,620.07,416.67,594.58Z"/><path class="cls-2" d="M370.4,221.49a142.64,142.64,0,0,0-1.25-17.68l29.47-3.72a266.46,266.46,0,0,0-13.36-44.62l-33.57-10.15a236.16,236.16,0,0,0-20.9-36l8-33.89A269.43,269.43,0,0,0,306.68,41.5L288.6,64.88a146.5,146.5,0,0,0-14.77-10,114.35,114.35,0,0,0-14.77-7.1L241,3.57A89.57,89.57,0,0,0,208.82.33l8.05,43.17A46.18,46.18,0,0,0,196,55.42L162.4,26.8A87.73,87.73,0,0,0,149,56l29.47,37.76A110.57,110.57,0,0,0,177.26,110a142.49,142.49,0,0,0,1.25,17.67L149,131.38A266.63,266.63,0,0,0,162.4,176L196,186.14a236.26,236.26,0,0,0,20.9,36.05l-8.05,33.88A269.53,269.53,0,0,0,241,290l18.08-23.38a144.85,144.85,0,0,0,14.77,10,113.05,113.05,0,0,0,14.77,7.1l18.08,44.25a89.53,89.53,0,0,0,32.15,3.24l-8-43.17A46.09,46.09,0,0,0,351.69,276l33.57,28.62a87.73,87.73,0,0,0,13.36-29.19l-29.47-37.75A110.68,110.68,0,0,0,370.4,221.49Zm-95.64,27.37c-40.26-23.24-72.9-79.54-72.9-125.74s32.64-64.81,72.9-41.56,72.9,79.54,72.9,125.74S315,272.11,274.76,248.86Z"/><path class="cls-2" d="M1220.2,980.85q-8.91-16.22-8.9-36.39V851.92q0-20.17,8.9-26.12t25.84,3.85a66.89,66.89,0,0,1,25.85,26q8.89,16.22,8.9,36.4v18.21l-22.31-12.88V877.44q0-16-11.79-22.81t-11.8,9.19v96.23q0,15.75,11.8,22.56t11.79-8.94V947.33l22.31,12.88v24.37q0,20.17-8.9,26.11t-25.85-3.84A67,67,0,0,1,1220.2,980.85Z"/><polygon class="cls-2" points="1288.72 856.75 1312.53 870.49 1327.97 1013.05 1328.4 1013.3 1343.84 888.57 1365.51 901.08 1342.77 1060.23 1311.46 1042.15 1288.72 856.75"/><path class="cls-2" d="M1383.84,1075.33q-8.89-16.21-8.9-36.39V946.4q0-20.17,8.9-26.12t25.85,3.85a66.93,66.93,0,0,1,25.84,26q8.9,16.21,8.9,36.4v18.21l-22.3-12.88V971.92q0-16-11.8-22.81t-11.8,9.19v96.23q0,15.75,11.8,22.56t11.8-8.94v-26.34l22.3,12.88v24.37q0,20.18-8.9,26.11t-25.84-3.84A66.84,66.84,0,0,1,1383.84,1075.33Z"/><path class="cls-1" d="M1034.18,556.13c-86.2-48.77-170.48-132-241.12-238l-.95-.55C721.47,342.05,637.2,327.93,551,277.16l-3.29-1.94,4.65,161.07C568.71,686,653.86,794.63,790.92,1026.75l3.33,1.92c137.06-73.86,222.22-84.2,238.57-315L1037.48,558Z"/><path class="cls-3" d="M1063.17,531c-86.21-48.77-170.48-132-241.12-238l-1-.55C750.46,316.94,666.18,302.81,580,252l-3.3-1.94-28.06,25.67,2.37,1.39c86.2,50.77,170.49,64.89,241.12,40.46l.95.55c70.64,106,154.92,189.19,241.12,238l3.3,1.87-4.66,155.69C1022.15,864.32,982.15,921,917.56,962.79c80.7-47.66,132.25-104.91,144.25-274.22l4.65-155.69Z"/><path class="cls-3" d="M1066.46,532.88l-3.29-1.87c-86.21-48.77-170.48-132-241.12-238l-1-.55-29,25.12.95.55c70.64,106,154.92,189.19,241.12,238l3.3,1.87Z"/><path class="cls-1" d="M1037.48,558l-4.66,155.69C1022.15,864.32,982.15,921,917.56,962.79c80.7-47.66,132.25-104.91,144.25-274.22l4.65-155.69Z"/><path class="cls-4" d="M1025.24,562.36c-84.29-47.69-166.69-129-235.76-232.67l-.93-.54C719.48,353,637.08,339.23,552.8,289.59l-3.23-1.89-27.43,25.09,2.32,1.36c84.28,49.64,166.68,63.45,235.75,39.56l.93.54c69.07,103.64,151.47,185,235.76,232.67l3.22,1.82L995.57,741C985.13,888.24,946,943.69,882.86,984.53c78.91-46.6,129.31-102.58,141-268.12l4.55-152.23Z"/><path class="cls-4" d="M1028.46,564.18l-3.22-1.82c-84.29-47.69-166.69-129-235.76-232.67l-.93-.54-28.34,24.56.93.54c69.07,103.64,151.47,185,235.76,232.67l3.22,1.82Z"/><path class="cls-4" d="M1000.12,588.74,995.57,741C985.13,888.24,946,943.69,882.86,984.53c78.91-46.6,129.31-102.58,141-268.12l4.55-152.23Z"/><path class="cls-1" d="M979.11,606.13c-86.2-48.77-170.48-132-241.12-238l-1-.55c-70.64,24.43-154.91,10.31-241.12-40.46l-3.29-1.94,4.65,161.07C513.64,736,598.79,844.62,735.85,1076.75l3.33,1.92c137.06-73.86,222.22-84.2,238.58-315L982.41,608Z"/><path class="cls-3" d="M1008.1,581c-86.21-48.77-170.48-132-241.12-238l-1-.55C695.39,366.93,611.11,352.81,524.91,302l-3.3-1.94-28.06,25.67,2.37,1.39c86.2,50.77,170.48,64.89,241.12,40.46l1,.55c70.64,106,154.92,189.19,241.12,238l3.3,1.86-4.65,155.7C967.08,914.31,927.08,971,862.49,1012.79c80.7-47.66,132.25-104.92,144.25-274.22l4.65-155.69Z"/><path class="cls-3" d="M1011.39,582.88,1008.1,581c-86.21-48.77-170.48-132-241.12-238l-1-.55-29,25.12,1,.55c70.64,106,154.92,189.19,241.12,238l3.3,1.86Z"/><path class="cls-1" d="M982.41,608l-4.65,155.7C967.08,914.31,927.08,971,862.49,1012.79c80.7-47.66,132.25-104.92,144.25-274.22l4.65-155.69Z"/><path class="cls-4" d="M720.48,971.08c-106.4-176.48-159.91-265.27-172.82-459l-2.94-101.68c68.31,30.88,133.8,40.73,192.8,29,59,79.86,124.47,145.63,192.79,193.63l-2.94,98.28c-12.91,178.81-66.43,205.8-172.84,259.44-5.56,2.82-11.23,5.67-17,8.61Z"/><path class="cls-4" d="M726.39,968.12C620,791.64,566.48,702.86,553.57,509.16l-2.77-96.09c-2-.88-4-1.71-6.08-2.63l2.94,101.68c12.91,193.69,66.42,282.48,172.82,459l17,28.31,5.9-3Z"/><path class="cls-1" d="M1158.25,988.29,828.75,798.05c-6.81-3.92-13.13-4.91-18.47-3.46L799.86,799l1.55,1.39c-4.43,5.17-7.09,13.26-7.09,23.74v200.74c0,25.36,15.41,54.81,34.43,65.79l329.5,190.24a28.21,28.21,0,0,0,12.82,4.08l1.76,1.2,3.66-1.77c10.87-5.38,16.19-13.13,16.19-29.54V1054.08C1192.68,1028.72,1177.27,999.27,1158.25,988.29Z"/><path class="cls-1" d="M1150.69,1284.13,821.19,1093.9c-19-11-34.43-40.44-34.43-65.79V827.37c0-25.36,15.41-37,34.43-26l329.5,190.24c19,11,34.43,40.43,34.43,65.78V1258.1C1185.12,1283.46,1169.71,1295.11,1150.69,1284.13Z"/><polygon class="cls-4" points="1185.12 1122.47 786.76 892.47 786.76 846.76 1185.12 1076.76 1185.12 1122.47"/><polygon class="cls-3" points="1036.02 1118.67 812.94 989.87 812.94 944.16 1036.02 1072.96 1036.02 1118.67"/><polygon class="cls-3" points="1150.98 1185.04 1062.2 1133.78 1062.2 1088.07 1150.98 1139.33 1150.98 1185.04"/><path class="cls-4" d="M915.37,1045.62l-.13-4c2.8,1.49,10.55,4.25,19.18,6.11a23,23,0,0,1-.31-9.25c3-20,9.46-16.91,18.86-10,4.37,3.21,8.88,6.54,13.77,6.61l2,0,.47,2.7c.93,5.31-.12,9.39-3.11,12.13-5.19,4.72-15.68,4.7-25.88,3,8.76,9.35,33.54,6.27,38.79,5l-.12-.52,2.61.21,1.7,3.37-.28.25c1.31,4,5.22,10.27,10.87,15.76,4.58,4.44,13.67,11.57,23.07,9.26l2,4.33c-10.65,2.62-21-5.47-26.17-10.53-5.59-5.43-10.27-12.17-12.41-17.7-7.26,1.58-31.12,4.5-41.49-6.66a17.88,17.88,0,0,1-2.52-3.47C926.91,1050.3,918.48,1047.28,915.37,1045.62Zm32.43-16.76c-4.93-2.85-8.19-1.76-10.33,12.2a18.24,18.24,0,0,0,.19,7.33c10.1,1.84,20.72,2.14,25.68-2.39a8.47,8.47,0,0,0,2.73-6.72c-5-.88-9.7-4.34-13.56-7.18A54.08,54.08,0,0,0,947.8,1028.86Z"/><path class="cls-2" d="M873.39,950.57,543.89,760.33c-6.8-3.93-13.13-4.91-18.46-3.46L515,761.23l1.55,1.39c-4.43,5.17-7.09,13.26-7.09,23.74V987.1c0,25.35,15.41,54.81,34.43,65.79l329.5,190.24a28.19,28.19,0,0,0,12.83,4.07l1.75,1.21,3.66-1.78c10.88-5.37,16.19-13.12,16.19-29.53V1016.35C907.82,991,892.41,961.55,873.39,950.57Z"/><path class="cls-2" d="M865.83,1246.41l-329.5-190.24c-19-11-34.43-40.43-34.43-65.78V789.64c0-25.35,15.42-37,34.43-26l329.5,190.24c19,11,34.44,40.44,34.44,65.79v200.74C900.27,1245.74,884.85,1257.39,865.83,1246.41Z"/><path class="cls-3" d="M820.65,1077.61a6.32,6.32,0,0,1,2.59,5v20.44c0,2-1.11,2.9-2.59,2.05l-7.59-4.39a6.15,6.15,0,0,1-2.59-5v-20.44c0-2,1.16-2.87,2.59-2Zm0,24v-20.45l-7.59-4.38v20.45Z"/><path class="cls-3" d="M839.26,1088.35a6.31,6.31,0,0,1,2.58,5v20.45c0,2-1.11,2.89-2.58,2l-7.6-4.38a6.17,6.17,0,0,1-2.58-5V1086c0-2,1.16-2.87,2.58-2Zm0,24v-20.45l-7.6-4.39V1108Z"/><path class="cls-3" d="M857.87,1099.09a6.32,6.32,0,0,1,2.58,5v20.45c0,2-1.11,2.89-2.58,2l-7.6-4.38a6.18,6.18,0,0,1-2.59-5v-20.45c0-1.94,1.17-2.87,2.59-2Zm0,24v-20.45l-7.6-4.39v20.45Z"/><path class="cls-3" d="M876.47,1109.83a6.33,6.33,0,0,1,2.59,5v20.45c0,2-1.12,2.9-2.59,2l-7.59-4.39a6.15,6.15,0,0,1-2.59-5v-20.45c0-1.94,1.16-2.86,2.59-2Zm0,24v-20.45l-7.59-4.38v20.44Z"/><path class="cls-3" d="M727.89,1024.05a6.31,6.31,0,0,1,2.58,5v20.45c0,2-1.11,2.89-2.58,2l-7.6-4.38a6.17,6.17,0,0,1-2.58-5v-20.45c0-2,1.16-2.87,2.58-2.05Zm0,24v-20.45l-7.6-4.39v20.45Z"/><path class="cls-3" d="M746.5,1034.79a6.32,6.32,0,0,1,2.58,5v20.45c0,2-1.11,2.9-2.58,2l-7.6-4.39a6.17,6.17,0,0,1-2.58-5v-20.45c0-1.94,1.16-2.86,2.58-2Zm0,24v-20.45l-7.6-4.38v20.44Z"/><path class="cls-3" d="M765.1,1045.53a6.3,6.3,0,0,1,2.59,5V1071c0,2-1.11,2.9-2.59,2l-7.59-4.39a6.15,6.15,0,0,1-2.59-5v-20.45c0-1.94,1.17-2.86,2.59-2Zm0,24v-20.45l-7.59-4.38v20.44Z"/><path class="cls-3" d="M783.71,1056.28a6.31,6.31,0,0,1,2.58,5v20.45c0,2-1.11,2.89-2.58,2l-7.6-4.38a6.19,6.19,0,0,1-2.58-5v-20.45c0-2,1.16-2.87,2.58-2Zm0,24v-20.44l-7.6-4.39v20.45Z"/><path class="cls-3" d="M634.06,969.87a6.34,6.34,0,0,1,2.58,5v20.44c0,2-1.11,2.9-2.58,2l-7.6-4.39a6.17,6.17,0,0,1-2.58-5V967.54c0-1.95,1.16-2.87,2.58-2Zm0,24V973.41l-7.6-4.38v20.45Z"/><path class="cls-3" d="M652.66,980.62a6.29,6.29,0,0,1,2.59,5v20.45c0,2-1.11,2.89-2.59,2l-7.59-4.38a6.15,6.15,0,0,1-2.59-5V978.28c0-1.95,1.17-2.87,2.59-2Zm0,24V984.16l-7.59-4.39v20.45Z"/><path class="cls-3" d="M671.27,991.36a6.31,6.31,0,0,1,2.58,5v20.45c0,2-1.11,2.89-2.58,2l-7.6-4.38a6.17,6.17,0,0,1-2.58-5V989c0-1.95,1.16-2.87,2.58-2Zm0,24V994.9l-7.6-4.39V1011Z"/><path class="cls-3" d="M689.88,1002.1a6.32,6.32,0,0,1,2.58,5v20.45c0,2-1.11,2.9-2.58,2.05l-7.6-4.39a6.18,6.18,0,0,1-2.59-5V999.76c0-1.94,1.17-2.86,2.59-2Zm0,24v-20.45l-7.6-4.39v20.45Z"/><path class="cls-3" d="M541.3,916.32a6.31,6.31,0,0,1,2.58,5V941.8c0,2-1.11,2.89-2.58,2l-7.6-4.38a6.18,6.18,0,0,1-2.59-5V914c0-2,1.17-2.87,2.59-2.05Zm0,24V919.86l-7.6-4.39v20.45Z"/><path class="cls-3" d="M559.9,927.06a6.33,6.33,0,0,1,2.59,5v20.45c0,2-1.12,2.9-2.59,2.05l-7.59-4.39a6.15,6.15,0,0,1-2.59-5V924.72c0-1.94,1.16-2.87,2.59-2.05Zm0,24V930.6l-7.59-4.39v20.45Z"/><path class="cls-3" d="M578.51,937.8a6.32,6.32,0,0,1,2.58,5v20.45c0,2-1.11,2.9-2.58,2.05l-7.6-4.39a6.17,6.17,0,0,1-2.58-5V935.46c0-1.94,1.16-2.86,2.58-2Zm0,24V941.34l-7.6-4.38V957.4Z"/><path class="cls-3" d="M597.11,948.55a6.29,6.29,0,0,1,2.59,5V974c0,2-1.11,2.9-2.59,2.05l-7.59-4.39a6.18,6.18,0,0,1-2.59-5V946.21c0-2,1.17-2.87,2.59-2.05Zm0,24V952.08l-7.59-4.38v20.45Z"/><polygon class="cls-4" points="586.03 903.38 586.03 889.87 533.06 859.29 533.06 872.8 586.03 903.38"/><path class="cls-4" d="M586,886.64v-.73c0-7.06-5-15.65-11.14-19.2L544.19,849c-6.15-3.55-11.13-.71-11.13,6.34v.74Z"/><path class="cls-4" d="M533.06,876v.44c0,7,5,15.65,11.13,19.2l30.7,17.72c6.15,3.55,11.14.71,11.14-6.34v-.44Z"/><polygon class="cls-2" points="629.27 1053.75 530.25 996.58 530.25 975.68 629.27 1032.85 629.27 1053.75"/><polygon class="cls-2" points="711.22 1101.06 652.32 1067.05 652.32 1046.16 711.22 1080.16 711.22 1101.06"/><polygon class="cls-3" points="643.98 622.29 721.87 791.92 859.2 647.77 795.66 589.91 721.87 714.3 687.02 630.68 643.98 622.29"/><path class="cls-2" d="M456.71,921,212.26,829.79v181.3c-.79,5.88,2.32,11.62,9.54,15.79l165.3,95.73c14.32,8.27,39.33,7.23,55.87-2.31,8.74-5,13.36-11.47,13.66-17.62l.08,0Z"/><path class="cls-2" d="M387.1,940.47,221.8,844.74c-14.32-8.27-12.52-22.71,4-32.26s41.55-10.58,55.87-2.31L447,905.9c14.32,8.27,12.52,22.71-4,32.25S401.42,948.74,387.1,940.47Z"/><path class="cls-1" d="M350.77,698.92c-46.16-26.6-103.81,6.72-103.81,60v75.26c0,7.32,10.17,13.24,22.73,13.24s22.73-5.92,22.73-13.24c0-.08,0-.17,0-.26h.24V768.61a29.34,29.34,0,0,1,44-25.44,73.16,73.16,0,0,1,36.72,63.45V906.76h.25c.24,7.19,10.31,13,22.7,13s22.61-5.86,22.73-13.11V817A136.23,136.23,0,0,0,350.77,698.92Z"/><path class="cls-3" d="M349.43,733.59a40.89,40.89,0,0,0-4.24-2.12,79.79,79.79,0,0,1,35.21,66V915a27.47,27.47,0,0,0,8.87,3.25V802.52A79.75,79.75,0,0,0,349.43,733.59Z"/><path class="cls-1" d="M303.26,721.54a37.35,37.35,0,0,0-37.32,37.21v86.57c-.17.69,12.73-.36,13-1.56V757.18a37.39,37.39,0,0,1,26.41-35.57C304.68,721.57,304,721.54,303.26,721.54Z"/><path class="cls-3" d="M325.6,705.47A71.88,71.88,0,0,1,359.4,714a127.85,127.85,0,0,0-12.53-8.26,60.57,60.57,0,0,0-30.56-8.3c-29.6,0-61.54,23.52-61.54,61.53v.17C263.92,725.51,295.76,705.47,325.6,705.47Z"/><path class="cls-1" d="M401.45,830.7v87.88a28.17,28.17,0,0,0,11.37-4,7.52,7.52,0,0,0,.79-3.09V821.9C413.61,783.14,401.45,791.19,401.45,830.7Z"/><path class="cls-4" d="M336.13,972.56c0-14.21-10-31.52-22.41-38.66s-22.41-1.43-22.41,12.77c0,9.58,4.57,20.55,11.33,28.89v45l22.16,12.8v-45C331.56,987.83,336.13,982.13,336.13,972.56Z"/><path class="cls-2" d="M306.51,1018.89v-45c-6.77-8.33-11.34-19.31-11.34-28.88,0-6.68,2.24-11.46,5.88-13.93-5.88,1.24-9.74,6.78-9.74,15.58,0,9.58,4.57,20.55,11.33,28.89v45l22.16,12.8v-3.89Z"/><path class="cls-2" d="M215,574c0,10.75,7.6,23.85,17,29.25s17,1.08,17-9.67-7.59-23.84-17-29.25S215,563.26,215,574Z"/><path class="cls-2" d="M171.25,548.6c0,10.74,7.59,23.84,16.95,29.24s17,1.08,17-9.66-7.59-23.85-17-29.25S171.25,537.85,171.25,548.6Z"/><path class="cls-2" d="M127.5,523.19c0,10.74,7.6,23.84,17,29.25s17,1.07,17-9.67-7.59-23.84-17-29.25S127.5,512.44,127.5,523.19Z"/><path class="cls-2" d="M83.77,497.78c0,10.75,7.59,23.84,17,29.25s17,1.08,17-9.67-7.59-23.84-17-29.25S83.77,487,83.77,497.78Z"/><path class="cls-2" d="M40,472.37c0,10.75,7.59,23.84,16.95,29.25s17,1.08,17-9.67-7.59-23.84-17-29.25S40,461.62,40,472.37Z"/></g></g></svg>