<?xml version="1.0" encoding="utf-8"?>
<!-- Generator: Adobe Illustrator 21.0.0, SVG Export Plug-In . SVG Version: 6.00 Build 0)  -->
<svg version="1.1" xmlns="http://www.w3.org/2000/svg" xmlns:xlink="http://www.w3.org/1999/xlink" x="0px" y="0px"
	 viewBox="0 0 750 500" style="enable-background:new 0 0 750 500;" xml:space="preserve">
<style type="text/css">
	.st0{fill:#FFFFFF;}
	.st1{fill:url(#SVGID_1_);}
	.st2{fill:url(#SVGID_2_);}
	.st3{fill:url(#SVGID_3_);}
	.st4{fill:#1642D6;}
	.st5{fill:url(#SVGID_4_);}
	.st6{fill:#F0F3F8;}
	.st7{fill:#1E2975;}
	.st8{fill:url(#SVGID_5_);}
	.st9{fill:url(#SVGID_6_);}
	.st10{fill:url(#SVGID_7_);}
	.st11{fill:url(#SVGID_8_);}
	.st12{fill:url(#SVGID_9_);}
	.st13{fill:url(#SVGID_10_);}
	.st14{fill:#2684FE;}
	.st15{fill:#FFA8B9;}
	.st16{fill:#3F99FC;}
	.st17{fill:#FA9778;}
	.st18{fill:#97CEFF;}
	.st19{fill:#FA7C55;}
	.st20{fill:#2281BC;}
	.st21{fill:#45314A;}
	.st22{fill:#CAE3FF;}
	.st23{clip-path:url(#SVGID_12_);}
	.st24{fill:#F7BB8B;}
	.st25{fill:#C25B3E;}
	.st26{fill:#EBA771;}
	.st27{fill:#DCF2F2;}
	.st28{fill:#E4F5F5;}
	.st29{fill:#450D20;}
	.st30{fill:#D2D1FC;}
	.st31{fill:#F28E6F;}
	.st32{fill:#ED8D5D;}
	.st33{fill:#994831;}
	.st34{fill:#DB6A3D;}
	.st35{fill:#CC6F49;}
	.st36{fill:#DCDCF2;}
	.st37{fill:#C4533A;}
	.st38{fill:#FFD592;}
</style>

<g id="OBJECTS">
	<g>
		<g>
			<g>
				<g>
					<linearGradient id="SVGID_1_" gradientUnits="userSpaceOnUse" x1="72.9793" y1="285.3997" x2="203.1508" y2="138.1122">
						<stop  offset="0" style="stop-color:#0BA1E1"/>
						<stop  offset="1" style="stop-color:#1644D6"/>
					</linearGradient>
					<path class="st1" d="M105.8,279.7c-3.5-5.2-7.6-9.9-11.1-15c-6.7-9.9-10.5-21.5-15.2-32.5c-4.2-9.8-11.4-20.8-22.1-20.6
						c-9.4,0.2-16.3,9.2-18.8,18.3c-3.6,13.1-1,27.7,7,38.7c6.8,9.4,16.9,15.7,26.2,22.7c9.3,7,18.4,15.4,21.6,26.5
						c1.7,5.8,1.7,12.1,4.6,17.4c2.4,4.4,9.4,9.1,13.9,5.1c3.4-3,3.9-14.5,4.3-18.7C117.5,307.1,113.9,292,105.8,279.7z"/>
					<linearGradient id="SVGID_2_" gradientUnits="userSpaceOnUse" x1="60.5182" y1="274.3866" x2="190.6897" y2="127.0991">
						<stop  offset="0" style="stop-color:#0BA1E1"/>
						<stop  offset="1" style="stop-color:#1644D6"/>
					</linearGradient>
					<path class="st2" d="M108.2,313.3c3.8-0.8,4.9-5.7,4.9-9.6c0-7.4-1-14.7-3-21.8c-3-11-8.2-21.7-8.2-33.2c0-5.1,1.1-10.1,2-15.1
						c1.9-10.8,3.2-21.9,1.3-32.7c-1.9-10.8-7.3-21.3-16.3-27.5c-3.9-2.7-8.6-4.5-13.3-4.2c-4.7,0.3-9.4,3-11.3,7.4
						c-3,7,2,14.7,6.6,20.8c3.3,4.4,6.5,8.8,9.6,13.3c2.4,3.5,4.7,7,6.1,11c3.3,9.8,0.1,20.4-0.7,30.7c-1.5,18.5,5.1,37.4,17.7,51
						L108.2,313.3z"/>
					<linearGradient id="SVGID_3_" gradientUnits="userSpaceOnUse" x1="10.1451" y1="229.8673" x2="140.3166" y2="82.5798">
						<stop  offset="0" style="stop-color:#0BA1E1"/>
						<stop  offset="1" style="stop-color:#1644D6"/>
					</linearGradient>
					<path class="st3" d="M55.7,175.5c0.3,4,0.7,8,1,12c0,0.5,0.1,1-0.2,1.4c-0.2,0.4-0.7,0.5-1.1,0.6c-2.2,0.4-4.4-0.8-5.7-2.7
						c-1.3-1.8-1.7-4.1-1.8-6.3c-0.1-1.7-0.1-3.4,0.6-4.9c0.6-1.5,2-2.9,3.6-3.1c1.6-0.2,3.5,0.9,3.6,2.6"/>
					<g>
						<g>
							<g>
								<path class="st0" d="M85.9,248c1.2,1.2,2.2,2.5,3.2,3.8c1,1.4,1.8,2.8,2.6,4.3c0.8,1.5,1.4,3,2,4.6c0.5,1.6,1,3.2,1.3,4.8
									c-0.6-1.6-1.1-3.1-1.8-4.6c-0.7-1.5-1.3-3-2.1-4.5c-0.7-1.5-1.6-2.9-2.4-4.3C87.8,250.8,86.9,249.4,85.9,248z"/>
							</g>
							<g>
								<path class="st0" d="M56.9,215.3c-0.4,2.8-0.5,5.6-0.4,8.3c0.2,2.8,0.6,5.5,1.2,8.2c0.6,2.7,1.4,5.4,2.4,8
									c1,2.6,2.1,5.1,3.3,7.6c5,10,11.9,18.7,18.9,27.4c6.9,8.7,13.9,17.6,18.8,27.7c1.2,2.5,2.3,5.1,3.3,7.7
									c0.9,2.6,1.7,5.3,2.3,8.1c0.5,2.7,0.9,5.5,1,8.3c0.1,2.8-0.1,5.6-0.5,8.3c0.4-2.8,0.5-5.6,0.3-8.3c-0.2-2.8-0.6-5.5-1.2-8.2
									c-0.6-2.7-1.4-5.4-2.4-8c-1-2.6-2.1-5.1-3.3-7.6c-5-10-12-18.7-18.9-27.4c-6.9-8.7-13.9-17.6-18.8-27.7
									c-1.2-2.5-2.3-5.1-3.3-7.7c-0.9-2.6-1.7-5.3-2.3-8.1c-0.5-2.7-0.9-5.5-1-8.3C56.3,220.9,56.4,218.1,56.9,215.3z"/>
							</g>
							<g>
								<path class="st0" d="M39.3,234.1c1.9,2.6,3.9,5.1,6,7.4c2.2,2.3,4.5,4.5,7,6.4c2.5,2,5.1,3.8,7.8,5.4c2.7,1.6,5.6,3,8.5,4.2
									c-3.1-0.9-6-2.2-8.8-3.7c-2.8-1.5-5.5-3.3-8-5.3c-2.5-2-4.8-4.2-7-6.6C42.8,239.4,40.9,236.9,39.3,234.1z"/>
							</g>
							<g>
								<path class="st0" d="M52.2,274.8c3.1,1.4,6.1,2.7,9.3,3.9c3.1,1.2,6.3,2.3,9.5,3.2c3.2,1,6.4,1.8,9.7,2.5
									c3.3,0.7,6.6,1.3,9.9,1.9c-3.4-0.2-6.7-0.7-10-1.3c-3.3-0.6-6.6-1.4-9.8-2.4c-3.2-1-6.4-2.1-9.5-3.4
									C58.1,277.9,55.1,276.5,52.2,274.8z"/>
							</g>
							<g>
								<path class="st0" d="M93.8,314.1c2.5,0.4,4.8,1.3,7,2.4c2.2,1.2,4.3,2.6,6,4.4c-2.1-1.3-4.2-2.6-6.4-3.7
									C98.3,316,96.1,315,93.8,314.1z"/>
							</g>
							<g>
								<path class="st0" d="M72.9,222.7c0.9,4.4,1.7,8.7,2.7,13c1,4.3,2.1,8.6,3.3,12.9c0.6,2.1,1.2,4.3,1.8,6.4
									c0.6,2.1,1.3,4.2,1.8,6.4c0.5,2.2,0.8,4.4,0.8,6.7c-0.1,2.2-0.6,4.5-1.6,6.5c0.9-2,1.3-4.3,1.2-6.5c0-2.2-0.4-4.4-1-6.5
									c-0.6-2.1-1.3-4.2-1.9-6.4c-0.7-2.1-1.3-4.3-1.9-6.4c-1.2-4.3-2.2-8.6-3.1-13C74.2,231.5,73.4,227.1,72.9,222.7z"/>
							</g>
							<g>
								<path class="st0" d="M99.9,276.9c1,2.4,1.7,4.9,2.3,7.4c0.6,2.5,1,5.1,1.3,7.6c0.2,2.6,0.3,5.1,0.3,7.7
									c-0.1,2.6-0.3,5.1-0.8,7.7c0.2-2.6,0.3-5.1,0.2-7.7c0-2.6-0.1-5.1-0.4-7.6c-0.2-2.5-0.6-5.1-1.1-7.6
									C101.2,281.9,100.6,279.4,99.9,276.9z"/>
							</g>
						</g>
						<g>
							<g>
								<path class="st0" d="M68.3,175.5c4.7,1.2,9.1,3.3,13,6.3c3.8,2.9,7.2,6.6,9.7,10.8c1.2,2.1,2.3,4.3,3.1,6.6
									c0.8,2.3,1.4,4.7,1.8,7.1c0.8,4.8,1,9.7,0.8,14.5c-0.2,9.7-1.6,19.3-0.5,28.8c0.1,1.2,0.3,2.4,0.5,3.6
									c0.2,1.2,0.4,2.4,0.7,3.5c0.5,2.3,1.3,4.6,2.2,6.8c0.9,2.2,2.1,4.3,3.5,6.3c1.4,2,3.1,3.7,5,5.2c-1.9-1.5-3.6-3.2-5.1-5.1
									c-1.4-1.9-2.7-4-3.7-6.2c-1-2.2-1.8-4.5-2.3-6.9c-0.3-1.2-0.5-2.4-0.8-3.5c-0.2-1.2-0.4-2.4-0.5-3.6
									c-1.2-9.7,0.1-19.3,0.3-28.9c0.1-4.8,0-9.6-0.8-14.4c-0.4-2.4-1-4.7-1.7-7c-0.8-2.3-1.8-4.4-2.9-6.5
									C85.6,184.5,77.6,178.1,68.3,175.5z"/>
							</g>
							<g>
								<path class="st0" d="M67.7,187.4c2.3,1.7,4.9,2.9,7.4,4c2.6,1.1,5.2,2.3,7.7,3.7c2.4,1.5,4.6,3.4,6.6,5.4c2,2,4,4,5.9,6.1
									c-2.1-1.8-4.2-3.8-6.3-5.7c-2.1-1.9-4.2-3.8-6.6-5.2c-2.4-1.5-5-2.6-7.5-3.9C72.3,190.7,69.8,189.3,67.7,187.4z"/>
							</g>
							<g>
								<path class="st0" d="M88.1,176.9c1.8,2.5,3.6,5.1,5.2,7.8c1.6,2.7,2.9,5.5,3.9,8.5c0.9,3,1.5,6.2,1.3,9.3
									c-0.1,3.1-0.8,6.3-2.4,9c1.3-2.8,1.8-5.9,1.8-9c0-3.1-0.5-6.1-1.5-9.1c-0.9-2.9-2.2-5.8-3.7-8.5
									C91.3,182.3,89.6,179.6,88.1,176.9z"/>
							</g>
							<g>
								<path class="st0" d="M83.4,210.7c1.3,1.7,2.5,3.5,3.6,5.4c1.1,1.9,2,3.8,2.9,5.8c0.8,2,1.5,4.1,2.3,6.1
									c0.8,2,1.8,3.9,3.5,5.3c-0.9-0.5-1.7-1.3-2.4-2.2c-0.7-0.9-1.2-1.9-1.6-2.9c-0.9-2-1.5-4-2.4-6c-0.8-2-1.7-3.9-2.7-5.8
									C85.5,214.4,84.5,212.6,83.4,210.7z"/>
							</g>
							<g>
								<path class="st0" d="M102.9,223.4c0.1,2.8,0,5.7-0.4,8.5c-0.4,2.8-1,5.6-1.8,8.3c-0.8,2.7-1.9,5.3-2.7,8
									c-0.8,2.7-1.3,5.5-0.8,8.3c-0.4-1.4-0.5-2.8-0.5-4.2c0.1-1.4,0.3-2.8,0.7-4.2c0.7-2.8,1.8-5.4,2.6-8.1
									c0.8-2.7,1.4-5.4,1.9-8.2C102.4,229,102.7,226.2,102.9,223.4z"/>
							</g>
						</g>
					</g>
				</g>
				<g>
					<path class="st4" d="M94.9,131.2v196.1c0,7.4,5.6,13.8,12.9,14.4c0.3,0,0.7,0,1,0.1c11,0.4,52.9-3,63.7-3.9
						c2.8-0.2,5.4-1.3,7.5-3.2c2.6-2.4,5.4-6.6,5.8-13.7V138.2c0,0,0.9-11.3-12.6-13.5l-61.6-6.8c-4.4-0.5-8.9,0.7-12.3,3.5
						c-0.2,0.2-0.4,0.3-0.6,0.5C96.3,124.3,94.9,127.7,94.9,131.2z"/>
					<linearGradient id="SVGID_4_" gradientUnits="userSpaceOnUse" x1="84.4832" y1="295.5667" x2="214.6547" y2="148.2792">
						<stop  offset="0" style="stop-color:#0BA1E1"/>
						<stop  offset="1" style="stop-color:#1644D6"/>
					</linearGradient>
					<path class="st5" d="M99.1,131.7v195.7c0,7.4,5.6,13.8,12.9,14.4c0.3,0,0.7,0,1,0.1c11,0.4,52.9-3,63.7-3.8
						c2.8-0.2,5.4-1.3,7.5-3.2c2.6-2.4,5.4-6.6,5.8-13.7V138.7c0,0,0.9-11.3-12.6-13.5l-61.6-6.8c-4.4-0.5-8.9,0.7-12.3,3.5
						c-0.2,0.2-0.4,0.3-0.6,0.5C100.5,124.8,99.1,128.2,99.1,131.7z"/>
					<polygon class="st6" points="187,138.9 187,325.4 120.4,328.6 104.1,329.4 104.1,317.4 103.9,270 103.9,230.8 103.7,183.2 
						103.7,159.5 103.6,131 129.7,133.5 151.4,135.5 					"/>
					<g>
						<path class="st7" d="M154.5,129.4C154.5,129.4,154.5,129.4,154.5,129.4l-14.9-1.4c-0.5,0-0.9-0.5-0.8-1c0-0.5,0.5-0.9,1-0.8
							l14.9,1.4c0.5,0,0.9,0.5,0.8,1C155.4,129,155,129.4,154.5,129.4z"/>
					</g>
				</g>
			</g>
			<g>
				<path class="st6" d="M638.3,7.5C600.4,8,570.5,14,548.9,29.1c-30.6,21.4-53.4,51.8-81.8,75.9c-28.4,24.1-62.4,44.6-100.2,47.6
					c-30.5,2.4-60.4-6.6-90-13.9c-28.1-6.9-62.2-7.4-90,0.2l-3.5,102l3.5,84.5c39.8,27.7,72.6,72.7,113.9,98.3
					c44.4,27.6,100.6,25.8,152.6,20c52-5.8,106-14.3,155.5,2.4c23.8,8.1,45.3,21.6,68,32.6c22.7,10.9,47.7,19.4,72.6,16.1l0.9-465.2
					C693.3,29.6,675.8,7,638.3,7.5z"/>
				<path class="st6" d="M452.1,102.2c9.3-8.4,16.9-19.3,19.2-31.7c0.7-4,0.8-8.3-1.3-11.8c-3.2-5.1-10.2-6.3-16.1-5.4
					c-12.2,1.8-22.8,10.4-29.2,21c-6.5,10.6-9.3,23-10.6,35.3C411.1,135.9,444.5,108.9,452.1,102.2z"/>
				<path class="st6" d="M392,112.9c0.6-1.6,1.3-3.3,2.4-4.7c1.1-1.4,2.7-2.4,4.5-2.4c1.6,0,3.1,0.9,4.3,2.1c4,3.8,5.3,10,3.5,15.2
					c-1.8,5.2-6.6,9.2-12,10.3c-2.5,0.6-5.2,0.6-7.8,0c-2.9-0.6-1.8-2.4-0.9-4.6C387.9,123.6,389.9,118.2,392,112.9z"/>
			</g>
		</g>
	</g>
	<g>
		<path class="st0" d="M464,142.1h76.5c-0.3-0.7-0.9-1.4-1.6-1.7c-1.4-0.6-3-0.2-4.5,0c-1.5,0.2-3.2,0.2-4.3-0.8
			c-1.2-1.1-1.3-3.1-2.6-4.1c-2.5-2-6.3,1.3-9.2,0.1c-2.9-1.2-3.2-5.9-6.2-6.7c-2.8-0.7-5.3,2.7-8.2,2.2c-1.6-0.3-2.7-1.8-3.1-3.3
			c-0.5-1.5-0.5-3.2-0.9-4.7c-1.2-4.6-5.8-8.2-10.6-8.1c-4.8,0.1-9.3,3.7-10.4,8.4c-0.4,1.8-0.3,3.8-0.7,5.6
			c-0.4,1.8-1.4,3.7-3.2,4.4c-2.4,0.9-5-0.8-7.6-0.6c-2.6,0.1-4.9,2.3-5.1,4.9C462.1,139.3,462.8,141,464,142.1z"/>
		<path class="st0" d="M373.7,227h69.2c-0.2-0.7-0.8-1.2-1.4-1.5c-1.3-0.5-2.7-0.2-4.1,0c-1.4,0.2-2.9,0.2-3.9-0.8
			c-1.1-1-1.2-2.8-2.3-3.7c-2.2-1.8-5.7,1.2-8.3,0.1c-2.6-1-2.9-5.4-5.6-6.1c-2.5-0.6-4.8,2.5-7.4,2c-1.4-0.3-2.4-1.6-2.8-3
			c-0.4-1.4-0.5-2.9-0.9-4.3c-1.1-4.2-5.3-7.4-9.6-7.3c-4.3,0.1-8.4,3.4-9.4,7.6c-0.4,1.7-0.3,3.4-0.7,5.1c-0.3,1.7-1.3,3.4-2.9,4
			c-2.2,0.8-4.5-0.7-6.8-0.6c-2.3,0.1-4.4,2.1-4.6,4.4C372,224.5,372.6,226,373.7,227z"/>
		<path class="st0" d="M656.1,124.3h-69.3c-2.9,0-4.2-3.8-1.9-5.5c1.2-0.8,2.6-1.3,4.1-1.1c1.6,0.2,3.2,1.1,4.7,0.5
			c2.6-0.9,2.5-5,4.8-6.5c2.3-1.5,5.6,0.4,7.4,2c1,0.9,2.1,1.5,3.4,1.8c6.7,1.4,7-9.1,12.6-10c4-0.7,6.9,4.1,10.9,4.8
			c3.8,0.6,7.1-2.5,9.2-5.7c2.5-3.8,4.6-8.4,9.6-9.3c2.8-0.5,5.6,0.4,7.7,2.2c4.4,3.7,5.2,9.7,4,15c-0.8,3.6-2.6,7-4.5,10.2
			C658.2,123.7,657.2,124.3,656.1,124.3z"/>
		<path class="st0" d="M243.7,161.2h-32.4c-1.4,0-2-1.8-0.9-2.6c0.6-0.4,1.2-0.6,1.9-0.5c0.7,0.1,1.5,0.5,2.2,0.2
			c1.2-0.4,1.2-2.3,2.2-3c1.1-0.7,2.6,0.2,3.5,0.9c0.5,0.4,1,0.7,1.6,0.8c3.1,0.7,3.3-4.2,5.9-4.7c1.9-0.3,3.2,1.9,5.1,2.2
			c1.8,0.3,3.3-1.2,4.3-2.7c1.2-1.8,2.1-3.9,4.5-4.4c1.3-0.2,2.6,0.2,3.6,1c2,1.7,2.4,4.6,1.9,7c-0.4,1.7-1.2,3.2-2.1,4.7
			C244.7,161,244.2,161.2,243.7,161.2z"/>
	</g>
	<g>
		<g>
			<linearGradient id="SVGID_5_" gradientUnits="userSpaceOnUse" x1="380.2449" y1="297.686" x2="438.8188" y2="297.686">
				<stop  offset="0" style="stop-color:#0BA1E1"/>
				<stop  offset="1" style="stop-color:#1644D6"/>
			</linearGradient>
			<path class="st8" d="M430.9,299.9c-2.5-3.8-5.6-7.3-8.2-11.1c-4.9-7.3-7.7-15.8-11.2-23.9c-3.1-7.3-8.4-15.3-16.3-15.2
				c-6.9,0.1-12,6.8-13.9,13.5c-2.7,9.6-0.7,20.4,5.2,28.5c5,6.9,12.5,11.6,19.3,16.7c6.9,5.1,13.6,11.3,16,19.5
				c1.2,4.3,1.3,8.9,3.4,12.8c1.8,3.3,6.9,6.7,10.2,3.8c2.5-2.2,2.9-10.7,3.2-13.8C439.6,320,436.9,308.9,430.9,299.9z"/>
			<linearGradient id="SVGID_6_" gradientUnits="userSpaceOnUse" x1="410.7243" y1="256.0763" x2="418.1779" y2="256.0763">
				<stop  offset="0" style="stop-color:#0BA1E1"/>
				<stop  offset="1" style="stop-color:#1644D6"/>
			</linearGradient>
			<path class="st9" d="M413.8,259.7C413.8,259.7,413.8,259.7,413.8,259.7c1.1,2,4,1.5,4.4-0.7c0.1-0.8,0.1-1.7-0.1-2.5
				c-0.5-2-3.7-6.5-6.3-4.9C409,253.1,412.8,258,413.8,259.7z"/>
			<linearGradient id="SVGID_7_" gradientUnits="userSpaceOnUse" x1="430.9647" y1="308.2109" x2="484.0703" y2="308.2109">
				<stop  offset="0" style="stop-color:#0BA1E1"/>
				<stop  offset="1" style="stop-color:#1644D6"/>
			</linearGradient>
			<path class="st10" d="M431.8,322.4c1.5-7.1,5.4-13.9,11.5-18c3.4-2.3,7.4-3.8,10.2-6.7c5.5-5.6,5.2-14.6,7.1-22.2
				c0.4-1.7,1.1-3.4,2.6-4.3c1.2-0.7,2.6-0.6,3.9-0.4c7.2,1.2,13.6,6.6,15.9,13.6c2.3,7,0.4,15.1-4.7,20.4
				c-5.4,5.6-13.6,7.6-19.6,12.6c-4.2,3.4-7.1,8.2-9.3,13.2c-1.7,3.9-2.9,8.1-5.7,11.3c-3.2,3.8-9.5,6.3-11.2,0.5
				C430.7,336.1,430.5,328.8,431.8,322.4z"/>
			<linearGradient id="SVGID_8_" gradientUnits="userSpaceOnUse" x1="417.6872" y1="263.2602" x2="421.2906" y2="263.2602">
				<stop  offset="0" style="stop-color:#0BA1E1"/>
				<stop  offset="1" style="stop-color:#1644D6"/>
			</linearGradient>
			<circle class="st11" cx="419.5" cy="263.3" r="1.8"/>
			<g>
				<g>
					<g>
						<path class="st0" d="M431.8,344.6c-3.5-2.8-5.7-6.8-6.9-11c-1.3-4.2-1.7-8.7-1.9-13.1c-0.3-4.4-0.3-8.8-1.1-13.1
							c-0.7-4.3-2.2-8.5-4.7-12c-2.5-3.6-5.7-6.6-8.9-9.6c-3.2-3-6.4-6.1-9.2-9.5c-2.7-3.4-5.1-7.3-6.3-11.6c-1.2-4.2-1.4-8.9,0-13
							c-1.3,4.2-1,8.8,0.3,12.9c1.3,4.2,3.7,7.9,6.4,11.3c2.8,3.4,6,6.4,9.2,9.4c3.2,3,6.5,6,9,9.7c2.6,3.6,4.1,8,4.8,12.3
							c0.7,4.4,0.8,8.8,1,13.2c0.2,4.4,0.5,8.8,1.7,13C426.4,337.6,428.5,341.7,431.8,344.6z"/>
					</g>
					<g>
						<path class="st0" d="M383.1,262.1c0.8,2.5,1.9,4.9,3.3,7c1.4,2.2,3.1,4.2,5,5.9c1.9,1.7,4,3.2,6.3,4.4c2.3,1.2,4.8,2,7.3,2.6
							c-2.6-0.2-5.2-0.9-7.6-2c-2.4-1.1-4.6-2.6-6.6-4.3c-1.9-1.8-3.7-3.8-5-6.1C384.6,267.1,383.6,264.6,383.1,262.1z"/>
					</g>
					<g>
						<path class="st0" d="M387.1,287.6c2.3,2.2,4.9,3.9,7.7,5.2c2.8,1.3,5.8,2.3,8.8,3.2c3,0.9,6,1.7,9,2.7c3,1,5.9,2.2,8.6,4
							c-2.8-1.5-5.7-2.5-8.7-3.4c-3-0.9-6-1.7-9.1-2.6c-3-0.9-6-1.9-8.8-3.4C391.8,291.9,389.2,290,387.1,287.6z"/>
					</g>
					<g>
						<path class="st0" d="M404.7,258.2c-0.6,3-0.2,6.1,0.6,9c0.9,2.9,2.2,5.7,3.7,8.3c1.4,2.7,3,5.3,4.3,8.1
							c1.3,2.8,2.3,5.7,2.6,8.8c-0.5-3-1.7-5.9-3.1-8.6c-1.4-2.7-3-5.3-4.5-8c-1.4-2.7-2.8-5.5-3.6-8.5c-0.4-1.5-0.6-3-0.7-4.6
							C404,261.3,404.2,259.7,404.7,258.2z"/>
					</g>
					<g>
						<path class="st0" d="M426.5,299.4c0.9,1.9,1.3,4,1.4,6.1c0.1,2.1-0.2,4.2-0.7,6.2c-0.5,2-1.1,4-1.8,6c-0.7,2-1.3,3.9-1.9,5.9
							c0.3-2.1,0.8-4.1,1.4-6.1c0.5-2,1.2-4,1.6-6c0.5-2,0.8-4,0.9-6.1C427.3,303.5,427.1,301.4,426.5,299.4z"/>
					</g>
				</g>
				<g>
					<g>
						<path class="st0" d="M433.7,345.1c-1.6-2.5-2.8-5.3-3.4-8.2c-0.7-2.9-0.9-5.9-0.7-8.9c0.3-3,0.9-5.9,2-8.7
							c1.1-2.8,2.7-5.4,4.7-7.6c-1.7,2.4-3.1,5-4.1,7.8c-1,2.8-1.6,5.7-1.8,8.6c-0.3,2.9-0.1,5.9,0.5,8.8
							C431.4,339.6,432.4,342.4,433.7,345.1z"/>
					</g>
					<g>
						<path class="st0" d="M437.7,345.3c-1.5-3.2-2-6.9-1.6-10.4c0.4-3.5,1.6-7,3.3-10.1c3.5-6.3,8.7-11.3,13.6-16.3
							c5-5,9.8-10.3,12.5-16.8c1.3-3.2,2-6.8,1.8-10.3c-0.2-3.5-1.2-7-3.4-9.8c2.3,2.7,3.5,6.2,3.8,9.8c0.3,3.6-0.3,7.2-1.6,10.5
							c-1.3,3.3-3.2,6.4-5.4,9.2c-2.2,2.8-4.6,5.4-7.1,7.9c-5,5-10.1,9.9-13.6,16.1c-1.7,3-3,6.4-3.5,9.9
							C436,338.4,436.3,342.1,437.7,345.3z"/>
					</g>
					<g>
						<path class="st0" d="M481.1,285.4c-2,1.5-3.7,3.2-5.2,5.1c-1.6,1.9-3.1,3.9-4.7,5.7c-1.6,1.9-3.5,3.6-5.6,4.9
							c-1.1,0.7-2.2,1.2-3.4,1.6c-1.2,0.4-2.4,0.6-3.7,0.5c2.5-0.2,4.8-1.2,6.8-2.6c2-1.4,3.8-3.1,5.3-5c1.6-1.8,3.1-3.8,4.8-5.6
							C477.1,288.3,478.9,286.6,481.1,285.4z"/>
					</g>
					<g>
						<path class="st0" d="M466.5,309.4c-2.7,0.4-5.2,1.7-7.3,3.3c-2.2,1.6-4,3.6-5.9,5.6c-1.9,1.9-3.9,3.9-6.2,5.4
							c-1.2,0.7-2.4,1.4-3.8,1.8c-1.3,0.4-2.7,0.6-4.1,0.5c2.8-0.1,5.3-1.3,7.5-2.8c2.2-1.5,4.1-3.5,6-5.4c1.9-1.9,3.8-4,6.1-5.5
							C461.1,310.6,463.8,309.4,466.5,309.4z"/>
					</g>
					<g>
						<path class="st0" d="M441.2,308.1c-0.8,2.1-1.7,4.2-2.4,6.3c-0.7,2.1-1.5,4.2-2.1,6.4c-0.6,2.1-1.3,4.3-1.6,6.5
							c-0.2,1.1-0.2,2.2,0,3.3c0.2,1.1,0.6,2.1,1.4,2.9l0,0l0.1-0.4l0,0.4l0,0.1l0,0c-0.9-0.7-1.4-1.8-1.7-2.9
							c-0.3-1.1-0.3-2.3-0.2-3.4c0.1-1.1,0.4-2.2,0.6-3.3c0.3-1.1,0.5-2.2,0.9-3.3c0.7-2.1,1.4-4.3,2.2-6.3
							C439.2,312.1,440.1,310.1,441.2,308.1z"/>
					</g>
				</g>
			</g>
		</g>
		<g>
			<linearGradient id="SVGID_9_" gradientUnits="userSpaceOnUse" x1="593.0145" y1="306.5723" x2="653.9102" y2="306.5723">
				<stop  offset="0" style="stop-color:#0BA1E1"/>
				<stop  offset="1" style="stop-color:#1644D6"/>
			</linearGradient>
			<path class="st12" d="M596.8,320.4c4.2-7.9,11.1-13.9,17.7-19.9c6.6-6,13.3-12.3,17.1-20.4c1.3-2.8,2.2-5.8,4-8.4
				c1.8-2.5,4.7-4.6,7.8-4.3c3.8,0.4,6.3,4,7.8,7.5c2.9,6.7,3.9,14.7,1,21.4c-3.8,8.8-13,13.8-21.5,18.2
				c-10.5,5.5-21.5,12-26.1,22.9c-2.7,6.5-7.2,13.2-10.7,3C591.8,334.1,593.7,326.1,596.8,320.4z"/>
			<linearGradient id="SVGID_10_" gradientUnits="userSpaceOnUse" x1="591.0169" y1="291.7311" x2="622.0191" y2="291.7311">
				<stop  offset="0" style="stop-color:#0BA1E1"/>
				<stop  offset="1" style="stop-color:#1644D6"/>
			</linearGradient>
			<path class="st13" d="M591.8,314.1c1.6-8.5,5.2-16.3,7.9-24.5c2.7-8.2,4.5-17,2.1-25.3c-1.5-5.3-4.7-10-7.3-14.8
				c-1.4-2.5-2.6-5.5-1.3-8.1c0.7-1.4,2-2.3,3.4-2.9c6-2.5,12.9,1.2,17.3,6.1c4.7,5.3,7.6,12.1,8.1,19.1
				c1.1,13.9-6.5,26.8-11.7,39.7c-2.7,6.7-4.8,13.7-6.3,20.8c-1.2,5.9-0.5,14.5-3.8,19.6c-4.3,6.6-6.7-4.9-7.6-8.3
				C590.8,328.4,590.5,321.1,591.8,314.1z"/>
			<path class="st14" d="M639,265.4c0-0.4-0.1-0.8-0.3-1.1c-0.2-0.3-0.6-0.5-1-0.5c-1.1-0.1-2.1,0.5-2.7,1.4c-0.5,0.7-1,2.1-0.4,2.9
				c0.7,0.8,1.7,0.4,2.4-0.1C638.2,267.3,639,266.8,639,265.4z"/>
			<circle class="st14" cx="636.1" cy="261.9" r="1.1"/>
			<g>
				<g>
					<g>
						<path class="st0" d="M609.8,305.4c-2,2.2-3.9,4.6-5.6,7c-1.7,2.5-3.3,5-4.6,7.7c-1.4,2.6-2.6,5.4-3.6,8.2
							c-1,2.8-1.8,5.7-2.5,8.6c0.3-3,1-5.9,1.9-8.8c0.9-2.9,2.1-5.7,3.4-8.4c1.4-2.7,3-5.3,4.8-7.7
							C605.5,309.7,607.5,307.4,609.8,305.4z"/>
					</g>
					<g>
						<path class="st0" d="M594.5,330.9c-0.1-3.9,0-7.9,0.4-11.8c0.4-3.9,1-7.9,1.8-11.7c0.8-3.9,1.9-7.7,3.2-11.4
							c1.3-3.7,2.9-7.4,4.3-11.1c1.4-3.7,2.8-7.4,3.5-11.2c0.8-3.8,0.9-7.8,0.4-11.7c-0.5-3.9-1.7-7.7-3.4-11.2
							c-0.9-1.8-1.9-3.4-3-5.1c-1.2-1.6-2.5-3.1-3.9-4.5c1.4,1.3,2.8,2.8,4,4.4c1.2,1.6,2.3,3.2,3.2,5c1.8,3.5,3.1,7.3,3.7,11.3
							c0.6,3.9,0.5,8-0.3,11.9c-0.8,3.9-2.1,7.7-3.5,11.4c-1.4,3.7-3,7.3-4.3,11c-1.3,3.7-2.4,7.5-3.3,11.3
							C595.6,315.1,594.6,323,594.5,330.9z"/>
					</g>
					<g>
						<path class="st0" d="M609.2,242.6c0.8,2.5,1.5,5,2.1,7.5c0.6,2.6,1,5.2,1.1,7.8c0.1,2.6-0.1,5.3-0.7,7.9
							c-0.6,2.6-1.7,5-3.2,7.1c1.3-2.3,2.2-4.7,2.7-7.3c0.5-2.5,0.7-5.1,0.5-7.7c-0.1-2.6-0.5-5.2-1-7.7
							C610.3,247.7,609.7,245.1,609.2,242.6z"/>
					</g>
					<g>
						<path class="st0" d="M596.6,300c0.2,1.1,0.3,2.1,0.4,3.1c0.1,1,0.2,2.1,0.2,3.2c-0.6-0.9-0.8-2-0.9-3.1
							C596.2,302.2,596.2,301.1,596.6,300z"/>
					</g>
				</g>
				<g>
					<g>
						<path class="st0" d="M598,343.8c-0.2-1.8-0.2-3.6,0-5.5c0.2-1.8,0.6-3.6,1.1-5.4c1-3.5,2.6-6.8,4.5-10
							c3.8-6.3,9.1-11.4,14.3-16.5c5.3-5,10.7-9.9,15-15.7c2.2-2.9,4.1-6,5.6-9.3c0.7-1.7,1.4-3.3,1.9-5.1c0.5-1.8,0.8-3.5,1-5.4
							c-0.1,1.8-0.4,3.6-0.8,5.4c-0.4,1.8-1,3.5-1.7,5.2c-1.4,3.4-3.3,6.5-5.5,9.5c-4.3,5.9-9.8,10.9-15,15.9
							c-5.3,5-10.5,10.1-14.4,16.2c-1,1.5-1.9,3.1-2.7,4.7c-0.8,1.6-1.5,3.3-2,5c-0.5,1.7-1,3.5-1.2,5.3
							C598,340.2,597.9,342,598,343.8z"/>
					</g>
					<g>
						<path class="st0" d="M634.3,279.1c-0.3,1.6-0.7,3.3-1.1,4.9c-0.4,1.6-1,3.2-1.6,4.7c-0.6,1.5-1.3,3.1-2,4.6
							c-0.8,1.5-1.6,2.9-2.5,4.3l2-4.6c0.6-1.5,1.3-3.1,1.9-4.6c0.6-1.5,1.2-3.1,1.8-4.6L634.3,279.1z"/>
					</g>
					<g>
						<path class="st0" d="M649.6,281.4c-0.9,3.1-2.3,6.1-4.2,8.7c-1.8,2.7-4.1,5.1-6.7,7.1c-2.6,2-5.5,3.6-8.5,4.7
							c-3,1.1-6.3,1.8-9.5,1.9c3.2-0.4,6.3-1.2,9.3-2.5c3-1.2,5.8-2.8,8.3-4.8c2.5-1.9,4.8-4.3,6.7-6.8
							C646.9,287.2,648.4,284.4,649.6,281.4z"/>
					</g>
					<g>
						<path class="st0" d="M635,307.8c-2.7,1-5.3,2-8,3.1c-2.6,1.1-5.2,2.2-7.8,3.4c-2.6,1.2-5.1,2.5-7.6,3.8
							c-2.5,1.3-5,2.8-7.4,4.2c2.3-1.7,4.7-3.2,7.2-4.7c2.5-1.4,5-2.8,7.6-4c2.6-1.2,5.2-2.3,7.9-3.3
							C629.6,309.4,632.3,308.5,635,307.8z"/>
					</g>
				</g>
			</g>
		</g>
	</g>
	<g>
		<g>
			<path class="st0" d="M516.5,164.8h-22c-0.9,0-1.7,0.8-1.7,1.7v15.4c0,0.9,0.8,1.7,1.7,1.7h8.4l2.6,4.5l2.6-4.5h8.4
				c0.9,0,1.7-0.8,1.7-1.7v-15.4C518.2,165.5,517.4,164.8,516.5,164.8z"/>
			<g>
				<g>
					<path class="st15" d="M505.4,171.3c0.8-1.5,2-2,3.5-1.7c1.5,0.2,2.5,1.4,2.6,3c0.1,1.4-0.4,2.5-1.2,3.6
						c-1.2,1.6-2.8,2.9-4.6,3.9c-0.2,0.1-0.5,0.1-0.7,0c-2-1.2-3.8-2.6-5.1-4.6c-0.9-1.5-1.1-3-0.1-4.6c1.2-1.9,4.1-1.8,5.3,0.1
						C505.3,171.1,505.3,171.2,505.4,171.3z"/>
				</g>
			</g>
		</g>
		<g>
			<path class="st0" d="M211.8,179.4l-16.2-3.2c-0.7-0.1-1.4,0.3-1.5,1l-2.3,11.3c-0.1,0.7,0.3,1.4,1,1.5l6.2,1.2l1.3,3.7l2.6-3
				l6.2,1.2c0.7,0.1,1.4-0.3,1.5-1l2.3-11.3C212.9,180.2,212.5,179.5,211.8,179.4z"/>
			<g>
				<g>
					<path class="st15" d="M202.7,182.6c0.8-1,1.8-1.1,2.8-0.8c1.1,0.4,1.6,1.4,1.5,2.6c-0.1,1-0.7,1.8-1.4,2.4
						c-1.1,1-2.5,1.7-3.9,2.2c-0.1,0-0.4,0-0.5-0.1c-1.3-1.2-2.5-2.5-3.1-4.1c-0.4-1.2-0.4-2.4,0.6-3.4c1.2-1.2,3.3-0.7,3.9,0.8
						C202.6,182.4,202.6,182.4,202.7,182.6z"/>
				</g>
			</g>
		</g>
		<g>
			<path class="st0" d="M316.7,157c-7.9,0-14.3,6.4-14.3,14.3c0,3.6,1.3,6.9,3.5,9.4c-0.4,1-1.6,3.4-3.5,4.6c0,0,5-0.2,7.4-1.4
				c2,1.1,4.4,1.7,6.8,1.7c7.9,0,14.3-6.4,14.3-14.3C331,163.3,324.6,157,316.7,157z"/>
			<g>
				<g>
					<circle class="st4" cx="310" cy="171.2" r="1.4"/>
					<circle class="st4" cx="316.7" cy="171.2" r="1.4"/>
					<circle class="st4" cx="323.4" cy="171.2" r="1.4"/>
				</g>
			</g>
		</g>
	</g>
	<g>
		<g>
			<g>
				<path class="st14" d="M317,330.8c-0.9-0.7-2.3-0.6-3.1,0.2l-2.8,2.8h-2.4H267h-2.4l-2.8-2.8c-0.8-0.8-2.2-1-3.1-0.2
					c-1,0.9-1.1,2.4-0.2,3.3l3.6,3.6c0.4,0.4,0.8,0.6,1.3,0.6h3.5h41.7h3.5c0.5,0,1-0.2,1.3-0.6l3.6-3.6
					C318.1,333.3,318.1,331.7,317,330.8z"/>
				<g>
					<g>
						<circle class="st16" cx="270.9" cy="342.1" r="3.7"/>
						<circle class="st4" cx="270.9" cy="342.1" r="1.2"/>
					</g>
					<g>
						<circle class="st16" cx="304.8" cy="342.1" r="3.7"/>
						<circle class="st4" cx="304.8" cy="342.1" r="1.2"/>
					</g>
				</g>
			</g>
			<g>
				<g>
					<g>
						<g>
							<path class="st17" d="M275.5,323.9l0.6,4.6l2,2.5l5.8-1.9c0,0,0.1-1.8,0.2-4.8C281.2,324.2,278.4,324,275.5,323.9z"/>
						</g>
						<path class="st4" d="M294.1,333.8c0.4-0.6,0.3-1.4-0.2-1.9c-0.4-0.5-1.1-0.8-1.8-0.9c-0.7-0.1-1.4-0.1-2-0.2
							c-1.9-0.2-3.8-1.1-5.3-2.3c0.3-0.7,0.6-1.4,0.3-2.1c-0.3-0.5-0.9-0.9-1.4-1c-1.1-0.2-2.4,0-3.3,0.8c-0.9,0.7-1.6,2-1.6,3.2
							c-0.4,0.1-0.8-0.2-1.1-0.5c-0.3-0.3-0.5-0.7-0.9-0.8c-0.4-0.2-1-0.1-1.4,0.1c-0.2,0.1-0.3,0.1-0.5,0.3
							c-0.1,0.1-0.2,0.3-0.1,0.5c0.4,1.1,0.3,2.5,0.1,3.7c-0.1,0.5-0.2,1,0,1.5L294.1,333.8z"/>
					</g>
					<g>
						<g>
							<path class="st17" d="M225.3,305.8c-1.9,1.2-3.1,2-3.4,2.2c-0.1,0-0.1,0.1-0.1,0.1l-1,4.7l4.7,2.6l0.2,0.5l4.7-2.3
								C228.4,311.1,226.7,308.6,225.3,305.8z"/>
						</g>
						<path class="st4" d="M225,326.9c0.2,0.4,0.7,0.6,1.2,0.4c0.3-0.2,0.6-0.5,0.8-0.8c0.3-0.6,0.2-1.4,0-2
							c-0.2-0.7-0.5-1.3-0.7-1.9c-0.7-1.8-0.7-3.9-0.3-5.8c0.7,0,1.5-0.1,2-0.7c0.4-0.5,0.4-1.1,0.2-1.7c-0.3-1.1-1.1-2.1-2.2-2.6
							c-1.1-0.5-2.5-0.5-3.5,0c-0.2-0.3-0.1-0.8,0-1.2c0.2-0.4,0.4-0.8,0.3-1.2c0-0.5-0.3-0.9-0.7-1.3c-0.1-0.1-0.3-0.2-0.4-0.3
							c-0.2-0.1-0.4,0-0.5,0.1c-0.8,0.9-2,1.4-3.2,1.7c-0.1,0-0.2,0.1-0.3,0.1c-0.6,0.2-0.8,0.8-0.6,1.3L225,326.9z"/>
					</g>
					<g>
						<path class="st18" d="M284.8,290.4c-0.1,18.3,0.3,34.5,0.3,34.5l-10.1,2.6l-7.2-69.4l-5.5-18.8l1.4-2.3l0.4-0.7l17.5,4.2
							l1.3,0.3l0.3,0.1c0,0,1.4,11.7,1.7,15.4C285,258,284.9,274,284.8,290.4z"/>
						<g>
							<path class="st18" d="M264.1,236.3c0,0-10.1,8-11.9,19.1c-1.7,11.1,3,30.3,3,30.3l-32,21l7.2,7.9c0,0,36-16.3,39.9-22.1
								c3.9-5.8-2-45.9-2-45.9L264.1,236.3z"/>
							<g>
								<g>
									<path class="st4" d="M271.2,290c0.1-5.2,0.1-10.4-0.1-15.5c-0.1-2.6-0.2-5.2-0.4-7.7c-0.2-2.6-0.5-5.1-1-7.6l-0.1-0.2
										l0.2-0.1l3.5-2l-0.2,0.2l1.2-7.6c0.4-2.5,0.8-5.1,1.3-7.6c-0.3,2.5-0.6,5.1-0.9,7.6l-1,7.6l0,0.2l-0.1,0.1l-3.5,2l0.2-0.4
										c0.6,2.6,0.9,5.1,1.1,7.7c0.2,2.6,0.3,5.2,0.3,7.8c0,2.6,0,5.2-0.1,7.8C271.6,284.9,271.4,287.5,271.2,290z"/>
								</g>
								<g>
									<path class="st4" d="M268.9,241.1c2.3,0.7,4.5,1.3,6.8,1.7c1.1,0.2,2.3,0.3,3.5,0.4c1.2,0.1,2.3,0,3.5-0.1
										c-1.1,0.4-2.3,0.6-3.5,0.6c-1.2,0.1-2.4,0-3.6-0.2C273.2,243.1,270.9,242.3,268.9,241.1z"/>
								</g>
								<g>
									<path class="st4" d="M270.1,259.1c0.2-1.5,0.4-3,0.7-4.5c0.3-1.5,0.6-3,0.9-4.4c0.3-1.5,0.7-2.9,1-4.4
										c0.4-1.5,0.8-2.9,1.2-4.4c-0.2,1.5-0.4,3-0.7,4.5c-0.3,1.5-0.6,3-0.9,4.4c-0.3,1.5-0.7,2.9-1,4.4
										C271,256.2,270.6,257.6,270.1,259.1z"/>
								</g>
							</g>
						</g>
					</g>
				</g>
				<g>
					<g>
						<g>
							<path class="st17" d="M270.4,209.5c1.9-3.8,1.2-12,1.1-13c0,0,0-0.1,0-0.1l10,6.7c-0.2,0.3-0.3,0.7-0.4,1.1l0,0
								c-0.2,0.9-0.1,2.1,0,3.2c0.2,1.6,0.7,3.6,0.7,3.6l-5.3,2.3L270.4,209.5z"/>
							<path class="st19" d="M281,207.4c-5.7,0.3-8.1-6.7-8.1-7c0.9,1.7,2.4,2.7,3.8,3.2c1.8,0.6,3.6,0.6,4.3,0.6c0,0,0,0,0,0
								C280.9,205.1,280.9,206.3,281,207.4z"/>
						</g>
						<g>
							<path class="st20" d="M288.8,223.6c0,0.5-0.1,1.1-0.2,1.6c-0.6,2.6-2.4,5.1-2.4,5.1l-0.1,0.4l-2.8,8.7l-0.5,1.4l-0.1,0.4
								c0,0-0.5,0.2-1.3,0.4c-2.6,0.5-8.8,0.7-17.7-4.5c-0.1-0.1-0.3-0.1-0.4-0.2c0,0,0.1-0.4,0.1-1.2c0.1-1.9,0.2-6-0.9-10.1
								c-0.2-0.9-0.5-1.9-0.9-2.8c-2.7-6.8,2.4-12.7,5.1-13.2c2.7-0.5,4-0.8,4-0.8s6.5,4.4,11.3,1.6c0,0,1.7,1.7,3.5,2.9
								c1.3,0.8,2.1,2.1,2.4,3.6C288.2,218.9,288.8,221.8,288.8,223.6z"/>
							<path class="st16" d="M286.1,230.7l-2.8,8.7c-4.3-0.2-13.3-1.8-19.9-3.8c0.1-1.9,0.2-6-0.9-10.1
								C266.4,227,277.9,231.1,286.1,230.7z"/>
							<g>
								<g>
									<path class="st4" d="M272.7,211.7c1.4,0.6,2.9,1,4.3,1.1c1.5,0.1,2.9-0.2,4.4-0.8c-1.2,1.1-2.8,1.6-4.4,1.5
										C275.4,213.4,273.7,212.8,272.7,211.7z"/>
								</g>
								<g>
									<path class="st4" d="M273.7,235.4c1.8-1.4,3.5-2.8,5-4.4c1.6-1.5,3-3.2,4.5-4.9c-1,2-2.4,3.9-4,5.4
										C277.6,233.2,275.7,234.5,273.7,235.4z"/>
								</g>
								<g>
									<path class="st4" d="M278.8,234.2c0.4-0.7,0.9-1.3,1.4-1.9c0.5-0.6,1.1-1.2,1.7-1.7c-0.2,0.8-0.6,1.5-1.2,2.2
										C280.2,233.4,279.6,233.9,278.8,234.2z"/>
								</g>
							</g>
						</g>
					</g>
					<g>
						<g>
							<path class="st17" d="M234.4,238.9c-2.5,3.7-4.7,7.7-6.3,11.9l0,0c-1.5,0.9-5.1,3-6.1,4.4c-0.1,0.1,0,0.3,0.1,0.3
								c0.3,0,1-0.2,2.2-1.1c0,0-2.1,2.5-2.1,3.1c0,0.6,3.2-2.2,3.2-2.2s-2.1,3.1-1.8,3.5c0.3,0.5,3-2.7,3-2.7s-2,3.3-1.7,3.4
								c0.7,0.3,3.6-4.2,4.1-3.9c0.4,0.3,0.2,1.6-0.1,2.3c0,0.1,0,0.3,0.2,0.3c0.3,0.1,0.7,0,1-0.6c0.4-0.9,1.1-2.6,1.1-4.8
								c0.1-0.1,2.2-2.1,5.4-5.1C235.8,244.8,235.1,241.8,234.4,238.9z"/>
							<path class="st0" d="M270.6,208.7c0,0-8.4-1.7-21.2,10.8c-12.8,12.5-21.9,20.4-21.9,20.4s3,10.1,7.2,12.6
								c0,0,11.4-12.2,13.8-13.8c2.4-1.7,13.7-13.2,13.7-13.2S272.4,214.3,270.6,208.7z"/>
						</g>
						<g>
							<path class="st0" d="M258.1,224.6c0,0,1.6,10.4,0.7,14c-0.9,3.6-15.3,16.2-8.8,47.1c0,0,8.1,1.6,16.2,1.1
								c0,0,0-43.7,3.2-47.3c3.2-3.6,7.4-22.8,1.2-30.8C270.6,208.7,258.4,214.7,258.1,224.6z"/>
							<g>
								<g>
									<path class="st4" d="M258.8,229.2c0.6-0.8,1.2-1.3,2-1.8c0.7-0.5,1.5-1,2.4-1.2c-0.6,0.8-1.2,1.3-2,1.8
										C260.5,228.4,259.7,228.9,258.8,229.2z"/>
								</g>
								<g>
									<path class="st4" d="M260.7,228.3c0.9,2.3,1,4.8,0.8,7.3c-0.3,2.4-1.1,4.8-2,7.1c-1.9,4.5-4.6,8.6-6.2,13.2
										c-1.7,4.5-2.7,9.3-3.1,14.2c-0.3,4.8,0,9.7,1.1,14.5c-1.3-4.7-1.9-9.6-1.6-14.5c0.2-4.9,1.3-9.8,2.9-14.4
										c1.7-4.6,4.4-8.8,6.4-13.2c1-2.2,1.8-4.5,2.2-6.9C261.5,233.1,261.4,230.7,260.7,228.3z"/>
								</g>
							</g>
						</g>
					</g>
					<g>
						<g>
							<path class="st17" d="M325.3,254.5c0.3-0.4,1.6-0.2,2.3,0.1c0.1,0,0.3,0,0.3-0.2c0.1-0.3,0-0.7-0.6-1
								c-0.9-0.4-2.6-1.1-4.8-1.1c-1.1-1.2-3.2-3.3-5.8-6c-1.1,2.1-2.2,4.2-3.3,6.4c2.4,1.4,4.9,2.6,7.5,3.7c1,1.7,2.7,4.4,4,5.3
								c0.1,0.1,0.3,0,0.3-0.1c0-0.3-0.2-1-1.1-2.2c0,0,2.5,2.1,3.1,2.1c0.6-0.1-2.2-3.2-2.2-3.2s3.1,2.1,3.5,1.8
								c0.5-0.3-2.7-3-2.7-3s3.3,2,3.4,1.7C329.5,257.8,325,254.9,325.3,254.5z"/>
							<path class="st0" d="M290.6,216.2c-1-1.2-1.9-1.9-2.7-2.2c0.1,0.2,0.1,0.4,0.1,0.6c1,5.6,1.3,11.7,0.6,17.7
								c7.5,10.6,26.5,23.3,26.5,23.3c2.5-1.8,5.6-6.2,5.6-6.2C317,245.8,292.6,218.7,290.6,216.2z"/>
						</g>
						<g>
							<path class="st0" d="M298.2,287.5l-4.5-18.7c-2.3-17.9-3.2-40.5-3.2-40.5l-0.8-1.2v-3.2c0,0,7.8-6.3-8-13.6
								c0,0,5.1,5.8,4.7,15.2c-0.1,2-0.3,3.9-0.6,5.7l-3.1,9.6c0,0,0.4,6.2,0.6,7.3c0.6,5.1,1.4,42.3,1.4,42.3s7.7,0,12.1-0.8
								C297.8,289.6,298.5,288.5,298.2,287.5z"/>
							<g>
								<path class="st4" d="M290.4,235.1c-0.2-2-0.3-4-0.4-6c-0.1-2-0.3-4-0.4-6c0.7,1.9,1,3.9,1.2,6
									C290.8,231,290.8,233.1,290.4,235.1z"/>
							</g>
						</g>
					</g>
				</g>
				<g>
					<g>
						<g>
							<path class="st17" d="M286.5,186c-1.1-3.6-7.4-5.5-12.2-2c-2.2,1.6-2.9,4.9-3,7.9c-0.1-0.1-0.2-0.1-0.3-0.1
								c-0.9-0.3-1.9,0.3-2.2,1.1c-0.3,0.7-0.2,1.4,0.2,2.1c0.3,0.5,0.8,1,1.3,1.3c0.1,0.1,0.8,0.2,1.2,0.2c0.3,2,1.1,3.9,2.6,5.3
								c1.8,1.8,4.3,2.6,6.8,2.3c2-0.2,4.9-1.3,5.8-3.2c0.2-0.5,0.3-1.1,0.3-1.6c0-0.1,0-0.3,0-0.4c0.1-1.2,0.2-2.5,0.3-3.9
								C287.5,192,287.4,188.8,286.5,186z"/>
							<g>
								<g>
									<path class="st19" d="M287.4,195.1c-0.1,1.3-0.2,2.6-0.3,3.9c-0.2,0-0.3,0-0.5,0c-1.1-0.1-1.9-1.1-1.8-2.2
										c0.1-1.1,1.1-1.9,2.2-1.8C287.1,195,287.2,195.1,287.4,195.1z"/>
									
										<ellipse transform="matrix(7.984111e-02 -0.9968 0.9968 7.984111e-02 59.1426 456.5137)" class="st19" cx="276.8" cy="196.2" rx="2" ry="2"/>
								</g>
								<g>
									<g>
										<g>
											
												<ellipse transform="matrix(7.979488e-02 -0.9968 0.9968 7.979488e-02 69.5478 461.2474)" class="st21" cx="284.6" cy="193" rx="1.2" ry="0.6"/>
											<path class="st21" d="M285.9,191.5c-0.1,0.2-0.3,0.3-0.4,0.5c-0.2,0.1-0.4,0.2-0.6,0.3l0,0c-0.1,0-0.2-0.1-0.2-0.2
												c0-0.1,0.1-0.2,0.2-0.2c0,0,0,0,0.1,0c0.3,0,0.7-0.1,1-0.4l0,0C285.8,191.4,285.9,191.4,285.9,191.5
												C285.9,191.4,285.9,191.5,285.9,191.5z"/>
										</g>
										<g>
											
												<ellipse transform="matrix(7.987245e-02 -0.9968 0.9968 7.987245e-02 65.3418 455.899)" class="st21" cx="279.6" cy="192.6" rx="1.2" ry="0.6"/>
											<path class="st21" d="M278.7,190.9c0.2,0.3,0.6,0.5,0.9,0.5c0.1,0,0.2,0.1,0.2,0.2c0,0.1-0.1,0.2-0.2,0.2c0,0,0,0-0.1,0
												l0,0c-0.2-0.1-0.4-0.2-0.6-0.4c-0.2-0.2-0.3-0.3-0.3-0.5C278.6,190.9,278.6,190.8,278.7,190.9
												C278.6,190.8,278.7,190.8,278.7,190.9L278.7,190.9z"/>
										</g>
									</g>
								</g>
								<g>
									<g>
										<path class="st21" d="M284,196.5c-0.2,0.4-0.6,0.7-0.9,0.9c-0.4,0.2-0.9,0.4-1.3,0.3c-0.5,0-0.9-0.2-1.2-0.5
											c-0.2-0.1-0.3-0.3-0.5-0.5c-0.1-0.2-0.2-0.4-0.3-0.6c0.2,0.1,0.3,0.3,0.5,0.4c0.2,0.1,0.3,0.3,0.5,0.4
											c0.3,0.2,0.7,0.4,1.1,0.4c0.4,0,0.8-0.1,1.2-0.2C283.3,197,283.6,196.8,284,196.5z"/>
										<path class="st21" d="M282.3,198.5c-0.2,0.1-0.4,0.2-0.6,0.2c-0.2,0-0.4-0.1-0.6-0.3c0.2,0.1,0.4,0.1,0.6,0.1
											C281.8,198.5,282,198.5,282.3,198.5z"/>
									</g>
								</g>
								<g>
									<g>
										<path class="st21" d="M281,188.6c-0.2-0.3-0.5-0.4-0.9-0.4c-0.3,0-0.6,0-1,0.1c-0.3,0.1-0.6,0.2-0.9,0.4
											c-0.3,0.2-0.5,0.4-0.6,0.7c-0.1,0.1,0,0.3,0.1,0.4c0.1,0.1,0.2,0.1,0.3,0l0,0c0.2-0.2,0.4-0.3,0.6-0.4
											c0.2-0.1,0.4-0.2,0.6-0.2c0.2,0,0.5,0,0.7,0c0.2,0,0.5,0.1,0.7,0l0.1,0c0.2,0,0.3-0.2,0.2-0.3
											C281.1,188.7,281,188.6,281,188.6z"/>
										<path class="st21" d="M283.9,188.8c0.3-0.2,0.6-0.3,0.9-0.3c0.3,0,0.6,0.1,0.9,0.2c0.3,0.1,0.6,0.3,0.8,0.5
											c0.2,0.2,0.4,0.5,0.5,0.8c0.1,0.1,0,0.3-0.1,0.4c-0.1,0.1-0.2,0-0.3-0.1l0,0c-0.2-0.2-0.3-0.4-0.5-0.5
											c-0.2-0.1-0.4-0.2-0.6-0.3c-0.2-0.1-0.4-0.1-0.7-0.1c-0.2,0-0.5,0-0.7-0.1l-0.1,0c-0.2-0.1-0.2-0.2-0.2-0.4
											C283.8,188.9,283.8,188.8,283.9,188.8z"/>
									</g>
								</g>
								<path class="st21" d="M282.4,191c0.1,0.5,0.1,0.9,0.2,1.3c0.1,0.4,0.1,0.9,0.2,1.3c0,0.1,0,0.2,0.1,0.3
									c0,0.1,0.1,0.2,0.1,0.4c0,0.3-0.2,0.6-0.5,0.7c-0.3,0.1-0.5,0.1-0.8,0c-0.2-0.1-0.4-0.2-0.6-0.4c0.4,0.2,0.9,0.3,1.2,0.2
									c0.2-0.1,0.2-0.2,0.2-0.4c0-0.1,0-0.1-0.1-0.3c0-0.1-0.1-0.2-0.1-0.3c-0.1-0.5-0.1-0.9-0.1-1.4
									C282.2,191.9,282.3,191.4,282.4,191z"/>
								<path class="st21" d="M269.5,193.7c0-0.3,0.1-0.6,0.4-0.8c0.3-0.2,0.6-0.1,0.9,0c0.3,0.1,0.5,0.3,0.7,0.6
									c0.2,0.2,0.3,0.5,0.4,0.8c0,0.1,0,0.2-0.1,0.2c-0.1,0-0.2,0-0.2-0.1l0,0c-0.2-0.2-0.4-0.4-0.6-0.5c-0.1,0-0.2,0-0.3,0
									c-0.1,0.1-0.2,0.2-0.2,0.3c-0.1,0.3-0.2,0.5,0,0.7c0.2,0.1,0.6,0.1,0.9,0.1c-0.3,0.1-0.6,0.2-1,0.1
									c-0.2-0.1-0.3-0.3-0.3-0.5c0-0.2,0-0.4,0.1-0.5c0.1-0.2,0.1-0.3,0.3-0.5c0.2-0.1,0.4-0.1,0.6-0.1c0.4,0.1,0.6,0.4,0.8,0.6
									l-0.4,0.2c-0.1-0.5-0.4-1-0.8-1.2c-0.2-0.1-0.5-0.2-0.7-0.1C269.8,193.2,269.6,193.4,269.5,193.7z"/>
							</g>
						</g>
						<path class="st4" d="M293.9,205.3c-0.1-1.3-0.8-2.5-1.5-3.6s-1.7-2.1-2.4-3.2c-0.7-1.1-0.7-2.5-1.1-3.8
							c-0.5-1.7-0.4-3.5-0.3-5.3c0-1.8-0.7-3.7-1.7-5.2c-0.8-1.2-1.6-1.9-3-2.4c-2.3-1-4.9-1.6-7.4-1.2c-2.5,0.3-5.6,1.5-6.1,4
							c-0.4,1.8,0.1,3.8-1.1,5.2c-1,1.3-3.6,2.2-4.3,3.7c-0.5,1.3-0.5,2.7-0.8,4c-0.3,1.4-1,2.8-2,3.9c-0.6,0.7-1.4,1.3-1.5,2.2
							c-0.2,0.9,0.3,1.9,1,2.5c0.7,0.6,1.6,0.9,2.6,1.2c2.1,0.6,4.4,1,6.6,1.2c1.2-4,0.7-10.5,0.6-11.8c-0.4,0-1.1-0.2-1.2-0.2
							c-0.5-0.3-1-0.8-1.3-1.3c-0.3-0.6-0.4-1.4-0.2-2.1c0.2-0.5,0.6-0.9,1.1-1.1c0.5,1.9,2.1,3.5,3.9,4.3c-0.7-0.7-1.1-1.5-1.4-2.5
							c2.6,0.1,5.2-0.7,7.3-2.2c2.1-1.5,3.7-3.7,4.4-6.2c-1.4-0.6-2.7-0.6-4.2-0.5c-2,0.2-4,0.6-5.8,1.5c-0.8,0.4-1.5,0.9-2.2,1.5
							c0.5-1.5,1.2-2.9,2.4-3.8c4.8-3.5,11.1-1.7,12.2,2c0.8,2.8,1,6,0.8,9.1c-0.1,1.3-0.2,2.6-0.3,3.9c0,0.1,0,0.3,0,0.4
							c-0.1,0.6-0.1,1.1-0.3,1.6c-0.9,1.9-3.7,2.9-5.7,3.2c-0.2,0.9-0.1,2.1,0,3.2c0,0.4,0.1,0.9,0.2,1.3c2.8,0.2,5.5,0.4,8.3,0.5
							c1,0,2,0,2.9-0.4C293.5,208.1,294,206.6,293.9,205.3z"/>
					</g>
					<g>
						<g>
							<path class="st20" d="M287.8,186.2c0-3.3-2.1-6.4-5.3-7.9c-3.1-1.5-7.1-1.5-10.4,0c-3.3,1.4-5.9,4.1-7.2,7.2
								c-0.2,0.5-0.4,0.9-0.3,1.4c0,0.5,0.2,1,0.7,1.2c1,0.5,2.6,0.7,3.3,1.4c1,1,2.9,0.1,4.5-0.1
								C278.1,188.8,283.4,188.4,287.8,186.2z"/>
							<path class="st20" d="M288.8,185.8c0,0.3-0.2,0.6-0.5,0.7c-5.7,2.4-11.9,3.8-18.1,4.2c-0.6,0-1.2,0.1-1.7-0.2
								c-0.1,0-0.1-0.1-0.2-0.1c-0.6-0.4-0.6-1.3,0.1-1.6c0.8-0.4,1.7-0.6,2.6-0.7c4.8-0.6,9.5-1.8,14-3.4c0.8-0.3,1.6-0.6,2.3-0.5
								C288.2,184.4,288.7,185.1,288.8,185.8z"/>
						</g>
						<g>
							<g>
								<path class="st4" d="M268.1,189c1.5-0.5,3.1-1,4.6-1.4c1.5-0.4,3.1-0.8,4.6-1.2c1.6-0.4,3.1-0.7,4.7-1
									c1.6-0.3,3.1-0.6,4.7-0.8c-1.5,0.5-3.1,1-4.6,1.4c-1.5,0.4-3.1,0.8-4.6,1.2c-1.6,0.4-3.1,0.7-4.7,1
									C271.3,188.5,269.7,188.8,268.1,189z"/>
							</g>
							<g>
								<path class="st4" d="M267.7,184.7c0,0.8-0.1,1.6,0,2.3c0.1,0.7,0.2,1.4,0.4,2.3c-0.7-0.5-1.1-1.4-1.1-2.2
									C266.9,186.2,267.1,185.3,267.7,184.7z"/>
							</g>
						</g>
					</g>
				</g>
			</g>
		</g>
		<g>
			<path class="st22" d="M220.6,347.1c8.2-0.3,16.4-0.6,24.7-0.7c8.2-0.1,16.4-0.2,24.7-0.2c8.2,0,16.4,0.1,24.7,0.2
				c8.2,0.1,16.4,0.4,24.7,0.7c-8.2,0.4-16.4,0.6-24.7,0.7c-8.2,0.1-16.4,0.2-24.7,0.2c-8.2,0-16.4-0.1-24.7-0.2
				C237,347.7,228.8,347.4,220.6,347.1z"/>
		</g>
	</g>
	<g>
		<g>
			<defs>
				<polygon id="SVGID_11_" points="187,140.8 193.3,362.9 120.4,330.5 104.1,331.3 104.1,319.2 103.9,271.9 103.9,232.7 103.7,185 
					103.7,161.3 103.6,132.9 129.7,135.4 151.4,137.4 				"/>
			</defs>
			<clipPath id="SVGID_12_">
				<use xlink:href="#SVGID_11_"  style="overflow:visible;"/>
			</clipPath>
			<g class="st23">
				<g>
					<g>
						<g>
							<path class="st24" d="M163.3,334.8l1.8,7.6l7.2-2.3c0,0-0.1-1.8-0.3-4.7C169.2,335.2,166.2,335,163.3,334.8z"/>
						</g>
						<path class="st4" d="M166.1,346.5c6.2,0.1,12.6-0.7,18.6-2.3c0-1.5-1.5-2.8-2.9-3.1c-1.4-0.3-2.8-0.1-4.2,0
							c-1.4,0.1-3,0-4.1-0.9c0.2-0.4-0.1-1-0.5-1.2c-0.4-0.2-1-0.2-1.4,0c-0.8,0.2-1.6,0.6-2.3,1.1c-0.5,0.4-1,0.9-1.6,1
							c-0.6,0.1-1.2,0-1.7-0.4c-0.3-0.2-0.6-0.3-0.9-0.5c-0.5-0.3-1.2-0.1-1.5,0.5c-0.1,0.1-0.1,0.2-0.2,0.4c0.7,1.2,1,2.6,1,3.9
							C164.5,345.7,165.2,346.5,166.1,346.5z"/>
					</g>
					<g>
						<g>
							<path class="st24" d="M100.2,305.2c-4.8,2.5-7.9,4.2-7.9,4.2l2.5,7.9l10.2-3.9C103.5,310.6,102.1,307.8,100.2,305.2z"/>
						</g>
						<path class="st25" d="M88.2,311.2c0.8,6.2,2.6,12.3,5.1,18c1.4-0.3,2.5-1.9,2.7-3.3c0.1-1.4-0.3-2.8-0.6-4.2
							c-0.3-1.4-0.5-2.9,0.3-4.2c0.5,0.2,1-0.2,1.2-0.7c0.1-0.5,0-1-0.2-1.4c-0.3-0.8-0.8-1.5-1.4-2.1c-0.5-0.4-1-0.8-1.2-1.4
							c-0.2-0.6-0.1-1.2,0.1-1.7c0.1-0.3,0.2-0.7,0.4-1c0.2-0.6-0.1-1.2-0.7-1.4c-0.1,0-0.3-0.1-0.4-0.1c-1.1,0.8-2.4,1.4-3.7,1.6
							C88.7,309.5,88,310.3,88.2,311.2z"/>
					</g>
					<g>
						<path class="st4" d="M133.8,253.2c0,0-2.9,9.8-3.2,16.6c-0.2,6.8-3.3,20-3.3,20l-32.7,18l2.6,9.3c0,0,38.1-13.7,41.8-16.6
							c3.7-2.8,10.9-30.3,10.9-30.3l13.7,68.6l8.8-1c0,0-3-70.7-9.8-81.2L133.8,253.2z"/>
						<g>
							<g>
								<path class="st0" d="M132.9,257.7c2.6,0.7,5.1,1.3,7.7,1.8c2.6,0.5,5.2,0.9,7.8,1.2c2.6,0.3,5.2,0.5,7.9,0.5
									c2.6,0,5.3-0.2,7.9-0.5c-2.6,0.7-5.2,1-7.9,1.1c-2.7,0.1-5.3-0.1-8-0.4c-2.6-0.4-5.3-0.8-7.8-1.4
									C137.9,259.4,135.3,258.6,132.9,257.7z"/>
							</g>
							<g>
								<path class="st0" d="M153,258.2c0,1.5,0,3,0,4.6c0,1.5,0,3-0.1,4.6l0,0.1l-0.1,0.1l-2.3,2.9l-0.7,0.9l0-1.1
									c0.1-2,0.1-4.1,0.3-6.1c0.1-2,0.2-4.1,0.5-6.1c0.1,2,0.1,4.1,0.1,6.1c0,2-0.1,4.1-0.1,6.1l-0.7-0.2l2.4-2.9l-0.1,0.2
									c0.1-1.5,0.2-3,0.3-4.6C152.7,261.3,152.8,259.7,153,258.2z"/>
							</g>
							<g>
								<path class="st0" d="M161.1,261.3c0.1,0.7,0.2,1.5,0.4,2.2c0.2,0.7,0.4,1.3,0.8,1.9c0.3,0.6,0.8,1.1,1.4,1.5
									c0.6,0.4,1.2,0.7,1.9,1c-0.7,0-1.5-0.1-2.2-0.5c-0.7-0.3-1.3-0.9-1.7-1.6C160.8,264.4,160.7,262.7,161.1,261.3z"/>
							</g>
							<g>
								<path class="st0" d="M136,258.6c0.4,1.5,0.2,3.2-0.5,4.7c-0.4,0.7-1,1.4-1.7,1.8c-0.7,0.5-1.5,0.6-2.3,0.6
									c0.7-0.3,1.4-0.6,2-1.1c0.6-0.5,1-1,1.4-1.7c0.3-0.6,0.6-1.3,0.8-2.1C135.8,260.1,135.9,259.3,136,258.6z"/>
							</g>
							<g>
								<path class="st0" d="M147.1,268.7c1.4,0.2,2.7,0.9,3.9,1.8l-0.2-0.1c1.4,0.1,2.8,0,4.3,0.4c-1.4,0.2-2.8,0.4-4.3,0.4l-0.1,0
									l-0.1-0.1C149.4,270.2,148.2,269.5,147.1,268.7z"/>
							</g>
							<g>
								<path class="st0" d="M128.2,291.6c-0.5-0.4-0.8-0.9-1-1.4l-0.3-0.6l0.7,0.1c0.4,0,0.7,0.1,1.1,0.1c0.4,0.1,0.8,0.2,1.1,0.4
									c-0.4,0.1-0.8,0.2-1.1,0.2c-0.4,0-0.8,0-1.2-0.1l0.4-0.5C128.1,290.4,128.3,290.9,128.2,291.6z"/>
							</g>
						</g>
					</g>
				</g>
				<g>
					<g>
						<g>
							<path class="st24" d="M145.7,214.1c2.3-3.5,2.6-11.8,2.6-12.8c0,0,0-0.1,0-0.1l9.1,7.9c-0.2,0.3-0.4,0.6-0.5,1.1l0,0
								c-0.3,0.9-0.4,2.1-0.4,3.2c0,1.6,0.1,3,0.1,3L145.7,214.1z"/>
							<path class="st26" d="M156.5,213.3c-5.7-0.4-7.2-7.7-7.2-7.9c0.7,1.8,2,3,3.4,3.7c1.7,0.9,3.5,1.1,4.2,1.1c0,0,0,0,0,0
								C156.6,211.1,156.5,212.2,156.5,213.3z"/>
						</g>
						<g>
							<g>
								<path class="st27" d="M172.5,246.3c-1.5,0.8-2.9,1.5-4.5,2.2c-1.2-2.3-2.3-4.5-3.2-6.6c-2.4-5.3-4.1-9.8-5.1-12.8
									c-1-2.6-3.7-6.8-3.4-8.4c0.8-4,3.7-7.1,8.7-1.9c0.8,0.9,3.1,4.6,3.8,6.4c0.9,2.3,2.4,5.7,4.3,9.8c0.6,1.3,1.2,2.7,1.9,4.1
									C176.1,241.8,175.1,245,172.5,246.3z"/>
							</g>
							<g>
								<path class="st0" d="M146.1,212.1c-3-0.2-6,0.1-8.8,1c-1.8,0.5-3.7,1.3-5.1,2.6c-1.5,1.3-2.5,3.1-2.6,5
									c-0.1,1.9,1,3.9,2.8,4.6c1.9,2.8,1.9,6.5,1.6,9.9c-0.4,3.4-1.3,6.6-1.8,10c-0.4,3.3-0.3,6.9,1.5,9.8c4.9,1.2,9.8,2.4,14.8,3
									s10.2,0.5,15-0.8c0.6-11,1.1-22,1.7-32.9c0.1-1.8,0.2-3.6-0.8-5.1c-1-1.6-2.8-2.3-4.5-3c-1.5-0.6-3.1-1.3-4.7-1.3
									c-1.1,0-2.1,0.2-3.2,0.1C150,214.5,147.8,213.3,146.1,212.1z"/>
							</g>
						</g>
					</g>
					<g>
						<g>
							<path class="st27" d="M171,232.7c2.4,2.3,4.9,4.8,5.3,8.1c0.2,1.1,0.1,2.3-0.3,3.4c-0.3,1-1,1.9-1.9,2.5
								c-0.9,0.5-1.7,1.2-2.5,1.8c-3.6,2.7-8.3,3.2-12.8,3.7c-0.4-1.1-0.7-2.2-0.9-3.3c-0.1-1.2,0.1-2.4,0.8-3.3
								c0.7-0.9,1.8-1.4,2.9-2c2.8-1.6,5.1-4,6.5-6.9C169,235.2,169.5,233.3,171,232.7z"/>
							<g>
								<g>
									<path class="st4" d="M164.6,241.2c0.6-1.2,1.5-2.2,2.6-3.1c1.1-0.8,2.3-1.5,3.6-1.8c-1.1,0.8-2.1,1.6-3.1,2.4
										C166.6,239.5,165.6,240.3,164.6,241.2z"/>
								</g>
								<g>
									<path class="st4" d="M168.6,235.3c0.2,0.5,0.2,1,0.1,1.5c-0.1,0.5-0.2,0.9-0.6,1.4c-0.2-0.5-0.2-1-0.1-1.5
										C168.1,236.2,168.2,235.7,168.6,235.3z"/>
								</g>
							</g>
						</g>
						<g>
							<path class="st27" d="M160.7,243.9c0.5,0.2,0.9,0.8,0.9,1.5l-0.2,6.8c0,1.2-0.1,2.5-0.8,3.3c-0.5,0.6-1.3,1-2.1,1
								c-0.8,0.1-1.6-0.1-2.3-0.2c-2-0.3-4-0.7-6-0.7c-1.6,0-3.2,0.2-4.7-0.2c-1.5-0.4-3-1.6-3.3-3.3c-0.1-0.9,0.1-1.7,0.2-2.6
								l1.1-4.6c0.1-0.6,0.6-1.1,1.2-1.1c2.9-0.3,6.1,1.1,9,0.8c1.4-0.2,2.7-0.7,4-1C158.6,243.5,159.7,243.5,160.7,243.9z"/>
							<g>
								<g>
									<path class="st4" d="M161.3,251.9c0-1.3,0-2.6,0-3.9c-0.1-1.3-0.2-2.5-0.4-3.8c0.7,1.1,1,2.5,1.1,3.8
										C162.1,249.4,161.9,250.7,161.3,251.9z"/>
								</g>
								<g>
									<path class="st4" d="M150.7,250.7c0.5-0.5,1-0.8,1.5-1.2c0.5-0.3,1-0.6,1.7-0.9c-0.2,0.7-0.7,1.2-1.2,1.5
										C152,250.5,151.4,250.8,150.7,250.7z"/>
								</g>
								<g>
									<path class="st4" d="M152.8,251.2c0.3-0.6,0.6-1.1,1-1.5c0.4-0.4,0.8-0.9,1.3-1.2c-0.1,0.7-0.4,1.2-0.8,1.7
										C153.9,250.6,153.5,251,152.8,251.2z"/>
								</g>
							</g>
						</g>
					</g>
					<g>
						<g>
							<path class="st21" d="M171.1,224.8l-0.2-0.1c-0.4-0.2-0.5-0.7-0.3-1.1l5.8-10c0.2-0.4,0.7-0.5,1.1-0.3l0.2,0.1
								c0.4,0.2,0.5,0.7,0.3,1.1l-5.8,10C172,224.9,171.5,225.1,171.1,224.8z"/>
							<path class="st24" d="M177.1,221.8C177.1,221.7,177.1,221.7,177.1,221.8c0.3-0.7-0.2-1.4-0.2-1.4c0.3-0.8-0.6-1.3-0.6-1.3
								c0.5-1.1-0.1-1.6-0.1-1.6c-1.8,1.6-2.3,1.8-2.5,1.8c0,0,0,0,0,0c-0.3-0.4,0.1-1.6,0.5-2.2c0-0.1,0-0.1,0-0.2c0,0,0,0,0,0
								c0-0.1-0.1-0.1-0.1-0.1c-0.3-0.1-0.7-0.2-1.1,0.4c-0.5,0.8-1.5,2.4-2,4.6c0,0,0,0,0,0c-0.8,0.5-10.1,6.6-19.9,12.9
								c-3-5.2-5.5-9.7-6.9-12.5c-0.8-1.7-1.6-2.9-2.4-3.8c-2.6-3.1-7.2-1.7-7.6,2.3c-0.2,1.6,0.1,3.6,1.3,6.1
								c1.4,3,3.7,7.9,6.8,13.4c0.8,1.4,1.7,2.9,2.7,4.4c1.5,2.4,4.8,3.1,7.2,1.4c1.3-0.9,2.6-1.8,3.9-2.8
								c6.5-5,13.1-11.3,17.8-18.9l1.1-0.5c0.3-0.1,0.9-0.3,1.3-0.5C177,223.2,177.4,222.5,177.1,221.8z"/>
						</g>
						<g>
							<g>
								<path class="st28" d="M166.5,224.1c0,0,3.6-2.6,4-2.5c0.4,0,3.3,3.1,3.5,3.3c0.2,0.2-2.6,4.4-2.6,4.4
									S166.7,225.8,166.5,224.1z"/>
								<path class="st0" d="M166.3,223.9c-5.1,2.5-10,5.5-14.5,9c-1.2-4.6-3.4-8.9-6.2-12.6c-1.6-2.1-3.5-4.1-6.4-4.1
									c-1.6,0-3.1,0.7-4.2,1.9c-1.5,1.6-2,3.8-1.3,5.7c0.3,0.9,0.3,1.8,0.3,2.7c0,1.6,0.5,3.2,1.3,4.5c1.1,1.8,2.5,3.4,3.6,5.2
									c1.2,2,2,4.2,3.1,6.3c1.1,2.1,2.6,4,4.8,4.9c2.1,0.9,4.6,0.6,6.7-0.4c2.1-1,3.8-2.5,5.5-4.2c1.4-1.4,1.7-3.3,3.3-4.5
									c1.5-1.2,3.3-2.1,4.8-3.3c1.6-1.3,3-2.9,4.1-4.7c0.1-0.2,0.3-0.5,0.4-0.7c0.1-0.2,0.1-0.5-0.1-0.7c-1.4-1.7-2.9-3.3-4.4-4.9
									C166.8,223.8,166.5,223.8,166.3,223.9z"/>
							</g>
							<g>
								<g>
									<g>
										<path class="st4" d="M134.8,229.7c0.3,1.1,0.9,2,1.6,2.9c0.7,0.8,1.6,1.6,2.4,2.4c1.6,1.7,2.5,3.8,3.4,5.8
											c0.9,2,1.9,4.1,3.6,5.5c1.6,1.4,4,1.9,6,1.3c1-0.2,2-0.8,2.8-1.4c0.9-0.7,1.6-1.4,2.4-2.3c1.5-1.7,2.8-3.5,4.4-5.1
											c1.7-1.6,3.6-2.8,5.3-4.2c1.7-1.4,3.4-3,4.3-5c-0.8,2.1-2.4,3.8-4.1,5.3c-1.7,1.5-3.6,2.8-5.1,4.3
											c-1.6,1.6-2.9,3.4-4.3,5.1c-0.7,0.9-1.5,1.7-2.5,2.4c-0.9,0.7-2,1.3-3.1,1.6c-2.3,0.5-4.8,0-6.6-1.6
											c-1.8-1.5-2.8-3.7-3.7-5.8c-0.9-2.1-1.7-4.2-3.2-5.8c-0.7-0.8-1.5-1.6-2.2-2.5C135.6,231.8,135,230.8,134.8,229.7z"/>
									</g>
									<g>
										<path class="st4" d="M151.8,232.9c-0.3,0.6-0.7,1-1.2,1.4c-0.5,0.3-1,0.7-1.7,0.8c0.3-0.6,0.7-1,1.2-1.4
											C150.6,233.3,151.1,233,151.8,232.9z"/>
									</g>
									<g>
										<path class="st4" d="M153.4,235.4c-0.8-0.9-1.4-1.8-2.1-2.5l0.6-0.1c-0.3,0.8-0.5,1.7-0.8,2.7c-0.3-0.9-0.2-2,0.1-2.9
											l0.2-0.6l0.4,0.4c0.4,0.4,0.7,0.9,1,1.4C153.1,234.3,153.3,234.8,153.4,235.4z"/>
									</g>
									<g>
										<path class="st4" d="M145.5,220.2c1.8,1.6,3.1,3.6,4.2,5.7c1,2.1,1.7,4.5,1.8,6.8c-0.7-2.2-1.5-4.4-2.4-6.5
											C148,224.2,146.8,222.2,145.5,220.2z"/>
									</g>
								</g>
								<g>
									<path class="st4" d="M168,224.6c0.2-0.6,0.6-0.9,1-1.3c0.4-0.3,0.9-0.6,1.4-0.7c-0.2,0.6-0.6,0.9-1,1.3
										C169,224.3,168.5,224.5,168,224.6z"/>
								</g>
								<g>
									<path class="st4" d="M169,225.7c0.2-0.6,0.5-1.1,0.9-1.5c0.4-0.4,0.8-0.8,1.5-1c-0.2,0.6-0.5,1.1-0.9,1.5
										C170,225.1,169.6,225.5,169,225.7z"/>
								</g>
								<g>
									<path class="st4" d="M170,227.1c0.2-0.8,0.5-1.4,1-2c0.4-0.6,0.9-1.1,1.6-1.5c-0.2,0.8-0.5,1.4-1,2
										C171.1,226.2,170.7,226.7,170,227.1z"/>
								</g>
								<g>
									<g>
										<path class="st4" d="M133.9,224.7c0.1-1.5,0.5-3.1,1.2-4.4c0.7-1.4,1.7-2.6,2.9-3.6c1.2-1,2.6-1.7,4.2-2.1
											c1.5-0.4,3.1-0.5,4.6-0.3c-1.5,0.1-3,0.3-4.4,0.8c-1.4,0.5-2.7,1.2-3.9,2.2c-1.2,0.9-2.1,2.1-2.9,3.3
											C134.9,221.8,134.3,223.2,133.9,224.7z"/>
									</g>
									<g>
										<g>
											<g>
												<path class="st4" d="M149.1,215.3c-0.2,1.1,0.1,2.2,0.4,3.2c0.4,1,1,1.9,1.6,2.9c0.6,0.9,1.2,1.9,1.6,2.9
													c0.4,1.1,0.6,2.2,0.4,3.3l-0.1,0c0-1.1-0.2-2.2-0.7-3.2c-0.4-1-1.1-1.9-1.6-2.8c-0.6-0.9-1.2-1.9-1.5-3
													C148.8,217.6,148.7,216.4,149.1,215.3z"/>
												<g>
													
														<ellipse transform="matrix(0.1753 -0.9845 0.9845 0.1753 -97.9029 338.3975)" class="st4" cx="153" cy="227.6" rx="0.6" ry="0.6"/>
												</g>
											</g>
										</g>
										<g>
											<g>
												<path class="st4" d="M155.3,215.7c0.3,0.9,0.9,1.5,1.6,2c0.7,0.5,1.5,0.8,2.3,1.3c0.8,0.4,1.6,1,2.1,1.7
													c0.5,0.8,0.8,1.7,0.8,2.6l-0.1,0c-0.1-0.9-0.4-1.7-1-2.4c-0.5-0.7-1.3-1.1-2-1.6c-0.8-0.4-1.6-0.8-2.3-1.4
													C156,217.4,155.4,216.6,155.3,215.7z"/>
												<g>
													
														<ellipse transform="matrix(1 -3.196006e-03 3.196006e-03 1 -0.7129 0.5192)" class="st4" cx="162.1" cy="223.3" rx="0.6" ry="0.6"/>
												</g>
											</g>
										</g>
									</g>
								</g>
							</g>
						</g>
					</g>
				</g>
				<g>
					<g>
						<path class="st24" d="M164.6,192.8c-0.6-3.7-6.7-6.4-11.9-3.4c-2.4,1.4-3.5,4.5-4,7.5c-0.1-0.1-0.2-0.1-0.2-0.2
							c-0.9-0.4-1.9,0.1-2.3,0.9c-0.4,0.6-0.4,1.4-0.1,2.1c0.2,0.6,0.6,1.1,1.2,1.4c0.1,0.1,0.7,0.3,1.2,0.4c0,2,0.6,4,1.9,5.6
							c1.6,2,3.9,3.1,6.5,3.1c2,0,5.1-0.6,6.2-2.5c0.3-0.5,0.4-1,0.5-1.6C164.4,201.9,165.3,197.1,164.6,192.8z"/>
						<g>
							<g>
								<g>
									<path class="st29" d="M158.5,199.6c-0.1-0.3-0.2-0.5-0.3-0.8c-0.2-0.2-0.3-0.4-0.5-0.5c-0.2-0.1-0.5-0.2-0.7-0.3
										c-0.3-0.1-0.5-0.1-0.9-0.2c0.1-0.1,0.3-0.1,0.4-0.2c0.1,0,0.3,0,0.5-0.1c0.3,0,0.6,0,0.9,0.2c0.3,0.2,0.5,0.4,0.6,0.8
										C158.6,199,158.6,199.3,158.5,199.6z"/>
								</g>
								<g>
									<path class="st29" d="M164.5,199.8c-0.5-0.4-0.9-0.7-1.4-0.7c-0.2,0-0.5,0.1-0.8,0.2l-0.8,0.4c0.1-0.1,0.2-0.3,0.2-0.4
										c0.1-0.1,0.2-0.2,0.3-0.4c0.3-0.2,0.6-0.4,0.9-0.4c0.4,0,0.7,0.1,1,0.4C164.2,199.2,164.4,199.5,164.5,199.8z"/>
								</g>
							</g>
							<g>
								<g>
									<path class="st21" d="M161,202.9c-0.3,0.3-0.6,0.6-1.1,0.8c-0.4,0.2-0.9,0.3-1.4,0.2c-0.5-0.1-0.9-0.4-1.2-0.7
										c-0.2-0.2-0.3-0.4-0.4-0.5c-0.1-0.2-0.2-0.4-0.3-0.6c0.1,0.2,0.3,0.3,0.4,0.5c0.2,0.1,0.3,0.3,0.4,0.4
										c0.3,0.3,0.7,0.5,1.1,0.5c0.4,0.1,0.8,0,1.2-0.1C160.3,203.3,160.7,203.2,161,202.9z"/>
									<path class="st21" d="M159.1,204.7c-0.2,0.1-0.4,0.1-0.6,0.1c-0.2-0.1-0.4-0.2-0.6-0.3c0.2,0.1,0.4,0.2,0.6,0.2
										C158.7,204.7,158.9,204.7,159.1,204.7z"/>
								</g>
							</g>
							<g>
								<g>
									<path class="st21" d="M159,194.7c-0.2-0.3-0.5-0.4-0.8-0.5c-0.3-0.1-0.6-0.1-1-0.1c-0.3,0-0.6,0.1-0.9,0.3
										c-0.3,0.1-0.5,0.4-0.7,0.6c-0.1,0.1-0.1,0.3,0,0.4c0.1,0.1,0.2,0.1,0.3,0l0,0c0.2-0.1,0.4-0.3,0.6-0.3
										c0.2-0.1,0.4-0.1,0.7-0.1c0.2,0,0.5,0,0.7,0.1c0.2,0.1,0.5,0.1,0.7,0.1l0.1,0c0.2,0,0.3-0.1,0.3-0.3
										C159.1,194.8,159.1,194.7,159,194.7z"/>
									<path class="st21" d="M161.9,195.3c0.3-0.2,0.6-0.2,0.9-0.1c0.3,0.1,0.6,0.2,0.9,0.3c0.3,0.2,0.5,0.4,0.7,0.6
										c0.2,0.2,0.3,0.5,0.4,0.8c0,0.1,0,0.3-0.2,0.3c-0.1,0-0.2,0-0.3-0.1l0,0c-0.1-0.2-0.3-0.4-0.5-0.6
										c-0.2-0.2-0.4-0.3-0.6-0.4c-0.2-0.1-0.4-0.2-0.7-0.2c-0.2,0-0.5-0.1-0.7-0.2l-0.1,0c-0.1-0.1-0.2-0.2-0.1-0.4
										C161.8,195.3,161.8,195.3,161.9,195.3z"/>
								</g>
							</g>
							<path class="st21" d="M161.1,197.3c0,0.5,0,0.9,0,1.3c0,0.4,0,0.9,0,1.3c0,0.1,0,0.2,0,0.3c0,0.1,0.1,0.3,0,0.4
								c0,0.3-0.3,0.5-0.5,0.6c-0.3,0.1-0.5,0-0.7-0.1c-0.2-0.1-0.4-0.3-0.5-0.5c0.4,0.2,0.8,0.5,1.2,0.3c0.2-0.1,0.3-0.2,0.3-0.4
								c0-0.1,0-0.1,0-0.3c0-0.1,0-0.2,0-0.4c0-0.5,0-0.9,0.1-1.4C160.9,198.2,161,197.8,161.1,197.3z"/>
							<path class="st21" d="M146.7,198.2c0-0.3,0.2-0.5,0.5-0.7c0.3-0.2,0.6-0.1,0.9,0.1c0.3,0.2,0.5,0.4,0.6,0.7
								c0.1,0.3,0.2,0.5,0.3,0.8c0,0.1-0.1,0.2-0.2,0.2c-0.1,0-0.2,0-0.2-0.1l0,0c-0.1-0.2-0.3-0.5-0.6-0.6c-0.1-0.1-0.2-0.1-0.3,0
								c-0.1,0-0.2,0.1-0.3,0.3c-0.2,0.2-0.3,0.5-0.1,0.7c0.2,0.2,0.5,0.2,0.8,0.2c-0.3,0.1-0.6,0.1-1-0.1c-0.2-0.1-0.3-0.3-0.2-0.5
								c0-0.2,0.1-0.3,0.2-0.5c0.1-0.2,0.2-0.3,0.4-0.4c0.2-0.1,0.4-0.1,0.6,0c0.3,0.2,0.5,0.4,0.7,0.7l-0.4,0.1
								c-0.1-0.5-0.3-1-0.7-1.3c-0.2-0.1-0.4-0.2-0.6-0.2C147,197.7,146.8,198,146.7,198.2z"/>
						</g>
					</g>
					<path class="st25" d="M166.2,198.1c-0.3-2.4,0.7-4.9,0.1-7.3c-0.4-1.4-1.3-2.6-2.5-3.3c-1.2-0.7-2.7-0.7-4-0.3
						c-1.7-1.7-4.6-2.2-6.7-1c-1.8,1-3,2.9-4.5,4.4c-0.9,0.8-1.9,1.5-2.5,2.5c-0.2,0.4-0.4,0.8-0.5,1.2c0,0,0,0,0,0
						c0,0.2,0,0.3,0,0.5c0,0,0,0,0,0.1c-0.3,3.1,0.7,6.3,2.7,8.6c0.1-1,0.1-1.8,0.1-2.1c-0.5-0.1-1-0.3-1.2-0.4
						c-0.5-0.3-0.9-0.9-1.2-1.4c-0.3-0.7-0.3-1.5,0.1-2.1c0,0,0,0,0,0c0.4-0.7,1.4-0.9,2.1-0.5c0.5,0.3,1,0.8,1.4,1.2
						c0.9,1,1.6,2.3,2.8,3c0.6,0.3,1.5,0.4,1.8-0.1c0.1-0.2,0.1-0.5,0.1-0.8c0-1.4-0.1-2.7-0.1-4.1c0-1.5,0-3.1,1.1-4.2
						c0.7-0.7,1.9-1,2.9-0.7c1,0.2,1.9,0.9,2.5,1.8c0,0,1.4-1.2,2.8-0.5c1.2,0.6,1.6,3.5,0.8,9c-0.1,0.9-0.3,1.8-0.5,2.6
						c0,0,0,0.1,0,0.1c0.3,0.7,1.3,1,1.9,0.6c0.7-0.3,1.1-1.1,1.2-1.8C167.3,201.5,166.4,199.8,166.2,198.1z"/>
				</g>
			</g>
		</g>
		<g>
			<path class="st30" d="M141.9,347.1c4.7-0.4,9.4-0.6,14.1-0.7c4.7-0.1,9.4-0.2,14.1-0.2c4.7,0,9.4,0.1,14.1,0.2
				c4.7,0.1,9.4,0.3,14.1,0.7c-4.7,0.4-9.4,0.6-14.1,0.7c-4.7,0.1-9.4,0.2-14.1,0.2c-4.7,0-9.4-0.1-14.1-0.2
				C151.3,347.7,146.6,347.5,141.9,347.1z"/>
		</g>
	</g>
	<g>
		<g>
			<g>
				<g>
					<g>
						<path class="st31" d="M378.1,329.6l-1.2,6.4l-0.1,0.6l2.1,2.2l5.4-0.2c0,0,0-0.1,0.1-0.4c0.3-0.8,1-2.9,2-5.9
							C383.6,331.5,380.8,330.6,378.1,329.6z"/>
					</g>
					<path class="st16" d="M376.2,342c5.7,2.5,11.8,4.2,18,5c0.5-1.4-0.3-3.2-1.4-4c-1.1-0.8-2.6-1.2-3.9-1.6
						c-1.3-0.5-2.8-1.1-3.4-2.4c0.4-0.3,0.3-1,0-1.3c-0.3-0.4-0.8-0.5-1.3-0.6c-0.8-0.1-1.7-0.1-2.5,0.1c-0.6,0.2-1.2,0.4-1.9,0.3
						c-0.6-0.1-1.1-0.5-1.4-1c-0.2-0.3-0.4-0.5-0.7-0.8c-0.4-0.5-1.1-0.6-1.6-0.2c-0.1,0.1-0.2,0.2-0.3,0.3c0.1,1.4-0.1,2.8-0.5,4
						C374.9,340.6,375.3,341.6,376.2,342z"/>
				</g>
				<g>
					<g>
						<path class="st17" d="M337.6,310.5c-0.9-1.2-1.7-2.3-2.5-3.5c-3.7,2.2-6.2,3.7-6.7,4.1c-0.1,0-0.1,0.1-0.1,0.1l0.2,3.8
							l3.2,3.6l0.2,0.5l8.2-3.7C339.2,313.7,338.4,312.1,337.6,310.5z"/>
					</g>
					<path class="st16" d="M323.8,314.4c1.9,5.9,4.7,11.7,8.2,16.8c1.4-0.5,2.2-2.3,2.1-3.7c-0.1-1.4-0.8-2.7-1.4-4
						c-0.5-1.3-1-2.8-0.5-4.2c0.5,0.1,1-0.4,1-0.9c0.1-0.5-0.2-1-0.4-1.4c-0.5-0.7-1.1-1.3-1.7-1.8c-0.5-0.4-1.1-0.7-1.5-1.2
						c-0.3-0.5-0.4-1.1-0.2-1.7c0.1-0.3,0.1-0.7,0.2-1.1c0.1-0.6-0.3-1.2-0.9-1.3c-0.1,0-0.3,0-0.4,0c-0.9,1-2.1,1.8-3.4,2.2
						C324,312.6,323.5,313.5,323.8,314.4z"/>
				</g>
				<g>
					<path class="st4" d="M399.3,297.5c-0.5,8.6-12.6,39.6-12.6,39.6l-9.9-2.7l7.4-40.8l-6.2-21.6l-8.5,27.7
						c-0.4,1.4-1.1,2.7-2.1,3.8c-4.4,5.2-10.3,9-16.9,10.8c-2.7,0.7-5.5,1.1-8.1,2c-2.9,1-5.7,2.6-8.2,4.3c-0.7-2.6-1.6-5.1-2.6-7.6
						c-0.5-1.1-1-2.2-1.5-3.3c-0.1-0.1-0.1-0.2-0.2-0.4c1.1-1.7,2.5-3.2,4.1-4.4c1.2-0.9,2.4-1.7,3.7-2.4c5.8-3.4,11.9-6.7,18-9.5
						c0,0,0.9-11.3,2.9-24c2-12.8,5.4-22.4,5.4-22.4l1.5,0l3.6,0.1l22,0.4C391.2,247.2,399.7,288.9,399.3,297.5z"/>
					<g>
						<path class="st16" d="M369.1,246.8c-0.8,12.9-3.4,46.6-7.9,50.4c-4.2,3.5-24.7,13.4-29.6,15.8c-0.5-1.1-1-2.2-1.5-3.3
							c7.8-3.8,25.5-12.5,28.9-15.3c2.4-2.3,5.2-25.7,6.6-47.7L369.1,246.8z"/>
					</g>
					<g>
						<g>
							<path class="st0" d="M377.9,271.4c0.3-1.7,0.7-3.3,1.3-4.9c0.5-1.6,1.1-3.1,2-4.7c-0.3,1.7-0.7,3.3-1.3,4.9
								C379.3,268.4,378.7,269.9,377.9,271.4z"/>
						</g>
						<g>
							<path class="st0" d="M379,271.8c0.4,0.1,0.7,0.3,0.9,0.5c0.2,0.3,0.3,0.5,0.3,1c-0.4-0.1-0.7-0.3-0.9-0.5
								C379.1,272.5,379,272.2,379,271.8z"/>
						</g>
						<g>
							<path class="st0" d="M379.7,271.3c0.3-0.2,0.5-0.2,0.7-0.1c0.2,0.1,0.3,0.2,0.4,0.6c-0.3,0.2-0.5,0.2-0.7,0.1
								C379.9,271.8,379.7,271.7,379.7,271.3z"/>
						</g>
						<g>
							<path class="st0" d="M374.9,270.7c0.2-0.2,0.4-0.3,0.5-0.2c0.1,0,0.3,0.2,0.4,0.5c-0.2,0.2-0.4,0.3-0.5,0.2
								C375.1,271.2,375,271.1,374.9,270.7z"/>
						</g>
						<g>
							<path class="st0" d="M375.4,272.6c0-0.3,0.1-0.5,0.3-0.6c0.2-0.1,0.3-0.1,0.6,0.1c0,0.3-0.1,0.5-0.3,0.6
								C375.8,272.7,375.7,272.8,375.4,272.6z"/>
						</g>
						<g>
							<path class="st0" d="M385.5,290.9c-0.2,0.3-0.3,0.7-0.4,1.1c-0.1,0.4-0.2,0.9-0.4,1.4l-0.7-0.3c0.2-0.3,0.5-0.7,0.7-1.1
								C385,291.7,385.2,291.3,385.5,290.9z M385.5,290.9c-0.2,0.4-0.3,0.8-0.4,1.3c-0.1,0.4-0.2,0.9-0.4,1.3l-0.7-0.3
								c0.2-0.3,0.4-0.6,0.7-1C385.1,291.8,385.3,291.4,385.5,290.9z"/>
						</g>
						<g>
							<path class="st0" d="M380.1,268.6c1.6,2.3,2.8,4.9,3.6,7.6c0.8,2.7,1.3,5.5,1.6,8.3c0.6,5.6,0.8,11.2,0.6,16.8
								c-0.1,2.8-0.4,5.6-0.7,8.4c-0.4,2.8-0.7,5.6-1.4,8.3c-0.7,2.7-1.6,5.4-2.6,8c-1,2.6-2,5.2-2.7,7.9c0.6-2.7,1.5-5.4,2.4-8.1
								c0.9-2.7,1.8-5.3,2.4-8c1.1-5.4,1.7-11,2-16.6c0.3-5.6,0.1-11.2-0.4-16.7c-0.3-2.8-0.7-5.5-1.4-8.2
								C382.7,273.6,381.7,271,380.1,268.6z"/>
						</g>
						<g>
							<path class="st0" d="M363.5,249.6c0.4,0,0.5,0.1,0.7,0.2c0.1,0.1,0.3,0.3,0.3,0.6c-0.3,0.2-0.6,0.1-0.8,0
								C363.6,250.2,363.4,249.9,363.5,249.6z"/>
						</g>
						<g>
							<path class="st0" d="M369,250.5c1.7-0.8,3.8-0.9,5.6-0.4c0.5,0.1,0.9,0.3,1.3,0.3c0.4,0,0.7-0.1,1.2-0.4
								c0.4-0.2,0.9-0.4,1.4-0.5c0.5-0.1,1-0.1,1.5,0c1.9,0.1,3.8,0.3,5.6,0.5c1.9,0.2,3.7,0.4,5.6,0.7c-1.9,0-3.8,0-5.7-0.1
								c-1.9-0.1-3.8-0.2-5.6-0.3c-0.9-0.1-1.8,0-2.6,0.4c-0.4,0.2-1,0.4-1.5,0.4c-0.5,0-1-0.2-1.4-0.4
								C372.7,250,370.8,250,369,250.5z"/>
						</g>
						<g>
							<path class="st21" d="M365.5,248.7c0.5-0.2,1-0.2,1.4-0.1c0.4,0,0.9,0.1,1.4,0.4c-0.4,0.3-0.9,0.4-1.4,0.4
								C366.3,249.2,365.9,249.1,365.5,248.7z"/>
						</g>
					</g>
				</g>
			</g>
			<g>
				<g>
					<g>
						<path class="st32" d="M372.7,216c1.5-3.9,0.2-12.1,0-13.1c0,0,0-0.1,0-0.1l10.5,5.9c-0.2,0.3-0.3,0.7-0.3,1.2v0
							c-0.1,0.9,0,2.1,0.2,3.2c0.3,1.6,0.7,2.9,0.7,2.9H372.7z"/>
						<path class="st21" d="M383,213.1c-5.7,0.7-8.6-6.1-8.7-6.3c1.1,1.7,2.6,2.5,4.1,2.9c1.8,0.5,3.6,0.3,4.4,0.2c0,0,0,0,0,0
							C382.7,210.8,382.8,212,383,213.1z"/>
					</g>
					<g>
						<path class="st20" d="M392.8,220.9c0.9,4-0.1,8.2-0.8,12.3c-0.7,4.8-0.8,9.8-0.4,14.6c0.1,0.8-0.5,1.4-1.2,1.5
							c-4.3,0.3-8.9-1.4-13.2-1c-2.4,0.2-4.7,1-7.1,1.1c-1.8,0-4.2-0.3-6.1-0.8c-0.6-0.2-1.1-0.7-1.1-1.4c0-0.6,0.2-1.3,0.3-1.9
							c0-1.1,0.3-2.1,0.4-3.1c0.2-1.9-0.2-3.8-0.5-5.7c-0.5-2.7-1-5.4-1.5-8.1c-0.4-2.4-1.3-4.9-0.7-7.3c0.3-1.1,1-2,1.9-2.7
							c1.8-1.2,2.5-2.3,4.5-2.8c1.5-0.4,4.2,0,5.1-1.2c0,0,5.6,2.9,12.1,0.8c2.2,1.2,4.2,2.4,6.4,3.5
							C391.9,219.1,392.6,219.9,392.8,220.9z"/>
						<g>
							<g>
								<path class="st4" d="M372.1,215.7c4,2.3,8.8,2.4,13,0.5c-1.8,1.5-4.2,2.1-6.6,2.1C376.1,218.2,373.8,217.4,372.1,215.7z"/>
							</g>
							<g>
								<path class="st21" d="M391.4,246.5c-0.2-1.8-0.3-3.6-0.4-5.3c0-1.8,0-3.6,0.1-5.4c0.1-1.8,0.3-3.6,0.6-5.3
									c0.3-1.8,0.6-3.5,1.1-5.2l-0.5,5.3c-0.2,1.8-0.3,3.5-0.4,5.3c-0.1,1.8-0.2,3.5-0.3,5.3L391.4,246.5z"/>
							</g>
							<g>
								<path class="st4" d="M374.3,236.4c1.3-1.4,2.6-2.7,3.9-4.1c1.3-1.4,2.5-2.8,3.9-4.1c-0.8,1.7-2,3.3-3.3,4.7
									C377.4,234.2,376,235.5,374.3,236.4z"/>
							</g>
							<g>
								<path class="st4" d="M378.3,236.4c0.4-1,1-1.8,1.6-2.7c0.6-0.8,1.2-1.7,1.9-2.4c-0.2,1.1-0.7,2-1.3,2.9
									C379.8,235,379.1,235.8,378.3,236.4z"/>
							</g>
						</g>
					</g>
				</g>
				<g>
					<path class="st32" d="M349.9,226.7c-8.4,6-18.1,14.4-24.2,25c-0.6,0.1-1.1,0.3-1.6,0.6c-1.6,1-5.4,3.3-5.3,3.6
						c0.1,0.4,1.5,0.3,1.5,0.3s-0.7,1.1,0.8,1.2c0,0-0.3,1,1.1,1.3c0,0-0.1,1,0.8,1.1c0.9,0.2,2.4-2.6,2.7-2.6c0.3,0-0.6,2-0.2,2.4
						c0.4,0.4,2-0.7,2.8-4.1c0,0,0,0,0,0c0,0,0-0.1,0-0.1c0.1-0.3,0.1-0.5,0.2-0.8c0.6-0.4,16.1-11.7,28.3-20.2
						C354.7,231.8,352.4,229.2,349.9,226.7z"/>
					<g>
						<path class="st20" d="M344,228.5c0,0,3.9,8,7.7,9.6l17.7-11.5c0,0,4-7.8-2-11C367.4,215.6,356.4,217.4,344,228.5z"/>
						<g>
							<g>
								<path class="st4" d="M362.2,231.4c0.3-0.5,0.7-0.9,1-1.2c0.4-0.3,0.8-0.6,1.4-0.8c-0.1,0.6-0.5,1-0.9,1.4
									C363.3,231.1,362.8,231.4,362.2,231.4z"/>
							</g>
							<g>
								<path class="st4" d="M362.5,231.6c0.3-0.3,0.5-0.3,0.8-0.3c0.2,0,0.5,0.1,0.8,0.3c-0.2,0.3-0.5,0.4-0.8,0.4
									C363,232.1,362.7,232,362.5,231.6z"/>
							</g>
							<g>
								<path class="st4" d="M345.2,227.9c0.4,0.9,0.9,1.6,1.5,2.3c0.6,0.7,1.3,1.4,1.9,2.1c1.2,1.4,2.5,2.9,3.5,4.5
									c-1.5-1.2-2.8-2.6-4-4c-0.6-0.7-1.3-1.4-1.8-2.2C345.8,229.8,345.3,228.8,345.2,227.9z"/>
							</g>
						</g>
					</g>
				</g>
				<g>
					<g>
						<path class="st32" d="M417.8,254.6c-2.9-1.4-9.8-4.6-17.3-8.2c-0.8-2.4-1.6-4.7-2.3-7c-0.8,0.3-1.5,0.6-2.3,1
							c-2.4,1-4.8,2.1-7.2,3.3c0.9,2.6,1.9,5.3,3.2,8.1c0.6,1.3,1.7,2.3,3,2.8c3,1.1,6.1,2,9.3,2.8c4.6,1.1,12.4,2.6,20,2.9l-0.6-1
							l0.8-2.7C424.3,256.4,418.7,255.1,417.8,254.6z"/>
					</g>
					<g>
						<path class="st20" d="M387.9,216.8c0,0,4.7,0.9,6.2,6.5c1.5,5.6,5.7,18.5,5.7,18.5s-6.4,5.1-11.4,5.1
							C388.3,246.9,377.2,219.5,387.9,216.8z"/>
						<g>
							<path class="st4" d="M389.2,245.8c1.6-0.9,3.2-1.7,4.8-2.7c1.6-0.9,3.1-1.9,4.6-2.9c-1.2,1.4-2.7,2.6-4.2,3.6
								C392.8,244.7,391.1,245.5,389.2,245.8z"/>
						</g>
					</g>
				</g>
			</g>
			<g>
				<g>
					<path class="st32" d="M388.4,199.5c-0.2-2.8-0.5-5.7-1.5-8.2c-1.4-3.5-7.8-4.9-12.3-1c-0.1,0.1-0.3,0.2-0.4,0.4
						c-1.8,1.9-2.1,4.9-2,7.7c-0.1-0.1-0.2-0.1-0.3-0.1c-0.9-0.2-1.8,0.5-2.1,1.3c-0.2,0.7-0.1,1.5,0.3,2.1c0.3,0.5,0.9,1,1.4,1.2
						c0.1,0.1,0.8,0.2,1.2,0.1c0.4,2,1.4,3.8,3,5.1c2,1.6,4.5,2.3,7,1.8c1.9-0.4,4.8-1.6,5.5-3.7c0.2-0.5,0.2-1.1,0.2-1.6
						C388.5,203,388.5,201.2,388.4,199.5z"/>
					<g>
						<g>
							<g>
								<g>
									<ellipse class="st21" cx="385.7" cy="198.4" rx="0.6" ry="1.2"/>
								</g>
								<g>
									<ellipse class="st21" cx="380.7" cy="198.4" rx="0.6" ry="1.2"/>
								</g>
							</g>
						</g>
						<g>
							<g>
								<path class="st21" d="M385.4,202c-0.2,0.4-0.5,0.7-0.9,1c-0.4,0.3-0.8,0.4-1.3,0.4c-0.5,0-0.9-0.2-1.3-0.4
									c-0.2-0.1-0.3-0.3-0.5-0.4c-0.1-0.2-0.3-0.3-0.4-0.5c0.2,0.1,0.3,0.3,0.5,0.4c0.2,0.1,0.3,0.2,0.5,0.3
									c0.4,0.2,0.8,0.3,1.1,0.3c0.4,0,0.8-0.1,1.1-0.3C384.7,202.5,385.1,202.3,385.4,202z"/>
								<path class="st21" d="M383.8,204.1c-0.2,0.1-0.4,0.2-0.6,0.2c-0.2,0-0.4-0.1-0.6-0.2c0.2,0,0.4,0.1,0.6,0.1
									C383.4,204.1,383.6,204.1,383.8,204.1z"/>
							</g>
						</g>
						<g>
							<g>
								<path class="st21" d="M381.8,194.3c-0.3-0.2-0.6-0.3-0.9-0.3c-0.3,0-0.6,0-1,0.1c-0.3,0.1-0.6,0.3-0.8,0.5
									c-0.3,0.2-0.4,0.5-0.6,0.7c-0.1,0.1,0,0.3,0.1,0.4c0.1,0.1,0.2,0,0.3,0l0,0c0.2-0.2,0.4-0.3,0.6-0.5
									c0.2-0.1,0.4-0.2,0.6-0.3c0.2-0.1,0.4-0.1,0.7-0.1c0.2,0,0.5,0,0.7,0l0.1,0c0.2,0,0.3-0.2,0.2-0.3
									C381.9,194.4,381.8,194.3,381.8,194.3z"/>
								<path class="st21" d="M384.7,194.3c0.3-0.2,0.6-0.3,0.9-0.3c0.3,0,0.6,0,1,0.1c0.3,0.1,0.6,0.3,0.8,0.5
									c0.3,0.2,0.4,0.5,0.6,0.7c0.1,0.1,0,0.3-0.1,0.4c-0.1,0.1-0.2,0-0.3,0l0,0c-0.2-0.2-0.4-0.3-0.6-0.5
									c-0.2-0.1-0.4-0.2-0.6-0.3c-0.2-0.1-0.4-0.1-0.7-0.1c-0.2,0-0.5,0-0.7,0l-0.1,0c-0.2,0-0.3-0.2-0.2-0.3
									C384.6,194.4,384.6,194.3,384.7,194.3z"/>
							</g>
						</g>
						<path class="st21" d="M384.4,196.5c0.1,0.4,0.2,0.9,0.3,1.3c0.1,0.4,0.2,0.9,0.3,1.3c0,0.1,0.1,0.2,0.1,0.3
							c0,0.1,0.1,0.2,0.1,0.4c0,0.3-0.2,0.6-0.4,0.7c-0.2,0.1-0.5,0.1-0.8,0c-0.2-0.1-0.4-0.2-0.6-0.4c0.4,0.2,0.9,0.3,1.2,0.1
							c0.1-0.1,0.2-0.3,0.2-0.4c0-0.1,0-0.1-0.1-0.3c0-0.1-0.1-0.2-0.1-0.3c-0.1-0.4-0.2-0.9-0.2-1.4
							C384.3,197.4,384.3,196.9,384.4,196.5z"/>
						<path class="st21" d="M370.4,200.2c0-0.3,0.1-0.6,0.3-0.8c0.3-0.2,0.6-0.2,0.9-0.1c0.3,0.1,0.5,0.3,0.7,0.5
							c0.2,0.2,0.3,0.5,0.4,0.8c0,0.1,0,0.2-0.1,0.3c-0.1,0-0.2,0-0.2,0l0,0c-0.2-0.2-0.4-0.4-0.7-0.5c-0.1,0-0.2,0-0.3,0
							c-0.1,0.1-0.1,0.2-0.2,0.3c-0.1,0.3-0.2,0.6,0.1,0.7c0.2,0.1,0.6,0.1,0.9,0.1c-0.3,0.1-0.6,0.2-1,0.1
							c-0.2-0.1-0.3-0.3-0.3-0.5c0-0.2,0-0.4,0.1-0.5c0-0.2,0.1-0.3,0.3-0.5c0.2-0.1,0.4-0.2,0.6-0.1c0.4,0.1,0.6,0.3,0.9,0.6
							l-0.3,0.2c-0.2-0.5-0.5-0.9-0.9-1.1c-0.2-0.1-0.5-0.2-0.7,0C370.6,199.7,370.5,199.9,370.4,200.2z"/>
					</g>
				</g>
				<g>
					<path class="st33" d="M373.9,190.5c0,0,1.5,1.6,2.5,2c0,0,0.5,3.2-1.8,6.3c0,0-0.7,1.3-0.5,2.2c0,0.1-0.1,0.2-0.2,0.1
						c-0.4-0.4-1.2-1.3-1.8-2.7C372.1,198.4,370.9,193.6,373.9,190.5z"/>
					<path class="st25" d="M380.9,193.2c0.6,1,1.4,1.9,2.4,2.6c0.5,0.3,1,0.5,1.6,0.5c0.6,0,1.3-0.3,1.4-0.9
						c0.3,0.4,0.4,0.9,0.5,1.4c0.1,0.5,0.1,1,0.2,1.5s0.3,1,0.8,1.2c0.4,0.1,0.8,0,1.1-0.3c0.3-0.3,0.5-0.6,0.6-1
						c0.5-1.2,0.4-2.7-0.1-3.9c0.8,0.1,1.5-0.8,1.6-1.6s-0.3-1.6-0.7-2.4c-0.4-0.7-0.8-1.4-1.4-1.9c-0.6-0.5-1.3-0.8-2.1-0.7
						c0.2-0.3,0.3-0.6,0.4-0.9c0.1-0.3,0-0.7-0.2-0.9c-0.2-0.3-0.5-0.5-0.9-0.5c-0.3-0.1-0.7,0-1,0.1c-0.8,0.2-1.7,0.6-2.4,1.1
						c0.3-0.7-0.1-1.6-0.8-2c-0.6-0.4-1.5-0.5-2.2-0.3c-0.8,0.2-1.4,0.6-2,1.1c-1.7,1.4-3.2,3.1-4,5.2c0.9,1.1,1.9,2.2,3.2,2.9
						C378.2,194.1,379.8,194.2,380.9,193.2z"/>
				</g>
			</g>
		</g>
		<g>
			<path class="st22" d="M346.9,347.1c4.4-0.4,8.9-0.6,13.3-0.7c4.4-0.1,8.9-0.2,13.3-0.2c4.4,0,8.9,0.1,13.3,0.2
				c4.4,0.1,8.9,0.3,13.3,0.7c-4.4,0.4-8.9,0.6-13.3,0.7c-4.4,0.1-8.9,0.2-13.3,0.2c-4.4,0-8.9-0.1-13.3-0.2
				C355.8,347.7,351.3,347.5,346.9,347.1z"/>
		</g>
	</g>
	<g>
		<g>
			<g>
				<g>
					<path class="st34" d="M520.2,337.7l0,2.8l0,0.7l3.4,2.5l4.3-1.7c0,0,0-0.1,0.1-0.4c0.1-0.4,0.2-1.2,0.4-2.3
						C525.5,338.9,522.8,338.3,520.2,337.7z"/>
					<path class="st4" d="M538.9,347c0.5-0.7,0.4-1.9-0.4-2.4c-0.6-0.3-1.3-0.3-1.9-0.3c-1.3-0.1-2.5-0.6-3.7-1.1
						c-1.1-0.5-2.3-0.9-3.2-1.8c-0.4-0.4-0.8-0.9-1.3-1.1c-0.7-0.4-1.6-0.4-2.3,0c-0.7,0.4-1.2,1.1-1.4,1.9
						c-1.3,0.1-2.6-0.4-3.5-1.3c-0.2-0.2-0.4-0.5-0.7-0.6c-0.3-0.2-0.6-0.2-0.9,0c-0.3,0.2-0.3,0.6-0.3,1c0,1,0,2,0,2.9
						c0,0.8,0,1.8,0.7,2.3L538.9,347z"/>
				</g>
				<g>
					<path class="st34" d="M442.7,328.3l-5.8-0.1l-2.3,2.9l1.5,4.8c0,0,2.2,0.3,5.8,0.9C442.2,334,442.4,331.1,442.7,328.3z"/>
					<path class="st4" d="M430.9,346.6c0.7,0.5,1.9,0.4,2.4-0.4c0.3-0.6,0.3-1.3,0.3-1.9c0.1-1.3,0.6-2.5,1.1-3.7
						c0.5-1.1,0.9-2.3,1.8-3.2c0.4-0.4,0.9-0.8,1.1-1.3c0.4-0.7,0.4-1.6,0-2.3c-0.4-0.7-1.1-1.2-1.9-1.4c-0.1-1.3,0.4-2.6,1.3-3.5
						c0.2-0.2,0.5-0.4,0.6-0.7c0.2-0.3,0.2-0.6,0-0.9c-0.2-0.3-0.6-0.3-1-0.3c-1,0-2,0-2.9,0c-0.8,0-1.8,0-2.3,0.7L430.9,346.6z"/>
				</g>
				<g>
					<path class="st20" d="M481.2,283.4c0,0-4.5,9.2-5,16.6c-0.5,7.3-5.4,27.8-5.4,27.8l-32.3,0.3l-1,8.5c0,0,37.4,6.5,43.1,5.6
						c5.8-0.9,13.4-40.2,13.4-40.2l8.3-0.5l17.5,7.7l-0.5,30.1l9.2,0.2c0,0,6.4-36.9,5.7-39.1c-1.2-3.2-29.8-17-29.8-17L481.2,283.4
						z"/>
					<g>
						<g>
							<path class="st4" d="M495.1,287c0,2.5-0.1,5-0.2,7.6c0,1.3-0.1,2.5-0.2,3.8l-0.2,3.8l-0.6-0.3l4.5-4.2l-0.1,0.2l-0.1-4.2
								c0-1.4,0-2.8,0-4.2c0.2,1.4,0.3,2.8,0.4,4.2l0.3,4.2l0,0.1l-0.1,0.1l-4.5,4.3l-0.7,0.7l0.1-1l0.3-3.8
								c0.1-1.3,0.2-2.5,0.3-3.8C494.5,292,494.8,289.5,495.1,287z"/>
						</g>
						<g>
							<path class="st4" d="M470.2,330.5c0-1,0.2-2,0.5-2.9l0.1-0.4l0.4,0.2c0.7,0.3,1.5,0.7,2.1,1.3c-0.8-0.1-1.6-0.3-2.4-0.6
								l0.5-0.2C471.1,328.7,470.8,329.6,470.2,330.5z"/>
						</g>
						<g>
							<path class="st4" d="M519.6,309.3c-0.2-0.4-0.1-0.7,0-0.9c0.1-0.3,0.3-0.5,0.6-0.6c0.2,0.4,0.1,0.7,0,0.9
								C520.1,308.9,520,309.2,519.6,309.3z"/>
						</g>
						<g>
							<path class="st4" d="M520.7,309.2c-0.1-0.4-0.1-0.6,0-0.8c0.1-0.2,0.3-0.4,0.7-0.5c0.1,0.4,0.1,0.6,0,0.8
								C521.3,309,521.1,309.2,520.7,309.2z"/>
						</g>
						<g>
							<path class="st4" d="M498.6,297.8c3.9,1.6,7.8,3.3,11.7,5c3.9,1.7,7.8,3.5,11.6,5.2l0.2,0.1l0,0.2c-0.1,2.5-0.2,5-0.4,7.4
								l-0.4,7.4c-0.3,4.9-0.6,9.9-1,14.8c0.1-5,0.2-9.9,0.4-14.9l0.3-7.4c0.1-2.5,0.2-5,0.3-7.4l0.2,0.3c-3.8-1.8-7.7-3.5-11.6-5.4
								C506.2,301.5,502.4,299.7,498.6,297.8z"/>
						</g>
						<g>
							<path class="st4" d="M484.5,297.8c1,0,1.9,0.3,2.7,0.8c0.8,0.5,1.6,1.1,2,2c-0.9-0.4-1.6-0.9-2.4-1.4
								C486.1,298.8,485.3,298.4,484.5,297.8z"/>
						</g>
						<g>
							<path class="st4" d="M485.7,300.3c0.7,0,1.2,0.2,1.7,0.5c0.5,0.3,1,0.6,1.4,1.1c-0.7,0-1.2-0.2-1.7-0.5
								C486.6,301.1,486.1,300.8,485.7,300.3z"/>
						</g>
						<g>
							<path class="st4" d="M502.9,297.6c0.2-0.6,0.6-1,0.9-1.3c0.4-0.3,0.8-0.6,1.4-0.8c-0.2,0.6-0.6,1-0.9,1.3
								C504,297.2,503.5,297.5,502.9,297.6z"/>
						</g>
						<g>
							<path class="st4" d="M504.7,298.3c0-0.4,0.1-0.7,0.3-0.9c0.2-0.2,0.5-0.4,0.9-0.4c0,0.4-0.1,0.7-0.3,0.9
								C505.3,298.1,505.1,298.3,504.7,298.3z"/>
						</g>
					</g>
				</g>
			</g>
			<g>
				<g>
					<g>
						<path class="st34" d="M504.8,255.7c-2.2-1.4-3.7-1.9-4.8-3.3c-0.1-0.4-0.4-1.5-0.6-2.7c-0.2-1.1-0.3-2.3-0.2-3.2l0,0
							c0.1-0.5,0.2-0.9,0.3-1.1l-10.3-6.1c0,0,0,0.1,0,0.1c0.1,1,1.2,8.6-0.2,12.7c-0.8,0.3-1.8,0.6-3,0.6c-1.3,0-2.6,0.4-3.5,1.3
							c-1.3,1.2-2.5,3.5-1.9,7.9c1.3,8.7,2.4,16.6,1.7,21.9l21.5,0.5c0,0,0.4-8.5,1.2-14.9C505.9,263.4,508.1,257.8,504.8,255.7z"/>
						<path class="st21" d="M499.4,249.7c-5.7,0.6-8.4-6.3-8.5-6.5c1,1.7,2.5,2.6,4,3c1.8,0.5,3.6,0.4,4.4,0.3c0,0,0,0,0,0
							C499.1,247.4,499.2,248.6,499.4,249.7z"/>
					</g>
					<g>
						<path class="st18" d="M489.1,251.8l7.8,5.2l3.4-4.4l4.1,2.6c1.4,0.9,2.4,2.4,2.5,4.1c0.1,1.2,0.2,2.7,0,4.1
							c-0.5,3.2-1.5,19.5-0.5,21l-7.3,6l-4-3.8l-2.6,3.9l-10.4-5.7l-1.9,2c0,0,1.8-8.1,1.5-12.2c-0.4-4.1-2.2-21.8-2.2-21.8
							S484.3,251.4,489.1,251.8z"/>
						<polygon class="st16" points="496.8,257 500.3,252.6 501.7,258.6 						"/>
						<polygon class="st16" points="496.8,257 489.1,251.8 493.8,259.8 						"/>
						<g>
							<g>
								<path class="st4" d="M497,257.2c0,2.5-0.1,4.9-0.2,7.4c-0.1,2.4-0.3,4.9-0.4,7.3c-0.2,2.4-0.4,4.9-0.6,7.3
									c-0.2,2.4-0.5,4.9-0.8,7.3c0-2.5,0.1-4.9,0.2-7.4c0.1-2.4,0.3-4.9,0.4-7.3c0.2-2.4,0.4-4.9,0.6-7.3
									C496.4,262.1,496.6,259.6,497,257.2z"/>
							</g>
							<g>
								<path class="st4" d="M483.2,284.1c1.7,0.3,3.3,1,4.8,1.7c1.5,0.8,3,1.7,4.2,2.8c-1.6-0.6-3.1-1.4-4.6-2.1
									C486.2,285.8,484.7,285,483.2,284.1z"/>
							</g>
							<g>
								<path class="st4" d="M498.7,288.8c0.8-1.2,1.8-2.2,2.9-3.1c1.1-0.9,2.3-1.7,3.6-2.2c-1,1-2.1,1.9-3.2,2.7
									C500.9,287.1,499.9,288,498.7,288.8z"/>
							</g>
						</g>
					</g>
				</g>
				<g>
					<g>
						<path class="st34" d="M522.1,241.4c1.2,1.3,2.4,2.6,3.5,3.8c6.4-7.1,12.9-16.3,16.3-26.6l-3.3-1.9c0,0-10.4,11.1-20.1,21.2
							C519.7,239,520.9,240.2,522.1,241.4z"/>
						<path class="st34" d="M540,219.7c0,0,5.3-3.2,6.5-5.2c0.1-0.1,0-0.3-0.2-0.3c-0.3,0-0.9,0.2-2.2,1.2c0,0,2-2.6,1.9-3.2
							c-0.1-0.6-3.1,2.4-3.1,2.4s1.9-3.2,1.6-3.7c-0.3-0.5-2.9,2.8-2.9,2.8s1.8-3.4,1.5-3.5c-0.7-0.3-3.4,4.4-3.8,4.1
							c-0.4-0.3-0.3-1.6-0.1-2.3c0-0.1,0-0.3-0.2-0.3c-0.3,0-0.7,0-1,0.7c-0.4,1.1-1.2,3.3-0.7,6.3L540,219.7z"/>
					</g>
					<g>
						<g>
							<path class="st18" d="M500.3,252.6l18.5-15.2l7.8,7.2c0,0-2.5,4.1-3.3,5c-0.8,0.8-13.8,12.4-17.1,13.3
								C506.1,262.8,503.4,254.1,500.3,252.6z"/>
							<path class="st16" d="M521.2,241.6c1.2,1.4,2.6,2.6,4.3,3.4c0.3,0.1,0.6,0.3,0.9,0.2c0.3,0,0.6-0.3,0.6-0.6
								c0.2,0.2,0.5,0.1,0.6-0.1c0.1-0.2,0.1-0.5,0-0.7c-0.1-0.2-0.3-0.4-0.5-0.5c-2.3-2-4.6-3.9-7-5.7c-0.4-0.3-1-0.8-1.5-0.5
								c-0.5,0.4,0,1,0.3,1.3C519.6,239.5,520.3,240.6,521.2,241.6z"/>
						</g>
						<g>
							<path class="st4" d="M505.5,257.1c0.6,0.7,1,1.6,1.2,2.5c0.2,0.9,0.2,1.8,0,2.7c-0.3-0.9-0.5-1.7-0.7-2.6
								C505.8,258.8,505.6,258,505.5,257.1z"/>
						</g>
					</g>
				</g>
				<g>
					<path class="st34" d="M454.2,255.2c-11.6,0.8-22.3,1.5-22.9,1.5c0,0,0,0,0,0c-1.3,0.1-2.6-0.1-3.9-0.6c0.1,0.1,0.2,0.2,0.1,0.3
						c-0.3,0.2-2.8-1-3.4-0.3c-0.6,0.7-0.3,1.5-0.3,1.5c-0.9,1.1,0,1.7,0,1.7c-1.1,1,0.4,1.2,0.4,1.2s0.1,0.4,0.3,0.7
						c0.1,0.3,3,0.4,4.9,0.1c0.6-0.1,1.1-0.3,1.6-0.6c8.3,3.1,17.3,4.1,25.5,4.2C456.2,261.6,455.6,258.3,454.2,255.2z"/>
					<path class="st32" d="M424.2,255.9c0,0,3.2-0.1,3.8,0.1c0.6,0.2,2.9,4.3,3,4.6c0.1,0.3-0.7,0.1-1.3,0.2c0,0-0.3,0.6-0.9,0.7
						c0,0-0.5,0.8-1.3,0.8c0,0-0.2,0.3-1,0.3c-0.8,0-3.5-2.8-3.7-3.1C422.5,259.1,424.2,255.9,424.2,255.9z"/>
					<path class="st34" d="M427.1,255.9c0,0-2.6-0.6-3.1-0.6s-0.7,1.5,0.1,1.6c0.7,0.1,1.2-0.7,1.2-0.7L427.1,255.9z"/>
					<g>
						<g>
							<path class="st18" d="M483,252.1l-32.5,3.2c0,0,0.3,9.2,0.8,9.5c0.5,0.2,8.2,1.1,9.7,0.6c1.5-0.5,20.7-2.4,20.7-2.4
								S487.8,253,483,252.1z"/>
							<path class="st16" d="M450,254.8c-0.3,3-0.2,6,0.3,9c0.1,0.5,0.2,0.9,0.4,1.3c0.3,0.4,0.8,0.6,1.2,0.4c0.1,0.4,1,0.2,1.2-0.2
								c0.2-0.4,0.2-0.9,0.1-1.3c-0.5-2.8-0.9-5.7-1.7-8.5c-0.1-0.4-0.2-0.8-0.6-1C450.7,254.2,450,254.3,450,254.8z"/>
						</g>
						<g>
							<g>
								<path class="st4" d="M480.6,263.2c0.3-0.3,0.7-0.4,1-0.4c0.3,0,0.7,0,1,0.3c-0.3,0.3-0.7,0.4-1,0.4
									C481.3,263.5,480.9,263.5,480.6,263.2z"/>
							</g>
							<g>
								<path class="st4" d="M488.5,252.2c0.3,1.4,0.1,2.9-0.4,4.2c-0.5,1.4-1.2,2.6-2.3,3.6c0.6-1.3,1.2-2.5,1.6-3.8
									C487.9,254.9,488.2,253.6,488.5,252.2z"/>
							</g>
						</g>
					</g>
				</g>
			</g>
			<g>
				<g>
					<path class="st34" d="M503.7,228c-1.3-3.5-7.7-5.1-12.3-1.3c-2.1,1.8-2.6,5-2.6,8.1c-0.1-0.1-0.2-0.1-0.3-0.1
						c-0.9-0.2-1.8,0.4-2.1,1.3c-0.2,0.7-0.1,1.5,0.3,2.1c0.3,0.5,0.8,1,1.4,1.2c0.1,0.1,0.8,0.2,1.2,0.1c0.4,2,1.3,3.8,2.9,5.2
						c1.9,1.7,4.4,2.4,6.9,1.9c2-0.4,4.9-1.5,5.6-3.5c0.2-0.5,0.2-1.1,0.2-1.6C505.2,237,505.2,232.1,503.7,228z"/>
					<g>
						<g>
							<g>
								<g>
									
										<ellipse transform="matrix(2.350179e-02 -0.9997 0.9997 2.350179e-02 255.6804 731.8253)" class="st21" cx="502.5" cy="235" rx="1.2" ry="0.6"/>
								</g>
								<g>
									
										<ellipse transform="matrix(2.350179e-02 -0.9997 0.9997 2.350179e-02 250.9201 726.7167)" class="st21" cx="497.5" cy="234.9" rx="1.2" ry="0.6"/>
								</g>
							</g>
						</g>
						<g>
							<g>
								<path class="st21" d="M502,238.6c-0.2,0.4-0.5,0.7-0.9,1c-0.4,0.3-0.8,0.4-1.3,0.4c-0.5,0-0.9-0.2-1.3-0.5
									c-0.2-0.1-0.3-0.3-0.5-0.5c-0.1-0.2-0.3-0.4-0.4-0.5c0.2,0.1,0.3,0.3,0.5,0.4c0.2,0.1,0.3,0.3,0.5,0.4
									c0.4,0.2,0.7,0.3,1.1,0.4c0.4,0,0.8-0.1,1.2-0.3C501.4,239.1,501.7,238.9,502,238.6z"/>
								<path class="st21" d="M500.4,240.7c-0.2,0.1-0.4,0.2-0.6,0.2c-0.2,0-0.4-0.1-0.6-0.2c0.2,0,0.4,0.1,0.6,0.1
									C500,240.7,500.2,240.7,500.4,240.7z"/>
							</g>
						</g>
						<g>
							<g>
								<path class="st21" d="M498.6,230.8c-0.3-0.2-0.6-0.3-0.9-0.4c-0.3,0-0.6,0-1,0.1c-0.3,0.1-0.6,0.3-0.8,0.5
									c-0.3,0.2-0.4,0.5-0.6,0.7c-0.1,0.1,0,0.3,0.1,0.4c0.1,0.1,0.2,0,0.3,0l0,0c0.2-0.2,0.4-0.3,0.6-0.4
									c0.2-0.1,0.4-0.2,0.6-0.2c0.2,0,0.4-0.1,0.7-0.1c0.2,0,0.5,0,0.7,0l0.1,0c0.2,0,0.3-0.2,0.2-0.3
									C498.7,230.9,498.7,230.9,498.6,230.8z"/>
								<path class="st21" d="M501.5,230.9c0.3-0.2,0.6-0.3,0.9-0.3c0.3,0,0.6,0,0.9,0.2c0.3,0.1,0.6,0.3,0.8,0.5
									c0.2,0.2,0.4,0.5,0.6,0.7c0.1,0.1,0,0.3-0.1,0.4c-0.1,0.1-0.2,0-0.3,0l0,0c-0.2-0.2-0.4-0.3-0.6-0.5
									c-0.2-0.1-0.4-0.2-0.6-0.3c-0.2-0.1-0.4-0.1-0.7-0.1c-0.2,0-0.5,0-0.7-0.1l-0.1,0c-0.2,0-0.2-0.2-0.2-0.4
									C501.4,231,501.5,230.9,501.5,230.9z"/>
							</g>
						</g>
						<path class="st21" d="M501.2,233.1c0.1,0.4,0.2,0.9,0.2,1.3c0.1,0.4,0.1,0.9,0.3,1.3c0,0.1,0.1,0.2,0.1,0.3
							c0,0.1,0.1,0.2,0.1,0.4c0,0.3-0.2,0.6-0.4,0.7c-0.2,0.1-0.5,0.1-0.8,0c-0.2-0.1-0.4-0.2-0.6-0.4c0.4,0.2,0.9,0.3,1.2,0.1
							c0.1-0.1,0.2-0.3,0.2-0.4c0-0.1,0-0.1-0.1-0.3c0-0.1-0.1-0.2-0.1-0.3c-0.1-0.5-0.2-0.9-0.2-1.4
							C501.1,234,501.1,233.5,501.2,233.1z"/>
						<path class="st21" d="M487.1,236.5c0-0.3,0.1-0.6,0.3-0.8c0.3-0.2,0.6-0.2,0.9-0.1c0.3,0.1,0.5,0.3,0.7,0.5
							c0.2,0.2,0.3,0.5,0.4,0.8c0,0.1,0,0.2-0.1,0.3c-0.1,0-0.2,0-0.2,0l0,0c-0.2-0.2-0.4-0.4-0.7-0.5c-0.1,0-0.2,0-0.3,0
							c-0.1,0.1-0.1,0.2-0.2,0.3c-0.1,0.3-0.2,0.6,0,0.7c0.2,0.1,0.6,0.1,0.9,0.1c-0.3,0.1-0.6,0.2-1,0.1c-0.2-0.1-0.3-0.3-0.3-0.5
							c0-0.2,0-0.4,0.1-0.5c0.1-0.2,0.1-0.3,0.3-0.5c0.2-0.1,0.4-0.2,0.6-0.1c0.4,0.1,0.6,0.3,0.8,0.6l-0.3,0.2
							c-0.2-0.5-0.5-0.9-0.9-1.2c-0.2-0.1-0.5-0.2-0.7-0.1C487.3,236,487.2,236.2,487.1,236.5z"/>
					</g>
				</g>
				<path class="st0" d="M505.8,229.5c0.7-0.7,1-1.8,0.7-2.8c-0.3-1-1.1-1.8-2-2.1c-0.9-0.4-2.1-0.5-3.1-0.1c-1.2-2.2-4-3.3-6.4-2.7
					c-2.4,0.6-4.2,2.8-4.9,5.2c-1.8-0.3-3.6,0.9-4.4,2.6c-0.8,1.7-0.4,3.8,0.1,5.5c-1.2,1.2-1.7,3.1-1.3,4.7c0.4,1.6,1.7,3,3.3,3.5
					c-0.3,0.8-0.4,1.7,0.1,2.4c0.4,0.7,1.2,1.1,1.9,1.1c0-3.3-0.4-6.5-0.5-7.3c-0.4,0-1.1-0.1-1.2-0.1c-0.6-0.2-1.1-0.7-1.4-1.2
					c-0.4-0.6-0.5-1.4-0.3-2.1c0.3-0.8,1.1-1.5,2-1.3c0.4,0.3,0.7,0.6,0.9,1c0.5,0.6,0.8,1.3,1.4,1.8c0.6,0.5,1.4,0.8,2.1,0.6
					c-0.5-0.2-0.7-0.9-0.6-1.5c0.1-0.6,0.4-1.1,0.6-1.6c0.4-1,0.3-2,0-3c0.6-0.1,1.1-0.4,1.4-0.9c0.4-0.5,0.5-1.1,0.4-1.7
					c0.6,1.4,1.9,2.5,3.4,2.6c1.5,0.1,3.1-0.6,3.9-2c-0.2,0.8-0.1,1.5,0.4,2.1c0.5,0.7,1.3,1,2.2,1c-0.1,0.6-0.3,1.1-0.3,1.7
					c0,0.6,0.2,1.2,0.6,1.6c0,0,0-0.1,0-0.1c0,0,0,0,0,0.1c0.4-0.6,0.6-1.3,0.4-2c0.8-0.5,1.4-1.3,1.5-2.3
					C507,231.1,506.5,230.2,505.8,229.5z"/>
			</g>
		</g>
		<g>
			<path class="st22" d="M428,347.1c9.5-0.3,18.9-0.6,28.4-0.7c9.5-0.1,18.9-0.2,28.4-0.2c9.5,0,18.9,0.1,28.4,0.2
				c9.5,0.1,18.9,0.4,28.4,0.7c-9.5,0.4-18.9,0.6-28.4,0.7c-9.5,0.1-18.9,0.2-28.4,0.2c-9.5,0-18.9-0.1-28.4-0.2
				C446.9,347.7,437.4,347.4,428,347.1z"/>
		</g>
	</g>
	<g>
		<g>
			<g>
				<g>
					<path class="st35" d="M615.7,344.6c-4.2,0.5-9.6-3-10.4-3.6c0.3-1.6,1.1-6.4,2.2-12.9c-3.6-0.4-7.1-0.9-10.6-1.4l0.5,12.4
						c-0.6,2-1.3,5.3-1.2,6c0.1,0.7,0.7,1.2,1.4,1.2h18.2c0.2,0,0.4-0.1,0.5-0.3c0.4-0.6,0.3-1,0.1-1.3
						C616.2,344.7,616,344.6,615.7,344.6z"/>
					<path class="st4" d="M595.9,344.3l12.8,0.9c0,0-0.3-2.2,1.2-2.4c1.4-0.2,4.6,0.8,6,1.5c0.5,0.2,1.6,0.9,0.3,2.1h-19.7
						c-0.3,0-0.5-0.1-0.6-0.4C595.7,345.6,595.5,345,595.9,344.3z"/>
				</g>
				<g>
					<path class="st35" d="M590.9,342.9c-2.6-1.9-4.8-5-5.4-5.9l3.4-7.6c-0.8-0.2-1.5-0.4-2.3-0.6c-2.6-0.6-5.1-1.1-7.6-1.8
						c-0.9,3.7-1.5,6.2-1.6,6.7c0,0,0,0,0,0c-1.1,1.4-1.7,3.1-1.9,3.9c-0.2,0.7,0.2,1.3,0.8,1.6l14,5.7
						C590.3,344.2,590.5,343.5,590.9,342.9z"/>
					<path class="st4" d="M575.3,338.2l11.8,5.2c0,0,0.5-2.1,1.9-1.8c1.4,0.3,4.1,2.3,5.2,3.4c0.4,0.4,1.2,1.4-0.4,2.1l-18.6-6.7
						c-0.2-0.1-0.4-0.3-0.5-0.6C574.6,339.4,574.7,338.8,575.3,338.2z"/>
				</g>
			</g>
			<g>
				<g>
					<g>
						<g>
							<path class="st35" d="M628,216.4L628,216.4l-3.1-1.9c0,0-0.2,0.3-0.5,0.8c-1.3,2.1-5,8.4-9.4,15.5c-0.7-1.6-1.3-3.1-1.8-4.4
								c-0.9-2.5-2-4.4-3-5.9c-3.6-5.3-11.1-4.1-11.8,1.9c-0.3,2.2,0.1,5.1,1.7,8.7c1.6,3.5,3.7,8.1,6.4,13.1
								c0.7,1.2,1.4,2.5,2.1,3.8c2.5,4.2,8.7,4,10.9-0.4c0.5-1,1-2,1.4-3C625.1,236,628.4,226,628,216.4z"/>
						</g>
						<g>
							<path class="st4" d="M612,240c-0.2-1.7,0-3.4,0.5-5c0.5-1.6,1.4-3.1,2.5-4.3c-0.7,1.5-1.3,3-1.8,4.5
								C612.8,236.8,612.4,238.4,612,240z"/>
						</g>
					</g>
					<g>
						<g>
							<path class="st0" d="M623.7,207.5c0,0,1.3,8.1,6.3,9.7c0.1,0,0.2,0,0.3,0c0.6-0.4,2.7-1.9,3.5-3.7c0.1-0.1,0-0.3-0.1-0.4
								c-1.2-0.7-6.4-3.9-6.7-6.7L623.7,207.5z"/>
							<path class="st0" d="M625.3,198.4c0,0,6.9-1.7,11.9-10.2l5.5,20.3c0,0-7-3.7-15.2-1.3L625.3,198.4z"/>
							<path class="st36" d="M641.7,197.9c1.5,5.6,2,10.4,1,10.6c-0.7,0.2-2-2.3-3.3-5.9c-0.4-1.1-0.8-2.4-1.1-3.7
								c-0.4-1.3-0.7-2.6-0.9-3.8c-0.8-3.8-0.9-6.6-0.1-6.8C638.2,188,640.2,192.3,641.7,197.9z"/>
							<path class="st16" d="M628.7,207.1l-4.1,1.1c-1.7,0.5-3.4-0.5-3.9-2.2l-0.8-3.1c-0.5-1.7,0.5-3.4,2.2-3.9l4.1-1.1
								L628.7,207.1z"/>
							<path class="st16" d="M620.9,205.1l-0.7,0.2c-0.3,0.1-0.7-0.1-0.8-0.5l-0.1-0.3c-0.1-0.3,0.1-0.7,0.5-0.8l0.7-0.2
								L620.9,205.1z"/>
							<path class="st16" d="M640.3,198.3c0.6,2.2,0.4,4.1-0.4,4.3c-0.1,0-0.3,0-0.4-0.1c-0.4-1.1-0.8-2.4-1.1-3.7
								c-0.4-1.3-0.7-2.6-0.9-3.8c0.1-0.1,0.2-0.2,0.4-0.3C638.6,194.5,639.7,196.1,640.3,198.3z"/>
						</g>
						<path class="st35" d="M628.1,216.3c0,0-0.8-0.9-1.4-1.5c0.1-1.2-1.3-2.8-1.3-2.8s0.7-2.4-0.6-1.7c-1.4,0.7-0.3,5.1-0.3,5.1
							c0.3,0.1,0.6,0.2,0.8,0.2l2.8,0.8L628.1,216.3z"/>
						<path class="st35" d="M626.5,211.6c0-0.9,0.3-1.8,0.9-2.6c0.3-0.4,0.7-0.7,0.9-0.7c0.7,0.2,0.6,0.7,0.6,0.7s1.3-0.2,1.2,0.9
							c0,0,1.2,0.2,1.3,1c0,0,0.8,0.7,0.8,1c0.1,0.3-1.7,1.7-2,1.7c-0.3,0-0.1-1.2-0.1-1.2s-0.9,1.2-1.2,1.1
							c-0.3-0.1,0.2-2.1,0.2-2.1s-1.3,1.8-1.6,1.4c-0.3-0.4,0.4-2.4,0.4-2.4s-1,1.9-1.4,1.7C626.5,212.2,626.5,211.9,626.5,211.6z"
							/>
					</g>
				</g>
				<g>
					<g>
						<path class="st35" d="M605.3,227.9c-0.5-3.9-1.8-7.7-1.7-11.6c0-0.1,0-0.3,0-0.4c-0.6-0.3-1.1-0.7-1.5-1.2
							c-0.1-0.4-0.2-0.8-0.3-1.3c-0.2-1.1-0.3-2.3-0.2-3.2v0c0-0.5,0.1-0.9,0.3-1.2l-10.5-5.9c0,0,0,0.1,0,0.1
							c0.2,0.9,1.2,7.5,0.4,11.7c-0.9,0.4-2,0.6-3.5,0.7c-1.3,0-2.7,0.4-3.7,1.1c-1.5,1-3,3-2.7,6.8c0.6,8.5,4.2,17,2.8,23.7l17,0.2
							c0-0.2,0.1-0.5,0.1-0.7c1.3-5.2,2.5-10.5,3.8-15.8c0,0,0,0,0,0C605.5,230,605.4,228.9,605.3,227.9z"/>
						<path class="st37" d="M601.8,213.4c-5.7,0.7-8.6-6.1-8.7-6.3c1.1,1.7,2.6,2.5,4.1,2.9c1.8,0.5,3.6,0.3,4.4,0.2c0,0,0,0,0,0
							C601.5,211.1,601.6,212.3,601.8,213.4z"/>
					</g>
					<g>
						<g>
							<path class="st0" d="M614.1,262.5c0-0.2,0-0.4,0-0.6c-0.5-8.6-4.2-16.9-4.2-16.9s2.5-15.4,2.4-17.7c-0.1-1.2-1.4-4-2.5-6.2
								c-1-1.9-2.5-3.4-4.4-4.4c-1.8-0.9-3.1-2-3.1-2c0.7,4.3-1.2,15.5-1.2,15.5l-0.4-1.3c-1.4-4.3-3.7-8.3-6.7-11.7l-2.2-2.5
								c0,0-2.9,0.5-5.9,1.1c-2.9,0.7-6.9,7.2-5.1,10c1.3,2,2.5,11.2,3.1,16.3c0.2,2-0.3,4-1.5,5.6c-4.2,5.2-5.6,12.9-6.1,17.6
								c0,0,0,0,0,0c-0.2,0.3-0.2,1.2-0.1,2.1c0,2,0.3,4,0.7,5.9c1.3,5.6,4.2,16.5,8.1,24c-0.4,1.7-1.6,3.7-2.3,5.4
								c-1.2,3.2-2.4,6.1-3.1,9.5c-0.5,2.8-1,5.7-1,8.6c0,1.2-0.1,2.5-0.4,3.7c-0.2,0.8-0.9,1.6-0.9,2.3c3.7,3,8.6,4.2,13.3,3.3
								c0,0,2.8-6.3,5.7-13.4c0.3,4.1,0.2,8.2-1.1,12c4,2.2,9.3,3.1,13.7,2c2-11.8,4.9-23.5,6.4-35.3
								C616.7,284.6,616.8,273.3,614.1,262.5z"/>
							<g>
								<g>
									<g>
										<path class="st4" d="M590.2,215.7c2,2.1,3.8,4.4,5.4,6.8c1.6,2.4,3,5,4.2,7.7c0.1,0.3,0.3,0.6,0.5,0.8
											c0.2,0.1,0.3,0.1,0.4-0.1c0.2-0.2,0.3-0.6,0.4-0.9c0.1-0.3,0.3-0.7,0.4-1c0.5-1.3,0.9-2.7,1.2-4.1
											c0.6-2.8,0.9-5.7,0.7-8.6c0.4,2.9,0.4,5.8-0.2,8.7c-0.3,1.4-0.7,2.9-1.2,4.2c-0.1,0.3-0.3,0.7-0.4,1
											c-0.1,0.3-0.2,0.7-0.5,1.1c-0.1,0.2-0.3,0.4-0.6,0.4c-0.3,0.1-0.6,0-0.8-0.2c-0.4-0.3-0.6-0.7-0.7-1
											c-1.1-2.6-2.5-5.2-4-7.7C593.7,220.4,592,218,590.2,215.7z"/>
									</g>
									<g>
										<path class="st4" d="M584.1,248.9c0.1,1.4,0.1,2.8-0.2,4.2c-0.2,1.4-0.7,2.7-1.3,4c-0.6,1.3-1.3,2.5-2.3,3.6
											c-0.5,0.5-0.9,1.1-1.5,1.5c-0.6,0.4-1.5,0.5-2,0c0.6,0.4,1.4,0.2,1.8-0.3c0.5-0.4,0.9-1,1.3-1.6c0.8-1.1,1.5-2.3,2-3.6
											c0.6-1.2,1-2.5,1.4-3.9C583.7,251.6,584,250.3,584.1,248.9z"/>
									</g>
								</g>
								<g>
									<g>
										<path class="st4" d="M596.6,316.1c0.2-1,0.6-1.9,1-2.9l1.1-2.8l2.4-5.7c0.8-1.9,1.6-3.8,2.3-5.7c0.3-1,0.8-1.9,0.7-2.8
											c0-1-0.2-2-0.3-3c-0.5-4-1.3-8-2-12.1l-2.2-12.1c1,4,1.9,7.9,2.8,11.9c0.8,4,1.6,8,2.2,12.1c0.1,1,0.2,2,0.3,3.1
											c0,1.2-0.4,2.1-0.8,3.1c-0.8,1.9-1.6,3.8-2.4,5.6l-2.6,5.6l-1.3,2.8l-0.6,1.4C596.9,315.2,596.7,315.6,596.6,316.1z"/>
									</g>
									<g>
										<path class="st4" d="M585.1,297.2c0.1-0.1,0.1-0.3,0.1-0.4l0.1-0.4c0-0.2,0-0.3,0.1-0.4c0-0.2,0-0.3,0.2-0.5l0.6,0.4
											c-0.2,0.5-0.4,0.9-0.3,1.3c0,0.2,0.1,0.4,0.3,0.5c0.2,0.2,0.4,0.3,0.6,0.5c-0.3,0-0.6,0-0.9-0.1
											C585.5,297.9,585.2,297.6,585.1,297.2c0-0.3,0-0.7,0.1-1c0.1-0.3,0.2-0.6,0.4-0.8l0.6,0.4c0,0-0.1,0.2-0.2,0.3
											c-0.1,0.1-0.1,0.3-0.2,0.4c-0.1,0.1-0.2,0.3-0.3,0.4C585.3,297,585.2,297.2,585.1,297.2z"/>
									</g>
									<g>
										<path class="st4" d="M578.8,326.1c1.7,0.7,3.4,1.4,5.2,2c1.8,0.6,3.5,0.9,5.4,1.3c-1.9,0.2-3.8,0-5.6-0.6
											C582,328.2,580.2,327.3,578.8,326.1z"/>
									</g>
									<g>
										<path class="st4" d="M586.5,263c1.2,0.2,2.2,0.8,3.2,1.3c1,0.6,1.9,1.3,2.7,2.2c-1.1-0.4-2.1-1-3.1-1.6
											C588.4,264.4,587.4,263.8,586.5,263z"/>
									</g>
									<g>
										<path class="st4" d="M588.7,266.1c0.8,0.1,1.5,0.4,2.2,0.7c0.7,0.4,1.3,0.8,1.9,1.4c-0.8-0.1-1.5-0.4-2.2-0.7
											C589.8,267.2,589.2,266.8,588.7,266.1z"/>
									</g>
								</g>
								<g>
									<g>
										<path class="st4" d="M595.9,328c2,0.8,3.9,1.4,6,1.6c2,0.3,4.1,0.2,6.2,0c-2,0.8-4.2,1-6.3,0.8
											C599.6,330.1,597.5,329.3,595.9,328z"/>
									</g>
									<g>
										<path class="st4" d="M610.6,249.1c-0.3,2.5-0.3,4.9,0.2,7.3c0.2,1.2,0.5,2.4,0.9,3.5c0.2,0.6,0.4,1.1,0.7,1.7
											c0.3,0.5,0.7,1,1.3,1.2c-0.6-0.1-1.2-0.5-1.6-1c-0.4-0.5-0.7-1.1-1-1.6c-0.5-1.1-0.9-2.4-1.1-3.6
											C609.6,254,609.7,251.4,610.6,249.1z"/>
									</g>
									<g>
										<path class="st4" d="M600,271.2c0-0.7,0.2-1.2,0.5-1.8c0.3-0.5,0.6-1,1.2-1.4c0,0.7-0.2,1.2-0.5,1.8
											C600.9,270.3,600.6,270.8,600,271.2z"/>
									</g>
									<g>
										<path class="st4" d="M604.4,266.9c0.5-0.8,1.2-1.5,1.9-2.2c0.7-0.6,1.5-1.2,2.4-1.6c-0.5,0.8-1.2,1.5-1.9,2.2
											C606.1,265.9,605.3,266.5,604.4,266.9z"/>
									</g>
								</g>
							</g>
						</g>
					</g>
				</g>
				<g>
					<path class="st16" d="M605,260.1l-13.6-2.7c-0.5-0.1-0.8-0.6-0.7-1l4.1-20.8c0.1-0.5,0.6-0.8,1-0.7l13.6,2.7
						c0.5,0.1,0.8,0.6,0.7,1l-4.1,20.8C605.9,259.9,605.4,260.2,605,260.1z"/>
					<g>
						<g>
							<path class="st35" d="M582.9,237.3c1.8-2.5,3.4-4.8,4.8-6.6c1.6-2.1,2.7-4,3.5-5.6c2.6-5.8-2.3-11.5-7.8-9.1
								c-2.1,0.9-4.3,2.7-6.5,6c-1.7,2.5-3.7,5.6-5.9,9.1c-0.7,1.1-1.3,2.2-2,3.4c-2.4,4.2-0.3,9.6,4.4,11c1.1,0.3,2.2,0.7,3.3,1
								c6.7,1.8,13.9,2.8,20.7,2l1.6-3.3C598.9,245.2,591.7,241.7,582.9,237.3z"/>
							<path class="st35" d="M596.7,247.9c0,0,4.4,4.3,6.6,5c0.1,0,0.3-0.1,0.2-0.2c-0.1-0.3-0.5-0.9-1.7-1.8c0,0,3,1.3,3.6,1.1
								c0.5-0.2-3.1-2.4-3.1-2.4s3.5,1.1,3.9,0.7c0.4-0.4-3.4-2.1-3.4-2.1s3.7,0.9,3.7,0.6c0.1-0.8-5.1-2.2-4.9-2.7
								c0.2-0.5,1.5-0.6,2.2-0.6c0.1,0,0.3-0.1,0.2-0.3c0-0.3-0.2-0.7-0.9-0.8c-1.1-0.1-3.5-0.3-6.2,0.8L596.7,247.9z"/>
						</g>
						<g>
							<path class="st4" d="M575.4,235.1c1.3-0.1,2.7,0.1,3.9,0.4c1.3,0.4,2.5,0.9,3.6,1.7c-1.3-0.3-2.5-0.7-3.8-1
								C577.9,235.9,576.7,235.6,575.4,235.1z"/>
						</g>
					</g>
				</g>
			</g>
			<g>
				<g>
					<path class="st35" d="M607.1,200.7c-0.1-3.1-0.5-6.3-1.5-9c-1.4-3.5-7.8-4.9-12.3-1c-2.1,1.8-2.5,5.1-2.4,8.1
						c-0.1-0.1-0.2-0.1-0.3-0.1c-0.9-0.2-1.8,0.5-2.1,1.3c-0.2,0.7-0.1,1.5,0.3,2.1c0.3,0.5,0.9,1,1.4,1.2c0.1,0.1,0.8,0.2,1.2,0.1
						c0.4,2,1.4,3.8,3,5.1c2,1.6,4.5,2.3,7,1.8c1.9-0.4,4.8-1.6,5.5-3.7c0.2-0.5,0.2-1.1,0.2-1.6v-0.4
						C607.2,203.3,607.2,202,607.1,200.7z"/>
					<g>
						<g>
							<path class="st37" d="M607.2,204.5c-0.2,0.1-0.3,0.1-0.5,0.1c-1.1,0-2-0.9-2-2c0-1.1,0.9-2,2-2c0.2,0,0.3,0,0.5,0.1
								C607.2,202,607.2,203.3,607.2,204.5z"/>
							<circle class="st37" cx="596.7" cy="202.6" r="2"/>
						</g>
						<g>
							<g>
								<g>
									<ellipse class="st21" cx="604.2" cy="198.7" rx="0.6" ry="1.2"/>
									<path class="st21" d="M605.4,197.2c-0.1,0.2-0.2,0.4-0.4,0.5c-0.2,0.1-0.4,0.3-0.6,0.3l0,0c-0.1,0-0.2,0-0.3-0.2
										c0-0.1,0-0.2,0.2-0.3c0,0,0,0,0.1,0c0.3,0,0.7-0.2,0.9-0.5l0,0C605.3,197.1,605.3,197.1,605.4,197.2
										C605.4,197.1,605.4,197.1,605.4,197.2z"/>
								</g>
								<g>
									<ellipse class="st21" cx="599.2" cy="198.7" rx="0.6" ry="1.2"/>
									<path class="st21" d="M598.1,197.1c0.2,0.3,0.6,0.5,0.9,0.5c0.1,0,0.2,0.1,0.2,0.2c0,0.1-0.1,0.2-0.2,0.2c0,0,0,0-0.1,0
										l0,0c-0.2-0.1-0.4-0.2-0.6-0.3c-0.2-0.1-0.3-0.3-0.4-0.5C598,197.1,598,197.1,598.1,197.1
										C598.1,197.1,598.1,197.1,598.1,197.1L598.1,197.1z"/>
								</g>
							</g>
						</g>
						<g>
							<g>
								<path class="st21" d="M603.9,202.3c-0.2,0.4-0.5,0.7-0.9,1c-0.4,0.3-0.8,0.4-1.3,0.4c-0.5,0-0.9-0.2-1.3-0.4
									c-0.2-0.1-0.3-0.3-0.5-0.4c-0.1-0.2-0.3-0.3-0.4-0.5c0.2,0.1,0.3,0.3,0.5,0.4c0.2,0.1,0.3,0.2,0.5,0.3
									c0.4,0.2,0.8,0.3,1.1,0.3c0.4,0,0.8-0.1,1.1-0.3C603.2,202.9,603.6,202.6,603.9,202.3z"/>
								<path class="st21" d="M602.3,204.4c-0.2,0.1-0.4,0.2-0.6,0.2c-0.2,0-0.4-0.1-0.6-0.2c0.2,0,0.4,0.1,0.6,0.1
									C601.9,204.5,602.1,204.4,602.3,204.4z"/>
							</g>
						</g>
						<g>
							<g>
								<path class="st21" d="M600.3,194.6c-0.3-0.2-0.6-0.3-0.9-0.3c-0.3,0-0.6,0-1,0.1c-0.3,0.1-0.6,0.3-0.8,0.5
									c-0.3,0.2-0.4,0.5-0.6,0.7c-0.1,0.1,0,0.3,0.1,0.4c0.1,0.1,0.2,0,0.3,0l0,0c0.2-0.2,0.4-0.3,0.6-0.5
									c0.2-0.1,0.4-0.2,0.6-0.3c0.2-0.1,0.4-0.1,0.7-0.1c0.2,0,0.5,0,0.7,0l0.1,0c0.2,0,0.3-0.2,0.2-0.3
									C600.3,194.7,600.3,194.7,600.3,194.6z"/>
								<path class="st21" d="M603.1,194.6c0.3-0.2,0.6-0.3,0.9-0.3c0.3,0,0.6,0,1,0.1c0.3,0.1,0.6,0.3,0.8,0.5
									c0.3,0.2,0.4,0.5,0.6,0.7c0.1,0.1,0,0.3-0.1,0.4c-0.1,0.1-0.2,0-0.3,0l0,0c-0.2-0.2-0.4-0.3-0.6-0.5
									c-0.2-0.1-0.4-0.2-0.6-0.3c-0.2-0.1-0.4-0.1-0.7-0.1c-0.2,0-0.5,0-0.7,0l-0.1,0c-0.2,0-0.3-0.2-0.2-0.3
									C603.1,194.7,603.1,194.7,603.1,194.6z"/>
							</g>
						</g>
						<path class="st21" d="M601.8,196.9c0.1,0.4,0.2,0.9,0.3,1.3c0.1,0.4,0.2,0.9,0.3,1.3c0,0.1,0.1,0.2,0.1,0.3
							c0,0.1,0.1,0.2,0.1,0.4c0,0.3-0.2,0.6-0.4,0.7c-0.2,0.1-0.5,0.1-0.8,0c-0.2-0.1-0.4-0.2-0.6-0.4c0.4,0.2,0.9,0.3,1.2,0.1
							c0.1-0.1,0.2-0.3,0.2-0.4c0-0.1,0-0.1-0.1-0.3c0-0.1-0.1-0.2-0.1-0.3c-0.1-0.4-0.2-0.9-0.2-1.4
							C601.8,197.8,601.8,197.4,601.8,196.9z"/>
						<path class="st21" d="M589.2,200.6c0-0.3,0.1-0.6,0.3-0.8c0.3-0.2,0.6-0.2,0.9-0.1c0.3,0.1,0.5,0.3,0.7,0.5
							c0.2,0.2,0.3,0.5,0.4,0.8c0,0.1,0,0.2-0.1,0.3c-0.1,0-0.2,0-0.2,0l0,0c-0.2-0.2-0.4-0.4-0.7-0.5c-0.1,0-0.2,0-0.3,0
							c-0.1,0.1-0.1,0.2-0.2,0.3c-0.1,0.3-0.2,0.6,0.1,0.7c0.2,0.1,0.6,0.1,0.9,0.1c-0.3,0.1-0.6,0.2-1,0.1
							c-0.2-0.1-0.3-0.3-0.3-0.5c0-0.2,0-0.4,0.1-0.5c0-0.2,0.1-0.3,0.3-0.5c0.2-0.1,0.4-0.2,0.6-0.1c0.4,0.1,0.6,0.3,0.9,0.6
							l-0.3,0.2c-0.2-0.5-0.5-0.9-0.9-1.1c-0.2-0.1-0.5-0.2-0.7,0C589.4,200.1,589.3,200.4,589.2,200.6z"/>
					</g>
				</g>
				<path class="st38" d="M615.4,221.1C615.4,221.1,615.4,221,615.4,221.1c-0.4-2.2-1.4-4.3-1.6-6.5c-0.2-2.3,0.5-4.6,0-6.8
					c-0.5-2.5-2.3-4.4-3.8-6.4c-1.5-2-3.3-4.5-2.5-7c0.4-1.2,0.5-2.5,0-3.7c-2-4.5-6.8-5.4-10.7-4.1c-2.6,0.9-4.8,2.8-6.7,4.8
					c-0.4-0.1-0.9,0-1.2,0.3c-0.3,0.3-0.4,0.9-0.3,1.3c0.2,2.7-0.7,5.5-2.5,7.6c-1.2,1.4-2.7,2.6-3.7,4.1c-1,1.6-1.1,3.9,0.3,5.1
					c-1.8,2.2-2.8,5.2-2.7,8.1c0,0.2,0,0.3,0,0.5c1.2-1.1,2.3-1.8,3.4-2.3c1.3-0.6,2.6-0.7,3.7-0.5c2.4-0.5,4.5-0.8,4.5-0.8l0.1,0.2
					c0.8-4-0.2-10.3-0.4-11.5c-0.5,0-1.1-0.1-1.2-0.1c-0.6-0.2-1.1-0.7-1.4-1.2c-0.4-0.6-0.5-1.4-0.3-2.1c0.3-0.9,1.2-1.5,2.1-1.3
					c0,0,0.1,0,0.2,0.1c0,0.1,0.1,0.2,0.1,0.2c0.2,0.3,0.4,0.6,0.8,0.8c0.5,0.2,1-0.1,1.2-0.5c0.3-0.4,0.3-0.9,0.4-1.3
					c0.4,0.2,0.8,0,1.2-0.2c0.3-0.2,0.5-0.6,0.7-1c0.5-1,0.5-2.3,0.2-3.3c1.5-0.3,2.9-0.7,4.5-0.7c1.5,0,3.1,0.3,4.4,1
					c1.3,0.7,2.3,1.9,2.6,3.3c0.1,1.2,0.2,2.4,0.3,3.6c0.1,1.3,0.1,2.6,0,3.9v0.4c0,0.5,0,1.1-0.2,1.6c-0.7,2-3.5,3.2-5.4,3.6v0
					c-0.1,0.9,0,2.1,0.2,3.2c0.1,0.5,0.2,0.9,0.3,1.3c0.1,0.1,0.2,0.2,0.2,0.2c0-0.1,0-0.1,0-0.2c0,0,1.3,1.2,3.1,2
					c0.5,0.2,0.9,0.5,1.4,0.8c0,0,0,0,0,0c1.3,0.5,2.6,1.5,3.5,2.9c1,1.4,2,3.3,2.9,5.7C614.8,225.1,615.8,223.2,615.4,221.1z"/>
			</g>
		</g>
		<g>
			<path class="st22" d="M568.7,347.1c4.3-0.4,8.7-0.6,13-0.7c4.3-0.1,8.7-0.2,13-0.2c4.3,0,8.7,0.1,13,0.2c4.3,0.1,8.7,0.3,13,0.7
				c-4.3,0.4-8.7,0.6-13,0.7c-4.3,0.1-8.7,0.2-13,0.2c-4.3,0-8.7-0.1-13-0.2C577.4,347.7,573.1,347.5,568.7,347.1z"/>
		</g>
	</g>
</g>
<g id="DESIGNED_BY_FREEPIK">
</g>
</svg>
