<?xml version="1.0" encoding="utf-8"?>
<!-- Generator: Adobe Illustrator 21.0.0, SVG Export Plug-In . SVG Version: 6.00 Build 0)  -->
<svg version="1.1" id="Warstwa_1" xmlns="http://www.w3.org/2000/svg" xmlns:xlink="http://www.w3.org/1999/xlink" x="0px" y="0px"
	 viewBox="0 0 500 500" style="enable-background:new 0 0 500 500;" xml:space="preserve">
<style type="text/css">
	.st0{display:none;}
	.st1{display:inline;fill:#FFFFFF;}
	.st2{fill:#EFF2F7;}
	.st3{fill:#FFFFFF;}
	.st4{fill:#071F84;}
	.st5{fill:url(#SVGID_1_);}
	.st6{fill:#ECA87B;}
	.st7{fill:url(#SVGID_2_);}
	.st8{fill:#A7CCFC;}
	.st9{fill:#874935;}
	.st10{fill:url(#SVGID_3_);}
	.st11{fill:#5858BC;}
	.st12{fill:url(#SVGID_4_);}
</style>
<g id="BACKGROUND" class="st0">
	<rect class="st1" width="500" height="500"/>
</g>
<g id="OBJECTS">
	<g>
		<path class="st2" d="M261,255.5c0,0,3.3,32.7,30.6,40.8c27.3,8.1,42,2.9,58.2-14c0,0-4.4,33.2-22.8,45.7c0,0,43.5-5.3,57.5-50.5
			c0,0,42-3,44.2-41.8c0,0,40.5-13.8,45.7-50.6s-12.5-47.9-36.1-61.9c0,0,9.5-21.1-17.3-42.1c-18.8-11-40.9,0.9-40.9,0.9
			s-10.3-36.1-60.4-37.6c-15.5,0-40.2,15.5-42.6,32.4c0,0-29.4-17.7-56.4,1.5s-19.2,54.5-10.2,70.7c0,0-28.9,28-13.3,67.8
			C212.7,256.4,261,255.5,261,255.5z"/>
		<g>
			<path class="st3" d="M342.7,212.2H306v-3.7c0-6.2,0.7-11.3,2.1-15.2s3.5-7.4,6.3-10.7c2.8-3.2,9.1-8.9,18.9-17
				c5.2-4.2,7.8-8.1,7.8-11.7c0-3.5-1-6.3-3.1-8.3s-5.3-2.9-9.5-2.9c-4.6,0-8.3,1.5-11.3,4.5s-4.9,8.3-5.7,15.8l-37.4-4.6
				c1.3-13.8,6.3-24.9,15-33.2c8.7-8.4,22.1-12.6,40.1-12.6c14,0,25.3,2.9,34,8.8c11.7,7.9,17.6,18.5,17.6,31.7
				c0,5.5-1.5,10.7-4.5,15.8s-9.2,11.3-18.5,18.6c-6.5,5.1-10.6,9.3-12.3,12.4C343.6,203.1,342.7,207.2,342.7,212.2z M322.1,221.9
				h4.6c9.6,0,17.3,7.8,17.3,17.3l0,0c0,9.6-7.8,17.3-17.3,17.3h-4.6c-9.6,0-17.3-7.8-17.3-17.3l0,0
				C304.8,229.7,312.6,221.9,322.1,221.9z"/>
		</g>
	</g>
	<g>
		<path class="st2" d="M216.9,389.9c0,0-27.9,0-49.9,0s-25,11.4-13,13s37,9.1,25,12.6s-14.5,15,5,15.5s118,1,134,0s7.8-14.5-11.6-14
			s-10.4-5.9,20.1-6.2C357,410.4,379,393.1,343,392S216.9,389.9,216.9,389.9z"/>
		<path class="st4" d="M225,400.9c0,0-8.7-2-12.4,0s-0.8,10.3,18.8,7.3L225,400.9z"/>
		<path class="st4" d="M271,400.9c0,0,8.7-2,12.4,0c3.7,2,0.8,10.3-18.8,7.3L271,400.9z"/>
		<linearGradient id="SVGID_1_" gradientUnits="userSpaceOnUse" x1="204.9243" y1="395.2249" x2="231.5" y2="395.2249">
			<stop  offset="0" style="stop-color:#0BA1E1"/>
			<stop  offset="1" style="stop-color:#0F80DD"/>
		</linearGradient>
		<path class="st5" d="M212.2,382.4c0,0-8.6-2-7.1,8.6c1.5,6.9,26.4,17.2,26.4,17.2v-20.7L212.2,382.4z"/>
		<path class="st6" d="M242.9,335.9v6.1c0,0,4.8,6,10.4,0v-6.1C253.3,335.9,246.3,329.7,242.9,335.9z"/>
		<linearGradient id="SVGID_2_" gradientUnits="userSpaceOnUse" x1="266.2" y1="395.2249" x2="292.7757" y2="395.2249">
			<stop  offset="0" style="stop-color:#0BA1E1"/>
			<stop  offset="1" style="stop-color:#0F80DD"/>
		</linearGradient>
		<path class="st7" d="M285.5,382.4c0,0,8.6-2,7.1,8.6c-1.5,6.9-26.4,17.2-26.4,17.2v-20.7L285.5,382.4z"/>
		<path class="st8" d="M265.5,345.1l-8.3-3.1c-5.7-2.1-12-2.1-17.7,0l-8.3,3.1c0,0-12,6.6-2.2,40.8c0,0,5.9,5.2,19.4,5.2
			c13.5,0,19.4-5.2,19.4-5.2C277.5,351.7,265.5,345.1,265.5,345.1z"/>
		<path class="st9" d="M242.5,300.7c0,0-6.1-1.8-8.9,2.1c-2.8,3.9,0,9.1,0,9.1s-4.5,0.9-5.2,6.4s3.4,7.3,3.4,7.3s-2.5,3.9,0.4,8.2
			c1.8,2.5,7.7,0,7.7,0s0.2,2.3,2.7,3.2c2.5,0.9,4.8-2,4.8-2s3,4.1,9.1,2.1s5.2-6.9,5.2-6.9s4.5,0.9,6.6-2.7s-1.6-7.8-1.6-7.8
			s2.5-4.8,0-10.1c-2.5-5.3-6.4-3.4-6.4-3.4s0.5-5.2-2.7-6.9c-3.2-1.8-6.9,2.3-6.9,2.3s0.2-5.2-3.7-5.2
			C242.7,296.5,242.5,300.7,242.5,300.7z"/>
		<linearGradient id="SVGID_3_" gradientUnits="userSpaceOnUse" x1="228.3667" y1="399.1128" x2="268.7921" y2="399.1128">
			<stop  offset="0" style="stop-color:#0BA1E1"/>
			<stop  offset="1" style="stop-color:#0F80DD"/>
		</linearGradient>
		<path class="st10" d="M228.9,385.9c0,0-1.2,11.3,0,18.7c1.2,7.4,19.1,8.1,27.7,7.6s14.8-3.9,11.1-26.3
			C267.7,385.9,248.6,395.6,228.9,385.9z"/>
		<g>
			<path class="st11" d="M230.7,359.7c0.3,2.3,0.5,4.6,0.7,7l0.6,7l0.5,7c0.1,2.3,0.3,4.7,0.4,7c-0.4-2.3-0.7-4.6-1-6.9
				s-0.5-4.7-0.7-7s-0.3-4.7-0.4-7C230.8,364.4,230.7,362.1,230.7,359.7z"/>
		</g>
		<g>
			<path class="st11" d="M265.8,359.7c0,2.3-0.1,4.7-0.2,7s-0.3,4.7-0.4,7c-0.2,2.3-0.4,4.7-0.7,7c-0.3,2.3-0.6,4.6-1,6.9
				c0.1-2.3,0.2-4.7,0.4-7l0.5-7l0.6-7C265.3,364.3,265.5,362,265.8,359.7z"/>
		</g>
		<ellipse class="st2" cx="142.7" cy="415.2" rx="10.3" ry="3"/>
		<ellipse class="st2" cx="379.2" cy="409.2" rx="13.5" ry="3"/>
		<ellipse class="st2" cx="344.7" cy="425.5" rx="4.3" ry="1"/>
		<ellipse class="st2" cx="124.3" cy="394.2" rx="5" ry="1"/>
		<ellipse class="st2" cx="111.5" cy="416.7" rx="4.2" ry="1.5"/>
	</g>
	<g>
		<circle class="st2" cx="63.8" cy="75.7" r="5.3"/>
		<circle class="st2" cx="196.6" cy="34" r="8"/>
		<circle class="st2" cx="221.1" cy="271" r="6.4"/>
		<circle class="st2" cx="419" cy="317.1" r="3"/>
		<circle class="st2" cx="107.3" cy="321.7" r="3.9"/>
		<circle class="st2" cx="396.6" cy="26" r="3.9"/>
	</g>
	<g>
		<linearGradient id="SVGID_4_" gradientUnits="userSpaceOnUse" x1="47.0048" y1="203.004" x2="243.6714" y2="191.6707">
			<stop  offset="0" style="stop-color:#0BA1E1"/>
			<stop  offset="1" style="stop-color:#0F80DD"/>
		</linearGradient>
		<path class="st12" d="M187.6,87.2L61,120.9c-21.3,5.7-33.9,27.5-28.2,48.7l23.1,86.9c5.5,20.5,25.9,33,46.4,28.8
			c11.2,15.9,31.1,23.6,29.1,20.8c-6.7-9.4-9.1-18.9-9.7-25.8l109.5-29.1c21.3-5.7,33.9-27.5,28.2-48.7l-23.1-86.9
			C230.6,94.2,208.8,81.6,187.6,87.2z"/>
		<g>
			<path class="st3" d="M164,209.3l-27.9,8.4l-0.8-2.8c-1.4-4.8-2.1-8.8-1.9-12.1c0.2-3.3,1-6.5,2.4-9.6s4.9-8.9,10.5-17.3
				c3-4.4,4.1-8,3.3-10.7s-2.2-4.5-4.3-5.6c-2-1-4.7-1-7.9-0.1c-3.5,1.1-6,3.1-7.6,6.1s-1.8,7.4-0.7,13.4l-29.6,5.1
				c-2.2-10.8-0.9-20.4,3.8-28.8c4.7-8.4,13.9-14.7,27.6-18.8c10.7-3.2,20-3.6,27.9-1.1c10.7,3.3,17.6,10,20.7,20.1
				c1.3,4.2,1.3,8.5,0.2,13.1s-4.4,10.7-9.8,18.4c-3.8,5.4-5.9,9.5-6.5,12.3C162.5,202.2,162.8,205.5,164,209.3z M150.5,221.5
				l3.5-1.1c7.3-2.2,15,1.9,17.2,9.2l0,0c2.2,7.3-1.9,15-9.2,17.2l-3.5,1.1c-7.3,2.2-15-1.9-17.2-9.2l0,0
				C139.1,231.4,143.2,223.7,150.5,221.5z"/>
		</g>
	</g>
</g>
<g id="DESIGNED_BY_FREEPIK">
</g>
</svg>
