<?xml version="1.0" encoding="utf-8"?>
<!-- Generator: Adobe Illustrator 21.0.0, SVG Export Plug-In . SVG Version: 6.00 Build 0)  -->
<svg version="1.1" id="Warstwa_1" xmlns="http://www.w3.org/2000/svg" xmlns:xlink="http://www.w3.org/1999/xlink" x="0px" y="0px"
	 viewBox="0 0 400 400" style="enable-background:new 0 0 400 400;" xml:space="preserve">
<style type="text/css">
	.st0{fill:url(#SVGID_1_);}
	.st1{display:none;}
	.st2{display:inline;}
	.st3{fill:#FFFFFF;}
	.st4{display:inline;fill:#FFFFFF;}
</style>
<linearGradient id="SVGID_1_" gradientUnits="userSpaceOnUse" x1="37.9165" y1="250.0177" x2="390.2441" y2="136.6815" gradientTransform="matrix(1 0 0 -1 0 400)">
	<stop  offset="0" style="stop-color:#0BA1E1"/>
	<stop  offset="1" style="stop-color:#116EDB"/>
</linearGradient>
<path class="st0" d="M397.1,201.7c0,49.9-6.5,91.7-49.2,130.3c-40.5,36.7-89.1,66.9-148,66.9c-60.8,0-133-35.2-165-81.6
	c-25.5-37-32.2-67.5-32.2-115.6c0-45.9,8.8-95.4,38-126.4C80.9,32.6,133.1-4.8,199.9,4.5c48.6,6.8,104.4,18.5,138.9,48.2
	C380.9,88.9,397.1,141.9,397.1,201.7z"/>
<g id="XMLID_4328_" class="st1">
	<g id="XMLID_4335_" class="st2">
		<path id="XMLID_4336_" class="st3" d="M104.5,128.6c-17.5,8.3-29.3,25.1-31,44.4c-0.4,4.3,6.2,5,6.6,0.7
			c1.5-17,11.7-31.8,27.1-39.1C111.1,132.8,108.3,126.7,104.5,128.6z"/>
	</g>
	<g id="XMLID_4333_" class="st2">
		<path id="XMLID_4334_" class="st3" d="M91.7,120.4c-17.4,8.3-29.2,25.2-30.9,44.4c-0.4,4.3,6.2,5,6.6,0.7
			c1.5-17,11.7-31.8,27.1-39.1C98.3,124.6,95.5,118.6,91.7,120.4z"/>
	</g>
	<g id="XMLID_4331_" class="st2">
		<path id="XMLID_4332_" class="st3" d="M303.7,237.9c-5.1,18.6-19.5,33.3-38.2,38.4c-4.1,1.1-6.1-5.2-1.9-6.4
			c16.4-4.5,29.2-17.2,33.6-33.6C298.4,232.1,304.9,233.7,303.7,237.9z"/>
	</g>
	<g id="XMLID_4329_" class="st2">
		<path id="XMLID_4330_" class="st3" d="M314,249c-5.1,18.6-19.5,33.3-38.2,38.4c-4.1,1.1-6.1-5.2-1.9-6.4
			c16.4-4.5,29.2-17.2,33.6-33.6C308.7,243.3,315.2,244.9,314,249z"/>
	</g>
</g>
<g id="XMLID_4313_" class="st1">
	<path class="st4" d="M282.6,191.2c-22.7,0-41.1-18.4-41.1-41.1c0-8.3,2.5-16.1,6.8-22.6c-16.1-8.6-35.3-13.6-56-13.6
		c-57,0-103.2,37.9-103.2,84.8c0,9.5,1.9,18.6,5.4,27.1c0.5,1.3,0.3,2.7-0.5,3.8c-4,5.3-9.1,10.4-15.5,13.9
		c-2.7,1.4-2.7,5.2-0.1,6.7c7.3,4,20.5,9.2,36.9,6.8c1.1-0.2,2.2,0.1,3,0.8c18.7,15.8,44.9,25.6,73.9,25.6
		c57,0,103.2-37.9,103.2-84.8c0-3.2-0.2-6.3-0.6-9.4C291,190.5,286.9,191.2,282.6,191.2z M162.4,212.7c-3.9,0-7-3.1-7-7s3.1-7,7-7
		s7,3.1,7,7C169.4,209.6,166.3,212.7,162.4,212.7z M193.6,212.7c-3.9,0-7-3.1-7-7s3.1-7,7-7s7,3.1,7,7
		C200.6,209.6,197.5,212.7,193.6,212.7z M224.7,212.7c-3.9,0-7-3.1-7-7s3.1-7,7-7s7,3.1,7,7C231.7,209.6,228.5,212.7,224.7,212.7z"
		/>
	<path id="XMLID_4314_" class="st4" d="M282.6,195.8c-25.2,0-45.7-20.5-45.7-45.7s20.5-45.7,45.7-45.7c25.2,0,45.7,20.5,45.7,45.7
		C328.3,175.3,307.8,195.8,282.6,195.8z M282.6,108.5c-22.9,0-41.5,18.6-41.5,41.5s18.6,41.5,41.5,41.5s41.5-18.6,41.5-41.5
		C324.2,127.1,305.5,108.5,282.6,108.5z"/>
</g>
<g class="st1">
	<path class="st4" d="M291.4,131.3v37.5h-10.6v-29.3h-7v-8.2H291.4z"/>
</g>
<g>
	<path class="st3" d="M234,210.3c-1.2-2.1-2.8-3.7-4.9-4.8c-1.4-0.8-3.5-1.6-6.2-2.3c2.5-0.8,4.5-1.9,6.1-3.3
		c1.6-1.3,2.7-2.8,3.5-4.5c0.8-1.7,1.2-3.5,1.2-5.4c0-2.6-0.8-5-2.3-7.2c-1.5-2.1-3.7-3.9-6.5-5c-1.1-0.5-2.4-0.8-3.9-1.1v-10.1
		h-9.7v9.5H205v-9.5h-9.7v9.5h-14.8v7.9h2.3c1.5,0,2.5,0.2,3,0.4c0.6,0.2,0.9,0.6,1.2,1.1c0.2,0.5,0.3,1.5,0.3,3.3v32
		c0,1.7-0.1,2.7-0.3,3.2c-0.2,0.5-0.6,0.9-1.2,1.1c-0.5,0.2-1.6,0.4-3,0.4h-2.3v7.9h14.8v9.4h9.7v-9.4h5.5c0.3,0,0.5,0,0.7,0v9.4
		h9.7v-10.3c1.6-0.3,3.1-0.7,4.3-1.2c3.3-1.3,6-3.3,7.8-5.9c1.8-2.5,2.7-5.3,2.7-8.4C235.8,214.7,235.2,212.4,234,210.3z
		 M215.4,186.1c1.4,0.5,2.5,1.2,3.3,2.3c0.8,1.1,1.1,2.4,1.1,3.9c0,1.5-0.4,2.7-1.2,3.8c-0.8,1.1-2,1.9-3.6,2.5
		c-1.6,0.6-4,0.8-7.3,0.8h-6.3v-14h6.3C211.4,185.4,213.9,185.6,215.4,186.1z M209.1,224.4h-4.2c-1.4,0-2.2,0-2.5-0.2
		c-0.3-0.1-0.5-0.4-0.7-0.8c-0.2-0.3-0.2-1.3-0.2-3.1v-12.4h7.4c3.3,0,5.7,0.3,7.3,0.9c1.6,0.6,2.8,1.5,3.6,2.7
		c0.8,1.2,1.2,2.7,1.2,4.3c0,2-0.6,3.7-1.7,5.1c-1.1,1.4-2.5,2.4-4.1,2.9C213.5,224.1,211.5,224.4,209.1,224.4z M331.3,204.9
		c-0.2-2.6-0.5-5.2-0.8-8.1c-0.6-5.4-1.3-11.6-1.7-21.3l-0.4-7l-7.1,0.9c-0.1,0-0.6,0.1-1.4,0.1c-3.9,0-13.8-1.2-21.4-12.2
		c-1.7-2.5-3.2-4.9-4.7-7.3c-3.2-5.1-6.5-10.3-10.6-15.1c3.2-6.8,7.6-13.2,8.5-14.6c5-5.8,4.9-10.6,3.9-13.6
		c-2.2-6.6-9.5-8.6-10.9-8.8l-0.6-0.1c-2.8-0.4-5.8-0.5-8.8-0.5c-15.7,0-29.9,4.8-38.1,8.4c-11.2-3.6-22.9-5.4-34.7-5.4
		c-30.3,0-57.7,11.9-77,30.8c-2.3-1.3-4.7-2.5-7.5-3.5c-1.6-0.5-3.3-0.9-5.1-1.3l-2.8-0.4l-2.4-0.2c-3.7,0-6.8,0.6-10,1.4
		c-0.4-0.6-0.8-1.2-1.2-1.8c-0.8-1-1.7-1.7-2.6-2.5c-0.5-0.4-1.1-0.7-1.6-1c-0.6-0.4-0.9-0.4-1.4-0.6c-2.3-0.8-4.4-0.8-6.3-0.6
		c-3.9,0.5-7,1.7-9.6,3c-2.6,1.3-4.6,2.7-6.3,3.9c-1.6,1.2-2.7,2.2-3.5,2.8c-0.8,0.8-1.1,1.2-1.1,1.2s0.4-0.3,1.3-0.9
		c0.8-0.5,2-1.4,3.8-2.2c1.7-0.9,3.9-1.9,6.4-2.8c2.6-1,5.7-1.8,8.9-1.8c1.6,0,3.3,0.3,4.6,0.8l1.4,0.7c0.2,0.3,0.5,0.4,0.7,0.6
		c0.2,0.2,0.5,0.6,0.8,0.9c0.2,0.3,0.6,0.6,0.8,1c0.2,0.2,0.3,0.6,0.5,0.8c-1.6,0.6-3.1,1.3-4.5,2.2c-2.5,1.3-4.8,3.4-6.6,5.8
		l-0.1,0.2l-0.1,0.2c-0.8,1.5-1.3,3.1-1.7,4.8c-0.3,1.7-0.5,3.6,0,5.7c0.3,1,0.9,2.2,1.7,3.1c0.9,1,1.9,1.7,3,2.1
		c1.1,0.4,2.1,0.6,3.1,0.6h1.5c0.5,0,0.7-0.1,1.1-0.1l0.5-0.1l0.7-0.1l0.3-0.1l1.3-0.4c0.8-0.3,1.6-0.7,2.3-1.2
		c1.5-0.8,2.8-2.2,3.7-3.6c1.9-2.8,2.3-5.9,2.2-8.6c-0.1-1.8-0.3-3.4-0.8-5.1c2.5-0.5,4.9-0.9,7.2-0.9c1.8,0,2.8,0.2,4.2,0.4
		c1.4,0.2,2.7,0.6,4.1,1c1.4,0.5,2.8,1.1,4.2,1.7c-14.7,16.7-23.6,38-23.6,61.2c0,32.1,20.4,63.8,40.9,79c0.5,1.6,0.8,5.7,0.7,9.4
		c0,9.2,7.3,16.6,16.4,16.6H183c5.9,0,11.1-3.2,14.1-8c3.5,0.1,6.9,0.1,10.5,0c2.9,4.8,8.1,8,14,8h28.3c9.1,0,16.5-7.5,16.5-16.6
		l-0.2-1.4c-0.8-3.3-1.2-7.5-1-9.3l1.5-1.5c11.6-11.3,23.5-22.9,32.3-37.2c3.5-5.6,9.7-11.4,15.6-11.6c2.3-0.2,8.4-0.4,12.7-5.2
		C330.4,215.9,331.8,211,331.3,204.9z M94.1,143.8c-0.2,0.4-0.5,0.7-0.8,0.9c-0.3,0.4-0.6,0.5-1,0.7l-0.5,0.3
		c-0.2,0.1-0.4,0.1-0.6,0.2l-0.7,0.2l-0.1,0l0,0l-0.3,0l-1,0.1c-0.2-0.1-0.3-0.1-0.5-0.1c-0.3,0-0.7-0.1-0.9-0.2
		c-0.4-0.2-0.3-0.1-0.5-0.6c-0.3-1.1,0.2-3.4,1.2-5.4c0.9-1.3,3.7-3.2,7.2-4.6c0.2,1,0.2,2.1,0.2,3.1
		C95.7,140.6,95.1,142.5,94.1,143.8z M146.3,150.4l-0.2,0c-0.7,0-1.3-0.3-1.8-0.8c-0.5-0.5-0.8-1.2-0.7-1.8c0-0.7,0.3-1.3,0.8-1.8
		c0.2-0.2,24.6-22.7,58.7-22.7c11.3,0,22.4,2.5,33.2,7.2c0.6,0.3,1.1,0.8,1.4,1.5c0.2,0.6,0.2,1.3-0.1,1.9c-0.4,0.8-1.4,1.4-2.3,1.4
		c-0.4,0-0.8-0.1-1.1-0.2c-10-4.5-20.5-6.8-31-6.8c-31.9,0-54.9,21-55.1,21.3C147.5,150.1,146.9,150.4,146.3,150.4z M207.3,255.8
		c-29.5,0-53.4-23.5-53.4-52.4c0-29,23.9-52.4,53.4-52.4c29.5,0,53.4,23.5,53.4,52.4C260.7,232.3,236.9,255.8,207.3,255.8z"/>
</g>
</svg>
