<?xml version="1.0" encoding="utf-8"?>
<!-- Generator: Adobe Illustrator 21.0.0, SVG Export Plug-In . SVG Version: 6.00 Build 0)  -->
<svg version="1.1" xmlns="http://www.w3.org/2000/svg" xmlns:xlink="http://www.w3.org/1999/xlink" x="0px" y="0px"
	 viewBox="0 0 750 500" style="enable-background:new 0 0 750 500;" xml:space="preserve">
<style type="text/css">
	.st0{fill:url(#SVGID_1_);}
	.st1{fill:none;stroke:#FFFFFF;stroke-width:0.5669;stroke-linecap:round;stroke-miterlimit:10;}
	.st2{opacity:0.6;fill:#EFF3F8;}
	.st3{fill:#10263C;}
	.st4{fill:#1B3A54;}
	.st5{opacity:0.3;fill:#FFFFFF;}
	.st6{fill:#D1D3D4;}
	.st7{fill:#3E3C96;}
	.st8{fill:#212168;}
	.st9{fill:#AFE5FD;}
	.st10{fill:#EEB399;}
	.st11{fill:#BA7356;}
	.st12{fill:url(#SVGID_2_);}
	.st13{fill:#171E26;}
	.st14{fill:url(#SVGID_3_);}
	.st15{fill:url(#SVGID_4_);}
	.st16{fill:#CC957F;}
	.st17{fill:#AD5C40;}
	.st18{fill:url(#SVGID_5_);}
	.st19{fill:#CCE5FC;}
	.st20{fill:#FFFFFF;}
	.st21{fill:url(#SVGID_6_);}
	.st22{fill:#C18B76;}
	.st23{fill:url(#SVGID_7_);}
	.st24{fill:#8AA5F3;}
	.st25{fill:#375A93;}
	.st26{fill:#7298E2;}
	.st27{fill:#5A7FBA;}
	.st28{fill:#F4F4F4;}
	.st29{fill:#A05E47;}
	.st30{fill:#6B3729;}
	.st31{fill:#171C27;}
	.st32{fill:url(#SVGID_8_);}
	.st33{fill:#844535;}
	.st34{fill:#DDA690;}
	.st35{fill:url(#SVGID_9_);}
	.st36{fill:url(#SVGID_10_);}
	.st37{fill:url(#SVGID_11_);}
	.st38{opacity:0.5;fill:#DD8950;}
	.st39{fill:#4F85BF;}
	.st40{fill:url(#SVGID_12_);}
	.st41{fill:url(#SVGID_13_);}
	.st42{opacity:0.4;fill:#AFE5FD;}
	.st43{fill:#FFFFFF;stroke:#0099DD;stroke-linecap:round;stroke-linejoin:round;stroke-miterlimit:10;}
	.st44{fill:url(#SVGID_14_);}
	.st45{fill:url(#SVGID_15_);}
	.st46{fill:url(#SVGID_16_);}
	.st47{fill:url(#SVGID_17_);}
	.st48{fill:url(#SVGID_18_);}
	.st49{fill:url(#SVGID_19_);}
	.st50{fill:url(#SVGID_20_);}
	.st51{fill:url(#SVGID_21_);}
</style>
<g id="Background">
</g>
<g id="Objects">
	<g>
		<g>
			<g>
				<linearGradient id="SVGID_1_" gradientUnits="userSpaceOnUse" x1="24.8997" y1="379.8234" x2="143.4081" y2="379.8234">
					<stop  offset="0" style="stop-color:#0BA1E1"/>
					<stop  offset="1" style="stop-color:#116EDB"/>
				</linearGradient>
				<path class="st0" d="M49.4,413.6c-5-4.1-10-10.4-7.8-16.5c2.2-6.2,10.3-7.8,16.9-7.3c8.6,0.8,16.9,3.5,24.2,8.1
					c-21-10-43-21.5-54-41.9c-3.9-7.2-5.9-16.9-0.7-23.2c3.6-4.4,9.8-5.9,15.4-5.1c5.6,0.8,10.7,3.6,15.5,6.7
					c21.6,13.8,39.4,33.5,50.8,56.4c-3.2-8.8-2.3-19,2.5-27c1.6-2.7,3.8-5.3,6.7-6.5c4.7-2,10.3-0.2,14.3,3
					c6.4,5.1,9.7,13.5,10,21.7c0.3,8.2-2.1,16.3-5.5,23.8c-3.8,8.3-9.5,16.7-16.9,22.2c-5.9,4.4-14,4.3-21.1,4.1
					C81.6,431.6,63.5,425.1,49.4,413.6z"/>
				<g>
					<path class="st1" d="M29.9,337.3c0,0,63.6,30.6,84.8,88.8"/>
					<path class="st1" d="M124.8,361c0,0,5.1,42.1-11.9,60.4"/>
					<path class="st1" d="M45.7,397.3c0,0,39.7,4.9,65.8,20.8"/>
					<path class="st1" d="M53.2,336.3c0,0,7.6,9.8,5.3,19.1"/>
					<path class="st1" d="M56.1,375.2c0,0,23.9-2.3,30.9,6"/>
					<path class="st1" d="M139.2,379.8c0,0-3.5,11.2-15.4,16.6"/>
					<path class="st1" d="M61.9,415.9c0,0,14.7-11.5,25-8.9"/>
				</g>
			</g>
			<path class="st2" d="M243.9,100.5c22.5-5.6,47.4-7.3,66.3,0.6c8.3,3.5,15.7,8.9,23.5,13.4c24.6,14.3,54.3,19.7,82.4,15
				c15.5-2.6,30.4-8.1,45.9-10.9c41.6-7.6,86.4,5.7,117.1,34.8c12.7,12,23.1,26.5,36.6,37.7c27.5,22.7,65.9,29.8,91.9,54.3
				c9.8,9.3,17.7,21.4,18.8,34.9c1,13.5-6.3,28.1-19,32.6c-14.3,5.1-29.6-3.2-42.7-11c-23.2-13.8-46.9-27.2-72.5-35.7
				c-25.6-8.5-53.4-12-79.7-5.9c-31.3,7.3-60.1,28.1-92.2,26c-32.8-2.1-58.6-27.3-86.4-44.9c-40.5-25.8-94.1-36.3-136.7-14.4
				c-6.2,3.2-12.4,7.1-19.4,7.7c-12.5,1-23.5-9.6-27.1-21.6c-13.1-43.7,24.8-85.2,61.9-101.9C221.7,107.2,232.5,103.4,243.9,100.5z"
				/>
			<g>
				<path class="st3" d="M239.8,402.6L137,138.2c-1.5-3.9-5.2-6.5-9.4-6.6l-101.7-2.8l0.3-2.1l-10.5,1.9l0,0c-1.7,0-3.2,0.3-4.6,0.9
					l0,0c0,0,0,0,0,0c-4.6,2.1-7.3,7.6-5.5,12.9l99.2,284.2c1.6,4.7,6.4,7.6,11.3,6.9l115.5-16.7
					C238.2,415.7,242.2,408.9,239.8,402.6z"/>
				<path class="st4" d="M16.7,140.5l99.2,284.2c1.6,4.7,6.4,7.6,11.3,6.9l115.5-16.7c6.6-1,10.6-7.8,8.2-14L148.1,136.4
					c-1.5-3.9-5.2-6.5-9.4-6.6l-111.9-3C19.6,126.5,14.3,133.7,16.7,140.5z"/>
				<path class="st2" d="M34.3,149.7l86,246.9c1.3,3.8,5.2,6.2,9.3,5.6l94.6-13.7c5.4-0.8,8.7-6.4,6.7-11.5l-89-230.7
					c-1.2-3.2-4.3-5.3-7.7-5.4l-91.6-2.5C36.6,138.3,32.4,144.1,34.3,149.7z"/>
				
					<ellipse transform="matrix(0.9592 -0.2828 0.2828 0.9592 -107.741 68.6293)" class="st3" cx="183.8" cy="407.5" rx="8.9" ry="9.9"/>
				<path class="st3" d="M105.3,135.5L71.1,135c-0.6,0-1.1-0.5-1.1-1.1l0-0.2c0-0.6,0.5-1.1,1.1-1.1l34.2,0.5c0.6,0,1.1,0.5,1.1,1.1
					l0,0.2C106.3,135,105.9,135.5,105.3,135.5z"/>
			</g>
			<path class="st2" d="M743.2,260.2c1.8-8.4,2.5-16.9,1.7-25.5c-0.5-5.4-1.6-10.6-4.1-14.8c-12.4-21.6-24.4-37.3-24.5-37.5
				c-19.7-29.5-24.2-33.5-57.9-54.8c-24.9-15.6-57.3-12.2-85.3-3.1c-28,9.1-54.5,23.2-83.5,27.8c-29,4.6-62.9-3.2-78-28.4
				c-5.2-8.7-7.8-18.8-12.2-28c-12.4-26-40.1-43.3-68.8-45.7c-28.7-2.3-57.8,9.5-78.5,29.5c-23.7,22.9-38.2,56.4-67.9,70.7
				c-27.4,13.2-60,6.1-89.8,12.1c-10.3,2.1-20.1,5.9-29.1,11.1c-11,6.3-15.9,19.5-11.8,31.5l66.7,191.4c1.3,3.8,5.2,6.2,9.3,5.6
				l48.1-7c4.7-0.7,9.2-2.6,12.9-5.6c15.4-12.7,27.5-29.2,34.1-48.1c9.7-27.9,8.3-60.2,25.5-84.1c23.6-32.7,71.8-35.3,110.8-25
				c33,8.7,64.2,24.4,90.8,45.8c20.1,16.1,38.3,35.8,62.2,45.3c28.1,11.2,62.2,5.9,85.6-13.3c9.7-8,18.1-18.3,30-22.2
				c8.3-2.7,17.2-1.9,25.8-0.3c19.2,3.4,37.8,10.1,54.7,19.9c0.1,0.1,0.3,0.2,0.4,0.2c17.6,10.2,24.4-10.1,27.2-22.6L743.2,260.2z"
				/>
			<g>
				<path class="st5" d="M141.9,146.3c-1.2-3.2-4.3-5.3-7.7-5.4l-4.5-0.1L70.5,253.5l11.9,34.3l66.1-124.3L141.9,146.3z"/>
				<path class="st5" d="M156.6,184.4L91.6,314l5.3,15.2c20.4-40.5,45.2-89.7,65.4-130.1L156.6,184.4z"/>
			</g>
		</g>
		<g>
			<g>
				<ellipse class="st6" cx="317.1" cy="422.3" rx="45.2" ry="2.8"/>
				<g>
					<g>
						<path class="st7" d="M356.8,134.8l-5.2-1.1c-0.4-0.1-0.7-0.5-0.6-0.9l4.1-18.5c0.1-0.4,0.5-0.7,0.9-0.6l5.2,1.1
							c0.4,0.1,0.7,0.5,0.6,0.9l-4.1,18.5C357.6,134.7,357.2,134.9,356.8,134.8z"/>
						<path class="st8" d="M357.7,134.2l4.1-18.4c0.1-0.4-0.2-0.8-0.6-0.9l-0.1,0l-4.4,19.9l0.1,0
							C357.1,134.9,357.6,134.6,357.7,134.2z"/>
						<path class="st9" d="M356,132.9l-3.8-0.8c-0.3-0.1-0.5-0.4-0.5-0.7l3.4-15.5c0.1-0.3,0.4-0.5,0.7-0.5l3.8,0.8
							c0.3,0.1,0.5,0.4,0.5,0.7l-3.4,15.5C356.7,132.7,356.4,132.9,356,132.9z"/>
					</g>
					<path class="st10" d="M351.9,133.2c0.6-0.4,1.4-0.6,1.8-1.3c0.5-0.8,0-1.9,0.3-2.9c0.3-0.9,1.5-1.4,2.3-1
						c0.7,0.3,1.1,1.1,1.4,1.8c0.1,0.1,0.1,0.3,0.3,0.4c0.3,0.1,0.5-0.3,0.5-0.6c0.4-1.8,0.7-3.6,0.8-5.4c0-0.5,0.1-1.1,0.3-1.6
						c0.2-0.5,0.7-0.9,1.3-0.8c0.7,0.1,1.1,0.8,1.4,1.4c1.8,4.2,2.3,8.9,1.5,13.3c-0.1,0.7-0.3,1.4-0.5,2c-0.3,0.7-0.6,1.3-1,2
						c-0.2,0.4-0.4,0.7-0.7,1c-0.6,0.5-1.4,0.7-2.2,0.7c-3,0.1-5.8-1.3-8.1-3.2c-1-0.8-1.6-1.8-1.3-3.1
						C350.1,134.9,350.9,133.8,351.9,133.2z"/>
					<path class="st10" d="M368.4,182.5c1.2,0,2.4,0.2,3.3,0.9c0.2,0.2,0.4,0.3,0.4,0.6c0.2,0.6-0.5,1.3-0.4,1.9
						c0.1,0.4,0.5,0.7,0.9,1c0.7,0.7,0.8,2,0.1,2.7c-0.2,0.2-0.4,0.3-0.5,0.6c-0.1,0.3,0,0.7,0.3,1c0.2,0.3,0.5,0.6,0.6,0.9
						c0.2,0.4,0.1,0.9-0.2,1.2c-0.2,0.2-0.4,0.3-0.5,0.5c-0.2,0.5,0.3,1.1,0.3,1.6c0,0.3-0.3,0.6-0.6,0.8c-0.3,0.1-0.6,0.2-1,0.2
						c-2,0.2-4.1,0.4-6.1-0.1c-0.2-0.1-0.4-0.1-0.6-0.3c-0.2-0.2-0.3-0.5-0.4-0.7c-1.2-2.8-1.6-5.9-1.4-8.9c0.1-1,0.2-2.8,1.2-3.3
						C365,182.4,367.1,182.5,368.4,182.5z"/>
					<path class="st11" d="M369.8,189.3c-0.1,0-0.2,0-0.3,0c-1-0.2-1.7-1.1-1.9-2.2c-0.3,0.2-0.6,0.4-1,0.4c-0.6,0-1.2-0.4-1.2-1
						c0-0.1,0.1-0.2,0.2-0.2c0.1,0,0.2,0.1,0.2,0.2c0,0.4,0.4,0.6,0.8,0.6c0.5,0,0.9-0.3,1.1-0.5c0.1-0.1,0.2-0.1,0.2,0
						c0.1,0,0.1,0.1,0.1,0.2c0,1,0.7,2,1.6,2.2c0.2,0,0.3,0,0.4,0c0.3-0.1,0.4-0.4,0.4-1.1c0.1-1.4,0-2.8-0.8-3.8
						c-0.1-0.1-0.2-0.2-0.3-0.3c-0.2-0.2-0.4-0.4-0.6-0.7c-0.1-0.1,0-0.2,0.1-0.3c0.1-0.1,0.2,0,0.3,0.1c0.1,0.2,0.3,0.4,0.5,0.6
						c0.1,0.1,0.2,0.2,0.3,0.3c1,1.1,1,2.6,0.9,4.1c0,0.5-0.1,1.2-0.7,1.5C370.1,189.3,370,189.3,369.8,189.3z"/>
					<path class="st11" d="M370.2,190.9c-1,0-1.7-0.2-2-0.7c-0.4-0.7,0.2-1.7,0.2-1.7c0.1-0.1,0.2-0.1,0.3-0.1
						c0.1,0.1,0.1,0.2,0.1,0.3c0,0-0.5,0.7-0.2,1.2c0.2,0.3,0.8,0.7,2.9,0.4c0.1,0,0.2,0.1,0.2,0.2c0,0.1-0.1,0.2-0.2,0.2
						C371,190.8,370.6,190.9,370.2,190.9z"/>
					<path class="st11" d="M371.2,193.7c-0.6,0-1.2,0-1.2,0c-0.8-0.1-1.3-0.4-1.5-0.9c-0.5-1,0.3-2.3,0.4-2.4
						c0.1-0.1,0.2-0.1,0.3-0.1c0.1,0.1,0.1,0.2,0.1,0.3c0,0-0.7,1.2-0.4,2c0.2,0.3,0.6,0.6,1.2,0.6c0,0,0,0,0,0c0,0,1.3,0.1,2,0
						c0.1,0,0.2,0.1,0.2,0.2c0,0.1-0.1,0.2-0.2,0.2C371.8,193.7,371.5,193.7,371.2,193.7z"/>
					<path class="st11" d="M370.1,196.3C370,196.3,370,196.3,370.1,196.3c-0.9-0.3-1.4-0.7-1.5-1.2c-0.3-1,0.5-2,0.6-2
						c0.1-0.1,0.2-0.1,0.3,0c0.1,0.1,0.1,0.2,0,0.3c0,0-0.7,0.9-0.5,1.6c0.1,0.4,0.5,0.7,1.2,0.9c0.1,0,0.2,0.2,0.1,0.3
						C370.2,196.3,370.2,196.3,370.1,196.3z"/>
					<path class="st11" d="M371.4,186.2h-0.7c-0.1,0-0.2-0.1-0.2-0.2c0-0.1,0.1-0.2,0.2-0.2h0.7c0.1,0,0.2,0.1,0.2,0.2
						C371.6,186.1,371.5,186.2,371.4,186.2z"/>
					<linearGradient id="SVGID_2_" gradientUnits="userSpaceOnUse" x1="310.9627" y1="171.9932" x2="366.007" y2="171.9932">
						<stop  offset="0" style="stop-color:#0BA1E1"/>
						<stop  offset="1" style="stop-color:#116EDB"/>
					</linearGradient>
					<path class="st12" d="M363.9,183c-29.9,1.7-39.5-29.3-39.9-30.7c-1-3.5-4.7-5.5-8.2-4.5c-3.5,1-5.6,4.7-4.5,8.2
						c4.1,14.3,19.8,40.3,50.3,40.3c1,0,2.1,0,3.2-0.1C368.1,189.4,363.9,183,363.9,183z"/>
					<path class="st13" d="M255.1,302.3l-2,2.1c0,0,10.7,13.8,26,19.7l-3.9-6.1L255.1,302.3z"/>
					<path class="st13" d="M320.2,332.3l-1,2.9c0,0,11,6.5,28.7,10.3l-4.8-5L320.2,332.3z"/>
					<path class="st3" d="M306.9,203.1c0,0,29.8,71.5,13.3,129.2c0,0,9.9,8.2,22.8,8.2c0,0,10.1-53.8,2.2-86.8
						c-7.8-32.9-10.2-48.1-10.2-48.1L306.9,203.1z"/>
					<path class="st3" d="M337.1,206.4c0,0-24.9,64.5-62,111.7c0,0-13-5.3-20.1-15.8c0,0,36.1-28.8,51.9-99.3L337.1,206.4z"/>
					<linearGradient id="SVGID_3_" gradientUnits="userSpaceOnUse" x1="304.5844" y1="181.1267" x2="340.8519" y2="181.1267">
						<stop  offset="0" style="stop-color:#0BA1E1"/>
						<stop  offset="1" style="stop-color:#116EDB"/>
					</linearGradient>
					<path class="st14" d="M316.1,144.6c1.7-0.3,3.6-0.5,5.6-0.5c14,1.8,17.9,12.4,18.9,17.1c0.2,1.5,0.2,3.4,0.2,5.5l-0.8,16.3
						c-1.2,15.5-3.4,32.4-3.4,32.4c-4.1,1.5-7.9,2.9-15.2,2.7c-7.2-0.2-12-1.7-15.2-3.3c-3.6-4.8-0.5-12.7-0.5-12.7
						c4.4-17.5,2.3-36.9,1.9-46.2C307.3,146.8,315.7,144.7,316.1,144.6z"/>
					<linearGradient id="SVGID_4_" gradientUnits="userSpaceOnUse" x1="314.4262" y1="168.3762" x2="340.8518" y2="168.3762">
						<stop  offset="0" style="stop-color:#0BA1E1"/>
						<stop  offset="1" style="stop-color:#116EDB"/>
					</linearGradient>
					<path class="st15" d="M340.7,161.9l-26.3-2.2c0,0,7.6,12.7,25.9,17.4l0.5-10.4C340.9,164.9,340.8,163.2,340.7,161.9z"/>
					<g>
						<path class="st10" d="M314,146.5c0,0,9.1,5.5,12.8,0.7c1.1-1.9,0-3.7,0-3.7l0,0l-3.8-7.3l-15-1L314,146.5L314,146.5z"/>
						<path class="st16" d="M312.8,140.7l11.6-1.8l2.1,4C320.6,145,312.8,140.7,312.8,140.7z"/>
						<path class="st10" d="M320,142.6l4.8-1.4c5-1.5,7.9-6.8,6.4-11.8l-4.4-14.8c-1.5-5-6.8-7.9-11.8-6.4l-4.8,1.4
							c-5,1.5-7.9,6.8-6.4,11.8l4.4,14.8C309.6,141.2,315,144.1,320,142.6z"/>
					</g>
					<path class="st17" d="M329.7,108.7c0.4,0.2,0.8,0.5,1,0.9c0.3,0.6-0.1,1.3-0.5,1.8c-1.2,1.5-3.1,2.4-5,2.7
						c-1.9,0.3-3.8,0.2-5.8,0.1c0.6,0.3,1.2,0.5,1.7,1c0.5,0.4,0.8,1.1,0.7,1.7c-0.1,0.5-0.5,0.9-0.8,1.2c-1.9,1.6-4.6,1.7-7.2,1.7
						c-0.2,0.4,0.5,0.8,0.6,1.3c0.1,0.5-0.6,0.9-0.9,1.3c-0.4,0.5-0.3,1.1-0.1,1.6c0.2,0.5,0.6,1,1,1.4c0.9,1.1,1.6,2.3,2.2,3.6
						c0.2,0.3,0.3,0.7,0.3,1.1c-0.1,0.8-1,1.2-1.8,1c-0.7-0.2-1.3-0.8-1.8-1.4c-0.5-0.6-0.9-1.3-1.5-1.7c-0.2-0.1-0.4-0.2-0.7-0.2
						c-0.4,0-0.7,0.4-0.8,0.8c-0.2,0.8,0.2,1.6,0.7,2.3c0.5,0.6,1.2,1.1,1.6,1.8c0.9,1.3,0.9,3.1,0.2,4.5c-0.7,1.4-2.2,2.4-3.7,2.8
						c-1.8,0.4-3.8,0.1-5.4-1c-0.5-0.4-1-0.9-1.1-1.5c0-0.3,0-0.7,0.1-1c0.4-1.6,1-3.2,0.7-4.9c-0.2-1-0.6-1.9-1-2.8
						c-1.3-3-2.3-6.1-3-9.2c-0.4-1.7-0.6-3.6,0.4-5c0.7-1,2-1.8,1.9-3c0-0.8-0.6-1.5-0.4-2.2c0.1-0.3,0.4-0.6,0.7-0.8
						c0.5-0.3,1.2-0.6,1.5-0.1c0.1,0.3,0.1,0.7,0.4,0.7c0.1,0,0.2,0,0.3-0.1c6.1-3.1,13.2-3.8,19.8-2.3
						C326,107,327.9,107.7,329.7,108.7z"/>
					
						<ellipse transform="matrix(0.8893 -0.4574 0.4574 0.8893 -25.303 156.3591)" class="st10" cx="310.3" cy="130.4" rx="3" ry="3"/>
					<linearGradient id="SVGID_5_" gradientUnits="userSpaceOnUse" x1="308.298" y1="151.9275" x2="362.4146" y2="151.9275">
						<stop  offset="0" style="stop-color:#0BA1E1"/>
						<stop  offset="1" style="stop-color:#116EDB"/>
					</linearGradient>
					<path class="st18" d="M349.9,136.2l-6.2,18c-9.6,1-21.4-4-25.5-6.2c-3.2-1.8-7.3-0.6-9,2.6c-1.8,3.2-0.6,7.3,2.6,9
						c0.7,0.4,14.7,8,29.4,8c3.1,0,6.2-0.3,9.3-1.2c2.1-0.6,3.8-2.2,4.5-4.2l7.5-21.6C355.7,135.8,349.9,136.2,349.9,136.2z"/>
				</g>
			</g>
			<g>
				<ellipse class="st6" cx="439.2" cy="422.3" rx="45.2" ry="2.8"/>
				<g>
					<path class="st10" d="M395.6,210.9c-0.7,0.8-1.6,1.5-2.7,1.7c-0.2,0-0.5,0-0.6-0.1c-0.5-0.3-0.5-1.2-1.1-1.4
						c-0.4-0.2-0.8,0-1.2,0c-0.9,0.1-1.8-0.7-1.9-1.6c0-0.2,0-0.5-0.1-0.7c-0.2-0.3-0.5-0.4-0.9-0.5c-0.3,0-0.7,0-1-0.1
						c-0.4-0.1-0.7-0.5-0.7-0.9c0-0.2,0-0.4-0.1-0.6c-0.2-0.5-0.9-0.4-1.3-0.8c-0.2-0.2-0.2-0.6-0.1-0.9s0.3-0.6,0.5-0.8
						c1.1-1.5,2.3-3.1,3.9-4.1c0.2-0.1,0.4-0.2,0.6-0.2c0.3,0,0.5,0,0.8,0.1c2.6,0.9,5.1,2.5,7,4.6c0.6,0.7,1.8,1.9,1.6,2.9
						C397.8,208.5,396.5,209.9,395.6,210.9z"/>
					<path class="st10" d="M444.1,326.2c0,0-17.1,19.9-28.7,25.7c0,0-6.2-3.1-10.9-10.9c0,0,15.3-11.5,22.5-21.2
						C427,319.7,440.1,321.5,444.1,326.2z"/>
					<path class="st10" d="M414.5,304.1c0,0-17.1,19.9-28.7,25.7c0,0-6.2-3.1-10.9-10.9c0,0,15.3-11.5,22.5-21.2
						C397.3,297.7,410.4,299.4,414.5,304.1z"/>
					<path class="st19" d="M470.4,225.4c-15.3-3.1-34.8-2.8-46.8,8.4c-7.3,6.8-12.3,15.9-16.4,24.9c-6.2,13.6-11.5,28.3-22.6,38.3
						c-1.9,1.7-4,3.4-4.7,5.8c-0.8,2.8,0.4,5.7,1.9,8.3c10.1,18.1,29.8,30.5,50.5,31.9c1.4,0.1,2.9,0.1,4.3-0.2
						c2-0.5,3.7-1.9,5.2-3.3c14.2-12.8,23-30.8,27.8-49.3c4.8-18.5,6-37.8,7.2-56.9c0.1-1.5,0.2-3.2-0.6-4.5
						C475.2,226.6,472.7,225.9,470.4,225.4z"/>
					<g>
						<path class="st7" d="M494,152.9l-4.9,0.6c-0.4,0.1-0.7-0.2-0.8-0.6l-2.3-17.6c-0.1-0.4,0.2-0.7,0.6-0.8l4.9-0.6
							c0.4-0.1,0.7,0.2,0.8,0.6l2.3,17.6C494.7,152.5,494.4,152.9,494,152.9z"/>
						<path class="st8" d="M494.6,152.1l-2.3-17.6c-0.1-0.4-0.4-0.7-0.8-0.6l-0.1,0l2.5,19l0.1,0
							C494.4,152.9,494.7,152.5,494.6,152.1z"/>
						<path class="st9" d="M492.7,151.4l-3.6,0.5c-0.3,0-0.6-0.2-0.6-0.5l-1.9-14.8c0-0.3,0.2-0.6,0.5-0.6l3.6-0.5
							c0.3,0,0.6,0.2,0.6,0.5l1.9,14.8C493.3,151.1,493,151.4,492.7,151.4z"/>
					</g>
					<path class="st10" d="M489.2,153.1c0.4-0.5,1-1,1.1-1.7c0.1-0.9-0.6-1.7-0.6-2.6c0-0.9,0.8-1.7,1.7-1.6
						c0.7,0.1,1.3,0.6,1.8,1.2c0.1,0.1,0.2,0.2,0.4,0.2c0.3,0,0.3-0.4,0.3-0.7c-0.2-1.7-0.6-3.4-1-5c-0.1-0.5-0.3-1-0.2-1.5
						c0.1-0.5,0.4-1,0.8-1.1c0.6-0.2,1.2,0.3,1.6,0.8c2.9,3.1,4.9,7.1,5.6,11.3c0.1,0.6,0.2,1.3,0.2,1.9c0,0.7-0.1,1.4-0.2,2
						c-0.1,0.4-0.1,0.8-0.3,1.1c-0.3,0.7-1,1.1-1.7,1.3c-2.6,1-5.6,0.7-8.2-0.2c-1.1-0.4-2-1-2.2-2.3
						C488.1,155.1,488.5,154,489.2,153.1z"/>
					<path class="st20" d="M449.7,171.5c-0.5-3.6-3.8-6.2-7.4-5.8c-1.2,0.1-28.7,3.9-55.2,34.9c2.5,7.9,10.1,8.6,10.1,8.6
						c22.8-26.7,46.4-30.3,46.8-30.3C447.6,178.4,450.1,175.1,449.7,171.5z"/>
					<path class="st20" d="M500.6,151.8c-7,0-12,5.7-12,5.7c1.2,2.5,2.2,7.4,2.9,12.1c-7.5-0.8-17.6-2-22.1-2.6
						c-3.6-0.5-7,2.1-7.5,5.7c-0.5,3.6,2.1,7,5.7,7.5c1,0.1,24,3.2,31.3,3.4c0.1,0,0.1,0,0.2,0c1.8,0,3.6-0.8,4.8-2.1
						c1.3-1.4,1.9-3.3,1.8-5.2C505.6,174.4,504.1,159.1,500.6,151.8z"/>
					<linearGradient id="SVGID_6_" gradientUnits="userSpaceOnUse" x1="477.3749" y1="138.2993" x2="384.5366" y2="149.7096">
						<stop  offset="0" style="stop-color:#0BA1E1"/>
						<stop  offset="1" style="stop-color:#116EDB"/>
					</linearGradient>
					<path class="st21" d="M450.4,129.2c-3.5,1.1-6.8,2.7-10.2,3.8c-7.1,2.1-15,1.6-21.7-1.4c-3.4-1.5-6.4-3.5-9.7-5.1
						c-3.3-1.6-7-2.7-10.6-2c-4.6,0.8-8.5,4.6-9.4,9.2c-0.2,1.1-0.3,2.4,0.1,3.5c0.4,1.2,1.4,2,2.3,2.9c3.8,3.6,7.9,7.1,10.5,11.6
						c2.6,4.5,3.7,10,7.4,13.7c3.5,3.4,9,4.7,13.6,3c1.9-0.7,3.5-1.8,5.3-2.7c9.7-5,21.2-4.1,32.2-4.8c5.2-0.3,11.2-1.5,13.6-6.1
						c0.9-1.7,1.2-3.6,1.4-5.4c0.4-3.1,0.6-6.2,0.1-9.3s-1.9-6.1-4.3-8.1C465.8,127.7,456.5,127.3,450.4,129.2z"/>
					<path class="st20" d="M480.7,180.9c0,1.6-0.4,3.2-1,5.1c-2.4,7.1-4,14.6-4.3,22.1c-0.2,5.5,0.4,10.9,1.7,16.3
						c0.8,3.3,1.5,6.3-1.3,8.8c-5.6,5-17.6,5.1-24.5,4.6c-4.4-0.3-19.1-2.1-20.3-8.5c-0.4-2.1,2.3-6.4,2.9-8.5
						c0.8-2.9,1.4-5.8,1.8-8.8c0.7-5.7,0.6-11.6-0.4-17.3c-1.4-8-5.2-15.6-0.3-23c4.9-7.5,14.5-8.8,22.7-7.9c8.3,0.8,18.3,3.7,22,12
						C480.4,177.7,480.7,179.3,480.7,180.9z"/>
					<path class="st10" d="M450.9,166.4c0,0-8.3,0-6.5,9.2c1.8,9.2,14.1,6.9,14.1,6.9s10-0.1,9.5-10.2c0,0,0-6.4-11.9-5.9H450.9z"/>
					<g>
						<path class="st10" d="M461.4,159.4l0.6,8.5c0,0,0.2,4.1-6.1,4.3c-6.3,0.2-7-5.5-7-5.5l-1-14.2L461.4,159.4z"/>
						<path class="st22" d="M450.2,159.6l11.4,2.9l0.3,4.5C455.7,166.7,450.2,159.6,450.2,159.6z"/>
						<path class="st10" d="M458.3,164.9l5.1-0.4c5.2-0.4,9.2-5,8.8-10.2l-1.1-15.4c-0.4-5.2-5-9.2-10.2-8.8l-5.1,0.4
							c-5.2,0.4-9.2,5-8.8,10.2l1.1,15.4C448.5,161.3,453.1,165.2,458.3,164.9z"/>
						
							<ellipse transform="matrix(0.9974 -7.239079e-02 7.239079e-02 0.9974 -9.7537 32.823)" class="st10" cx="447.9" cy="151" rx="3" ry="3"/>
					</g>
					<linearGradient id="SVGID_7_" gradientUnits="userSpaceOnUse" x1="477.0309" y1="135.5004" x2="384.1926" y2="146.9107">
						<stop  offset="0" style="stop-color:#0BA1E1"/>
						<stop  offset="1" style="stop-color:#116EDB"/>
					</linearGradient>
					<path class="st23" d="M470.8,134.5c0,0-8.8,13.8-24.1,13.6c0,0-4.2-18.1,10.6-19.3C457.3,128.8,464.2,127.9,470.8,134.5z"/>
					<path class="st24" d="M428.3,337.2c-0.3,0-0.5-0.1-0.7-0.4c-0.2-0.4-0.1-0.9,0.3-1.1c35.5-20.8,37.5-95.3,37.5-96
						c0-0.4,0.4-0.8,0.8-0.8c0.4,0,0.8,0.4,0.8,0.8c0,0.8-2,76.1-38.3,97.4C428.6,337.2,428.5,337.2,428.3,337.2z"/>
					<path class="st24" d="M412.8,327c-0.3,0-0.6-0.2-0.7-0.5c-0.2-0.4,0-0.9,0.4-1c41.2-17.5,46.4-83.7,46.4-84.4
						c0-0.4,0.4-0.8,0.8-0.7c0.4,0,0.8,0.4,0.7,0.8c0,0.7-5.3,67.8-47.4,85.7C413,326.9,412.9,327,412.8,327z"/>
					<path class="st24" d="M403.1,318.4c-0.3,0-0.5-0.1-0.7-0.4c-0.2-0.4-0.1-0.8,0.2-1.1c33.7-21.8,47.3-75.5,47.5-76
						c0.1-0.4,0.5-0.7,0.9-0.6c0.4,0.1,0.7,0.5,0.6,0.9c-0.1,0.5-13.9,54.9-48.1,77C403.4,318.4,403.2,318.4,403.1,318.4z"/>
					<path class="st24" d="M391.2,309.3c-0.3,0-0.6-0.2-0.7-0.4c-0.2-0.4,0-0.9,0.3-1.1c29.5-15,52.4-67.9,52.6-68.4
						c0.2-0.4,0.6-0.6,1-0.4c0.4,0.2,0.6,0.6,0.4,1c-0.2,0.5-23.3,53.9-53.3,69.2C391.4,309.3,391.3,309.3,391.2,309.3z"/>
					<path class="st24" d="M387,303.9c-0.3,0-0.5-0.1-0.7-0.4c-0.2-0.4-0.1-0.8,0.2-1.1c12.3-8,18-23.2,18-23.4
						c14.2-29.1,30.9-41.6,31.1-41.7c0.3-0.3,0.8-0.2,1.1,0.2c0.3,0.3,0.2,0.8-0.2,1.1c-0.2,0.1-16.6,12.5-30.6,41.1
						c-0.2,0.6-5.9,15.8-18.6,24.1C387.3,303.9,387.2,303.9,387,303.9z"/>
					<path class="st13" d="M374.8,318.9l-2.2,1.7c0,0,13.4,17.1,16.7,14.4c0,0,2.2-1-1.9-6.2c0,0-1.3,1.5-3.7-1.2
						C380.7,324.2,374.8,318.9,374.8,318.9z"/>
					<path class="st13" d="M404.8,340.7l-2.2,1.7c0,0,13.4,17.1,16.7,14.4c0,0,2.3-0.9-1.8-6.1c0,0-1.6,1.1-3.7-1.3
						C410.6,346.1,404.8,340.7,404.8,340.7z"/>
				</g>
			</g>
			<g>
				<ellipse class="st6" cx="652.9" cy="422.3" rx="45.2" ry="2.8"/>
				<g>
					<path class="st3" d="M628.4,228.5c-1.2-3.5-5-5.3-8.5-4l-23.1,8.2l-1.7-22.8c-5.9-2.9-13.3,1-13.3,1l2.4,31.5
						c0.2,2.1,1.3,3.9,3,5.1c1.1,0.7,2.4,1.1,3.6,1.1c0.7,0,1.5-0.1,2.2-0.4l31.3-11.1C627.9,235.8,629.7,232,628.4,228.5z"/>
					<path class="st3" d="M628.4,228.5c-1.2-3.5-5-5.3-8.5-4l-18.6,6.6c0.7,3,1.6,8.4,0.8,13.8l22.3-7.9
						C627.9,235.8,629.7,232,628.4,228.5z"/>
					<g>
						<path class="st25" d="M597.3,196.6l2.3,0.4c0,0,2.4,3.4-1,6.4l-2.3-0.4L597.3,196.6z"/>
						<path class="st25" d="M593.7,205.1l-6.2,7.8c0,0-3.2,1.2-3.7-0.8l5.9-8.3C589.8,203.8,593.4,203.6,593.7,205.1z"/>
						<path class="st26" d="M567.8,184.7c0,0,21.5,11,29.9,10.3c0,0,3.3,5.4-1.6,10.5c0,0-20.5-3.7-31.6,0.8L567.8,184.7z"/>
						
							<ellipse transform="matrix(0.1522 -0.9884 0.9884 0.1522 286.8177 725.288)" class="st25" cx="566.2" cy="195.5" rx="10.9" ry="3.7"/>
						<path class="st27" d="M570.1,193.7l-4.1,0.4l-0.4,2.8l3.9,1.4c0.2-0.7,0.3-1.5,0.5-2.3C570,195.2,570,194.5,570.1,193.7z"/>
						
							<ellipse transform="matrix(0.1522 -0.9884 0.9884 0.1522 286.409 724.9182)" class="st26" cx="565.7" cy="195.5" rx="1.4" ry="0.4"/>
						<path class="st28" d="M573.4,187.4c-0.7-0.3-1.4-0.6-2-0.9c0.7,2.8,1.8,9.8-2.9,18.6c0.7-0.2,1.4-0.3,2.2-0.4
							C572.3,201.3,575,194.3,573.4,187.4z"/>
					</g>
					<path class="st29" d="M588.7,205.3c-2.2-0.4-2.2,0.6-2.2,0.6c-5.4-0.8-4.5,5.3-4.5,5.3l2.4,0.2l0,0c0.1-0.1,1.4-1.9,1.3-1.9
						c0,0,1.9,1.9,2.9,0c0,0,0.3-1-0.2-1.7c0,0,1,0.8,2.5,0.8l-2.5,3.2l6.7,0.6C597,206.2,588.7,205.3,588.7,205.3z"/>
					<path class="st30" d="M590.8,211.4C590.8,211.4,590.8,211.4,590.8,211.4c-0.3,0-0.5-0.1-0.7-0.4c-0.1-0.1-0.1-0.3-0.1-0.4
						c-0.1-0.7,0.1-1.4,0.5-1.9l-0.6-0.1c-0.8-0.2-1.5-0.4-1.9-1.1c-0.2-0.4-0.1-1,0.1-1.3c0.3-0.3,0.7-0.6,1.3-0.7
						c0,0,0.9-0.4,3.4,1c0.1,0.1,0.1,0.2,0.1,0.3c-0.1,0.1-0.2,0.1-0.3,0.1c-2.3-1.2-3-0.9-3-0.9c-0.5,0.1-0.8,0.3-1,0.5
						c-0.2,0.3-0.2,0.6-0.1,0.9c0.2,0.5,0.9,0.7,1.6,0.9l0.9,0.2c0.1,0,0.1,0.1,0.2,0.1c0,0.1,0,0.2,0,0.2c-0.5,0.5-0.7,1.2-0.6,1.9
						c0,0.1,0,0.2,0.1,0.2c0.1,0.1,0.2,0.1,0.3,0.2c0.1,0,0.2,0.1,0.2,0.3C591,211.4,590.9,211.4,590.8,211.4z"/>
					<path class="st30" d="M587.5,210.5c-0.8,0-1.7-0.7-2.5-1.4c-0.1-0.1-0.1-0.2,0-0.3c0.1-0.1,0.2-0.1,0.3,0
						c0.8,0.7,1.7,1.4,2.4,1.3c0.3-0.1,0.6-0.3,0.8-0.7c0.8-1.4-2.1-3.2-2.1-3.3c-0.1-0.1-0.1-0.2-0.1-0.3c0.1-0.1,0.2-0.1,0.3-0.1
						c0.1,0.1,3.3,2.1,2.3,3.9c-0.3,0.5-0.7,0.8-1.1,0.9C587.7,210.5,587.6,210.5,587.5,210.5z"/>
					<path class="st29" d="M696.6,265.2c0.2,0.8,0.5,1.6,0.3,2.4c-0.2,0.8-0.8,1.5-1.6,1.5c-0.4,0-0.8-0.3-1.2-0.1
						c-0.5,0.2-0.6,0.8-0.9,1.3c-0.5,0.8-1.7,1-2.6,0.6c-0.3-0.1-0.6-0.3-0.9-0.3c-0.7,0.1-0.8,1.3-1.5,1.4c-0.5,0.1-1-0.6-1.5-0.5
						c-0.3,0-0.5,0.3-0.8,0.4c-0.5,0.2-1-0.1-1.3-0.5c-0.3-0.4-0.5-0.9-0.6-1.3c-0.2-0.7-0.5-1.5-0.7-2.2c-0.1-0.4-0.3-0.9-0.2-1.3
						c0.1-1,0.9-1.7,1.7-2.3c1.5-1.1,3.2-2.1,5-2.6c1.5-0.4,3.2-0.5,4.7,0.1C695.8,262.1,696.3,264,696.6,265.2z"/>
					<path class="st31" d="M647.7,419.9v2.1c0,0-16.8,1.5-24.5,0l4.2-1.2L647.7,419.9z"/>
					<path class="st31" d="M676.8,419.5v2.3c0,0-11.9,1.9-27.2,0.3l4.6-2.6H676.8z"/>
					<linearGradient id="SVGID_8_" gradientUnits="userSpaceOnUse" x1="615.113" y1="355.3036" x2="676.7852" y2="355.3036">
						<stop  offset="0" style="stop-color:#0BA1E1"/>
						<stop  offset="1" style="stop-color:#116EDB"/>
					</linearGradient>
					<path class="st32" d="M654.2,289.7l22.6,129.8c0,0-13.6,3.1-22.6,0l-19.9-108.1l13.4,108.6c0,0-13.6,1.2-20.3,0.9l-12.3-130.1
						L654.2,289.7z"/>
					<path class="st3" d="M609.9,238.5c-0.2,1.9-0.2,3.9,0,6c0.7,11.3,1.5,22.6,2.2,33.9c0.3,3.9-0.1,10,1.8,13.6
						c1.3,2.4,4.8,3.8,7.2,4.6c6.3,2.1,13.3,2,19.8,1.5c3.1-0.2,6.1-0.4,9.2-1c2.3-0.4,7.2-0.5,8.3-3c0.2-0.6,0.3-1.2,0.2-1.9
						c-0.1-4-2-6.8-3.3-10.4c-1.4-3.9-2.4-7.9-2.9-12c-0.7-6.9,0.3-13.6,0.6-20.5c0.3-6,1.7-12.3-0.7-18.1c-1.4-3.3-3.9-6.1-6.8-8.2
						c-4.6-3.2-8.7-3.7-13.8-2.2c-5.6,1.6-10.9,2.1-15.7,5.9C612,229.8,610.4,233.9,609.9,238.5z"/>
					<path class="st3" d="M653.1,233.2c-2.6-0.2-4.9,0.2-5.4,1.9c0,0,3.6,3.6,5.8,9.1C653.8,240.5,654.1,236.8,653.1,233.2z"/>
					<path class="st3" d="M696.2,263.9c-7.1-31.2-36.5-40.9-51-41.7c-3.7-0.2-6.8,2.6-7,6.3c-0.2,3.7,2.6,6.8,6.3,7
						c0.3,0,32.1,2,38.7,31.3C683.2,266.8,690,268.3,696.2,263.9z"/>
					<path class="st20" d="M625.5,223.3c0,0-4.1,3.8-0.7,19c0,0,11.1-7.2,15.7-18.5c0,0,0.3-4.5-7.4-3
						C625.5,222.3,625.5,223.3,625.5,223.3z"/>
					<g>
						<path class="st29" d="M625.6,215.2l-0.1,9c0,0,0,4.3,6.6,4.1c6.6-0.2,6.9-6.2,6.9-6.2l0.1-14.9L625.6,215.2z"/>
						<path class="st33" d="M637.3,214.7l-11.7,3.8l0,4.8C632,222.5,637.3,214.7,637.3,214.7z"/>
						<path class="st29" d="M629.6,220.7l-6.3-0.1c-5.2,0-9.5-4.4-9.4-9.6l0.2-17.2c0-5.2,4.4-9.5,9.6-9.4l6.3,0.1
							c5.2,0,9.5,4.4,9.4,9.6l-0.2,17.2C639.1,216.5,634.8,220.8,629.6,220.7z"/>
					</g>
					<path class="st31" d="M637.2,201.9c-1.7-0.5-3-2.6-2.1-4.2c-1.2,1-3.1,1.1-4.4,0.2c-1.3-0.9-1.9-2.7-1.4-4.2
						c-2.2,1.1-5.1,2-6.7,0.2c-0.1,1.2-1.6,1.9-2.8,1.5c-1.1-0.4-1.8-1.6-2-2.8c-1,1.1-2.4,2.1-3.8,1.8c-1.2-0.3-1.9-1.6-1.9-2.8
						c0-1.2,0.5-2.4,1.2-3.4c3.8-6,11.8-9,18.6-7c5.1,1.5,9.2,5.8,10.8,10.8C644.2,196.4,643.9,204,637.2,201.9z"/>
					<path class="st31" d="M613.3,209.5c0,0,8.7-4.2,15.9,0.5c0,0,6.1,1.2,7.2-10.1h3.9c0,0,3.5,25.2-15.7,21.6
						C624.6,221.5,610.6,221.3,613.3,209.5z"/>
					
						<ellipse transform="matrix(8.903014e-03 -1 1 8.903014e-03 429.2421 842.5338)" class="st29" cx="639.7" cy="204.7" rx="3.1" ry="3.1"/>
				</g>
			</g>
			<g>
				<g>
					<path class="st13" d="M238.5,350.8l0.6,5.7c0,0,20.3,3.8,34.2-3.8l-7.3-2H238.5z"/>
					<path class="st13" d="M128.1,344.3l-3.5,3.1c0,0,6.9,11.7,26.2,14.6l-2.8-6.4L128.1,344.3z"/>
					<g>
						<g>
							<path class="st7" d="M223.9,230.9l-2.4-4.2c-0.2-0.3-0.1-0.7,0.3-0.9l14.9-8.5c0.3-0.2,0.7-0.1,0.9,0.3l2.4,4.2
								c0.2,0.3,0.1,0.7-0.3,0.9l-14.9,8.5C224.5,231.3,224.1,231.2,223.9,230.9z"/>
							<path class="st8" d="M224.9,231.1l14.8-8.4c0.3-0.2,0.5-0.6,0.3-1l0-0.1l-16.1,9.1l0,0.1
								C224.1,231.2,224.5,231.3,224.9,231.1z"/>
							<path class="st9" d="M224.8,229.2l-1.7-3c-0.1-0.3-0.1-0.6,0.2-0.7l12.5-7.1c0.3-0.1,0.6-0.1,0.7,0.2l1.7,3
								c0.1,0.3,0.1,0.6-0.2,0.7l-12.5,7.1C225.3,229.6,224.9,229.5,224.8,229.2z"/>
						</g>
						<path class="st34" d="M224.7,222.8c1-0.5,2.1-0.9,3.2-0.6c1,0.3,1.8,1.6,1.3,2.6c-0.2,0.3-0.6,0.6-0.6,1
							c-0.1,0.7,0.8,1.1,1.5,1c1.2-0.1,2.2-0.9,3.3-1.5c1.1-0.6,2.5-0.8,3.5,0c0.9,0.8,0.8,2.5,0,3.3c-0.6,0.7-2,1.1-2.2,2.2
							c-0.1,0.6,0.4,1.1,0.5,1.7c0.1,0.6-0.2,1.2-0.7,1.5c-0.2,0.1-0.4,0.2-0.5,0.4c-0.4,0.4-0.3,1.1-0.3,1.7
							c-0.1,2.3-3.2,2.7-4.9,3.2c-2.3,0.6-4.9,0.9-7.2,0c-2.3-0.9-4-3-4.5-5.4C215.9,229,220.7,224.8,224.7,222.8z"/>
						<linearGradient id="SVGID_9_" gradientUnits="userSpaceOnUse" x1="128.1457" y1="303.2892" x2="195.8689" y2="303.2892">
							<stop  offset="0" style="stop-color:#0BA1E1"/>
							<stop  offset="1" style="stop-color:#116EDB"/>
						</linearGradient>
						<path class="st35" d="M167.9,255.3c0,0-8.8,67.4-39.7,89c0,0,7.2,10.7,19.9,11.3c0,0,33.7-32.7,47.9-97.7
							C195.9,257.9,176.7,244.3,167.9,255.3z"/>
						<linearGradient id="SVGID_10_" gradientUnits="userSpaceOnUse" x1="170.6923" y1="299.9581" x2="265.9884" y2="299.9581">
							<stop  offset="0" style="stop-color:#0BA1E1"/>
							<stop  offset="1" style="stop-color:#116EDB"/>
						</linearGradient>
						<path class="st36" d="M170.8,252.4c0,0-2.6,15.7,15.6,22.4c18.2,6.8,39.6,22.7,52.1,76c0,0,16.5,5.5,27.5,0
							c0,0-13.7-67.5-61.8-95.3C204.2,255.6,181.7,237.7,170.8,252.4z"/>
						<g>
							<path class="st10" d="M262.4,181c-0.6-0.6-1.6-0.7-2.2-0.2c0.5-0.5,1-1.1,1.5-1.6c0.2-0.3,0.5-0.6,0.5-0.9
								c0-0.2-0.1-0.4-0.3-0.6c-0.5-0.6-1.4-0.9-2.2-0.8c-0.8,0.1-1.6,0.4-2.3,0.8c0.6-0.6,1.2-1.3,1.6-2c0.2-0.4,0.3-0.8,0.3-1.2
								c-0.1-0.5-0.6-0.9-1.1-1c-0.5-0.1-1,0-1.5,0.1c-1.7,0.4-3.1,1.5-4.2,2.8c-0.1-0.1-0.1-0.1-0.1-0.2c-0.4-0.3-1-0.3-1.5-0.2
								c-0.4,0.1-0.9,0.2-1.2,0.5c-0.6,0.4-0.9,0.9-1.3,1.5c-0.9,1.5-1.5,3.1-2.1,4.8c-0.5,1.5-0.2,2.9,0.3,4.3
								c0.2,0.6,0.4,1.2,0.8,1.6c0.3,0.4,0.8,0.7,1.2,1c1.4,0.9,2.8,1.8,4.4,2.2c1.6,0.5,3.4,0.5,4.9-0.1c0.3-0.1,0.5-0.2,0.7-0.4
								c0.2-0.2,0.4-0.6,0.5-0.9c0.4-1.2,0.5-2.6,0.3-3.8c0.7-1,1.6-1.9,2.5-2.7c0.3-0.2,0.5-0.4,0.8-0.7
								C263,182.6,263,181.6,262.4,181z"/>
							<linearGradient id="SVGID_11_" gradientUnits="userSpaceOnUse" x1="215.2782" y1="195.2136" x2="184.9372" y2="162.5387">
								<stop  offset="0" style="stop-color:#0BA1E1"/>
								<stop  offset="1" style="stop-color:#116EDB"/>
							</linearGradient>
							<path class="st37" d="M225,161.2c-1.3-2.6-3.8-4.5-6.5-5.7c-2.7-1.2-5.6-1.7-8.5-2.1c-3.6-0.5-7.4-1-10.9,0.3
								c-4,1.5-6.8,5.1-8.5,9s-2.3,8.2-3.2,12.3c-0.9,4.2-2,8.4-4.5,11.8c-1.2,1.7-2.8,3.2-4,4.9c-1.2,1.7-2.2,3.8-1.9,5.9
								c0.3,2.2,1.8,4,3.7,5.1c1.9,1.1,4.1,1.5,6.2,1.6c2.6,0.2,5.3,0,7.8-0.6c2.3-0.5,4.6-1.3,6.2-3c0.4-0.5,0.8-1,1.4-1.3
								c0.5-0.2,1.1-0.2,1.7-0.2c3,0.2,5.8,1.4,8.8,1.7c3,0.3,6.4-0.7,7.6-3.5c1-2.3-0.1-5-1.4-7.1c-1.4-2.3-5.2-6.4-2.7-9.1
								c0.7-0.8,1.7-1.2,2.6-1.8c2.9-1.7,5-4.5,6.1-7.6C226.2,168.6,226.5,164.3,225,161.2z"/>
							<path class="st20" d="M212.3,198c-4.2-0.7-8.2,2.2-9,6.4c-0.7,4.2,2.2,8.3,6.4,9c0.5,0.1,4.9,0.8,11.2,0.3
								c10.8-0.8,27.2-5.1,37.9-22.3c-6.6-5.1-13.2-8.3-13.2-8.3C234.3,201.2,213.3,198.2,212.3,198z"/>
							<path class="st38" d="M230.8,212.1c-7.4-3.5-11.3-10.5-12.8-13.8c-3.1,0.1-5.3-0.2-5.6-0.3c-1.9-0.3-3.6,0.1-5.1,1
								c-0.2,0.3-0.4,0.5-0.6,0.9c-2,2.7,0.1,6.9,0.1,6.9l4.3,6.8c1.8,0.2,5.4,0.5,10,0.1C223.9,213.5,227.2,213,230.8,212.1z"/>
							<path class="st20" d="M211.2,240.3c3.6,0.2,7.4,0.2,11.5-0.2c0.2-10.1-1.4-15.5-1.4-15.5c-2.2,0.2-4.6,0.3-7,0.3
								c0.3-1.2,0.6-2.4,0.9-3.6c0.5-1.9,0.9-3.8,1.2-5.7c0.3-1.6,0.5-3.1,0.5-4.7c0.1-1.7-0.1-3.4-0.5-5.2
								c-0.6-2.3-1.4-4.5-2.7-6.5c-2.9-4.4-8.2-6.1-13.1-7.3c-2.8-0.7-5.5-1-8.3-0.9c-5.6,0.3-13.4,5.1-14.4,11
								c-0.4,1-0.7,2-0.9,3.1c-0.2,1.6-0.2,3.2-0.2,4.9c-0.1,11.3-1.7,22.5-6.3,32.9c-0.9,2.1-2.6,3.7-3.4,5.8
								c-1.1,2.7-2.1,5.5-2.2,8.4c0,0.5,0,1.1,0.3,1.5c0.5,0.7,1.4,0.7,2.3,0.6c2.7-0.1,5.5,0,8.2,0.3c1.4,0.1,2.8,0.3,4.2,0.6
								c4.6,0.9,8.9,2.8,13.6,3.1c3.9,0.2,7.9-0.7,11.8-0.5c1.1,0.1,2.2,0.2,3.2-0.4c0.6-0.3,1-0.9,1.3-1.5c1.6-2.8,1.6-5.9,1.3-9
								C210.7,248,210.8,244.1,211.2,240.3z"/>
							<path class="st39" d="M197.8,237.7c-13.6-4.1-18.1-15.9-19.4-20.5c0.2,1.7,3.5,23.3,32.5,26.6c0.1-1.2,0.1-2.4,0.3-3.5
								C203.7,239.6,197.8,237.7,197.8,237.7z"/>
							<linearGradient id="SVGID_12_" gradientUnits="userSpaceOnUse" x1="177.0569" y1="221.0783" x2="222.9488" y2="221.0783">
								<stop  offset="0" style="stop-color:#0BA1E1"/>
								<stop  offset="1" style="stop-color:#116EDB"/>
							</linearGradient>
							<path class="st40" d="M207.3,240.2c-9.9-1.3-17.5-4.9-22.8-11c-10.1-11.7-7.1-25.9-6.8-27.5c0-0.1,0.2-0.2,0.3-0.2
								c0.1,0,0.2,0.2,0.2,0.3c-0.4,1.6-3.3,15.5,6.6,27c7.6,8.8,20.2,12.5,37.5,11c0.2-8.7-1-14-1.3-15c-8.4,0.7-19.4,0.3-24.7-5.8
								c-5.1-5.8-3.2-14.8-3.2-15.2c0-0.1,0.2-0.2,0.3-0.2c0,0,0,0,0,0c0.1,0,0.2,0.2,0.2,0.3c-0.1,0.4-1.8,9.2,3,14.7
								c5.2,5.9,16.2,6.3,24.5,5.6c0.1,0,0.2,0.1,0.3,0.2c0,0.1,1.6,5.6,1.4,15.6c0,0.1-0.1,0.2-0.2,0.3
								C217.1,240.8,211.9,240.8,207.3,240.2z"/>
							<g>
								<path class="st10" d="M207.5,187.6l-1.4,8.1c0,0-0.7,3.9-6.6,2.6c-5.9-1.2-5.2-6.7-5.2-6.7l2.3-13.5L207.5,187.6z"/>
								<path class="st16" d="M197.1,185.3l9.9,5.3l-0.7,4.3C200.5,193.1,197.1,185.3,197.1,185.3z"/>
								<path class="st10" d="M203.5,192l4.8,0.8c5,0.8,9.7-2.5,10.6-7.5l2.5-14.6c0.8-5-2.5-9.7-7.5-10.6l-4.8-0.8
									c-5-0.8-9.7,2.5-10.6,7.5l-2.5,14.6C195.2,186.4,198.5,191.1,203.5,192z"/>
							</g>
							<linearGradient id="SVGID_13_" gradientUnits="userSpaceOnUse" x1="221.2771" y1="189.6432" x2="190.9361" y2="156.9683">
								<stop  offset="0" style="stop-color:#0BA1E1"/>
								<stop  offset="1" style="stop-color:#116EDB"/>
							</linearGradient>
							<path class="st41" d="M219.2,165.8c0,0-2.6,16.3-14.3,16.9c0,0-7.1-1.1-10.1,4l3.4-21.7c0,0,0.9-7,8.9-6.5
								s15.2,1.7,14.8,11.2c0,0-0.3,2.1-1,3.4C220.9,173.1,221.1,168.4,219.2,165.8z"/>
							<path class="st11" d="M256.1,187.4c-0.1,0-0.2-0.1-0.2-0.2c0-2-1.7-3.9-3.7-4.3c-0.1,0-0.1-0.1-0.2-0.1c0-0.1,0-0.1,0-0.2
								c0.8-1.9,0.8-4.1,0-6c0-0.1,0-0.2,0.1-0.3c0.1,0,0.2,0,0.3,0.1c0.8,1.9,0.8,4.1,0.1,6.1c2.1,0.5,3.7,2.5,3.8,4.7
								C256.4,187.3,256.3,187.4,256.1,187.4C256.1,187.4,256.1,187.4,256.1,187.4z"/>
						</g>
					</g>
				</g>
				<path class="st42" d="M149.8,317.1l-0.1-0.1c-5.5,11.1-12.6,21.1-21.5,27.3l-3.5,3.1c0,0,6.9,11.7,26.2,14.6l-2.8-6.4
					c0,0,8.8-8.6,19.3-25.6C150.9,333.2,149.8,317.1,149.8,317.1z"/>
			</g>
		</g>
		<g>
			<g>
				<path class="st43" d="M244.8,256.2c0,7.8,6.3,14.1,14.1,14.1s14.1-6.3,14.1-14.1c0-7.8-6.3-14.1-14.1-14.1c-1.8,0-3.5,0.4-5.1,1
					l-7.3-5c-0.3-0.2-0.7,0.1-0.6,0.4l1.8,9.3C245.8,250.2,244.8,253.1,244.8,256.2z"/>
				<linearGradient id="SVGID_14_" gradientUnits="userSpaceOnUse" x1="251.1743" y1="257.0577" x2="267.3394" y2="257.0577">
					<stop  offset="0" style="stop-color:#0BA1E1"/>
					<stop  offset="1" style="stop-color:#116EDB"/>
				</linearGradient>
				<path class="st44" d="M266.2,252.9c-0.9-1-2.3-1.4-3.7-1.2c-1.3,0.2-2.4,1-3.2,2.1c-0.5-1.2-1.5-2.2-2.8-2.6
					c-1.3-0.4-2.7-0.2-3.8,0.6c-1.5,1.1-2,3.3-1.4,5.1c0.5,1.8,1.9,3.3,3.5,4.3c1.3,0.9,2.3,1.5,3.8,1.9l0,0c0,0,0,0,0,0
					c0,0,0,0,0,0l0,0c1.6-0.1,2.6-0.6,4-1.3c1.7-0.8,3.3-2,4.1-3.7S267.5,254.2,266.2,252.9z"/>
			</g>
			<g>
				<path class="st43" d="M484.9,103.7c0-7.8-6.3-14.1-14.1-14.1s-14.1,6.3-14.1,14.1c0,7.8,6.3,14.1,14.1,14.1c1.8,0,3.5-0.4,5.1-1
					l7.3,5c0.3,0.2,0.7-0.1,0.6-0.4l-1.8-9.3C483.8,109.7,484.9,106.8,484.9,103.7z"/>
				<linearGradient id="SVGID_15_" gradientUnits="userSpaceOnUse" x1="462.321" y1="103.5818" x2="478.3991" y2="103.5818">
					<stop  offset="0" style="stop-color:#0BA1E1"/>
					<stop  offset="1" style="stop-color:#116EDB"/>
				</linearGradient>
				<path class="st45" d="M476.3,97.9c-1.1-0.7-2.6-0.7-3.8-0.1c-1.2,0.6-2.1,1.6-2.5,2.9c-0.8-1-2.1-1.7-3.4-1.7
					c-1.3-0.1-2.7,0.5-3.5,1.6c-1.1,1.5-1,3.7,0,5.3c1,1.6,2.7,2.6,4.5,3.2c1.5,0.5,2.6,0.8,4.2,0.8l0,0c0,0,0,0,0,0c0,0,0,0,0,0
					l0,0c1.5-0.6,2.4-1.3,3.5-2.3c1.4-1.2,2.6-2.8,2.9-4.7C478.6,100.9,477.9,98.8,476.3,97.9z"/>
			</g>
			<g>
				<path class="st43" d="M259.3,142.1c0-7.8,6.3-14.1,14.1-14.1c7.8,0,14.1,6.3,14.1,14.1c0,7.8-6.3,14.1-14.1,14.1
					c-1.8,0-3.5-0.4-5.1-1l-7.3,5c-0.3,0.2-0.7-0.1-0.6-0.4l1.8-9.3C260.3,148.1,259.3,145.2,259.3,142.1z"/>
				<g>
					<linearGradient id="SVGID_16_" gradientUnits="userSpaceOnUse" x1="270.1831" y1="140.4297" x2="279.765" y2="140.4297">
						<stop  offset="0" style="stop-color:#0BA1E1"/>
						<stop  offset="1" style="stop-color:#116EDB"/>
					</linearGradient>
					<path class="st46" d="M273.2,137.9c0,0,0-0.1,0.1-0.1c0.3-0.6,0.4-1.2,0.4-1.8c0-0.5-0.1-1.2,0.4-1.5c0.4-0.2,0.9,0,1.2,0.4
						c0.2,0.4,0.3,0.8,0.3,1.3c0,0.8,0,1.6,0,2.3c0.8,0,1.5,0.1,2.3,0.1c0.4,0,0.9,0,1.3,0.2c0.4,0.2,0.7,0.6,0.6,1.1
						c-0.1,0.6-0.9,0.8-1.5,0.9c0.7,0,1.4,0.6,1.4,1.3c0,0.7-0.7,1.4-1.4,1.3c0.5,0,0.9,0.5,0.9,0.9c0,0.5-0.3,0.9-0.7,1.2
						c-0.4,0.3-0.9,0.4-1.3,0.5c-1.8,0.4-3.6,0.6-5.4,0.6c-0.3,0-0.6,0-0.8-0.2c-0.3-0.1-0.4-0.4-0.6-0.7c-0.4-0.8-0.3-1.7-0.2-2.6
						c0.1-0.7,0.2-1.5,0.4-2.2c0.1-0.4,0.2-0.8,0.4-1.1c0.3-0.5,0.8-0.5,1.2-0.8C272.6,138.7,273,138.3,273.2,137.9z"/>
					<linearGradient id="SVGID_17_" gradientUnits="userSpaceOnUse" x1="266.887" y1="143.2062" x2="270.1968" y2="143.2062">
						<stop  offset="0" style="stop-color:#0BA1E1"/>
						<stop  offset="1" style="stop-color:#116EDB"/>
					</linearGradient>
					<path class="st47" d="M269.7,145.5c0.1,0.3,0.2,0.6,0.1,0.8c-0.1,0.2-0.4,0.2-0.6,0.2c-0.4,0-0.7,0.1-1.1,0.1
						c-0.1,0-0.3,0-0.4,0c-0.2-0.1-0.3-0.3-0.4-0.6c-0.6-1.8-0.5-3.8,0.3-5.5c0.1-0.2,0.2-0.4,0.4-0.5c0.1-0.1,0.3-0.1,0.5-0.1
						c0.4-0.1,0.8-0.1,1.3-0.2c0.3,0,0.5-0.1,0.4,0.3c-0.1,0.4-0.3,0.8-0.4,1.2c-0.2,0.7-0.4,1.5-0.4,2.3c0,0.5,0,1.1,0.1,1.6
						C269.5,145.2,269.6,145.3,269.7,145.5z"/>
				</g>
			</g>
			<g>
				<path class="st43" d="M610.3,164.3c0-7.8-6.3-14.1-14.1-14.1c-7.8,0-14.1,6.3-14.1,14.1c0,7.8,6.3,14.1,14.1,14.1
					c1.8,0,3.5-0.4,5.1-1l7.3,5c0.3,0.2,0.7-0.1,0.6-0.4l-1.8-9.3C609.3,170.3,610.3,167.4,610.3,164.3z"/>
				<linearGradient id="SVGID_18_" gradientUnits="userSpaceOnUse" x1="587.0082" y1="163.1132" x2="607.3928" y2="163.1132">
					<stop  offset="0" style="stop-color:#0BA1E1"/>
					<stop  offset="1" style="stop-color:#116EDB"/>
				</linearGradient>
				<path class="st48" d="M607.4,161.9l-6.7-5.1c0,0.1-0.1,1.3-0.2,2.9c-15.3-0.4-13.4,9.7-13.4,9.7c4.1-6.4,12-6.1,13.2-6
					c-0.1,1.7-0.2,3-0.2,3L607.4,161.9z"/>
			</g>
			<g>
				<path class="st43" d="M353.8,87.6c0-7.8,6.3-14.1,14.1-14.1c7.8,0,14.1,6.3,14.1,14.1c0,7.8-6.3,14.1-14.1,14.1
					c-1.8,0-3.5-0.4-5.1-1l-7.3,5c-0.3,0.2-0.7-0.1-0.6-0.4l1.8-9.3C354.8,93.6,353.8,90.7,353.8,87.6z"/>
				<g>
					<linearGradient id="SVGID_19_" gradientUnits="userSpaceOnUse" x1="360.3438" y1="87.0698" x2="363.9553" y2="87.0698">
						<stop  offset="0" style="stop-color:#0BA1E1"/>
						<stop  offset="1" style="stop-color:#116EDB"/>
					</linearGradient>
					<circle class="st49" cx="362.1" cy="87.1" r="1.8"/>
					<linearGradient id="SVGID_20_" gradientUnits="userSpaceOnUse" x1="366.0507" y1="87.0698" x2="369.6622" y2="87.0698">
						<stop  offset="0" style="stop-color:#0BA1E1"/>
						<stop  offset="1" style="stop-color:#116EDB"/>
					</linearGradient>
					<circle class="st50" cx="367.9" cy="87.1" r="1.8"/>
					<linearGradient id="SVGID_21_" gradientUnits="userSpaceOnUse" x1="371.7576" y1="87.0698" x2="375.369" y2="87.0698">
						<stop  offset="0" style="stop-color:#0BA1E1"/>
						<stop  offset="1" style="stop-color:#116EDB"/>
					</linearGradient>
					<circle class="st51" cx="373.6" cy="87.1" r="1.8"/>
				</g>
			</g>
		</g>
	</g>
</g>
<g id="Designed_by_freepik">
</g>
</svg>
