<?xml version="1.0" encoding="utf-8"?>
<!-- Generator: Adobe Illustrator 21.0.0, SVG Export Plug-In . SVG Version: 6.00 Build 0)  -->
<svg version="1.1" xmlns="http://www.w3.org/2000/svg" xmlns:xlink="http://www.w3.org/1999/xlink" x="0px" y="0px"
	 viewBox="0 0 750 500" style="enable-background:new 0 0 750 500;" xml:space="preserve">
<style type="text/css">
	.st0{fill:#FFFFFF;}
	.st1{fill:#F1F5F9;}
	.st2{fill:url(#SVGID_1_);}
	.st3{fill:#BFE2FA;}
	.st4{fill:#CCE4FB;}
	.st5{fill:url(#SVGID_2_);}
	.st6{fill:url(#SVGID_3_);}
	.st7{font-family:'Quicksand-SemiBold';}
	.st8{font-size:44.0987px;}
	.st9{fill:none;stroke:#D9E8F3;stroke-width:0.9122;stroke-miterlimit:10;}
	.st10{font-size:23.116px;}
	.st11{fill:none;stroke:#D9E8F3;stroke-width:0.4782;stroke-miterlimit:10;}
	.st12{font-size:30.3923px;}
	.st13{fill:none;stroke:#D9E8F3;stroke-width:0.6287;stroke-miterlimit:10;}
	.st14{fill:#008CEC;}
	.st15{fill:#C64F76;}
	.st16{fill:#1B3953;}
	.st17{fill:#EBF6FD;}
	.st18{fill:#2684FE;}
	.st19{fill:#DE0E5C;}
	.st20{fill:#E2A7BA;}
	.st21{fill:#10253B;}
</style>
<g id="BACKGROUND">
	<rect class="st0" width="750" height="500"/>
</g>
<g id="OBJECTS">
	<path class="st1" d="M380.4,59.1c0,0-50.6-45.7-137.1-24.2c-86.5,21.5-82.5,90-115.8,139.6c-33.3,49.7-73.2,43-87.8,124.9
		c-12.1,67.7,55.9,167.8,183.7,128.9c127.8-38.9,204.9-13.9,246.2,5.4c51.9,24.2,138.4,24.2,185-12.1c46.6-36.3,70.5-102,27.9-158.4
		c-54-71.6,26.6-81.9,10.6-145c-16-63.1-103.8-59.1-135.7-37.6C525.5,102.1,416.4,91.4,380.4,59.1z"/>
	<g>
		<linearGradient id="SVGID_1_" gradientUnits="userSpaceOnUse" x1="21.1804" y1="248.8779" x2="184.9387" y2="248.8779">
			<stop  offset="0" style="stop-color:#0B9FE1"/>
			<stop  offset="1" style="stop-color:#1075DC"/>
		</linearGradient>
		<path class="st2" d="M182.6,350c0,0,13-92.4-31.3-144.3c-47.9-56.2-123-59.7-123-59.7s-19.5,65,6.5,115.9
			c41.4,81,150.2,89.9,150.2,89.9"/>
		<g>
			<path class="st3" d="M103.7,319.7c7-0.2,14.1-0.7,21-1.7c6.6-0.9,13-2.6,19.4-4.3c2.9-0.7,5.9-1.2,8.7-2.2
				c1.8-0.6,3.8-1.4,5.3-2.7c3.4,5.1,6.7,10.3,9.9,15.5c2.5,4,4.8,8,7.1,12.1c2.2,4.1,4.2,8.3,6.6,12.3c0.2,0.4,0.6,0.5,1,0.5
				c0.1-0.6,0.2-1.7,0.3-3c-1-3.3-2.6-6.5-4.2-9.6c-1.9-3.7-4-7.4-6.1-10.9c-4.3-7.2-8.7-14.3-13.3-21.3
				c-9.5-14.3-19.9-28.1-30.5-41.6c-0.7-0.9-1.4-1.8-2.2-2.7c5.2-12.7,5.1-27.3,4.2-40.8c-0.8-12.4-2-24.7-4.5-36.8
				c-0.9-0.7-1.8-1.3-2.7-2c1.4,6.1,2.5,12.2,3.3,18.4c1.6,11.9,2.2,24.2,1.7,36.2c-0.3,7.8-1.7,15.4-3.7,23c-4-5-8.1-9.9-12.1-14.9
				c-5.2-6.3-10.1-12.9-15.1-19.4c-2.6-3.3-5.2-6.7-7.9-9.9c-2.1-18.7-3.2-37.6-8.4-55.7c-0.9-0.3-1.7-0.6-2.6-1
				c1.4,4.6,2.6,9.3,3.6,14c2,9.8,3.3,19.8,4.4,29.8c0.4,3.7,0.9,7.3,1.4,11c-2-2.3-4-4.7-6.1-6.9c-5.5-5.8-11-11.6-16.3-17.7
				c-10.5-12-20.6-24.4-32.3-35.2c-1.4-1.3-2.9-2.7-4.4-3.9c-0.9-0.8-2.2,0.5-1.3,1.3c11.8,10.6,21.9,22.9,32.1,35
				c5.1,6.1,10.2,12.2,15.5,18c5.4,6,10.7,12,15.7,18.4c5,6.4,9.8,13,14.8,19.4c5.1,6.6,10.4,12.9,15.6,19.3
				c10.8,13.4,21.2,27,30.9,41.1c1.4,2,2.8,4,4.1,6.1c-1.7,0.8-3.4,1.5-5.2,2c-2.4,0.7-4.9,1.2-7.3,1.8c-2.9,0.7-5.6,1.6-8.5,2.3
				c-3.3,0.8-6.6,1.5-10,2.1c-13.1,2.2-26.7,3-40,2.3c1.2,0.8,2.4,1.5,3.6,2.3C94.2,319.9,99,319.9,103.7,319.7z"/>
			<path class="st3" d="M72.7,226.1c3.7,0.7,7.4,1.3,11.1,1.6c3.4,0.3,7.4,0.9,10.7-0.3c0.4-0.2,0.5-0.8,0-0.9
				c-2.9-0.9-6.2-0.7-9.3-1c-3.3-0.3-6.5-0.8-9.8-1.3c-6.4-1.1-12.7-2.5-19-3.9c-11.6-2.6-23.3-5-34.3-9.6c-0.3-0.1-0.5-0.2-0.8-0.3
				c0,0.6,0.1,1.2,0.1,1.8c4.5,2,9.2,3.6,14,5c6,1.8,12,3.3,18.1,4.7C60.1,223.4,66.3,224.9,72.7,226.1z"/>
			<path class="st3" d="M112.4,274.7c2.8-0.4,5.5-1,8.2-1.7c1.9-0.5,3.8-1.1,5.5-2.3c0.4-0.3,0.4-1.2-0.3-1.1c-4,0.5-7.9,1.4-11.9,2
				c-6.1,0.9-12.3,1.5-18.5,1.9c-16.1,1-32.5,0.2-48.4-2.9c-2.9-0.6-5.8-1.2-8.7-2c0.5,0.8,1,1.6,1.5,2.4c9.4,2.5,19,4,28.6,4.8
				C83,277,97.9,277,112.4,274.7z"/>
			<path class="st3" d="M155.3,294.6c6.7-21.1,12.4-43.2,11.1-65.5c-0.8-1.7-1.7-3.3-2.6-4.9c0,0.3,0.1,0.7,0.1,1
				c0.4,5.6,0.4,11.2,0,16.8c-0.8,11.6-2.8,23-5.4,34.3c-1.4,6-2.8,12-4.3,18C154.1,294.9,155.1,295.2,155.3,294.6z"/>
		</g>
	</g>
	<g>
		<g>
			<path class="st4" d="M116,364.2c0,0,9.2-24.8,0.6-45.2c-8.3-19.6-19.7-24.4-20.4-11.5C94.4,342,116,364.2,116,364.2z"/>
			<path class="st4" d="M89.1,353c0,0,3.5-19.2-12.7-37.6c-16.3-18.3-24.5-16.9-24.3-6.8C52.4,323.4,89.1,353,89.1,353z"/>
			<path class="st4" d="M72.3,348.2c0,0-29.6-1.8-50.9,12.1c-21.3,13.9-13.9,25.1,2.7,19.8S65.5,349.1,72.3,348.2z"/>
			<path class="st4" d="M48.9,381.1c-3.3,15.5,15.2,9.7,24-2.1c10.9-14.8,23.7-23.1,23.7-23.1S53,361.6,48.9,381.1z"/>
			<path class="st4" d="M119.9,367.5c0,0-21.3,0.9-33.4,17.2c-12.1,16.3-4.1,26.3,6.5,20.1c7.1-4.1,9.2-13.9,16.9-24.3
				c6.4-8.6,11.8-11.2,11.8-11.2L119.9,367.5z"/>
			<g>
				<linearGradient id="SVGID_2_" gradientUnits="userSpaceOnUse" x1="31.299" y1="360.3933" x2="139.821" y2="360.3933">
					<stop  offset="0" style="stop-color:#0B9FE1"/>
					<stop  offset="1" style="stop-color:#1075DC"/>
				</linearGradient>
				<path class="st5" d="M31.9,342.8c8.3,2,16.7,3,25.1,4.4c8.1,1.3,16.1,3.3,24,5.6c13.7,3.9,27.2,9.2,40.1,15.3
					c3.3,1.6,6.6,3.3,9.6,5.4c2.7,1.9,5.2,4.1,7.8,6.2c0.5,0.4,1.5,0,1.2-0.7c-0.5-1.3-1.1-2.4-2-3.5c-1-1.1-2.1-2.2-3.2-3.1
					c-2.6-2.1-5.4-3.8-8.2-5.5c-5.6-3.4-11.6-6-17.7-8.5c-15.2-6.2-31-11.1-47.2-13.5c-9.6-1.4-19.4-1.8-29-3.8
					C31.3,340.8,30.8,342.5,31.9,342.8L31.9,342.8z"/>
			</g>
		</g>
		<path class="st4" d="M68.1,345.9c0,0-16.9-24.5-37.9-32.2C9.3,306,6,316,16.7,325.2C27.3,334.3,68.1,345.9,68.1,345.9z"/>
	</g>
	<g>
		<path class="st4" d="M682.3,283.9c0,0-0.8-11.1,5.8-41.5c6.6-30.3,20.1-44.9,24-42c3.9,2.8,4.2,25,1.4,39.1
			c-2.8,14.1-9,22.7-15.1,30.9C692.3,278.6,682.3,283.9,682.3,283.9z"/>
		<path class="st4" d="M645.1,320.9c0,0,13.4-21.2,19.5-49.8c6.1-28.6,5.7-58.8-5.6-65.1c-11.3-6.3-18.7,32.5-17.4,53
			c1.3,20.5,0.3,64.8,0.3,64.8L645.1,320.9z"/>
		<path class="st4" d="M621.7,339.9c0,0,10.7-12,9.8-32.4c-0.9-20.5-8.8-31.5-13.6-23.2c-4.8,8.2,0.9,31.1-0.4,40.8
			c-1.3,9.7-2.2,19-2.2,19L621.7,339.9z"/>
		<path class="st4" d="M666.3,302.7c0,0,30.7-20,48.2-26.6c22.7-8.6,24.5,3.3,16.3,14.3c-11.9,16.1-69.1,17-69.1,17L666.3,302.7z"/>
		<path class="st4" d="M630.4,333.6c0,0,30.2-9.8,46.3-14c16.2-4.2,24.2-5.2,27.8,3.9c3.6,9-14.1,18-38.1,18.3
			c-24,0.3-41.6-4-41.6-4L630.4,333.6z"/>
		<path class="st4" d="M604.8,350.3c0,0,2.4,5,19.8,4c17.4-1,34.2-11.4,46.1,0.7c11.9,12.1-12,21.2-33.3,19.4
			c-21.2-1.8-37.3-21.2-37.3-21.2L604.8,350.3z"/>
		<g>
			<linearGradient id="SVGID_3_" gradientUnits="userSpaceOnUse" x1="577.3179" y1="303.6068" x2="704.0837" y2="303.6068">
				<stop  offset="0" style="stop-color:#0B9FE1"/>
				<stop  offset="1" style="stop-color:#1075DC"/>
			</linearGradient>
			<path class="st6" d="M578.4,366.5c11-5.1,21.5-11.1,31.7-17.5c10.6-6.7,20.9-13.9,30.7-21.7c19.4-15.5,36.9-33.4,50.8-54
				c3.3-4.8,6.1-9.9,8.3-15.4c1.1-2.9,2.1-5.9,3-8.9c0.7-2.6,1.4-5.2,1.2-7.9c0-0.5-0.7-0.5-0.8,0c-0.8,5.2-2.5,10.1-4.9,14.8
				c-2.3,4.5-4.7,8.9-7.5,13.2c-6.6,10.1-14.2,19.4-22.5,28c-17,17.6-36.2,33-56.5,46.7c-11.1,7.5-22.7,14.4-34.1,21.5
				C576.9,365.7,577.5,366.9,578.4,366.5L578.4,366.5z"/>
		</g>
	</g>
	<g>
		<circle class="st4" cx="699.8" cy="141.4" r="38.5"/>
		<text transform="matrix(1 0 0 1 688.1012 155.4651)" class="st0 st7 st8">$</text>
		<circle class="st9" cx="699.8" cy="141.4" r="31"/>
	</g>
	<g>
		<circle class="st4" cx="629.4" cy="93.9" r="20.2"/>
		<text transform="matrix(1 0 0 1 623.8522 101.2943)" class="st0 st7 st10">$</text>
		<circle class="st11" cx="629.4" cy="93.9" r="16.2"/>
	</g>
	<g>
		<circle class="st4" cx="686.8" cy="56.2" r="26.6"/>
		<text transform="matrix(1 0 0 1 679.0983 65.9114)" class="st0 st7 st12">$</text>
		<circle class="st13" cx="686.8" cy="56.2" r="21.3"/>
	</g>
	<g>
		<rect x="190.9" y="201.6" class="st14" width="2.3" height="89.7"/>
		<rect x="187.3" y="219.5" class="st14" width="9.6" height="43.9"/>
	</g>
	<g>
		
			<rect x="206.8" y="245.4" transform="matrix(-1 -1.224647e-16 1.224647e-16 -1 415.8386 577.0142)" class="st15" width="2.3" height="86.2"/>
		
			<rect x="203.1" y="284.4" transform="matrix(-1 -1.224647e-16 1.224647e-16 -1 415.8388 604.2045)" class="st15" width="9.6" height="35.4"/>
	</g>
	<g>
		<g>
			<path class="st16" d="M608.1,397.1H142.2c-7.6,0-13.7-6.1-13.7-13.7V88.7c0-7.6,6.1-13.7,13.7-13.7h465.9
				c7.6,0,13.7,6.1,13.7,13.7v294.7C621.8,391,615.6,397.1,608.1,397.1z"/>
			
				<rect x="230.2" y="5.5" transform="matrix(-1.836970e-16 1 -1 -1.836970e-16 611.2079 -139.034)" class="st17" width="289.9" height="461.1"/>
		</g>
		<path class="st0" d="M154.1,99.9v134.8h-0.2v1.6h0.2v65.8h-0.2v1.6h0.2v67.5H594V99.9H154.1z M592.4,167.3h-71.3v-65.7h71.3V167.3
			z M448,234.7v-65.8h71.5v65.8H448z M519.5,236.3v65.8H448v-65.8H519.5z M375,234.7v-65.8h71.5v65.8H375z M446.4,236.3v65.8H375
			v-65.8H446.4z M375,167.3v-65.7h71.5v65.7H375z M301.9,234.7v-65.8h71.5v65.8H301.9z M373.4,236.3v65.8h-71.5v-65.8H373.4z
			 M301.9,167.3v-65.7h71.5v65.7H301.9z M228.8,234.7v-65.8h71.5v65.8H228.8z M300.3,236.3v65.8h-71.5v-65.8H300.3z M228.8,167.3
			v-65.7h71.5v65.7H228.8z M300.3,303.7v65.9h-71.5v-65.9H300.3z M301.9,303.7h71.5v65.9h-71.5V303.7z M375,303.7h71.5v65.9H375
			V303.7z M448,303.7h71.5v65.9H448V303.7z M448,167.3v-65.7h71.5v65.7H448z M227.2,101.5v65.7h-71.5v-65.7H227.2z M155.7,168.9
			h71.5v65.8h-71.5V168.9z M155.7,236.3h71.5v65.8h-71.5V236.3z M155.7,303.7h71.5v65.9h-71.5V303.7z M521.1,369.6v-65.9h71v-1.6
			h-71v-65.8h71v-1.6h-71v-65.8h71.3v200.8H521.1z"/>
		<g>
			<rect x="159.3" y="152.3" class="st18" width="2.3" height="107.6"/>
			<rect x="155.6" y="188.2" class="st18" width="9.6" height="80.8"/>
		</g>
		<g>
			<rect x="222.6" y="143.2" class="st18" width="2.3" height="107.6"/>
			<rect x="218.9" y="149.2" class="st18" width="9.6" height="68.9"/>
		</g>
		<g>
			<rect x="254.3" y="150.6" class="st18" width="2.3" height="95.4"/>
			<rect x="250.6" y="192.3" class="st18" width="9.6" height="42.5"/>
		</g>
		<g>
			<rect x="285.9" y="228" class="st18" width="2.3" height="97.9"/>
			<rect x="282.2" y="249.2" class="st18" width="9.6" height="69.8"/>
		</g>
		<g>
			<rect x="317.6" y="214" class="st18" width="2.3" height="107.6"/>
			<rect x="313.9" y="249.9" class="st18" width="9.6" height="51.9"/>
		</g>
		<g>
			<rect x="349.2" y="136.7" class="st18" width="2.3" height="140.5"/>
			<rect x="345.6" y="158.7" class="st18" width="9.6" height="80.8"/>
		</g>
		<g>
			<rect x="380.9" y="225.9" class="st18" width="2.3" height="51.8"/>
			<rect x="377.2" y="233.9" class="st18" width="9.6" height="17"/>
		</g>
		<g>
			<rect x="412.6" y="165.2" class="st18" width="2.3" height="110.6"/>
			<rect x="408.9" y="179.1" class="st18" width="9.6" height="74.8"/>
		</g>
		<g>
			<rect x="444.1" y="217.5" class="st18" width="2.5" height="107.6"/>
			<rect x="440.5" y="233.4" class="st18" width="9.6" height="80.8"/>
		</g>
		<g>
			<rect x="475.9" y="254.2" class="st18" width="2.3" height="107.6"/>
			<rect x="472.2" y="290" class="st18" width="9.6" height="65.9"/>
		</g>
		<g>
			<rect x="507.5" y="133.1" class="st18" width="2.3" height="137.5"/>
			<rect x="503.9" y="164" class="st18" width="9.6" height="63.9"/>
		</g>
		<g>
			<rect x="539.2" y="105.8" class="st18" width="2.3" height="116.6"/>
			<rect x="535.5" y="121.8" class="st18" width="9.6" height="47.9"/>
		</g>
		<g>
			<rect x="570.8" y="184.9" class="st18" width="2.5" height="107.6"/>
			<rect x="567.2" y="203.8" class="st18" width="9.6" height="63.9"/>
		</g>
		<g>
			
				<rect x="586.7" y="177.5" transform="matrix(-1 -1.224647e-16 1.224647e-16 -1 1175.6708 462.6162)" class="st19" width="2.3" height="107.6"/>
			
				<rect x="583" y="227.4" transform="matrix(-1 -1.224647e-16 1.224647e-16 -1 1175.6707 476.6375)" class="st19" width="9.6" height="21.9"/>
		</g>
		<g>
			
				<rect x="555" y="157.4" transform="matrix(-1 -1.224647e-16 1.224647e-16 -1 1112.3514 404.4777)" class="st19" width="2.3" height="89.7"/>
			
				<rect x="551.4" y="185.2" transform="matrix(-1 -1.224647e-16 1.224647e-16 -1 1112.3513 414.343)" class="st15" width="9.6" height="43.9"/>
		</g>
		<g>
			
				<rect x="523.4" y="186.6" transform="matrix(-1 -1.224647e-16 1.224647e-16 -1 1049.0322 480.7593)" class="st19" width="2.3" height="107.6"/>
			
				<rect x="519.7" y="219.4" transform="matrix(-1 -1.224647e-16 1.224647e-16 -1 1049.0321 507.5662)" class="st19" width="9.6" height="68.9"/>
		</g>
		<g>
			
				<rect x="491.7" y="198.5" transform="matrix(-1 -1.224647e-16 1.224647e-16 -1 985.7128 504.6753)" class="st19" width="2.3" height="107.6"/>
			
				<rect x="488" y="189.5" transform="matrix(-1 -1.224647e-16 1.224647e-16 -1 985.7127 426.8431)" class="st19" width="9.6" height="47.9"/>
		</g>
		<g>
			<rect x="460.1" y="148.1" class="st19" width="2.3" height="110.6"/>
			
				<rect x="456.4" y="156" transform="matrix(-1 -1.224647e-16 1.224647e-16 -1 922.3934 390.8418)" class="st19" width="9.6" height="78.8"/>
		</g>
		<g>
			
				<rect x="428.4" y="148" transform="matrix(-1 -1.224647e-16 1.224647e-16 -1 859.0742 380.7039)" class="st19" width="2.3" height="84.7"/>
			
				<rect x="424.7" y="163.6" transform="matrix(-1 -1.224647e-16 1.224647e-16 -1 859.0742 368.0734)" class="st19" width="9.6" height="40.9"/>
		</g>
		<g>
			
				<rect x="396.7" y="203.1" transform="matrix(-1 -1.224647e-16 1.224647e-16 -1 795.7546 546.6361)" class="st19" width="2.3" height="140.5"/>
			
				<rect x="393.1" y="240.8" transform="matrix(-1 -1.224647e-16 1.224647e-16 -1 795.7548 562.481)" class="st19" width="9.6" height="80.8"/>
		</g>
		<g>
			
				<rect x="365.1" y="175.8" transform="matrix(-1 -1.224647e-16 1.224647e-16 -1 732.4354 403.371)" class="st19" width="2.3" height="51.8"/>
			
				<rect x="361.4" y="202.6" transform="matrix(-1 -1.224647e-16 1.224647e-16 -1 732.4354 422.2054)" class="st19" width="9.6" height="17"/>
		</g>
		<g>
			
				<rect x="333.4" y="171.3" transform="matrix(-1 -1.224647e-16 1.224647e-16 -1 669.116 453.2354)" class="st19" width="2.3" height="110.6"/>
			
				<rect x="329.7" y="193.1" transform="matrix(-1 -1.224647e-16 1.224647e-16 -1 669.1161 443.9536)" class="st19" width="9.6" height="57.7"/>
		</g>
		<g>
			
				<rect x="301.7" y="122.4" transform="matrix(-1 -1.224647e-16 1.224647e-16 -1 605.7966 352.4254)" class="st19" width="2.5" height="107.6"/>
			
				<rect x="298.1" y="133.3" transform="matrix(-1 -1.224647e-16 1.224647e-16 -1 605.7968 347.3423)" class="st19" width="9.6" height="80.8"/>
		</g>
		<g>
			
				<rect x="270.1" y="103.4" transform="matrix(-1 -1.224647e-16 1.224647e-16 -1 542.4772 307.4463)" class="st19" width="2.3" height="100.6"/>
			
				<rect x="266.4" y="108.9" transform="matrix(-1 -1.224647e-16 1.224647e-16 -1 542.4774 279.4201)" class="st19" width="9.6" height="61.5"/>
		</g>
		<g>
			
				<rect x="238.4" y="166.8" transform="matrix(-1 -1.224647e-16 1.224647e-16 -1 479.158 390.8852)" class="st19" width="2.3" height="57.3"/>
			
				<rect x="234.8" y="184.6" transform="matrix(-1 -1.224647e-16 1.224647e-16 -1 479.1582 395.8293)" class="st19" width="9.6" height="26.6"/>
		</g>
		<g>
			<rect x="175" y="144.9" class="st19" width="2.5" height="107.6"/>
			
				<rect x="171.4" y="169.7" transform="matrix(-1 -1.224647e-16 1.224647e-16 -1 352.5194 403.345)" class="st19" width="9.6" height="63.9"/>
		</g>
	</g>
	<g>
		<path class="st20" d="M485.6,200.6c0,0-4-3.3-6.4-8.7c-2.4-5.4-7.9-12.4-9.9-11.6s3.9,9.7,3.9,9.7s-5.9,4.1-4.5,9.2
			c1.4,5.1,6.6,4.7,7.8,6.2c1.2,1.5,1.9,3.2,1.9,3.2s3.3-1.7,5.3-3.6S485.6,200.6,485.6,200.6z"/>
		<path class="st20" d="M601.4,307.2c0,0-4,10.1-9,13.9c-2.5,2-8.4-1.2-8.4-1.2s1.2-9.6,2.8-12.4c1.6-2.8,8.4-6.2,8.4-6.2
			L601.4,307.2z"/>
		<path class="st21" d="M549.5,469.8c0,0-7.5,1.2-14.1,2.8c-4.2,1-8.7,1.6-8.6,3.7c0.1,2.9,14,3.5,19.1,3.5s12.4,0.9,14,0
			c1.6-0.9-1.6-12.1-1.6-12.1L549.5,469.8z"/>
		<path class="st21" d="M592.5,467.5c0,0-6.5,1.4-9.8,1.6c-3.3,0.2-10.5,0.5-11.4,3c-0.9,2.6,7.2,3.5,13.8,4.4
			c6.5,0.9,17.5,2.8,19.1,1.6c1.6-1.2,0.9-10.5-1.4-12.4C600.4,464,592.5,467.5,592.5,467.5z"/>
		<path class="st18" d="M537.3,313.1c0,0-8.6,44.3-7.4,75.7s17,81.4,17,81.4s5.6,1.2,8.7,0.9c3.1-0.3,4.4-0.9,4.4-0.9
			s-3.7-59.1-3.1-80.9c0.6-21.8,5.1-46,5.1-46s1,41.6,8.8,69c7.8,27.4,20.6,55.8,20.6,55.8s5.3,1.2,8.4,0.9c3.1-0.3,4.9-1.9,4.9-1.9
			s-10.5-56.2-13.9-83.7c-3.1-24.6,0.2-70.3,0.2-70.3s-12.3-2.5-24.2-2.2C555.1,311.2,537.3,313.1,537.3,313.1z"/>
		<g>
			<path class="st20" d="M561.2,207.8c0,0-11,10-19.4,9.8c-8.4-0.2-7.5-7.2-6.8-15.2c0.7-7.9,6.3-25.7,14-23.3
				c7.7,2.3,12.6,11.4,13.8,18C564,203.6,561.2,207.8,561.2,207.8z"/>
			<path class="st20" d="M545.7,213.3c0,0,1.8,4.7,2.6,9.6c0.8,4.9,2.7,7.2,2.7,7.2s10.2,0.1,12.5-4.1c-0.6-4.5-4.1-15-6-18.9
				C555.8,203.4,545.7,213.3,545.7,213.3z"/>
		</g>
		<path class="st21" d="M556,213.7c0,0-2.3-5.4-1.6-8.2c0.6-2.9,1.6-4.8,1.6-4.8s-2.1-1.1-2.3-3.1c-0.2-2,0.2-3.2,0.2-3.2
			s0.1-3.7-4.9-6.1c-5-2.5-9.3-2-9.3-2s-1.2-6.2-0.2-10.1c1-3.9,18.4-0.1,23.5,6.1c5.1,6.1,1.2,11,1.2,11s5.2-1.2,5.4,5.9
			c0.3,8.4-7.5,14.2-8.4,14.5C560.3,213.8,556,213.7,556,213.7z"/>
		<path class="st20" d="M550.1,202.6c0,0,4.9-6.3,8.5-3.7c3.6,2.6-0.3,7.7-4.3,7.7C550.2,206.6,550.1,202.6,550.1,202.6z"/>
		<path class="st21" d="M546,226.6l0.2-4c0,0,3.5-2.3,9.6-2.8c6.1-0.5,7.5,0,7.5,0l2.3,4.4c0,0-5.1-0.7-10.3,0.7
			C550.2,226.3,546,226.6,546,226.6z"/>
		<path class="st21" d="M543.7,225.9c3.5-0.5,6.3-1.6,10.5-2.6s14.5-1.4,22.2,1.9c6.8,2.9,10.5,24.7,14,46.5
			c3.5,21.7,2.1,45.3,2.1,45.3s-9.1,2.1-28.5,2.3c-19.4,0.2-29.6-1.6-29.6-1.6s2.3-23.8-1.2-40.6c-3.5-16.8-3.3-23.3-14.7-30.1
			c-11.4-6.8-23.6-12.8-31.3-21.7c-7.7-8.9-11.2-18.7-11.2-18.7s2.1-4,5.1-5.8c3-1.9,4.2-1.6,4.2-1.6s13.5,12.4,22.4,18.7
			S540.2,226.3,543.7,225.9z"/>
		<path class="st21" d="M569.6,223.5c0,0,9,0.9,19.1,7.1c9.1,5.6,25.8,29.6,27.6,42.2c1.9,12.6-16.1,39.7-16.1,39.7
			s-2.1-2.2-5.3-4.7c-3.2-2.5-5-3.1-5-3.1s13.1-22.1,11.9-29.8c-1.2-7.7-23.3-24.3-23.3-24.3S568,240.6,567,235
			C566.1,229.4,569.6,223.5,569.6,223.5z"/>
	</g>
	<g>
		<g>
			<path class="st20" d="M139.3,281c0,0,0.4,9.8,8.7,19.5c8.2,9.8,12,13.1,12.9,15.3c0.9,2.2,0,10.6,0.9,13.5
				c0.9,2.9,2.4,5.1,2.4,5.1s6.7-18.4,6.2-20.6c-0.4-2.2-9.1-9.1-14-18.9c-4.9-9.8-2.7-15.3-2.7-15.3s-3.3-2.7-8.2-1.8
				C140.6,278.8,139.3,281,139.3,281z"/>
			<path class="st20" d="M194.5,219.1c0,0,10.4,9.5,18.4,9.3c8-0.2,7.1-6.9,6.4-14.4c-0.7-7.5-6-24.4-13.3-22.2
				c-7.3,2.2-12,10.9-13.1,17.1C191.9,215.1,194.5,219.1,194.5,219.1z"/>
			<path class="st20" d="M206.8,224c0,0-1.5,2.7-1.2,7.4c0.3,4.7,1.5,9.2,1.5,9.2s-6.7,0.6-9.8-2.8c-3.1-3.4-2.2-13-1.3-17
				C196.9,216.7,206.8,224,206.8,224z"/>
			<path class="st20" d="M218.7,228.4c0,0-0.1-5.9-0.2-8.3c-0.1-2.4,1.2-6.7,2.2-5.9c1,0.7,2.8,8,3.5,12c0.7,4,0.9,7.2,4.1,9.6
				c8.1,5.9,22.5,17.2,22.5,17.2s-2.2,2.4-6.4,4c-2.3,0.8-7.1,0.4-7.1,0.4S224.1,238,222.8,237c-1.3-1-5.8-5.4-8-7.9
				c-2.2-2.5-2.3-3.7-1.2-3.6C215.2,225.6,218.7,228.4,218.7,228.4z"/>
			<g>
				<path class="st21" d="M210.3,469.3c0,0-2.2,7.2-0.2,9.9c2,2.7,26.7-0.4,28.8-3.3c2.1-2.9-4.2-5.1-12.4-4.8
					C218.2,471.4,210.3,469.3,210.3,469.3z"/>
				<path class="st20" d="M195,362.3c0,0,6.8,26.7,8.8,35.6c2,8.9-0.8,17.7,0.8,35.2c1.6,17.5,4.9,37,6.7,39.7
					c1.7,2.7,20.9,1.5,19.8-0.5c-1.1-2-11.2,0.3-11.7-5.1c-0.5-5.3,3.6-61.8,3.8-76c0.2-14.2-2.2-37.6-2.2-37.6s-7.1-2.1-15.4-2.5
					C197.2,350.7,195,362.3,195,362.3z"/>
			</g>
			<g>
				<path class="st21" d="M165.4,465.6c0,0-3.3,6.8-1.7,9.7c1.5,3,26.9,0,28.8-3.1c1.9-3.1-4.6-4.7-12.7-3.8
					C171.6,469.3,165.4,465.6,165.4,465.6z"/>
				<path class="st20" d="M166.5,357.4c0,0,2.7,27.4,3.3,36.5c0.6,9.1-3.5,17.4-4.6,34.9c-1.1,17.5-0.8,37.3,0.5,40.3
					c1.3,2.9,19.8,2,18.6,0.1c-1.3-1.9-10.1,1-9.8-4.3s13-60.5,15.3-74.5c2.3-14,3.5-37.5,3.5-37.5s-6.7-3.2-14.8-4.8
					C170.5,346.4,166.5,357.4,166.5,357.4z"/>
			</g>
			<path class="st21" d="M168.8,311.8c0,0-5.8,12.6-6.9,27.7c-1.1,15.1-0.4,27.3-0.4,27.3s15.7,4.4,34.6,3.8s32.8-4.7,32.8-4.7
				s-2.4-24.2-6.7-40.1c-4.2-16-8.2-17.3-8.2-17.3S174.1,304.1,168.8,311.8z"/>
			<path class="st19" d="M192.1,237c0,0,9.6,0.4,14.8,1.6c5.2,1.2,13.5,23.8,12.9,31.3c-0.6,7.5-6.1,25.4-6.1,25.4s4.1,12,5.6,16.4
				c1.5,4.4,1.6,6.4,1.6,6.4s-14.2,2.8-30.3,2.5c-16.1-0.3-24.5-3.8-24.5-3.8s6.1-15.4,6.5-18.5c0.4-3.1-1.2-7.1-4.3-16.7
				c-3.1-9.6-4.3-18.9-3-26.2C166.7,248.2,176,234.6,192.1,237z"/>
			<path class="st19" d="M158.9,248.8c0,0-14.9,12.6-18.2,20.4c-3.3,7.8-1.6,13.9-1.6,13.9s2.2-2.1,6.7-2.8s8.1,0.9,8.1,0.9
				s4-11.2,9.9-15.8c5.9-4.6,8.7-4.9,8.7-4.9s2.4-14.9,1.8-16.3C173.7,242.9,165.2,242.2,158.9,248.8z"/>
			<g>
				<path class="st19" d="M204.1,238.2c0,0,8.6,0.9,21.9,8c13.3,7.1,18.8,12,21.3,14.3c2.5,2.4,3.7,8,1.8,9.2
					c-1.9,1.2-20.1,0.6-30.3-3.3c-10.2-3.8-14.9-14.5-15.5-17.9C202.6,245.1,204.1,238.2,204.1,238.2z"/>
				<path class="st19" d="M239.5,256.8c0,0,3.8-3.3,7.2-4.1c3.4-0.9,4.1-0.7,4.1-0.7s5.8,5.8,5.2,11.2c-0.6,5.5-4.1,7.4-8.3,7.5
					c-4.1,0.1-11.2-0.7-11.2-0.7s-2.8-8.6-3.4-11.1C232.5,256.4,239.5,256.8,239.5,256.8z"/>
			</g>
			<path class="st21" d="M216.4,201.2c0,0-0.3-12-9.2-12.6c-8.9-0.6-10.9,6.4-15.4,7.2c-4.4,0.7-14.6-0.1-22.9,11
				c-8.3,11.1-3.8,25.2-5.3,30c-2,6-9.4,9.3-13.7,14.2c-5.2,6-12.8,21.3-0.8,29.1c12,7.8,21,2.4,24.1,5.5c3.1,3.1,14.5,10.8,25.3,5
				c10.8-5.8,11.1-17.2,7.7-26.3c-3.4-9.2-4-9.6-3-17.6c1-8-3.5-15.4-3-22.2c0.6-6.8,1.6-9.6,4.1-12.9c1.1-1.4,0.9-7.5,3.4-9.6
				C211.3,199.2,216.4,201.2,216.4,201.2z"/>
		</g>
		<path class="st20" d="M206.6,215c0,0-3.3-6.8-7.2-5.1c-3.8,1.7-1.3,7.2,2.5,8C205.8,218.7,206.6,215,206.6,215z"/>
	</g>
	<g>
		<polygon class="st18" points="333.8,427.7 287.1,427.7 240.3,427.7 240.3,397.1 240.3,372.4 287.1,332.6 333.8,372.4 333.8,397.1 
					"/>
	</g>
	<g>
		<polygon class="st19" points="414.4,46.3 461.2,46.3 507.9,46.3 507.9,76.9 507.9,101.6 461.2,141.4 414.4,101.6 414.4,76.9 		"/>
	</g>
</g>
</svg>
