<?xml version="1.0" encoding="utf-8"?>
<!-- Generator: Adobe Illustrator 21.0.0, SVG Export Plug-In . SVG Version: 6.00 Build 0)  -->
<svg version="1.1" id="Слой_1" xmlns="http://www.w3.org/2000/svg" xmlns:xlink="http://www.w3.org/1999/xlink" x="0px" y="0px"
	 viewBox="0 0 750 500" style="enable-background:new 0 0 750 500;" xml:space="preserve">
<style type="text/css">
	.st0{fill:#EFF4F8;}
	.st1{fill:url(#SVGID_1_);}
	.st2{fill:url(#SVGID_2_);}
	.st3{fill:#A3D4EF;}
	.st4{fill:url(#SVGID_3_);}
	.st5{fill:#FFA412;}
	.st6{fill:#FFB93E;}
	.st7{fill:#E2810E;}
	.st8{opacity:0.5;fill:#E2810E;}
	.st9{fill:#003653;}
	.st10{fill:#002039;}
	.st11{fill:#FFEDDC;}
	.st12{fill:#DB6A1D;}
	.st13{fill:#E5C1A1;}
	.st14{fill:#FFB27D;}
	.st15{fill:#001523;}
	.st16{fill:#ED975D;}
	.st17{fill:#FFFFFF;}
	.st18{fill:url(#SVGID_4_);}
	.st19{fill:#233862;}
	.st20{fill:#EBF3FA;}
</style>
<g>
	<g>
		<path class="st0" d="M371,81.8c0,0-56.2-46.2-147.4-19C132.4,90,140.1,162.8,107,217.4C74,272.1,31.1,266.9,19.6,355
			C10,427.8,87.5,531.2,221.8,483.3c134.3-47.9,217.8-24.9,262.8-6.5c56.5,23.2,148.8,18.9,196.7-22.1
			c47.9-41,70.2-112.3,21.9-170.3c-61.2-73.6,24.3-88.7,4.2-155.2c-20.2-66.5-113.6-57.9-146.6-33.4
			C527.8,120.4,410.9,114.4,371,81.8z"/>
		<linearGradient id="SVGID_1_" gradientUnits="userSpaceOnUse" x1="267.4486" y1="354.78" x2="670.5491" y2="354.78">
			<stop  offset="0" style="stop-color:#009FE3"/>
			<stop  offset="1" style="stop-color:#0076DF"/>
		</linearGradient>
		<polygon class="st1" points="670.5,235.2 596.6,259.7 611.4,272 611.4,272 547.4,339 491.4,290.9 267.4,474.3 269.4,474.4 
			325.2,474.4 490.8,338.7 549.9,389.4 639.6,295.5 639.6,295.5 655.7,308.9 		"/>
		<g>
			<linearGradient id="SVGID_2_" gradientUnits="userSpaceOnUse" x1="75.5172" y1="419.5136" x2="311.9744" y2="419.5136">
				<stop  offset="0" style="stop-color:#009FE3"/>
				<stop  offset="1" style="stop-color:#0076DF"/>
			</linearGradient>
			<polygon class="st2" points="312,378.2 294.6,493.8 140.5,470.6 140.5,470.6 75.5,460.8 92.9,345.2 214.2,363.5 			"/>
			<g>
				<path class="st3" d="M297.5,389.2L284,479L87.1,449.4l13.5-89.8L297.5,389.2z M282.9,467.6l10.2-67.7c0.7-4.6-2.5-8.9-7.1-9.6
					L111.4,364c-4.7-0.7-9,2.5-9.7,7.2l-10.1,67.4c-0.7,4.6,2.5,9,7.1,9.7l174.8,26.3C278,475.3,282.2,472.1,282.9,467.6z"/>
			</g>
			
				<ellipse transform="matrix(0.1488 -0.9889 0.9889 0.1488 -250.9383 547.0685)" class="st3" cx="192.3" cy="419.3" rx="24.4" ry="24.4"/>
		</g>
		<g>
			<linearGradient id="SVGID_3_" gradientUnits="userSpaceOnUse" x1="97.0358" y1="328.1231" x2="326.1591" y2="328.1231">
				<stop  offset="0" style="stop-color:#009FE3"/>
				<stop  offset="1" style="stop-color:#0076DF"/>
			</linearGradient>
			<polygon class="st4" points="326.2,378.7 234.5,451.3 137.8,329 137.8,329 97,277.5 188.7,205 264.8,301.2 			"/>
			<g>
				<path class="st3" d="M308,376.9l-71.2,56.3L113.3,277l71.2-56.3L308,376.9z M243.9,424.1l53.7-42.5c3.6-2.9,4.3-8.2,1.4-11.8
					L189.4,231.3c-2.9-3.7-8.3-4.3-12-1.4l-53.5,42.3c-3.7,2.9-4.3,8.3-1.4,11.9l109.6,138.6C235,426.4,240.3,427,243.9,424.1z"/>
			</g>
			
				<ellipse transform="matrix(0.7843 -0.6204 0.6204 0.7843 -157.4066 201.2436)" class="st3" cx="210.7" cy="327" rx="24.4" ry="24.4"/>
		</g>
		<g>
			<path class="st5" d="M524.4,249.9c0.1-0.2,0.2-0.4,0.3-0.6v0l0,0c0.1-0.1,0.2-0.2,0.3-0.3l0.5-0.5l0.1,0.1
				c2.6-1.3,8,0.1,13.4,3.6c6.6,4.3,10.8,10.2,9.6,13.4l0.2,0.1l-0.7,0.7c0,0-0.1,0.1-0.1,0.1l0,0l0,0c-0.2,0.2-0.4,0.3-0.6,0.4l0,0
				l0,0c-2.6,1.3-8,0-13.5-3.6C527.2,259.1,522.9,253,524.4,249.9z"/>
			<path class="st6" d="M539.9,251.5c-6.7-4.4-13.3-5.4-14.8-2.3c-1.4,3.1,2.8,9.2,9.5,13.5c6.7,4.4,13.3,5.4,14.8,2.3
				C550.9,261.9,546.6,255.9,539.9,251.5z"/>
			<g>
				<path class="st5" d="M535,261.8c-2.8-1.8-5.2-4.1-6.8-6.2c-1.6-2.2-2.2-4.2-1.6-5.5c0.3-0.7,0.9-1.1,1.7-1.4
					c2.5-0.7,6.9,0.7,11.2,3.5l0,0c2.8,1.8,5.2,4.1,6.8,6.2c1.6,2.2,2.2,4.2,1.6,5.5c-0.3,0.7-0.9,1.1-1.7,1.4
					c-0.4,0.1-0.9,0.2-1.5,0.2C542.2,265.5,538.6,264.1,535,261.8z M528.5,249.2c-0.7,0.2-1.2,0.6-1.4,1.1c-0.5,1.1,0,3,1.5,5
					c1.5,2.1,3.9,4.3,6.7,6.1c3.4,2.3,7,3.6,9.4,3.6c0.5,0,0.9-0.1,1.3-0.2c0.7-0.2,1.2-0.6,1.4-1.1c0.5-1.1,0-3-1.5-5
					c-1.5-2.1-3.9-4.3-6.7-6.1c-3.4-2.3-7-3.6-9.4-3.6C529.3,249,528.9,249,528.5,249.2z"/>
			</g>
		</g>
		<g>
			<path class="st5" d="M564.9,92.6c0.1-0.1,0.1-0.3,0.2-0.4v0l0,0c0.1-0.1,0.2-0.2,0.2-0.2l0.4-0.4l0.1,0.1
				c1.9-0.9,5.7,0.1,9.5,2.6c4.7,3.1,7.7,7.3,6.8,9.5l0.1,0.1l-0.5,0.5c0,0-0.1,0.1-0.1,0.1l0,0l0,0c-0.1,0.1-0.3,0.2-0.4,0.3l0,0
				l0,0c-1.8,1-5.7,0-9.6-2.5C566.9,99.1,563.8,94.8,564.9,92.6z"/>
			<path class="st6" d="M575.9,93.7c-4.8-3.1-9.5-3.8-10.5-1.6c-1,2.2,2,6.5,6.8,9.6c4.8,3.1,9.5,3.8,10.5,1.6
				C583.7,101.1,580.7,96.8,575.9,93.7z"/>
			<g>
				<path class="st5" d="M572.4,101.1c-2-1.3-3.7-2.9-4.8-4.4c-1.2-1.6-1.5-3-1.1-3.9c0.2-0.5,0.6-0.8,1.2-1
					c1.8-0.5,4.9,0.5,7.9,2.5l0,0c2,1.3,3.7,2.9,4.8,4.4c1.2,1.6,1.5,3,1.1,3.9c-0.2,0.5-0.6,0.8-1.2,1c-0.3,0.1-0.7,0.1-1,0.1
					C577.5,103.7,575,102.7,572.4,101.1z M567.8,92.1c-0.5,0.1-0.8,0.4-1,0.8c-0.4,0.8,0,2.1,1.1,3.6c1.1,1.5,2.8,3.1,4.7,4.3
					c2.4,1.6,5,2.5,6.7,2.5c0.3,0,0.7,0,0.9-0.1c0.5-0.1,0.8-0.4,1-0.8c0.4-0.8,0-2.1-1.1-3.6c-1.1-1.5-2.8-3.1-4.7-4.3
					c-2.4-1.6-5-2.5-6.7-2.5C568.4,92,568.1,92,567.8,92.1z"/>
			</g>
		</g>
		<g>
			<path class="st5" d="M582,217.3c-0.1-0.1-0.2-0.3-0.3-0.4l0,0l0,0c-0.1-0.1-0.2-0.2-0.2-0.2l-0.4-0.4l-0.1,0.1
				c-1.9-0.9-5.8,0.1-9.8,2.7c-4.8,3.1-7.9,7.5-7,9.8l-0.1,0.1l0.5,0.5c0,0,0.1,0.1,0.1,0.1l0,0l0,0c0.1,0.1,0.3,0.2,0.5,0.3l0,0
				l0,0c1.9,1,5.9,0,9.9-2.6C579.9,224,583,219.6,582,217.3z"/>
			<path class="st6" d="M570.6,218.5c4.9-3.2,9.7-4,10.8-1.7c1.1,2.3-2.1,6.7-7,9.9c-4.9,3.2-9.7,4-10.8,1.7
				C562.6,226.1,565.7,221.7,570.6,218.5z"/>
			<g>
				<path class="st5" d="M567.1,228.7c-0.4,0-0.8,0-1.1-0.1c-0.6-0.2-1-0.5-1.3-1c-0.4-1,0-2.4,1.2-4c1.2-1.6,2.9-3.2,5-4.6l0,0
					c3.1-2.1,6.4-3.1,8.2-2.5c0.6,0.2,1,0.5,1.3,1c0.4,1,0,2.4-1.2,4c-1.2,1.6-2.9,3.2-5,4.6C571.6,227.7,568.9,228.7,567.1,228.7z
					 M578,216.6c-1.8,0-4.4,1-6.9,2.6c-2,1.3-3.7,2.9-4.9,4.5c-1.1,1.5-1.5,2.8-1.1,3.7c0.2,0.4,0.5,0.7,1,0.8
					c0.3,0.1,0.6,0.1,1,0.1c1.8,0,4.4-1,6.9-2.6c2-1.3,3.7-2.9,4.9-4.5c1.1-1.5,1.5-2.8,1.1-3.7c-0.2-0.4-0.5-0.7-1-0.8
					C578.6,216.7,578.3,216.6,578,216.6z"/>
			</g>
		</g>
		<g>
			<path class="st5" d="M526.5,129.5c0-0.1,0.1-0.2,0.2-0.2l0,0l0,0c0-0.1,0.1-0.1,0.2-0.2l0.2-0.2l0.1,0c1.2-0.6,3.6,0,6,1.6
				c2.9,1.9,4.8,4.5,4.3,5.9l0.1,0.1l-0.3,0.3c0,0,0,0,0,0l0,0l0,0c-0.1,0.1-0.2,0.1-0.3,0.2l0,0v0c-1.1,0.6-3.6,0-6-1.6
				C527.7,133.6,525.8,130.9,526.5,129.5z"/>
			<path class="st6" d="M533.4,130.2c-3-1.9-5.9-2.4-6.6-1c-0.6,1.4,1.2,4.1,4.2,6c3,1.9,5.9,2.4,6.6,1
				C538.2,134.8,536.3,132.1,533.4,130.2z"/>
			<g>
				<path class="st5" d="M531.2,134.8c-1.2-0.8-2.3-1.8-3-2.8c-0.7-1-1-1.9-0.7-2.4c0.1-0.3,0.4-0.5,0.8-0.6c1.1-0.3,3,0.3,5,1.5
					l0,0c1.2,0.8,2.3,1.8,3,2.8c0.7,1,1,1.9,0.7,2.4c-0.1,0.3-0.4,0.5-0.8,0.6c-0.2,0.1-0.4,0.1-0.7,0.1
					C534.4,136.4,532.8,135.8,531.2,134.8z M528.3,129.1c-0.3,0.1-0.5,0.3-0.6,0.5c-0.2,0.5,0,1.3,0.7,2.2c0.7,0.9,1.7,1.9,3,2.7
					c1.5,1,3.1,1.6,4.2,1.6c0.2,0,0.4,0,0.6-0.1c0.3-0.1,0.5-0.3,0.6-0.5c0.2-0.5,0-1.3-0.7-2.2c-0.7-0.9-1.7-1.9-3-2.7
					c-1.5-1-3.1-1.6-4.2-1.6C528.7,129.1,528.5,129.1,528.3,129.1z"/>
			</g>
		</g>
		<g>
			<path class="st5" d="M303.6,223.4c-0.1-0.2-0.2-0.3-0.3-0.5l0,0l0,0c-0.1-0.1-0.2-0.2-0.3-0.3l-0.4-0.4l-0.1,0.1
				c-2.2-1.1-6.7,0.1-11.3,3.1c-5.5,3.6-9.1,8.6-8.1,11.2l-0.2,0.1l0.6,0.6c0,0,0.1,0.1,0.1,0.1l0,0l0,0c0.2,0.1,0.3,0.3,0.5,0.4
				l0,0l0,0c2.2,1.1,6.7,0,11.4-3C301.3,231.1,304.8,226.1,303.6,223.4z"/>
			<path class="st6" d="M290.6,224.7c5.6-3.7,11.2-4.6,12.4-1.9c1.2,2.6-2.4,7.7-8,11.4c-5.6,3.7-11.2,4.6-12.4,1.9
				C281.3,233.5,284.9,228.4,290.6,224.7z"/>
			<g>
				<path class="st5" d="M286.5,236.5c-0.5,0-0.9-0.1-1.2-0.2c-0.7-0.2-1.2-0.6-1.4-1.2c-0.5-1.1,0-2.8,1.3-4.6
					c1.3-1.8,3.4-3.7,5.7-5.2l0,0c3.6-2.4,7.3-3.5,9.4-2.9c0.7,0.2,1.2,0.6,1.4,1.2c0.5,1.1,0,2.8-1.3,4.6c-1.3,1.8-3.4,3.7-5.7,5.2
					C291.7,235.4,288.6,236.5,286.5,236.5z M299,222.7c-2,0-5,1.1-7.9,3c-2.3,1.5-4.3,3.3-5.6,5.1c-1.3,1.7-1.7,3.3-1.3,4.2
					c0.2,0.5,0.6,0.8,1.2,0.9c0.3,0.1,0.7,0.1,1.1,0.1c2,0,5-1.1,7.9-3c2.3-1.5,4.3-3.3,5.6-5.1c1.3-1.7,1.7-3.3,1.3-4.2
					c-0.2-0.5-0.6-0.8-1.2-0.9C299.8,222.7,299.4,222.7,299,222.7z"/>
			</g>
		</g>
		<g>
			<path class="st5" d="M243.9,152.8c0-0.1-0.1-0.2-0.2-0.3l0,0l0,0c0-0.1-0.1-0.1-0.2-0.2l-0.2-0.3l-0.1,0c-1.3-0.6-3.9,0-6.6,1.8
				c-3.2,2.1-5.3,5-4.7,6.5l-0.1,0.1l0.4,0.4c0,0,0,0,0.1,0.1l0,0l0,0c0.1,0.1,0.2,0.2,0.3,0.2l0,0l0,0c1.3,0.7,3.9,0,6.6-1.8
				C242.5,157.3,244.6,154.3,243.9,152.8z"/>
			<path class="st6" d="M236.3,153.6c3.3-2.1,6.5-2.7,7.2-1.1c0.7,1.5-1.4,4.5-4.7,6.6c-3.3,2.1-6.5,2.7-7.2,1.1
				C230.9,158.7,233,155.7,236.3,153.6z"/>
			<g>
				<path class="st5" d="M233.9,160.4c-0.3,0-0.5,0-0.7-0.1c-0.4-0.1-0.7-0.3-0.8-0.7c-0.3-0.6,0-1.6,0.8-2.7c0.8-1.1,2-2.2,3.3-3.1
					l0,0c2.1-1.4,4.3-2,5.5-1.7c0.4,0.1,0.7,0.3,0.8,0.7c0.3,0.6,0,1.6-0.8,2.7c-0.8,1.1-2,2.2-3.3,3.1
					C236.9,159.8,235.2,160.4,233.9,160.4z M241.2,152.4c-1.2,0-2.9,0.6-4.6,1.8c-1.3,0.9-2.5,1.9-3.3,3c-0.7,1-1,1.9-0.7,2.5
					c0.1,0.3,0.4,0.4,0.7,0.5c0.2,0.1,0.4,0.1,0.6,0.1c1.2,0,2.9-0.6,4.6-1.8c1.3-0.9,2.5-1.9,3.3-3c0.7-1,1-1.9,0.7-2.5
					c-0.1-0.3-0.4-0.4-0.7-0.5C241.7,152.4,241.5,152.4,241.2,152.4z"/>
			</g>
		</g>
		<g>
			<path class="st5" d="M297.8,173.3c0.1-0.1,0.1-0.2,0.2-0.3v0l0,0c0.1-0.1,0.1-0.1,0.2-0.2l0.3-0.3l0.1,0.1c1.6-0.8,5,0,8.4,2.3
				c4.1,2.7,6.8,6.4,6,8.3l0.1,0.1l-0.5,0.5c0,0,0,0-0.1,0.1l0,0l0,0c-0.1,0.1-0.2,0.2-0.4,0.3l0,0l0,0c-1.6,0.8-5,0-8.5-2.2
				C299.6,179,296.9,175.2,297.8,173.3z"/>
			<path class="st6" d="M307.5,174.3c-4.2-2.7-8.3-3.4-9.2-1.4c-0.9,1.9,1.8,5.7,5.9,8.5c4.2,2.7,8.3,3.4,9.2,1.4
				C314.4,180.8,311.7,177,307.5,174.3z"/>
			<g>
				<path class="st5" d="M304.5,180.7c-1.8-1.1-3.3-2.5-4.3-3.9c-1-1.4-1.4-2.6-1-3.4c0.2-0.4,0.6-0.7,1.1-0.9
					c1.5-0.4,4.3,0.4,7,2.2l0,0c1.8,1.1,3.3,2.5,4.3,3.9c1,1.4,1.4,2.6,1,3.4c-0.2,0.4-0.6,0.7-1.1,0.9c-0.3,0.1-0.6,0.1-0.9,0.1
					C308.9,183,306.7,182.2,304.5,180.7z M300.4,172.8c-0.4,0.1-0.7,0.4-0.9,0.7c-0.3,0.7,0,1.9,1,3.1c1,1.3,2.5,2.7,4.2,3.8
					c2.1,1.4,4.4,2.2,5.9,2.2c0.3,0,0.6,0,0.8-0.1c0.4-0.1,0.7-0.4,0.9-0.7c0.3-0.7,0-1.9-1-3.1c-1-1.3-2.5-2.7-4.2-3.8
					c-2.1-1.4-4.4-2.2-5.9-2.2C300.9,172.7,300.6,172.8,300.4,172.8z"/>
			</g>
		</g>
		<g>
			<g>
				<path class="st6" d="M458.6,486.1v5.1c0,0.4-0.1,0.8-0.4,1.1c-0.3,0.3-0.6,0.6-1.1,0.7c-0.1,0-0.3,0.1-0.4,0.1
					c-0.1,0-0.3,0-0.4,0h-96.2c-1.2,0-2.3-0.8-2.3-1.9c0,0,0-0.1,0-0.1v-5.1c0,0,0-0.1,0-0.1c0.1-1,1.1-1.9,2.3-1.9h96.2
					c0.1,0,0.3,0,0.4,0c0.1,0,0.3,0.1,0.4,0.1c0.4,0.1,0.8,0.4,1.1,0.7C458.4,485.3,458.6,485.7,458.6,486.1z"/>
				<path class="st5" d="M411.3,493.1h-51.5c-1.1,0-2-0.8-2.1-1.9c0,0,0-0.1,0-0.1v-5.1c0,0,0-0.1,0-0.1c0.1-1,1-1.9,2.1-1.9H405
					C405.7,486.8,407.4,490.5,411.3,493.1z"/>
				<g>
					<rect x="445.8" y="484.2" class="st5" width="1.1" height="9"/>
					<rect x="442.1" y="484.2" class="st5" width="1.1" height="9"/>
					<rect x="437.6" y="484.2" class="st5" width="1.1" height="9"/>
					<rect x="430.8" y="484.2" class="st5" width="1.1" height="9"/>
					<rect x="423.7" y="484.2" class="st5" width="1.1" height="9"/>
					<rect x="412.6" y="484.2" class="st5" width="1.1" height="9"/>
					<rect x="402.3" y="484.2" class="st5" width="1.1" height="9"/>
					<rect x="393.1" y="484.2" class="st5" width="1.1" height="9"/>
					<rect x="449.3" y="484.2" class="st5" width="1.1" height="9"/>
					<rect x="451.6" y="484.2" class="st5" width="1.1" height="9"/>
					<rect x="453.9" y="484.2" class="st5" width="1.1" height="9"/>
					<path class="st5" d="M456.7,484.2v8.9c-0.1,0-0.3,0-0.4,0h-0.7v-9h0.7C456.4,484.2,456.5,484.2,456.7,484.2z"/>
					<path class="st5" d="M458.2,485v7.3c-0.3,0.3-0.6,0.6-1.1,0.7v-8.7C457.5,484.4,457.9,484.7,458.2,485z"/>
				</g>
			</g>
			<g>
				<path class="st6" d="M448.3,477.1v5.1c0,0.4-0.1,0.8-0.4,1.1c-0.3,0.3-0.6,0.6-1.1,0.7c-0.1,0-0.3,0.1-0.4,0.1
					c-0.1,0-0.3,0-0.4,0h-96.2c-1.2,0-2.3-0.8-2.3-1.9c0,0,0-0.1,0-0.1v-5.1c0,0,0-0.1,0-0.1c0.1-1,1.1-1.9,2.3-1.9H446
					c0.1,0,0.1,0,0.2,0c0,0,0.1,0,0.1,0c0,0,0.1,0,0.1,0c0,0,0,0,0.1,0c0.1,0,0.3,0.1,0.4,0.1c0,0,0,0,0.1,0c0,0,0,0,0.1,0
					c0,0,0.1,0,0.1,0c0,0,0,0,0.1,0c0,0,0,0,0.1,0c0,0,0.1,0,0.1,0.1c0,0,0.1,0,0.1,0.1c0,0,0.1,0,0.1,0.1c0,0,0,0,0,0
					c0,0,0,0,0.1,0c0.1,0,0.1,0.1,0.2,0.1c0,0,0,0,0,0c0,0,0,0,0,0c0,0,0.1,0.1,0.1,0.1C448.2,476.4,448.3,476.7,448.3,477.1z"/>
				<path class="st5" d="M401.1,484.2h-51.5c-1.1,0-2-0.8-2.1-1.9c0,0,0-0.1,0-0.1v-5.1c0,0,0-0.1,0-0.1c0.1-1,1-1.9,2.1-1.9h45.2
					c0,0.1,0,0.1,0.1,0.2C395.5,478,397.2,481.6,401.1,484.2z"/>
				<g>
					<rect x="435.5" y="475.2" class="st5" width="1.1" height="9"/>
					<rect x="431.8" y="475.2" class="st5" width="1.1" height="9"/>
					<rect x="427.4" y="475.2" class="st5" width="1.1" height="9"/>
					<rect x="420.6" y="475.2" class="st5" width="1.1" height="9"/>
					<rect x="413.4" y="475.2" class="st5" width="1.1" height="9"/>
					<rect x="402.3" y="475.2" class="st5" width="1.1" height="9"/>
					<rect x="392" y="475.2" class="st5" width="1.1" height="9"/>
					<rect x="382.8" y="475.2" class="st5" width="1.1" height="9"/>
					<rect x="439" y="475.2" class="st5" width="1.1" height="9"/>
					<rect x="441.4" y="475.2" class="st5" width="1.1" height="9"/>
					<rect x="443.6" y="475.2" class="st5" width="1.1" height="9"/>
					<path class="st5" d="M446.4,475.2v8.9c-0.1,0-0.3,0-0.4,0h-0.7v-9h0.7C446.1,475.2,446.2,475.2,446.4,475.2z"/>
					<path class="st5" d="M447.9,476v7.3c-0.3,0.3-0.6,0.6-1.1,0.7v-8.7C447.3,475.5,447.6,475.7,447.9,476z"/>
				</g>
			</g>
			<g>
				<path class="st6" d="M453.3,468.4v5.1c0,0.4-0.1,0.8-0.4,1.1c-0.3,0.3-0.6,0.6-1.1,0.7c-0.1,0-0.3,0.1-0.4,0.1
					c-0.1,0-0.3,0-0.4,0h-96.2c-0.4,0-0.8-0.1-1.1-0.2c-0.7-0.3-1.2-0.9-1.2-1.5c0,0,0-0.1,0-0.1c0,0,0-0.1,0-0.1v-5.1
					c0,0,0-0.1,0-0.1c0.1-1,1.1-1.9,2.3-1.9h96.2c0.1,0,0.3,0,0.4,0c0.1,0,0.3,0.1,0.4,0.1c0.4,0.1,0.8,0.4,1.1,0.7
					C453.1,467.6,453.3,468,453.3,468.4z"/>
				<path class="st5" d="M406,475.4h-51.5c-0.3,0-0.7-0.1-1-0.2c-0.6-0.3-1-0.9-1.1-1.5c0,0,0-0.1,0-0.1c0,0,0-0.1,0-0.1v-5.1
					c0,0,0-0.1,0-0.1c0.1-1,1-1.9,2.1-1.9h45.2c0.7,2.6,2.3,6.1,6,8.8C405.8,475.3,405.9,475.3,406,475.4z"/>
				<g>
					<rect x="440.5" y="466.4" class="st5" width="1.1" height="9"/>
					<rect x="436.8" y="466.4" class="st5" width="1.1" height="9"/>
					<rect x="432.3" y="466.4" class="st5" width="1.1" height="9"/>
					<rect x="425.5" y="466.4" class="st5" width="1.1" height="9"/>
					<rect x="418.3" y="466.4" class="st5" width="1.1" height="9"/>
					<rect x="407.3" y="466.4" class="st5" width="1.1" height="9"/>
					<rect x="397" y="466.4" class="st5" width="1.1" height="9"/>
					<rect x="387.8" y="466.4" class="st5" width="1.1" height="9"/>
					<rect x="444" y="466.4" class="st5" width="1.1" height="9"/>
					<rect x="446.3" y="466.4" class="st5" width="1.1" height="9"/>
					<rect x="448.6" y="466.4" class="st5" width="1.1" height="9"/>
					<path class="st5" d="M451.4,466.5v8.9c-0.1,0-0.3,0-0.4,0h-0.7v-9h0.7C451.1,466.4,451.2,466.4,451.4,466.5z"/>
					<path class="st5" d="M452.9,467.3v7.3c-0.3,0.3-0.6,0.6-1.1,0.7v-8.7C452.2,466.7,452.6,467,452.9,467.3z"/>
				</g>
			</g>
			<g>
				<path class="st6" d="M455.6,459.4v5.1c0,0.4-0.1,0.8-0.4,1.1c-0.3,0.3-0.6,0.6-1.1,0.7c-0.1,0-0.3,0.1-0.4,0.1
					c-0.1,0-0.3,0-0.4,0H357c-1.2,0-2.3-0.8-2.3-1.9c0,0,0-0.1,0-0.1v-5.1c0,0,0-0.1,0-0.1c0.1-1,0.9-1.7,2-1.8c0.1,0,0.2,0,0.3,0
					h96.2c0.1,0,0.3,0,0.4,0c0.1,0,0.3,0.1,0.4,0.1c0.4,0.1,0.8,0.4,1.1,0.7C455.4,458.6,455.6,459,455.6,459.4z"/>
				<path class="st5" d="M408.3,466.4h-51.5c-1.1,0-2-0.8-2.1-1.9c0,0,0-0.1,0-0.1v-5.1c0,0,0-0.1,0-0.1c0.1-1,0.8-1.7,1.8-1.8
					c0.1,0,0.2,0,0.2,0H402c0,0,0,0,0,0C402.7,460.1,404.4,463.7,408.3,466.4z"/>
				<g>
					<rect x="442.8" y="457.4" class="st5" width="1.1" height="9"/>
					<rect x="439.1" y="457.4" class="st5" width="1.1" height="9"/>
					<rect x="434.6" y="457.4" class="st5" width="1.1" height="9"/>
					<rect x="427.8" y="457.4" class="st5" width="1.1" height="9"/>
					<rect x="420.6" y="457.4" class="st5" width="1.1" height="9"/>
					<rect x="409.6" y="457.4" class="st5" width="1.1" height="9"/>
					<rect x="399.3" y="457.4" class="st5" width="1.1" height="9"/>
					<rect x="390.1" y="457.4" class="st5" width="1.1" height="9"/>
					<rect x="446.3" y="457.4" class="st5" width="1.1" height="9"/>
					<rect x="448.6" y="457.4" class="st5" width="1.1" height="9"/>
					<rect x="450.9" y="457.4" class="st5" width="1.1" height="9"/>
					<path class="st5" d="M453.7,457.5v8.9c-0.1,0-0.3,0-0.4,0h-0.7v-9h0.7C453.4,457.4,453.5,457.5,453.7,457.5z"/>
					<path class="st5" d="M455.2,458.3v7.3c-0.3,0.3-0.6,0.6-1.1,0.7v-8.7C454.5,457.7,454.9,458,455.2,458.3z"/>
				</g>
			</g>
			<g>
				<path class="st6" d="M448.5,450.4v5.1c0,0.4-0.1,0.8-0.4,1.1c-0.3,0.3-0.6,0.6-1.1,0.7c-0.1,0-0.3,0.1-0.4,0.1c0,0-0.1,0-0.1,0
					c0,0-0.1,0-0.1,0c0,0-0.1,0-0.1,0c0,0-0.1,0-0.1,0H350c-1.2,0-2.3-0.8-2.3-1.9c0,0,0-0.1,0-0.1v-5.1c0,0,0-0.1,0-0.1
					c0,0,0-0.1,0-0.1c0.1-0.8,0.8-1.5,1.7-1.7c0,0,0,0,0.1,0c0.2,0,0.3,0,0.5,0h96.2c0.1,0,0.1,0,0.2,0c0,0,0.1,0,0.1,0h0
					c0,0,0.1,0,0.1,0c0.1,0,0.3,0.1,0.4,0.1c0.4,0.1,0.8,0.4,1.1,0.7C448.4,449.7,448.5,450,448.5,450.4z"/>
				<path class="st5" d="M401.3,457.5h-51.5c-1.1,0-2-0.8-2.1-1.9c0,0,0-0.1,0-0.1v-5.1c0,0,0-0.1,0-0.1c0,0,0-0.1,0-0.1
					c0.1-0.8,0.7-1.5,1.6-1.7c0,0,0.1,0,0.1,0c0.1,0,0.2,0,0.4,0h45.2c0,0,0,0,0,0.1C395.7,451.2,397.4,454.8,401.3,457.5
					C401.2,457.4,401.3,457.5,401.3,457.5z"/>
				<g>
					<rect x="435.7" y="448.5" class="st5" width="1.1" height="9"/>
					<rect x="432" y="448.5" class="st5" width="1.1" height="9"/>
					<rect x="427.6" y="448.5" class="st5" width="1.1" height="9"/>
					<rect x="420.8" y="448.5" class="st5" width="1.1" height="9"/>
					<rect x="413.6" y="448.5" class="st5" width="1.1" height="9"/>
					<rect x="402.5" y="448.5" class="st5" width="1.1" height="9"/>
					<rect x="392.2" y="448.5" class="st5" width="1.1" height="9"/>
					<rect x="383" y="448.5" class="st5" width="1.1" height="9"/>
					<rect x="439.2" y="448.5" class="st5" width="1.1" height="9"/>
					<rect x="441.6" y="448.5" class="st5" width="1.1" height="9"/>
					<rect x="443.8" y="448.5" class="st5" width="1.1" height="9"/>
					<path class="st5" d="M446.6,448.5v8.9c-0.1,0-0.3,0-0.4,0h-0.7v-9h0.7C446.3,448.5,446.5,448.5,446.6,448.5z"/>
					<path class="st5" d="M448.1,449.3v7.3c-0.3,0.3-0.6,0.6-1.1,0.7v-8.7C447.5,448.8,447.8,449,448.1,449.3z"/>
				</g>
			</g>
			<g>
				<path class="st6" d="M448.3,441.5v5.1c0,0.4-0.1,0.8-0.4,1.1c-0.3,0.3-0.6,0.6-1.1,0.7c-0.1,0-0.2,0.1-0.3,0.1h0
					c0,0-0.1,0-0.1,0c-0.1,0-0.3,0-0.4,0h-96.2c-0.1,0-0.2,0-0.3,0c0,0-0.1,0-0.1,0c-1-0.2-1.9-0.9-1.9-1.8c0,0,0-0.1,0-0.1v-5.1
					c0,0,0-0.1,0-0.1c0.1-1,1.1-1.9,2.3-1.9H446c0.1,0,0.1,0,0.2,0c0,0,0.1,0,0.1,0c0,0,0.1,0,0.1,0c0,0,0,0,0.1,0
					c0.1,0,0.3,0.1,0.4,0.1c0,0,0,0,0.1,0c0,0,0,0,0.1,0c0,0,0.1,0,0.1,0c0,0,0.1,0,0.1,0.1c0,0,0.1,0,0.1,0.1c0,0,0.1,0,0.1,0.1
					c0,0,0.1,0,0.1,0.1c0,0,0,0,0,0c0,0,0,0,0.1,0c0.1,0,0.1,0.1,0.2,0.1c0,0,0,0,0,0c0,0,0,0,0,0c0,0,0.1,0.1,0.1,0.1
					C448.2,440.7,448.3,441.1,448.3,441.5z"/>
				<path class="st5" d="M401.1,448.5h-51.5c0,0-0.1,0-0.1,0c0,0-0.1,0-0.1,0c-1-0.1-1.8-0.9-1.8-1.8c0,0,0-0.1,0-0.1v-5.1
					c0,0,0-0.1,0-0.1c0.1-1,1-1.9,2.1-1.9h45.2c0,0.1,0,0.1,0.1,0.2C395.5,442.4,397.2,445.9,401.1,448.5
					C401,448.5,401,448.5,401.1,448.5z"/>
				<g>
					<rect x="435.5" y="439.6" class="st5" width="1.1" height="9"/>
					<rect x="431.8" y="439.6" class="st5" width="1.1" height="9"/>
					<rect x="427.4" y="439.6" class="st5" width="1.1" height="9"/>
					<rect x="420.6" y="439.6" class="st5" width="1.1" height="9"/>
					<rect x="413.4" y="439.6" class="st5" width="1.1" height="9"/>
					<rect x="402.3" y="439.6" class="st5" width="1.1" height="9"/>
					<rect x="392" y="439.6" class="st5" width="1.1" height="9"/>
					<rect x="382.8" y="439.6" class="st5" width="1.1" height="9"/>
					<rect x="439" y="439.6" class="st5" width="1.1" height="9"/>
					<rect x="441.4" y="439.6" class="st5" width="1.1" height="9"/>
					<rect x="443.6" y="439.6" class="st5" width="1.1" height="9"/>
					<path class="st5" d="M446.4,439.6v8.9c-0.1,0-0.3,0-0.4,0h-0.7v-9h0.7C446.1,439.6,446.2,439.6,446.4,439.6z"/>
					<path class="st5" d="M447.9,440.4v7.3c-0.3,0.3-0.6,0.6-1.1,0.7v-8.7C447.3,439.8,447.6,440.1,447.9,440.4z"/>
				</g>
			</g>
			<g>
				<path class="st6" d="M453.3,432.8v5.1c0,0.4-0.1,0.8-0.4,1.1c-0.3,0.3-0.6,0.6-1.1,0.7c-0.1,0-0.3,0.1-0.4,0.1
					c-0.1,0-0.3,0-0.4,0h-96.2c-0.4,0-0.8-0.1-1.1-0.2c-0.7-0.3-1.2-0.9-1.2-1.5c0,0,0-0.1,0-0.1c0,0,0-0.1,0-0.1v-5.1
					c0,0,0-0.1,0-0.1c0.1-1,1.1-1.9,2.3-1.9h96.2c0.1,0,0.3,0,0.4,0c0.1,0,0.3,0.1,0.4,0.1c0.4,0.1,0.8,0.4,1.1,0.7
					C453.1,432,453.3,432.3,453.3,432.8z"/>
				<path class="st5" d="M406,439.8h-51.5c-0.3,0-0.7-0.1-1-0.2c-0.6-0.3-1-0.9-1.1-1.5c0,0,0-0.1,0-0.1c0,0,0-0.1,0-0.1v-5.1
					c0,0,0-0.1,0-0.1c0.1-1,1-1.9,2.1-1.9h45.2c0.7,2.6,2.3,6.1,6,8.8C405.8,439.6,405.9,439.7,406,439.8z"/>
				<g>
					<rect x="440.5" y="430.8" class="st5" width="1.1" height="9"/>
					<rect x="436.8" y="430.8" class="st5" width="1.1" height="9"/>
					<rect x="432.3" y="430.8" class="st5" width="1.1" height="9"/>
					<rect x="425.5" y="430.8" class="st5" width="1.1" height="9"/>
					<rect x="418.3" y="430.8" class="st5" width="1.1" height="9"/>
					<rect x="407.3" y="430.8" class="st5" width="1.1" height="9"/>
					<rect x="397" y="430.8" class="st5" width="1.1" height="9"/>
					<rect x="387.8" y="430.8" class="st5" width="1.1" height="9"/>
					<rect x="444" y="430.8" class="st5" width="1.1" height="9"/>
					<rect x="446.3" y="430.8" class="st5" width="1.1" height="9"/>
					<rect x="448.6" y="430.8" class="st5" width="1.1" height="9"/>
					<path class="st5" d="M451.4,430.8v8.9c-0.1,0-0.3,0-0.4,0h-0.7v-9h0.7C451.1,430.8,451.2,430.8,451.4,430.8z"/>
					<path class="st5" d="M452.9,431.7v7.3c-0.3,0.3-0.6,0.6-1.1,0.7v-8.7C452.2,431.1,452.6,431.3,452.9,431.7z"/>
				</g>
			</g>
			<g>
				<path class="st6" d="M461.1,423.8v5.1c0,0.4-0.1,0.8-0.4,1.1c-0.3,0.3-0.6,0.6-1.1,0.7c-0.1,0-0.3,0.1-0.4,0.1
					c-0.1,0-0.3,0-0.4,0h-96.2c-1.2,0-2.3-0.8-2.3-1.9c0,0,0-0.1,0-0.1v-5.1c0,0,0-0.1,0-0.1c0.1-1,0.9-1.7,2-1.8c0.1,0,0.2,0,0.3,0
					h96.2c0.1,0,0.3,0,0.4,0c0.1,0,0.3,0.1,0.4,0.1c0.4,0.1,0.8,0.4,1.1,0.7C461,423,461.1,423.4,461.1,423.8z"/>
				<path class="st5" d="M413.9,430.8h-51.5c-1.1,0-2-0.8-2.1-1.9c0,0,0-0.1,0-0.1v-5.1c0,0,0-0.1,0-0.1c0.1-1,0.8-1.7,1.8-1.8
					c0.1,0,0.2,0,0.2,0h45.2c0,0,0,0,0,0C408.3,424.5,410,428.1,413.9,430.8z"/>
				<g>
					<rect x="448.3" y="421.8" class="st5" width="1.1" height="9"/>
					<rect x="444.6" y="421.8" class="st5" width="1.1" height="9"/>
					<rect x="440.2" y="421.8" class="st5" width="1.1" height="9"/>
					<rect x="433.4" y="421.8" class="st5" width="1.1" height="9"/>
					<rect x="426.2" y="421.8" class="st5" width="1.1" height="9"/>
					<rect x="415.2" y="421.8" class="st5" width="1.1" height="9"/>
					<rect x="404.8" y="421.8" class="st5" width="1.1" height="9"/>
					<rect x="395.6" y="421.8" class="st5" width="1.1" height="9"/>
					<rect x="451.9" y="421.8" class="st5" width="1.1" height="9"/>
					<rect x="454.2" y="421.8" class="st5" width="1.1" height="9"/>
					<rect x="456.4" y="421.8" class="st5" width="1.1" height="9"/>
					<path class="st5" d="M459.2,421.8v8.9c-0.1,0-0.3,0-0.4,0h-0.7v-9h0.7C458.9,421.8,459.1,421.8,459.2,421.8z"/>
					<path class="st5" d="M460.7,422.7v7.3c-0.3,0.3-0.6,0.6-1.1,0.7v-8.7C460.1,422.1,460.5,422.4,460.7,422.7z"/>
				</g>
			</g>
			<g>
				<path class="st6" d="M448.5,414.8v5.1c0,0.4-0.1,0.8-0.4,1.1c-0.3,0.3-0.6,0.6-1.1,0.7c-0.1,0-0.3,0.1-0.4,0.1c0,0-0.1,0-0.1,0
					c0,0-0.1,0-0.1,0c0,0,0,0-0.1,0c0,0-0.1,0-0.1,0H350c-1.2,0-2.3-0.8-2.3-1.9c0,0,0-0.1,0-0.1v-5.1c0,0,0-0.1,0-0.1
					c0.1-1,1.1-1.9,2.3-1.9h96.2c0,0,0.1,0,0.1,0c0.1,0,0.2,0,0.3,0c0.1,0,0.3,0.1,0.4,0.1c0.1,0,0.1,0,0.2,0.1c0,0,0.1,0,0.1,0.1
					c0,0,0,0,0,0c0,0,0.1,0,0.1,0.1c0,0,0,0,0,0c0,0,0.1,0,0.1,0.1c0.1,0.1,0.2,0.1,0.2,0.2c0,0,0,0,0.1,0.1c0,0,0,0,0,0
					c0,0,0,0,0,0c0,0,0,0,0,0c0,0,0,0,0.1,0.1c0,0,0.1,0.1,0.1,0.1C448.4,414,448.5,414.4,448.5,414.8z"/>
				<path class="st5" d="M401.3,421.8h-51.5c-1.1,0-2-0.8-2.1-1.9c0,0,0-0.1,0-0.1v-5.1c0,0,0-0.1,0-0.1c0.1-1,1-1.9,2.1-1.9h45.2
					c0,0.1,0,0.1,0.1,0.2C395.7,415.7,397.4,419.2,401.3,421.8C401.2,421.8,401.3,421.8,401.3,421.8z"/>
				<g>
					<rect x="435.7" y="412.9" class="st5" width="1.1" height="9"/>
					<rect x="432" y="412.9" class="st5" width="1.1" height="9"/>
					<rect x="427.6" y="412.9" class="st5" width="1.1" height="9"/>
					<rect x="420.8" y="412.9" class="st5" width="1.1" height="9"/>
					<rect x="413.6" y="412.9" class="st5" width="1.1" height="9"/>
					<rect x="402.5" y="412.9" class="st5" width="1.1" height="9"/>
					<rect x="392.2" y="412.9" class="st5" width="1.1" height="9"/>
					<rect x="383" y="412.9" class="st5" width="1.1" height="9"/>
					<rect x="439.2" y="412.9" class="st5" width="1.1" height="9"/>
					<rect x="441.6" y="412.9" class="st5" width="1.1" height="9"/>
					<rect x="443.8" y="412.9" class="st5" width="1.1" height="9"/>
					<path class="st5" d="M446.6,412.9v8.9c-0.1,0-0.3,0-0.4,0h-0.7v-9h0.7C446.3,412.9,446.5,412.9,446.6,412.9z"/>
					<path class="st5" d="M448.1,413.7v7.3c-0.3,0.3-0.6,0.6-1.1,0.7V413C447.5,413.1,447.8,413.4,448.1,413.7z"/>
				</g>
			</g>
			<g>
				<path class="st6" d="M455.6,406v5.1c0,0.4-0.1,0.8-0.4,1.1c-0.3,0.3-0.6,0.6-1.1,0.7c-0.1,0-0.3,0.1-0.4,0.1c-0.1,0-0.3,0-0.4,0
					H357c-0.4,0-0.7-0.1-1-0.2c-0.7-0.3-1.2-0.9-1.3-1.6c0,0,0-0.1,0-0.1c0,0,0-0.1,0-0.1V406c0,0,0-0.1,0-0.1c0.1-1,0.9-1.7,2-1.8
					c0.1,0,0.2,0,0.3,0h96.2c0.1,0,0.3,0,0.4,0c0.1,0,0.3,0.1,0.4,0.1c0.4,0.1,0.8,0.4,1.1,0.7C455.4,405.3,455.6,405.6,455.6,406z"
					/>
				<path class="st5" d="M408.3,413.1h-51.5c-0.3,0-0.6-0.1-0.9-0.2c-0.6-0.3-1.1-0.9-1.1-1.6c0,0,0-0.1,0-0.1c0,0,0-0.1,0-0.1V406
					c0,0,0-0.1,0-0.1c0.1-1,0.8-1.7,1.8-1.8c0.1,0,0.2,0,0.2,0H402c0,0,0,0,0,0c0.7,2.6,2.3,6.1,6,8.8
					C408.1,412.9,408.2,413,408.3,413.1z"/>
				<g>
					<rect x="442.8" y="404.1" class="st5" width="1.1" height="9"/>
					<rect x="439.1" y="404.1" class="st5" width="1.1" height="9"/>
					<rect x="434.6" y="404.1" class="st5" width="1.1" height="9"/>
					<rect x="427.8" y="404.1" class="st5" width="1.1" height="9"/>
					<rect x="420.6" y="404.1" class="st5" width="1.1" height="9"/>
					<rect x="409.6" y="404.1" class="st5" width="1.1" height="9"/>
					<rect x="399.3" y="404.1" class="st5" width="1.1" height="9"/>
					<rect x="390.1" y="404.1" class="st5" width="1.1" height="9"/>
					<rect x="446.3" y="404.1" class="st5" width="1.1" height="9"/>
					<rect x="448.6" y="404.1" class="st5" width="1.1" height="9"/>
					<rect x="450.9" y="404.1" class="st5" width="1.1" height="9"/>
					<path class="st5" d="M453.7,404.1v8.9c-0.1,0-0.3,0-0.4,0h-0.7v-9h0.7C453.4,404.1,453.5,404.1,453.7,404.1z"/>
					<path class="st5" d="M455.2,404.9v7.3c-0.3,0.3-0.6,0.6-1.1,0.7v-8.7C454.5,404.4,454.9,404.6,455.2,404.9z"/>
				</g>
			</g>
			<g>
				<path class="st6" d="M458.6,397.1v5.1c0,0.4-0.1,0.8-0.4,1.1c-0.3,0.3-0.6,0.6-1.1,0.7c-0.1,0-0.3,0.1-0.4,0.1c0,0-0.1,0-0.1,0
					c0,0-0.1,0-0.1,0c0,0-0.1,0-0.1,0c0,0-0.1,0-0.1,0h-96.2c-1.2,0-2.3-0.8-2.3-1.9c0,0,0-0.1,0-0.1v-5.1c0,0,0-0.1,0-0.1
					c0.1-1,1.1-1.9,2.3-1.9h96.2c0.1,0,0.3,0,0.4,0c0.1,0,0.3,0.1,0.4,0.1c0.4,0.1,0.8,0.4,1.1,0.7
					C458.4,396.3,458.6,396.7,458.6,397.1z"/>
				<path class="st5" d="M411.3,404.1h-51.5c-1.1,0-2-0.8-2.1-1.9c0,0,0-0.1,0-0.1v-5.1c0,0,0-0.1,0-0.1c0.1-1,1-1.9,2.1-1.9H405
					C405.7,397.8,407.4,401.4,411.3,404.1C411.3,404.1,411.3,404.1,411.3,404.1z"/>
				<g>
					<rect x="445.8" y="395.1" class="st5" width="1.1" height="9"/>
					<rect x="442.1" y="395.1" class="st5" width="1.1" height="9"/>
					<rect x="437.6" y="395.1" class="st5" width="1.1" height="9"/>
					<rect x="430.8" y="395.1" class="st5" width="1.1" height="9"/>
					<rect x="423.7" y="395.1" class="st5" width="1.1" height="9"/>
					<rect x="412.6" y="395.1" class="st5" width="1.1" height="9"/>
					<rect x="402.3" y="395.1" class="st5" width="1.1" height="9"/>
					<rect x="393.1" y="395.1" class="st5" width="1.1" height="9"/>
					<rect x="449.3" y="395.1" class="st5" width="1.1" height="9"/>
					<rect x="451.6" y="395.1" class="st5" width="1.1" height="9"/>
					<rect x="453.9" y="395.1" class="st5" width="1.1" height="9"/>
					<path class="st5" d="M456.7,395.1v8.9c-0.1,0-0.3,0-0.4,0h-0.7v-9h0.7C456.4,395.1,456.5,395.1,456.7,395.1z"/>
					<path class="st5" d="M458.2,396v7.3c-0.3,0.3-0.6,0.6-1.1,0.7v-8.7C457.5,395.4,457.9,395.6,458.2,396z"/>
				</g>
			</g>
		</g>
		<g>
			<g>
				<path class="st6" d="M453.6,387.9v5.1c0,0.4-0.1,0.8-0.4,1.1c-0.3,0.3-0.6,0.6-1.1,0.7c-0.1,0-0.3,0.1-0.4,0.1
					c-0.1,0-0.3,0-0.4,0h-96.2c-1.2,0-2.3-0.8-2.3-1.9c0,0,0-0.1,0-0.1v-5.1c0,0,0-0.1,0-0.1c0.1-1,1.1-1.9,2.3-1.9h96.2
					c0.1,0,0.3,0,0.4,0c0.1,0,0.3,0.1,0.4,0.1c0.4,0.1,0.8,0.4,1.1,0.7C453.4,387.2,453.6,387.5,453.6,387.9z"/>
				<path class="st5" d="M406.3,395h-51.5c-1.1,0-2-0.8-2.1-1.9c0,0,0-0.1,0-0.1v-5.1c0,0,0-0.1,0-0.1c0.1-1,1-1.9,2.1-1.9H400
					C400.7,388.6,402.4,392.3,406.3,395z"/>
				<g>
					<rect x="440.8" y="386" class="st5" width="1.1" height="9"/>
					<rect x="437.1" y="386" class="st5" width="1.1" height="9"/>
					<rect x="432.6" y="386" class="st5" width="1.1" height="9"/>
					<rect x="425.8" y="386" class="st5" width="1.1" height="9"/>
					<rect x="418.6" y="386" class="st5" width="1.1" height="9"/>
					<rect x="407.6" y="386" class="st5" width="1.1" height="9"/>
					<rect x="397.3" y="386" class="st5" width="1.1" height="9"/>
					<rect x="388.1" y="386" class="st5" width="1.1" height="9"/>
					<rect x="444.3" y="386" class="st5" width="1.1" height="9"/>
					<rect x="446.6" y="386" class="st5" width="1.1" height="9"/>
					<rect x="448.9" y="386" class="st5" width="1.1" height="9"/>
					<path class="st5" d="M451.7,386v8.9c-0.1,0-0.3,0-0.4,0h-0.7v-9h0.7C451.4,386,451.5,386,451.7,386z"/>
					<path class="st5" d="M453.2,386.8v7.3c-0.3,0.3-0.6,0.6-1.1,0.7v-8.7C452.5,386.3,452.9,386.5,453.2,386.8z"/>
				</g>
			</g>
			<g>
				<path class="st6" d="M443.3,379v5.1c0,0.4-0.1,0.8-0.4,1.1c-0.3,0.3-0.6,0.6-1.1,0.7c-0.1,0-0.3,0.1-0.4,0.1c-0.1,0-0.3,0-0.4,0
					h-96.2c-1.2,0-2.3-0.8-2.3-1.9c0,0,0-0.1,0-0.1V379c0,0,0-0.1,0-0.1c0.1-1,1.1-1.9,2.3-1.9H441c0.1,0,0.1,0,0.2,0
					c0,0,0.1,0,0.1,0c0,0,0.1,0,0.1,0c0,0,0,0,0.1,0c0.1,0,0.3,0.1,0.4,0.1c0,0,0,0,0.1,0c0,0,0,0,0.1,0c0,0,0.1,0,0.1,0
					c0,0,0,0,0.1,0c0,0,0,0,0.1,0c0,0,0.1,0,0.1,0.1c0,0,0.1,0,0.1,0.1c0,0,0.1,0,0.1,0.1c0,0,0,0,0,0c0,0,0,0,0.1,0
					c0.1,0,0.1,0.1,0.2,0.1c0,0,0,0,0,0c0,0,0,0,0,0c0,0,0.1,0.1,0.1,0.1C443.2,378.2,443.3,378.5,443.3,379z"/>
				<path class="st5" d="M396.1,386h-51.5c-1.1,0-2-0.8-2.1-1.9c0,0,0-0.1,0-0.1V379c0,0,0-0.1,0-0.1c0.1-1,1-1.9,2.1-1.9h45.2
					c0,0.1,0,0.1,0.1,0.2C390.5,379.8,392.2,383.4,396.1,386z"/>
				<g>
					<rect x="430.5" y="377" class="st5" width="1.1" height="9"/>
					<rect x="426.8" y="377" class="st5" width="1.1" height="9"/>
					<rect x="422.4" y="377" class="st5" width="1.1" height="9"/>
					<rect x="415.6" y="377" class="st5" width="1.1" height="9"/>
					<rect x="408.4" y="377" class="st5" width="1.1" height="9"/>
					<rect x="397.3" y="377" class="st5" width="1.1" height="9"/>
					<rect x="387" y="377" class="st5" width="1.1" height="9"/>
					<rect x="377.8" y="377" class="st5" width="1.1" height="9"/>
					<rect x="434" y="377" class="st5" width="1.1" height="9"/>
					<rect x="436.3" y="377" class="st5" width="1.1" height="9"/>
					<rect x="438.6" y="377" class="st5" width="1.1" height="9"/>
					<path class="st5" d="M441.4,377v8.9c-0.1,0-0.3,0-0.4,0h-0.7v-9h0.7C441.1,377,441.2,377,441.4,377z"/>
					<path class="st5" d="M442.9,377.9v7.3c-0.3,0.3-0.6,0.6-1.1,0.7v-8.7C442.3,377.3,442.6,377.5,442.9,377.9z"/>
				</g>
			</g>
			<g>
				<path class="st6" d="M448.3,370.2v5.1c0,0.4-0.1,0.8-0.4,1.1c-0.3,0.3-0.6,0.6-1.1,0.7c-0.1,0-0.3,0.1-0.4,0.1
					c-0.1,0-0.3,0-0.4,0h-96.2c-0.4,0-0.8-0.1-1.1-0.2c-0.7-0.3-1.2-0.9-1.2-1.5c0,0,0-0.1,0-0.1c0,0,0-0.1,0-0.1v-5.1
					c0,0,0-0.1,0-0.1c0.1-1,1.1-1.9,2.3-1.9h96.2c0.1,0,0.3,0,0.4,0c0.1,0,0.3,0.1,0.4,0.1c0.4,0.1,0.8,0.4,1.1,0.7
					C448.1,369.4,448.3,369.8,448.3,370.2z"/>
				<path class="st5" d="M401,377.2h-51.5c-0.3,0-0.7-0.1-1-0.2c-0.6-0.3-1-0.9-1.1-1.5c0,0,0-0.1,0-0.1c0,0,0-0.1,0-0.1v-5.1
					c0,0,0-0.1,0-0.1c0.1-1,1-1.9,2.1-1.9h45.2c0.7,2.6,2.3,6.1,6,8.8C400.8,377.1,400.9,377.1,401,377.2z"/>
				<g>
					<rect x="435.5" y="368.2" class="st5" width="1.1" height="9"/>
					<rect x="431.8" y="368.2" class="st5" width="1.1" height="9"/>
					<rect x="427.3" y="368.2" class="st5" width="1.1" height="9"/>
					<rect x="420.5" y="368.2" class="st5" width="1.1" height="9"/>
					<rect x="413.3" y="368.2" class="st5" width="1.1" height="9"/>
					<rect x="402.3" y="368.2" class="st5" width="1.1" height="9"/>
					<rect x="392" y="368.2" class="st5" width="1.1" height="9"/>
					<rect x="382.8" y="368.2" class="st5" width="1.1" height="9"/>
					<rect x="439" y="368.2" class="st5" width="1.1" height="9"/>
					<rect x="441.3" y="368.2" class="st5" width="1.1" height="9"/>
					<rect x="443.6" y="368.2" class="st5" width="1.1" height="9"/>
					<path class="st5" d="M446.4,368.3v8.9c-0.1,0-0.3,0-0.4,0h-0.7v-9h0.7C446.1,368.2,446.2,368.2,446.4,368.3z"/>
					<path class="st5" d="M447.9,369.1v7.3c-0.3,0.3-0.6,0.6-1.1,0.7v-8.7C447.2,368.5,447.6,368.8,447.9,369.1z"/>
				</g>
			</g>
			<g>
				<path class="st6" d="M450.6,361.2v5.1c0,0.4-0.1,0.8-0.4,1.1c-0.3,0.3-0.6,0.6-1.1,0.7c-0.1,0-0.3,0.1-0.4,0.1
					c-0.1,0-0.3,0-0.4,0H352c-1.2,0-2.3-0.8-2.3-1.9c0,0,0-0.1,0-0.1v-5.1c0,0,0-0.1,0-0.1c0.1-1,0.9-1.7,2-1.8c0.1,0,0.2,0,0.3,0
					h96.2c0.1,0,0.3,0,0.4,0c0.1,0,0.3,0.1,0.4,0.1c0.4,0.1,0.8,0.4,1.1,0.7C450.4,360.4,450.6,360.8,450.6,361.2z"/>
				<path class="st5" d="M403.3,368.2h-51.5c-1.1,0-2-0.8-2.1-1.9c0,0,0-0.1,0-0.1v-5.1c0,0,0-0.1,0-0.1c0.1-1,0.8-1.7,1.8-1.8
					c0.1,0,0.2,0,0.2,0H397c0,0,0,0,0,0C397.7,361.9,399.4,365.6,403.3,368.2z"/>
				<g>
					<rect x="437.8" y="359.3" class="st5" width="1.1" height="9"/>
					<rect x="434.1" y="359.3" class="st5" width="1.1" height="9"/>
					<rect x="429.6" y="359.3" class="st5" width="1.1" height="9"/>
					<rect x="422.8" y="359.3" class="st5" width="1.1" height="9"/>
					<rect x="415.6" y="359.3" class="st5" width="1.1" height="9"/>
					<rect x="404.6" y="359.3" class="st5" width="1.1" height="9"/>
					<rect x="394.3" y="359.3" class="st5" width="1.1" height="9"/>
					<rect x="385.1" y="359.3" class="st5" width="1.1" height="9"/>
					<rect x="441.3" y="359.3" class="st5" width="1.1" height="9"/>
					<rect x="443.6" y="359.3" class="st5" width="1.1" height="9"/>
					<rect x="445.9" y="359.3" class="st5" width="1.1" height="9"/>
					<path class="st5" d="M448.7,359.3v8.9c-0.1,0-0.3,0-0.4,0h-0.7v-9h0.7C448.4,359.3,448.5,359.3,448.7,359.3z"/>
					<path class="st5" d="M450.2,360.1v7.3c-0.3,0.3-0.6,0.6-1.1,0.7v-8.7C449.5,359.5,449.9,359.8,450.2,360.1z"/>
				</g>
			</g>
			<g>
				<path class="st6" d="M443.5,352.2v5.1c0,0.4-0.1,0.8-0.4,1.1c-0.3,0.3-0.6,0.6-1.1,0.7c-0.1,0-0.3,0.1-0.4,0.1c0,0-0.1,0-0.1,0
					c0,0-0.1,0-0.1,0c0,0-0.1,0-0.1,0c0,0-0.1,0-0.1,0H345c-1.2,0-2.3-0.8-2.3-1.9c0,0,0-0.1,0-0.1v-5.1c0,0,0-0.1,0-0.1
					c0,0,0-0.1,0-0.1c0.1-0.8,0.8-1.5,1.7-1.7c0,0,0,0,0.1,0c0.2,0,0.3,0,0.5,0h96.2c0.1,0,0.1,0,0.2,0c0,0,0.1,0,0.1,0h0
					c0,0,0.1,0,0.1,0c0.1,0,0.3,0.1,0.4,0.1c0.4,0.1,0.8,0.4,1.1,0.7C443.4,351.5,443.5,351.8,443.5,352.2z"/>
				<path class="st5" d="M396.3,359.3h-51.5c-1.1,0-2-0.8-2.1-1.9c0,0,0-0.1,0-0.1v-5.1c0,0,0-0.1,0-0.1c0,0,0-0.1,0-0.1
					c0.1-0.8,0.7-1.5,1.6-1.7c0,0,0.1,0,0.1,0c0.1,0,0.2,0,0.4,0h45.2c0,0,0,0,0,0.1C390.7,353,392.4,356.6,396.3,359.3
					C396.2,359.3,396.3,359.3,396.3,359.3z"/>
				<g>
					<rect x="430.7" y="350.3" class="st5" width="1.1" height="9"/>
					<rect x="427" y="350.3" class="st5" width="1.1" height="9"/>
					<rect x="422.6" y="350.3" class="st5" width="1.1" height="9"/>
					<rect x="415.8" y="350.3" class="st5" width="1.1" height="9"/>
					<rect x="408.6" y="350.3" class="st5" width="1.1" height="9"/>
					<rect x="397.5" y="350.3" class="st5" width="1.1" height="9"/>
					<rect x="387.2" y="350.3" class="st5" width="1.1" height="9"/>
					<rect x="378" y="350.3" class="st5" width="1.1" height="9"/>
					<rect x="434.2" y="350.3" class="st5" width="1.1" height="9"/>
					<rect x="436.6" y="350.3" class="st5" width="1.1" height="9"/>
					<rect x="438.8" y="350.3" class="st5" width="1.1" height="9"/>
					<path class="st5" d="M441.6,350.3v8.9c-0.1,0-0.3,0-0.4,0h-0.7v-9h0.7C441.3,350.3,441.4,350.3,441.6,350.3z"/>
					<path class="st5" d="M443.1,351.2v7.3c-0.3,0.3-0.6,0.6-1.1,0.7v-8.7C442.5,350.6,442.8,350.8,443.1,351.2z"/>
				</g>
			</g>
			<g>
				<path class="st6" d="M443.3,343.3v5.1c0,0.4-0.1,0.8-0.4,1.1c-0.3,0.3-0.6,0.6-1.1,0.7c-0.1,0-0.2,0.1-0.3,0.1h0
					c0,0-0.1,0-0.1,0c-0.1,0-0.3,0-0.4,0h-96.2c-0.1,0-0.2,0-0.3,0c0,0-0.1,0-0.1,0c-1-0.2-1.9-0.9-1.9-1.8c0,0,0-0.1,0-0.1v-5.1
					c0,0,0-0.1,0-0.1c0.1-1,1.1-1.9,2.3-1.9H441c0.1,0,0.1,0,0.2,0c0,0,0.1,0,0.1,0c0,0,0.1,0,0.1,0c0,0,0,0,0.1,0
					c0.1,0,0.3,0.1,0.4,0.1c0,0,0,0,0.1,0c0,0,0,0,0.1,0c0,0,0.1,0,0.1,0c0,0,0.1,0,0.1,0.1c0,0,0.1,0,0.1,0.1c0,0,0.1,0,0.1,0.1
					c0,0,0.1,0,0.1,0.1c0,0,0,0,0,0c0,0,0,0,0.1,0c0.1,0,0.1,0.1,0.2,0.1c0,0,0,0,0,0c0,0,0,0,0,0c0,0,0.1,0.1,0.1,0.1
					C443.2,342.5,443.3,342.9,443.3,343.3z"/>
				<path class="st5" d="M396.1,350.4h-51.5c0,0-0.1,0-0.1,0c0,0-0.1,0-0.1,0c-1-0.1-1.8-0.9-1.8-1.8c0,0,0-0.1,0-0.1v-5.1
					c0,0,0-0.1,0-0.1c0.1-1,1-1.9,2.1-1.9h45.2c0,0.1,0,0.1,0.1,0.2C390.5,344.2,392.2,347.7,396.1,350.4
					C396,350.3,396,350.3,396.1,350.4z"/>
				<g>
					<rect x="430.5" y="341.4" class="st5" width="1.1" height="9"/>
					<rect x="426.8" y="341.4" class="st5" width="1.1" height="9"/>
					<rect x="422.4" y="341.4" class="st5" width="1.1" height="9"/>
					<rect x="415.6" y="341.4" class="st5" width="1.1" height="9"/>
					<rect x="408.4" y="341.4" class="st5" width="1.1" height="9"/>
					<rect x="397.3" y="341.4" class="st5" width="1.1" height="9"/>
					<rect x="387" y="341.4" class="st5" width="1.1" height="9"/>
					<rect x="377.8" y="341.4" class="st5" width="1.1" height="9"/>
					<rect x="434" y="341.4" class="st5" width="1.1" height="9"/>
					<rect x="436.3" y="341.4" class="st5" width="1.1" height="9"/>
					<rect x="438.6" y="341.4" class="st5" width="1.1" height="9"/>
					<path class="st5" d="M441.4,341.4v8.9c-0.1,0-0.3,0-0.4,0h-0.7v-9h0.7C441.1,341.4,441.2,341.4,441.4,341.4z"/>
					<path class="st5" d="M442.9,342.2v7.3c-0.3,0.3-0.6,0.6-1.1,0.7v-8.7C442.3,341.6,442.6,341.9,442.9,342.2z"/>
				</g>
			</g>
			<g>
				<path class="st6" d="M448.3,334.6v5.1c0,0.4-0.1,0.8-0.4,1.1c-0.3,0.3-0.6,0.6-1.1,0.7c-0.1,0-0.3,0.1-0.4,0.1
					c-0.1,0-0.3,0-0.4,0h-96.2c-0.4,0-0.8-0.1-1.1-0.2c-0.7-0.3-1.2-0.9-1.2-1.5c0,0,0-0.1,0-0.1c0,0,0-0.1,0-0.1v-5.1
					c0,0,0-0.1,0-0.1c0.1-1,1.1-1.9,2.3-1.9h96.2c0.1,0,0.3,0,0.4,0c0.1,0,0.3,0.1,0.4,0.1c0.4,0.1,0.8,0.4,1.1,0.7
					C448.1,333.8,448.3,334.2,448.3,334.6z"/>
				<path class="st5" d="M401,341.6h-51.5c-0.3,0-0.7-0.1-1-0.2c-0.6-0.3-1-0.9-1.1-1.5c0,0,0-0.1,0-0.1c0,0,0-0.1,0-0.1v-5.1
					c0,0,0-0.1,0-0.1c0.1-1,1-1.9,2.1-1.9h45.2c0.7,2.6,2.3,6.1,6,8.8C400.8,341.4,400.9,341.5,401,341.6z"/>
				<g>
					<rect x="435.5" y="332.6" class="st5" width="1.1" height="9"/>
					<rect x="431.8" y="332.6" class="st5" width="1.1" height="9"/>
					<rect x="427.3" y="332.6" class="st5" width="1.1" height="9"/>
					<rect x="420.5" y="332.6" class="st5" width="1.1" height="9"/>
					<rect x="413.3" y="332.6" class="st5" width="1.1" height="9"/>
					<rect x="402.3" y="332.6" class="st5" width="1.1" height="9"/>
					<rect x="392" y="332.6" class="st5" width="1.1" height="9"/>
					<rect x="382.8" y="332.6" class="st5" width="1.1" height="9"/>
					<rect x="439" y="332.6" class="st5" width="1.1" height="9"/>
					<rect x="441.3" y="332.6" class="st5" width="1.1" height="9"/>
					<rect x="443.6" y="332.6" class="st5" width="1.1" height="9"/>
					<path class="st5" d="M446.4,332.6v8.9c-0.1,0-0.3,0-0.4,0h-0.7v-9h0.7C446.1,332.6,446.2,332.6,446.4,332.6z"/>
					<path class="st5" d="M447.9,333.5v7.3c-0.3,0.3-0.6,0.6-1.1,0.7v-8.7C447.2,332.9,447.6,333.1,447.9,333.5z"/>
				</g>
			</g>
			<g>
				<path class="st6" d="M456.1,325.6v5.1c0,0.4-0.1,0.8-0.4,1.1c-0.3,0.3-0.6,0.6-1.1,0.7c-0.1,0-0.3,0.1-0.4,0.1
					c-0.1,0-0.3,0-0.4,0h-96.2c-1.2,0-2.3-0.8-2.3-1.9c0,0,0-0.1,0-0.1v-5.1c0,0,0-0.1,0-0.1c0.1-1,0.9-1.7,2-1.8c0.1,0,0.2,0,0.3,0
					h96.2c0.1,0,0.3,0,0.4,0c0.1,0,0.3,0.1,0.4,0.1c0.4,0.1,0.8,0.4,1.1,0.7C456,324.8,456.1,325.2,456.1,325.6z"/>
				<path class="st5" d="M408.9,332.6h-51.5c-1.1,0-2-0.8-2.1-1.9c0,0,0-0.1,0-0.1v-5.1c0,0,0-0.1,0-0.1c0.1-1,0.8-1.7,1.8-1.8
					c0.1,0,0.2,0,0.2,0h45.2c0,0,0,0,0,0C403.3,326.3,405,329.9,408.9,332.6z"/>
				<g>
					<rect x="443.3" y="323.6" class="st5" width="1.1" height="9"/>
					<rect x="439.6" y="323.6" class="st5" width="1.1" height="9"/>
					<rect x="435.2" y="323.6" class="st5" width="1.1" height="9"/>
					<rect x="428.4" y="323.6" class="st5" width="1.1" height="9"/>
					<rect x="421.2" y="323.6" class="st5" width="1.1" height="9"/>
					<rect x="410.2" y="323.6" class="st5" width="1.1" height="9"/>
					<rect x="399.8" y="323.6" class="st5" width="1.1" height="9"/>
					<rect x="390.6" y="323.6" class="st5" width="1.1" height="9"/>
					<rect x="446.9" y="323.6" class="st5" width="1.1" height="9"/>
					<rect x="449.2" y="323.6" class="st5" width="1.1" height="9"/>
					<rect x="451.4" y="323.6" class="st5" width="1.1" height="9"/>
					<path class="st5" d="M454.2,323.7v8.9c-0.1,0-0.3,0-0.4,0h-0.7v-9h0.7C453.9,323.6,454.1,323.6,454.2,323.7z"/>
					<path class="st5" d="M455.7,324.5v7.3c-0.3,0.3-0.6,0.6-1.1,0.7v-8.7C455.1,323.9,455.5,324.2,455.7,324.5z"/>
				</g>
			</g>
		</g>
		<g>
			<g>
				<path class="st6" d="M621.6,485.8v5.1c0,0.4-0.1,0.8-0.4,1.1c-0.3,0.3-0.6,0.6-1.1,0.7c-0.1,0-0.3,0.1-0.4,0.1
					c-0.1,0-0.3,0-0.4,0h-96.2c-1.2,0-2.1-0.7-2.3-1.7c0-0.1,0-0.1,0-0.2v-5.3c0-0.1,0-0.1,0-0.2c0.2-0.9,1.1-1.7,2.3-1.7h96.2
					c0.1,0,0.3,0,0.4,0c0.1,0,0.3,0.1,0.4,0.1c0.4,0.1,0.8,0.4,1.1,0.7C621.5,485.1,621.6,485.4,621.6,485.8z"/>
				<path class="st5" d="M574.4,492.9h-51.5c-1,0-1.8-0.6-2-1.4c0-0.1,0-0.1-0.1-0.2c0-0.1,0-0.1,0-0.2v-5.3c0-0.1,0-0.1,0-0.2
					c0-0.1,0-0.1,0.1-0.2c0.2-0.8,1-1.4,2-1.4h45.2C568.8,486.5,570.5,490.2,574.4,492.9z"/>
				<g>
					<rect x="608.8" y="483.9" class="st5" width="1.1" height="9"/>
					<rect x="605.1" y="483.9" class="st5" width="1.1" height="9"/>
					<rect x="600.7" y="483.9" class="st5" width="1.1" height="9"/>
					<rect x="593.9" y="483.9" class="st5" width="1.1" height="9"/>
					<rect x="586.7" y="483.9" class="st5" width="1.1" height="9"/>
					<rect x="575.7" y="483.9" class="st5" width="1.1" height="9"/>
					<rect x="565.4" y="483.9" class="st5" width="1.1" height="9"/>
					<rect x="556.1" y="483.9" class="st5" width="1.1" height="9"/>
					<rect x="612.4" y="483.9" class="st5" width="1.1" height="9"/>
					<rect x="614.7" y="483.9" class="st5" width="1.1" height="9"/>
					<rect x="616.9" y="483.9" class="st5" width="1.1" height="9"/>
					<path class="st5" d="M619.7,483.9v8.9c-0.1,0-0.3,0-0.4,0h-0.7v-9h0.7C619.5,483.9,619.6,483.9,619.7,483.9z"/>
					<path class="st5" d="M621.2,484.8v7.3c-0.3,0.3-0.6,0.6-1.1,0.7V484C620.6,484.2,621,484.4,621.2,484.8z"/>
				</g>
			</g>
			<g>
				<path class="st6" d="M611.4,476.9v5.1c0,0.4-0.1,0.8-0.4,1.1c-0.3,0.3-0.6,0.6-1.1,0.7c-0.1,0-0.3,0.1-0.4,0.1
					c-0.1,0-0.1,0-0.2,0c-0.1,0-0.1,0-0.2,0h-96.2c-1.2,0-2.1-0.7-2.3-1.7c0-0.1,0-0.1,0-0.2c0,0,0-0.1,0-0.1v-5.1c0,0,0-0.1,0-0.1
					c0-0.1,0-0.1,0-0.2c0.2-0.9,1.1-1.7,2.3-1.7H609c0.1,0,0.1,0,0.2,0c0,0,0,0,0.1,0h0c0,0,0.1,0,0.1,0c0,0,0,0,0.1,0
					c0.1,0,0.3,0.1,0.4,0.1c0,0,0,0,0.1,0c0,0,0,0,0.1,0c0,0,0,0,0,0c0,0,0.1,0,0.1,0c0,0,0,0,0.1,0c0,0,0,0,0,0c0,0,0,0,0,0
					c0,0,0.1,0,0.1,0.1c0.1,0.1,0.2,0.1,0.3,0.2c0,0,0.1,0.1,0.1,0.1c0.1,0.1,0.2,0.2,0.2,0.2C611.2,476.1,611.4,476.5,611.4,476.9z
					"/>
				<path class="st5" d="M564.1,483.9h-51.5c-1,0-1.8-0.6-2-1.5c0-0.1,0-0.1-0.1-0.2c0-0.1,0-0.1,0-0.2c0,0,0-0.1,0-0.1v-5.1
					c0,0,0-0.1,0-0.1c0-0.1,0-0.1,0-0.2c0-0.1,0-0.1,0.1-0.2c0.2-0.8,1-1.5,2-1.5h45.2c0,0.1,0,0.1,0.1,0.2c0.4,1.4,1,3,2.1,4.5
					C560.9,481.2,562.3,482.6,564.1,483.9z"/>
				<g>
					<rect x="598.6" y="474.9" class="st5" width="1.1" height="9"/>
					<rect x="594.9" y="474.9" class="st5" width="1.1" height="9"/>
					<rect x="590.4" y="474.9" class="st5" width="1.1" height="9"/>
					<rect x="583.6" y="474.9" class="st5" width="1.1" height="9"/>
					<rect x="576.4" y="474.9" class="st5" width="1.1" height="9"/>
					<rect x="565.4" y="474.9" class="st5" width="1.1" height="9"/>
					<rect x="555.1" y="474.9" class="st5" width="1.1" height="9"/>
					<rect x="545.9" y="474.9" class="st5" width="1.1" height="9"/>
					<rect x="602.1" y="474.9" class="st5" width="1.1" height="9"/>
					<rect x="604.4" y="474.9" class="st5" width="1.1" height="9"/>
					<rect x="606.7" y="474.9" class="st5" width="1.1" height="9"/>
					<path class="st5" d="M609.4,474.9v8.9c-0.1,0-0.3,0-0.4,0h-0.7v-9h0.7C609.2,474.9,609.3,474.9,609.4,474.9z"/>
					<path class="st5" d="M611,475.8v7.3c-0.3,0.3-0.6,0.6-1.1,0.7V475C610.3,475.2,610.7,475.4,611,475.8z"/>
				</g>
			</g>
			<g>
				<path class="st6" d="M616.3,468.1v5.1c0,0.4-0.1,0.8-0.4,1.1c-0.3,0.3-0.6,0.6-1.1,0.7c-0.1,0-0.3,0.1-0.4,0.1
					c-0.1,0-0.3,0-0.4,0h-96.2c-0.4,0-0.8-0.1-1.1-0.2c-0.7-0.3-1.2-0.9-1.2-1.5c0,0,0-0.1,0-0.1c0,0,0-0.1,0-0.1v-5.1
					c0,0,0-0.1,0-0.1c0-0.1,0-0.1,0-0.2c0.2-0.9,1.1-1.7,2.3-1.7H614c0.1,0,0.3,0,0.4,0c0.1,0,0.3,0.1,0.4,0.1
					c0.4,0.1,0.8,0.4,1.1,0.7C616.2,467.3,616.3,467.7,616.3,468.1z"/>
				<path class="st5" d="M569.1,475.1h-51.5c-0.3,0-0.7-0.1-1-0.2c-0.6-0.3-1-0.9-1.1-1.5c0,0,0-0.1,0-0.1c0,0,0-0.1,0-0.1v-5.1
					c0,0,0-0.1,0-0.1c0-0.1,0-0.1,0-0.2c0-0.1,0-0.1,0.1-0.2c0.2-0.8,1-1.5,2-1.5h45.2c0.3,1.1,0.7,2.3,1.4,3.5
					c1,1.8,2.4,3.7,4.6,5.3C568.9,475,569,475.1,569.1,475.1z"/>
				<g>
					<rect x="603.5" y="466.2" class="st5" width="1.1" height="9"/>
					<rect x="599.8" y="466.2" class="st5" width="1.1" height="9"/>
					<rect x="595.4" y="466.2" class="st5" width="1.1" height="9"/>
					<rect x="588.6" y="466.2" class="st5" width="1.1" height="9"/>
					<rect x="581.4" y="466.2" class="st5" width="1.1" height="9"/>
					<rect x="570.4" y="466.2" class="st5" width="1.1" height="9"/>
					<rect x="560" y="466.2" class="st5" width="1.1" height="9"/>
					<rect x="550.8" y="466.2" class="st5" width="1.1" height="9"/>
					<rect x="607.1" y="466.2" class="st5" width="1.1" height="9"/>
					<rect x="609.4" y="466.2" class="st5" width="1.1" height="9"/>
					<rect x="611.6" y="466.2" class="st5" width="1.1" height="9"/>
					<path class="st5" d="M614.4,466.2v8.9c-0.1,0-0.3,0-0.4,0h-0.7v-9h0.7C614.1,466.2,614.3,466.2,614.4,466.2z"/>
					<path class="st5" d="M615.9,467v7.3c-0.3,0.3-0.6,0.6-1.1,0.7v-8.7C615.3,466.4,615.7,466.7,615.9,467z"/>
				</g>
			</g>
			<g>
				<path class="st6" d="M618.6,459.1v5.1c0,0.4-0.1,0.8-0.4,1.1c-0.1,0.1-0.1,0.2-0.2,0.2c-0.2,0.2-0.5,0.4-0.9,0.5
					c-0.1,0-0.3,0.1-0.4,0.1c-0.1,0-0.1,0-0.2,0c-0.1,0-0.1,0-0.2,0h-96.2c-1.2,0-2.1-0.7-2.3-1.7c0-0.1,0-0.1,0-0.2
					c0,0,0-0.1,0-0.1v-5.1c0,0,0-0.1,0-0.1c0-0.1,0-0.1,0-0.2c0.1-0.9,1-1.6,2-1.7c0.1,0,0.2,0,0.3,0h96.2c0.1,0,0.3,0,0.4,0
					c0.1,0,0.3,0.1,0.4,0.1c0.4,0.1,0.8,0.4,1.1,0.7C618.5,458.3,618.6,458.7,618.6,459.1z"/>
				<path class="st5" d="M571.4,466.2h-51.5c-1,0-1.8-0.6-2-1.4c0-0.1,0-0.1-0.1-0.2c0-0.1,0-0.1,0-0.2c0,0,0-0.1,0-0.1v-5.1
					c0,0,0-0.1,0-0.1c0-0.1,0-0.1,0-0.2c0.1-0.9,0.9-1.6,1.8-1.7c0.1,0,0.2,0,0.2,0h45.2c0,0,0,0,0,0c0.2,0.9,0.6,1.9,1.1,3
					C567.2,462.2,568.8,464.4,571.4,466.2z"/>
				<g>
					<rect x="605.8" y="457.2" class="st5" width="1.1" height="9"/>
					<rect x="602.1" y="457.2" class="st5" width="1.1" height="9"/>
					<rect x="597.7" y="457.2" class="st5" width="1.1" height="9"/>
					<rect x="590.9" y="457.2" class="st5" width="1.1" height="9"/>
					<rect x="583.7" y="457.2" class="st5" width="1.1" height="9"/>
					<rect x="572.7" y="457.2" class="st5" width="1.1" height="9"/>
					<rect x="562.3" y="457.2" class="st5" width="1.1" height="9"/>
					<rect x="553.1" y="457.2" class="st5" width="1.1" height="9"/>
					<rect x="609.4" y="457.2" class="st5" width="1.1" height="9"/>
					<rect x="611.7" y="457.2" class="st5" width="1.1" height="9"/>
					<rect x="613.9" y="457.2" class="st5" width="1.1" height="9"/>
					<path class="st5" d="M616.7,457.2v8.9c-0.1,0-0.3,0-0.4,0h-0.7v-9h0.7C616.4,457.2,616.6,457.2,616.7,457.2z"/>
					<path class="st5" d="M618.2,458v7.3c-0.3,0.3-0.6,0.6-1.1,0.7v-8.7C617.6,457.4,618,457.7,618.2,458z"/>
				</g>
			</g>
			<g>
				<path class="st6" d="M611.6,450.2v5.1c0,0.4-0.1,0.8-0.4,1.1c-0.3,0.3-0.6,0.6-1.1,0.7c-0.1,0-0.3,0.1-0.4,0.1c0,0-0.1,0-0.1,0
					h0c0,0-0.1,0-0.1,0c0,0-0.1,0-0.1,0H513c-1.2,0-2.1-0.7-2.3-1.7c0-0.1,0-0.1,0-0.2v-5.3c0,0,0-0.1,0-0.1
					c0.1-0.8,0.8-1.5,1.7-1.7c0,0,0,0,0.1,0c0.2,0,0.3,0,0.5,0h96.2c0.1,0,0.1,0,0.2,0c0,0,0.1,0,0.1,0h0c0,0,0.1,0,0.1,0
					c0.1,0,0.3,0.1,0.4,0.1c0.4,0.1,0.8,0.4,1.1,0.7C611.4,449.4,611.6,449.8,611.6,450.2z"/>
				<path class="st5" d="M564.3,457.2h-51.5c-1,0-1.8-0.6-2-1.4c0-0.1,0-0.1-0.1-0.2c0-0.1,0-0.1,0-0.2v-5.3c0,0,0-0.1,0-0.1
					c0.1-0.8,0.7-1.5,1.6-1.7c0,0,0.1,0,0.1,0c0.1,0,0.2,0,0.4,0H558c0,0,0,0,0,0.1C558.7,450.9,560.4,454.5,564.3,457.2
					C564.3,457.2,564.3,457.2,564.3,457.2z"/>
				<g>
					<rect x="598.8" y="448.2" class="st5" width="1.1" height="9"/>
					<rect x="595.1" y="448.2" class="st5" width="1.1" height="9"/>
					<rect x="590.6" y="448.2" class="st5" width="1.1" height="9"/>
					<rect x="583.8" y="448.2" class="st5" width="1.1" height="9"/>
					<rect x="576.6" y="448.2" class="st5" width="1.1" height="9"/>
					<rect x="565.6" y="448.2" class="st5" width="1.1" height="9"/>
					<rect x="555.3" y="448.2" class="st5" width="1.1" height="9"/>
					<rect x="546.1" y="448.2" class="st5" width="1.1" height="9"/>
					<rect x="602.3" y="448.2" class="st5" width="1.1" height="9"/>
					<rect x="604.6" y="448.2" class="st5" width="1.1" height="9"/>
					<rect x="606.9" y="448.2" class="st5" width="1.1" height="9"/>
					<path class="st5" d="M609.6,448.2v8.9c-0.1,0-0.3,0-0.4,0h-0.7v-9h0.7C609.4,448.2,609.5,448.2,609.6,448.2z"/>
					<path class="st5" d="M611.2,449.1v7.3c-0.3,0.3-0.6,0.6-1.1,0.7v-8.7C610.5,448.5,610.9,448.7,611.2,449.1z"/>
				</g>
			</g>
			<g>
				<path class="st6" d="M611.4,441.2v5.1c0,0.4-0.1,0.8-0.4,1.1c-0.3,0.3-0.6,0.6-1.1,0.7c-0.1,0-0.2,0.1-0.3,0.1h0
					c0,0-0.1,0-0.1,0c-0.1,0-0.3,0-0.4,0h-96.2c-0.1,0-0.2,0-0.3,0c0,0-0.1,0-0.1,0c-1-0.1-1.8-0.8-1.9-1.7c0-0.1,0-0.1,0-0.2
					c0,0,0-0.1,0-0.1v-5.1c0,0,0-0.1,0-0.1c0-0.1,0-0.1,0-0.2c0.2-0.9,1.1-1.7,2.3-1.7H609c0.1,0,0.1,0,0.2,0c0,0,0,0,0,0
					c0,0,0,0,0.1,0c0,0,0.1,0,0.1,0c0,0,0,0,0.1,0c0.1,0,0.3,0.1,0.4,0.1c0,0,0,0,0.1,0c0,0,0,0,0.1,0c0,0,0,0,0,0c0,0,0.1,0,0.1,0
					c0,0,0,0,0,0c0,0,0,0,0.1,0c0.2,0.1,0.3,0.2,0.5,0.3c0,0,0.1,0.1,0.1,0.1c0,0,0.1,0.1,0.1,0.1c0,0,0,0,0,0c0,0,0.1,0.1,0.1,0.1
					C611.2,440.5,611.4,440.8,611.4,441.2z"/>
				<path class="st5" d="M564.1,448.3h-51.5c0,0-0.1,0-0.1,0c0,0-0.1,0-0.1,0c-0.9-0.1-1.7-0.8-1.8-1.7c0-0.1,0-0.1,0-0.2
					c0,0,0-0.1,0-0.1v-5.1c0,0,0-0.1,0-0.1c0-0.1,0-0.1,0-0.2c0-0.1,0-0.1,0.1-0.2c0.2-0.8,1-1.5,2-1.5h45.2c0,0.1,0,0.1,0.1,0.2
					C558.6,442.1,560.3,445.6,564.1,448.3C564.1,448.2,564.1,448.2,564.1,448.3z"/>
				<g>
					<rect x="598.6" y="439.3" class="st5" width="1.1" height="9"/>
					<rect x="594.9" y="439.3" class="st5" width="1.1" height="9"/>
					<rect x="590.4" y="439.3" class="st5" width="1.1" height="9"/>
					<rect x="583.6" y="439.3" class="st5" width="1.1" height="9"/>
					<rect x="576.4" y="439.3" class="st5" width="1.1" height="9"/>
					<rect x="565.4" y="439.3" class="st5" width="1.1" height="9"/>
					<rect x="555.1" y="439.3" class="st5" width="1.1" height="9"/>
					<rect x="545.9" y="439.3" class="st5" width="1.1" height="9"/>
					<rect x="602.1" y="439.3" class="st5" width="1.1" height="9"/>
					<rect x="604.4" y="439.3" class="st5" width="1.1" height="9"/>
					<rect x="606.7" y="439.3" class="st5" width="1.1" height="9"/>
					<path class="st5" d="M609.4,439.3v8.9c-0.1,0-0.3,0-0.4,0h-0.7v-9h0.7C609.2,439.3,609.3,439.3,609.4,439.3z"/>
					<path class="st5" d="M611,440.2v7.3c-0.3,0.3-0.6,0.6-1.1,0.7v-8.7C610.3,439.6,610.7,439.8,611,440.2z"/>
				</g>
			</g>
			<g>
				<path class="st6" d="M616.3,432.5v5.1c0,0.4-0.1,0.8-0.4,1.1c-0.3,0.3-0.6,0.6-1.1,0.7c-0.1,0-0.3,0.1-0.4,0.1
					c-0.1,0-0.1,0-0.2,0c-0.1,0-0.1,0-0.2,0h-96.2c-0.4,0-0.8-0.1-1.1-0.2c-0.7-0.3-1.2-0.9-1.2-1.5c0,0,0-0.1,0-0.1s0-0.1,0-0.1
					v-5.1c0,0,0-0.1,0-0.1c0-0.1,0-0.1,0-0.2c0.2-0.9,1.1-1.7,2.3-1.7H614c0.1,0,0.3,0,0.4,0c0.1,0,0.3,0.1,0.4,0.1
					c0.4,0.1,0.8,0.4,1.1,0.7C616.2,431.7,616.3,432.1,616.3,432.5z"/>
				<path class="st5" d="M569.1,439.5h-51.5c-0.3,0-0.7-0.1-1-0.2c-0.6-0.3-1-0.9-1.1-1.5c0,0,0-0.1,0-0.1s0-0.1,0-0.1v-5.1
					c0,0,0-0.1,0-0.1c0-0.1,0-0.1,0-0.2c0-0.1,0-0.1,0.1-0.2c0.2-0.8,1-1.5,2-1.5h45.2c0.7,2.6,2.3,6.1,6,8.8
					C568.9,439.4,569,439.4,569.1,439.5z"/>
				<g>
					<rect x="603.5" y="430.5" class="st5" width="1.1" height="9"/>
					<rect x="599.8" y="430.5" class="st5" width="1.1" height="9"/>
					<rect x="595.4" y="430.5" class="st5" width="1.1" height="9"/>
					<rect x="588.6" y="430.5" class="st5" width="1.1" height="9"/>
					<rect x="581.4" y="430.5" class="st5" width="1.1" height="9"/>
					<rect x="570.4" y="430.5" class="st5" width="1.1" height="9"/>
					<rect x="560" y="430.5" class="st5" width="1.1" height="9"/>
					<rect x="550.8" y="430.5" class="st5" width="1.1" height="9"/>
					<rect x="607.1" y="430.5" class="st5" width="1.1" height="9"/>
					<rect x="609.4" y="430.5" class="st5" width="1.1" height="9"/>
					<rect x="611.6" y="430.5" class="st5" width="1.1" height="9"/>
					<path class="st5" d="M614.4,430.6v8.9c-0.1,0-0.3,0-0.4,0h-0.7v-9h0.7C614.1,430.5,614.3,430.5,614.4,430.6z"/>
					<path class="st5" d="M615.9,431.4v7.3c-0.3,0.3-0.6,0.6-1.1,0.7v-8.7C615.3,430.8,615.7,431.1,615.9,431.4z"/>
				</g>
			</g>
			<g>
				<path class="st6" d="M624.2,423.5v5.1c0,0.4-0.1,0.8-0.4,1.1c0,0-0.1,0.1-0.1,0.1c-0.3,0.3-0.6,0.5-1,0.6
					c-0.1,0-0.3,0.1-0.4,0.1c-0.1,0-0.3,0-0.4,0h-96.2c-1.2,0-2.1-0.7-2.3-1.7c0-0.1,0-0.1,0-0.2c0,0,0-0.1,0-0.1v-5.1
					c0,0,0-0.1,0-0.1c0.1-1,0.9-1.7,2-1.8c0.1,0,0.2,0,0.3,0h96.2c0.1,0,0.3,0,0.4,0c0.1,0,0.3,0.1,0.4,0.1c0.4,0.1,0.7,0.3,1,0.6
					c0,0,0.1,0.1,0.1,0.1C624,422.7,624.2,423.1,624.2,423.5z"/>
				<path class="st5" d="M577,430.5h-51.5c-1,0-1.8-0.6-2-1.5c0-0.1,0-0.1-0.1-0.2c0-0.1,0-0.1,0-0.2c0,0,0-0.1,0-0.1v-5.1
					c0,0,0-0.1,0-0.1c0-0.1,0-0.2,0-0.3c0.2-0.8,0.9-1.5,1.8-1.6c0.1,0,0.2,0,0.2,0h45.2c0,0,0,0,0,0
					C571.4,424.2,573,427.9,577,430.5z"/>
				<g>
					<rect x="611.4" y="421.5" class="st5" width="1.1" height="9"/>
					<rect x="607.7" y="421.5" class="st5" width="1.1" height="9"/>
					<rect x="603.3" y="421.5" class="st5" width="1.1" height="9"/>
					<rect x="596.5" y="421.5" class="st5" width="1.1" height="9"/>
					<rect x="589.3" y="421.5" class="st5" width="1.1" height="9"/>
					<rect x="578.2" y="421.5" class="st5" width="1.1" height="9"/>
					<rect x="567.9" y="421.5" class="st5" width="1.1" height="9"/>
					<rect x="558.7" y="421.5" class="st5" width="1.1" height="9"/>
					<rect x="614.9" y="421.5" class="st5" width="1.1" height="9"/>
					<rect x="617.2" y="421.5" class="st5" width="1.1" height="9"/>
					<rect x="619.5" y="421.5" class="st5" width="1.1" height="9"/>
					<path class="st5" d="M622.3,421.6v8.9c-0.1,0-0.3,0-0.4,0h-0.7v-9h0.7C622,421.5,622.1,421.6,622.3,421.6z"/>
					<path class="st5" d="M623.8,422.4v7.3c-0.3,0.3-0.6,0.6-1.1,0.7v-8.7C623.1,421.8,623.5,422.1,623.8,422.4z"/>
				</g>
			</g>
			<g>
				<path class="st6" d="M611.6,414.5v5.1c0,0.4-0.1,0.8-0.4,1.1c-0.3,0.3-0.6,0.6-1.1,0.7c-0.1,0-0.3,0.1-0.4,0.1c0,0-0.1,0-0.1,0
					h0c0,0,0,0-0.1,0c0,0,0,0,0,0c0,0,0,0-0.1,0H513c-1.2,0-2.1-0.7-2.3-1.7c0-0.1,0-0.1,0-0.2v-5.3c0-0.1,0-0.1,0-0.2
					c0.2-0.9,1.1-1.7,2.3-1.7h96.2c0,0,0.1,0,0.1,0h0c0,0,0.1,0,0.1,0c0.1,0,0.1,0,0.2,0c0.1,0,0.3,0.1,0.4,0.1c0.1,0,0.1,0,0.2,0.1
					c0,0,0,0,0,0h0c0.4,0.2,0.7,0.4,0.9,0.7C611.4,413.8,611.6,414.1,611.6,414.5z"/>
				<path class="st5" d="M564.3,421.6h-51.5c-1,0-1.8-0.6-2-1.4c0-0.1,0-0.1-0.1-0.2c0-0.1,0-0.1,0-0.2v-5.3c0-0.1,0-0.1,0-0.2
					c0-0.1,0-0.1,0.1-0.2c0.2-0.8,1-1.4,2-1.4H558c0,0.1,0,0.1,0.1,0.2C558.8,415.4,560.5,418.9,564.3,421.6
					C564.3,421.6,564.3,421.6,564.3,421.6z"/>
				<g>
					<rect x="598.8" y="412.6" class="st5" width="1.1" height="9"/>
					<rect x="595.1" y="412.6" class="st5" width="1.1" height="9"/>
					<rect x="590.6" y="412.6" class="st5" width="1.1" height="9"/>
					<rect x="583.8" y="412.6" class="st5" width="1.1" height="9"/>
					<rect x="576.6" y="412.6" class="st5" width="1.1" height="9"/>
					<rect x="565.6" y="412.6" class="st5" width="1.1" height="9"/>
					<rect x="555.3" y="412.6" class="st5" width="1.1" height="9"/>
					<rect x="546.1" y="412.6" class="st5" width="1.1" height="9"/>
					<rect x="602.3" y="412.6" class="st5" width="1.1" height="9"/>
					<rect x="604.6" y="412.6" class="st5" width="1.1" height="9"/>
					<rect x="606.9" y="412.6" class="st5" width="1.1" height="9"/>
					<path class="st5" d="M609.6,412.6v8.9c-0.1,0-0.3,0-0.4,0h-0.7v-9h0.7C609.4,412.6,609.5,412.6,609.6,412.6z"/>
					<path class="st5" d="M611.2,413.4v7.3c-0.3,0.3-0.6,0.6-1.1,0.7v-8.7C610.5,412.9,610.9,413.1,611.2,413.4z"/>
				</g>
			</g>
			<g>
				<path class="st6" d="M618.6,405.8v5.1c0,0.4-0.1,0.8-0.4,1.1c-0.3,0.3-0.6,0.6-1.1,0.7c-0.1,0-0.3,0.1-0.4,0.1
					c-0.1,0-0.3,0-0.4,0h-96.2c-0.4,0-0.7-0.1-1-0.2c-0.7-0.3-1.1-0.8-1.3-1.4c0,0,0-0.1,0-0.1c0,0,0-0.1,0-0.1c0,0,0-0.1,0-0.1
					v-5.1c0,0,0-0.1,0-0.1c0-0.1,0-0.1,0-0.2c0.1-0.9,1-1.6,2-1.7c0.1,0,0.2,0,0.3,0h96.2c0.1,0,0.2,0,0.3,0c0.1,0,0.1,0,0.2,0
					c0.1,0,0.3,0.1,0.4,0.1c0.4,0.1,0.8,0.4,1.1,0.7C618.5,405,618.6,405.4,618.6,405.8z"/>
				<path class="st5" d="M571.4,412.8h-51.5c-0.3,0-0.6-0.1-0.9-0.2c-0.6-0.3-1-0.8-1.1-1.4c0,0,0-0.1,0-0.1c0,0,0-0.1,0-0.1
					c0,0,0-0.1,0-0.1v-5.1c0,0,0-0.1,0-0.1c0-0.1,0-0.1,0-0.2c0.1-0.9,0.9-1.6,1.8-1.7c0.1,0,0.2,0,0.2,0h45.2c0,0,0,0,0,0
					c0.7,2.6,2.3,6.1,6,8.8C571.2,412.7,571.3,412.7,571.4,412.8z"/>
				<g>
					<rect x="605.8" y="403.8" class="st5" width="1.1" height="9"/>
					<rect x="602.1" y="403.8" class="st5" width="1.1" height="9"/>
					<rect x="597.7" y="403.8" class="st5" width="1.1" height="9"/>
					<rect x="590.9" y="403.8" class="st5" width="1.1" height="9"/>
					<rect x="583.7" y="403.8" class="st5" width="1.1" height="9"/>
					<rect x="572.7" y="403.8" class="st5" width="1.1" height="9"/>
					<rect x="562.3" y="403.8" class="st5" width="1.1" height="9"/>
					<rect x="553.1" y="403.8" class="st5" width="1.1" height="9"/>
					<rect x="609.4" y="403.8" class="st5" width="1.1" height="9"/>
					<rect x="611.7" y="403.8" class="st5" width="1.1" height="9"/>
					<rect x="613.9" y="403.8" class="st5" width="1.1" height="9"/>
					<path class="st5" d="M616.7,403.8v8.9c-0.1,0-0.3,0-0.4,0h-0.7v-9h0.7C616.4,403.8,616.6,403.8,616.7,403.8z"/>
					<path class="st5" d="M618.2,404.7v7.3c-0.3,0.3-0.6,0.6-1.1,0.7v-8.7C617.6,404.1,618,404.3,618.2,404.7z"/>
				</g>
			</g>
			<g>
				<path class="st6" d="M621.6,396.8v5.1c0,0.4-0.1,0.8-0.4,1.1c-0.1,0.1-0.1,0.2-0.2,0.2c-0.2,0.2-0.5,0.4-0.9,0.5
					c-0.1,0-0.3,0.1-0.4,0.1c0,0-0.1,0-0.1,0c0,0,0,0-0.1,0c-0.1,0-0.1,0-0.2,0h-96.2c-0.1,0-0.2,0-0.3,0c-1-0.1-1.9-0.8-2-1.7
					c0-0.1,0-0.1,0-0.2v-5.3c0-0.1,0-0.1,0-0.2c0.2-0.9,1.1-1.7,2.3-1.7h96.2c0.1,0,0.3,0,0.4,0c0.1,0,0.3,0.1,0.4,0.1
					c0.4,0.1,0.8,0.4,1.1,0.7C621.5,396,621.6,396.4,621.6,396.8z"/>
				<path class="st5" d="M574.4,403.8h-51.5c-0.1,0-0.2,0-0.2,0c-0.9-0.1-1.7-0.8-1.8-1.7c0-0.1,0-0.1,0-0.2v-5.3c0-0.1,0-0.1,0-0.2
					c0-0.1,0-0.1,0.1-0.2c0.2-0.8,1-1.5,2-1.5h45.2C568.8,397.5,570.5,401.1,574.4,403.8C574.4,403.8,574.4,403.8,574.4,403.8z"/>
				<g>
					<rect x="608.8" y="394.8" class="st5" width="1.1" height="9"/>
					<rect x="605.1" y="394.8" class="st5" width="1.1" height="9"/>
					<rect x="600.7" y="394.8" class="st5" width="1.1" height="9"/>
					<rect x="593.9" y="394.8" class="st5" width="1.1" height="9"/>
					<rect x="586.7" y="394.8" class="st5" width="1.1" height="9"/>
					<rect x="575.7" y="394.8" class="st5" width="1.1" height="9"/>
					<rect x="565.4" y="394.8" class="st5" width="1.1" height="9"/>
					<rect x="556.1" y="394.8" class="st5" width="1.1" height="9"/>
					<rect x="612.4" y="394.8" class="st5" width="1.1" height="9"/>
					<rect x="614.7" y="394.8" class="st5" width="1.1" height="9"/>
					<rect x="616.9" y="394.8" class="st5" width="1.1" height="9"/>
					<path class="st5" d="M619.7,394.9v8.9c-0.1,0-0.3,0-0.4,0h-0.7v-9h0.7C619.5,394.8,619.6,394.9,619.7,394.9z"/>
					<path class="st5" d="M621.2,395.7v7.3c-0.3,0.3-0.6,0.6-1.1,0.7V395C620.6,395.1,621,395.4,621.2,395.7z"/>
				</g>
			</g>
		</g>
		<g>
			<g>
				<path class="st6" d="M318.4,485.8v5.1c0,0.4-0.1,0.8-0.4,1.1c-0.3,0.3-0.6,0.6-1.1,0.7c-0.1,0-0.3,0.1-0.4,0.1
					c-0.1,0-0.3,0-0.4,0h-96.2c-1.2,0-2.3-0.8-2.3-1.9c0,0,0-0.1,0-0.1v-5.1c0,0,0-0.1,0-0.1c0.1-1,1.1-1.9,2.3-1.9H316
					c0.1,0,0.3,0,0.4,0c0.1,0,0.3,0.1,0.4,0.1c0.4,0.1,0.8,0.4,1.1,0.7C318.2,485.1,318.4,485.4,318.4,485.8z"/>
				<path class="st5" d="M271.1,492.9h-51.5c-1.1,0-2-0.8-2.1-1.9c0,0,0-0.1,0-0.1v-5.1c0,0,0-0.1,0-0.1c0.1-1,1-1.9,2.1-1.9h45.2
					C265.5,486.5,267.2,490.2,271.1,492.9z"/>
				<g>
					<rect x="305.6" y="483.9" class="st5" width="1.1" height="9"/>
					<rect x="301.9" y="483.9" class="st5" width="1.1" height="9"/>
					<rect x="297.4" y="483.9" class="st5" width="1.1" height="9"/>
					<rect x="290.6" y="483.9" class="st5" width="1.1" height="9"/>
					<rect x="283.4" y="483.9" class="st5" width="1.1" height="9"/>
					<rect x="272.4" y="483.9" class="st5" width="1.1" height="9"/>
					<rect x="262.1" y="483.9" class="st5" width="1.1" height="9"/>
					<rect x="252.9" y="483.9" class="st5" width="1.1" height="9"/>
					<rect x="309.1" y="483.9" class="st5" width="1.1" height="9"/>
					<rect x="311.4" y="483.9" class="st5" width="1.1" height="9"/>
					<rect x="313.7" y="483.9" class="st5" width="1.1" height="9"/>
					<path class="st5" d="M316.5,483.9v8.9c-0.1,0-0.3,0-0.4,0h-0.7v-9h0.7C316.2,483.9,316.3,483.9,316.5,483.9z"/>
					<path class="st5" d="M318,484.8v7.3c-0.3,0.3-0.6,0.6-1.1,0.7V484C317.3,484.2,317.7,484.4,318,484.8z"/>
				</g>
			</g>
			<g>
				<path class="st6" d="M308.1,476.9v5.1c0,0.4-0.1,0.8-0.4,1.1c-0.3,0.3-0.6,0.6-1.1,0.7c-0.1,0-0.3,0.1-0.4,0.1
					c-0.1,0-0.3,0-0.4,0h-96.2c-1.2,0-2.3-0.8-2.3-1.9c0,0,0-0.1,0-0.1v-5.1c0,0,0-0.1,0-0.1c0.1-1,1.1-1.9,2.3-1.9h96.2
					c0.1,0,0.1,0,0.2,0c0,0,0.1,0,0.1,0c0,0,0.1,0,0.1,0c0,0,0,0,0.1,0c0.1,0,0.3,0.1,0.4,0.1c0,0,0,0,0.1,0c0,0,0,0,0.1,0
					c0,0,0.1,0,0.1,0c0,0,0,0,0.1,0c0,0,0,0,0.1,0c0,0,0.1,0,0.1,0.1c0,0,0.1,0,0.1,0.1c0,0,0.1,0,0.1,0.1c0,0,0,0,0,0
					c0,0,0,0,0.1,0c0.1,0,0.1,0.1,0.2,0.1c0,0,0,0,0,0c0,0,0,0,0,0c0,0,0.1,0.1,0.1,0.1C307.9,476.1,308.1,476.5,308.1,476.9z"/>
				<path class="st5" d="M260.9,483.9h-51.5c-1.1,0-2-0.8-2.1-1.9c0,0,0-0.1,0-0.1v-5.1c0,0,0-0.1,0-0.1c0.1-1,1-1.9,2.1-1.9h45.2
					c0,0.1,0,0.1,0.1,0.2C255.3,477.8,257,481.3,260.9,483.9z"/>
				<g>
					<rect x="295.3" y="474.9" class="st5" width="1.1" height="9"/>
					<rect x="291.6" y="474.9" class="st5" width="1.1" height="9"/>
					<rect x="287.2" y="474.9" class="st5" width="1.1" height="9"/>
					<rect x="280.4" y="474.9" class="st5" width="1.1" height="9"/>
					<rect x="273.2" y="474.9" class="st5" width="1.1" height="9"/>
					<rect x="262.1" y="474.9" class="st5" width="1.1" height="9"/>
					<rect x="251.8" y="474.9" class="st5" width="1.1" height="9"/>
					<rect x="242.6" y="474.9" class="st5" width="1.1" height="9"/>
					<rect x="298.8" y="474.9" class="st5" width="1.1" height="9"/>
					<rect x="301.1" y="474.9" class="st5" width="1.1" height="9"/>
					<rect x="303.4" y="474.9" class="st5" width="1.1" height="9"/>
					<path class="st5" d="M306.2,474.9v8.9c-0.1,0-0.3,0-0.4,0h-0.7v-9h0.7C305.9,474.9,306,474.9,306.2,474.9z"/>
					<path class="st5" d="M307.7,475.8v7.3c-0.3,0.3-0.6,0.6-1.1,0.7V475C307,475.2,307.4,475.4,307.7,475.8z"/>
				</g>
			</g>
			<g>
				<path class="st6" d="M313.1,468.1v5.1c0,0.4-0.1,0.8-0.4,1.1c-0.3,0.3-0.6,0.6-1.1,0.7c-0.1,0-0.3,0.1-0.4,0.1
					c-0.1,0-0.3,0-0.4,0h-96.2c-0.4,0-0.8-0.1-1.1-0.2c-0.7-0.3-1.2-0.9-1.2-1.5c0,0,0-0.1,0-0.1c0,0,0-0.1,0-0.1v-5.1
					c0,0,0-0.1,0-0.1c0.1-1,1.1-1.9,2.3-1.9h96.2c0.1,0,0.3,0,0.4,0c0.1,0,0.3,0.1,0.4,0.1c0.4,0.1,0.8,0.4,1.1,0.7
					C312.9,467.3,313.1,467.7,313.1,468.1z"/>
				<path class="st5" d="M265.8,475.1h-51.5c-0.3,0-0.7-0.1-1-0.2c-0.6-0.3-1-0.9-1.1-1.5c0,0,0-0.1,0-0.1c0,0,0-0.1,0-0.1v-5.1
					c0,0,0-0.1,0-0.1c0.1-1,1-1.9,2.1-1.9h45.2c0.7,2.6,2.3,6.1,6,8.8C265.6,475,265.7,475.1,265.8,475.1z"/>
				<g>
					<rect x="300.3" y="466.2" class="st5" width="1.1" height="9"/>
					<rect x="296.6" y="466.2" class="st5" width="1.1" height="9"/>
					<rect x="292.1" y="466.2" class="st5" width="1.1" height="9"/>
					<rect x="285.3" y="466.2" class="st5" width="1.1" height="9"/>
					<rect x="278.1" y="466.2" class="st5" width="1.1" height="9"/>
					<rect x="267.1" y="466.2" class="st5" width="1.1" height="9"/>
					<rect x="256.8" y="466.2" class="st5" width="1.1" height="9"/>
					<rect x="247.6" y="466.2" class="st5" width="1.1" height="9"/>
					<rect x="303.8" y="466.2" class="st5" width="1.1" height="9"/>
					<rect x="306.1" y="466.2" class="st5" width="1.1" height="9"/>
					<rect x="308.4" y="466.2" class="st5" width="1.1" height="9"/>
					<path class="st5" d="M311.1,466.2v8.9c-0.1,0-0.3,0-0.4,0h-0.7v-9h0.7C310.9,466.2,311,466.2,311.1,466.2z"/>
					<path class="st5" d="M312.7,467v7.3c-0.3,0.3-0.6,0.6-1.1,0.7v-8.7C312,466.4,312.4,466.7,312.7,467z"/>
				</g>
			</g>
			<g>
				<path class="st6" d="M315.4,459.1v5.1c0,0.4-0.1,0.8-0.4,1.1c-0.3,0.3-0.6,0.6-1.1,0.7c-0.1,0-0.3,0.1-0.4,0.1
					c-0.1,0-0.3,0-0.4,0h-96.2c-1.2,0-2.3-0.8-2.3-1.9c0,0,0-0.1,0-0.1v-5.1c0,0,0-0.1,0-0.1c0.1-1,0.9-1.7,2-1.8c0.1,0,0.2,0,0.3,0
					H313c0.1,0,0.3,0,0.4,0c0.1,0,0.3,0.1,0.4,0.1c0.4,0.1,0.8,0.4,1.1,0.7C315.2,458.3,315.4,458.7,315.4,459.1z"/>
				<path class="st5" d="M268.1,466.2h-51.5c-1.1,0-2-0.8-2.1-1.9c0,0,0-0.1,0-0.1v-5.1c0,0,0-0.1,0-0.1c0.1-1,0.8-1.7,1.8-1.8
					c0.1,0,0.2,0,0.2,0h45.2c0,0,0,0,0,0C262.5,459.8,264.2,463.5,268.1,466.2z"/>
				<g>
					<rect x="302.6" y="457.2" class="st5" width="1.1" height="9"/>
					<rect x="298.9" y="457.2" class="st5" width="1.1" height="9"/>
					<rect x="294.4" y="457.2" class="st5" width="1.1" height="9"/>
					<rect x="287.6" y="457.2" class="st5" width="1.1" height="9"/>
					<rect x="280.4" y="457.2" class="st5" width="1.1" height="9"/>
					<rect x="269.4" y="457.2" class="st5" width="1.1" height="9"/>
					<rect x="259.1" y="457.2" class="st5" width="1.1" height="9"/>
					<rect x="249.9" y="457.2" class="st5" width="1.1" height="9"/>
					<rect x="306.1" y="457.2" class="st5" width="1.1" height="9"/>
					<rect x="308.4" y="457.2" class="st5" width="1.1" height="9"/>
					<rect x="310.7" y="457.2" class="st5" width="1.1" height="9"/>
					<path class="st5" d="M313.4,457.2v8.9c-0.1,0-0.3,0-0.4,0h-0.7v-9h0.7C313.2,457.2,313.3,457.2,313.4,457.2z"/>
					<path class="st5" d="M315,458v7.3c-0.3,0.3-0.6,0.6-1.1,0.7v-8.7C314.3,457.4,314.7,457.7,315,458z"/>
				</g>
			</g>
			<g>
				<path class="st6" d="M308.3,450.2v5.1c0,0.4-0.1,0.8-0.4,1.1c-0.3,0.3-0.6,0.6-1.1,0.7c-0.1,0-0.3,0.1-0.4,0.1c0,0-0.1,0-0.1,0
					c0,0-0.1,0-0.1,0c0,0-0.1,0-0.1,0c0,0-0.1,0-0.1,0h-96.2c-1.2,0-2.3-0.8-2.3-1.9c0,0,0-0.1,0-0.1v-5.1c0,0,0-0.1,0-0.1
					c0,0,0-0.1,0-0.1c0.1-0.8,0.8-1.5,1.7-1.7c0,0,0,0,0.1,0c0.2,0,0.3,0,0.5,0H306c0.1,0,0.1,0,0.2,0c0,0,0.1,0,0.1,0h0
					c0,0,0.1,0,0.1,0c0.1,0,0.3,0.1,0.4,0.1c0.4,0.1,0.8,0.4,1.1,0.7C308.1,449.4,308.3,449.8,308.3,450.2z"/>
				<path class="st5" d="M261.1,457.2h-51.5c-1.1,0-2-0.8-2.1-1.9c0,0,0-0.1,0-0.1v-5.1c0,0,0-0.1,0-0.1c0,0,0-0.1,0-0.1
					c0.1-0.8,0.7-1.5,1.6-1.7c0,0,0.1,0,0.1,0c0.1,0,0.2,0,0.4,0h45.2c0,0,0,0,0,0.1C255.5,450.9,257.2,454.5,261.1,457.2
					C261,457.2,261,457.2,261.1,457.2z"/>
				<g>
					<rect x="295.5" y="448.2" class="st5" width="1.1" height="9"/>
					<rect x="291.8" y="448.2" class="st5" width="1.1" height="9"/>
					<rect x="287.4" y="448.2" class="st5" width="1.1" height="9"/>
					<rect x="280.6" y="448.2" class="st5" width="1.1" height="9"/>
					<rect x="273.4" y="448.2" class="st5" width="1.1" height="9"/>
					<rect x="262.3" y="448.2" class="st5" width="1.1" height="9"/>
					<rect x="252" y="448.2" class="st5" width="1.1" height="9"/>
					<rect x="242.8" y="448.2" class="st5" width="1.1" height="9"/>
					<rect x="299" y="448.2" class="st5" width="1.1" height="9"/>
					<rect x="301.3" y="448.2" class="st5" width="1.1" height="9"/>
					<rect x="303.6" y="448.2" class="st5" width="1.1" height="9"/>
					<path class="st5" d="M306.4,448.2v8.9c-0.1,0-0.3,0-0.4,0h-0.7v-9h0.7C306.1,448.2,306.2,448.2,306.4,448.2z"/>
					<path class="st5" d="M307.9,449.1v7.3c-0.3,0.3-0.6,0.6-1.1,0.7v-8.7C307.2,448.5,307.6,448.7,307.9,449.1z"/>
				</g>
			</g>
			<g>
				<path class="st6" d="M308.1,441.2v5.1c0,0.4-0.1,0.8-0.4,1.1c-0.3,0.3-0.6,0.6-1.1,0.7c-0.1,0-0.2,0.1-0.3,0.1h0
					c0,0-0.1,0-0.1,0c-0.1,0-0.3,0-0.4,0h-96.2c-0.1,0-0.2,0-0.3,0c0,0-0.1,0-0.1,0c-1-0.2-1.9-0.9-1.9-1.8c0,0,0-0.1,0-0.1v-5.1
					c0,0,0-0.1,0-0.1c0.1-1,1.1-1.9,2.3-1.9h96.2c0.1,0,0.1,0,0.2,0c0,0,0.1,0,0.1,0c0,0,0.1,0,0.1,0c0,0,0,0,0.1,0
					c0.1,0,0.3,0.1,0.4,0.1c0,0,0,0,0.1,0c0,0,0,0,0.1,0c0,0,0.1,0,0.1,0c0,0,0.1,0,0.1,0.1c0,0,0.1,0,0.1,0.1c0,0,0.1,0,0.1,0.1
					c0,0,0.1,0,0.1,0.1c0,0,0,0,0,0c0,0,0,0,0.1,0c0.1,0,0.1,0.1,0.2,0.1c0,0,0,0,0,0c0,0,0,0,0,0c0,0,0.1,0.1,0.1,0.1
					C307.9,440.5,308.1,440.8,308.1,441.2z"/>
				<path class="st5" d="M260.9,448.3h-51.5c0,0-0.1,0-0.1,0c0,0-0.1,0-0.1,0c-1-0.1-1.8-0.9-1.8-1.8c0,0,0-0.1,0-0.1v-5.1
					c0,0,0-0.1,0-0.1c0.1-1,1-1.9,2.1-1.9h45.2c0,0.1,0,0.1,0.1,0.2C255.3,442.1,257,445.6,260.9,448.3
					C260.8,448.2,260.8,448.2,260.9,448.3z"/>
				<g>
					<rect x="295.3" y="439.3" class="st5" width="1.1" height="9"/>
					<rect x="291.6" y="439.3" class="st5" width="1.1" height="9"/>
					<rect x="287.2" y="439.3" class="st5" width="1.1" height="9"/>
					<rect x="280.4" y="439.3" class="st5" width="1.1" height="9"/>
					<rect x="273.2" y="439.3" class="st5" width="1.1" height="9"/>
					<rect x="262.1" y="439.3" class="st5" width="1.1" height="9"/>
					<rect x="251.8" y="439.3" class="st5" width="1.1" height="9"/>
					<rect x="242.6" y="439.3" class="st5" width="1.1" height="9"/>
					<rect x="298.8" y="439.3" class="st5" width="1.1" height="9"/>
					<rect x="301.1" y="439.3" class="st5" width="1.1" height="9"/>
					<rect x="303.4" y="439.3" class="st5" width="1.1" height="9"/>
					<path class="st5" d="M306.2,439.3v8.9c-0.1,0-0.3,0-0.4,0h-0.7v-9h0.7C305.9,439.3,306,439.3,306.2,439.3z"/>
					<path class="st5" d="M307.7,440.2v7.3c-0.3,0.3-0.6,0.6-1.1,0.7v-8.7C307,439.6,307.4,439.8,307.7,440.2z"/>
				</g>
			</g>
			<g>
				<path class="st6" d="M313.1,432.5v5.1c0,0.4-0.1,0.8-0.4,1.1c-0.3,0.3-0.6,0.6-1.1,0.7c-0.1,0-0.3,0.1-0.4,0.1
					c-0.1,0-0.3,0-0.4,0h-96.2c-0.4,0-0.8-0.1-1.1-0.2c-0.7-0.3-1.2-0.9-1.2-1.5c0,0,0-0.1,0-0.1c0,0,0-0.1,0-0.1v-5.1
					c0,0,0-0.1,0-0.1c0.1-1,1.1-1.9,2.3-1.9h96.2c0.1,0,0.3,0,0.4,0c0.1,0,0.3,0.1,0.4,0.1c0.4,0.1,0.8,0.4,1.1,0.7
					C312.9,431.7,313.1,432.1,313.1,432.5z"/>
				<path class="st5" d="M265.8,439.5h-51.5c-0.3,0-0.7-0.1-1-0.2c-0.6-0.3-1-0.9-1.1-1.5c0,0,0-0.1,0-0.1c0,0,0-0.1,0-0.1v-5.1
					c0,0,0-0.1,0-0.1c0.1-1,1-1.9,2.1-1.9h45.2c0.7,2.6,2.3,6.1,6,8.8C265.6,439.4,265.7,439.4,265.8,439.5z"/>
				<g>
					<rect x="300.3" y="430.5" class="st5" width="1.1" height="9"/>
					<rect x="296.6" y="430.5" class="st5" width="1.1" height="9"/>
					<rect x="292.1" y="430.5" class="st5" width="1.1" height="9"/>
					<rect x="285.3" y="430.5" class="st5" width="1.1" height="9"/>
					<rect x="278.1" y="430.5" class="st5" width="1.1" height="9"/>
					<rect x="267.1" y="430.5" class="st5" width="1.1" height="9"/>
					<rect x="256.8" y="430.5" class="st5" width="1.1" height="9"/>
					<rect x="247.6" y="430.5" class="st5" width="1.1" height="9"/>
					<rect x="303.8" y="430.5" class="st5" width="1.1" height="9"/>
					<rect x="306.1" y="430.5" class="st5" width="1.1" height="9"/>
					<rect x="308.4" y="430.5" class="st5" width="1.1" height="9"/>
					<path class="st5" d="M311.1,430.6v8.9c-0.1,0-0.3,0-0.4,0h-0.7v-9h0.7C310.9,430.5,311,430.5,311.1,430.6z"/>
					<path class="st5" d="M312.7,431.4v7.3c-0.3,0.3-0.6,0.6-1.1,0.7v-8.7C312,430.8,312.4,431.1,312.7,431.4z"/>
				</g>
			</g>
			<g>
				<path class="st6" d="M320.9,423.5v5.1c0,0.4-0.1,0.8-0.4,1.1c-0.3,0.3-0.6,0.6-1.1,0.7c-0.1,0-0.3,0.1-0.4,0.1
					c-0.1,0-0.3,0-0.4,0h-96.2c-1.2,0-2.3-0.8-2.3-1.9c0,0,0-0.1,0-0.1v-5.1c0,0,0-0.1,0-0.1c0.1-1,0.9-1.7,2-1.8c0.1,0,0.2,0,0.3,0
					h96.2c0.1,0,0.3,0,0.4,0c0.1,0,0.3,0.1,0.4,0.1c0.4,0.1,0.8,0.4,1.1,0.7C320.8,422.7,320.9,423.1,320.9,423.5z"/>
				<path class="st5" d="M273.7,430.5h-51.5c-1.1,0-2-0.8-2.1-1.9c0,0,0-0.1,0-0.1v-5.1c0,0,0-0.1,0-0.1c0.1-1,0.8-1.7,1.8-1.8
					c0.1,0,0.2,0,0.2,0h45.2c0,0,0,0,0,0C268.1,424.2,269.8,427.9,273.7,430.5z"/>
				<g>
					<rect x="308.1" y="421.5" class="st5" width="1.1" height="9"/>
					<rect x="304.4" y="421.5" class="st5" width="1.1" height="9"/>
					<rect x="300" y="421.5" class="st5" width="1.1" height="9"/>
					<rect x="293.2" y="421.5" class="st5" width="1.1" height="9"/>
					<rect x="286" y="421.5" class="st5" width="1.1" height="9"/>
					<rect x="275" y="421.5" class="st5" width="1.1" height="9"/>
					<rect x="264.6" y="421.5" class="st5" width="1.1" height="9"/>
					<rect x="255.4" y="421.5" class="st5" width="1.1" height="9"/>
					<rect x="311.6" y="421.5" class="st5" width="1.1" height="9"/>
					<rect x="314" y="421.5" class="st5" width="1.1" height="9"/>
					<rect x="316.2" y="421.5" class="st5" width="1.1" height="9"/>
					<path class="st5" d="M319,421.6v8.9c-0.1,0-0.3,0-0.4,0h-0.7v-9h0.7C318.7,421.5,318.9,421.6,319,421.6z"/>
					<path class="st5" d="M320.5,422.4v7.3c-0.3,0.3-0.6,0.6-1.1,0.7v-8.7C319.9,421.8,320.3,422.1,320.5,422.4z"/>
				</g>
			</g>
			<g>
				<path class="st6" d="M308.3,414.5v5.1c0,0.4-0.1,0.8-0.4,1.1c-0.3,0.3-0.6,0.6-1.1,0.7c-0.1,0-0.3,0.1-0.4,0.1c0,0-0.1,0-0.1,0
					c0,0-0.1,0-0.1,0c0,0,0,0-0.1,0c0,0-0.1,0-0.1,0h-96.2c-1.2,0-2.3-0.8-2.3-1.9c0,0,0-0.1,0-0.1v-5.1c0,0,0-0.1,0-0.1
					c0.1-1,1.1-1.9,2.3-1.9H306c0,0,0.1,0,0.1,0c0.1,0,0.2,0,0.3,0c0.1,0,0.3,0.1,0.4,0.1c0.1,0,0.1,0,0.2,0.1c0,0,0.1,0,0.1,0.1
					c0,0,0,0,0,0c0,0,0.1,0,0.1,0.1c0,0,0,0,0,0c0,0,0.1,0,0.1,0.1c0.1,0.1,0.2,0.1,0.2,0.2c0,0,0,0,0.1,0.1c0,0,0,0,0,0
					c0,0,0,0,0,0c0,0,0,0,0,0c0,0,0,0,0.1,0.1c0,0,0.1,0.1,0.1,0.1C308.1,413.8,308.3,414.1,308.3,414.5z"/>
				<path class="st5" d="M261.1,421.6h-51.5c-1.1,0-2-0.8-2.1-1.9c0,0,0-0.1,0-0.1v-5.1c0,0,0-0.1,0-0.1c0.1-1,1-1.9,2.1-1.9h45.2
					c0,0.1,0,0.1,0.1,0.2C255.5,415.4,257.2,418.9,261.1,421.6C261,421.6,261,421.6,261.1,421.6z"/>
				<g>
					<rect x="295.5" y="412.6" class="st5" width="1.1" height="9"/>
					<rect x="291.8" y="412.6" class="st5" width="1.1" height="9"/>
					<rect x="287.4" y="412.6" class="st5" width="1.1" height="9"/>
					<rect x="280.6" y="412.6" class="st5" width="1.1" height="9"/>
					<rect x="273.4" y="412.6" class="st5" width="1.1" height="9"/>
					<rect x="262.3" y="412.6" class="st5" width="1.1" height="9"/>
					<rect x="252" y="412.6" class="st5" width="1.1" height="9"/>
					<rect x="242.8" y="412.6" class="st5" width="1.1" height="9"/>
					<rect x="299" y="412.6" class="st5" width="1.1" height="9"/>
					<rect x="301.3" y="412.6" class="st5" width="1.1" height="9"/>
					<rect x="303.6" y="412.6" class="st5" width="1.1" height="9"/>
					<path class="st5" d="M306.4,412.6v8.9c-0.1,0-0.3,0-0.4,0h-0.7v-9h0.7C306.1,412.6,306.2,412.6,306.4,412.6z"/>
					<path class="st5" d="M307.9,413.4v7.3c-0.3,0.3-0.6,0.6-1.1,0.7v-8.7C307.2,412.9,307.6,413.1,307.9,413.4z"/>
				</g>
			</g>
			<g>
				<path class="st6" d="M315.4,405.8v5.1c0,0.4-0.1,0.8-0.4,1.1c-0.3,0.3-0.6,0.6-1.1,0.7c-0.1,0-0.3,0.1-0.4,0.1
					c-0.1,0-0.3,0-0.4,0h-96.2c-0.4,0-0.7-0.1-1-0.2c-0.7-0.3-1.2-0.9-1.3-1.6c0,0,0-0.1,0-0.1c0,0,0-0.1,0-0.1v-5.1
					c0,0,0-0.1,0-0.1c0.1-1,0.9-1.7,2-1.8c0.1,0,0.2,0,0.3,0H313c0.1,0,0.3,0,0.4,0c0.1,0,0.3,0.1,0.4,0.1c0.4,0.1,0.8,0.4,1.1,0.7
					C315.2,405,315.4,405.4,315.4,405.8z"/>
				<path class="st5" d="M268.1,412.8h-51.5c-0.3,0-0.6-0.1-0.9-0.2c-0.6-0.3-1.1-0.9-1.1-1.6c0,0,0-0.1,0-0.1c0,0,0-0.1,0-0.1v-5.1
					c0,0,0-0.1,0-0.1c0.1-1,0.8-1.7,1.8-1.8c0.1,0,0.2,0,0.2,0h45.2c0,0,0,0,0,0c0.7,2.6,2.3,6.1,6,8.8
					C267.9,412.7,268,412.7,268.1,412.8z"/>
				<g>
					<rect x="302.6" y="403.8" class="st5" width="1.1" height="9"/>
					<rect x="298.9" y="403.8" class="st5" width="1.1" height="9"/>
					<rect x="294.4" y="403.8" class="st5" width="1.1" height="9"/>
					<rect x="287.6" y="403.8" class="st5" width="1.1" height="9"/>
					<rect x="280.4" y="403.8" class="st5" width="1.1" height="9"/>
					<rect x="269.4" y="403.8" class="st5" width="1.1" height="9"/>
					<rect x="259.1" y="403.8" class="st5" width="1.1" height="9"/>
					<rect x="249.9" y="403.8" class="st5" width="1.1" height="9"/>
					<rect x="306.1" y="403.8" class="st5" width="1.1" height="9"/>
					<rect x="308.4" y="403.8" class="st5" width="1.1" height="9"/>
					<rect x="310.7" y="403.8" class="st5" width="1.1" height="9"/>
					<path class="st5" d="M313.4,403.8v8.9c-0.1,0-0.3,0-0.4,0h-0.7v-9h0.7C313.2,403.8,313.3,403.8,313.4,403.8z"/>
					<path class="st5" d="M315,404.7v7.3c-0.3,0.3-0.6,0.6-1.1,0.7v-8.7C314.3,404.1,314.7,404.3,315,404.7z"/>
				</g>
			</g>
			<g>
				<path class="st6" d="M318.4,396.8v5.1c0,0.4-0.1,0.8-0.4,1.1c-0.3,0.3-0.6,0.6-1.1,0.7c-0.1,0-0.3,0.1-0.4,0.1c0,0-0.1,0-0.1,0
					c0,0-0.1,0-0.1,0c0,0-0.1,0-0.1,0c0,0-0.1,0-0.1,0h-96.2c-1.2,0-2.3-0.8-2.3-1.9c0,0,0-0.1,0-0.1v-5.1c0,0,0-0.1,0-0.1
					c0.1-1,1.1-1.9,2.3-1.9H316c0.1,0,0.3,0,0.4,0c0.1,0,0.3,0.1,0.4,0.1c0.4,0.1,0.8,0.4,1.1,0.7
					C318.2,396,318.4,396.4,318.4,396.8z"/>
				<path class="st5" d="M271.1,403.8h-51.5c-1.1,0-2-0.8-2.1-1.9c0,0,0-0.1,0-0.1v-5.1c0,0,0-0.1,0-0.1c0.1-1,1-1.9,2.1-1.9h45.2
					C265.5,397.5,267.2,401.1,271.1,403.8C271.1,403.8,271.1,403.8,271.1,403.8z"/>
				<g>
					<rect x="305.6" y="394.8" class="st5" width="1.1" height="9"/>
					<rect x="301.9" y="394.8" class="st5" width="1.1" height="9"/>
					<rect x="297.4" y="394.8" class="st5" width="1.1" height="9"/>
					<rect x="290.6" y="394.8" class="st5" width="1.1" height="9"/>
					<rect x="283.4" y="394.8" class="st5" width="1.1" height="9"/>
					<rect x="272.4" y="394.8" class="st5" width="1.1" height="9"/>
					<rect x="262.1" y="394.8" class="st5" width="1.1" height="9"/>
					<rect x="252.9" y="394.8" class="st5" width="1.1" height="9"/>
					<rect x="309.1" y="394.8" class="st5" width="1.1" height="9"/>
					<rect x="311.4" y="394.8" class="st5" width="1.1" height="9"/>
					<rect x="313.7" y="394.8" class="st5" width="1.1" height="9"/>
					<path class="st5" d="M316.5,394.9v8.9c-0.1,0-0.3,0-0.4,0h-0.7v-9h0.7C316.2,394.8,316.3,394.9,316.5,394.9z"/>
					<path class="st5" d="M318,395.7v7.3c-0.3,0.3-0.6,0.6-1.1,0.7V395C317.3,395.1,317.7,395.4,318,395.7z"/>
				</g>
			</g>
		</g>
		<circle class="st7" cx="510.4" cy="445.2" r="48"/>
		<path class="st8" d="M566.7,452.7c0,1.5-0.1,3-0.2,4.5v0c-0.1,1-0.2,2-0.3,3c-0.3,2-0.6,4-1.1,6c-0.3,1.2-0.6,2.4-1,3.5
			c-0.6,1.8-1.2,3.6-1.9,5.3c0,0.1-0.1,0.1-0.1,0.2c-0.7,1.6-1.4,3.1-2.2,4.5c-0.8,1.5-1.6,2.9-2.5,4.2c-0.1,0.1-0.1,0.2-0.2,0.3
			c-0.4,0.5-0.7,1-1.1,1.6c-1.9,2.6-4,5-6.3,7.2h-26.9c-1,0-1.8-0.6-2-1.4c0-0.1,0-0.1-0.1-0.2c0-0.1,0-0.1,0-0.2v-5.3
			c0-0.1,0-0.1,0-0.2c0-0.1,0-0.1,0.1-0.2c0.2-0.8,1-1.4,2-1.4h-10.3c-1,0-1.8-0.6-2-1.5c0-0.1,0-0.1-0.1-0.2c0-0.1,0-0.1,0-0.2
			c0,0,0-0.1,0-0.1v-5.1c0,0,0-0.1,0-0.1c0-0.1,0-0.1,0-0.2c0-0.1,0-0.1,0.1-0.2c0.2-0.8,1-1.5,2-1.5h4c-0.6-0.3-1-0.9-1.1-1.5
			c0,0,0-0.1,0-0.1c0,0,0-0.1,0-0.1v-5.1c0,0,0-0.1,0-0.1c0-0.1,0-0.1,0-0.2c0-0.1,0-0.1,0.1-0.2c0.2-0.8,1-1.5,2-1.5h2.3
			c-1,0-1.8-0.6-2-1.4c0-0.1,0-0.1-0.1-0.2c0-0.1,0-0.1,0-0.2c0,0,0-0.1,0-0.1v-5.1c0,0,0-0.1,0-0.1c0-0.1,0-0.1,0-0.2
			c0.1-0.9,0.9-1.6,1.8-1.7h-6.8c-1,0-1.8-0.6-2-1.4c0-0.1,0-0.1-0.1-0.2c0-0.1,0-0.1,0-0.2v-5.3c0,0,0-0.1,0-0.1
			c0.1-0.8,0.7-1.5,1.6-1.7c-0.9-0.1-1.7-0.8-1.8-1.7c0-0.1,0-0.1,0-0.2c0,0,0-0.1,0-0.1v-5.1c0,0,0-0.1,0-0.1c0-0.1,0-0.1,0-0.2
			c0-0.1,0-0.1,0.1-0.2c0.2-0.8,1-1.5,2-1.5h4c-0.6-0.3-1-0.9-1.1-1.5c0,0,0-0.1,0-0.1s0-0.1,0-0.1v-5.1c0,0,0-0.1,0-0.1
			c0-0.1,0-0.1,0-0.2c0-0.1,0-0.1,0.1-0.2c0.2-0.8,1-1.5,2-1.5h7.9c-1,0-1.8-0.6-2-1.5c0-0.1,0-0.1-0.1-0.2c0-0.1,0-0.1,0-0.2
			c0,0,0-0.1,0-0.1v-5.1c0,0,0-0.1,0-0.1c0-0.1,0-0.2,0-0.3c0.2-0.8,0.9-1.5,1.8-1.6h-12.4c-1,0-1.8-0.6-2-1.4c0-0.1,0-0.1-0.1-0.2
			c0-0.1,0-0.1,0-0.2v-5.3c0-0.1,0-0.1,0-0.2c0-0.1,0-0.1,0.1-0.2c0.2-0.8,1-1.4,2-1.4h6.1c-0.6-0.3-1-0.8-1.1-1.4c0,0,0-0.1,0-0.1
			c0,0,0-0.1,0-0.1c0,0,0-0.1,0-0.1v-5.1c0,0,0-0.1,0-0.1c0-0.1,0-0.1,0-0.2c0.1-0.9,0.9-1.6,1.8-1.7c0.1,0,0.2,0,0.2,0h2.8
			c-0.9-0.1-1.7-0.8-1.8-1.7c0-0.1,0-0.1,0-0.2v-2c5.6,0.3,11,1.6,16,3.8c0,0,0,0,0,0c4.8,2.1,9.2,5.1,13.1,8.8
			c0.1,0.1,0.1,0.1,0.2,0.2c1.9,1.8,3.6,3.7,5.2,5.7c0.4,0.5,0.7,1,1.1,1.5c0.4,0.5,0.7,1,1.1,1.5c0,0,0,0,0,0
			c0.4,0.6,0.8,1.3,1.2,1.9c0.4,0.6,0.7,1.2,1.1,1.9c0.9,1.7,1.7,3.4,2.5,5.1c1.2,2.8,2.1,5.7,2.9,8.8c0,0.1,0,0.1,0.1,0.2
			c0.1,0.3,0.1,0.6,0.2,1c0.5,2.4,0.9,4.9,1.1,7.4c0,0.1,0,0.3,0,0.4c0,0,0,0,0,0.1C566.6,449.7,566.7,451.2,566.7,452.7z"/>
		<circle class="st6" cx="506.2" cy="445.2" r="48"/>
		<g>
			<path class="st5" d="M506.2,489.5c-11.7,0-22.7-4.5-30.9-12.8c-8.3-8.3-12.8-19.2-12.8-30.9s4.5-22.7,12.8-30.9
				c8.3-8.3,19.2-12.8,30.9-12.8c11.7,0,22.7,4.5,30.9,12.8c8.3,8.3,12.8,19.2,12.8,30.9s-4.5,22.7-12.8,30.9
				S517.9,489.5,506.2,489.5z M506.2,404.6c-22.7,0-41.1,18.4-41.1,41.1c0,22.7,18.4,41.1,41.1,41.1c22.7,0,41.1-18.4,41.1-41.1
				C547.4,423.1,528.9,404.6,506.2,404.6z"/>
		</g>
		<g>
			<path class="st5" d="M512.3,458.4c0.1-0.9,0.1-1.8-0.1-2.5c-0.2-0.8-0.5-1.5-1.1-2.1c-0.5-0.7-1.3-1.3-2.1-1.9
				c-0.9-0.6-2-1.2-3.3-1.9c-2.3-1.1-4.3-2.2-6.1-3.4c-1.8-1.1-3.4-2.4-4.6-3.7c-1.2-1.4-2.1-2.9-2.7-4.6c-0.6-1.7-0.7-3.6-0.5-5.8
				c0.2-1.9,0.8-3.6,1.6-5.1c0.9-1.5,2-2.7,3.4-3.8c1.4-1,3-1.8,4.9-2.3c1.8-0.5,3.9-0.8,6.1-0.7l0.9-7.2l5.8,0.7l-0.9,7.3
				c2,0.5,3.9,1.3,5.5,2.3c1.6,1,2.9,2.3,3.9,3.7c1,1.5,1.8,3.1,2.2,5c0.4,1.9,0.5,3.9,0.2,6.2l-10.5-1.2c0.3-2.7,0-4.8-1.1-6.3
				c-1-1.5-2.6-2.3-4.6-2.6c-1.1-0.1-2-0.1-2.9,0.1c-0.8,0.2-1.5,0.5-2.1,1c-0.6,0.5-1,1-1.3,1.7c-0.3,0.7-0.5,1.4-0.6,2.3
				c-0.1,0.8-0.1,1.6,0.1,2.3c0.2,0.7,0.5,1.4,1,2c0.5,0.6,1.2,1.3,2.2,1.9c0.9,0.6,2.1,1.3,3.5,2c2.2,1.2,4.3,2.3,6.1,3.5
				c1.8,1.1,3.3,2.4,4.6,3.8c1.2,1.4,2.1,2.9,2.7,4.6c0.6,1.7,0.7,3.6,0.5,5.8c-0.2,2-0.8,3.7-1.7,5.2c-0.9,1.5-2,2.7-3.4,3.7
				c-1.4,1-3,1.7-4.9,2.2c-1.9,0.5-3.9,0.7-6.1,0.6l-0.8,6.7l-5.8-0.7l0.8-6.7c-2-0.4-3.9-1.1-5.7-2c-1.8-0.9-3.3-2.1-4.6-3.5
				c-1.3-1.4-2.3-3.2-2.9-5.2c-0.6-2-0.8-4.4-0.5-7.1l10.5,1.2c-0.2,1.6-0.1,3,0.2,4.1c0.3,1.1,0.8,2,1.5,2.8
				c0.7,0.7,1.5,1.3,2.4,1.7c0.9,0.4,1.9,0.6,2.9,0.7c1.1,0.1,2.1,0.1,3-0.1c0.9-0.2,1.7-0.5,2.3-1c0.6-0.4,1.1-1,1.5-1.7
				C511.9,460,512.2,459.3,512.3,458.4z"/>
		</g>
		<g>
			<circle class="st7" cx="270.6" cy="340.6" r="54.2"/>
			<circle class="st6" cx="265.9" cy="340.6" r="54.2"/>
			<g>
				<path class="st5" d="M265.9,390.7c-13.2,0-25.6-5.1-34.9-14.5c-9.3-9.3-14.5-21.7-14.5-34.9c0-13.2,5.1-25.6,14.5-34.9
					c9.3-9.3,21.7-14.5,34.9-14.5c13.2,0,25.6,5.1,34.9,14.5c9.3,9.3,14.5,21.7,14.5,34.9c0,13.2-5.1,25.6-14.5,34.9
					C291.5,385.5,279.1,390.7,265.9,390.7z M265.9,294.8c-25.6,0-46.5,20.8-46.5,46.5c0,25.6,20.8,46.5,46.5,46.5
					c25.6,0,46.5-20.8,46.5-46.5C312.4,315.6,291.5,294.8,265.9,294.8z"/>
			</g>
			<g>
				<path class="st5" d="M272.7,355.6c0.1-1.1,0.1-2-0.1-2.9c-0.2-0.8-0.6-1.6-1.2-2.4c-0.6-0.7-1.4-1.5-2.4-2.1
					c-1-0.7-2.3-1.4-3.8-2.1c-2.6-1.3-4.9-2.5-6.9-3.8c-2.1-1.3-3.8-2.7-5.2-4.2c-1.4-1.5-2.4-3.2-3.1-5.1c-0.6-1.9-0.8-4.1-0.5-6.6
					c0.3-2.2,0.9-4.1,1.8-5.8c1-1.7,2.3-3.1,3.8-4.3c1.6-1.2,3.4-2,5.5-2.6c2.1-0.6,4.4-0.9,6.8-0.8l1-8.1l6.6,0.8l-1,8.3
					c2.3,0.6,4.4,1.5,6.2,2.6c1.8,1.2,3.3,2.6,4.4,4.2c1.2,1.7,2,3.5,2.5,5.7c0.5,2.1,0.6,4.5,0.3,7l-11.8-1.4c0.4-3,0-5.4-1.2-7.1
					c-1.2-1.7-2.9-2.6-5.2-2.9c-1.2-0.1-2.3-0.1-3.2,0.1c-0.9,0.2-1.7,0.6-2.4,1.1c-0.6,0.5-1.2,1.2-1.5,2c-0.4,0.8-0.6,1.6-0.7,2.6
					c-0.1,0.9-0.1,1.8,0.1,2.6c0.2,0.8,0.6,1.6,1.2,2.3c0.6,0.7,1.4,1.4,2.4,2.1c1,0.7,2.3,1.5,3.9,2.3c2.5,1.3,4.8,2.6,6.9,3.9
					c2,1.3,3.8,2.7,5.2,4.3c1.4,1.5,2.4,3.3,3.1,5.2c0.6,1.9,0.8,4.1,0.5,6.5c-0.3,2.2-0.9,4.2-1.9,5.9c-1,1.7-2.3,3.1-3.8,4.2
					c-1.6,1.1-3.4,2-5.5,2.5c-2.1,0.5-4.4,0.8-6.9,0.7l-0.9,7.6L259,377l0.9-7.5c-2.2-0.5-4.4-1.3-6.4-2.3c-2-1-3.8-2.3-5.2-4
					c-1.5-1.6-2.6-3.6-3.3-5.9c-0.7-2.3-0.9-5-0.5-8l11.8,1.4c-0.2,1.8-0.1,3.3,0.2,4.6c0.4,1.3,0.9,2.3,1.7,3.1
					c0.8,0.8,1.7,1.4,2.7,1.9c1,0.4,2.1,0.7,3.2,0.8c1.3,0.2,2.4,0.1,3.4-0.1c1-0.2,1.9-0.6,2.6-1.1c0.7-0.5,1.3-1.1,1.7-1.9
					C272.3,357.4,272.6,356.5,272.7,355.6z"/>
			</g>
		</g>
		<g>
			<path class="st9" d="M596.8,343.1c0,0-5.1,7.2-9.8,7.3c-4.7,0.1-11.8-3.3-11.8-3.3s-4.3-9.6-1.4-13.3c0,0,2.9-1.3,6,1
				c0.5,0.4,1.1,0.9,1.6,1.5c0.7,0.9,1.6,1.4,2.5,1.7c3.3,1,7.3-1.4,8.8,0.9c0.9,1.3,1.8,2.3,2.6,3.1
				C596.2,342.7,596.8,343.1,596.8,343.1z"/>
			<path class="st9" d="M530.4,394.9c0,0,18-43.7,50.4-44.5c0,0,29.9,3.3,31.6,44.5H530.4z"/>
			<path class="st10" d="M571.9,351.7c0,0,13,2.9,17,1.2c0,0,0.6-5.4-4.9-4.7c-3.7,0.5-6.2-1.3-7.6-2
				C574.4,345.2,571.4,349.4,571.9,351.7z"/>
			<path class="st10" d="M583.2,343.5c-0.8,0.6-3.4-8.8-3.4-8.8c0.5,0.4,1.1,0.9,1.6,1.5c0.7,0.9,1.6,1.4,2.5,1.7
				C583.9,338.2,584.1,342.9,583.2,343.5z"/>
			<path class="st10" d="M595.2,341.9c-0.2,0.1-6.2,3.7-7,3.7c-0.8,0,4.4-6.8,4.4-6.8C593.5,340.2,594.5,341.2,595.2,341.9z"/>
			<path class="st10" d="M548,382.7c-0.3-0.3,12.8-19.3,16.4-19.4s11.7,4.2,17.6,4.7c5.9,0.6,11.5-1.1,12.7,2.4s4.2,15.7,2.3,17.7
				C595,390,555.2,388.8,548,382.7z"/>
		</g>
		<g>
			<path class="st11" d="M420.3,282.5c0,0-4,5.7-7.7,5.8c-3.7,0.1-9.3-2.6-9.3-2.6s-3.4-7.6-1.1-10.5c0,0,2.3-1,4.7,0.8
				c0.4,0.3,0.8,0.7,1.2,1.2c0.6,0.7,1.2,1.1,1.9,1.3c2.6,0.8,5.8-1.1,6.9,0.7c0.7,1.1,1.4,1.9,2,2.4
				C419.7,282.2,420.3,282.5,420.3,282.5z"/>
			<path class="st9" d="M367.7,323.5c0,0,14.2-34.5,39.9-35.2c0,0,23.7,2.6,25,35.2H367.7z"/>
			<path class="st12" d="M400.6,289.4c0,0,10.3,2.3,13.4,0.9c0,0,0.5-4.3-3.8-3.7c-3,0.4-4.9-1-6-1.6
				C402.5,284.2,400.1,287.6,400.6,289.4z"/>
			<path class="st13" d="M409.5,282.9c-0.7,0.5-2.7-6.9-2.7-6.9c0.4,0.3,0.8,0.7,1.2,1.2c0.6,0.7,1.2,1.1,1.9,1.3
				C410,278.7,410.2,282.4,409.5,282.9z"/>
			<path class="st13" d="M419,281.6c-0.1,0.1-4.9,2.9-5.5,2.9c-0.7,0,3.5-5.3,3.5-5.3C417.6,280.2,418.4,281,419,281.6z"/>
			<path class="st10" d="M381.6,313.8c-0.3-0.2,10.1-15.2,12.9-15.3c2.8-0.1,9.3,3.3,13.9,3.7c4.6,0.4,9.1-0.9,10,1.9
				c0.9,2.7,3.3,12.5,1.8,14C418.8,319.6,387.3,318.7,381.6,313.8z"/>
		</g>
		<g>
			<path class="st9" d="M331.3,392.3c0,0,9.9,14,19,14.2c9.1,0.2,22.9-6.5,22.9-6.5s8.3-18.6,2.7-25.9c0,0-5.7-2.5-11.6,1.9
				c-1,0.8-2.1,1.7-3.1,2.9c-1.4,1.7-3.1,2.7-4.8,3.2c-6.5,2-14.2-2.7-17.1,1.8c-1.7,2.6-3.5,4.6-5,5.9
				C332.6,391.5,331.3,392.3,331.3,392.3z"/>
			<path class="st9" d="M460.6,492.9c0,0-35-84.9-98.1-86.5c0,0-58.2,6.5-61.5,86.5H460.6z"/>
			<path class="st10" d="M379.7,409c0,0-25.3,5.6-33.1,2.3c0,0-1.2-10.6,9.5-9.1c7.3,1,12-2.5,14.8-3.9
				C374.9,396.3,380.8,404.6,379.7,409z"/>
			<path class="st10" d="M357.7,393.1c1.6,1.2,6.6-17.1,6.6-17.1c-1,0.8-2.1,1.7-3.1,2.9c-1.4,1.7-3.1,2.7-4.8,3.2
				C356.4,382.7,356.1,391.9,357.7,393.1z"/>
			<path class="st10" d="M334.4,389.9c0.4,0.2,12,7.2,13.6,7.2c1.6,0-8.6-13.1-8.6-13.1C337.7,386.6,335.9,388.5,334.4,389.9z"/>
			<path class="st10" d="M426.3,469.2c0.6-0.6-24.8-37.5-31.8-37.7c-7-0.3-22.8,8.1-34.2,9.2c-11.4,1.1-22.5-2.2-24.6,4.6
				c-2.2,6.7-8.1,30.6-4.4,34.5C334.9,483.5,412.3,481.2,426.3,469.2z"/>
		</g>
		<g id="man_2_">
			<path class="st9" d="M327.2,284.8c0,0-0.8-3.9,8.3-16.1c2-2.6,7.9-12.5,7.9-12.5c2.4-0.6,9.7,3.3,11.7,4.5
				c0.4,0.2,0.6,0.4,0.6,0.4s3.1,13.6-3.5,12.1c-0.2-0.1-0.4-0.1-0.6-0.1c-6.5-1-12.7,5.4-15.5,9.5
				C334.1,285.3,328.4,285,327.2,284.8z"/>
			<path class="st9" d="M375.1,258.3c0,0-0.8-3.9,8.3-16.1c2-2.6,7.9-12.5,7.9-12.5c2.4-0.6,9.7,3.3,11.7,4.5
				c0.4,0.2,0.6,0.4,0.6,0.4s3.1,13.6-3.5,12.1c-0.2,0-0.4-0.1-0.6-0.1c-6.5-1-12.7,5.4-15.5,9.5
				C382.1,258.8,376.4,258.4,375.1,258.3z"/>
			<path class="st10" d="M477.4,190.8c-1.9-8-22.5-32.9-33.1-27.1c-10.6,5.8-5.1,37.1,5.9,74c0.2,0.6,0.3,1.1,0.5,1.7
				c-22.2-3.6-48.7-4.8-48.7-4.8l-2.8,12.9c20,5.5,58.9,24.8,75.3,33c6.2,2.8,13.6,2.8,15.1-2.7
				C494.6,259.5,477.4,190.8,477.4,190.8z"/>
			<path class="st14" d="M438,305.8c0,0-47.3-21.3-76.1-30c-3.6-1.1-6.9-1.9-9.7-2.5l3-12.4c0,0,2.8-0.1,7.4,0
				c17.9,0.1,62.9,1.1,70.9,9.9C443.6,281.8,438,305.8,438,305.8z"/>
			<path class="st14" d="M473.7,13.4c1.6,3.6,2.8,8.3,1.7,10.7c-1.2,2.8-0.9,4.8-0.9,4.8l-2.5,0.6l-3,0.7c0,0-0.2-0.3-0.4-0.7
				c-0.2-0.4-0.6-1.1-0.9-1.8c0,0-0.1-1.3-1.4-2c-1.3-0.6-2.7-2.2-2.9-3.7c-0.2-1.5-1.8-4.3-1.4-4.6c1.1-0.7,2.7,3.7,3.6,3.9
				c0.8,0.2,1.1-0.4,1.2-0.5c0,0,0,0,0,0c1.5-3.6-1.2-12.6,0.9-13.1C468.5,7.5,473.1,11.9,473.7,13.4z"/>
			<path class="st14" d="M310.1,85.5c2.6,2.9,6.4,5.9,9.1,5.9c3,0,4.8,1.2,4.8,1.2l1.6-2.1l1.9-2.5c0,0-0.2-0.3-0.5-0.7
				c-0.3-0.4-2.5-2.2-2.5-3.6c0-1.4-0.9-3.3-2.2-4.1c-1.3-0.8-3.2-3.4-3.7-3.1c-1.1,0.7,2.3,3.9,2.1,4.8c-0.2,0.8-0.8,0.9-1,0.8
				c0,0,0,0,0,0c-3.9-0.1-11-6.2-12.4-4.5C306.9,78.4,309,84.3,310.1,85.5z"/>
			<path class="st15" d="M424.5,196.8c-11.7,3-8.7,17-7,55.5c0.2,4.4,0.6,8.6,1.2,12.6c-17.1-3.4-43.4-3.9-56.1-4c0,0-2.1,4.7-2,8.5
				c0.2,8,4.3,13.3,4.3,13.3c28.8,8.6,73.1,23.2,73.1,23.2s0,0,0,0c3,0.8,5.7-0.7,7.9-4.9c8.8-16.9,23.9-129.2,23.9-129.2
				C470,163.4,436.2,193.7,424.5,196.8z"/>
			<g>
				<path class="st14" d="M405.5,110.5c0,0,4.1-10.4-3.9-25.2l11.3,2.5l7.7,1.7c0,0,1.3,2.6,2.9,7.5c0.4,1.3,2.1,6.4,2.5,8
					c2.7,0.1-1.2,4.2-6.8,5C413.2,111,405.5,110.5,405.5,110.5z"/>
				<path class="st16" d="M420.6,89.5c0,0,1.3,2.6,2.9,7.5c-6.6,2-18.4-4.5-18.4-4.5c2.7-2.4,5.3-3.9,7.8-4.8L420.6,89.5z"/>
				<path class="st14" d="M425.7,85.7c0,0-13.1,14.5-22,6.2c-8.9-8.3-16.6-12-8.6-21.7c8-9.6,13.1-8.2,16.7-6.2
					C415.4,66.1,428.9,81.7,425.7,85.7z"/>
				<path class="st10" d="M402.9,91c0,0,1.3-1.5-0.6-3.4c-1.9-1.9-4.2-4.7-2-5.6c2.2-0.9,3.3,0.5,3.4-0.9c0.1-1.4-2.6-4.8,2.3-9.2
					c5-4.3,8.5-4.2,10.1-7.2c1.6-3-1.2-6.7-1.2-6.7s0.3,1.8-0.4,3.1c0,0-0.3-8.7-8-8.7c-7.6-0.1-10.4,6.1-13,8.4
					c-5.6,5.1-9.2,8.5-8,13.9C386.8,80.1,396.2,90.2,402.9,91z"/>
				<path class="st17" d="M417.5,82.6l4.9-4.6c0,0,2,3,0.6,4.4C421.6,83.7,417.5,82.6,417.5,82.6z"/>
			</g>
			<linearGradient id="SVGID_4_" gradientUnits="userSpaceOnUse" x1="322.5699" y1="124.5246" x2="484.7807" y2="124.5246">
				<stop  offset="0" style="stop-color:#009FE3"/>
				<stop  offset="1" style="stop-color:#0076DF"/>
			</linearGradient>
			<path class="st18" d="M482.9,55.2c-2.1-12.9-8.4-27.1-8.4-27.1l-6.8-0.3c0,0,0.8,17.5,0.6,29.7c-0.1,5.9-2.6,11.2-3.3,12.1
				c-2.1,2.8-33.4,32.9-34.4,33.9l0,0l0,0c-3.3,0.6-3,6-6.4,6.9c-5.7,1.5-15.1-1.3-20.2,0.6v0c0,0-40.5,0-46.7-2.9
				c-6.2-3-30.2-20.7-30.2-20.7l-4.5,5.2c0,0,16.5,31.8,29.6,37.5c7.1,3.1,22.8,6.9,35.6,9.6c5.1,1.1,9.1,4.8,10.6,9.8
				c12,38.8,6,71.5,6,71.5s11.5,1.3,25.9-2.7c18.7-5.2,32.3-13.6,32.3-13.6c5.3-6.4,2.2-29.8,2.2-29.8s3.6,3.9,4.8,10.5
				c0.9,4.7,1.3,7.3,1.6,9c0.3,1.6,2.1,2.3,3.4,1.3c2.7-2,6.5-5.1,7.7-7.4c4.2-8-5.1-40.4-18-63.1c-2.3-4-2.2-9,0.2-13
				c7.9-12.7,20.1-32.9,20.3-37C484.9,73.2,484.1,62.6,482.9,55.2z"/>
			<path class="st10" d="M423.3,113.3c0,0,10.9,15.4,2.9,30.4c-8,14.9-39.3,12.9-45.1,31.5l3.5,11.6l13.1-7.1c0,0,1.1-10.1,14-14.5
				c25.2-8.6,31.3-23.3,26-36.5c-4.5-11.2-10.9-16.6-10.9-16.6L423.3,113.3z"/>
			<path class="st10" d="M406.5,104.8l12.6,4.2l0.6,2.4L404,111C404,111,404.8,107.4,406.5,104.8z"/>
			<path class="st10" d="M425,101.4l0.4,6.5c0,0,1.7,1.4,1.6,1.2c0-0.2,3.6-5.6,3.6-5.6S427.6,102,425,101.4z"/>
			<path class="st15" d="M419.1,109l6.4-2.2c0.6-0.2,1.2,0.2,1.3,0.8l0.5,4.3c0.1,0.5-0.2,0.9-0.7,1.1l-2.8,1
				c-0.3,0.1-0.6,0-0.9-0.1l-4.1-3.1C418.2,110.2,418.4,109.3,419.1,109z"/>
			<path class="st19" d="M467.4,26.9l-0.6,5.4c0,0,6.8,0.1,6.8,0c0-0.1,0.2-2.7,0.2-2.7l1.1,3l2.5-0.8l-2.9-4.9
				C474.7,26.9,471.8,28.3,467.4,26.9z"/>
			<polygon class="st19" points="327,87.4 322.6,92.6 323.9,97.7 325.7,96.4 324.8,92.6 327.9,95.2 332,89.9 			"/>
			<circle class="st20" cx="326.5" cy="92.2" r="0.4"/>
			<circle class="st20" cx="472.7" cy="30.3" r="0.3"/>
			<circle class="st20" cx="462.5" cy="156.5" r="0.9"/>
			<circle class="st20" cx="455.5" cy="141.9" r="0.9"/>
			<circle class="st20" cx="445.9" cy="130.9" r="0.9"/>
		</g>
	</g>
</g>
</svg>
