<svg xmlns="http://www.w3.org/2000/svg" viewBox="0 0 276.54 220.73"><defs><style>.cls-1{isolation:isolate;}.cls-2{fill:#ef9b84;}.cls-3{fill:#ffbc9f;}.cls-4{fill:#fccebd;}.cls-5{fill:#e08c71;}.cls-6,.cls-7{fill:#0080ff;}.cls-7{mix-blend-mode:multiply;}.cls-8{fill:#d6a12f;}.cls-9{fill:#fdb538;}.cls-10{fill:#eb9e23;}.cls-11,.cls-12,.cls-14{fill:#fff;}.cls-11{opacity:0.6;}.cls-11,.cls-14{mix-blend-mode:overlay;}.cls-13{fill:#0062ff;}.cls-14{opacity:0.5;}</style></defs><title>Zasób 34</title><g class="cls-1"><g id="Warstwa_2" data-name="Warstwa 2"><g id="DESIGNED_BY_FREEPIK" data-name="DESIGNED BY FREEPIK"><path class="cls-2" d="M112.56,174.11S87.57,165,87.84,160c.33-6.23,17.4.17,24.87,3.06a49.68,49.68,0,0,1,17.16,2.43Z"/><path class="cls-2" d="M92.34,183.5S70,180.18,69.13,174.2c-1.12-7.46,20.63-4,30.18-2.41a60.26,60.26,0,0,1,20.9-1.27Z"/><path class="cls-2" d="M69.37,192.94c-19.77.41-14.45-8.33-4.53-9.76s24.17,0,24.17,0c13.19-9.15,30.23-14.73,30.23-14.73a60.46,60.46,0,0,0,4.9-5.41l6.33-.17-3.94,7.35-29.69,23Z"/><path class="cls-3" d="M55.45,204.22c2.24,1.19,6.77,1.6,12.35,1.48A196.7,196.7,0,0,0,93,203.17c5.9-.93,11.23-2,14.94-2.93l1-.24a25.41,25.41,0,0,0,3.5-1.15c1.16-.52,3.57-1.47,6.85-2.71,18.7-7,65.89-23.29,73.35-22.85,8.77.5,20.3,2,20.3,2l.26-6.61.33-8.48V137.24l-13.84.2a34.61,34.61,0,0,0-29.24-9.73c-18.3,2.51-20.42,16-41,18.76A160.64,160.64,0,0,0,110,150.14c-3.9,1-8.68,2-12.18,4a5.54,5.54,0,0,0-2.64,3.5,5.31,5.31,0,0,0,3.2,6.23c2.74,1.13,6.58,1.43,9.5,1.49a104.34,104.34,0,0,0,12.49-.59l2.63-.28,2.18-.25s-2.8,2-6.74,5c-.22.15-.43.32-.65.48l-.69.52-4.9,3.73-1,.76c-6,4.6-12.27,9.72-15.57,13.1a144.8,144.8,0,0,0-24.24,3.71c-1.63.43-3.23.9-4.77,1.41h0c-5.51,1.86-10.17,4.34-12.17,7.65C53.44,202.23,53.91,203.41,55.45,204.22Z"/><path class="cls-4" d="M108.9,158.29a5.24,5.24,0,0,0-1.14-3.72c-1.82-1.87-5.78-.3-7.55.92s-2.68,3.18-1.45,5.17a5.91,5.91,0,0,0,3.89,2.47c2.06.43,4.79.58,5.76-1.68A8.5,8.5,0,0,0,108.9,158.29Z"/><path class="cls-4" d="M55.45,204.22c2.24,1.19,6.77,1.59,12.34,1.48C67.87,203.63,66.5,200.29,55.45,204.22Z"/><path class="cls-5" d="M122,150.5a6.44,6.44,0,0,1,2.82,4.92A10.92,10.92,0,0,1,123,162a.32.32,0,0,1-.55-.32,10.5,10.5,0,0,0,1.77-6,5.86,5.86,0,0,0-2.52-4.61C121.34,150.83,121.66,150.28,122,150.5Z"/><path class="cls-5" d="M104.13,197a10.5,10.5,0,0,0,3.77,3.27l1-.25a9.84,9.84,0,0,1-4.18-3.34C104.45,196.32,103.89,196.64,104.13,197Z"/><path class="cls-2" d="M119.21,196.14c18.7-7,65.89-23.29,73.35-22.85,8.77.5,20.3,2,20.3,2l.26-6.61a42,42,0,0,0-4.78-4.11c-.54-.34-3.91-2.5-9.94-1.88a43.6,43.6,0,0,0-9.92,2.67,561.48,561.48,0,0,0-68.62,30.45Z"/><path class="cls-6" d="M207.13,171.21q.72,4.9,1.87,9.78l67.54,1V128.51L209,130.68A105.05,105.05,0,0,0,207.13,171.21Z"/><path class="cls-7" d="M207.13,171.21q.72,4.9,1.87,9.78l67.54,1V163.6a144.48,144.48,0,0,1-33.24,7.83C236.24,172.13,214.15,172.09,207.13,171.21Z"/><circle class="cls-8" cx="106.78" cy="99.53" r="40.59" transform="translate(-39.11 104.66) rotate(-45)"/><path class="cls-9" d="M128.88,108l17.28,1.3c.1-.38.19-.77.27-1.16L129,106.86Z"/><path class="cls-9" d="M127,80.56l16.28,1.22c-.2-.41-.41-.82-.63-1.22l-15.56-1.17Z"/><path class="cls-9" d="M130.11,91.76,146.84,93c-.07-.4-.13-.8-.21-1.19l-16.44-1.24Z"/><path class="cls-9" d="M135.1,70.46l-11.6-.87-.09,1.17,12.94,1C135.94,71.3,135.53,70.88,135.1,70.46Z"/><path class="cls-9" d="M129.31,109.48l-.09,1.17,16.22,1.22c.12-.38.25-.76.36-1.15Z"/><path class="cls-9" d="M130.35,95.61l-.09,1.17,17.08,1.28-.06-1.18Z"/><path class="cls-9" d="M130.54,93.12l-.09,1.17,16.72,1.26c0-.4-.08-.8-.13-1.19Z"/><path class="cls-9" d="M123.92,72.92,138.32,74l-1.06-1.26-13.25-1Z"/><path class="cls-9" d="M142.27,119.21l-17.35-1.3-.09,1.17,16.79,1.26C141.85,120,142.06,119.59,142.27,119.21Z"/><circle class="cls-10" cx="101.47" cy="99.13" r="40.59" transform="translate(-40.38 100.78) rotate(-45)"/><path class="cls-8" d="M99.49,135.92l-.79,0a36.84,36.84,0,0,1,5.53-73.48l.79.07a36.84,36.84,0,0,0-5.53,73.46Z"/><ellipse class="cls-9" cx="102.26" cy="99.19" rx="36.83" ry="36.06" transform="translate(-4.33 193.71) rotate(-85.69)"/><path class="cls-8" d="M97.7,91.1c.13-1.84,1.82-3.19,6.17-2.86a19.87,19.87,0,0,1,7.26,2.08l1.16,1.4,1.54.12,3.78-7.47a25.56,25.56,0,0,0-10.41-3.9l.42-5.66-6.29-.48-.43,5.77c-8.58.41-13.09,5-13.52,10.74-1,13.64,20.16,11,19.72,16.79-.13,1.78-1.9,2.86-6.2,2.54a23.17,23.17,0,0,1-11.84-4.54l-1.54-.11L87.25,109l-2.18,4c2.89,2.33,7.76,4.23,13,5l-.42,5.61,6.29.47.44-5.82c8.27-.59,12.62-5.11,13-10.67C118.41,94.08,97.27,96.71,97.7,91.1Z"/><path class="cls-10" d="M102.81,118.17l-.44,5.82-6.29-.48.42-5.61c-5.22-.76-10.09-2.65-13-5l4-7.4a23.21,23.21,0,0,0,11.84,4.53c4.3.32,6.07-.76,6.2-2.54.44-5.82-20.75-3.15-19.73-16.78.44-5.77,5-10.34,13.52-10.74l.44-5.77,6.29.47-.42,5.66a25.71,25.71,0,0,1,10.41,3.9l-3.78,7.47a21.76,21.76,0,0,0-10-3.6c-4.36-.33-6,1-6.18,2.86-.42,5.61,20.72,3,19.7,16.51C115.43,113.05,111.08,117.58,102.81,118.17Z"/><path class="cls-11" d="M71.58,91.15a4.78,4.78,0,0,0,0,2.13c.69,2.4,3.41,2,4.49.1s1-3.93,1.68-5.82c.76-2,2-3.89,2.83-5.9a3.87,3.87,0,0,0,.18-3.38c-1.9-3.27-5.38,2.89-6.18,4.25a25.15,25.15,0,0,0-3,8.25C71.62,90.9,71.6,91,71.58,91.15Z"/><path class="cls-11" d="M82,73.9a2.49,2.49,0,0,1,2.36-1.72,1.6,1.6,0,0,1,1,.35,1.79,1.79,0,0,1,.45,1.36,3.13,3.13,0,0,1-.76,2.16C83.49,77.75,81.42,75.82,82,73.9Z"/><path class="cls-12" d="M86.45,65.12a19.06,19.06,0,0,0-2.78-.42c-.75-.07-1.49-.1-2.24-.11,0-.75,0-1.49-.11-2.24a17.79,17.79,0,0,0-.42-2.78,20.52,20.52,0,0,0-.42,2.78c-.06.75-.09,1.49-.11,2.24-.74,0-1.49,0-2.24.11a17.49,17.49,0,0,0-2.77.42,18.73,18.73,0,0,0,2.77.42c.75.07,1.5.09,2.24.11,0,.74,0,1.49.11,2.24a18.73,18.73,0,0,0,.42,2.77,17.49,17.49,0,0,0,.42-2.77c.07-.75.1-1.5.11-2.24.75,0,1.49-.05,2.24-.11A20.52,20.52,0,0,0,86.45,65.12Z"/><path class="cls-12" d="M138.09,125.89a17.67,17.67,0,0,0-2.77-.42c-.75-.07-1.5-.1-2.25-.11,0-.75,0-1.5-.1-2.25a20.62,20.62,0,0,0-.42-2.77,17.85,17.85,0,0,0-.42,2.77c-.07.75-.1,1.5-.11,2.25-.75,0-1.49,0-2.24.1a19.09,19.09,0,0,0-2.78.43,20.52,20.52,0,0,0,2.78.42c.74.06,1.49.09,2.24.1,0,.75,0,1.5.11,2.25a17.67,17.67,0,0,0,.42,2.77,18.93,18.93,0,0,0,.42-2.77c.06-.75.09-1.5.11-2.25.74,0,1.49,0,2.24-.1A20.38,20.38,0,0,0,138.09,125.89Z"/><path class="cls-12" d="M92.9,60.49a8.67,8.67,0,0,0-1.76-.38Q90.49,60,89.85,60c0-.43,0-.86-.09-1.29A9.23,9.23,0,0,0,89.38,57,7.92,7.92,0,0,0,89,58.73c-.06.43-.08.86-.1,1.29q-.65,0-1.29.09a8.67,8.67,0,0,0-1.76.38,8.67,8.67,0,0,0,1.76.38q.65.08,1.29.09c0,.43,0,.86.09,1.29A8.56,8.56,0,0,0,89.38,64a9.23,9.23,0,0,0,.38-1.76c0-.43.07-.86.09-1.29q.65,0,1.29-.09A9.4,9.4,0,0,0,92.9,60.49Z"/><path class="cls-6" d="M47.85,123c.25.63.53,1.24.83,1.85l.87,1.84,1,1.78c.32.59.64,1.19,1,1.76l1,1.73c.35.57.74,1.12,1.11,1.69.72,1.13,1.54,2.2,2.33,3.27A66.81,66.81,0,0,0,67.1,148.34a.33.33,0,0,0,.44-.05.32.32,0,0,0,0-.42h0l-.41-.4a64.81,64.81,0,0,1-9.39-11.73c-.66-1.12-1.36-2.21-2-3.36-.3-.57-.62-1.13-.9-1.71L54,128.91c-.29-.57-.53-1.17-.78-1.76l-.74-1.78-.66-1.81c-.22-.6-.45-1.2-.62-1.81a61.4,61.4,0,0,1,2.4-44.22A61.47,61.47,0,0,1,61.28,65,60.34,60.34,0,0,1,71.61,54.8,58.56,58.56,0,0,1,84,47.51a57.17,57.17,0,0,1,13.56-4,60.1,60.1,0,0,1,8-.75h.38c1.87,0,3.74,0,5.59.15A58,58,0,0,1,125,45.69a55.1,55.1,0,0,1,22.57,14.5,55.57,55.57,0,0,1,7.83,10.69A53.1,53.1,0,0,1,160.3,83c.06.24.11.48.17.72h-.29A65,65,0,0,1,148,82.28a51.26,51.26,0,0,0,2.62,5.54h0c3.88,7.21,12.22,19.4,25.92,23.88a39.21,39.21,0,0,0,5.91-6.37A57.31,57.31,0,0,0,194,73a44.64,44.64,0,0,1-10.66,6.3l-.07,0c-.09-.27-.17-.54-.25-.81-.3-.92-.62-1.82-1-2.73a75.8,75.8,0,0,0-8.57-16.38,74.7,74.7,0,0,0-27.12-23.86,75.48,75.48,0,0,0-16.82-6.21,72.13,72.13,0,0,0-35,.5A70.5,70.5,0,0,0,64.44,46.41,69.46,69.46,0,0,0,46.11,74.58a70.12,70.12,0,0,0-3.43,16.31A67.74,67.74,0,0,0,47.85,123Z"/><path class="cls-13" d="M105.9,42.75c1.87,0,3.74,0,5.59.15A58,58,0,0,1,125,45.69a55.1,55.1,0,0,1,22.57,14.5,55.57,55.57,0,0,1,7.83,10.69A53.1,53.1,0,0,1,160.3,83c.06.24.11.48.17.72a34.52,34.52,0,0,0,10-.56s-6.93-.36-8.27-3.06C162.22,80.07,149.36,41.38,105.9,42.75Z"/><path class="cls-14" d="M123.56,32.21a61.47,61.47,0,0,1,45.93,28.08A61.76,61.76,0,0,1,176,74c.54,1.6-2,2.29-2.52.7a59.05,59.05,0,0,0-50-39.82,1.34,1.34,0,0,1-1.31-1.31A1.32,1.32,0,0,1,123.56,32.21Z"/><circle class="cls-8" cx="190.73" cy="40.45" r="13.04" transform="translate(73.05 195.9) rotate(-64.85)"/><path class="cls-9" d="M198.31,39.89l5.2-2c0-.13,0-.25-.08-.38l-5.25,2Z"/><path class="cls-9" d="M194,32.17l4.89-1.87a3,3,0,0,0-.35-.27l-4.68,1.79Z"/><path class="cls-9" d="M196.44,35l5-1.93-.23-.31-4.94,1.89Z"/><path class="cls-9" d="M195,28.13l-3.49,1.33.13.35,3.89-1.49Z"/><path class="cls-9" d="M198.63,40.26l.14.35,4.88-1.87c0-.12,0-.25-.05-.38Z"/><path class="cls-9" d="M197,36.08l.13.35,5.14-2-.18-.33Z"/><path class="cls-9" d="M196.75,35.33l.14.36,5-1.93c-.07-.11-.13-.22-.2-.32Z"/><path class="cls-9" d="M192.06,30.37l4.34-1.66-.48-.22-4,1.53Z"/><path class="cls-9" d="M203.73,41.31l-5.22,2,.14.35,5-1.93C203.71,41.59,203.73,41.45,203.73,41.31Z"/><circle class="cls-10" cx="189.13" cy="41.06" r="13.04" transform="translate(75.71 197.88) rotate(-66.37)"/><path class="cls-8" d="M193.59,52l-.24.1A11.84,11.84,0,0,1,184.9,30l.24-.08A11.83,11.83,0,0,0,193.59,52Z"/><ellipse class="cls-9" cx="189.37" cy="40.97" rx="11.58" ry="11.83" transform="translate(-2.15 70.29) rotate(-20.91)"/><path class="cls-8" d="M186.93,39.24c-.21-.55.09-1.17,1.4-1.67a6.34,6.34,0,0,1,2.4-.39l.53.24.46-.17.08-2.69a8.28,8.28,0,0,0-3.56.29l-.65-1.7-1.9.72.67,1.74c-2.44,1.29-3.12,3.23-2.46,5,1.57,4.1,7.36.42,8,2.18.2.53-.16,1.09-1.46,1.58a7.46,7.46,0,0,1-4.06.31l-.46.18.4,1-.08,1.47a9,9,0,0,0,4.45-.32l.64,1.69,1.9-.73-.67-1.75c2.32-1.3,3-3.21,2.33-4.89C193.36,37.27,187.58,40.93,186.93,39.24Z"/><path class="cls-10" d="M192.12,46.41l.67,1.75-1.89.72-.65-1.69a9,9,0,0,1-4.45.33l.15-2.69a7.48,7.48,0,0,0,4.06-.31c1.29-.49,1.66-1.05,1.45-1.59-.67-1.75-6.46,1.93-8-2.17-.66-1.74,0-3.68,2.46-5l-.66-1.74,1.89-.72.65,1.7a8.15,8.15,0,0,1,3.56-.29l-.07,2.68a7,7,0,0,0-3.39.32c-1.31.5-1.61,1.13-1.4,1.68.64,1.69,6.42-2,8,2.1C195.09,43.19,194.45,45.1,192.12,46.41Z"/><path class="cls-11" d="M179.35,42.83a1.42,1.42,0,0,0,.31.61c.53.61,1.26.11,1.31-.58a11.28,11.28,0,0,0-.3-1.92c-.06-.7,0-1.41,0-2.11a1.24,1.24,0,0,0-.41-1c-1-.69-1.17,1.58-1.21,2.08a7.77,7.77,0,0,0,.26,2.8Z"/><path class="cls-11" d="M180,36.39a.81.81,0,0,1,.45-.82.48.48,0,0,1,.35,0,.61.61,0,0,1,.32.33,1.06,1.06,0,0,1,.07.74C181,37.31,180.11,37,180,36.39Z"/><circle class="cls-8" cx="33.58" cy="142.07" r="12.14" transform="translate(-33.39 12.35) rotate(-14.01)"/><path class="cls-9" d="M39.38,146.13l4.92,1.63.16-.31-5-1.65Z"/><path class="cls-9" d="M40.82,138l4.63,1.53a2.88,2.88,0,0,0-.09-.4l-4.43-1.47Z"/><path class="cls-9" d="M40.91,141.5l4.77,1.58c0-.12,0-.24,0-.36L41,141.17Z"/><path class="cls-9" d="M43.9,135.68l-3.3-1.09-.11.33,3.68,1.22C44.09,136,44,135.84,43.9,135.68Z"/><path class="cls-9" d="M39.4,146.59l-.11.33,4.62,1.53.18-.31Z"/><path class="cls-9" d="M40.7,142.64l-.11.33,4.86,1.61c0-.12,0-.23.07-.35Z"/><path class="cls-9" d="M40.94,141.93l-.11.33,4.76,1.58c0-.12,0-.24,0-.36Z"/><path class="cls-9" d="M40.48,135.59l4.1,1.35-.22-.44-3.77-1.25Z"/><path class="cls-9" d="M42.45,150.35l-4.94-1.63-.11.33,4.78,1.58A2.37,2.37,0,0,0,42.45,150.35Z"/><circle class="cls-10" cx="32.07" cy="141.57" r="12.14"/><path class="cls-8" d="M28.83,152.1,28.6,152a11,11,0,1,1,6.93-20.92l.22.07a11,11,0,0,0-6.92,20.92Z"/><ellipse class="cls-9" cx="32.29" cy="141.64" rx="11.02" ry="10.78" transform="translate(-112.32 127.78) rotate(-71.68)"/><path class="cls-8" d="M31.55,139c.18-.52.76-.79,2-.38a6,6,0,0,1,2,1.13l.23.49.44.15,1.64-1.9a7.51,7.51,0,0,0-2.74-1.88l.53-1.62-1.79-.59L33.28,136c-2.52-.5-4.16.5-4.7,2.14-1.29,3.89,5.06,4.64,4.51,6.3-.17.51-.76.69-2,.29A7,7,0,0,1,28,142.56l-.43-.15-.33,1-.93,1a8.55,8.55,0,0,0,3.4,2.38l-.52,1.6L31,149l.55-1.66c2.44.43,4-.57,4.55-2.15C37.35,141.33,31,140.56,31.55,139Z"/><path class="cls-10" d="M31.08,147.19l-.55,1.66-1.79-.6.53-1.59a8.53,8.53,0,0,1-3.41-2.39l1.7-1.86a6.88,6.88,0,0,0,3.1,2.17c1.23.41,1.82.22,2-.28.55-1.66-5.8-2.42-4.51-6.3.54-1.64,2.18-2.64,4.7-2.14l.54-1.64,1.79.59-.53,1.61a7.65,7.65,0,0,1,2.74,1.89l-1.64,1.89a6.45,6.45,0,0,0-2.63-1.76c-1.24-.42-1.82-.15-2,.38-.52,1.6,5.8,2.36,4.52,6.22C35.11,146.62,33.52,147.62,31.08,147.19Z"/><path class="cls-11" d="M24,137.09a1.51,1.51,0,0,0-.14.62c0,.75.85.82,1.3.35A11,11,0,0,0,26,136.5c.37-.54.85-1,1.24-1.51a1.13,1.13,0,0,0,.3-1c-.31-1.08-1.77.45-2.1.79A7.74,7.74,0,0,0,24,137Z"/><path class="cls-11" d="M28.25,132.84a.75.75,0,0,1,.81-.33.42.42,0,0,1,.27.18.51.51,0,0,1,0,.42.88.88,0,0,1-.38.57C28.4,134.06,27.94,133.35,28.25,132.84Z"/><path class="cls-12" d="M48.6,144.82a19,19,0,0,0-2.77-.43c-.75-.06-1.5-.09-2.25-.1,0-.75,0-1.5-.1-2.25a20.62,20.62,0,0,0-.42-2.77,17.85,17.85,0,0,0-.42,2.77c-.07.75-.1,1.5-.11,2.25-.75,0-1.5,0-2.24.1a19.09,19.09,0,0,0-2.78.43,20.52,20.52,0,0,0,2.78.42c.74.06,1.49.09,2.24.1,0,.75,0,1.5.11,2.25a17.67,17.67,0,0,0,.42,2.77,18.93,18.93,0,0,0,.42-2.77c.06-.75.09-1.5.1-2.25.75,0,1.5,0,2.25-.1A20.38,20.38,0,0,0,48.6,144.82Z"/><circle class="cls-8" cx="174.79" cy="193.67" r="12.14" transform="translate(-84.07 161.26) rotate(-40.8)"/><path class="cls-9" d="M181.78,192.54l4.67-2.26c0-.12-.07-.23-.11-.34l-4.71,2.28Z"/><path class="cls-9" d="M177.17,185.72l4.39-2.13c-.11-.08-.23-.15-.35-.22l-4.2,2Z"/><path class="cls-9" d="M179.65,188.15l4.52-2.19-.23-.28-4.44,2.15Z"/><path class="cls-9" d="M177.74,181.89l-3.13,1.52.16.32,3.49-1.7Z"/><path class="cls-9" d="M182.11,192.85l.16.32,4.37-2.13c0-.11,0-.23-.08-.35Z"/><path class="cls-9" d="M180.3,189.11l.15.31,4.61-2.23-.2-.3Z"/><path class="cls-9" d="M180,188.44l.15.31,4.51-2.19c-.07-.09-.13-.19-.21-.28Z"/><path class="cls-9" d="M175.22,184.21l3.89-1.89-.47-.16-3.57,1.73Z"/><path class="cls-9" d="M186.93,193.42l-4.68,2.27.15.32,4.53-2.2Z"/><circle class="cls-10" cx="173.36" cy="194.36" r="12.14" transform="translate(-70.48 102.87) rotate(-27.7)"/><path class="cls-8" d="M178.38,204.17l-.21.11a11,11,0,1,1-9.62-19.83l.21-.1a11,11,0,0,0,9.62,19.82Z"/><ellipse class="cls-9" cx="173.57" cy="194.26" rx="10.78" ry="11.02" transform="translate(-67.38 95.22) rotate(-25.87)"/><path class="cls-8" d="M171.17,192.85c-.24-.49,0-1.1,1.17-1.67a6.13,6.13,0,0,1,2.19-.55l.51.19.42-.2-.15-2.5a7.45,7.45,0,0,0-3.28.56l-.74-1.53-1.7.82.76,1.56c-2.16,1.39-2.64,3.25-1.88,4.81,1.78,3.68,6.86-.2,7.62,1.37.24.48-.06,1-1.22,1.59a6.94,6.94,0,0,1-3.74.61l-.42.2.46.94,0,1.37a8.36,8.36,0,0,0,4.1-.66l.74,1.51,1.7-.82-.77-1.57c2.05-1.4,2.5-3.22,1.77-4.72C177,190.51,171.91,194.37,171.17,192.85Z"/><path class="cls-10" d="M176.57,199.08l.76,1.57-1.7.83L174.9,200a8.42,8.42,0,0,1-4.11.66l-.08-2.51a6.84,6.84,0,0,0,3.74-.61c1.17-.56,1.46-1.11,1.23-1.59-.77-1.57-5.84,2.31-7.63-1.37-.75-1.56-.27-3.42,1.88-4.81l-.75-1.56,1.7-.82.74,1.53a7.6,7.6,0,0,1,3.28-.56l.14,2.5a6.53,6.53,0,0,0-3.12.57c-1.17.57-1.4,1.17-1.16,1.66.73,1.52,5.8-2.34,7.57,1.31C179.06,195.86,178.62,197.69,176.57,199.08Z"/><path class="cls-11" d="M164.43,196.79a1.62,1.62,0,0,0,.33.55c.54.51,1.18,0,1.18-.65a10.54,10.54,0,0,0-.44-1.76c-.11-.65-.07-1.31-.16-2a1.12,1.12,0,0,0-.46-.9c-1-.56-.95,1.55-1,2a7.6,7.6,0,0,0,.47,2.58Z"/><path class="cls-11" d="M164.54,190.76a.75.75,0,0,1,.35-.8.48.48,0,0,1,.31-.06.57.57,0,0,1,.33.28,1,1,0,0,1,.12.68C165.49,191.54,164.67,191.35,164.54,190.76Z"/><circle class="cls-8" cx="41.04" cy="43.59" r="15.43" transform="matrix(0.94, -0.33, 0.33, 0.94, -12.22, 16.25)"/><path class="cls-9" d="M47.69,49.66l5.94,2.85.26-.37-6-2.88Z"/><path class="cls-9" d="M50.83,39.67l5.59,2.69c0-.17,0-.35-.05-.52L51,39.27Z"/><path class="cls-9" d="M50.38,44.07l5.75,2.76.09-.45-5.65-2.71Z"/><path class="cls-9" d="M55.1,37.22l-4-1.92-.19.4,4.44,2.14C55.28,37.63,55.19,37.42,55.1,37.22Z"/><path class="cls-9" d="M47.64,50.23l-.19.41L53,53.32l.29-.36Z"/><path class="cls-9" d="M49.93,45.46l-.19.41,5.87,2.82c0-.15.09-.29.14-.43Z"/><path class="cls-9" d="M50.34,44.61l-.19.4,5.74,2.76c0-.14.09-.29.13-.43Z"/><path class="cls-9" d="M50.8,36.54l5,2.38c-.07-.2-.13-.4-.2-.59L51,36.14Z"/><path class="cls-9" d="M50.88,55.48l-6-2.87-.19.4,5.77,2.78Z"/><circle class="cls-10" cx="39.21" cy="42.71" r="15.43" transform="translate(-6.59 78.27) rotate(-85.27)"/><path class="cls-8" d="M33.42,55.47l-.27-.13A14,14,0,0,1,45.28,30.08l.27.14A14,14,0,0,0,33.42,55.47Z"/><ellipse class="cls-9" cx="39.49" cy="42.84" rx="14.01" ry="13.71" transform="translate(-16.23 59.88) rotate(-64.33)"/><path class="cls-8" d="M39,39.34c.31-.63,1.09-.87,2.58-.15a7.49,7.49,0,0,1,2.29,1.74l.21.66.53.25L47,39.72a9.83,9.83,0,0,0-3.15-2.82L44.76,35l-2.16-1-1,2c-3.1-1-5.32,0-6.28,1.94C33.12,42.51,41,44.5,40,46.5c-.29.61-1.07.75-2.54,0a8.84,8.84,0,0,1-3.57-3.24L33.39,43l-.57,1.19-1.34,1.14a10.8,10.8,0,0,0,3.91,3.56l-.93,1.92,2.16,1,1-2c3,.94,5.18-.06,6.1-2C45.91,43.27,38.07,41.27,39,39.34Z"/><path class="cls-10" d="M37.05,49.64l-1,2-2.16-1,.93-1.93A10.71,10.71,0,0,1,31,45.11L33.39,43A8.8,8.8,0,0,0,37,46.29c1.47.71,2.25.57,2.54,0,1-2-6.91-4-4.66-8.68.95-2,3.18-3,6.28-1.93l1-2,2.16,1-.93,1.94a9.83,9.83,0,0,1,3.15,2.82l-2.38,2.13a8.25,8.25,0,0,0-3-2.66c-1.49-.72-2.28-.47-2.58.16C37.53,41,45.38,43,43.15,47.67,42.23,49.58,40.06,50.58,37.05,49.64Z"/><path class="cls-11" d="M29.74,35.75a1.75,1.75,0,0,0-.28.76c-.09.94.94,1.16,1.58.65a13.13,13.13,0,0,0,1.4-1.82c.55-.62,1.24-1.11,1.81-1.7a1.46,1.46,0,0,0,.54-1.17c-.22-1.42-2.31.28-2.78.65a9.73,9.73,0,0,0-2.2,2.5Z"/><path class="cls-11" d="M35.82,31.08a1,1,0,0,1,1.08-.28.59.59,0,0,1,.31.27.68.68,0,0,1,0,.54,1.2,1.2,0,0,1-.57.66C35.81,32.65,35.34,31.68,35.82,31.08Z"/><path class="cls-8" d="M30.57,167a27,27,0,0,1,9.82,3.57,27,27,0,0,1,8.13,6.56l2.06,1.16-1.18,2.08c-1.11,2-7,.8-13-2.64s-10.13-7.83-9-9.81l1.18-2.08Z"/><path class="cls-9" d="M30.33,169l.35.2L29,172.11l-.28-.32Z"/><path class="cls-9" d="M34.43,176.52l1.68-3,.34.19-1.68,3Z"/><path class="cls-9" d="M35.32,173.11l.35.2L34,176.25l-.33-.22Z"/><path class="cls-9" d="M34.53,172.48l.35.2-1.7,3-.32-.24Z"/><path class="cls-9" d="M39.22,179.14l-.37-.17L40.51,176l.35.2Z"/><path class="cls-9" d="M43.21,180.65l-.39-.12,1.68-3,.34.19Z"/><path class="cls-9" d="M44.15,180.9l-.41-.1L45.31,178l.35.19Z"/><path class="cls-10" d="M28.51,165.79c-1.12,2,2.92,6.37,9,9.81s11.94,4.62,13.06,2.64-2.92-6.36-9-9.8S29.62,163.82,28.51,165.79Z"/><path class="cls-8" d="M29.62,166.42a1.19,1.19,0,0,0-.08.2c1.16-1.3,6.14-.05,11.4,2.92s8.91,6.58,8.4,8.24a.66.66,0,0,0,.12-.17c.89-1.57-2.83-5.34-8.31-8.43S30.51,164.85,29.62,166.42Z"/><path class="cls-9" d="M29.54,166.62c-.51,1.67,3.14,5.27,8.4,8.24s10.23,4.22,11.4,2.92c.51-1.66-3.13-5.27-8.4-8.24S30.7,165.32,29.54,166.62Z"/><path class="cls-10" d="M35,169.45c-.46.82,1.21,2.63,3.72,4s4.92,1.91,5.38,1.09-1.2-2.62-3.71-4S35.45,168.64,35,169.45Z"/><path class="cls-8" d="M115.8,2.51c3,.27,7.26,1.76,11.66,4.24s7.88,5.37,9.64,7.78l2.45,1.38-1.39,2.47c-1.33,2.35-8.27.94-15.5-3.14S110.64,6,112,3.61l1.4-2.47Z"/><path class="cls-9" d="M115.52,4.93l.41.23-2,3.47-.33-.38Z"/><path class="cls-9" d="M120.39,13.87l2-3.52.42.23-2,3.55Z"/><path class="cls-9" d="M121.44,9.83l.42.23-2,3.49-.4-.27Z"/><path class="cls-9" d="M120.5,9.08l.42.23-2,3.57-.38-.28Z"/><path class="cls-9" d="M126.07,17l-.44-.2,2-3.48.41.23Z"/><path class="cls-9" d="M130.8,18.77l-.46-.14,2-3.53.41.23Z"/><path class="cls-9" d="M131.92,19.06l-.48-.11,1.86-3.31.41.24Z"/><ellipse class="cls-10" cx="126.45" cy="8.52" rx="4.88" ry="15.04" transform="translate(56.9 114.47) rotate(-60.57)"/><path class="cls-8" d="M114.68,1.88a.94.94,0,0,0-.1.23c1.38-1.54,7.28,0,13.53,3.48s10.57,7.8,10,9.78a1.13,1.13,0,0,0,.15-.21c1.05-1.86-3.37-6.34-9.87-10S115.73,0,114.68,1.88Z"/><path class="cls-9" d="M114.58,2.11c-.6,2,3.72,6.27,10,9.79s12.14,5,13.53,3.47c.6-2-3.72-6.26-10-9.78S116,.57,114.58,2.11Z"/><path class="cls-10" d="M121.05,5.48c-.54,1,1.43,3.11,4.41,4.8s5.85,2.26,6.39,1.29-1.43-3.12-4.41-4.8S121.6,4.51,121.05,5.48Z"/><path class="cls-8" d="M89.73,217.21a21.36,21.36,0,0,1,7-4.67,21.41,21.41,0,0,1,8.15-2.14l1.74-.78.79,1.76c.75,1.67-2.82,4.89-8,7.21s-9.92,2.83-10.67,1.16L88,218Z"/><path class="cls-9" d="M90.93,218.34l.3-.13,1.11,2.46-.34,0Z"/><path class="cls-9" d="M97.79,219.28l-1.13-2.51.3-.13,1.13,2.52Z"/><path class="cls-9" d="M96,217.07l.29-.13,1.12,2.48-.31.11Z"/><path class="cls-9" d="M95.21,217.28l.3-.13,1.14,2.54-.31.1Z"/><path class="cls-9" d="M101.78,217.42l-.29.16-1.11-2.48.29-.13Z"/><path class="cls-9" d="M104.66,215.55l-.26.2-1.13-2.51.3-.13Z"/><path class="cls-9" d="M105.28,215.06l-.26.22L104,212.93l.3-.13Z"/><ellipse class="cls-10" cx="97.31" cy="213.8" rx="10.22" ry="3.31" transform="translate(-79.07 58.65) rotate(-24.19)"/><path class="cls-8" d="M88.93,217.57a.42.42,0,0,0,.09.14c-.29-1.37,2.9-4,7.35-6s8.53-2.64,9.37-1.51a.52.52,0,0,0-.06-.16c-.59-1.33-4.82-.72-9.45,1.36S88.33,216.24,88.93,217.57Z"/><path class="cls-9" d="M89,217.71c.84,1.13,4.92.49,9.37-1.5s7.63-4.63,7.35-6c-.84-1.13-4.93-.49-9.37,1.51S88.73,216.34,89,217.71Z"/><path class="cls-10" d="M93.46,215.53c.31.69,2.28.47,4.41-.48s3.59-2.28,3.28-3-2.28-.48-4.4.48S93.16,214.84,93.46,215.53Z"/><path class="cls-8" d="M205.44,82.49c.62-3.73,2.91-9,6.45-14.26s7.52-9.39,10.73-11.38l2-2.94,3,2c2.82,1.89.38,10.48-5.45,19.19s-12.85,14.22-15.67,12.33l-3-2Z"/><path class="cls-9" d="M208.46,83.08l.33-.5,4.17,2.8-.51.38Z"/><path class="cls-9" d="M220.17,77.82,215.94,75l.33-.5,4.26,2.86Z"/><path class="cls-9" d="M215.19,76.1l.33-.5,4.2,2.81-.37.47Z"/><path class="cls-9" d="M214.15,77.21l.34-.5,4.29,2.87-.39.46Z"/><path class="cls-9" d="M224.64,71l-.3.52-4.19-2.8.33-.5Z"/><path class="cls-9" d="M227.34,65.18c-.07.19-.14.38-.22.58l-4.25-2.85.33-.5Z"/><path class="cls-9" d="M227.82,63.81c-.06.2-.13.39-.19.59l-4-2.66.34-.5Z"/><ellipse class="cls-10" cx="214.03" cy="69.67" rx="18.97" ry="6.16" transform="translate(37.02 208.7) rotate(-56.18)"/><path class="cls-8" d="M204.54,83.84a.92.92,0,0,0,.28.14c-1.81-1.88.64-9.16,5.68-16.68s10.84-12.55,13.27-11.59a1.17,1.17,0,0,0-.24-.21C221.28,54,215.22,59.12,210,67S202.3,82.34,204.54,83.84Z"/><path class="cls-9" d="M204.82,84c2.44,1,8.24-4.08,13.28-11.59s7.47-14.79,5.67-16.68c-2.43-1-8.23,4.07-13.27,11.59S203,82.1,204.82,84Z"/><path class="cls-10" d="M209.68,76.17c1.16.78,4.06-1.5,6.46-5.09s3.41-7.13,2.25-7.91-4.06,1.5-6.46,5.08S208.52,75.39,209.68,76.17Z"/><path class="cls-12" d="M222.22,55.59a8.39,8.39,0,0,1,1.76-.38q.65-.08,1.29-.09,0-.65.09-1.29a8.39,8.39,0,0,1,.38-1.76,9.07,9.07,0,0,1,.38,1.76q.07.64.09,1.29.64,0,1.29.09a8.53,8.53,0,0,1,1.76.38,8.53,8.53,0,0,1-1.76.38q-.65.08-1.29.09,0,.64-.09,1.29a9.23,9.23,0,0,1-.38,1.76,8.53,8.53,0,0,1-.38-1.76,11.18,11.18,0,0,1-.09-1.29q-.65,0-1.29-.09A9.07,9.07,0,0,1,222.22,55.59Z"/><path class="cls-8" d="M198.66,107.62c2.17-2.16,6.87-3.18,12-2.33s9.28,3.32,10.64,6.06l.83.14-.39,2.38c-.6,3.63-6.53,5.68-13.24,4.57s-11.68-4.94-11.08-8.57l.39-2.38Z"/><path class="cls-9" d="M205.05,112.54l.37.06-.79,4.84-.36-.14Z"/><path class="cls-9" d="M205.15,117.62l.78-4.77.38.06-.8,4.83Z"/><path class="cls-9" d="M201.81,111.24l.37.06-.76,4.61-.35-.22Z"/><path class="cls-9" d="M211.89,118.74h-.38l.74-4.5.38.06Z"/><path class="cls-9" d="M212.86,118.73h-.38l.77-4.69.37.07Z"/><path class="cls-9" d="M217.2,118l-.4.12.77-4.7.37.06Z"/><path class="cls-9" d="M211.05,118.72l-.38,0,.76-4.6.37.07Z"/><ellipse class="cls-10" cx="210" cy="109.49" rx="6.66" ry="12.32" transform="translate(67.9 298.94) rotate(-80.67)"/><path class="cls-8" d="M199.11,107.7a1,1,0,0,0,0,.24c.73-2.86,5.88-4.38,11.74-3.42s10.24,4.06,10,7a2,2,0,0,0,0-.24c.49-3-4-6.26-10-7.24S199.6,104.69,199.11,107.7Z"/><path class="cls-9" d="M199.08,107.94c-.22,2.94,4.17,6,10,7s11-.57,11.74-3.42c.22-2.94-4.17-6-10-7S199.81,105.08,199.08,107.94Z"/><path class="cls-10" d="M205.13,108.69c-.23,1.45,1.75,3,4.44,3.43s5.05-.38,5.29-1.83-1.74-3-4.43-3.43S205.37,107.23,205.13,108.69Z"/><path class="cls-12" d="M213.93,116.61a9.23,9.23,0,0,1,1.76-.38c.43,0,.86-.07,1.29-.09q0-.65.09-1.29a9.4,9.4,0,0,1,.38-1.76,8.67,8.67,0,0,1,.38,1.76q.07.65.09,1.29.65,0,1.29.09a9.07,9.07,0,0,1,1.76.38,7.8,7.8,0,0,1-1.76.38,11.18,11.18,0,0,1-1.29.09,11.18,11.18,0,0,1-.09,1.29,8.39,8.39,0,0,1-.38,1.76,9.07,9.07,0,0,1-.38-1.76q-.07-.65-.09-1.29a11.18,11.18,0,0,1-1.29-.09A8.53,8.53,0,0,1,213.93,116.61Z"/><path class="cls-8" d="M1.93,118.34c.18-4.42,4.17-10.09,10.47-14.24s13.1-5.58,17.23-4l1-.66,1.92,2.91c2.92,4.44-1.37,12.41-9.57,17.82s-17.23,6.19-20.15,1.75L.92,119Z"/><path class="cls-9" d="M13.51,117.3,14,117l3.89,5.92-.51.21Z"/><path class="cls-9" d="M18.59,122.6l-3.83-5.83.45-.3,3.88,5.9Z"/><path class="cls-9" d="M8.8,119.1l.46-.3L13,124.44l-.58.11Z"/><path class="cls-9" d="M26.85,117.18l-.41.37-3.62-5.5.45-.3Z"/><path class="cls-9" d="M27.86,116.23l-.4.38-3.76-5.72.45-.3Z"/><path class="cls-9" d="M31.76,111.21c-.09.18-.2.35-.3.53L27.68,106l.45-.3Z"/><path class="cls-9" d="M25.93,118l-.43.34-3.7-5.62.46-.29Z"/><ellipse class="cls-10" cx="15.78" cy="109.22" rx="17.79" ry="9.62" transform="translate(-57.47 26.68) rotate(-33.36)"/><path class="cls-8" d="M2.47,118c.06.09.14.19.21.28-2-3.74,1.95-10.41,9.1-15.12s14.85-5.73,17.49-2.39l-.18-.3c-2.43-3.68-10.35-2.74-17.7,2.1S.05,114.31,2.47,118Z"/><path class="cls-9" d="M2.68,118.27c2.64,3.34,10.33,2.32,17.48-2.39s11.13-11.37,9.11-15.12c-2.64-3.34-10.34-2.32-17.49,2.39S.65,114.53,2.68,118.27Z"/><path class="cls-10" d="M9.83,113.14c1.17,1.77,4.78,1.46,8.06-.7s5-5.36,3.83-7.13-4.78-1.46-8.06.7S8.66,111.36,9.83,113.14Z"/><path class="cls-12" d="M25.52,100a14.17,14.17,0,0,1,2.14-.32c.57,0,1.15-.07,1.73-.08,0-.58,0-1.16.08-1.73a14.17,14.17,0,0,1,.32-2.14,14.2,14.2,0,0,1,.33,2.14c.05.57.07,1.15.08,1.73.58,0,1.15,0,1.73.08a14.37,14.37,0,0,1,2.14.32,14.4,14.4,0,0,1-2.14.33c-.58.05-1.15.07-1.73.08,0,.58,0,1.15-.08,1.73a14.4,14.4,0,0,1-.33,2.14,14.37,14.37,0,0,1-.32-2.14c0-.58-.07-1.15-.08-1.73-.58,0-1.16,0-1.73-.08A14.2,14.2,0,0,1,25.52,100Z"/><path class="cls-8" d="M125.41,201.45c2.94-2.28,8.75-2.8,14.85-1s10.7,5.39,11.93,8.91l1,.29-.83,2.81c-1.27,4.29-8.73,5.87-16.66,3.52s-13.34-7.72-12.07-12l.83-2.81Z"/><path class="cls-9" d="M132.37,208.34l.44.13-1.69,5.72-.42-.22Z"/><path class="cls-9" d="M131.72,214.49l1.66-5.63.44.13-1.68,5.69Z"/><path class="cls-9" d="M128.65,206.29l.44.13-1.61,5.45-.39-.32Z"/><path class="cls-9" d="M139.69,216.86l-.46-.07,1.57-5.32.44.13Z"/><path class="cls-9" d="M140.85,217l-.46-.05,1.63-5.53.44.13Z"/><path class="cls-9" d="M146.2,216.78l-.51.08,1.64-5.55.44.13Z"/><path class="cls-9" d="M138.67,216.7l-.45-.09,1.6-5.43.44.13Z"/><ellipse class="cls-10" cx="138.8" cy="205.41" rx="8.1" ry="14.98" transform="translate(-97.53 280.3) rotate(-73.54)"/><path class="cls-8" d="M125.93,201.61a2.46,2.46,0,0,0-.07.29c1.31-3.34,7.75-4.4,14.67-2.36s11.75,6.44,11,10c0-.1.07-.19.1-.29,1.05-3.55-3.85-8.14-11-10.24S127,198.05,125.93,201.61Z"/><path class="cls-9" d="M125.86,201.9c-.71,3.51,4.12,7.9,11,9.95s13.35,1,14.66-2.35c.72-3.52-4.11-7.91-11-10S127.17,198.56,125.86,201.9Z"/><path class="cls-10" d="M133.05,203.71c-.51,1.72,1.65,3.87,4.83,4.81s6.16.31,6.66-1.41-1.65-3.87-4.83-4.81S133.56,202,133.05,203.71Z"/><path class="cls-8" d="M63.34,31.35c-.89-2.91.41-7.51,3.57-11.64s7.25-6.6,10.29-6.51l.51-.67L79.62,14c2.91,2.22,1.93,8.38-2.17,13.76s-9.8,7.94-12.71,5.72L62.83,32Z"/><path class="cls-9" d="M70.63,28l.23-.29,3.88,2.95-.29.26Z"/><path class="cls-9" d="M75.14,30.33l-3.82-2.91.23-.3,3.86,2.95Z"/><path class="cls-9" d="M68,30.28l.23-.29,3.69,2.82-.35.2Z"/><path class="cls-9" d="M79.28,24.93l-.18.34-3.61-2.76.23-.3Z"/><path class="cls-9" d="M79.72,24.08a3.59,3.59,0,0,1-.17.34L75.8,21.56l.23-.3Z"/><path class="cls-9" d="M81.12,19.94c0,.13-.05.27-.08.41l-3.77-2.88.23-.3Z"/><path class="cls-9" d="M78.86,25.67l-.2.32L75,23.18l.23-.3Z"/><ellipse class="cls-10" cx="70.27" cy="22.27" rx="12.26" ry="6.63" transform="translate(9.92 64.6) rotate(-52.63)"/><path class="cls-8" d="M63.61,31l.2.14c-2.17-2-1.1-7.22,2.48-11.91s8.35-7.09,10.83-5.52l-.19-.16c-2.41-1.84-7.35.57-11,5.39S61.2,29.16,63.61,31Z"/><path class="cls-9" d="M63.81,31.14c2.47,1.57,7.24-.84,10.83-5.53s4.64-9.93,2.48-11.9c-2.48-1.57-7.25.84-10.83,5.52S61.64,29.16,63.81,31.14Z"/><ellipse class="cls-10" cx="70.27" cy="22.27" rx="4.9" ry="2.65" transform="translate(9.92 64.6) rotate(-52.63)"/></g></g></g></svg>