<?xml version="1.0" encoding="utf-8"?>
<!-- Generator: Adobe Illustrator 21.0.0, SVG Export Plug-In . SVG Version: 6.00 Build 0)  -->
<svg version="1.1" id="Warstwa_1" xmlns="http://www.w3.org/2000/svg" xmlns:xlink="http://www.w3.org/1999/xlink" x="0px" y="0px"
	 viewBox="0 0 400 400" style="enable-background:new 0 0 400 400;" xml:space="preserve">
<style type="text/css">
	.st0{fill:url(#SVGID_1_);}
	.st1{fill:#FFFFFF;}
</style>
<linearGradient id="SVGID_1_" gradientUnits="userSpaceOnUse" x1="37.9165" y1="250.0177" x2="390.2441" y2="136.6815" gradientTransform="matrix(1 0 0 -1 0 400)">
	<stop  offset="0" style="stop-color:#0BA1E1"/>
	<stop  offset="1" style="stop-color:#116EDB"/>
</linearGradient>
<path class="st0" d="M397.1,201.7c0,49.9-6.5,91.7-49.2,130.3c-40.5,36.7-89.1,66.9-148,66.9c-60.8,0-133-35.2-165-81.6
	c-25.5-37-32.2-67.5-32.2-115.6c0-45.9,8.8-95.4,38-126.4C80.9,32.6,133.1-4.8,199.9,4.5c48.6,6.8,104.4,18.5,138.9,48.2
	C380.9,88.9,397.1,141.9,397.1,201.7z"/>
<g id="XMLID_4328_">
	<g id="XMLID_4335_">
		<path id="XMLID_4336_" class="st1" d="M104.5,128.6c-17.5,8.3-29.3,25.1-31,44.4c-0.4,4.3,6.2,5,6.6,0.7
			c1.5-17,11.7-31.8,27.1-39.1C111.1,132.8,108.3,126.7,104.5,128.6z"/>
	</g>
	<g id="XMLID_4333_">
		<path id="XMLID_4334_" class="st1" d="M91.7,120.4c-17.4,8.3-29.2,25.2-30.9,44.4c-0.4,4.3,6.2,5,6.6,0.7
			c1.5-17,11.7-31.8,27.1-39.1C98.3,124.6,95.5,118.6,91.7,120.4z"/>
	</g>
	<g id="XMLID_4331_">
		<path id="XMLID_4332_" class="st1" d="M303.7,237.9c-5.1,18.6-19.5,33.3-38.2,38.4c-4.1,1.1-6.1-5.2-1.9-6.4
			c16.4-4.5,29.2-17.2,33.6-33.6C298.4,232.1,304.9,233.7,303.7,237.9z"/>
	</g>
	<g id="XMLID_4329_">
		<path id="XMLID_4330_" class="st1" d="M314,249c-5.1,18.6-19.5,33.3-38.2,38.4c-4.1,1.1-6.1-5.2-1.9-6.4
			c16.4-4.5,29.2-17.2,33.6-33.6C308.7,243.3,315.2,244.9,314,249z"/>
	</g>
</g>
<g id="XMLID_4313_">
	<path class="st1" d="M282.6,191.2c-22.7,0-41.1-18.4-41.1-41.1c0-8.3,2.5-16.1,6.8-22.6c-16.1-8.6-35.3-13.6-56-13.6
		c-57,0-103.2,37.9-103.2,84.8c0,9.5,1.9,18.6,5.4,27.1c0.5,1.3,0.3,2.7-0.5,3.8c-4,5.3-9.1,10.4-15.5,13.9
		c-2.7,1.4-2.7,5.2-0.1,6.7c7.3,4,20.5,9.2,36.9,6.8c1.1-0.2,2.2,0.1,3,0.8c18.7,15.8,44.9,25.6,73.9,25.6
		c57,0,103.2-37.9,103.2-84.8c0-3.2-0.2-6.3-0.6-9.4C291,190.5,286.9,191.2,282.6,191.2z M162.4,212.7c-3.9,0-7-3.1-7-7s3.1-7,7-7
		s7,3.1,7,7C169.4,209.6,166.3,212.7,162.4,212.7z M193.6,212.7c-3.9,0-7-3.1-7-7s3.1-7,7-7s7,3.1,7,7
		C200.6,209.6,197.5,212.7,193.6,212.7z M224.7,212.7c-3.9,0-7-3.1-7-7s3.1-7,7-7s7,3.1,7,7C231.7,209.6,228.5,212.7,224.7,212.7z"
		/>
	<path id="XMLID_4314_" class="st1" d="M282.6,195.8c-25.2,0-45.7-20.5-45.7-45.7s20.5-45.7,45.7-45.7c25.2,0,45.7,20.5,45.7,45.7
		C328.3,175.3,307.8,195.8,282.6,195.8z M282.6,108.5c-22.9,0-41.5,18.6-41.5,41.5s18.6,41.5,41.5,41.5s41.5-18.6,41.5-41.5
		C324.2,127.1,305.5,108.5,282.6,108.5z"/>
</g>
<g>
	<path class="st1" d="M298.8,161.5v6.9h-27.6v-5.5l14.1-13.3c1.5-1.4,2.5-2.7,3-3.7s0.8-2,0.8-3c0-1.5-0.5-2.6-1.5-3.4
		c-1-0.8-2.4-1.2-4.4-1.2c-1.6,0-3,0.3-4.3,0.9c-1.3,0.6-2.4,1.5-3.2,2.7l-6.1-4c1.4-2.1,3.4-3.8,5.9-5c2.5-1.2,5.4-1.8,8.6-1.8
		c2.7,0,5.1,0.4,7.1,1.3c2,0.9,3.6,2.1,4.7,3.8c1.1,1.6,1.7,3.5,1.7,5.7c0,2-0.4,3.8-1.2,5.6c-0.8,1.7-2.4,3.7-4.8,5.9l-8.4,7.9
		H298.8z"/>
</g>
</svg>
