<?xml version="1.0" encoding="utf-8"?>
<!-- Generator: Adobe Illustrator 21.0.0, SVG Export Plug-In . SVG Version: 6.00 Build 0)  -->
<svg version="1.1" id="Warstwa_1" xmlns="http://www.w3.org/2000/svg" xmlns:xlink="http://www.w3.org/1999/xlink" x="0px" y="0px"
	 viewBox="0 0 500 500" style="enable-background:new 0 0 500 500;" xml:space="preserve">
<style type="text/css">
	.st0{fill:#C3C9CE;}
</style>
<path class="st0" d="M250,2.4C113.2,2.4,2.4,113.2,2.4,250S113.2,497.6,250,497.6S497.6,386.8,497.6,250S386.8,2.4,250,2.4z
	 M380.3,199.7c0.4,1.5,0.6,4.1,0.6,7.5c0,27.8-6.8,54.7-20.3,80.6c-13.9,27.5-33.5,49.3-58.6,65.5c-27.5,18.2-59,27.3-94.6,27.3
	c-34,0-65.2-9.1-93.4-27.3c4.3,0.4,9.1,0.6,14.5,0.6c28.2,0,53.6-8.7,76-26.1c-13.5,0-25.4-4-35.7-11.9
	c-10.2-7.9-17.3-17.9-21.2-29.9c3.9,0.4,7.5,0.6,11,0.6c5.4,0,10.8-0.6,16.2-1.7c-13.9-3.1-25.5-10.2-34.8-21.5
	c-9.3-11.2-13.9-24-13.9-38.3V224c8.5,5,17.6,7.7,27.3,8.1c-8.1-5.8-14.7-13.1-19.7-22c-5-8.9-7.5-18.7-7.5-29.3
	c0-10.6,2.9-20.8,8.7-30.5c15.1,18.9,33.5,34,55.4,45.2c21.8,11.2,45.1,17.4,69.9,18.6c-0.8-4.6-1.2-9.3-1.2-13.9
	c0-10.8,2.7-21,8.1-30.5c5.4-9.5,12.8-16.9,22-22.3c9.3-5.4,19.3-8.1,30.2-8.1c8.9,0,17.1,1.7,24.7,5.2s14.2,8.1,20,13.9
	c13.9-2.7,26.9-7.5,38.9-14.5c-4.6,14.3-13.5,25.5-26.7,33.6c11.6-1.5,23.2-4.8,34.8-9.9C402.5,180.1,392.2,190.8,380.3,199.7z"/>
</svg>
