<?xml version="1.0" encoding="utf-8"?>
<!-- Generator: Adobe Illustrator 21.0.0, SVG Export Plug-In . SVG Version: 6.00 Build 0)  -->
<svg version="1.1" id="Warstwa_1" xmlns="http://www.w3.org/2000/svg" xmlns:xlink="http://www.w3.org/1999/xlink" x="0px" y="0px"
	 viewBox="0 0 500 500" style="enable-background:new 0 0 500 500;" xml:space="preserve">
<style type="text/css">
	.st0{fill:#C3C9CE;}
</style>
<path class="st0" d="M308.5,320.8V491c108.7-26.3,189.4-124.2,189.4-241c0-136.9-111-247.9-247.9-247.9S2.1,113.1,2.1,250
	c0,132.7,104.2,241,235.2,247.6V320.8h-59v-68.2h59v-50.9c0-29.2,8.1-51.6,24.4-67.2s37.7-23.4,64.1-23.4c21,0,38.7,0.7,52.9,2v62.1
	h-36.6c-12.9,0-22.1,3.1-27.5,9.2c-4.1,4.8-6.1,12.9-6.1,24.4v43.8h68.2l-9.2,68.2H308.5z"/>
</svg>
