<?xml version="1.0" encoding="utf-8"?>
<!-- Generator: Adobe Illustrator 21.0.0, SVG Export Plug-In . SVG Version: 6.00 Build 0)  -->
<svg version="1.1" id="Warstwa_1" xmlns="http://www.w3.org/2000/svg" xmlns:xlink="http://www.w3.org/1999/xlink" x="0px" y="0px"
	 viewBox="0 0 500 500" style="enable-background:new 0 0 500 500;" xml:space="preserve">
<style type="text/css">
	.st0{fill:#C3C9CE;}
</style>
<path class="st0" d="M250,2.4C113.2,2.4,2.4,113.2,2.4,250S113.2,497.6,250,497.6S497.6,386.8,497.6,250S386.8,2.4,250,2.4z
	 M374.9,118.9l-39.2,235.2c-0.7,4-3,7.1-6.8,9.3c-3.8,2.2-7.5,2.4-11.2,0.5l-68-28.3l-34.3,41.9c-2.5,3.3-5.7,4.9-9.5,4.9
	c-3.8,0-7.1-1.2-9.8-3.5c-2.7-2.4-4.1-5.7-4.1-10.1v-43.5l131.2-160c1.1-1.5,0.9-2.8-0.5-4.1c-1.5-1.3-2.9-1.4-4.4-0.3L162.1,298.6
	l-57.7-24c-5.1-2.2-7.8-6-8.2-11.4c-0.4-5.4,2-9.4,7.1-12l252-145.9c4.7-2.5,9.3-2.3,13.9,0.8C373.8,109.2,375.7,113.5,374.9,118.9z
	"/>
</svg>
