<?xml version="1.0" encoding="utf-8"?>
<!-- Generator: Adobe Illustrator 21.0.0, SVG Export Plug-In . SVG Version: 6.00 Build 0)  -->
<svg version="1.1" id="Warstwa_1" xmlns="http://www.w3.org/2000/svg" xmlns:xlink="http://www.w3.org/1999/xlink" x="0px" y="0px"
	 viewBox="0 0 400 400" style="enable-background:new 0 0 400 400;" xml:space="preserve">
<style type="text/css">
	.st0{fill:url(#SVGID_1_);}
	.st1{fill:#FFFFFF;}
</style>
<linearGradient id="SVGID_1_" gradientUnits="userSpaceOnUse" x1="38.3066" y1="301.8431" x2="390.2999" y2="188.6146" gradientTransform="matrix(1 0 0 -1 0 452)">
	<stop  offset="0" style="stop-color:#0BA1E1"/>
	<stop  offset="1" style="stop-color:#116EDB"/>
</linearGradient>
<path class="st0" d="M397.1,202c0,49.8-6.6,91.6-49.2,130.2c-40.5,36.7-89,66.8-147.8,66.8c-60.8,0-132.9-35.2-164.9-81.6
	C9.8,280.4,3,249.9,3,201.8c0-45.8,8.7-95.4,37.9-126.3c40.1-42.7,92.3-80,159-70.9c48.5,6.8,104.3,18.4,138.9,48.1
	C381,89.2,397.1,142.2,397.1,202z"/>
<path class="st1" d="M315.1,138.2l-28.6-26.5c-1.1-1-2.8-0.9-3.8,0.1L176.9,225.9c-1,1.1-2.7,1.1-3.8,0.1l-52.2-48.4
	c-1.1-1-2.8-0.9-3.8,0.1l-26.5,28.6c-1,1.1-0.9,2.8,0.1,3.8l84.6,78.6c1.1,1,2.8,0.9,3.8-0.1h0l0.1,0.1L315.3,142
	C316.3,140.9,316.2,139.2,315.1,138.2z"/>
</svg>
