<?xml version="1.0" encoding="utf-8"?>
<!-- Generator: Adobe Illustrator 21.0.0, SVG Export Plug-In . SVG Version: 6.00 Build 0)  -->
<svg version="1.1" xmlns="http://www.w3.org/2000/svg" xmlns:xlink="http://www.w3.org/1999/xlink" x="0px" y="0px"
	 viewBox="0 0 750 696" style="enable-background:new 0 0 750 696;" xml:space="preserve">
<style type="text/css">
	.st0{opacity:0.6;fill:#EFF3F8;enable-background:new    ;}
	.st1{fill:#FFFFFF;}
	.st2{opacity:0.6;enable-background:new    ;}
	.st3{fill:#EFF3F8;}
	.st4{enable-background:new    ;}
	.st5{fill:#10263C;}
	.st6{fill:url(#SVGID_1_);}
	.st7{fill:url(#SVGID_2_);}
	.st8{fill:#DE0E5C;}
	.st9{fill:url(#SVGID_3_);}
	.st10{fill:url(#SVGID_4_);}
	.st11{fill:url(#SVGID_5_);}
	.st12{fill:#2A0055;}
	.st13{fill:#FFBFAA;}
	.st14{fill:url(#SVGID_6_);}
	.st15{fill:url(#SVGID_7_);}
	.st16{fill:url(#SVGID_8_);}
	.st17{fill:#8AA5F3;}
	.st18{fill:url(#SVGID_9_);}
	.st19{fill:url(#SVGID_10_);}
	.st20{fill:url(#SVGID_11_);}
	.st21{fill:url(#SVGID_12_);}
	.st22{clip-path:url(#SVGID_14_);}
	.st23{fill:#00C9B9;}
	.st24{clip-path:url(#SVGID_16_);}
	.st25{clip-path:url(#SVGID_18_);}
	.st26{fill:url(#SVGID_19_);}
	.st27{fill:url(#SVGID_20_);}
	.st28{fill:url(#SVGID_21_);}
	.st29{fill:url(#SVGID_22_);}
	.st30{fill:url(#SVGID_23_);}
	.st31{fill:url(#SVGID_24_);}
	.st32{fill:url(#SVGID_25_);}
</style>
<g id="Warstwa_1">
	<g id="Background">
	</g>
</g>
<g id="Warstwa_2">
	<rect x="595.8" y="602.3" class="st0" width="71" height="56.2"/>
	<ellipse class="st0" cx="624.9" cy="665.6" rx="103.3" ry="17.3"/>
	<ellipse class="st0" cx="417.6" cy="582.6" rx="295.8" ry="70.6"/>
	<path class="st0" d="M242.5,468.5c-3,2.6-8.5,0.6-12,0.2c-5.7-0.7-11.4-0.6-17-1.8c-12.4-2.7-30.5-11.5-29.5-26.6
		c0.6-10,8.9-17.4,16.4-22.9c0,0-22.5,0.1-29.2-7.3c-14.5-15.9,6.7-33,6.7-33s-5.6-1.8-8.3-3.1c-6.7-3.2-11.4-11.1-11.2-18.5
		c0.4-13.4,13.6-17.7,24.7-20.1c0,0-3.1-13.2,2.9-21.8c6-8.7,20.4-12.7,33.8,9c0.4,0.7,0.9,1.5,1.3,2.3c0.5,0.8,0.9,1.6,1.3,2.5
		c1.9-10.4,17-12.9,25-8.8c3.7,1.9,6.6,5.3,7.9,9.2c1.6,4.7,0.5,9.8-0.8,14.5c-0.1,0.3-0.2,0.6-0.2,0.8c0,0,41.7,0.3,36.1,44.6
		C284.8,432,242.5,468.5,242.5,468.5z"/>
	<g>
		<path class="st1" d="M87,224.4c-0.5,0-0.9-0.3-1.1-0.7c-0.3-0.6,0-1.3,0.7-1.6c1.3-0.5,2.6-1,3.9-1.3c0.6-0.2,1.3,0.2,1.5,0.8
			c0.2,0.6-0.2,1.3-0.8,1.5c-1.2,0.3-2.4,0.8-3.6,1.2C87.3,224.4,87.1,224.4,87,224.4z"/>
	</g>
	<g>
		<path class="st1" d="M311.5,281.9c-0.4,0-0.8-0.2-1-0.5c-7.9-11.9-19.7-18.7-35.1-20.3c-11.6-1.2-20.8,1.2-20.9,1.3
			c-0.4,0.1-0.8,0-1-0.2c-0.3-0.2-0.5-0.6-0.5-1c0-0.4,0-0.8,0-1.2c0-6.9-0.3-14.2-4.2-20c-3.2-4.8-8.2-8.2-13.9-9.4
			c-3.7-0.8-8.1-0.6-12.5,0.7c-0.6,0.2-1.3-0.2-1.5-0.8c-0.2-0.6,0.2-1.3,0.8-1.5c4.8-1.3,9.6-1.6,13.7-0.7
			c6.2,1.4,11.8,5.2,15.3,10.5c4.2,6.3,4.6,13.8,4.6,21c3.2-0.7,10.9-1.9,20.3-1c11.1,1.1,26.5,5.7,36.9,21.3
			c0.4,0.6,0.2,1.3-0.3,1.7C312,281.9,311.8,281.9,311.5,281.9z"/>
	</g>
	<g class="st2">
		<path class="st3" d="M301.2,483.9c-1,12-4.7,23.8-11.2,34c-4.1,6.5-1.4,10.5-8,15.1c-2,1.4-4.7,2.8-7.8,4.1h-35.1
			c-13.2,0-24.7-9.2-27.5-22.1c0-0.1,0-0.2-0.1-0.3c0,0-29.4,11.6-33.6-18.7l-14.5-1.5c-18.7-1.9-30.6-21.3-23.3-38.7
			c0.1-0.3,0.2-0.5,0.3-0.8c4.6-10.3,14.4-16.8,25.1-17.6c3.8-0.3,7.7,0.1,11.6,1.4l19.9,6.5c0,0-16.5-19.1-7-34.4
			c1.4-2.3,3.4-4.4,6-6.5c15.5-11.8,30,6.6,36.3,16.7c2.1,3.4,3.3,5.8,3.3,5.8s-0.1-2.5,0.6-5.9c1.4-7,6-17.6,21.3-16.1
			c2.2,0.2,4.7,0.7,7.4,1.5c1.7,0.5,3.3,1.1,4.8,1.9c1.1,0.6,2.2,1.2,3.2,2c12.8,9,20.7,28.6,24.9,41.6
			C300.9,462.1,302.2,473.1,301.2,483.9z"/>
	</g>
	<g>
		<g>
			<path class="st1" d="M248,203.7c-0.3,0-0.6-0.1-0.8-0.3c-0.5-0.4-0.5-1.2-0.1-1.7l42-47.5c0.4-0.5,1.2-0.5,1.7-0.1
				c0.5,0.4,0.5,1.2,0.1,1.7l-42,47.5C248.7,203.6,248.3,203.7,248,203.7z"/>
		</g>
		<g>
			<path class="st1" d="M242.9,189.2C242.9,189.2,242.9,189.2,242.9,189.2l-45.9-1.9c-0.7,0-1.2-0.6-1.2-1.3c0-0.7,0.6-1.2,1.3-1.2
				l45.8,1.9c0.7,0,1.2,0.6,1.2,1.3C244.1,188.7,243.6,189.2,242.9,189.2z"/>
		</g>
	</g>
	<g>
		<path class="st1" d="M251.3,442.3c-0.2-0.1-0.4-0.2-0.5-0.5L195.9,321c-0.2-0.4,0-0.9,0.4-1.1c0.4-0.2,0.9,0,1.1,0.4l54.8,120.8
			c0.2,0.4,0,0.9-0.4,1.1C251.6,442.3,251.4,442.3,251.3,442.3z"/>
	</g>
	<path class="st0" d="M409.7,424.2c0,0-126.1-59.2-14.9-111.5c0,0-59.2-52,2.2-77.4c0,0-24.7-65.8,41.9-55.7c0,0,0-18.4,14.3-29.3
		c19.2-14.6,53.8-16.4,50,51.4c0,0,43.8-15.2,46.1,20.1c0.5,8.3-4.2,19.4-13.6,30.4c0,0,23.2-2.5,34.4,7.5
		c15,13.4,24.4,49.5-20.8,88.5C492.1,397.8,409.7,424.2,409.7,424.2z"/>
	<g class="st2">
		<path class="st3" d="M691.5,493.9c-0.6,4.9-4.6,8.8-9.2,10.6c-4.6,1.8-9.6,1.9-14.6,2c4.7,1.4,7.8,6.6,7.5,11.5c0,0,0,0.1,0,0.1
			c-0.4,5.1-4.7,9-9.8,9h-89.9c-10.6-7.3,23.4-18.6,23-31.9c-0.1-2.4,0.1-4.8,0.6-7.3c0.6-3.5,1.7-6.9,3.2-10.1
			c2.6-5.5-2.5-12.5-2.9-18.1c-0.2-3.5,0.9-6.4,3.8-8.5c1.8-1.3,4.1-2.5,6.5-3.1c2.6-0.7,6.1,0.2,8.5-0.7c2.2-0.8,2.1-3.6,2.9-5.4
			c1.1-2.5,2.6-4.5,4.9-6c4-2.6,2.4-15.1,6.6-13.1c2.5-4.9-11.5,4.7,13.5-3.3c48.9-15.7,46.9,32.2,34.6,48.8
			c-1.8,2.5-8.5,10.9-11.6,11.4c5-0.9,10.5-0.8,15,1.6C688.7,483.8,692.1,488.8,691.5,493.9z"/>
	</g>
	<g class="st2">
		<g>
			<path class="st3" d="M572.8,527.1H425.2c-15.3-68.5,107.1-169.4,107.1-169.4c-6.1-68.3,54.3-55.4,54.3-55.4
				c-3.5-0.7,20.7-46.7,23.5-50.5c9.4-12.5,20.8-25.2,36.2-27.8c56.2-9.5,14.4,100.7,6.1,121.6c33.1,57.7-27.5,63-27.5,63
				c35,32.3,30.9,61.1,16,82.9C625.6,514,599.9,527.1,572.8,527.1z"/>
			<path class="st3" d="M572.8,528.3H425.2c-0.6,0-1.1-0.4-1.2-0.9c-3.5-15.9,0-34.8,10.4-56.2c8.3-17,21-35.6,37.7-55.3
				c26.4-31.2,54.9-55.3,58.9-58.7c-1.8-21.5,2.8-37.2,13.6-46.8c14.2-12.5,34.4-10.5,40.5-9.6c0.4-2.4,2.4-8.3,10.5-24.5
				c5.4-10.9,12-23.2,13.6-25.2c9.4-12.5,21.1-25.6,37-28.3c10.6-1.8,18.5,0.5,23.6,6.8c8.2,10.2,8.8,30.7,1.6,61.1
				c-5.2,21.9-13.2,43.6-17.6,54.9c10.2,18.1,12.4,33,6.5,44.3c-7.5,14.4-25.8,18.6-32.6,19.7c15.2,14.5,23.7,29.5,25.2,44.4
				c1.4,12.8-2.3,25.7-10.9,38.3C626.4,514.8,600.6,528.3,572.8,528.3z M426.1,525.9h146.7c27,0,52.1-13.1,67.1-35
				c18.5-27.1,13.2-54.5-15.9-81.3c-0.4-0.3-0.5-0.8-0.3-1.3c0.2-0.5,0.6-0.8,1-0.8c0.2,0,24.8-2.4,33.3-18.7
				c5.6-10.7,3.3-24.9-6.8-42.5c-0.2-0.3-0.2-0.7-0.1-1c8.4-21.2,34.3-92.2,16.6-114.1c-4.5-5.5-11.7-7.5-21.3-5.9
				c-15,2.5-26.3,15.2-35.4,27.3c-1.3,1.7-7.4,13-13.1,24.4c-7.7,15.5-10.5,22.8-10.5,24.5c0.3,0.3,0.4,0.7,0.3,1.1
				c-0.1,0.6-0.8,1-1.4,0.9c0,0,0,0,0,0c-0.2-0.1-24.6-5-40.1,8.7c-10.3,9.1-14.6,24.4-12.7,45.4c0,0.4-0.1,0.8-0.4,1
				c-0.3,0.3-30.8,25.6-59.1,58.9c-16.6,19.5-29.1,38-37.3,54.8C426.6,492.7,423.1,510.8,426.1,525.9z"/>
		</g>
	</g>
	<g>
		<path class="st1" d="M542.9,483.2c-0.2,0-0.3,0-0.5-0.1c-0.6-0.3-0.9-1-0.6-1.6l121-255.8c0.3-0.6,1-0.9,1.6-0.6
			c0.6,0.3,0.9,1,0.6,1.6L544,482.5C543.8,483,543.3,483.2,542.9,483.2z"/>
	</g>
	<g>
		<path class="st1" d="M616.4,457.8c-0.1,0-0.2,0-0.4-0.1l-53.9-16.5c-0.6-0.2-1-0.9-0.8-1.5c0.2-0.6,0.9-1,1.5-0.8l53.9,16.5
			c0.6,0.2,1,0.9,0.8,1.5C617.4,457.5,616.9,457.8,616.4,457.8z"/>
	</g>
	<g>
		<path class="st1" d="M475.2,307.3c-0.1,0-0.2,0.1-0.4,0.1c-0.7,0-1.2-0.5-1.2-1.2l-3.5-163.8c0-0.7,0.5-1.2,1.2-1.2
			c0.7,0,1.2,0.5,1.2,1.2l3.5,163.8C476.1,306.7,475.7,307.2,475.2,307.3z"/>
	</g>
	<g>
		<path class="st1" d="M473.9,222.7c-0.2,0.1-0.5,0.1-0.7,0l-76.5-21.6c-0.6-0.2-1-0.9-0.8-1.5c0.2-0.6,0.9-1,1.5-0.8l76.5,21.6
			c0.6,0.2,1,0.9,0.8,1.5C474.6,222.3,474.3,222.6,473.9,222.7z"/>
	</g>
	<g>
		<path class="st1" d="M194.8,399.7c-0.4-0.1-0.7-0.5-0.6-0.9c0.1-0.5,0.5-0.8,1-0.7l40.3,6.9c0.4,0.1,0.8,0.5,0.7,1
			c-0.1,0.5-0.5,0.8-1,0.7L194.8,399.7C194.8,399.7,194.8,399.7,194.8,399.7z"/>
	</g>
	<g>
		<path class="st1" d="M254.5,417.9c0,0-0.1,0-0.1,0c-0.4-0.2-0.6-0.7-0.4-1.1l21.5-49c0.2-0.4,0.7-0.6,1.1-0.4
			c0.4,0.2,0.6,0.7,0.4,1.1l-21.5,49C255.3,417.8,254.9,418,254.5,417.9z"/>
	</g>
	<g>
		<path class="st1" d="M474.2,247.4c-0.6,0.2-1.2-0.1-1.5-0.6c-0.3-0.6,0-1.3,0.6-1.6l71.9-33.3c0.6-0.3,1.3,0,1.6,0.6
			c0.3,0.6,0,1.3-0.6,1.6l-71.9,33.3C474.3,247.4,474.3,247.4,474.2,247.4z"/>
	</g>
	<g>
		
			<rect x="241.1" y="414.9" transform="matrix(0.2498 -0.9683 0.9683 0.2498 -275.2834 590.7742)" class="st1" width="5" height="116.2"/>
	</g>
	<g>
		<g>
			<path class="st3" d="M629.8,39.3c-0.7,0-1.2-0.5-1.2-1.2v-5.3c0-0.7,0.5-1.2,1.2-1.2s1.2,0.5,1.2,1.2v5.3
				C631,38.7,630.4,39.3,629.8,39.3z"/>
		</g>
		<g>
			<path class="st3" d="M629.8,51.8c-0.7,0-1.2-0.5-1.2-1.2v-5.3c0-0.7,0.5-1.2,1.2-1.2s1.2,0.5,1.2,1.2v5.3
				C631,51.3,630.4,51.8,629.8,51.8z"/>
		</g>
		<g>
			<path class="st3" d="M638.7,42.9h-5.3c-0.7,0-1.2-0.5-1.2-1.2c0-0.7,0.5-1.2,1.2-1.2h5.3c0.7,0,1.2,0.5,1.2,1.2
				C639.9,42.4,639.4,42.9,638.7,42.9z"/>
		</g>
		<g>
			<path class="st3" d="M626.1,42.9h-5.3c-0.7,0-1.2-0.5-1.2-1.2c0-0.7,0.5-1.2,1.2-1.2h5.3c0.7,0,1.2,0.5,1.2,1.2
				C627.3,42.4,626.8,42.9,626.1,42.9z"/>
		</g>
	</g>
	<g class="st2">
		<g>
			<g>
				<g class="st4">
					<g>
						<polygon class="st3" points="561.4,148.3 545,148.1 533.2,125.4 549.5,125.6 						"/>
					</g>
					<g>
						<polygon class="st3" points="549.5,125.6 533.2,125.4 552.6,111.4 568.9,111.6 						"/>
					</g>
					<g>
						<polygon class="st3" points="568.9,111.6 580.8,134.3 561.4,148.3 549.5,125.6 						"/>
					</g>
				</g>
			</g>
			<g>
				<path class="st3" d="M561.2,149.5c-0.4,0-0.7-0.3-0.9-0.6l-11.9-22.7c-0.3-0.5-0.1-1.2,0.4-1.5l19.4-14c0.5-0.4,1.3-0.3,1.7,0.3
					c0.4,0.5,0.3,1.3-0.3,1.7L551,126l11.4,21.7c0.3,0.6,0.1,1.3-0.5,1.6C561.7,149.5,561.4,149.5,561.2,149.5z"/>
			</g>
			<g>
				<path class="st3" d="M533,126.6c-0.6-0.1-1.1-0.6-1.1-1.2c0-0.7,0.6-1.2,1.2-1.2l16.3,0.2c0.7,0,1.2,0.6,1.2,1.2
					c0,0.7-0.6,1.2-1.2,1.2l-16.3-0.2C533.1,126.6,533.1,126.6,533,126.6z"/>
			</g>
		</g>
		<g>
			<path class="st3" d="M566.6,106.7c-0.6-0.1-1-0.5-1.1-1.1l-0.9-9c-0.1-0.7,0.4-1.3,1.1-1.3c0.7-0.1,1.3,0.4,1.3,1.1l0.9,9
				c0.1,0.7-0.4,1.3-1.1,1.3C566.8,106.7,566.7,106.7,566.6,106.7z"/>
		</g>
		<g>
			<path class="st3" d="M574.7,110.7c-0.5-0.1-0.9-0.4-1-0.9c-0.2-0.6,0.2-1.3,0.9-1.5l5.6-1.4c0.6-0.2,1.3,0.2,1.5,0.9
				c0.2,0.6-0.2,1.3-0.9,1.5l-5.6,1.4C575,110.7,574.8,110.7,574.7,110.7z"/>
		</g>
	</g>
	<g class="st2">
		<g class="st4">
			<g>
				<g>
					<polygon class="st3" points="311.8,103.4 291.1,123.4 296.4,79.6 					"/>
					<path class="st3" d="M290.9,124.6c-0.1,0-0.2-0.1-0.4-0.1c-0.5-0.2-0.7-0.7-0.7-1.2l5.3-43.8c0.1-0.5,0.4-0.9,0.9-1
						c0.5-0.1,1,0.1,1.3,0.5l15.4,23.8c0.3,0.5,0.2,1.1-0.2,1.5l-20.7,20C291.7,124.6,291.3,124.7,290.9,124.6z M297.2,83.1
						l-4.5,37.1l17.5-17L297.2,83.1z"/>
				</g>
			</g>
			<g>
				<g>
					<polygon class="st3" points="296.4,79.6 334.1,98 311.8,103.4 					"/>
					<path class="st3" d="M311.6,104.6c-0.3,0-0.6-0.2-0.8-0.5l-15.4-23.8c-0.3-0.5-0.2-1.1,0.1-1.5c0.4-0.4,0.9-0.5,1.4-0.3
						l37.6,18.4c0.5,0.2,0.7,0.7,0.7,1.2c-0.1,0.5-0.4,0.9-0.9,1l-22.2,5.4C311.9,104.6,311.8,104.6,311.6,104.6z M299.8,82.6
						l12.5,19.4l18.1-4.4L299.8,82.6z"/>
				</g>
			</g>
			<g>
				<g>
					<polygon class="st3" points="334.1,98 317.1,118.1 291.1,123.4 311.8,103.4 					"/>
					<path class="st3" d="M290.9,124.6c-0.4-0.1-0.7-0.3-0.9-0.6c-0.3-0.5-0.2-1.1,0.2-1.4l20.7-20c0.2-0.2,0.3-0.3,0.6-0.3
						l22.2-5.4c0.5-0.1,1,0.1,1.3,0.5c0.3,0.4,0.2,1-0.1,1.4l-17,20.1c-0.2,0.2-0.4,0.4-0.7,0.4l-26,5.3
						C291.2,124.6,291.1,124.6,290.9,124.6z M312.4,104.5l-17.5,16.9l21.5-4.4l14.3-16.9L312.4,104.5z"/>
				</g>
			</g>
		</g>
		<g>
			<path class="st3" d="M311.3,103.3c-0.3,0-0.6-0.2-0.8-0.5l-15.4-23.8c-0.4-0.6-0.2-1.3,0.4-1.7c0.6-0.4,1.3-0.2,1.7,0.4
				l15.4,23.8c0.4,0.6,0.2,1.3-0.4,1.7C311.9,103.3,311.6,103.3,311.3,103.3z"/>
		</g>
		<g>
			<path class="st3" d="M290.9,124.6c-0.3,0-0.5-0.2-0.7-0.3c-0.5-0.5-0.5-1.2,0-1.7l21.2-20.9c0.2-0.2,0.4-0.3,0.6-0.3l22.1-5.1
				c0.7-0.2,1.3,0.3,1.4,0.9c0.1,0.7-0.3,1.3-0.9,1.4l-21.8,5L292,124.3C291.7,124.6,291.3,124.7,290.9,124.6z"/>
		</g>
	</g>
	<g>
		<g>
			<path class="st5" d="M616.4,617.2V468.8c0-4.3-3.5-7.8-7.8-7.8H193.6c-4.3,0-7.8,3.5-7.8,7.8v148.3c0,4.3,3.5,7.8,7.8,7.8h415.1
				C613,624.9,616.4,621.4,616.4,617.2z"/>
		</g>
		<g>
			<g>
				<path class="st0" d="M193.6,589.4c-2,0-3.6-1.6-3.6-3.6V437.4c0-2,1.6-3.6,3.6-3.6h415.1c2,0,3.6,1.6,3.6,3.6v148.3
					c0,2-1.6,3.6-3.6,3.6H193.6z"/>
				<path class="st5" d="M608.2,437.9v147.4H194.1V437.9H608.2L608.2,437.9z M608.7,429.7H193.6c-4.3,0-7.8,3.5-7.8,7.8v148.3
					c0,4.3,3.5,7.8,7.8,7.8h415.1c4.3,0,7.8-3.5,7.8-7.8V437.4C616.4,433.1,613,429.7,608.7,429.7L608.7,429.7z"/>
			</g>
		</g>
	</g>
	<g>
		<path class="st1" d="M616.4,598.2H185.8c-0.9,0-1.7-0.7-1.7-1.7s0.7-1.7,1.7-1.7h430.6c0.9,0,1.7,0.7,1.7,1.7
			S617.4,598.2,616.4,598.2z"/>
	</g>
	<path class="st5" d="M191.5,472.5L191.5,472.5c8.9,2.8,15,11,15.2,20.4l0.5,37.4c0.1,8.7-4.9,16.6-12.9,20.1l-0.6,0.3L191.5,472.5z
		"/>
	<g>
		<path class="st1" d="M261.1,613.6h-25.3c-0.9,0-1.7-0.7-1.7-1.7c0-0.9,0.7-1.7,1.7-1.7h25.3c0.9,0,1.7,0.7,1.7,1.7
			C262.7,612.9,262,613.6,261.1,613.6z"/>
	</g>
	<g>
		<path class="st1" d="M302.8,613.6h-25.3c-0.9,0-1.7-0.7-1.7-1.7c0-0.9,0.7-1.7,1.7-1.7h25.3c0.9,0,1.7,0.7,1.7,1.7
			C304.4,612.9,303.7,613.6,302.8,613.6z"/>
	</g>
	<g>
		<path class="st1" d="M536.9,612.4h-53.3c-0.9,0-1.7-0.7-1.7-1.7c0-0.9,0.7-1.7,1.7-1.7h53.3c0.9,0,1.7,0.7,1.7,1.7
			C538.6,611.7,537.8,612.4,536.9,612.4z"/>
	</g>
	<g>
		<g>
			<linearGradient id="SVGID_1_" gradientUnits="userSpaceOnUse" x1="492.9111" y1="239.43" x2="530.1868" y2="239.43">
				<stop  offset="0" style="stop-color:#0BA1E1"/>
				<stop  offset="1" style="stop-color:#116EDB"/>
			</linearGradient>
			<path class="st6" d="M528.7,278.2c-0.7,0-1.3-0.4-1.4-1.1l-18.1-72.1l-13.8,13.3c-0.6,0.6-1.5,0.5-2.1,0c-0.6-0.6-0.5-1.5,0-2.1
				l15.6-15.1c0.4-0.4,0.9-0.5,1.4-0.4c0.5,0.1,0.9,0.5,1,1.1l18.8,74.6c0.2,0.8-0.3,1.6-1.1,1.8C529,278.2,528.8,278.2,528.7,278.2
				z"/>
		</g>
		<g>
			<linearGradient id="SVGID_2_" gradientUnits="userSpaceOnUse" x1="535.1331" y1="428.6852" x2="598.7476" y2="428.6852">
				<stop  offset="0" style="stop-color:#0BA1E1"/>
				<stop  offset="1" style="stop-color:#116EDB"/>
			</linearGradient>
			<path class="st7" d="M597.3,550.8c-0.1,0-0.3,0-0.4-0.1l-17.8-5c-0.8-0.2-1.2-1-1-1.8c0.2-0.8,1-1.2,1.8-1l15.4,4.3l-60.1-238.8
				c-0.2-0.8,0.3-1.6,1.1-1.8c0.8-0.2,1.6,0.3,1.8,1.1L598.7,549c0.1,0.5,0,1-0.4,1.4C598,550.6,597.7,550.8,597.3,550.8z"/>
		</g>
	</g>
	<g>
		<g>
			<polygon class="st1" points="215.4,468 474,217.8 561.3,565 			"/>
			<path class="st8" d="M561.3,572.6c-0.7,0-1.4-0.1-2.1-0.3l-346-97c-2.6-0.7-4.7-2.8-5.3-5.5c-0.7-2.6,0.1-5.5,2.1-7.4
				l258.6-250.2c2-1.9,4.8-2.6,7.4-1.9c2.6,0.7,4.6,2.8,5.3,5.5l87.3,347.2c0.7,2.6-0.1,5.4-2.1,7.3
				C565.2,571.9,563.3,572.6,561.3,572.6z M230.2,464.3l320.5,89.9l-80.9-321.6L230.2,464.3z"/>
		</g>
	</g>
	<g>
		<g>
			<path class="st8" d="M411.2,443.9c-4.7-1.4-7.4-6.2-6.2-11l31.8-124.3c2.1-8.1,10.5-12.8,18.5-10.4c8,2.4,12.4,11,9.6,18.9
				l-42.5,121.1C420.8,442.8,415.9,445.3,411.2,443.9z M397.3,490.1c-6.2-1.9-9.7-8.4-7.8-14.6l0.2-0.7c1.9-6.2,8.4-9.7,14.6-7.8
				c6.2,1.9,9.7,8.4,7.8,14.6l-0.2,0.7C410,488.5,403.5,492,397.3,490.1z"/>
			<path class="st8" d="M400.7,495.6c-1.6,0-3.2-0.2-4.8-0.7c-4.3-1.3-7.8-4.2-9.9-8.1c-2.1-3.9-2.6-8.5-1.3-12.8l0.2-0.7
				c1.3-4.3,4.2-7.8,8.1-9.9c3.9-2.1,8.5-2.6,12.8-1.3c4.3,1.3,7.8,4.2,9.9,8.1c2.1,3.9,2.6,8.5,1.3,12.8l-0.2,0.7
				C414.5,490.9,407.8,495.6,400.7,495.6z M400.9,471.4c-1.1,0-2.2,0.3-3.2,0.8c-1.6,0.9-2.8,2.3-3.3,4l-0.2,0.7
				c-0.5,1.7-0.3,3.6,0.5,5.1c0.9,1.6,2.3,2.8,4,3.3c3.6,1.1,7.3-0.9,8.4-4.5l0.2-0.7c0.5-1.7,0.3-3.5-0.5-5.1
				c-0.9-1.6-2.3-2.8-4-3.3C402.2,471.5,401.5,471.4,400.9,471.4z M413.9,449.3c-1.4,0-2.7-0.2-4.1-0.6c-7.2-2.2-11.4-9.7-9.6-17
				L432,307.3c1.3-5.3,4.7-9.6,9.4-12.3c4.7-2.7,10.2-3.3,15.4-1.7c5.2,1.6,9.4,5.1,11.8,9.9c2.5,4.8,2.8,10.3,1,15.4l-42.5,121.1
				C425.1,445.6,419.7,449.3,413.9,449.3z M412.6,439.1c2.1,0.6,4.3-0.5,5.1-2.6l42.5-121.1c0.9-2.5,0.7-5.2-0.5-7.6
				c-1.2-2.4-3.3-4.1-5.8-4.9c-2.6-0.8-5.2-0.5-7.6,0.8c-2.3,1.3-4,3.5-4.6,6l-31.8,124.3C409.3,436.3,410.5,438.4,412.6,439.1
				L412.6,439.1z"/>
			<g>
				<path class="st8" d="M391.8,493.6c-1.5,0-3.1-0.2-4.6-0.7h0c-8.4-2.5-13.1-11.4-10.6-19.8l0.2-0.8c1.2-4.1,4-7.4,7.7-9.4
					c3.7-2,8-2.4,12.1-1.2c4.1,1.2,7.4,4,9.4,7.7c2,3.7,2.4,8,1.2,12.1l-0.2,0.8C404.9,489.1,398.6,493.6,391.8,493.6z M388.2,489.5
					c6.5,2,13.4-1.7,15.4-8.2l0.2-0.8c1-3.2,0.6-6.5-0.9-9.4c-1.6-2.9-4.2-5-7.3-6c-3.2-1-6.5-0.6-9.4,0.9c-2.9,1.6-5,4.2-6,7.3
					l-0.2,0.8C378,480.6,381.7,487.5,388.2,489.5L388.2,489.5z M401.6,446.5c-1.1,0-2.2-0.2-3.3-0.5c-5.9-1.8-9.3-7.8-7.8-13.8
					l19.4-75.7c0.2-0.9,1.2-1.5,2.1-1.3c0.9,0.2,1.5,1.2,1.3,2.1l-19.4,75.7c-1.1,4.1,1.3,8.3,5.4,9.5c4.1,1.2,8.3-0.9,9.7-4.9
					l45.1-128.5c1.3-3.6,1-7.4-0.7-10.8c-1.7-3.4-4.7-5.9-8.3-7c-3.6-1.1-7.5-0.7-10.8,1.2c-3.3,1.9-5.7,4.9-6.6,8.6l-10.5,41.1
					c-0.2,0.9-1.2,1.5-2.1,1.3c-0.9-0.2-1.5-1.2-1.3-2.1l10.5-41.1c1.2-4.6,4.1-8.5,8.3-10.8c4.2-2.3,9-2.9,13.5-1.5
					c4.6,1.4,8.3,4.5,10.4,8.7c2.2,4.3,2.5,9.1,0.9,13.6l-45.1,128.5C410.7,443.5,406.3,446.5,401.6,446.5z"/>
			</g>
		</g>
	</g>
	<g>
		<path class="st8" d="M481.6,186.2c4.2-14.7,8.4-29.4,12.6-44.2c1.4-5.1-6.6-6.7-8-1.7c-2.4,8.3-5.3,18.6-12.6,44.2
			C472.2,189.5,480.2,191.2,481.6,186.2L481.6,186.2z"/>
	</g>
	<g>
		<path class="st8" d="M564.6,266.1c11.3-4.4,22.6-8.9,33.9-13.3c4.8-1.9,2.7-9.8-2.2-7.9c-11.3,4.4-22.6,8.9-33.9,13.3
			C557.6,260.1,559.7,268,564.6,266.1L564.6,266.1z"/>
	</g>
	<g>
		<linearGradient id="SVGID_3_" gradientUnits="userSpaceOnUse" x1="200.2245" y1="254.4634" x2="389.9211" y2="254.4634">
			<stop  offset="0" style="stop-color:#0BA1E1"/>
			<stop  offset="1" style="stop-color:#116EDB"/>
		</linearGradient>
		<path class="st9" d="M201.9,346.5c-0.5,0-0.9-0.2-1.2-0.6c-0.4-0.4-0.5-1.1-0.3-1.6L260,163.6c0.2-0.6,0.7-1,1.2-1.1
			c0.6-0.1,1.2,0.1,1.6,0.5l39.3,44c0.6,0.7,0.6,1.7-0.1,2.4c-0.7,0.6-1.7,0.6-2.4-0.1l-37.3-41.9l-57.9,175.2l180.7-37.5l-68-76.3
			c-0.6-0.7-0.6-1.7,0.1-2.4c0.7-0.6,1.7-0.6,2.4,0.1l70,78.4c0.4,0.4,0.5,1.1,0.3,1.6c-0.2,0.6-0.7,1-1.2,1.1l-186.3,38.7
			C202.1,346.5,202,346.5,201.9,346.5z"/>
	</g>
	<g>
		<polygon class="st1" points="228.8,154 292.2,225 355.5,296.1 262.3,315.4 169.2,334.7 199,244.4 		"/>
		<path class="st8" d="M169.2,339.7c-1.4,0-2.8-0.6-3.7-1.7c-1.2-1.3-1.6-3.2-1-4.9l59.7-180.7c0.6-1.7,2-3,3.7-3.3
			c1.7-0.4,3.5,0.2,4.7,1.6l126.7,142c1.2,1.3,1.6,3.2,1,4.9c-0.6,1.7-2,3-3.7,3.3l-186.3,38.7C169.8,339.7,169.5,339.7,169.2,339.7
			z M230.9,163.8l-54.3,164.3l169.5-35.2L230.9,163.8z"/>
	</g>
	<g>
		<path class="st8" d="M254.3,278c-2.3,0.5-4.6-1-5.2-3.3l-15.1-61c-1-4,1.5-8,5.6-8.8c4-0.8,7.9,1.9,8.5,5.9l9.7,62.1
			C258.2,275.3,256.7,277.5,254.3,278z M259,301.2c-3.1,0.6-6.1-1.4-6.8-4.5l-0.1-0.3c-0.6-3.1,1.4-6.1,4.5-6.8
			c3.1-0.6,6.1,1.4,6.8,4.5l0.1,0.3C264.2,297.5,262.2,300.6,259,301.2z"/>
	</g>
	<g>
		<linearGradient id="SVGID_4_" gradientUnits="userSpaceOnUse" x1="309.9282" y1="173.0457" x2="315.5701" y2="173.0457">
			<stop  offset="0" style="stop-color:#0BA1E1"/>
			<stop  offset="1" style="stop-color:#116EDB"/>
		</linearGradient>
		<path class="st10" d="M311.6,184.7c-0.1,0-0.1,0-0.2,0c-0.9-0.1-1.6-0.9-1.5-1.9l2.3-19.9c0.1-0.9,0.9-1.6,1.9-1.5
			c0.9,0.1,1.6,0.9,1.5,1.9l-2.3,19.9C313.2,184,312.4,184.7,311.6,184.7z"/>
	</g>
	<g>
		<linearGradient id="SVGID_5_" gradientUnits="userSpaceOnUse" x1="323.5583" y1="200.6636" x2="355.3155" y2="200.6636">
			<stop  offset="0" style="stop-color:#0BA1E1"/>
			<stop  offset="1" style="stop-color:#116EDB"/>
		</linearGradient>
		<path class="st11" d="M325.2,204.6c-0.8,0-1.5-0.6-1.7-1.4c-0.1-0.9,0.5-1.8,1.4-1.9l28.4-4.5c0.9-0.1,1.8,0.5,1.9,1.4
			c0.1,0.9-0.5,1.8-1.4,1.9l-28.4,4.5C325.4,204.6,325.3,204.6,325.2,204.6z"/>
	</g>
	<ellipse class="st0" cx="131.3" cy="671.3" rx="122.8" ry="13.4"/>
	<g>
		<circle class="st12" cx="126.8" cy="467.6" r="2"/>
		<circle class="st12" cx="111.1" cy="467.6" r="2"/>
		<polygon class="st13" points="141,640.9 142.8,660.1 160.2,657.3 160.2,642.5 		"/>
		<linearGradient id="SVGID_6_" gradientUnits="userSpaceOnUse" x1="140.0412" y1="658.9557" x2="181.2353" y2="658.9557">
			<stop  offset="0" style="stop-color:#0BA1E1"/>
			<stop  offset="1" style="stop-color:#116EDB"/>
		</linearGradient>
		<polygon class="st14" points="163.2,645.4 154.7,645.4 150.9,653.4 140,653.4 140,672.5 181.2,672.5 181.2,664.7 167.1,654.5 		
			"/>
		<linearGradient id="SVGID_7_" gradientUnits="userSpaceOnUse" x1="102.9622" y1="589.8954" x2="163.2253" y2="589.8954">
			<stop  offset="0" style="stop-color:#0BA1E1"/>
			<stop  offset="1" style="stop-color:#116EDB"/>
		</linearGradient>
		<polygon class="st15" points="141.7,534.4 160.3,592.7 163.2,645.4 139.2,645.4 132.8,594.6 103,544.3 120.9,534.4 		"/>
		<g>
			<path class="st1" d="M162.8,639.4h-15.6c-0.5,0-1-0.4-1.1-0.9l-5.8-45.9l-7.9-23.4c-0.2-0.6,0.1-1.2,0.7-1.3
				c0.6-0.2,1.2,0.1,1.3,0.7l7.9,23.5c0,0.1,0,0.1,0,0.2l5.7,45.1h14.7c0.6,0,1.1,0.5,1.1,1.1S163.4,639.4,162.8,639.4z"/>
		</g>
		<g>
			<path class="st13" d="M161.6,497.4c0.3-3.7-1.1-7.5-4.1-10.1l-21-18.1c-5-4.3-12.4-3.7-16.7,1.3c-4.3,5-4.8,13.2,0.2,17.5
				l22.1,17.3c5,4.3,12.4,3.7,16.7-1.3C160.5,502.1,161.4,499.7,161.6,497.4z"/>
		</g>
		<g>
			<linearGradient id="SVGID_8_" gradientUnits="userSpaceOnUse" x1="163.4195" y1="656.7855" x2="170.8727" y2="656.7855">
				<stop  offset="0" style="stop-color:#0BA1E1"/>
				<stop  offset="1" style="stop-color:#116EDB"/>
			</linearGradient>
			<path class="st16" d="M169.8,657.8h-5.3c-0.6,0-1.1-0.5-1.1-1.1s0.5-1.1,1.1-1.1h5.3c0.6,0,1.1,0.5,1.1,1.1
				S170.4,657.8,169.8,657.8z"/>
		</g>
		<path class="st17" d="M142.6,459.4c17.8,6.6,27.3,19.1,28.3,37.5l-22.7,9.8l-9.1-18L142.6,459.4z"/>
		<polygon class="st13" points="80.8,640.5 78,659.8 97.2,657.3 99.2,642.5 		"/>
		<g>
			<linearGradient id="SVGID_9_" gradientUnits="userSpaceOnUse" x1="73.5154" y1="588.0847" x2="123.6861" y2="588.0847">
				<stop  offset="0" style="stop-color:#0BA1E1"/>
				<stop  offset="1" style="stop-color:#116EDB"/>
			</linearGradient>
			<polygon class="st18" points="73.5,646 100.9,645.4 123.7,531.3 89.6,530.2 81.7,581.9 			"/>
		</g>
		<path class="st17" d="M86.2,538h56l11.7-56.6c0.8-4.1,0.5-8.3-1-12.2l0,0c-2-5.3-6.6-9.2-12.2-10.3l-8.8-1.7l-1.4,0l-0.4,0l-1,0
			l-4.6,0l-1.4,0l-3.3,0l-0.4,0l-20.1,5.4L86.2,538z"/>
		<g>
			<path class="st1" d="M117.4,557.9c-0.5,0-1-0.4-1.1-0.9c-0.1-0.6,0.4-1.1,0.9-1.2c2.7-0.3,4.6-2.7,4.3-5.4l-0.8-7.1
				c-0.1-0.6,0.4-1.1,0.9-1.2c0.6-0.1,1.1,0.4,1.2,0.9l0.8,7.1c0.2,1.9-0.3,3.7-1.5,5.2c-1.2,1.5-2.8,2.4-4.7,2.6
				C117.5,557.9,117.4,557.9,117.4,557.9z"/>
		</g>
		<g>
			<path class="st1" d="M93.3,639.4H74.6c-0.6,0-1.1-0.5-1.1-1.1s0.5-1.1,1.1-1.1h17.9l14.2-70.5c0.1-0.6,0.7-0.9,1.2-0.8
				c0.6,0.1,0.9,0.7,0.8,1.2l-14.4,71.3C94.3,639.1,93.8,639.4,93.3,639.4z"/>
		</g>
		<g>
			<path class="st1" d="M87.1,547.8C87.1,547.8,87,547.8,87.1,547.8c-0.6,0-1.1-0.5-1.1-1.1c0-0.6,0.5-1.1,1.1-1.1c0,0,0,0,0,0
				c8.3,0,9.6-4.1,9.6-4.3c0.2-0.6,0.7-0.9,1.3-0.7c0.6,0.1,0.9,0.7,0.8,1.3C98.7,542.2,97.1,547.8,87.1,547.8z"/>
		</g>
		<linearGradient id="SVGID_10_" gradientUnits="userSpaceOnUse" x1="64.4641" y1="660.4198" x2="99.9407" y2="660.4198">
			<stop  offset="0" style="stop-color:#0BA1E1"/>
			<stop  offset="1" style="stop-color:#116EDB"/>
		</linearGradient>
		<polygon class="st19" points="99.9,672.8 64.5,672.8 64.5,664.2 77.9,651.8 78.3,648.3 89.3,648 88.4,652.7 99.9,652.7 		"/>
		<g>
			<g>
				<linearGradient id="SVGID_11_" gradientUnits="userSpaceOnUse" x1="69.1667" y1="658.072" x2="78.4262" y2="658.072">
					<stop  offset="0" style="stop-color:#0BA1E1"/>
					<stop  offset="1" style="stop-color:#116EDB"/>
				</linearGradient>
				<path class="st20" d="M77.4,659.1h-7.1c-0.6,0-1.1-0.5-1.1-1.1s0.5-1.1,1.1-1.1h7.1c0.6,0,1.1,0.5,1.1,1.1S78,659.1,77.4,659.1z
					"/>
			</g>
		</g>
		<g>
			<linearGradient id="SVGID_12_" gradientUnits="userSpaceOnUse" x1="63.8887" y1="658.0719" x2="95.8651" y2="658.0719">
				<stop  offset="0" style="stop-color:#0BA1E1"/>
				<stop  offset="1" style="stop-color:#116EDB"/>
			</linearGradient>
			<path class="st21" d="M80.9,664.7h-16c-0.6,0-1.1-0.5-1.1-1.1c0-0.6,0.5-1.1,1.1-1.1h15.2l14-11c0.5-0.4,1.1-0.3,1.5,0.2
				c0.4,0.5,0.3,1.1-0.2,1.5L80.9,664.7z"/>
		</g>
		<path class="st13" d="M130.1,466.2l-11-9v-23.9H139l-5.1,31.5C133.6,466.6,131.5,467.4,130.1,466.2z"/>
		<path class="st13" d="M135.4,452.8L135.4,452.8c-9,0-16.3-7.3-16.3-16.3v-8.9l5.4-5.6h15.1l5.2,5.9l0.2,15.5
			C144.9,448.6,140.6,452.8,135.4,452.8z"/>
		<path class="st5" d="M145.6,433c0.1,0.1,0.3,0.2,0.5,0.2c0.7,0.2,1.6-0.2,2-0.9c0.9-1.5-0.3-3.5-1.7-4.2c1.7,0.9,4.4-3.2,4.5-4.6
			c0.3-4.3-6.8-3.9-8.8-6.5c-1.1-1.4-1.5-3.2-2.7-4.6c-0.9-1-2.3-1.6-3.5-1.3c-1.2,0.3-2,1.4-2.7,2.4c-0.6,1.1-1.2,2.2-2.2,2.9
			c-2.1,1.5-4.7,0.5-6.9,1.3c-2.3,0.8-4.9,2.6-6.6,4.3c-2.2,2.2-2.3,5-2.2,7.9c0,1.5,0.1,2.9-0.3,4.3c-0.4,1.8-1.2,3.2-0.3,5
			c1.1,2.3,4,3.6,6.4,4c0.7,0.1,6.2,0.8,6.3,0.1c0.3-3.5,0.1-7.4,4.4-8.1c1.3-0.2,3.3,0.1,4.1-1.2c1.3-2-2.3-5.9,2.3-6.1
			c3.1-0.2,5,2.5,7,4.4C145.2,432.7,145.4,432.9,145.6,433z"/>
		<path class="st13" d="M126.9,444.7L126.9,444.7c2.5-0.5,4.2-2.9,3.7-5.4l-0.4-1.9c-0.5-2.5-2.9-4.2-5.4-3.7l0,0
			c-2.5,0.5-4.2,2.9-3.7,5.4l0.4,1.9C121.9,443.5,124.4,445.1,126.9,444.7z"/>
		<g>
			<path class="st13" d="M119.7,520.1c2.8-2.5,4.3-6.2,3.9-10.2l-3.1-27.5c-0.7-6.5-6.6-11.2-13.1-10.5c-6.5,0.7-12.5,6.4-11.8,12.9
				l4.4,27.7c0.7,6.5,6.6,11.2,13.1,10.5C115.7,522.7,118,521.7,119.7,520.1z"/>
		</g>
		<g>
			<g class="st4">
				<g class="st4">
					<defs>
						<path id="SVGID_13_" class="st4" d="M146.2,473.1l10.6-1.9c1.6-0.3,3.4-0.5,5.1-0.5c4.8-0.2,8.5,0.7,11.2,2.8
							c2.7,2.1,4.1,5.1,4.3,9.1c0.2,3.5-0.4,6.5-1.9,9s-4.7,6.2-9.9,11c-4.3,3.9-7.3,7.7-9,11.3c-1.6,3.6-2.3,8-2,13.3l-10.6,1.9
							c-0.3-5.3,0.4-9.7,2-13.3c1.6-3.6,4.6-7.3,9-11.3c5.2-4.7,8.5-8.4,9.9-11c1.4-2.6,2-5.6,1.9-9c-0.2-4-1.7-7.1-4.3-9.1
							c-2.7-2.1-6.4-3-11.2-2.8C149.6,472.6,147.9,472.8,146.2,473.1z"/>
					</defs>
					<clipPath id="SVGID_14_">
						<use xlink:href="#SVGID_13_"  style="overflow:visible;"/>
					</clipPath>
					<g class="st22">
						<path class="st8" d="M154.8,527.2l-10.6,1.9c-0.3-5.3,0.4-9.7,2-13.3c0.7-1.5,1.6-3,2.7-4.5l10.6-1.9c-1.1,1.5-2,3-2.7,4.5
							C155.2,517.5,154.5,522,154.8,527.2L154.8,527.2z"/>
						<path class="st23" d="M159.5,509.5l-10.6,1.9c1.6-2.2,3.7-4.5,6.3-6.8c4.1-3.7,7-6.8,8.7-9.2l10.6-1.9
							c-1.8,2.4-4.7,5.5-8.7,9.2C163.2,505,161.1,507.3,159.5,509.5L159.5,509.5z"/>
						<path class="st8" d="M174.5,493.5l-10.6,1.9c0.5-0.6,0.9-1.2,1.2-1.8c1.4-2.6,2-5.6,1.9-9c-0.2-4-1.7-7.1-4.3-9.1
							c-2.7-2.1-6.4-3-11.2-2.8c-1.8,0.1-3.5,0.3-5.1,0.5l10.6-1.9c1.6-0.3,3.4-0.5,5.1-0.5c4.8-0.2,8.5,0.7,11.2,2.8
							c2.7,2.1,4.1,5.1,4.3,9.1c0.2,3.5-0.4,6.5-1.9,9C175.3,492.2,175,492.8,174.5,493.5L174.5,493.5z"/>
					</g>
				</g>
				<g>
					<polygon class="st8" points="155.1,531.9 144.4,533.7 144.2,529.1 154.8,527.2 					"/>
				</g>
				<g>
					<polygon class="st8" points="168.5,531.3 157.8,533.2 144.4,533.7 155.1,531.9 					"/>
				</g>
				<g>
					<polygon class="st8" points="139.6,478.3 128.9,480.2 122.5,467.7 133.1,465.9 					"/>
				</g>
				<g class="st4">
					<defs>
						<path id="SVGID_15_" class="st4" d="M144.1,459.1l10.6-1.9c-7.7,1.3-14.9,4.2-21.6,8.6l-10.6,1.9
							C129.2,463.3,136.4,460.5,144.1,459.1z"/>
					</defs>
					<use xlink:href="#SVGID_15_"  style="overflow:visible;fill:#FF5C5C;"/>
					<clipPath id="SVGID_16_">
						<use xlink:href="#SVGID_15_"  style="overflow:visible;"/>
					</clipPath>
					<g class="st24">
						<path class="st8" d="M133.1,465.9l-10.6,1.9c6.7-4.4,13.9-7.2,21.6-8.6l10.6-1.9C147.1,458.6,139.9,461.5,133.1,465.9
							L133.1,465.9z"/>
					</g>
				</g>
				<g>
					<path class="st8" d="M184,462.5c5.5,4.4,8.5,10.7,8.9,18.8c0.2,3.6-0.1,6.8-1,9.7c-0.8,2.9-2.2,5.6-4.1,8.2
						c-1.9,2.6-5.2,6.1-9.9,10.4c-4,3.7-6.7,6.7-8,9.1c-1.3,2.4-1.8,5.5-1.6,9.4l0.2,3.2l-13.4,0.6l-0.3-4.6
						c-0.3-5.3,0.4-9.7,2-13.3c1.6-3.6,4.6-7.3,9-11.3c5.2-4.7,8.5-8.4,9.9-11s2-5.6,1.9-9c-0.2-4-1.7-7.1-4.3-9.1
						c-2.7-2.1-6.4-3-11.2-2.8c-4.3,0.2-8.3,1-11.9,2.5c-3.6,1.5-7.1,3.2-10.5,5.1l-6.4-12.5c8.9-5.8,18.7-8.9,29.2-9.4
						C171.3,456.1,178.5,458.1,184,462.5z"/>
				</g>
				<g>
					<g>
						<path class="st1" d="M164.6,505.5c-0.5,0.4-1.2,0.3-1.6-0.1c-0.5-0.5-0.5-1.3,0-1.8c0.6-0.6,1.3-1.2,2-1.9
							c5-4.6,8.3-8.2,9.6-10.7c1.3-2.3,1.9-5.2,1.7-8.4c-0.2-3.7-1.5-6.4-3.9-8.2c-2.4-1.9-5.9-2.7-10.4-2.5c-4.2,0.2-8,1-11.5,2.4
							c-3.6,1.4-7,3.1-10.4,5.1c-0.3,0.2-0.6,0.2-1,0.1c-0.3-0.1-0.6-0.3-0.8-0.6l-6.4-12.5c-0.3-0.6-0.1-1.4,0.5-1.7
							c0.6-0.3,1.4-0.1,1.7,0.5l5.8,11.3c3.1-1.7,6.3-3.3,9.5-4.6c3.7-1.5,7.9-2.4,12.3-2.5c5.1-0.2,9.1,0.8,12,3
							c3,2.3,4.6,5.7,4.8,10.1c0.2,3.7-0.5,7-2,9.7c-1.5,2.7-4.8,6.4-10.1,11.3c-0.7,0.6-1.3,1.2-1.9,1.8
							C164.7,505.4,164.6,505.5,164.6,505.5z"/>
					</g>
				</g>
			</g>
			<g class="st4">
				<g class="st4">
					<defs>
						<path id="SVGID_17_" class="st4" d="M166,565.5l-10.6,1.9c-0.6,0.1-1.2,0.2-1.8,0.2c-3.2,0.1-5.8-0.7-7.6-2.6
							c-1.8-1.9-2.9-4.6-3.1-8.1c-0.4-6.5,2.1-10.2,7.4-11.1l10.6-1.9c-5.3,0.9-7.8,4.6-7.4,11.1c0.2,3.5,1.2,6.2,3.1,8.1
							c1.8,1.9,4.4,2.7,7.6,2.6C164.8,565.6,165.4,565.6,166,565.5z"/>
					</defs>
					<use xlink:href="#SVGID_17_"  style="overflow:visible;fill:#FF5C5C;"/>
					<clipPath id="SVGID_18_">
						<use xlink:href="#SVGID_17_"  style="overflow:visible;"/>
					</clipPath>
					<g class="st25">
						<path class="st8" d="M155.3,547.1l-10.6,1.9c0.5-0.7,1.1-1.2,1.8-1.7l10.6-1.9C156.4,545.8,155.8,546.4,155.3,547.1
							L155.3,547.1z"/>
						<g>
							<path class="st8" d="M155.3,547.1l-10.6,1.9c-1.4,1.9-2,4.5-1.8,7.9c0.2,3.5,1.2,6.2,3.1,8.1c1.8,1.9,4.4,2.7,7.6,2.6
								c0.6,0,1.2-0.1,1.8-0.2l10.6-1.9c-0.6,0.1-1.2,0.2-1.8,0.2c-3.2,0.1-5.8-0.7-7.6-2.6c-1.8-1.9-2.9-4.6-3.1-8.1
								C153.4,551.6,154,548.9,155.3,547.1z"/>
							<path class="st8" d="M150.3,545.7c-1.5,0.3-2.8,0.8-3.9,1.5l10.6-1.9c1.1-0.7,2.3-1.2,3.9-1.5L150.3,545.7z"/>
						</g>
					</g>
				</g>
				<g>
					<path class="st8" d="M163,543.7c3.3-0.1,5.8,0.7,7.7,2.5c1.8,1.8,2.8,4.5,3,7.9c0.2,3.4-0.5,6.2-2.2,8.2
						c-1.6,2.1-4.1,3.2-7.3,3.3c-3.2,0.1-5.8-0.7-7.6-2.6c-1.8-1.9-2.9-4.6-3.1-8.1C153.2,547.7,156.3,544,163,543.7z"/>
				</g>
				<g>
					<g>
						<path class="st1" d="M165,566.7c-0.2,0.1-0.4,0.2-0.7,0.2c-3.6,0.2-6.5-0.9-8.5-3c-2-2.1-3.2-5.1-3.4-8.9
							c-0.3-6,1.6-9.9,5.8-11.7c0.6-0.3,1.4,0,1.6,0.7c0.3,0.6,0,1.4-0.7,1.6c-3.2,1.3-4.6,4.3-4.3,9.2c0.2,3.2,1.1,5.6,2.7,7.3
							c1.6,1.6,3.8,2.4,6.7,2.2c0.7,0,1.3,0.5,1.3,1.2C165.5,566,165.3,566.4,165,566.7z"/>
					</g>
				</g>
			</g>
		</g>
		<g>
			<polygon class="st13" points="111.5,523.2 159,519.7 159,504 113.5,498.5 			"/>
		</g>
		<path class="st17" d="M119.2,469.3c-5.9-6.3-18.4-11.4-24.6-2.8c-3.9,5.5-3.2,12.5-2.8,19c0.1,1.9,2.3,17.1,2.3,17.1l24.4-3.4
			l6.8-0.9c0.1-3.3,0.2-6.5,0.2-9.8C125.4,481.5,124,474.5,119.2,469.3z"/>
		<g>
			<path class="st1" d="M122.9,499.6c-0.5,0-1-0.4-1-0.9c-0.1-0.6,0.3-1.1,0.9-1.2l1.5-0.2c0.1-2.8,0.2-5.8,0.1-8.9
				c0-0.6,0.5-1.1,1.1-1.1c0,0,0,0,0,0c0.6,0,1.1,0.5,1.1,1.1c0,3.4,0,6.7-0.2,9.9c0,0.5-0.4,0.9-0.9,1l-2.4,0.3
				C123,499.6,122.9,499.6,122.9,499.6z"/>
		</g>
		
			<ellipse transform="matrix(0.9753 -0.2209 0.2209 0.9753 -107.5236 48.3334)" class="st13" cx="162.3" cy="504.8" rx="6.1" ry="6.1"/>
		<g>
			<path class="st13" d="M159.3,506c-0.6,0-1.1-0.2-1.6-0.5c-1.2-0.9-1.4-2.6-0.5-3.8l3.8-5.1c0.4-0.5,1-0.9,1.7-1l5.8-1.1
				c1.5-0.3,2.9,0.7,3.2,2.2c0.3,1.5-0.7,2.9-2.2,3.2l-4.8,0.9l-3.2,4.3C160.9,505.6,160.1,506,159.3,506z"/>
		</g>
		<path class="st13" d="M160.7,502.6l18,0.9c2.2,0.1,3.9,1.9,4,4l0.3,8.8c0.1,2.9-2.3,5.2-5.2,5l-20.8-1.8l-1.5-16.1L160.7,502.6z"
			/>
	</g>
	<g>
		<path class="st1" d="M418.9,28.2c8.4,1,16,4.1,22.8,9.1c1.4,1.1,2.8-1.3,1.4-2.3c-7.1-5.3-15.3-8.5-24.1-9.5
			C417.3,25.3,417.2,28,418.9,28.2L418.9,28.2z"/>
	</g>
	<g>
		<path class="st1" d="M354.9,56c-0.7-2.3-1.1-4.6-1.2-7.1c0-1.7-2.8-1.8-2.7,0c0.1,2.7,0.5,5.2,1.3,7.8
			C352.8,58.4,355.4,57.7,354.9,56L354.9,56z"/>
	</g>
	<g>
		<path class="st1" d="M388.4,178.7c-4,2.2-6.2,6.1-6,10.7c0.1,1.7,2.8,1.6,2.7-0.1c-0.2-3.7,1.5-6.6,4.7-8.3
			C391.4,180.2,389.9,177.9,388.4,178.7L388.4,178.7z"/>
	</g>
	<g>
		<polygon class="st5" points="578.6,647.1 563.9,656.5 550.1,664 550.1,672.2 574.1,672.2 576.9,662.2 579.8,662.2 581,672.2 
			585.8,672.2 588,647.1 		"/>
		<g>
			<path class="st1" d="M567,665h-15.6c-0.5,0-1-0.4-1-1s0.4-1,1-1h15.2l9.3-7.1c0.4-0.3,1-0.2,1.4,0.2c0.3,0.4,0.2,1-0.2,1.4
				l-9.6,7.3C567.4,664.9,567.2,665,567,665z"/>
		</g>
		<polygon class="st5" points="643.3,647.1 654.2,656.8 663.5,664 663.5,672.2 643,672.2 640.7,662.2 640,662.2 638.8,672.2 
			636.1,672.2 634,647.1 		"/>
		<g>
			<path class="st1" d="M663,665h-13.6c-0.3,0-0.6-0.1-0.7-0.3l-8.1-9.6c-0.3-0.4-0.3-1,0.1-1.4c0.4-0.3,1-0.3,1.4,0.1l7.8,9.2H663
				c0.5,0,1,0.4,1,1C663.9,664.5,663.5,665,663,665z"/>
		</g>
		<polygon class="st13" points="604.2,526.3 599.2,550.8 584.6,567.5 603.1,567.5 615.4,559.4 623.5,535.8 		"/>
		<linearGradient id="SVGID_19_" gradientUnits="userSpaceOnUse" x1="613.3635" y1="583.4666" x2="662.5875" y2="583.4666">
			<stop  offset="0" style="stop-color:#0BA1E1"/>
			<stop  offset="1" style="stop-color:#116EDB"/>
		</linearGradient>
		<path class="st26" d="M613.4,572.7l3.5-8l41-1.2l1.5,3.2c4,8.7,4.3,18.8,1,27.8l0,0c-1.5,4.1-4.9,7.1-9.1,8.1l0,0
			c-2.3,0.5-4.6,0.8-6.9,0.8h-30.9V572.7z"/>
		<g>
			<linearGradient id="SVGID_20_" gradientUnits="userSpaceOnUse" x1="597.9911" y1="585.4699" x2="651.3776" y2="585.4699">
				<stop  offset="0" style="stop-color:#0BA1E1"/>
				<stop  offset="1" style="stop-color:#116EDB"/>
			</linearGradient>
			<rect x="598" y="570.4" class="st27" width="53.4" height="30.2"/>
		</g>
		<g>
			<linearGradient id="SVGID_21_" gradientUnits="userSpaceOnUse" x1="568.001" y1="619.8682" x2="626.0157" y2="619.8682">
				<stop  offset="0" style="stop-color:#0BA1E1"/>
				<stop  offset="1" style="stop-color:#116EDB"/>
			</linearGradient>
			<polygon class="st28" points="568,651 592.7,651 597.7,643.7 601.4,638.4 603.8,634.9 607.4,629.6 626,602.6 599.5,588.7 
				578.8,629.6 576.2,634.9 574.4,638.4 571.7,643.7 			"/>
		</g>
		<g>
			<linearGradient id="SVGID_22_" gradientUnits="userSpaceOnUse" x1="604.153" y1="625.1776" x2="652.1821" y2="625.1776">
				<stop  offset="0" style="stop-color:#0BA1E1"/>
				<stop  offset="1" style="stop-color:#116EDB"/>
			</linearGradient>
			<polygon class="st29" points="604.2,618.2 612.7,629.6 616.6,634.9 619.2,638.4 623.2,643.7 628.7,651 652.2,651 648.7,643.7 
				646.2,638.4 644.5,634.9 642,629.6 627.7,599.3 			"/>
		</g>
		<g>
			<linearGradient id="SVGID_23_" gradientUnits="userSpaceOnUse" x1="583.1656" y1="597.1078" x2="631.0298" y2="597.1078">
				<stop  offset="0" style="stop-color:#0BA1E1"/>
				<stop  offset="1" style="stop-color:#116EDB"/>
			</linearGradient>
			<path class="st30" d="M615.9,623.9c-4.6,0-9.1-2.1-12.1-6l-17.6-23.3c-5-6.7-3.7-16.1,2.9-21.2c6.7-5,16.1-3.7,21.2,2.9
				l17.6,23.3c5,6.7,3.7,16.1-2.9,21.2C622.3,622.9,619.1,623.9,615.9,623.9z"/>
		</g>
		<path class="st12" d="M616.1,456.2c0.1,0,0.2,0,0.3,0.1L616.1,456.2z"/>
		<path class="st5" d="M660.7,509.7c-9.8,1.6-20.1,4-30.2,4.3c-2.3,0.1-4.6,0-6.9-0.2c-2.6-0.2-5.3-0.7-7.6-2
			c-1-0.6-1.9-1.3-2.6-2.2c-4.1-4.9-3.6-13-0.7-18.4c3.7-6.8,10.5-11.3,12.6-19.1c0.9-3.6-0.5-12.1,2.8-15.4
			c0.2-0.2-0.4-0.3-0.7-0.4l26.2,9.4c0,0-2.7,16.2,14.2,19.7C684.4,488.8,690.9,504.9,660.7,509.7z"/>
		<path class="st13" d="M632.1,484h-3.6c-3.7,0-6.6-3-6.6-6.6v-18.7h21.6v13.9C643.4,478.9,638.3,484,632.1,484z"/>
		<polygon class="st13" points="646.2,454.5 644.7,505.3 629.5,505.3 630,500.2 630,500.2 631.3,487.4 634.7,454.5 		"/>
		<linearGradient id="SVGID_24_" gradientUnits="userSpaceOnUse" x1="609.0471" y1="527.7579" x2="668.9827" y2="527.7579">
			<stop  offset="0" style="stop-color:#0BA1E1"/>
			<stop  offset="1" style="stop-color:#116EDB"/>
		</linearGradient>
		<path class="st31" d="M609.4,521c0,0.2,0.1,0.4,0.1,0.5l2.6,8.7l1.6,5.2l4.6,15.4l0.3,1.1l-2.3,12.8l40.8-1.2l1.2-14.6l0.4-1.6
			l3.6-15l6.7-28.5l-1.1-0.7l-10.2-6.1l-1-0.6l-4.9-2.9l-1-0.6l-3.8-2.3l-17,8.1l0.8-6.8l-6.1,5l-0.4,0.3l-0.6,0.5l-0.5,0.5
			l-2.6,2.1L620,501l-0.3,0.3l-0.7,0.5l-4.1,3.4c-0.4,0.3-0.8,0.7-1.1,1c-0.3,0.3-0.5,0.5-0.8,0.8C609.8,510.8,608.3,516,609.4,521z
			"/>
		<polygon class="st1" points="631.3,487.4 630,500.2 628,490.7 		"/>
		<path class="st13" d="M599.2,563.8l12.4,9.1l38.9-5c5.1-0.7,9.4-4.3,11.1-9.3l7.3-21.7l-23.2,1.3l-1.9,7.8L599.2,563.8z"/>
		<path class="st5" d="M631.1,464.8c3.3-0.4,6.4-1.5,7.4-4.2c0,0-1.1,7.9,5.6,10.8c2.1,0.9,5.2,1.4,7.1-0.1
			c3.1-2.4,2.3-7.2,1.5-10.5c-3.6-14.9-20.3-17.6-32-11.3c-4.3,2.3-7,7-3,11C621,464,626.5,465.3,631.1,464.8z"/>
		<path class="st13" d="M646.1,474.4L646.1,474.4c-2.3,0-4.1-1.9-4.1-4.2v-1.5c0-2.3,1.8-4.2,4.1-4.2l0,0c2.3,0,4.1,1.9,4.1,4.2v1.5
			C650.2,472.5,648.3,474.4,646.1,474.4z"/>
		<polygon class="st1" points="630,498.2 645.2,487 648.2,494.1 630,501.2 		"/>
		<linearGradient id="SVGID_25_" gradientUnits="userSpaceOnUse" x1="642.5605" y1="520.6175" x2="676.7112" y2="520.6175">
			<stop  offset="0" style="stop-color:#0BA1E1"/>
			<stop  offset="1" style="stop-color:#116EDB"/>
		</linearGradient>
		<path class="st32" d="M642.6,539.8l27.4-0.1l6.2-19.8c1.8-5.9-0.6-12.4-5.9-15.4l-5.2-2.9l-15.2,16.6L642.6,539.8z"/>
		<g>
			<path class="st5" d="M629.6,604.4c-0.4,0-0.7-0.2-0.9-0.5l-7.7-15.7c-0.2-0.5,0-1.1,0.4-1.3c0.5-0.2,1.1,0,1.3,0.4l7.7,15.7
				c0.2,0.5,0,1.1-0.4,1.3C629.9,604.3,629.7,604.4,629.6,604.4z"/>
		</g>
		<g>
			<path class="st1" d="M610,626.9c-0.3,0-0.6-0.1-0.8-0.4l-17.4-23.7c-0.3-0.4-0.2-1,0.2-1.4c0.4-0.3,1-0.2,1.4,0.2l17.4,23.7
				c0.3,0.4,0.2,1-0.2,1.4C610.4,626.9,610.2,626.9,610,626.9z"/>
		</g>
		<g>
			<path class="st1" d="M645.2,540.7h-3.9l3.5-10.9c0.2-0.5,0.7-0.8,1.2-0.6c0.5,0.2,0.8,0.7,0.6,1.2l-2.7,8.4h1.2c0.5,0,1,0.4,1,1
				C646.2,540.3,645.8,540.7,645.2,540.7z"/>
		</g>
		<g>
			<path class="st12" d="M587,565.3c-0.5,0-1-0.4-1-1c0-0.5,0.4-1,1-1l9.4-0.2l19.5-7.2c0.5-0.2,1.1,0.1,1.2,0.6
				c0.2,0.5-0.1,1.1-0.6,1.2l-19.8,7.3L587,565.3C587,565.3,587,565.3,587,565.3z"/>
		</g>
		<g>
			<g>
				<polygon class="st1" points="643.1,574.3 626.9,524.8 562.4,524.8 578.7,574.3 				"/>
				<path class="st5" d="M643.1,575.3h-64.5c-0.4,0-0.8-0.3-1-0.7l-16.3-49.5c-0.1-0.3,0-0.6,0.1-0.9c0.2-0.3,0.5-0.4,0.8-0.4h64.5
					c0.4,0,0.8,0.3,1,0.7l16.3,49.5c0.1,0.3,0,0.6-0.1,0.9C643.7,575.2,643.4,575.3,643.1,575.3z M579.4,573.3h62.4l-15.6-47.5
					h-62.4L579.4,573.3z"/>
			</g>
			<g>
				<path class="st1" d="M595.1,552.6c2,3.9,6.2,6.8,10.2,6.8c4.7,0,7.4-4,6.1-9c-1.4-5-6.3-9-11.1-9c-1.6,0-3,0.5-4.1,1.3
					L595.1,552.6z"/>
				<path class="st5" d="M605.3,560.4c-4.3,0-8.8-3-11.1-7.3c-0.3-0.5-0.1-1.1,0.4-1.3c0.5-0.3,1.1-0.1,1.3,0.4
					c1.9,3.7,5.7,6.2,9.3,6.2c1.8,0,3.4-0.7,4.3-2c1.1-1.4,1.4-3.5,0.8-5.7c-1.3-4.5-5.8-8.2-10.1-8.2c-1.3,0-2.5,0.4-3.4,1.1
					c-0.4,0.3-1.1,0.3-1.4-0.2c-0.3-0.4-0.3-1.1,0.2-1.4c1.3-1,2.9-1.5,4.7-1.5c5.1,0,10.5,4.4,12,9.7c0.8,2.8,0.4,5.5-1.1,7.5
					C609.8,559.4,607.7,560.4,605.3,560.4z"/>
			</g>
			<g>
				<path class="st1" d="M600.3,541.5l-1.4-4.2L600.3,541.5z"/>
				<path class="st5" d="M600.3,542.5c-0.4,0-0.8-0.3-0.9-0.7l-1.4-4.2c-0.2-0.5,0.1-1.1,0.6-1.3c0.5-0.2,1.1,0.1,1.3,0.6l1.4,4.2
					c0.2,0.5-0.1,1.1-0.6,1.3C600.5,542.4,600.4,542.5,600.3,542.5z"/>
			</g>
		</g>
		<path class="st13" d="M563.8,554.6c-1.2-2.9-1.6-12.1,3-12.8c2.6-0.4,2.9,5.5,2.6,7.2c0,0.1,0,0.2,0.1,0.2l3.9-1.3
			c3,0.3,5.8,1.5,7.9,3.6c2.1,2.1,3.3,4.3,3.3,6.7c0.1,3.7-7.4,3.5-9.8,3.3c-3.2-0.4-6.6-1.6-9-3.9
			C564.8,556.6,564.2,555.7,563.8,554.6z"/>
	</g>
	<g>
		<path class="st8" d="M689.6,412.6c-1.4-5.3,5.7-7.4,9.7-6.7c5.4,0.8,10,6.3,8.3,11.8c-1.6,5.5-8.1,6.7-12.7,8.6
			c-5,2-8.2,5.7-7.2,11.2c0.7,3.6,6.3,2.1,5.6-1.5c-0.6-3.3,3.5-4.3,5.8-5.1c3.1-1.1,6.3-2.3,9-4.4c5.9-4.6,7.3-12.8,3.2-19.1
			c-3.8-5.9-11-8.5-17.7-7c-6.4,1.5-11.4,6.9-9.6,13.7C684.9,417.7,690.5,416.2,689.6,412.6L689.6,412.6z"/>
	</g>
	<path class="st8" d="M687.8,449.4c0,0.6,0.2,1.3,0.4,1.9c0.5,1.1,1.2,2.2,2.3,2.7c4.7,2.4,6.5-5.5,3.4-8.1c-1.1-0.9-2.5-1-3.7-0.5
		C688.6,446.3,687.7,447.8,687.8,449.4z"/>
	<g>
		<path class="st8" d="M562.4,456.4c-4.8-2.1-3.3-7.9-0.4-11.1c3.3-3.8,9.2-5,13.4-2c10.4,7.5-7.9,23,4.8,29.6
			c3.3,1.7,6.2-3.3,2.9-5c-3.3-1.7-1.7-5.3-0.7-8.1c1.3-3.9,2.5-7.7,1.9-11.8c-1-7-6.8-11.8-13.7-12.2c-6.6-0.4-12.8,3.7-15.6,9.7
			c-2.6,5.7-1.9,13.1,4.5,15.8C562.8,462.8,565.8,457.8,562.4,456.4L562.4,456.4z"/>
	</g>
	<path class="st8" d="M576.6,486.2c0.5,0.4,1.1,0.7,1.7,0.8c1.2,0.3,2.5,0.4,3.6-0.2c4.8-2.2-0.3-8.5-4.2-7.7
		c-1.4,0.3-2.4,1.4-2.7,2.6C574.5,483.7,575.2,485.2,576.6,486.2z"/>
	<g>
		<path class="st8" d="M605.6,428.2c-0.5,0-0.9-0.1-1.3-0.4l-15.2-9.5c-1.2-0.7-1.5-2.3-0.8-3.4c0.7-1.2,2.3-1.5,3.4-0.8l15.2,9.5
			c1.2,0.7,1.5,2.3,0.8,3.4C607.2,427.8,606.4,428.2,605.6,428.2z"/>
	</g>
	<g>
		<path class="st8" d="M644.1,422.8c-0.2,0-0.3,0-0.5-0.1c-1.3-0.3-2.2-1.6-1.9-2.9l5.3-24.6c0.3-1.3,1.6-2.2,2.9-1.9
			c1.3,0.3,2.2,1.6,1.9,2.9l-5.3,24.6C646.3,422,645.3,422.8,644.1,422.8z"/>
	</g>
</g>
</svg>
