<svg xmlns="http://www.w3.org/2000/svg" viewBox="0 0 828.28 1198"><defs><style>.cls-1{isolation:isolate;}.cls-2{fill:#e3b400;}.cls-3{fill:#ffef4a;}.cls-4{fill:#fd0;}.cls-5{fill:#fdc800;}.cls-6{fill:#f5a20a;}.cls-10,.cls-11,.cls-12,.cls-13,.cls-16,.cls-20,.cls-7{fill:none;stroke-miterlimit:10;}.cls-10,.cls-11,.cls-12,.cls-13,.cls-20,.cls-7{stroke:#f39411;}.cls-7{stroke-width:4.65px;}.cls-19,.cls-8{mix-blend-mode:soft-light;}.cls-9{fill:#fff;}.cls-10{stroke-width:3.74px;}.cls-11{stroke-width:3.5px;}.cls-12{stroke-width:2.69px;}.cls-13{stroke-width:3.81px;}.cls-14{fill:#10273b;}.cls-15{fill:#0080ff;}.cls-16{stroke:#10273b;stroke-dasharray:3.78;}.cls-17{fill:#e0920b;}.cls-18{fill:#efd8d5;mix-blend-mode:multiply;}.cls-19{fill:#fff8c3;}.cls-20{stroke-width:3.14px;}</style></defs><title>Zasób 31</title><g class="cls-1"><g id="Warstwa_2" data-name="Warstwa 2"><g id="DESIGNED_BY_FREEPIK" data-name="DESIGNED BY FREEPIK"><circle class="cls-2" cx="444.97" cy="648.4" r="139.52" transform="translate(-212.95 1079.19) rotate(-88.76)"/><path class="cls-3" d="M573.24,648.4A139.52,139.52,0,1,1,433.73,508.88,139.52,139.52,0,0,1,573.24,648.4Z"/><circle class="cls-4" cx="424.35" cy="648.4" r="139.52" transform="translate(-233.12 1058.57) rotate(-88.76)"/><path class="cls-5" d="M543.26,648.4A118.91,118.91,0,1,1,424.35,529.5,118.91,118.91,0,0,1,543.26,648.4Z"/><path class="cls-6" d="M436.72,754.93a118.87,118.87,0,0,1-90-196.54A118.87,118.87,0,1,0,514.36,726,118.37,118.37,0,0,1,436.72,754.93Z"/><polyline class="cls-7" points="366.54 583.1 426.5 641.35 426.5 735.22"/><line class="cls-7" x1="426.5" y1="642.21" x2="484.75" y2="582.24"/><line class="cls-7" x1="380.25" y1="655.05" x2="477.33" y2="655.05"/><line class="cls-7" x1="380.25" y1="691.61" x2="477.33" y2="691.61"/><g class="cls-8"><path class="cls-9" d="M530.18,557.47,306,722.26A138.17,138.17,0,0,1,288.91,682L496.79,529.17A139.27,139.27,0,0,1,530.18,557.47Z"/><path class="cls-9" d="M551.2,590.3,331,752.12a139.14,139.14,0,0,1-14.79-15.53l224.54-165A129.92,129.92,0,0,1,551.2,590.3Z"/><path class="cls-9" d="M561.81,624.55l-201.27,148-11-6.36,209.61-154C560.21,616.2,561.11,620.33,561.81,624.55Z"/></g><path class="cls-2" d="M764.79,677.54a112,112,0,1,1-112-112A112,112,0,0,1,764.79,677.54Z"/><path class="cls-3" d="M755.76,677.54a112,112,0,1,1-112-112A112,112,0,0,1,755.76,677.54Z"/><path class="cls-4" d="M748.24,677.54a112,112,0,1,1-112-112A112,112,0,0,1,748.24,677.54Z"/><path class="cls-5" d="M731.69,677.54a95.46,95.46,0,1,1-95.46-95.46A95.45,95.45,0,0,1,731.69,677.54Z"/><path class="cls-6" d="M646.16,763.06A95.43,95.43,0,0,1,573.9,605.28,95.43,95.43,0,1,0,708.49,739.87,95,95,0,0,1,646.16,763.06Z"/><path class="cls-10" d="M677,631.3s-50.83-24.68-62.64,3.84c-13.61,32.85,59.81,35.72,62.53,68,2.79,32.91-52.8,31.27-74.34,9.87"/><line class="cls-10" x1="639.79" y1="621.4" x2="639.79" y2="600.03"/><line class="cls-10" x1="639.79" y1="749.95" x2="639.79" y2="728.58"/><g class="cls-8"><path class="cls-9" d="M721.19,604.54l-180,132.29a110.82,110.82,0,0,1-13.7-32.33L694.39,581.82A111.46,111.46,0,0,1,721.19,604.54Z"/><path class="cls-9" d="M738.06,630.89,561.32,760.8a112.83,112.83,0,0,1-11.88-12.46L729.71,615.86A104.23,104.23,0,0,1,738.06,630.89Z"/><path class="cls-9" d="M746.58,658.39,585,777.17l-8.87-5.1L744.42,648.4C745.3,651.69,746,655,746.58,658.39Z"/></g><path class="cls-2" d="M607.91,429.07A104.93,104.93,0,1,1,503,324.14,104.92,104.92,0,0,1,607.91,429.07Z"/><path class="cls-3" d="M599.45,429.07A104.93,104.93,0,1,1,494.52,324.14,104.92,104.92,0,0,1,599.45,429.07Z"/><path class="cls-4" d="M592.4,429.07A104.93,104.93,0,1,1,487.47,324.14,104.92,104.92,0,0,1,592.4,429.07Z"/><path class="cls-5" d="M576.9,429.07a89.43,89.43,0,1,1-89.43-89.42A89.43,89.43,0,0,1,576.9,429.07Z"/><path class="cls-6" d="M496.78,509.18a89.39,89.39,0,0,1-67.69-147.81A89.4,89.4,0,1,0,555.17,487.45,89,89,0,0,1,496.78,509.18Z"/><line class="cls-11" x1="456.4" y1="479.97" x2="527.64" y2="479.97"/><line class="cls-11" x1="456.4" y1="425.65" x2="519.63" y2="425.65"/><path class="cls-11" d="M471.54,480V400.71c0-63.22,56.1-33.83,56.1-23.15v24.05"/><g class="cls-8"><path class="cls-9" d="M567.06,360.68,398.45,484.61a103.84,103.84,0,0,1-12.83-30.29L542,339.4A104.63,104.63,0,0,1,567.06,360.68Z"/><path class="cls-9" d="M582.87,385.37,417.31,507.07a104.31,104.31,0,0,1-11.14-11.69L575,371.29A97.51,97.51,0,0,1,582.87,385.37Z"/><path class="cls-9" d="M590.85,411.13,439.49,522.39l-8.3-4.77L588.82,401.77C589.65,404.85,590.32,408,590.85,411.13Z"/></g><path class="cls-2" d="M586.07,80.53A80.53,80.53,0,1,1,505.54,0,80.53,80.53,0,0,1,586.07,80.53Z"/><path class="cls-3" d="M579.58,80.53A80.53,80.53,0,1,1,499.05,0,80.53,80.53,0,0,1,579.58,80.53Z"/><path class="cls-4" d="M574.17,80.53A80.53,80.53,0,1,1,493.64,0,80.53,80.53,0,0,1,574.17,80.53Z"/><path class="cls-5" d="M562.27,80.53A68.63,68.63,0,1,1,493.64,11.9,68.63,68.63,0,0,1,562.27,80.53Z"/><path class="cls-6" d="M500.78,142A68.6,68.6,0,0,1,448.83,28.58a68.61,68.61,0,1,0,96.77,96.76A68.38,68.38,0,0,1,500.78,142Z"/><path class="cls-12" d="M469.79,119.59H511.7c20.37,0,22.61-41.69,0-41.69H469.79"/><path class="cls-12" d="M481.41,119.59V43h24.13c21.73,0,23.35,35-3.86,35"/><line class="cls-12" x1="481.41" y1="43.03" x2="481.41" y2="30.55"/><line class="cls-12" x1="495.19" y1="43.03" x2="495.19" y2="30.55"/><line class="cls-12" x1="481.41" y1="132.07" x2="481.41" y2="119.59"/><line class="cls-12" x1="495.19" y1="132.07" x2="495.19" y2="119.59"/><g class="cls-8"><path class="cls-9" d="M554.72,28,425.31,123.15a79.75,79.75,0,0,1-9.84-23.24l120-88.2A80.5,80.5,0,0,1,554.72,28Z"/><path class="cls-9" d="M566.85,47l-127.06,93.4a80.53,80.53,0,0,1-8.55-9l129.6-95.23A74.28,74.28,0,0,1,566.85,47Z"/><path class="cls-9" d="M573,66.76,456.81,152.15l-6.37-3.66,121-88.91C572.05,61.94,572.57,64.32,573,66.76Z"/></g><path class="cls-2" d="M766.5,371.29A114.33,114.33,0,1,1,652.17,257,114.33,114.33,0,0,1,766.5,371.29Z"/><path class="cls-3" d="M757.28,371.29A114.33,114.33,0,1,1,643,257,114.33,114.33,0,0,1,757.28,371.29Z"/><path class="cls-4" d="M749.6,371.29A114.33,114.33,0,1,1,635.27,257,114.33,114.33,0,0,1,749.6,371.29Z"/><path class="cls-5" d="M732.71,371.29a97.44,97.44,0,1,1-97.44-97.44A97.43,97.43,0,0,1,732.71,371.29Z"/><path class="cls-6" d="M645.41,458.58a97.4,97.4,0,0,1-73.76-161A97.41,97.41,0,1,0,709,434.91,97,97,0,0,1,645.41,458.58Z"/><line class="cls-13" x1="594.34" y1="379.19" x2="658.01" y2="379.19"/><line class="cls-13" x1="594.34" y1="355.65" x2="658.01" y2="355.65"/><path class="cls-13" d="M663.72,402.73V419.5c0,6.1-54.14,6.1-54.14-55.1,0-63.67,54.14-59.19,54.14-48.43v8.74"/><g class="cls-8"><path class="cls-9" d="M722,296.78l-183.72,135a113,113,0,0,1-14-33L694.63,273.59A114,114,0,0,1,722,296.78Z"/><path class="cls-9" d="M739.22,323.67,558.81,456.28a114.81,114.81,0,0,1-12.12-12.73l184-135.22A106.71,106.71,0,0,1,739.22,323.67Z"/><path class="cls-9" d="M747.91,351.74,583,473l-9-5.2L745.7,341.55C746.6,344.9,747.33,348.28,747.91,351.74Z"/></g><path class="cls-14" d="M787.86,1087.26a46,46,0,0,1-46,46H238.17a46,46,0,0,1-46-46V734.43a46,46,0,0,1,46-46H741.84a46,46,0,0,1,46,46Z"/><path class="cls-15" d="M787.86,1117.94a46,46,0,0,1-46,46H238.17a46,46,0,0,1-46-46V765.11a46,46,0,0,1,46-46H741.84a46,46,0,0,1,46,46Z"/><rect class="cls-16" x="226.26" y="744.57" width="527.49" height="393.92" rx="40.75"/><path class="cls-14" d="M821.09,975.18s-16.22,29.62-36.24,29.62H615.73a36.26,36.26,0,0,1-36.24-36.29V890.89c0-20,14.07-36.29,14.07-36.29H784.85a36.26,36.26,0,0,1,36.24,36.29Z"/><path class="cls-15" d="M828.28,953.49A36.26,36.26,0,0,1,792,989.78H622.92a36.26,36.26,0,0,1-36.24-36.29V875.87a36.26,36.26,0,0,1,36.24-36.29H792a36.26,36.26,0,0,1,36.24,36.29Z"/><path class="cls-14" d="M688.78,914.68a45.06,45.06,0,1,1-45.06-45.06A45.06,45.06,0,0,1,688.78,914.68Z"/><path class="cls-14" d="M662.07,873.55a45,45,0,0,1-53.48,69.32,45,45,0,1,0,53.48-69.32Z"/><path class="cls-2" d="M159.53,1198c-77,0-139.52-22.41-139.52-50v-35.62l279.05-2.9V1148C299.06,1175.59,236.59,1198,159.53,1198Z"/><path class="cls-17" d="M157.63,1165v33c-1.4,0-2.8,0-4.16,0v-33Z"/><path class="cls-17" d="M174.59,1165v32.76c-1.37.07-2.76.1-4.16.13V1165Z"/><path class="cls-17" d="M143,1162.92v34.72c-1.4,0-2.77-.1-4.16-.16v-34.56Z"/><path class="cls-17" d="M127.26,1159.1v37.54c-1.39-.1-2.79-.23-4.15-.36V1159.1Z"/><path class="cls-17" d="M95.27,1154.28v38.07c-1.39-.23-2.76-.5-4.12-.79v-37.28Z"/><path class="cls-17" d="M79.51,1150.05v38.88c-1.4-.33-2.8-.7-4.16-1.06v-37.82Z"/><path class="cls-17" d="M64.94,1147.39v37.35c-1.43-.47-2.82-.93-4.15-1.43v-35.92Z"/><polygon class="cls-17" points="44.79 1176.46 44.79 1140.71 40.63 1140.71 40.63 1174.13 44.79 1176.46"/><polygon class="cls-17" points="30.43 1166.98 30.43 1131.4 26.3 1131.4 26.3 1162.89 30.43 1166.98"/><path class="cls-17" d="M109.81,1154.28v40.44c-1.4-.17-2.8-.37-4.16-.6v-39.84Z"/><path class="cls-17" d="M192.05,1161.16v35.48c-1.37.1-2.76.24-4.16.3v-35.78Z"/><path class="cls-17" d="M206.65,1159.1v36c-1.4.2-2.77.37-4.16.53V1159.1Z"/><path class="cls-17" d="M223.67,1154.28v38.11c-1.36.26-2.72.53-4.12.73v-38.84Z"/><path class="cls-17" d="M238.44,1153.61v35.62c-1.36.33-2.76.66-4.16,1v-36.58Z"/><path class="cls-17" d="M255.47,1147.39v36.88c-1.37.47-2.73.93-4.13,1.36v-38.24Z"/><polygon class="cls-17" points="275.29 1175.93 275.29 1140.71 271.13 1140.71 271.13 1177.99 275.29 1175.93"/><path class="cls-17" d="M291.48,1130.17v34.08a37.11,37.11,0,0,1-4.12,3.79v-37.87Z"/><path class="cls-18" d="M180.16,1191.68c-77.06,0-119.37-19.12-119.37-46.76,0-4.83,0-20.67,0-29.51L20,1112.33V1148c0,27.64,62.47,50,139.52,50,39.46,0,75.06-5.89,100.44-15.33C237.35,1188.34,209.85,1191.68,180.16,1191.68Z"/><path class="cls-18" d="M38.75,1149.11v-36L20,1112.33V1148c0,27.64,62.47,50,139.52,50C106.93,1191.84,38.75,1176.75,38.75,1149.11Z"/><path class="cls-19" d="M75.35,1147.39s13.5,26.93,60.26,34.08C263.23,1201,299.06,1148,299.06,1148v-30.66Z"/><path class="cls-19" d="M105.25,1142.09s11.69,22.17,52.2,28.06c110.57,16.08,141.61-33.6,141.61-33.6v-19.26Z"/><path class="cls-3" d="M159.53,1169c-77,0-139.52-23.13-139.52-51.66s62.47-51.65,139.52-51.65,139.53,23.13,139.53,51.65S236.59,1169,159.53,1169Z"/><path class="cls-4" d="M159.53,1162.38c-77,0-139.52-22.4-139.52-50.05s62.47-50,139.52-50,139.53,22.41,139.53,50S236.59,1162.38,159.53,1162.38Z"/><ellipse class="cls-5" cx="159.53" cy="1108.3" rx="118.9" ry="42.65"/><path class="cls-6" d="M53,1112.74c0-23.56,53.24-42.66,118.91-42.66,29.68,0,56.8,3.91,77.63,10.37-21.79-9.06-54-14.81-90-14.81-65.66,0-118.9,19.1-118.9,42.66,0,12.91,16,24.46,41.26,32.29C63.9,1133.12,53,1123.38,53,1112.74Z"/><line class="cls-20" x1="184.89" y1="1131.56" x2="184.89" y2="1096.28"/><line class="cls-20" x1="156.16" y1="1131.56" x2="156.16" y2="1096.28"/><path class="cls-20" d="M213.62,1093.11h20.45c7.45,0,7.45,30-67.24,30-77.7,0-72.23-30-59.09-30H118.4"/><g class="cls-8"><path class="cls-9" d="M250.47,1150.3,85.68,1069.87a309.31,309.31,0,0,1,40.27-6.12l152.82,74.57A133.72,133.72,0,0,1,250.47,1150.3Z"/><path class="cls-9" d="M217.64,1157.84l-161.82-79q7.18-2.86,15.53-5.31l165,80.55Q227.48,1156.23,217.64,1157.84Z"/><path class="cls-9" d="M183.39,1161.64l-148-72.2,6.35-4,154.05,75.19C191.73,1161.07,187.61,1161.39,183.39,1161.64Z"/></g><path class="cls-2" d="M139.52,1153.34c-77.06,0-139.52-22.41-139.52-50v-35.61l279.05-2.91v38.52C279.05,1130.93,216.58,1153.34,139.52,1153.34Z"/><path class="cls-17" d="M137.62,1120.3v33c-1.4,0-2.8,0-4.16,0v-33Z"/><path class="cls-17" d="M154.58,1120.3v32.75c-1.37.07-2.76.1-4.16.14V1120.3Z"/><path class="cls-17" d="M123,1118.27V1153c-1.4,0-2.77-.1-4.16-.17v-34.55Z"/><path class="cls-17" d="M107.26,1114.44V1152c-1.4-.1-2.8-.24-4.16-.37v-37.18Z"/><path class="cls-17" d="M75.26,1109.62v38.08c-1.39-.23-2.76-.5-4.12-.8v-37.28Z"/><path class="cls-17" d="M59.5,1105.39v38.88c-1.4-.33-2.8-.7-4.16-1.06v-37.82Z"/><path class="cls-17" d="M44.93,1102.74v37.34c-1.43-.46-2.82-.93-4.15-1.43v-35.91Z"/><polygon class="cls-17" points="24.78 1131.8 24.78 1096.05 20.63 1096.05 20.63 1129.47 24.78 1131.8"/><polygon class="cls-17" points="10.41 1122.32 10.41 1086.74 6.29 1086.74 6.29 1118.23 10.41 1122.32"/><path class="cls-17" d="M89.8,1109.62v40.44c-1.4-.17-2.8-.37-4.16-.6v-39.84Z"/><path class="cls-17" d="M172,1116.5V1152c-1.36.1-2.76.23-4.16.3V1116.5Z"/><path class="cls-17" d="M186.64,1114.44v36c-1.4.2-2.76.37-4.16.53v-36.48Z"/><path class="cls-17" d="M203.67,1109.62v38.11c-1.37.27-2.73.54-4.13.73v-38.84Z"/><path class="cls-17" d="M218.43,1109v35.62c-1.36.34-2.76.67-4.16,1V1109Z"/><path class="cls-17" d="M235.46,1102.74v36.88c-1.37.46-2.73.93-4.13,1.36v-38.24Z"/><polygon class="cls-17" points="255.28 1131.27 255.28 1096.05 251.12 1096.05 251.12 1133.33 255.28 1131.27"/><path class="cls-17" d="M271.47,1085.51v34.09a38.1,38.1,0,0,1-4.12,3.79v-37.88Z"/><path class="cls-18" d="M160.15,1147c-77.06,0-119.37-19.12-119.37-46.76v-29.51L0,1067.68v35.61c0,27.64,62.46,50,139.52,50,39.46,0,75.06-5.88,100.44-15.33C217.34,1143.68,189.84,1147,160.15,1147Z"/><path class="cls-18" d="M18.74,1104.45v-36L0,1067.68v35.61c0,27.64,62.46,50,139.52,50C86.92,1147.18,18.74,1132.09,18.74,1104.45Z"/><path class="cls-19" d="M55.34,1102.74s13.5,26.92,60.26,34.07c127.62,19.52,163.45-33.52,163.45-33.52v-30.65Z"/><path class="cls-19" d="M85.24,1097.43s11.69,22.18,52.21,28.06c110.56,16.08,141.6-33.6,141.6-33.6v-19.25Z"/><path class="cls-3" d="M139.52,1124.29C62.46,1124.29,0,1101.17,0,1072.64S62.46,1021,139.52,1021s139.53,23.13,139.53,51.65S216.58,1124.29,139.52,1124.29Z"/><path class="cls-4" d="M139.52,1117.73c-77.06,0-139.52-22.41-139.52-50s62.46-50.05,139.52-50.05,139.53,22.41,139.53,50.05S216.58,1117.73,139.52,1117.73Z"/><ellipse class="cls-5" cx="139.52" cy="1063.64" rx="118.9" ry="42.65"/><path class="cls-6" d="M33,1068.08c0-23.56,53.24-42.65,118.91-42.65,29.68,0,56.8,3.91,77.64,10.36-21.81-9.06-54-14.8-90-14.8-65.66,0-118.9,19.09-118.9,42.65,0,12.91,16,24.47,41.26,32.29C43.9,1088.46,33,1078.73,33,1068.08Z"/><line class="cls-20" x1="164.88" y1="1086.9" x2="164.88" y2="1051.62"/><line class="cls-20" x1="136.15" y1="1086.9" x2="136.15" y2="1051.62"/><path class="cls-20" d="M193.61,1048.46h20.45c7.45,0,7.45,30-67.24,30-77.7,0-72.22-30-59.09-30H98.39"/><g class="cls-8"><path class="cls-9" d="M230.46,1105.64,65.67,1025.21a309.31,309.31,0,0,1,40.27-6.12l152.81,74.57A132.88,132.88,0,0,1,230.46,1105.64Z"/><path class="cls-9" d="M197.63,1113.18l-161.82-79q7.19-2.87,15.53-5.31l165,80.54C210.44,1110.86,204.18,1112.11,197.63,1113.18Z"/><path class="cls-9" d="M163.38,1117l-148-72.19,6.36-4,154,75.19C171.72,1116.41,167.6,1116.73,163.38,1117Z"/></g></g></g></g></svg>