<?xml version="1.0" encoding="utf-8"?>
<!-- Generator: Adobe Illustrator 21.0.0, SVG Export Plug-In . SVG Version: 6.00 Build 0)  -->
<svg version="1.1" id="Warstwa_1" xmlns="http://www.w3.org/2000/svg" xmlns:xlink="http://www.w3.org/1999/xlink" x="0px" y="0px"
	 viewBox="0 0 400 400" style="enable-background:new 0 0 400 400;" xml:space="preserve">
<style type="text/css">
	.st0{fill:url(#SVGID_1_);}
	.st1{fill:#FFFFFF;}
</style>
<linearGradient id="SVGID_1_" gradientUnits="userSpaceOnUse" x1="38.3184" y1="248.1203" x2="390.3116" y2="361.3488" gradientTransform="matrix(1 0 0 1 0 -98)">
	<stop  offset="0" style="stop-color:#0BA1E1"/>
	<stop  offset="1" style="stop-color:#116EDB"/>
</linearGradient>
<path class="st0" d="M397.1,202c0,49.8-6.6,91.6-49.2,130.2c-40.5,36.7-89,66.8-147.8,66.8c-60.8,0-132.9-35.2-164.9-81.6
	C9.8,280.4,3,249.9,3,201.8c0-45.8,8.7-95.4,37.9-126.3C81,32.8,133.2-4.5,199.9,4.6c48.5,6.8,104.3,18.4,138.9,48.1
	C381,89.2,397.1,142.2,397.1,202z"/>
<g>
	<g>
		<path class="st1" d="M146.3,136l81-22l-4.2-8.7c-2.8-5.7-9.8-8.1-15.3-5.1l-72.5,36h11V136z"/>
		<path class="st1" d="M252.5,114.6c-1.1,0-1.9,0.2-3,0.4l-19.1,5.3L172.4,136h65.9h28.8l-3.6-13.1
			C262.1,118,257.6,114.6,252.5,114.6z"/>
		<path class="st1" d="M279,144.1h-2.8h-3.6h-3.6h-26.7h-99.2H130h-11h-2.1h-6.8c-3.6,0-6.8,1.7-8.9,4.2c-1.1,1.3-1.7,2.5-2.1,4
			c-0.2,1.1-0.4,1.9-0.4,3v1.3v12.9v112.8c0,6.4,5.1,11.4,11.4,11.4h168.7c6.4,0,11.4-5.1,11.4-11.4v-31.8h-67.8
			c-10.8,0-19.5-8.7-19.5-19.5v-10.4V217v-3.6v-7.8c0-5.3,2.1-10,5.5-13.6c3-3.2,7-5.3,11.7-5.7c0.8,0,1.5-0.2,2.3-0.2h58.3h3.6h3.6
			h2.3v-31.2C290.5,149.2,285.2,144.1,279,144.1z"/>
		<path class="st1" d="M298.3,197.5c-1.1-1.1-2.5-1.9-4-2.3c-1.1-0.4-2.3-0.6-3.6-0.6h-0.2h-0.2h-3.6h-12.7h-51.3
			c-6.4,0-11.4,5.1-11.4,11.4v5.7v3.6v3.6v12.7c0,6.4,5.1,11.4,11.4,11.4h67.8h0.2c1.3,0,2.5-0.2,3.6-0.6c1.5-0.4,2.8-1.3,4-2.3
			c2.3-2.1,3.8-5.1,3.8-8.5v-25.4C302.1,202.6,300.6,199.6,298.3,197.5z M246.4,221.1c0,3.2-2.5,5.7-5.7,5.7h-3.8
			c-3.2,0-5.7-2.5-5.7-5.7v-3.8c0-1.9,0.8-3.4,2.1-4.5c1.1-0.8,2.1-1.3,3.6-1.3h1.1h2.8c3.2,0,5.7,2.5,5.7,5.7V221.1L246.4,221.1z"
			/>
	</g>
</g>
</svg>
