<?xml version="1.0" encoding="utf-8"?>
<!-- Generator: Adobe Illustrator 21.0.0, SVG Export Plug-In . SVG Version: 6.00 Build 0)  -->
<svg version="1.1" id="Warstwa_1" xmlns="http://www.w3.org/2000/svg" xmlns:xlink="http://www.w3.org/1999/xlink" x="0px" y="0px"
	 viewBox="0 0 30 30" style="enable-background:new 0 0 30 30;" xml:space="preserve">
<style type="text/css">
	.st0{fill:url(#SVGID_1_);}
</style>
<linearGradient id="SVGID_1_" gradientUnits="userSpaceOnUse" x1="2.8886" y1="11.203" x2="29.1155" y2="19.6397">
	<stop  offset="0" style="stop-color:#0BA1E1"/>
	<stop  offset="1" style="stop-color:#116EDB"/>
</linearGradient>
<path class="st0" d="M25.3,4c-2.6-2.2-6.7-3.1-10.3-3.6C10-0.3,6.1,2.5,3.1,5.6c-2.2,2.3-2.8,6-2.8,9.4c0,3.6,0.5,5.9,2.4,8.6
	c2.4,3.5,7.8,6.1,12.3,6.1c4.4,0,8-2.2,11-5c3.2-2.9,3.7-6,3.7-9.7C29.6,10.6,28.4,6.7,25.3,4z M24,23c-2.5,2.2-5.4,4.1-9,4.1
	c-3.7,0-8.1-2.1-10.1-5c-1.6-2.3-2-4.1-2-7c0-2.8,0.5-5.8,2.3-7.7c2.5-2.6,5.6-4.9,9.7-4.3c3,0.4,6.4,1.1,8.5,2.9
	C26,8.2,27,11.4,27,15C27,18.1,26.6,20.6,24,23z"/>
</svg>
