<?xml version="1.0" encoding="utf-8"?>
<!-- Generator: Adobe Illustrator 21.0.0, SVG Export Plug-In . SVG Version: 6.00 Build 0)  -->
<svg version="1.1" id="Warstwa_1" xmlns="http://www.w3.org/2000/svg" xmlns:xlink="http://www.w3.org/1999/xlink" x="0px" y="0px"
	 viewBox="0 0 200 123.6" style="enable-background:new 0 0 200 123.6;" xml:space="preserve">
<style type="text/css">
	.st0{fill:#F16522;}
	.st1{fill:#E41B24;}
	.st2{fill:#F89E1C;}
</style>
<g id="XMLID_24_">
	<rect id="XMLID_5_" x="75.8" y="18.2" class="st0" width="48.5" height="87.1"/>
	<path id="XMLID_4_" class="st1" d="M78.8,61.8c0-17.7,8.3-33.4,21.2-43.6C90.6,10.8,78.7,6.4,65.8,6.4c-30.6,0-55.4,24.8-55.4,55.4
		c0,30.6,24.8,55.4,55.4,55.4c12.9,0,24.8-4.4,34.2-11.8C87.1,95.2,78.8,79.5,78.8,61.8"/>
	<path id="XMLID_27_" class="st2" d="M189.7,61.8c0,30.6-24.8,55.4-55.4,55.4c-12.9,0-24.8-4.4-34.2-11.8
		c12.9-10.1,21.2-25.9,21.2-43.6s-8.3-33.4-21.2-43.6c9.4-7.4,21.3-11.8,34.2-11.8C164.9,6.4,189.7,31.2,189.7,61.8 M184.4,96.1
		v-1.8h0.7V94h-1.8v0.4h0.7v1.8H184.4z M187.9,96.1V94h-0.6l-0.6,1.5l-0.6-1.5h-0.6v2.1h0.4v-1.6l0.6,1.4h0.4l0.6-1.4v1.6H187.9z"/>
</g>
</svg>
