<?xml version="1.0" encoding="utf-8"?>
<!-- Generator: Adobe Illustrator 21.0.0, SVG Export Plug-In . SVG Version: 6.00 Build 0)  -->
<svg version="1.1" id="Warstwa_1" xmlns="http://www.w3.org/2000/svg" xmlns:xlink="http://www.w3.org/1999/xlink" x="0px" y="0px"
	 viewBox="0 0 200 123.6" style="enable-background:new 0 0 200 123.6;" xml:space="preserve">
<style type="text/css">
	.st0{clip-path:url(#SVGID_2_);fill:url(#SVGID_3_);}
</style>
<g id="XMLID_6_">
	<g id="XMLID_7_">
		<g>
			<g>
				<defs>
					<path id="SVGID_1_" d="M103.4,50.9c-0.1,9,8,14,14.1,17c6.3,3.1,8.4,5,8.4,7.8c-0.1,4.2-5,6-9.7,6.2c-8.1,0.1-12.8-2.2-16.6-4
						l-2.9,13.7c3.8,1.7,10.7,3.3,17.9,3.4c17,0,28-8.4,28.1-21.4c0.1-16.5-22.8-17.4-22.6-24.8c0.1-2.2,2.2-4.6,6.9-5.2
						c2.3-0.3,8.7-0.6,15.9,2.8l2.8-13.3c-3.9-1.4-8.8-2.8-15.1-2.8C114.7,30.3,103.5,38.8,103.4,50.9 M173.1,31.4
						c-3.1,0-5.7,1.8-6.9,4.6L142,93.8h17l3.4-9.3h20.7l2,9.3H200l-13.1-62.4H173.1 M175.4,48.3l4.9,23.4h-13.4L175.4,48.3
						 M82.8,31.4L69.4,93.8h16.2L99,31.4L82.8,31.4 M58.9,31.4L42.1,73.9l-6.8-36.1c-0.8-4.1-4-6.4-7.4-6.4H0.4L0,33.2
						c5.6,1.2,12,3.2,15.9,5.3c2.3,1.3,3.1,2.4,3.8,5.5l12.9,49.8h17.1l26.2-62.4L58.9,31.4"/>
				</defs>
				<clipPath id="SVGID_2_">
					<use xlink:href="#SVGID_1_"  style="overflow:visible;"/>
				</clipPath>
				
					<linearGradient id="SVGID_3_" gradientUnits="userSpaceOnUse" x1="2.3291" y1="-100.4952" x2="2.7305" y2="-100.4952" gradientTransform="matrix(419.708 -154.5691 154.5691 419.708 14573.9697 42631.3555)">
					<stop  offset="0" style="stop-color:#222357"/>
					<stop  offset="1" style="stop-color:#254AA5"/>
				</linearGradient>
				<polyline class="st0" points="-20.9,38 176,-34.5 220.8,87.1 23.9,159.6 				"/>
			</g>
		</g>
	</g>
</g>
</svg>
