<svg xmlns="http://www.w3.org/2000/svg" viewBox="0 0 1240.58 1122.18"><defs><style>.cls-1{fill:#fafafa;}.cls-2{fill:#e1e1e1;}.cls-3{fill:#ececec;}.cls-4{fill:#f5f5f5;}.cls-5{fill:#0080ff;}.cls-6{fill:#0e2033;}.cls-7{fill:#10273b;}.cls-8{fill:#ffbf9d;}.cls-9{fill:#ff9a6c;}.cls-10{opacity:0.3;}.cls-11{fill:#fff;}</style></defs><title>Zasób 41</title><g id="Warstwa_2" data-name="Warstwa 2"><g id="DESIGNED_BY_FREEPIK" data-name="DESIGNED BY FREEPIK"><rect class="cls-1" x="66.84" y="157.15" width="473.18" height="423.33"/><path class="cls-2" d="M540,580.49s-.08-2.72-.12-7.86-.07-12.79-.13-22.68c-.06-19.88-.16-48.93-.28-85.94-.13-74-.32-179.65-.55-306.86l1.07,1.08-473.13.19h0l1.26-1.27c0,154-.1,298.94-.15,423.34l-1.11-1.12,342.23.57,96.53.29,25.55.13,6.59.06c1.49,0,2.28.07,2.28.07s-.71,0-2.15.06l-6.47.06-25.33.13-96.28.3-343,.56H65.72v-1.11c0-124.4-.09-269.32-.15-423.34v-1.26h1.31l473.13.19h1.08v1.07c-.23,127.49-.42,233.41-.55,307.54-.12,36.9-.22,65.88-.28,85.69-.06,9.81-.1,17.33-.12,22.48S540,580.49,540,580.49Z"/><path class="cls-2" d="M248.27,232.37c0,.7-24.9,1.27-55.62,1.27S137,233.07,137,232.37s24.9-1.26,55.63-1.26S248.27,231.67,248.27,232.37Z"/><path class="cls-2" d="M448.76,264.16c0,.7-68.42,1.26-152.8,1.26s-152.83-.56-152.83-1.26,68.41-1.27,152.83-1.27S448.76,263.46,448.76,264.16Z"/><rect class="cls-2" x="137.84" y="318" width="19.94" height="19.93"/><rect class="cls-2" x="186.91" y="318" width="19.93" height="19.93"/><rect class="cls-2" x="236.88" y="317.09" width="19.93" height="19.93"/><rect class="cls-2" x="285.05" y="318" width="19.93" height="19.93"/><rect class="cls-2" x="334.12" y="318" width="19.93" height="19.93"/><rect class="cls-2" x="383.19" y="318" width="19.93" height="19.93"/><rect class="cls-3" x="432.26" y="318" width="19.93" height="19.93"/><rect class="cls-3" x="137.84" y="360.38" width="19.94" height="19.93"/><rect class="cls-2" x="186.91" y="360.38" width="19.93" height="19.93"/><rect class="cls-3" x="235.98" y="360.38" width="19.94" height="19.93"/><rect class="cls-2" x="285.05" y="360.38" width="19.93" height="19.93"/><rect class="cls-2" x="334.12" y="360.38" width="19.93" height="19.93"/><rect class="cls-2" x="384.09" y="359.47" width="19.93" height="19.94"/><rect class="cls-2" x="432.26" y="360.38" width="19.93" height="19.93"/><rect class="cls-2" x="137.84" y="402.76" width="19.94" height="19.93"/><rect class="cls-2" x="187.81" y="401.85" width="19.94" height="19.94"/><rect class="cls-2" x="235.98" y="402.76" width="19.94" height="19.93"/><rect class="cls-3" x="285.05" y="402.76" width="19.93" height="19.93"/><rect class="cls-2" x="334.12" y="402.76" width="19.93" height="19.93"/><rect class="cls-2" x="383.19" y="402.76" width="19.93" height="19.93"/><rect class="cls-2" x="432.26" y="402.76" width="19.93" height="19.93"/><rect class="cls-2" x="137.84" y="445.14" width="19.94" height="19.94"/><rect class="cls-2" x="186.91" y="445.14" width="19.93" height="19.94"/><rect class="cls-2" x="235.98" y="445.14" width="19.94" height="19.94"/><rect class="cls-2" x="285.95" y="444.24" width="19.93" height="19.93"/><rect class="cls-2" x="334.12" y="445.14" width="19.93" height="19.94"/><rect class="cls-3" x="383.19" y="445.14" width="19.93" height="19.94"/><rect class="cls-2" x="432.26" y="445.14" width="19.93" height="19.94"/><rect class="cls-2" x="137.84" y="487.52" width="19.94" height="19.93"/><rect class="cls-3" x="186.91" y="487.52" width="19.93" height="19.93"/><rect class="cls-2" x="235.98" y="487.52" width="19.94" height="19.93"/><rect class="cls-2" x="285.05" y="487.52" width="19.93" height="19.93"/><rect class="cls-2" x="334.12" y="487.52" width="19.93" height="19.93"/><rect class="cls-2" x="384.09" y="486.62" width="19.93" height="19.93"/><rect class="cls-2" x="432.26" y="487.52" width="19.93" height="19.93"/><rect class="cls-2" x="1044.33" y="56.5" width="30.41" height="151.31" transform="translate(-0.69 5.68) rotate(-0.31)"/><rect class="cls-3" x="780.72" y="57.03" width="78.75" height="83.53" transform="translate(-0.52 4.39) rotate(-0.31)"/><rect class="cls-4" x="859.09" y="56.61" width="78.75" height="83.53" transform="translate(-0.51 4.81) rotate(-0.31)"/><path class="cls-2" d="M780.62,80.31c52.33.43,104.79.13,157.11-.72a.84.84,0,0,0,0-1.68c-52.33-.29-104.79,0-157.11,1a.72.72,0,0,0,0,1.44Z"/><rect class="cls-3" x="731.58" y="139.34" width="143.07" height="68.07" transform="translate(-0.92 4.31) rotate(-0.31)"/><rect class="cls-4" x="873.97" y="138.58" width="143.07" height="68.07" transform="translate(-0.91 5.07) rotate(-0.31)"/><path class="cls-2" d="M731.5,158.65c95,1.08,190.42.12,285.46-1.41a.84.84,0,0,0,0-1.67c-95.05-.5-190.43-.44-285.46,1.65a.72.72,0,0,0,0,1.43Z"/><rect class="cls-2" x="678" y="207.79" width="554.29" height="24.39"/><rect class="cls-2" x="768.74" y="219.52" width="22.5" height="83.21"/><rect class="cls-2" x="1104.64" y="219.52" width="22.5" height="83.21"/><rect class="cls-3" x="1074.16" y="0.08" width="30.41" height="208.1" transform="translate(-0.54 5.84) rotate(-0.31)"/><rect class="cls-4" x="1104.72" y="38.86" width="47.25" height="168.64" transform="translate(-0.65 6.06) rotate(-0.31)"/><path class="cls-2" d="M1151.2,71.23c0,.45-10.58.82-23.62.82s-23.63-.37-23.63-.82,10.58-.82,23.63-.82S1151.2,70.78,1151.2,71.23Z"/><path class="cls-2" d="M1151.2,64.14c0,.46-10.58.82-23.62.82S1104,64.6,1104,64.14s10.58-.82,23.63-.82S1151.2,63.69,1151.2,64.14Z"/><path class="cls-2" d="M1151.2,182c0,.45-10.58.82-23.62.82S1104,182.46,1104,182s10.58-.82,23.63-.82S1151.2,181.55,1151.2,182Z"/><path class="cls-2" d="M1151.2,174.92c0,.45-10.58.82-23.62.82s-23.63-.37-23.63-.82,10.58-.82,23.63-.82S1151.2,174.47,1151.2,174.92Z"/><path class="cls-2" d="M1128.34,159.46c-.45,0-.82-17-.82-38s.37-38,.82-38,.82,17,.82,38S1128.79,159.46,1128.34,159.46Z"/><rect class="cls-3" x="1151.71" y="80.15" width="51.43" height="127.29"/><path class="cls-2" d="M1097.1,35.53a8.74,8.74,0,1,1-8.74-8.74A8.74,8.74,0,0,1,1097.1,35.53Z"/><rect class="cls-2" x="1085.65" y="59.57" width="5.4" height="123.8"/><path class="cls-5" d="M157.1,849.5c14.26-7.36,31.06-8.32,46.89-5.7,8.51,1.4,17.38,4,23.17,10.34s6.89,17.64.24,23.13c-4,3.27-9.47,3.76-14.61,3.7-12.39-.14-26.15-2.32-36,5.14-5.66,4.25-9.42,11.33-16.17,13.42s-14.07-1.85-17.58-7.82-3.62-13.42-2-20.14A30.75,30.75,0,0,1,157.1,849.5Z"/><path class="cls-5" d="M124.41,786.4c8.73,12.46,25.68,8.34,33.54.73s11.18-18.62,14.21-29.13c6.91-24,13.87-49.21,8.74-73.66-1.54-7.31-4.27-14.6-9.41-20s-13-8.65-20.26-6.74c-8.55,2.26-13.86,10.63-17.7,18.6a175.55,175.55,0,0,0-17.35,75.35c0,12.14,1.39,24.86,8.23,34.88"/><path class="cls-5" d="M100.46,804.28c9.47-11.24,11.27-27.63,7.05-41.72s-13.73-26.06-24.7-35.84a133.05,133.05,0,0,0-44.25-26.1c-6.4-2.25-13.15-4-19.9-3.38S5.11,701.33,2,707.34c-4.65,8.88-.19,19.65,4.64,28.44A337.33,337.33,0,0,0,35.66,780c8.71,11.23,18.69,22.31,32,27.38s27.07,4.48,34.1-4.72"/><path class="cls-6" d="M123.82,974.34c.17,0,.43-2,.79-5.67.4-4.12.91-9.29,1.51-15.44a219.17,219.17,0,0,1,3.47-22.67,174.64,174.64,0,0,1,8.24-26.74,98,98,0,0,1,13.66-24.2,50.91,50.91,0,0,1,17.26-14.36,48.25,48.25,0,0,1,14.54-4.52c3.61-.37,5.64-.66,5.64-.82s-2-.19-5.74-.09A44.19,44.19,0,0,0,168,863.78a50.8,50.8,0,0,0-18.21,14.48,96.1,96.1,0,0,0-14.16,24.68,163.61,163.61,0,0,0-8.18,27.19,191.72,191.72,0,0,0-3,22.94c-.49,6.56-.68,11.88-.77,15.55S123.66,974.33,123.82,974.34Z"/><path class="cls-6" d="M124.89,962.45a11.29,11.29,0,0,0,.15-2.63c0-2,0-4.46,0-7.51,0-6.52,0-15.95.33-27.6.58-23.3,2.59-48.37,6.46-83.73,3.67-33.24,8.6-71.92,13.79-97.07,1.12-5.72,2.24-10.87,3.3-15.38s1.86-8.41,2.69-11.56c.72-3,1.3-5.38,1.76-7.3a10.84,10.84,0,0,0,.46-2.59,10.48,10.48,0,0,0-.91,2.46c-.58,1.89-1.3,4.27-2.19,7.2-1,3.12-2,7-3.09,11.49s-2.41,9.62-3.63,15.33c-5.15,22.79-10.59,54.65-14.5,90.08s-5.63,67.68-5.79,91c-.14,11.67.11,21.13.41,27.65.19,3,.34,5.54.46,7.51A11.16,11.16,0,0,0,124.89,962.45Z"/><path class="cls-6" d="M125,900.24c.17,0,.14-2.8-.05-7.85s-1-12.33-2.4-21.26a280.52,280.52,0,0,0-6.92-31,254.08,254.08,0,0,0-13-36.65C92,778,77.38,757.19,64.68,744.28c-3-3.42-6.29-5.9-9-8.32-1.37-1.16-2.58-2.32-3.82-3.23l-3.47-2.4c-4.18-2.85-6.52-4.36-6.61-4.22-.37.5,9.36,6.23,21.66,19.31s26.43,33.75,37.08,59a288.25,288.25,0,0,1,13,36.31c3.4,11.38,5.65,21.85,7.36,30.67s2.56,16.05,3.12,21.05S124.88,900.24,125,900.24Z"/><polygon class="cls-6" points="64.91 1009.98 71.15 1095.38 180.86 1095.38 187.09 1009.98 64.91 1009.98"/><rect class="cls-6" x="54.32" y="976.32" width="145.87" height="33.66"/><polygon class="cls-7" points="54.32 1092.11 54.32 1101.44 61.17 1101.44 197.77 1101.44 197.77 1092.11 54.32 1092.11"/><polygon class="cls-7" points="67.89 1117.86 61.17 1101.44 192.55 1101.44 184.71 1117.86 67.89 1117.86"/><path class="cls-2" d="M185.06,1037.89a4,4,0,0,1-.51.78l-1.64,2.18-6.4,8.18-.28.36L176,1049l-15.71-21.72h.91l-15.46,21.89-.49.69-.54-.65-18.33-21.81h1l-1,1.26L110,1049.22l-.55.68-.5-.71L93.47,1027.3l.9,0c-7.62,8.68-14.08,16.05-19.05,21.7l-.33.38-.26-.43-6-10c-.62-1.09-1.12-2-1.53-2.67a4.25,4.25,0,0,1-.46-1,4.38,4.38,0,0,1,.64.85l1.69,2.56c1.52,2.4,3.62,5.7,6.26,9.84l-.6,0,18.75-22L94,1026l.43.6,15.6,21.78-1.05,0,16.36-20.59,1-1.26.52-.66.53.64,18.29,21.86-1,0,15.61-21.78.46-.64.45.64,15.37,21.95H176l6.65-8,1.78-2.06Q185,1037.86,185.06,1037.89Z"/><path class="cls-7" d="M188.62,1009.41c0,.38-27.49.69-61.39.69s-61.4-.31-61.4-.69,27.48-.68,61.4-.68S188.62,1009,188.62,1009.41Z"/><path class="cls-6" d="M194.16,1102.36c0,.38-29.87.68-66.72.68s-66.73-.3-66.73-.68,29.87-.68,66.73-.68S194.16,1102,194.16,1102.36Z"/><path class="cls-7" d="M918.31,757.58h307.14a15.13,15.13,0,0,1,15.13,15.13v346.71a0,0,0,0,1,0,0H903.18a0,0,0,0,1,0,0V772.7A15.13,15.13,0,0,1,918.31,757.58Z"/><path class="cls-6" d="M1212.21,759.42c.39,0,.71,80.55.71,179.9s-.32,179.91-.71,179.91-.71-80.54-.71-179.91S1211.82,759.42,1212.21,759.42Z"/><path class="cls-6" d="M1046,364.76a286.2,286.2,0,0,1,51.29,150.84c1.58,36.25-3.3,74.89,13.91,106.84,24.68,45.83,78.09,44.28,94.44,93.7,7.11,21.5-6,68.81-9.53,91.17-4,25.42,11.53,46.77,7.51,72.19-3.68,23.3-21.12,39.93-42.06,50.78-18.64,9.66-35.87,9.91-55.26,1.89-36.94-15.3-67.69-31.44-94-61.54-36.95-42.25-48.12-100.76-54.43-156.53a1373.58,1373.58,0,0,1,8.37-370"/><path class="cls-7" d="M1125,937.36s.4-.12,1.19-.3,2-.37,3.49-.83a57.35,57.35,0,0,0,12.77-5.1,56.62,56.62,0,0,0,16.85-13.52,35.42,35.42,0,0,0,6.6-11.69,64.36,64.36,0,0,0,2.3-15c.53-10.69-1.1-22.38-3.53-34.74s-5.6-25.57-6.38-39.86a82.36,82.36,0,0,1,1.54-21.85c1.52-7.36,4.18-14.54,6.93-21.75s5.7-14.51,7.81-22.15,3.23-15.72,1.89-23.71a53.56,53.56,0,0,0-8.84-22,103,103,0,0,0-15.46-17.52c-11.26-10.51-23.45-19.19-33.86-28.94a191.61,191.61,0,0,1-44.1-60.88A186.52,186.52,0,0,1,1064,570.33c-1.31-4.07-2-8-3-11.52l-1.92-9.83c-.87-6-1.5-10.57-1.67-13.74-.12-1.52-.21-2.71-.28-3.58s0-1.23,0-1.23.08.41.19,1.21.24,2.06.41,3.58c.27,3.15,1,7.75,1.94,13.67l2,9.77c1,3.51,1.75,7.41,3.09,11.45a188.71,188.71,0,0,0,10.31,27,192.25,192.25,0,0,0,44.07,60.34c10.36,9.65,22.56,18.31,33.93,28.89a103.59,103.59,0,0,1,15.68,17.74,55.07,55.07,0,0,1,9.08,22.61c1.37,8.25.1,16.56-1.94,24.29s-5.09,15.08-7.87,22.28-5.4,14.31-6.9,21.53a80.93,80.93,0,0,0-1.56,21.51c.73,14.12,3.89,27.29,6.22,39.7s4,24.19,3.38,35a64.68,64.68,0,0,1-2.44,15.2,36.16,36.16,0,0,1-6.84,11.92,56.62,56.62,0,0,1-17.22,13.5,54.72,54.72,0,0,1-13,4.89A31.73,31.73,0,0,1,1125,937.36Z"/><path class="cls-5" d="M617.49,1034.76,748.3,972.64s50.94-247.36,60.58-265.94,49.89-34.62,49.89-34.62L852,1007l-11.95,77.26L655.6,1101.77Z"/><path class="cls-8" d="M505.85,1093.36c-.73,0-4.37,2.25-1.32,8s25.2,24.74,31.72,18.13-3.44-14.69-3.44-14.69Z"/><path class="cls-8" d="M533.75,1105s26.75,3.38,37,7.29c11.19,4.25,24.81,1.36,34-4.86a96.89,96.89,0,0,0,14.52-11.82l34.12-.54s16.38-17,6.66-42.28a45.73,45.73,0,0,0-7.82-13.32c-4-4.38-10.45-7.94-21.52-9.85l-40.54,8.76s-62.81-4.49-74,.79c0,0-14,8.32-18.38,11.81-1.63,1.32-6.61,17.3,3.61,25.61,0,0-8.9,7.07-4.08,13.41l2.31,2.82s-6,7.74-2.91,11.11,29.94,19.12,39.56,15.37,1.65-12.66-2.58-14.3"/><path class="cls-9" d="M508.17,1062.82a24.62,24.62,0,0,1,3.32,1.18c2.12.81,5.2,2,9,3.18,1.93.62,4.06,1.24,6.36,1.85s4.79,1.12,7.39,2a15.83,15.83,0,0,1,7.36,4.44c1.93,2.3,3.23,5.72,2,9a7.1,7.1,0,0,1-3.32,3.57,12.32,12.32,0,0,1-4.47,1.24,36.51,36.51,0,0,1-8.52-.45,75.09,75.09,0,0,1-13.86-3.61c-3.84-1.36-6.87-2.64-9-3.53a20.28,20.28,0,0,1-3.19-1.52,23.39,23.39,0,0,1,3.35,1.11c2.14.77,5.21,1.94,9.05,3.19a79.34,79.34,0,0,0,13.76,3.34,36.4,36.4,0,0,0,8.26.38,11.44,11.44,0,0,0,4.06-1.13,6,6,0,0,0,2.81-3c1.06-2.66,0-5.76-1.78-7.85A15,15,0,0,0,534,1072c-2.5-.85-5-1.38-7.31-2s-4.43-1.32-6.36-2c-3.84-1.33-6.89-2.59-9-3.53A19.32,19.32,0,0,1,508.17,1062.82Z"/><path class="cls-9" d="M510.58,1043.48a22.86,22.86,0,0,1,3.3,1.2c2.11.81,5.16,2,9,3.25s8.43,2.66,13.61,3.91c2.55.65,5.5,1.17,7.93,3.21a6.76,6.76,0,0,1,2.33,4.1,8.52,8.52,0,0,1-.69,4.77,11.51,11.51,0,0,1-7,6,18.43,18.43,0,0,1-8.53.67c-5.41-.81-9.87-2.75-13.71-4l-9-3.17a22.11,22.11,0,0,1-3.27-1.3,19.26,19.26,0,0,1,3.41.89l9.15,2.83c3.87,1.12,8.39,3,13.59,3.69a17.6,17.6,0,0,0,8-.69,10.45,10.45,0,0,0,6.34-5.37c1.23-2.64.82-5.88-1.34-7.6s-4.9-2.37-7.46-3a142.07,142.07,0,0,1-13.61-4.16c-3.82-1.38-6.84-2.67-8.9-3.6A19.92,19.92,0,0,1,510.58,1043.48Z"/><path class="cls-9" d="M523.47,1049c-.33,0-.5-2.46-1.22-5.37s-1.65-5.19-1.36-5.34,1.72,2,2.45,5.08S523.76,1049,523.47,1049Z"/><path class="cls-8" d="M617.86,1049.81,594,1040.62s-66.21-30.9-67.33-29.23-4.71,1.49-3.92,9.56,39.37,24.35,40.59,27.15-.82,16.94,13.43,27.06,24.54,10.35,24.54,10.35"/><path class="cls-9" d="M601.32,1085.51a1.9,1.9,0,0,1-.57,0c-.37,0-.93-.06-1.65-.16a36.39,36.39,0,0,1-6.19-1.49,60,60,0,0,1-20.22-11.63,28.78,28.78,0,0,1-8.13-13.94,64.4,64.4,0,0,1-1.41-8.91,4.79,4.79,0,0,0-.23-1,2,2,0,0,0-.63-.64,22.88,22.88,0,0,0-1.93-1.25c-1.36-.8-2.77-1.56-4.2-2.33-5.74-3.06-11.86-6.16-18-9.7-3.08-1.77-6.19-3.65-9.2-5.8a34.7,34.7,0,0,1-4.31-3.6,11.53,11.53,0,0,1-1.82-2.3,5,5,0,0,1-.55-1.48,11.19,11.19,0,0,1-.14-1.47,10.49,10.49,0,0,1,1-5.76,6.82,6.82,0,0,1,2.1-2.11,4.17,4.17,0,0,0,.92-.79c.07-.07-.06,0,.23-.23a.77.77,0,0,1,.46-.15,2.74,2.74,0,0,1,.47,0,6.36,6.36,0,0,1,.72.17c3.59,1.11,6.87,2.55,10.17,3.9,6.54,2.76,12.79,5.55,18.74,8.22,11.89,5.35,22.54,10.3,31.47,14.48,2.23,1,4.34,2.1,6.36,3l5.84,2.3,9.33,3.7,5.88,2.38,1.52.64a2.2,2.2,0,0,1,.51.26,3.5,3.5,0,0,1-.55-.15l-1.56-.55-6-2.18-9.41-3.53-5.87-2.21c-2.08-.85-4.17-1.88-6.43-2.89L556.53,1024c-5.95-2.65-12.21-5.41-18.75-8.15-3.26-1.34-6.61-2.79-10-3.84a5.27,5.27,0,0,0-.61-.14l-.22,0s0,.09,0-.08,0-.18,0-.28a.18.18,0,0,0-.07-.08c.75.51.18.17.34.29l-.06.09a5.27,5.27,0,0,1-1.15,1,5.67,5.67,0,0,0-1.8,1.78,9.54,9.54,0,0,0-.87,5.14,5,5,0,0,0,.55,2.46,10.66,10.66,0,0,0,1.65,2.06,33.06,33.06,0,0,0,4.16,3.48c3,2.11,6,4,9.09,5.75,6.13,3.54,12.22,6.65,18,9.74,1.43.78,2.85,1.55,4.22,2.37a23.57,23.57,0,0,1,2,1.33,2.66,2.66,0,0,1,.93,1.06,5,5,0,0,1,.29,1.24,65.38,65.38,0,0,0,1.34,8.83,28,28,0,0,0,7.78,13.6,54.74,54.74,0,0,0,10.73,7.63,56.92,56.92,0,0,0,9.08,4.16,43.91,43.91,0,0,0,6.09,1.68c.71.14,1.26.21,1.62.27A2.81,2.81,0,0,1,601.32,1085.51Z"/><path class="cls-9" d="M528.29,1088.62a8.45,8.45,0,0,1,2.54.74,25.15,25.15,0,0,1,6.24,3.61,22.65,22.65,0,0,1,3.61,3.5,7.58,7.58,0,0,1,1.92,5.58,6.16,6.16,0,0,1-4.41,4.76,11.91,11.91,0,0,1-6.94-.21,127,127,0,0,1-21.95-8.82,68,68,0,0,1-6.17-3.65,10.87,10.87,0,0,1-2.11-1.58,13.15,13.15,0,0,1,2.33,1.21c1.47.83,3.61,2,6.31,3.32a153.56,153.56,0,0,0,21.89,8.44,11,11,0,0,0,6.3.26,5.19,5.19,0,0,0,3.74-3.88A6.8,6.8,0,0,0,540,1097a23.59,23.59,0,0,0-3.38-3.45C532,1089.77,528.18,1088.84,528.29,1088.62Z"/><g class="cls-10"><path d="M839.14,1084.37C817.72,1012.11,798.82,919,777.4,846.78c-7.84,66.71,2,154.78,14.25,220.82,1.44,7.74,2.1,15.33,8.1,20.42l39.39-3.65"/></g><path class="cls-6" d="M804.05,1034.76c-.28.07-1.19-4.71-4.09-11.93a84.73,84.73,0,0,0-6.15-12.15,84.18,84.18,0,0,0-22.56-24.3,84.28,84.28,0,0,0-11.67-7c-7-3.43-11.68-4.69-11.59-5a16,16,0,0,1,3.32.79,32.49,32.49,0,0,1,3.8,1.25,52.65,52.65,0,0,1,4.91,2,77.09,77.09,0,0,1,12,6.87A80.29,80.29,0,0,1,794.93,1010a76.3,76.3,0,0,1,6,12.47,51.25,51.25,0,0,1,1.65,5,32.48,32.48,0,0,1,1,3.89A15.5,15.5,0,0,1,804.05,1034.76Z"/><path class="cls-5" d="M844.91,668.71s-68.52,153-68.52,181.15,51.34,223.35,51.34,223.35c-.49,7.75-2.49,46.66-2.49,46.66l287.82,1h0l4.38-61.87L1095,1000l22.44-166.67s15.11-96.77,16.45-123.84c1.68-33.86-113-73.11-109.9-77.8l-19.8-26.51L890.68,697.35l-22.42-64.76L841.39,658Z"/><path class="cls-5" d="M1033.39,709.42c-31.15,52.71-88.16,148.77-88.16,148.77L843.06,974.67s-6.68,59.2,6.69,77.34S886,1082.56,886,1082.56s27,0,61.23-28.64,128.77-147,128.77-147l32.47-39.15s38.69-95.08,31.47-143.47c-2.79-18.66-10.73-26.42-21.33-35C1092,667.79,1050.8,680,1033.39,709.42Z"/><path class="cls-6" d="M1120.49,834.69a5.78,5.78,0,0,1-.47,1.08l-1.51,3.1c-1.36,2.72-3.43,6.69-6.27,11.7-5.64,10.06-14.4,24.28-25.87,41.41-5.74,8.56-12.16,17.85-19.2,27.71s-15.08,20-21.68,31.92c-6.77,11.78-12.59,24.87-19.83,37.85a237,237,0,0,1-26,37.92,152,152,0,0,1-34.41,30.42,108.44,108.44,0,0,1-39.85,15.43,89.57,89.57,0,0,1-38.61-1.64,73.77,73.77,0,0,1-16.32-6.62,74.55,74.55,0,0,1-13.45-9.1,62.79,62.79,0,0,1-16.86-22.06,71.56,71.56,0,0,1-5.49-20.29,90.53,90.53,0,0,1-.46-13.28c.08-1.46.15-2.6.19-3.45a9,9,0,0,1,.12-1.17,5.88,5.88,0,0,1,0,1.18q0,1.26-.06,3.45a101.5,101.5,0,0,0,.73,13.2,71.52,71.52,0,0,0,5.67,20,60.18,60.18,0,0,0,6.7,11.12,60.82,60.82,0,0,0,10.07,10.5A74.06,74.06,0,0,0,871,1064a73.16,73.16,0,0,0,16.12,6.45,88.71,88.71,0,0,0,38.07,1.48,107.27,107.27,0,0,0,39.32-15.32,151.19,151.19,0,0,0,34.08-30.16,238.17,238.17,0,0,0,25.83-37.67c7.21-12.91,13.06-26,19.9-37.83s14.88-22.1,21.87-32,13.53-19.08,19.32-27.59c11.56-17,20.44-31.16,26.22-41.12,2.91-5,5.06-8.89,6.5-11.56l1.63-3A8.1,8.1,0,0,1,1120.49,834.69Z"/><path class="cls-6" d="M838,969.41c.12.21-1.45,1.1-3.33,3.19a16.52,16.52,0,0,0-1.86,20.08c1.46,2.4,2.85,3.56,2.69,3.74s-1.74-.78-3.52-3.18a16.13,16.13,0,0,1,2-21.34C836.09,969.86,837.89,969.27,838,969.41Z"/><path class="cls-6" d="M856.74,1000.34a6.77,6.77,0,0,1,1.6.37c.51.13,1.14.35,1.9.52l2.64.48a37.79,37.79,0,0,0,16.85-1.56,62.16,62.16,0,0,0,21.69-12.75c7.16-6.33,13.6-14.77,20.33-23.59s13.47-17.18,20.94-23.42c3.71-3.11,7.35-5.87,10.38-8.83a29.51,29.51,0,0,0,6.81-9.39c2.56-6.72.84-13-1.57-16.09s-5-3.48-4.92-3.68a6.75,6.75,0,0,1,1.58.46,10.55,10.55,0,0,1,3.77,2.88c2.67,3.13,4.65,9.65,2.08,16.79a30,30,0,0,1-6.93,9.87c-3.06,3.07-6.71,5.88-10.35,9-7.31,6.19-14,14.43-20.66,23.28s-13.24,17.31-20.6,23.71A61.82,61.82,0,0,1,880,1001.11a36.89,36.89,0,0,1-17.23,1.15l-2.66-.62c-.75-.22-1.37-.48-1.88-.66A7,7,0,0,1,856.74,1000.34Z"/><path class="cls-6" d="M1047.25,693.23a10.8,10.8,0,0,1-1.14,1.65l-3.49,4.54c-3.11,3.88-7.39,9.66-12.6,16.85a552.17,552.17,0,0,0-36.36,59.07c-12.85,23.88-23.49,46-31.63,61.86-4,7.92-7.38,14.3-9.78,18.66l-2.77,5a10.53,10.53,0,0,1-1.05,1.7,9.77,9.77,0,0,1,.8-1.83l2.53-5.13,9.37-18.86c7.91-15.93,18.41-38.15,31.28-62.09a500.76,500.76,0,0,1,36.79-59c5.33-7.13,9.74-12.83,13-16.61q2.3-2.72,3.7-4.37A10.43,10.43,0,0,1,1047.25,693.23Z"/><g class="cls-10"><path d="M834.56,995.62c13.29,7.21,27.88,6.44,42.71,3.53a66.24,66.24,0,0,0,38.15-22.83c-2.58,12.95-8.13,25.61-17.57,34.84s-23.13,14.59-36.12,12.21-26.1-14.59-27.17-27.75"/></g><g class="cls-10"><path d="M960.23,917a58.63,58.63,0,0,1,8.1,43.94c11.25-17.23,13.9-39,10.87-59.41s-11.3-39.56-20.52-58c0,0-10.16,17.16-10.25,19.05-.5,9.91,3.15,28.57,5.07,38.3a21.36,21.36,0,0,1,6.19,19.24"/></g><g class="cls-10"><path d="M879.6,1066.93c27.09,21.12,67.29,22.11,96.93,4.76,28.54-16.71,46.11-46.79,62.43-75.56,25.25-44.54,56.06-99.62,74.1-147.54,0,0-50.57,69-65.81,98.73a491,491,0,0,1-34.49,58.09c-28.45,41.91-80,67-130.53,63.58"/></g><path class="cls-6" d="M825.24,1119.87a3.27,3.27,0,0,1,0-.85c0-.67,0-1.49,0-2.49.09-2.31.2-5.48.35-9.44.38-8.3.91-19.92,1.55-33.91l0,.2c-4.9-16.35-10.63-36.19-16.55-57.61-7.86-28.4-14.49-54.24-19-73-2.22-9.39-4-17-5-22.3q-.78-3.81-1.24-6.09a12,12,0,0,1-.34-2.15,11.89,11.89,0,0,1,.61,2.09q.57,2.25,1.5,6c1.34,5.38,3.2,12.92,5.49,22.18,4.71,18.72,11.48,44.5,19.34,72.89,5.92,21.42,11.55,41.27,16.3,57.65l0,.1v.1c-.84,14-1.55,25.6-2,33.88-.28,4-.5,7.12-.66,9.43-.09,1-.16,1.81-.22,2.48A3,3,0,0,1,825.24,1119.87Z"/><path class="cls-6" d="M1113.19,687.64c-.09.22-3-.79-7.68-2a91.57,91.57,0,0,0-18.78-2.59,90.09,90.09,0,0,0-18.91,1.47c-4.79.88-7.71,1.72-7.78,1.5a6.52,6.52,0,0,1,2-.86,49.71,49.71,0,0,1,5.6-1.63,74.85,74.85,0,0,1,38.17,1.15,49,49,0,0,1,5.49,1.95A6.66,6.66,0,0,1,1113.19,687.64Z"/><path class="cls-6" d="M1022,637.39a6.91,6.91,0,0,1-.73,1.41l-2.32,3.91c-2.05,3.37-5.08,8.21-8.93,14.13-7.71,11.82-18.74,27.91-31.79,45-10.5,13.82-20.66,26.21-29,35.92l-.59.68-.37-.8c-3.95-8.68-7.23-15.87-9.61-21.09-1.06-2.4-1.91-4.35-2.57-5.85a10.47,10.47,0,0,1-.8-2.11,11.13,11.13,0,0,1,1.1,2c.74,1.47,1.69,3.37,2.86,5.73l10.06,20.87-1-.13c8.19-9.81,18.26-22.24,28.74-36,13-17.11,24.17-33.08,32.09-44.75l9.29-13.87,2.55-3.76A6.4,6.4,0,0,1,1022,637.39Z"/><path class="cls-6" d="M1088.27,1076.92c-.39-.05.86-14.19,2.79-31.6s3.81-31.49,4.2-31.45-.86,14.19-2.79,31.61S1088.66,1077,1088.27,1076.92Z"/><path class="cls-6" d="M891,1073.21c.39,0,1.84,10.59,3.24,23.75s2.23,23.86,1.84,23.9-1.84-10.59-3.25-23.75S890.6,1073.25,891,1073.21Z"/><path class="cls-11" d="M1036.57,761.88a3.47,3.47,0,0,0-5.28-2.1l-.18.15a3.3,3.3,0,1,0,5.46,2Z"/><path class="cls-11" d="M1008.15,692.6a3.48,3.48,0,0,0-5.28-2.1l-.19.15a3.31,3.31,0,1,0,5.47,2Z"/><path class="cls-11" d="M942.93,748.38a3.49,3.49,0,0,0-5.29-2.1l-.18.16a3.31,3.31,0,1,0,5.47,1.94Z"/><path class="cls-11" d="M872.41,720.37a3.48,3.48,0,0,0-5.28-2.1l-.18.15a3.3,3.3,0,1,0,5.46,2Z"/><path class="cls-11" d="M859.94,692.76a3.49,3.49,0,0,0-5.29-2.1l-.18.15a3.31,3.31,0,1,0,5.47,2Z"/><path class="cls-11" d="M865.36,660.85a3.49,3.49,0,0,0-5.29-2.1l-.18.16a3.31,3.31,0,1,0,5.47,1.94Z"/><path class="cls-11" d="M826.31,704.74a3.49,3.49,0,0,0-5.29-2.1l-.18.15a3.31,3.31,0,1,0,5.47,2Z"/><path class="cls-11" d="M916.76,717.39a3.48,3.48,0,0,0-5.28-2.09l-.19.15a3.31,3.31,0,1,0,5.47,1.94Z"/><path class="cls-11" d="M840.18,774.27a3.49,3.49,0,0,0-5.29-2.1l-.18.15a3.31,3.31,0,1,0,5.47,1.95Z"/><path class="cls-11" d="M770.08,937.88a3.49,3.49,0,0,0-5.29-2.1l-.18.15a3.31,3.31,0,1,0,5.47,2Z"/><path class="cls-11" d="M795.09,843.52a3.49,3.49,0,0,0-5.29-2.1l-.18.15a3.31,3.31,0,1,0,5.47,1.95Z"/><path class="cls-11" d="M979.46,677.83a3.49,3.49,0,0,0-5.29-2.1l-.18.15a3.31,3.31,0,1,0,5.47,2Z"/><path class="cls-11" d="M1067.45,865.72a3.49,3.49,0,0,0-5.29-2.1l-.18.15a3.31,3.31,0,1,0,5.47,2Z"/><path class="cls-11" d="M1101.73,704a3.47,3.47,0,0,0-5.28-2.1l-.18.15a3.3,3.3,0,1,0,5.46,1.95Z"/><path class="cls-11" d="M1088.27,809.92a3.47,3.47,0,0,0-5.28-2.1l-.18.15a3.3,3.3,0,1,0,5.46,1.95Z"/><path class="cls-11" d="M1011.39,886.37a3.49,3.49,0,0,0-5.29-2.1l-.18.15a3.31,3.31,0,1,0,5.47,2Z"/><path class="cls-11" d="M1014.62,822.73a3.47,3.47,0,0,0-5.28-2.1l-.18.15a3.3,3.3,0,1,0,5.46,2Z"/><path class="cls-11" d="M1061,704.58a3.48,3.48,0,0,0-5.28-2.1l-.19.15a3.31,3.31,0,1,0,5.47,2Z"/><path class="cls-11" d="M998.57,642.91a3.48,3.48,0,0,0-5.29-2.09l-.18.15a3.31,3.31,0,1,0,5.47,1.94Z"/><path class="cls-11" d="M996.3,742.32a3.49,3.49,0,0,0-5.29-2.1l-.18.15a3.31,3.31,0,1,0,5.47,2Z"/><path class="cls-11" d="M916.58,1045.57a3.49,3.49,0,0,0-5.29-2.1l-.18.15a3.31,3.31,0,1,0,5.47,2Z"/><path class="cls-11" d="M825.13,995.7a3.48,3.48,0,0,0-5.28-2.1l-.18.16a3.3,3.3,0,1,0,5.46,1.94Z"/><path class="cls-11" d="M751.19,1020.14a3.48,3.48,0,0,0-5.28-2.1l-.19.16a3.31,3.31,0,1,0,5.47,1.94Z"/><path class="cls-11" d="M743.28,1062.26a3.48,3.48,0,0,0-5.29-2.1l-.18.15a3.31,3.31,0,1,0,5.47,2Z"/><path class="cls-11" d="M812.6,1076.37a3.47,3.47,0,0,0-5.28-2.1l-.18.15a3.3,3.3,0,1,0,5.46,1.95Z"/><path class="cls-11" d="M789.42,982.06a3.47,3.47,0,0,0-5.28-2.1l-.19.15a3.31,3.31,0,1,0,5.47,1.95Z"/><path class="cls-11" d="M874.48,1006a3.49,3.49,0,0,0-5.29-2.1l-.18.15a3.31,3.31,0,1,0,5.47,1.95Z"/><path class="cls-11" d="M1076.66,981.9a3.47,3.47,0,0,0-5.28-2.1l-.19.15a3.31,3.31,0,1,0,5.47,1.95Z"/><path class="cls-11" d="M951.56,1101.77a3.48,3.48,0,0,0-5.28-2.1l-.19.15a3.31,3.31,0,1,0,5.47,2Z"/><path class="cls-11" d="M1004.92,1035a3.49,3.49,0,0,0-5.29-2.1l-.18.15a3.31,3.31,0,1,0,5.47,2Z"/><path class="cls-11" d="M1036.61,1089.31a3.49,3.49,0,0,0-5.29-2.1l-.18.15a3.31,3.31,0,1,0,5.47,2Z"/><path class="cls-11" d="M948.43,805.11a3.49,3.49,0,0,0-5.29-2.1l-.18.15a3.31,3.31,0,1,0,5.47,2Z"/><path class="cls-11" d="M1020.18,943.65a3.48,3.48,0,0,0-5.28-2.1l-.19.16a3.31,3.31,0,1,0,5.47,1.94Z"/><path class="cls-11" d="M996.91,996.13a3.48,3.48,0,0,0-5.28-2.1l-.19.16a3.31,3.31,0,1,0,5.47,1.94Z"/><path class="cls-11" d="M1073.42,1038.28a3.48,3.48,0,0,0-5.28-2.1l-.18.15a3.3,3.3,0,1,0,5.46,2Z"/><path class="cls-11" d="M864.06,1099.13a3.49,3.49,0,0,0-5.29-2.1l-.18.15a3.31,3.31,0,1,0,5.47,2Z"/><path class="cls-11" d="M689.6,1083.21a3.49,3.49,0,0,0-5.29-2.1l-.18.16a3.31,3.31,0,1,0,5.47,1.94Z"/><path class="cls-11" d="M843.23,1054.56a3.48,3.48,0,0,0-5.28-2.1l-.19.15a3.31,3.31,0,1,0,5.47,2Z"/><path class="cls-11" d="M696.07,1023.38a3.48,3.48,0,0,0-5.28-2.1l-.19.16a3.31,3.31,0,1,0,5.47,1.94Z"/><path class="cls-11" d="M942,924.44a3.48,3.48,0,0,0-5.29-2.09l-.18.15a3.31,3.31,0,1,0,5.47,1.94Z"/><path class="cls-11" d="M890.5,774.27a3.49,3.49,0,0,0-5.29-2.1l-.18.15a3.31,3.31,0,1,0,5.47,1.95Z"/><path class="cls-11" d="M877.64,904.5a3.48,3.48,0,0,0-5.28-2.1l-.19.16a3.31,3.31,0,1,0,5.47,1.94Z"/><path class="cls-11" d="M856.7,862a3.48,3.48,0,0,0-5.28-2.1l-.18.16A3.3,3.3,0,1,0,856.7,862Z"/><path class="cls-11" d="M949.29,995.55a3.47,3.47,0,0,0-5.28-2.1l-.19.15a3.31,3.31,0,1,0,5.47,1.95Z"/><path class="cls-11" d="M884,969.35a3.48,3.48,0,0,0-5.29-2.1l-.18.15a3.31,3.31,0,1,0,5.47,2Z"/><path class="cls-11" d="M912,825.54a3.47,3.47,0,0,0-5.28-2.09l-.18.15a3.3,3.3,0,1,0,5.46,1.94Z"/><path class="cls-11" d="M812.6,927.37a3.47,3.47,0,0,0-5.28-2.1l-.18.15a3.3,3.3,0,1,0,5.46,2Z"/><path class="cls-11" d="M966,880.63a3.49,3.49,0,0,0-5.29-2.1l-.18.15a3.31,3.31,0,1,0,5.47,2Z"/><path class="cls-11" d="M1108.21,758.64a3.49,3.49,0,0,0-5.29-2.1l-.18.15a3.31,3.31,0,1,0,5.47,1.95Z"/><path class="cls-11" d="M1050.45,666.26a3.48,3.48,0,0,0-5.28-2.1l-.18.16a3.3,3.3,0,1,0,5.46,1.94Z"/><path class="cls-11" d="M938.52,677.83a3.49,3.49,0,0,0-5.29-2.1l-.18.15a3.31,3.31,0,1,0,5.47,2Z"/><path class="cls-6" d="M824.35,346.24c-21.47,13.66-30,42.29-26,59.21,2.07,8.53,5.94,17.1,4.25,25.71-1.46,7.44-6.81,13.39-10.81,19.83-13.35,21.47-11,51.52,5.56,70.64s45.94,25.78,69.1,15.66"/><path class="cls-6" d="M811.64,458c-52.22-114.87,72-172.58,139.79-153.43,63.71,18,90.88,49.69,101.36,92.3s10,88.79-6.72,129.39c-8.24,20-23.07,40.35-44.57,42.85"/><path class="cls-8" d="M872.83,738.49c-.9-54.88-1.54-130.27-1.56-130,0,0-47.17-7.83-56.94-69.38-4.86-30.61-3.33-80.8-.74-121.82,2.33-36.93,26.79-82.23,63.58-78.34l114.89,29a21.66,21.66,0,0,1,19.37,22h0l-7.49,237.63"/><path class="cls-6" d="M834.13,454.91a7.84,7.84,0,0,0,7.47,8,7.51,7.51,0,0,0,8.17-7,7.84,7.84,0,0,0-7.46-8A7.51,7.51,0,0,0,834.13,454.91Z"/><path class="cls-6" d="M915.69,454.91a7.84,7.84,0,0,0,7.47,8,7.51,7.51,0,0,0,8.17-7,7.85,7.85,0,0,0-7.46-8A7.5,7.5,0,0,0,915.69,454.91Z"/><path class="cls-6" d="M825.63,440.57c1,1.07,7.07-3.16,15.56-2.85s14.57,4.75,15.52,3.75c.47-.45-.46-2.34-3.11-4.41a21.67,21.67,0,0,0-12.38-4.27,20.77,20.77,0,0,0-12.43,3.56C826.11,438.27,825.17,440.1,825.63,440.57Z"/><path class="cls-6" d="M906.25,442.6c1,1,7-3.42,15.44-3.44s14.74,4.21,15.65,3.16c.45-.46-.54-2.31-3.28-4.28a21.65,21.65,0,0,0-12.53-3.8,20.85,20.85,0,0,0-12.29,4C906.65,440.28,905.77,442.14,906.25,442.6Z"/><path class="cls-6" d="M877.14,508c0-.48-5.24-1.39-13.79-2.49-2.17-.22-4.23-.65-4.59-2.13s.39-3.91,1.45-6.43l6.41-16.52c8.91-23.51,15.36-42.85,14.41-43.2s-8.95,18.43-17.85,41.94Q860,487.88,857,495.8c-.82,2.46-2.23,5.26-1.12,8.51a5.41,5.41,0,0,0,3.56,3.17,14.32,14.32,0,0,0,3.69.51C871.77,508.46,877.11,508.5,877.14,508Z"/><path class="cls-9" d="M871.27,608.53s41.41,2.67,82.44-22c0,0-20.83,42.82-82.44,37.06Z"/><path class="cls-6" d="M904.15,430.52c.84,2.31,9.32,1.22,19.28,2.42,10,1,18,3.92,19.35,1.85.59-1-.81-3.17-4.06-5.4a33.79,33.79,0,0,0-29.43-3.25C905.63,427.61,903.79,429.43,904.15,430.52Z"/><path class="cls-6" d="M827.6,419.23c1.49,1.93,7.34-.08,14.38-.17,7-.34,13,1.3,14.37-.72.6-1-.34-2.91-2.94-4.74a20.83,20.83,0,0,0-23.17.72C827.76,416.3,826.94,418.29,827.6,419.23Z"/><path class="cls-8" d="M1000.87,471c.9-.43,32.95-14.6,33.32,22.24s-36.7,29.63-36.77,28.57S1000.87,471,1000.87,471Z"/><path class="cls-9" d="M1008.53,507.75c.17-.12.65.44,1.74.93a6.43,6.43,0,0,0,4.8.05c3.88-1.47,7.09-7.69,7.2-14.33a21.12,21.12,0,0,0-1.89-9.17c-1.15-2.69-2.91-4.55-4.87-4.88a3.29,3.29,0,0,0-3.78,1.8c-.48,1-.24,1.77-.43,1.83s-.8-.61-.52-2.13a4.16,4.16,0,0,1,1.43-2.33,4.9,4.9,0,0,1,3.54-1c2.84.17,5.43,2.76,6.76,5.65a21.65,21.65,0,0,1,2.33,10.24c-.16,7.43-3.89,14.42-9.2,16a6.89,6.89,0,0,1-5.88-.91C1008.61,508.64,1008.41,507.82,1008.53,507.75Z"/><path class="cls-6" d="M864.9,320.81c-20.5,10.6-28.94,52.54-20.45,74s31.34,31.94,53.88,36.88S943,437.22,965.2,431c1.55,15,10.51,30.3,25,34.24,19.2,5.23,38.56-12.36,42.83-31.8s-2.13-39.45-8.46-58.32"/><path class="cls-6" d="M1027.49,454.53c.09.11-.92,1.07-2.84,2.68a96.68,96.68,0,0,1-8.5,6.41,52.13,52.13,0,0,1-14.33,6.94c-5.76,1.66-12.82,2.27-19.55-.29a30.29,30.29,0,0,1-14.8-12.8,41,41,0,0,1-5.31-15,54.87,54.87,0,0,1-.58-10.67c.12-2.52.35-3.89.49-3.89.4,0,0,5.6,1.58,14.3a42.08,42.08,0,0,0,5.48,14.27A29.08,29.08,0,0,0,983,468.28c6.15,2.35,12.75,1.88,18.28.39a54.7,54.7,0,0,0,14-6.32C1022.87,457.64,1027.27,454.22,1027.49,454.53Z"/><path class="cls-9" d="M879.65,531.68a35.49,35.49,0,0,0,4.58,9c2.07,2.66,5.11,4.76,8.48,4.92a10.69,10.69,0,0,0,9-4.93,17.1,17.1,0,0,0,2.52-10.29c-.14-3.24-1.63-7.11-4.85-7.5a8.25,8.25,0,0,0-3.92.87l-16.94,6.87"/><path class="cls-6" d="M886.42,545.62c.09-.53,3.81,1,9-1.11a12.93,12.93,0,0,0,6.83-6.21,13.59,13.59,0,0,0,.22-11.09,12.06,12.06,0,0,0-1.47-2.53c-.68-.7-.55-.67-1.28-.57s-1.81.72-2.72,1.07l-2.78,1.13c-3.63,1.47-6.91,2.75-9.69,3.79-5.54,2.07-9.06,3.16-9.22,2.78s3-2.17,8.38-4.75c2.67-1.29,5.87-2.77,9.43-4.38l2.75-1.23a31.27,31.27,0,0,1,3.09-1.27,4,4,0,0,1,2.52.07,4.67,4.67,0,0,1,1.87,1.48,14.84,14.84,0,0,1,1.9,3.21,15.9,15.9,0,0,1-.52,13.56,14.47,14.47,0,0,1-8.6,6.95,13.65,13.65,0,0,1-7.34.29C887.14,546.36,886.36,545.79,886.42,545.62Z"/><path class="cls-7" d="M1042.19,445.79c-3.77-.27-34.2,3.67-31.81,60.25,2.24,52.84,39.31,41.2,51.14,21.31C1072.73,508.5,1079.2,448.39,1042.19,445.79Z"/><path class="cls-7" d="M1061,452.47a7,7,0,0,1-.14-1.49c0-1.1-.11-2.52-.18-4.3-.11-3.91-.26-9.35-.45-16.12-.28-13.89-.67-33.19-1.11-55.48l.68.67-15.69,0,.7-.72c.12,4.21.24,8.65.36,13.16.53,21.23,1,41,1.43,57.55v.49l-.47.11a28.54,28.54,0,0,0-16.16,10.4,38,38,0,0,0-6.46,13.65,57.46,57.46,0,0,0-1.66,9.66c-.1,1.13-.16,2-.19,2.59a3.78,3.78,0,0,1-.08.88,2.64,2.64,0,0,1-.1-.89c0-.58,0-1.46,0-2.6a49.83,49.83,0,0,1,1.35-9.81,38,38,0,0,1,6.35-14.06,29.42,29.42,0,0,1,16.66-11l-.45.59c-.48-16.54-1.05-36.31-1.66-57.54-.12-4.51-.23-8.95-.35-13.17v-.72h.72l15.69,0h.67v.67c.25,22.3.46,41.6.61,55.5,0,6.77,0,12.21.05,16.12,0,1.78,0,3.21,0,4.31A7.49,7.49,0,0,1,1061,452.47Z"/><path class="cls-7" d="M1042.19,375.07s-15.91-37.26-53.84-55.64c-18.38-8.9-32.12-13.49-45.44-16.84,0,0,22.13-5.26,57.93,10.67,16.27,7.24,32.66,16.67,43.5,30.8,6.89,9,15.48,26.51,15.47,31Z"/><path class="cls-11" d="M944,826.1a5,5,0,0,1,.67-.75c.46-.48,1.18-1.16,2.06-2.12a100.55,100.55,0,0,0,7.36-8.73A143.58,143.58,0,0,0,964,799.24c3.56-6.18,7.25-13.47,11.26-21.62,8-16.3,17.35-36,27-58.68q7.25-17,14.62-36l3.67-9.61a55.86,55.86,0,0,1,4.37-9.66,19.92,19.92,0,0,1,7.92-7.52,11,11,0,0,1,5.54-1.41,5.53,5.53,0,0,1,2.9,1,6.28,6.28,0,0,1,1.84,2.45l.09.18,0,.21a9.59,9.59,0,0,1-1.46,3.64,5.72,5.72,0,0,1-3.41,2.23,12.16,12.16,0,0,1-7.6-1.4A12,12,0,0,1,1024,649.9a10.67,10.67,0,0,1,4.42-6.65,12.39,12.39,0,0,1,7.75-2.21c2.69.17,5.65,1.27,7.15,3.94a4.13,4.13,0,0,1-.28,4.45,7.92,7.92,0,0,1-3.46,2.52,11.38,11.38,0,0,1-13.06-3.7,9.65,9.65,0,0,1-1.77-6.88,11.76,11.76,0,0,1,2.83-6.42,9.83,9.83,0,0,1,6.14-3.39,7.88,7.88,0,0,1,6.63,2.27,5,5,0,0,1,1.3,3.49,4.67,4.67,0,0,1-1.57,3.35,7.68,7.68,0,0,1-6.66,1.8,8.41,8.41,0,0,1-5.31-4.26,17.85,17.85,0,0,1-2-6.29c-.54-4.26-.48-8.74,1.45-12.72a9.52,9.52,0,0,1,4.65-4.59,8.62,8.62,0,0,1,6.47.21c1.95.85,3.89,2.62,4,5a5.61,5.61,0,0,1-3.45,5.33,7,7,0,0,1-6.28-.09,8.59,8.59,0,0,1-3.87-4.79,11.91,11.91,0,0,1-.37-6,26.92,26.92,0,0,1,1.26-5.66,10.34,10.34,0,0,1,3.3-4.82,13.42,13.42,0,0,1,5.14-2.55,5.64,5.64,0,0,1,3,0,6.46,6.46,0,0,1,2.49,1.59,7.18,7.18,0,0,1,1.61,2.41,4,4,0,0,1,.09,3c-.8,2.06-3.11,2.74-4.87,2.69a9,9,0,0,1-5.12-1.71,14,14,0,0,1-5.48-8.58,14.52,14.52,0,0,1,1.15-9.71,11.24,11.24,0,0,1,3.06-3.75,10.22,10.22,0,0,1,4.36-1.88,7.08,7.08,0,0,1,4.63.65,4.87,4.87,0,0,1,2.51,3.87,6.83,6.83,0,0,1-5.14,6.54c-2.93.77-5.74-.81-7.41-2.78a12,12,0,0,1-2.8-7c-.23-5,1.72-9.14,2.67-13q1.67-5.88,3-10.73l4.25-14.83c.48-1.65.86-2.93,1.14-3.85s.43-1.3.43-1.3-.08.46-.29,1.34-.58,2.23-1,3.89l-4,14.9q-1.32,4.86-2.92,10.76c-.93,4-2.8,8.15-2.53,12.81a11.21,11.21,0,0,0,2.65,6.48c1.53,1.81,4.11,3.15,6.53,2.47s4.57-3,4.43-5.6a3.9,3.9,0,0,0-2-3.08,6.12,6.12,0,0,0-4-.52,9.26,9.26,0,0,0-3.91,1.71,10.35,10.35,0,0,0-2.75,3.41,13.5,13.5,0,0,0-1,9,12.91,12.91,0,0,0,5,7.88,7.92,7.92,0,0,0,4.48,1.5c1.57,0,3.28-.59,3.78-2s-.33-3-1.45-4.16a5.34,5.34,0,0,0-2-1.28,4.47,4.47,0,0,0-2.37.06c-3.32.86-6.49,3.13-7.54,6.61a25.86,25.86,0,0,0-1.18,5.39,10.64,10.64,0,0,0,.33,5.39,7.24,7.24,0,0,0,3.28,4.07,5.68,5.68,0,0,0,5.1,0,4.29,4.29,0,0,0,2.69-4.08c0-1.73-1.52-3.15-3.2-3.89a7.3,7.3,0,0,0-5.45-.18,8.22,8.22,0,0,0-3.93,4c-1.73,3.54-1.83,7.84-1.3,11.9a16.24,16.24,0,0,0,1.84,5.79,7.06,7.06,0,0,0,4.39,3.6,6.37,6.37,0,0,0,5.42-1.45,3.4,3.4,0,0,0,.18-4.89,6.54,6.54,0,0,0-5.43-1.81,8.4,8.4,0,0,0-5.22,2.92c-2.75,3.09-3.55,8.15-1,11.53a10,10,0,0,0,11.39,3.23,6.59,6.59,0,0,0,2.83-2,2.68,2.68,0,0,0,.19-3c-1.1-2-3.61-3.06-6-3.19-4.83-.33-9.86,3-10.7,7.73a10.56,10.56,0,0,0,6,11.67c2.13,1,4.54,1.75,6.68,1.3s3.41-2.54,3.82-4.76l0,.39a4.08,4.08,0,0,0-3.56-2.66,9.75,9.75,0,0,0-4.83,1.25,18.56,18.56,0,0,0-7.39,7,54.43,54.43,0,0,0-4.28,9.42c-1.24,3.24-2.48,6.44-3.69,9.61-4.92,12.66-9.87,24.69-14.73,36C993.66,742,984.25,761.76,976.1,778c-4.08,8.13-7.83,15.4-11.46,21.58a136.67,136.67,0,0,1-10.16,15.2C948.31,822.68,944,826.1,944,826.1Z"/><path class="cls-7" d="M1075.22,419.26c-.24.05.12-3.86-2.48-10.08s-8.71-14.39-19.56-19.6a52.6,52.6,0,0,0-18.86-4.61,88.78,88.78,0,0,0-22.37,1.71c-15.63,2.87-32,9.62-50.41,12.38a102.43,102.43,0,0,1-27,0,109.13,109.13,0,0,1-24.26-6.58A107.16,107.16,0,0,1,875,369.12a95,95,0,0,1-17.11-22.89,30,30,0,0,1-2-4c-.51-1.16-1-2.17-1.33-3s-.57-1.37-.78-1.87-.25-.64-.22-.65a2.57,2.57,0,0,1,.35.6l.92,1.8c.4.83.88,1.81,1.44,2.95a32.47,32.47,0,0,0,2.11,3.93,98.9,98.9,0,0,0,17.34,22.45,106.46,106.46,0,0,0,59.07,29.25,102.07,102.07,0,0,0,26.6,0c18.13-2.72,34.56-9.43,50.37-12.27a89.91,89.91,0,0,1,22.69-1.6,53.34,53.34,0,0,1,19.22,4.89c11,5.44,17.23,14,19.64,20.29a29.28,29.28,0,0,1,1.89,7.57c0,.82.07,1.49.09,2A1.91,1.91,0,0,1,1075.22,419.26Z"/><path class="cls-7" d="M1034.09,360.52a10.91,10.91,0,0,1-2,.34c-1.28.18-3.18.46-5.6.88-4.86.81-11.82,2.36-20.38,4.49s-18.81,4.69-30.48,5.9a153.26,153.26,0,0,1-38-.82,160.76,160.76,0,0,1-36.73-9.88,157,157,0,0,1-27.56-14.31c-3.66-2.48-7-4.78-9.71-6.95s-5.13-4.06-6.93-5.76l-4.14-3.9a10,10,0,0,1-1.38-1.43,10.29,10.29,0,0,1,1.57,1.22l4.31,3.69c1.85,1.63,4.32,3.37,7,5.55s6.1,4.32,9.77,6.74a164.42,164.42,0,0,0,64,23.62,155.79,155.79,0,0,0,37.68.93c11.56-1.13,21.78-3.58,30.38-5.58s15.62-3.41,20.52-4.06c2.45-.34,4.36-.53,5.66-.61A10,10,0,0,1,1034.09,360.52Z"/><path class="cls-6" d="M1038.14,543.15c0,.05-.38-.06-1.06-.31a16.38,16.38,0,0,1-2.83-1.46,24.9,24.9,0,0,1-8-8.51c-2.55-4.29-4.25-10.1-4.89-16.59a121.17,121.17,0,0,1,0-21.15,129.23,129.23,0,0,1,3.51-20.84c1.58-6.29,3.48-11.93,6.08-16.18a25,25,0,0,1,8-8.47,16.93,16.93,0,0,1,2.85-1.43,3.16,3.16,0,0,1,1.07-.3c0,.12-1.4.63-3.61,2.19a26.06,26.06,0,0,0-7.46,8.51c-2.42,4.19-4.18,9.73-5.69,16a135.91,135.91,0,0,0-3.35,20.64,127.14,127.14,0,0,0-.09,20.9,41,41,0,0,0,4.47,16.22,25.67,25.67,0,0,0,7.41,8.55C1036.75,542.51,1038.2,543,1038.14,543.15Z"/><rect class="cls-7" x="881.16" y="537.28" width="44.04" height="16.6" rx="2.85" transform="translate(-88.16 184.14) rotate(-11.1)"/><path class="cls-7" d="M920.9,538.89l129.33-40.57a6.08,6.08,0,0,1,7.63,4h0a6.1,6.1,0,0,1-4.22,7.75L921.39,545.75Z"/><path class="cls-6" d="M1016.49,521.06a26.54,26.54,0,0,1,4.28-1.51l11.83-3.6c5-1.54,11.05-3.15,17.5-5.26a11.87,11.87,0,0,0,4.23-2.61,6.5,6.5,0,0,0,1.82-4.5,3.91,3.91,0,0,0-2.67-3.7,10,10,0,0,0-5.41.16l-38.77,12.48-11.81,3.65a28.11,28.11,0,0,1-4.39,1.15,27.56,27.56,0,0,1,4.22-1.68l11.66-4.08c9.91-3.36,23.48-8,38.75-12.89a11,11,0,0,1,6.22-.12,5.32,5.32,0,0,1,3.59,5,7.81,7.81,0,0,1-2.24,5.48,12.91,12.91,0,0,1-4.74,2.88c-6.68,2.12-12.64,3.58-17.69,5l-11.95,3.17A28.4,28.4,0,0,1,1016.49,521.06Z"/><path class="cls-6" d="M805,422c4.43,15.55-11.37,28.87-16.93,44.05-5.38,14.67-.8,31.11,5.82,45.27s15.34,27.58,18.73,42.84C821,591.76,787,632.29,793.45,670.27c2.36,13.84,7.93,28.27,12.77,41.45s4.49,25.23,0,38.53c-7.35,21.75-19.84,32-28.62,53.22-4.5,10.85-4.14,23-3.92,34.74s.14,24-5.08,34.5-17.18,18.65-28.52,15.6c11.86,14,33.78,18.13,49.94,9.51,14.92-8,23.26-24.1,30.4-39.42C855,784.22,873.27,778,872.32,696.13c-.06-5.27-1.05-87.22-1.05-87.22s-12.94-3.46-20.4-8.6c-38.61-26.65-40-74.15-39.71-110.95"/><path class="cls-8" d="M882.28,670.27v30.88S858.52,822.3,851.39,889.61s-8.33,85.06-8.33,85.06,17,26.59,52.68-18.55,42-52.26,56.22-53c0,0-17.42-189.25-16.63-196.38s6.33-13.46,6.33-13.46Z"/><path class="cls-8" d="M929,600.59s-38.8,51.47-42,58.59-4.75,11.09-4.75,11.09l59.38,23,57.81-63.34,21.38-56.22-6.34-66.52s-12.67-.79-15,10.3a83.91,83.91,0,0,0-1.59,21.38l-17.74-14.26-28.58-8.71s-6.73,11.09,4.36,16.63S970.17,538,970.17,538l10,17.42L975.78,575l-20.21-19a11.59,11.59,0,0,0-14.74-.92l-13.05,9.49-12.25-5.46L891.78,580l-9.5,8.71s6.33,11.88,19,6.34L914,589.5Z"/><path class="cls-9" d="M882.28,680.69a15.87,15.87,0,0,1,0-1.65c0-1.09.13-2.71.39-4.83a57.86,57.86,0,0,1,1.49-7.76,34.72,34.72,0,0,1,4.16-10c8.88-13.64,22.86-32.61,40.3-56.19l.1.7-15.07-11.06.53.06-7.83,3.45c-2.67,1.11-5.28,2.53-8.34,3.25a13.59,13.59,0,0,1-9.27-1.05,17.14,17.14,0,0,1-7-6.65l-.23-.38.35-.34c10.22-9.58,21.57-19.28,33.23-29.63l.36-.31.4.24,10.55,6.23h-.7l12.34-8.12c2.13-1.37,4.09-2.76,6.4-4.13a7.69,7.69,0,0,1,7.94.69l24,20.31-1.13.38c1.31-5.87,2.72-12.22,4.15-18.64l.08.5-10-17.41.62.35a21.26,21.26,0,0,1-4.92-1.32c-1.57-.58-3.12-1.23-4.66-1.92s-3.09-1.44-4.63-2.2c-.77-.38-1.54-.88-2.31-1.32a14.06,14.06,0,0,1-2.06-1.8,10,10,0,0,1-2.74-7.27,16,16,0,0,1,2.1-7.41l.27-.48.55.16,28.58,8.72.13,0,.1.08,17.74,14.26-1.13.6a84.45,84.45,0,0,1,1.51-21.08,12.8,12.8,0,0,1,5.78-8.77,18.37,18.37,0,0,1,10.07-2.55l.57,0,.06.59c2.22,23.64,4.32,45.92,6.26,66.52v.14l-.05.13c-7.92,20.72-15.1,39.52-21.48,56.18l0,.09-.06.07-44.89,48.86-12.17,13.15-3.18,3.38c-.72.76-1.12,1.12-1.12,1.12s.33-.42,1-1.21l3.09-3.48,12-13.33,44.55-49.15-.09.15,21.28-56.26,0,.27c-2-20.59-4.13-42.86-6.4-66.5l.62.6a17.06,17.06,0,0,0-9.27,2.35,11.42,11.42,0,0,0-5.16,7.9,83,83,0,0,0-1.46,20.7l.08,1.57-1.21-1L979.7,525.12l.24.13-28.59-8.71.82-.31a14.6,14.6,0,0,0-1.9,6.7,8.62,8.62,0,0,0,2.37,6.29,13.12,13.12,0,0,0,1.81,1.59c.72.4,1.38.85,2.14,1.22,1.53.75,3,1.49,4.58,2.17a39.63,39.63,0,0,0,9,3.13l.45.06.16.29c3.43,6,6.82,11.92,10,17.42l.14.24-.06.27c-1.44,6.41-2.86,12.77-4.17,18.63l-.25,1.13-.88-.75-23.94-20.27a6.35,6.35,0,0,0-6.54-.58c-2,1.2-4.19,2.72-6.26,4l-12.36,8.11-.34.22-.35-.21-10.54-6.25.76-.07c-11.68,10.32-23.05,20-33.28,29.54l.12-.72a16.05,16.05,0,0,0,6.44,6.17,12.39,12.39,0,0,0,8.51,1c2.8-.63,5.46-2,8.14-3.15l7.84-3.42.29-.12.25.18,15,11.12.4.3-.3.4c-17.52,23.48-31.64,42.38-40.62,55.88a34.33,34.33,0,0,0-4.23,9.79,60.7,60.7,0,0,0-1.61,7.69c-.3,2.1-.44,3.72-.53,4.8Z"/><path class="cls-9" d="M955.77,612.51c-.29,0,.76-4.2,1.2-11a24.75,24.75,0,0,0-1.88-11.44c-1.81-4-5.38-7.48-9.46-10.62a231.8,231.8,0,0,0-22-15l-7-4.1a12.07,12.07,0,0,1-2.5-1.61,12.11,12.11,0,0,1,2.76,1.12c1.74.81,4.21,2.06,7.21,3.72a180.6,180.6,0,0,1,22.35,14.72c4.13,3.19,7.89,6.86,9.77,11.2a24.73,24.73,0,0,1,1.69,12,54.22,54.22,0,0,1-1.34,8A12.31,12.31,0,0,1,955.77,612.51Z"/><path class="cls-9" d="M997.32,587.8c-.21,0,.36-2.75,1-7.12a113.56,113.56,0,0,0,1.22-17.2A112.35,112.35,0,0,0,998,546.3c-.72-4.36-1.34-7-1.13-7.1s1.13,2.55,2.12,6.91a84.95,84.95,0,0,1,.29,34.74C998.41,585.23,997.49,587.85,997.32,587.8Z"/><path class="cls-11" d="M732.63,385.83l-28.42-50.07a134.17,134.17,0,1,0-32.13,35.74l-.05.06Z"/><path class="cls-6" d="M732.63,385.83,672,371.91l-.53-.12.33-.44,0-.06.49.49a137.28,137.28,0,0,1-27.54,16.6A134.55,134.55,0,0,1,608,398.85a120.13,120.13,0,0,1-21.21,1.07c-3.64-.21-7.36-.3-11.1-.61l-11.31-1.71a135.07,135.07,0,0,1-83.66-53.73,133.38,133.38,0,0,1-22.63-51.72,136.54,136.54,0,0,1,1.59-59.55c5.06-19.8,14.53-39.15,28.69-55.06l5.47-6c1.8-2,3.94-3.69,5.89-5.54s3.88-3.75,6.07-5.3l6.42-4.8a57.09,57.09,0,0,1,6.65-4.4l6.8-4.13,7.11-3.45a61.89,61.89,0,0,1,7.17-3.19,136.59,136.59,0,0,1,60-9.22,132,132,0,0,1,55.08,16.27A135.85,135.85,0,0,1,718.64,226c4.63,15,5.88,29.8,5.83,43.55a133,133,0,0,1-6.55,37.6,135.61,135.61,0,0,1-13.42,28.83v-.35l28.12,50.24c-1.22-2.1-10.3-17.9-28.71-49.9l-.1-.18.1-.17a136.07,136.07,0,0,0,13.21-28.73,133.19,133.19,0,0,0,6.36-37.37c0-13.65-1.28-28.37-5.91-43.2a134.78,134.78,0,0,0-63.13-77.38,130.82,130.82,0,0,0-54.55-16.05A135.36,135.36,0,0,0,540.51,142a62.48,62.48,0,0,0-7.1,3.17l-7,3.41-6.72,4.09a57.14,57.14,0,0,0-6.58,4.35l-6.35,4.76c-2.17,1.53-4,3.5-6,5.24s-4,3.48-5.82,5.49l-5.41,5.95c-14,15.74-23.39,34.88-28.41,54.47a135.15,135.15,0,0,0-1.6,58.94,132.26,132.26,0,0,0,22.34,51.23,134.1,134.1,0,0,0,82.81,53.39l11.22,1.72c3.71.32,7.39.42,11,.64a119.29,119.29,0,0,0,21-1,133.65,133.65,0,0,0,36.51-10.27,137.35,137.35,0,0,0,27.46-16.36l2.14-1.64-1.64,2.13-.05.06-.2-.56Z"/><path class="cls-6" d="M561.08,265.61a10.88,10.88,0,1,1-10.88-10.87A10.88,10.88,0,0,1,561.08,265.61Z"/><path class="cls-6" d="M604.6,265.61a10.88,10.88,0,1,1-10.88-10.87A10.88,10.88,0,0,1,604.6,265.61Z"/><path class="cls-6" d="M648,260.17a10.87,10.87,0,1,1-14.85-4A10.87,10.87,0,0,1,648,260.17Z"/><path class="cls-6" d="M244.9,525.7c0,7.13,5.34,432.8,5.34,432.8l316.15,76.07h26.15L575.9,440.29H552.13Z"/><path class="cls-6" d="M311.76,940.68l-98,179.6h89.56c-16-1.6,141.82,0,141.82,0l-141.82-37.61L347.68,982l-3.79-41.27Z"/><polygon class="cls-6" points="313.94 973.83 303.33 639.12 399.6 629.89 411.47 987.28 377.08 989.02 313.94 973.83"/><path class="cls-7" d="M424.93,1000.54s0-.53-.06-1.56,0-2.6-.06-4.59c0-4.08-.06-10-.11-17.78-.05-15.56-.11-38.17-.2-66.58-.06-56.89-.15-137-.25-229.8l.68.68-113.6,0,.71-.71v15.45c0,90.53-.08,174.8-.11,245v.16l-.08.13L240.8,1071.24l-19.9,36.29c-2.29,4.15-4.06,7.33-5.27,9.52s-1.86,3.23-1.86,3.23.55-1.14,1.7-3.32l5.12-9.6c4.53-8.44,11.16-20.75,19.61-36.44L310.81,940.4l-.07.28c0-70.2-.08-154.47-.12-245V679.52h.71l113.6,0h.68v.68c-.1,92.84-.19,172.91-.26,229.8-.08,28.41-.15,51-.19,66.58-.05,7.73-.09,13.7-.11,17.78q0,3-.06,4.59C425,1000,424.93,1000.54,424.93,1000.54Z"/><path class="cls-7" d="M347.68,982c.36.16-13.28,31.68-30.45,70.4s-31.4,70-31.76,69.83,13.28-31.68,30.46-70.41S347.32,981.79,347.68,982Z"/><path class="cls-7" d="M566.39,1034.57s0-.52-.08-1.53,0-2.56-.09-4.49c0-4-.11-9.82-.2-17.28-.12-15-.45-36.7-1-63.52-1-53.64-3.44-127.71-6.41-209.51s-5.24-155.93-6-209.59c-.4-26.82-.58-48.53-.53-63.53,0-7.46,0-13.27.06-17.28,0-1.93,0-3.42.05-4.49s.07-1.53.07-1.53.05.52.08,1.53,0,2.56.09,4.49c0,4,.12,9.82.21,17.27.11,15,.45,36.71,1,63.53,1,53.63,3.44,127.71,6.42,209.54s5.23,155.9,6,209.55c.4,26.83.59,48.54.53,63.54,0,7.46-.05,13.27-.06,17.28,0,1.93,0,3.43,0,4.49S566.39,1034.57,566.39,1034.57Z"/><path class="cls-7" d="M407.68,677.76c.39,0,.71,71.19.71,159s-.32,159-.71,159-.71-71.17-.71-159S407.29,677.76,407.68,677.76Z"/><path class="cls-7" d="M237.33,1092.25a14.13,14.13,0,0,1-1.36-1.9L234.4,1088a27,27,0,0,1-2-3.33,83.65,83.65,0,0,1-8.64-23c-2.33-10.17-3.12-22.73-1.69-36.44a144.81,144.81,0,0,1,11.81-43.08,89,89,0,0,1,12.36-19.66,51.33,51.33,0,0,1,3.61-4.26c1.25-1.35,2.46-2.73,3.72-4,2.62-2.48,5.09-5,7.79-7.17a125.57,125.57,0,0,1,15.84-11.48c2.68-1.48,5.22-3,7.77-4.27s5-2.52,7.44-3.4c9.66-3.93,18-5.83,23.77-6.33a49.34,49.34,0,0,1,6.69-.41,13.79,13.79,0,0,1,2.33,0,13.91,13.91,0,0,1-2.32.26,59.2,59.2,0,0,0-6.63.67,89.57,89.57,0,0,0-23.45,6.71c-2.42.9-4.78,2.26-7.33,3.44s-5,2.82-7.66,4.3A127.72,127.72,0,0,0,262.25,948c-2.66,2.14-5.09,4.67-7.67,7.13-1.24,1.28-2.43,2.65-3.66,4a51.85,51.85,0,0,0-3.56,4.22,88.93,88.93,0,0,0-12.15,19.38,146.32,146.32,0,0,0-11.8,42.63,114.53,114.53,0,0,0,1.37,36.08,87,87,0,0,0,8.15,23,27.64,27.64,0,0,0,1.84,3.37l1.44,2.43A14.35,14.35,0,0,1,237.33,1092.25Z"/></g></g></svg>