<svg xmlns="http://www.w3.org/2000/svg" viewBox="0 0 1772.42 1109.63"><defs><style>.cls-1{fill:#e1e1e1;}.cls-2{fill:#ececec;}.cls-3{fill:#f5f5f5;}.cls-4{fill:#007cff;}.cls-5{fill:#0b2535;}.cls-6{fill:#10273b;}.cls-7{fill:#fafafa;}.cls-8{fill:#ff4f5b;}.cls-9{opacity:0.5;}.cls-10{fill:#ffbf9d;}.cls-11{opacity:0.3;}.cls-12{opacity:0.2;}.cls-13{opacity:0.6;}.cls-14{fill:#fff;}.cls-15{fill:#ff9a6c;}</style></defs><title>Zasób 38</title><g id="Warstwa_2" data-name="Warstwa 2"><g id="DESIGNED_BY_FREEPIK" data-name="DESIGNED BY FREEPIK"><path class="cls-1" d="M664.19,1057.68A146.19,146.19,0,0,0,593,984.52c-31.5-14.75-101.8-7.9-101.8-7.9l-184.73-.38c3.78,16.23,15.82,57.89,24.81,71.91s22.27,25.85,38.3,30.38c19.62,5.55,40.4-.19,60.74-1.51,35.8-2.3,70.83,9.25,105.31,19.19s71,18.41,105.91,10c9.9-2.4,20.27-6.81,25.08-15.79C671.92,1080.4,668.72,1068.06,664.19,1057.68Z"/><path class="cls-2" d="M97,402.78s-21-1.51-19.08,45.62,6.74,72.25,6.74,72.25-.61,10.45-8.71,8.4-23.32-12.23-30.84-4.62c-7.8,7.88-5,20,5.32,34.22s31.87,46.29,33.8,49.2,2.66,8.2-3.08,7.68-44.46-13.64-49.59,5.11,30.21,53.7,34,57.6,4,6.35,2.46,8.71-14.14-3.28-25.31-6.56S18,675.26,15.92,686.32s13.52,43.45,71.81,77.49l28.05,14,26.54-16.93c54.6-39.7,66.85-73.48,63.7-84.28s-16.42-7.62-27.2-3.23-22.76,11.25-24.53,9.06-1.8-4.66,1.58-8.91,35-42.57,28.07-60.71-44.2-1.21-49.86-.12-5.43-4.32-3.83-7.34S150.09,568.23,159,553s10.42-27.52,1.87-34.59c-8.24-6.81-22.38,4.83-30.22,7.68s-9.51-7.48-9.51-7.48,2.27-25.47-.52-72.56-24-43.29-24-43.29"/><path class="cls-1" d="M98.62,445s0,.33.11,1,.13,1.66.22,2.89c.18,2.6.43,6.34.76,11.13.64,9.67,1.47,23.67,2.42,41,1.93,34.6,4.17,82.41,6.48,135.22s4.44,100.64,6.16,135.24c.88,17.26,1.59,31.25,2.09,41,.24,4.8.42,8.55.55,11.14,0,1.24.09,2.2.12,2.9s0,1,0,1,0-.33-.11-1-.13-1.66-.22-2.89c-.18-2.6-.43-6.34-.76-11.13-.64-9.67-1.47-23.66-2.42-41-1.93-34.6-4.17-82.41-6.48-135.24S103.1,535.6,101.38,501c-.88-17.26-1.59-31.25-2.09-41-.24-4.8-.42-8.55-.55-11.14,0-1.24-.09-2.2-.12-2.9S98.62,445,98.62,445Z"/><path class="cls-1" d="M65.8,539.51A9.44,9.44,0,0,1,67.54,541c1.08,1,2.6,2.44,4.45,4.27,3.7,3.67,8.68,8.86,14.06,14.7l13.72,15,4.18,4.53a10.23,10.23,0,0,1,1.46,1.73,8.86,8.86,0,0,1-1.76-1.43c-1.08-1-2.59-2.45-4.43-4.3-3.66-3.71-8.57-9-14-14.81l-13.82-14.9-4.2-4.51A8.56,8.56,0,0,1,65.8,539.51Z"/><path class="cls-1" d="M108.19,580.29c-.21-.21,10-10.95,22.9-24s23.47-23.44,23.68-23.23-10.05,10.94-22.91,24S108.4,580.5,108.19,580.29Z"/><path class="cls-1" d="M108.07,661.56a9.67,9.67,0,0,1,2-1.25l5.48-3.07c4.63-2.61,11-6.22,17.91-10.46s13-8.26,17.44-11.21l5.23-3.49a9.4,9.4,0,0,1,2-1.18,9.88,9.88,0,0,1-1.75,1.51c-1.17.92-2.89,2.22-5.05,3.78-4.3,3.12-10.38,7.27-17.31,11.51s-13.38,7.77-18.11,10.21c-2.37,1.2-4.3,2.16-5.65,2.78A10,10,0,0,1,108.07,661.56Z"/><path class="cls-1" d="M61.61,633.12a7.67,7.67,0,0,1,1.94.91c1.22.64,3,1.61,5.09,2.82,4.27,2.43,10.13,5.84,16.56,9.67s12.24,7.35,16.42,9.94c2.08,1.3,3.76,2.37,4.91,3.12a8.56,8.56,0,0,1,1.72,1.27,7.67,7.67,0,0,1-1.94-.91c-1.21-.64-3-1.61-5.08-2.82-4.27-2.43-10.13-5.84-16.57-9.67s-12.24-7.35-16.41-9.94c-2.09-1.3-3.76-2.37-4.91-3.12A8.49,8.49,0,0,1,61.61,633.12Z"/><path class="cls-1" d="M52.4,704.85A14.73,14.73,0,0,1,54.86,706l6.53,3.6c5.49,3.09,13,7.41,21.33,12.23s15.79,9.26,21.18,12.51l6.35,3.89a12.69,12.69,0,0,1,2.26,1.56,13.84,13.84,0,0,1-2.47-1.2l-6.53-3.6c-5.48-3.08-13-7.4-21.33-12.23S66.4,713.55,61,710.3l-6.36-3.89A13,13,0,0,1,52.4,704.85Z"/><path class="cls-1" d="M111.31,738.59a14.29,14.29,0,0,1,2.43-1.64l6.82-4.15c5.75-3.5,13.69-8.37,22.29-14s16.29-10.87,21.81-14.72l6.56-4.56A14.58,14.58,0,0,1,173.7,698a15.23,15.23,0,0,1-2.23,1.91c-1.48,1.17-3.65,2.83-6.36,4.83-5.42,4-13,9.4-21.67,15s-16.63,10.4-22.49,13.75c-2.94,1.66-5.33,3-7,3.86A17.32,17.32,0,0,1,111.31,738.59Z"/><polygon class="cls-1" points="153.46 786.99 75.87 786.99 101.19 978.68 128.13 978.68 153.46 786.99"/><path class="cls-3" d="M79.9,810.55s.08.27.41.68a4.88,4.88,0,0,0,1.87,1.34,9.39,9.39,0,0,0,8.2-1c3.13-1.72,5.86-5.12,10.06-6.62s9.32-1.3,14.26.29A60.51,60.51,0,0,1,128,811.66a92.29,92.29,0,0,0,10.8,5.8,29.75,29.75,0,0,0,8,2.3,13.85,13.85,0,0,0,2.25.15c.52,0,.79,0,.79-.06,0-.25-4.39-.21-10.64-3.21a104.4,104.4,0,0,1-10.57-6A58.84,58.84,0,0,0,115.08,804c-5.11-1.65-10.59-1.94-15.06-.17a20,20,0,0,0-5.67,3.51,44.06,44.06,0,0,1-4.44,3.44,9.12,9.12,0,0,1-7.55,1.31A7.74,7.74,0,0,1,79.9,810.55Z"/><path class="cls-3" d="M82.73,845.86c.1.06.61-.79,1.82-2.06a17.33,17.33,0,0,1,6.2-3.93,27.71,27.71,0,0,1,10.79-1.63,115.55,115.55,0,0,1,13.5,1.84,46.63,46.63,0,0,0,13.83.58,38.31,38.31,0,0,0,10.87-3.11,34.6,34.6,0,0,0,6.54-3.89,9,9,0,0,0,2.07-1.86c-.14-.21-3.14,2.47-9,4.93a39.73,39.73,0,0,1-10.65,2.77,47.8,47.8,0,0,1-13.49-.67c-4.78-.77-9.38-1.67-13.66-1.75a27.16,27.16,0,0,0-11.16,2,16.17,16.17,0,0,0-6.23,4.43A10.07,10.07,0,0,0,83,845.19C82.79,845.61,82.69,845.83,82.73,845.86Z"/><path class="cls-3" d="M144.67,864.76a6.45,6.45,0,0,0-2.14-1.12,22.92,22.92,0,0,0-6.43-1.37,40.9,40.9,0,0,0-9.72.55c-3.62.59-7.5,1.59-11.57,2.45a48.8,48.8,0,0,1-11.56,1.31,25.15,25.15,0,0,1-9.17-2c-5-2.19-6.77-5.38-7-5.18a6.05,6.05,0,0,0,1.32,2,16.51,16.51,0,0,0,5.26,4,24.83,24.83,0,0,0,9.5,2.33,46.59,46.59,0,0,0,11.87-1.23c4.12-.87,8-1.9,11.51-2.54a44.37,44.37,0,0,1,9.47-.81C141.49,863.34,144.59,865,144.67,864.76Z"/><path class="cls-3" d="M89.58,891.34a12.52,12.52,0,0,1,7.53-.76,36.64,36.64,0,0,1,7.89,2.94,29.92,29.92,0,0,0,10.23,2.82,30.72,30.72,0,0,0,18.56-4.3,27.47,27.47,0,0,0,4.62-3.55c.94-1,1.42-1.59,1.36-1.65s-2.21,2.11-6.43,4.42a31.84,31.84,0,0,1-18,3.82c-7.35-.42-13-4.8-18.08-5.38a11.46,11.46,0,0,0-5.85.51A3.9,3.9,0,0,0,89.58,891.34Z"/><path class="cls-3" d="M93.9,928.13c0,.15,2.61.13,6.47-1.28s8.73-4.3,14.37-6.53a23.2,23.2,0,0,1,8.24-1.73,15.16,15.16,0,0,1,6.63,1.51c3.57,1.78,4.6,4.3,4.79,4.14s-.1-.66-.73-1.64a10.79,10.79,0,0,0-3.64-3.29,15.17,15.17,0,0,0-7-1.89,23.25,23.25,0,0,0-8.71,1.71c-5.84,2.33-10.52,5.41-14.24,6.89S93.87,927.93,93.9,928.13Z"/><path class="cls-3" d="M97.71,945.25c0,.16,1.81.83,4.91,1.6a88.54,88.54,0,0,0,12.28,2.07,89.66,89.66,0,0,0,12.45.36c3.18-.15,5.14-.45,5.13-.61,0-.38-7.86,0-17.46-1S97.8,944.88,97.71,945.25Z"/><rect class="cls-3" x="1322.83" y="487.92" width="242.04" height="163.14" transform="translate(-90.59 335.98) rotate(-12.87)"/><path class="cls-1" d="M1544.85,464.75a18.24,18.24,0,0,1-1.72,2.62l-5.25,7.25c-4.78,6.44-11.46,15.44-19.67,26.47-16.9,22.41-40,53.08-65.69,87.05l-.54.71-.81-.39-2-.94-99.42-48.28-30-14.85-8.11-4.14a17.28,17.28,0,0,1-2.77-1.58,16.92,16.92,0,0,1,3,1.18l8.29,3.77,30.32,14.22,99.7,47.7,2,.94-1.36.33L1517,500.16c8.44-10.86,15.31-19.71,20.22-26.05q3.48-4.37,5.58-7A16.21,16.21,0,0,1,1544.85,464.75Z"/><path class="cls-1" d="M1345.24,677.71c-.54-.28,12.22-26.13,28.5-57.74s29.92-57,30.45-56.74S1392,589.35,1375.69,621,1345.78,678,1345.24,677.71Z"/><path class="cls-1" d="M1482.17,543.31c.38-.47,22.86,17.17,50.2,39.39s49.2,40.62,48.82,41.09-22.85-17.16-50.2-39.39S1481.79,543.78,1482.17,543.31Z"/><rect class="cls-3" x="503.22" y="22.24" width="96.19" height="142.7" transform="translate(336.07 609.71) rotate(-77)"/><path class="cls-1" d="M631.84,64a9.73,9.73,0,0,1-1.58.94l-4.65,2.5-17.25,9-57.24,29.28-.47.24-.33-.42-.8-1L509.2,53.34l-12.1-15.6-3.24-4.29a9.84,9.84,0,0,1-1.06-1.54,10.3,10.3,0,0,1,1.26,1.38l3.43,4.13,12.43,15.35,40.62,51,.79,1-.8-.18L608,75.63,625.38,67l4.76-2.29A9.42,9.42,0,0,1,631.84,64Z"/><path class="cls-1" d="M471.16,125.63c-.22-.29,13.2-10.72,30-23.3s30.55-22.55,30.76-22.27-13.2,10.72-30,23.31S471.37,125.91,471.16,125.63Z"/><path class="cls-1" d="M578.38,89.57c.32-.15,7.71,15,16.5,33.81s15.65,34.21,15.32,34.36-7.71-15-16.5-33.82S578.06,89.72,578.38,89.57Z"/><rect class="cls-3" x="1282.61" y="72.87" width="110.58" height="74.53" transform="translate(65.21 537.18) rotate(-23.25)"/><path class="cls-1" d="M1374.66,54.75a7.62,7.62,0,0,1-.55,1.32c-.45.93-1,2.16-1.77,3.69-1.61,3.29-3.88,7.88-6.65,13.52l-22.36,44.52-.18.37-.4-.11-1-.27-48.65-13.5-14.71-4.21-4-1.19a7.83,7.83,0,0,1-1.37-.48,6.75,6.75,0,0,1,1.42.28l4,1,14.8,3.9,48.73,13.23,1,.26-.58.26L1365.06,73c2.89-5.58,5.25-10.12,6.94-13.37l1.93-3.61A7.68,7.68,0,0,1,1374.66,54.75Z"/><path class="cls-1" d="M1302.5,166.89c-.27-.08,3.34-12.75,8-28.3s8.75-28.09,9-28-3.34,12.75-8,28.3S1302.76,167,1302.5,166.89Z"/><path class="cls-1" d="M1353,95.22c.13-.25,11.68,5.83,25.8,13.56s25.45,14.2,25.32,14.45-11.68-5.83-25.8-13.57S1352.83,95.46,1353,95.22Z"/><path class="cls-4" d="M1508.5,746.8a84,84,0,0,0-35.94-12.37c-5.88-.6-12.3-.43-17,3.13-1,.75-2,1.87-1.75,3.1a3.82,3.82,0,0,0,1.66,2.13c14.63,11.15,36.75,12.56,53,4"/><path class="cls-4" d="M1507.58,745.79c-8.14-6.35-16.32-12.75-23.22-20.43s-12.49-16.81-14.55-26.92c-.63-3.07-.82-6.58,1.15-9,18.5,14.45,33,33.15,36.62,56.36"/><path class="cls-4" d="M1508.31,746.66c-1.39-10.12-1.89-20.53.43-30.48S1516.48,696.7,1525,691c3.2,7.47,1.82,16.08-.43,23.89a115.85,115.85,0,0,1-16.1,33.9"/><path class="cls-4" d="M1526.45,779.17c-11,1.34-20.6,7.15-28.82,14.59a54.49,54.49,0,0,0-16.49,28.31c10.8-.67,20-8.28,26.61-16.83s11.25-17.91,18.55-25.9"/><path class="cls-4" d="M1530.39,784.37a71.11,71.11,0,0,1,8.21-67.25c6.28,22.31,4,47.53-8.21,67.25"/><path class="cls-4" d="M1554.37,812.92a51.39,51.39,0,0,0-49.16,28.29c-.61,1.22-1.15,2.77-.34,3.86s2.08,1,3.26,1c9.69-.63,18.28-6.46,25.37-13.1s13.25-14.3,21.08-20"/><path class="cls-4" d="M1553.6,811.36a91.53,91.53,0,0,1-.91-51.14c1.8-6.59,4.82-13.52,10.91-16.61a2.18,2.18,0,0,1,1.67-.29,2.24,2.24,0,0,1,1.06,1.22,31,31,0,0,1,2.57,14.68,91.32,91.32,0,0,1-2.3,14.85c-1.92,9.08-2.94,18.84-7.91,26.67a51.56,51.56,0,0,0-3.17,5.85c-.94,2-1,2.69-1.81,4.28"/><path class="cls-4" d="M1617.06,820.82c-4.71-17.89.28-39.57,11.55-54.23.83-1.08,1.93-2.23,3.29-2.11,2.07.2,2.61,3,2.52,5a98.07,98.07,0,0,1-17.36,51.3"/><path class="cls-4" d="M1622.78,824.73c21.72,5.65,46.65.15,64.72-13.17a52.5,52.5,0,0,0-35-4.3c-11.7,2.68-22.4,7.92-29.68,17.47"/><path class="cls-4" d="M1627.6,812.82c12.17-19.84,35.5-32.79,58.74-34-2.68,9.46-10.45,16.81-19.21,21.25s-18.55,6.37-28.2,8.24c-3.75.73-8.9,1.53-11.33,4.48"/><path class="cls-4" d="M1618.26,755c3.3-11.29,6.61-22.67,7.52-34.4s-.77-24-6.85-34c-11.37,22-12.52,47.69-1,69.6"/><path class="cls-4" d="M1656.53,735.7c13.29-24.15,40.41-43.45,67.85-46.16-10.59,26.36-39.45,46.73-67.85,46.16"/><path class="cls-4" d="M1648.17,740.44c19.82,3,36.71,15.68,55.23,23.35,4,1.64,8.24,3,12.49,2.39s8.45-3.41,9.4-7.59c.79-3.47-.79-7.16-3.28-9.7s-5.78-4.13-9.07-5.5c-20.17-8.4-41.81-8.61-63.07-3.52"/><path class="cls-4" d="M1636.7,754.34c4.49,1.28,6,3.61,9.57,6.63a103.33,103.33,0,0,0,41.89,21.52c1.6.4,3.7.56,4.49-.89.69-1.26-.18-2.79-1.08-3.92-6.44-8-15.63-13.56-25.29-17.16s-18-7.94-29.58-7"/><path class="cls-4" d="M1623.75,670.37a79.32,79.32,0,0,0,60.78,20.68,4.17,4.17,0,0,0,2.76-1c1.53-1.66-.3-4.23-2.08-5.62-17.87-13.93-39.52-19.71-61.46-14.06"/><path class="cls-4" d="M1639.1,664.75a84.72,84.72,0,0,1,75.83-12.51c-9.55,9.41-22.8,14.47-36.13,15.86s-26.69-.09-39.7-3.35"/><path class="cls-4" d="M1633,626.17c-1.75-17.84-.62-31.92-1.85-49.83-.1-1.44-.41-3.16-1.75-3.67-1.86-.72-3.42,1.57-4,3.47a57.12,57.12,0,0,0,7.6,49.63"/><path class="cls-4" d="M1631.72,628.14c12.09-7.48,21.15-17.24,29.54-28.72,5.83-8,10.75-17.55,9.43-27.34-8.2-.17-16,4.35-21.31,10.58s-8.5,14-10.87,21.85-4,15.91-6.79,23.63"/><path class="cls-4" d="M1660.74,620.07a238.19,238.19,0,0,0,72.71-42.87c-8.69-3.5-18.63-1.4-27.31,2.1-19.84,8-36.05,21.53-45.78,40.58"/><path class="cls-4" d="M1639.88,637.89c13.42,1.47,27,2.43,40.37.2,13.09-2.19,25.46-7.38,37.69-12.52a4.46,4.46,0,0,0,2.56-2,3,3,0,0,0-.92-3.22,7.8,7.8,0,0,0-3.21-1.51c-13.3-3.72-27.65-2-40.73,2.44a188.92,188.92,0,0,0-35.76,16.56"/><path class="cls-4" d="M1563.24,671c-9.15-18.48-8.56-40.05-.65-59.1,5.57,8.48,6.25,19.28,5.23,29.38s-4.09,20.49-4.29,30.64"/><path class="cls-4" d="M1526.66,652.53a82.4,82.4,0,0,0-61.25,26.09c11.41,1.8,23.16-1.15,33.54-6.22s19.6-12.17,28.74-19.23"/><path class="cls-4" d="M1502.07,644.3c-11.18-.9-21.94-2.29-32.7,1s-20.54,10.77-24.92,21.13c10.46,1.18,21.07-1.44,30.65-5.79s18.31-10.36,27-16.35"/><path class="cls-4" d="M1538.48,644.68c-10.06-6.59-20.39-13.3-32.1-16s-25.29-.71-33.46,8.12c9.48,5.57,21,6.22,32,6.21s24.48-.13,34.84,3.54"/><path class="cls-4" d="M1538.54,645.21c-17.2-16.89-23.72-47.23-16.8-70.32a107.12,107.12,0,0,1,16.8,70.32"/><path class="cls-4" d="M1585.84,597.36c3.24-7.55,5.53-15.46,8.44-23.14s6.52-15.23,12-21.32,13.11-10.64,21.31-11a85.83,85.83,0,0,1-41.35,55.62"/><path class="cls-4" d="M1577.28,607.33c-5.37-7.39-11.57-17.42-18.85-22.94s-16.76-8.85-25.64-6.73a59.72,59.72,0,0,0,44.49,29.67"/><path class="cls-4" d="M1579,598c-3.51-8.94-7.06-18-8.48-27.48s-.56-19.65,4.3-27.94c9.44,17.85,12.48,37,4.67,55.62"/><path class="cls-4" d="M1585.93,542.55c5.35-17.69,21.55-30.72,39-36.7a14.67,14.67,0,0,1,6.84-1c2.31.36,4.56,1.94,5,4.22.64,3-1.85,5.7-4.19,7.7a132.82,132.82,0,0,1-46.74,25.81"/><path class="cls-4" d="M1586.12,528.08c.68-11.41,1.39-23,5.1-33.79s10.86-21,21.27-25.68c1.77,11.52-3.32,23-9.45,32.9s-13.52,19.27-17.2,30.33"/><path class="cls-4" d="M1585.84,535.93c-4.42-12.89-4.88-29.27-12.6-40.5-5.39-7.86-14-13.21-18.69-21.52-3.09,7.76-2.14,16.72,1.09,24.43s8.57,14.34,14.28,20.44,10.61,10.7,15.92,17.15"/><path class="cls-5" d="M1585.93,915.67c-.35,0-.64-86-.67-192.11s.24-192.12.58-192.12.64,86,.67,192.12S1586.27,915.67,1585.93,915.67Z"/><path class="cls-5" d="M1661.1,658a18.72,18.72,0,0,1-3.24,1.21l-8.9,3c-7.5,2.55-17.81,6.25-29,10.84-11.08,4.75-21.53,8.61-27.48,13.77a20.11,20.11,0,0,0-5.52,7.3c-.85,2-1,3.26-1.12,3.23a2.47,2.47,0,0,1,0-.9,14.05,14.05,0,0,1,.63-2.5,19.24,19.24,0,0,1,5.39-7.79,48.17,48.17,0,0,1,11.92-7.41c4.77-2.22,10.06-4.55,15.67-6.85,11.22-4.6,21.61-8.18,29.2-10.53,3.79-1.18,6.89-2.06,9-2.63A18.66,18.66,0,0,1,1661.1,658Z"/><path class="cls-5" d="M1685.74,597.48a5.61,5.61,0,0,1-.91,1l-2.76,2.6-10.3,9.36c-8.9,7.92-21,18.66-34.3,30.54s-25,23.3-33,31.87c-4,4.28-7.17,7.83-9.33,10.31l-2.49,2.84a6,6,0,0,1-.93.95,4.79,4.79,0,0,1,.73-1.1c.52-.7,1.28-1.73,2.32-3,2-2.58,5.11-6.22,9.06-10.59A434.18,434.18,0,0,1,1636.64,640c13.44-11.89,25.66-22.57,34.54-30.27l10.57-9.07,2.91-2.41A4.62,4.62,0,0,1,1685.74,597.48Z"/><path class="cls-5" d="M1623,653.05c-.35-.15,2.44-6.61,5.23-14.78s4.13-15.06,4.49-15-.47,7.13-3.31,15.4a99.43,99.43,0,0,1-4.17,10.34C1624,651.59,1623.17,653.12,1623,653.05Z"/><path class="cls-5" d="M1586,705.12a15.93,15.93,0,0,1-2.07-2.4l-5.28-6.77c-4.44-5.74-10.58-13.66-17.46-22.33s-13.2-16.45-17.78-22.07c-2.16-2.68-4-4.92-5.41-6.69a16.12,16.12,0,0,1-1.86-2.55,14.35,14.35,0,0,1,2.23,2.24c1.38,1.49,3.33,3.69,5.71,6.43,4.76,5.49,11.19,13.18,18.09,21.86s12.92,16.7,17.18,22.58c2.13,2.94,3.83,5.33,5,7A14.88,14.88,0,0,1,1586,705.12Z"/><path class="cls-5" d="M1569.52,684c-.2.22-4.6-5-6.9-12.93a36.93,36.93,0,0,1-1.57-13l.55,0c-.24,1-.42,1.52-.52,1.51s-.1-.57,0-1.6l.55,0a59.43,59.43,0,0,0,2.2,12.68C1566,678.36,1569.86,683.75,1569.52,684Z"/><path class="cls-5" d="M1548.25,657.19c-.16.17-1.58-1.61-4.83-2.8s-8.06-1.52-13.38-1.06a83.32,83.32,0,0,0-13.48,2.17c-3.4.84-5.48,1.51-5.55,1.33s1.93-1.1,5.32-2.18a61.39,61.39,0,0,1,13.62-2.56c5.37-.47,10.48-.05,13.8,1.49S1548.36,657.16,1548.25,657.19Z"/><path class="cls-5" d="M1543.2,650.7c-.09.2-2.81-1.12-7.38-2.69a74.34,74.34,0,0,0-37.23-2.83c-4.76.85-7.64,1.74-7.7,1.54a6.55,6.55,0,0,1,2-.84,45.3,45.3,0,0,1,5.57-1.56,65.6,65.6,0,0,1,37.7,2.87,46.3,46.3,0,0,1,5.27,2.39A7.09,7.09,0,0,1,1543.2,650.7Z"/><path class="cls-5" d="M1585.84,623.27c-.33.09-2.74-8.29-5.39-18.71s-4.51-18.93-4.18-19,2.75,8.29,5.39,18.71S1586.17,623.19,1585.84,623.27Z"/><path class="cls-5" d="M1586.18,623.27c-.37.12-1.92-5.47-6-11.2s-9-8.78-8.78-9.07c.06-.13,1.45.38,3.39,1.75a27.23,27.23,0,0,1,6.41,6.61C1585.43,617.31,1586.48,623.25,1586.18,623.27Z"/><path class="cls-5" d="M1585.93,869.81c-.14,0-.39-2.07-1.36-5.72a81.39,81.39,0,0,0-5.75-14.89c-5.94-12.15-16.75-27.55-30.5-43-6.8-7.78-13.41-15.12-19-22.14a156.66,156.66,0,0,1-13.6-19.62,94.73,94.73,0,0,1-6.87-14.56c-.63-1.79-1.09-3.19-1.34-4.16a7,7,0,0,1-.36-1.49c.11,0,.74,2,2.16,5.48a105.65,105.65,0,0,0,7.17,14.28,165.16,165.16,0,0,0,13.73,19.35c5.63,7,12.25,14.25,19.07,22,13.78,15.47,24.57,31.06,30.35,43.41A74.41,74.41,0,0,1,1585,864a40.52,40.52,0,0,1,.76,4.32A6.94,6.94,0,0,1,1585.93,869.81Z"/><path class="cls-5" d="M1653.85,793.09a31.81,31.81,0,0,1-3.56,2,78.09,78.09,0,0,0-9.23,6.1,106.32,106.32,0,0,0-12.13,11.06c-4.25,4.5-8.64,9.72-13.11,15.31-9,11.23-17.32,21.16-22.33,29.09-2.54,3.93-4.39,7.25-5.6,9.58a32,32,0,0,1-2,3.58,3.23,3.23,0,0,1,.33-1c.26-.64.62-1.6,1.19-2.79a92.47,92.47,0,0,1,5.3-9.83c4.86-8.12,13.17-18.19,22.1-29.39,4.48-5.61,8.92-10.84,13.26-15.33a98.14,98.14,0,0,1,12.42-11,64.48,64.48,0,0,1,9.54-5.83c1.18-.59,2.14-1,2.78-1.23A3.49,3.49,0,0,1,1653.85,793.09Z"/><path class="cls-5" d="M1655.18,818c0,.18-2.87.53-7.52,1.09a98.61,98.61,0,0,0-17.85,3.52,53.7,53.7,0,0,0-16,8.38c-3.68,2.85-5.42,5.2-5.59,5.06a5.78,5.78,0,0,1,1.12-1.73,28.17,28.17,0,0,1,3.92-4,48.42,48.42,0,0,1,16.15-8.89,80.77,80.77,0,0,1,18.14-3.2C1652.26,817.86,1655.17,817.82,1655.18,818Z"/><path class="cls-5" d="M1610.44,833.3c-.39-.22,3-5.4,5.63-12.37,2.47-7,3-13.19,3.49-13.12.16,0,.15,1.56-.13,4a43.26,43.26,0,0,1-2.19,9.51,46,46,0,0,1-4.37,8.73C1611.53,832.17,1610.58,833.39,1610.44,833.3Z"/><path class="cls-5" d="M1675.85,726.27a5.5,5.5,0,0,1-1.2.64l-3.54,1.6c-1.55.67-3.43,1.51-5.54,2.63s-4.61,2.22-7.19,3.77l-4.11,2.34c-1.42.82-2.83,1.79-4.33,2.73-3,1.83-6.06,4.09-9.29,6.4a159.2,159.2,0,0,0-35.79,37c-2.2,3.31-4.36,6.42-6.09,9.51-.88,1.53-1.81,3-2.58,4.42l-2.19,4.18c-1.46,2.63-2.51,5.15-3.53,7.31s-1.82,4.07-2.43,5.64-1.09,2.64-1.49,3.59a6,6,0,0,1-.59,1.22,5.44,5.44,0,0,1,.36-1.31c.33-1,.75-2.19,1.27-3.68s1.26-3.54,2.24-5.73,2-4.76,3.39-7.43l2.13-4.25c.75-1.47,1.66-2.93,2.53-4.49,1.71-3.13,3.85-6.28,6-9.63A153.38,153.38,0,0,1,1640,745.46c3.27-2.3,6.35-4.54,9.42-6.35,1.52-.93,2.95-1.89,4.39-2.69l4.17-2.28c2.63-1.51,5.15-2.59,7.32-3.63s4.07-1.84,5.65-2.44l3.64-1.4A5.66,5.66,0,0,1,1675.85,726.27Z"/><path class="cls-5" d="M1622.09,762.29c-.11,0,.49-2.11,3-4.41a18.72,18.72,0,0,1,11.91-4.57,32.55,32.55,0,0,1,12.53,2.45c3,1.19,4.8,2.16,4.74,2.3s-2-.5-5-1.47a37.74,37.74,0,0,0-12.2-2,19.37,19.37,0,0,0-11.38,4C1623.16,760.53,1622.29,762.41,1622.09,762.29Z"/><path class="cls-5" d="M1614.06,770.58c-.34-.19,2.69-4.64,3.38-11s-1.13-11.38-.76-11.48c.14-.06.81,1.11,1.4,3.2a22.85,22.85,0,0,1-1.92,16.49C1615.11,769.68,1614.18,770.66,1614.06,770.58Z"/><path class="cls-6" d="M1526.52,882.14c1.85,32.87,11.76,66.3,27,100.1h66.26c14.53-33.46,23.75-66.84,25.39-100.1Z"/><path class="cls-7" d="M1634.43,935.33c0,.34-21.82.62-48.72.62s-48.73-.28-48.73-.62,21.81-.62,48.73-.62S1634.43,935,1634.43,935.33Z"/><path class="cls-7" d="M1633,947.24c0,.34-20.46.62-45.68.62s-45.68-.28-45.68-.62,20.45-.62,45.68-.62S1633,946.9,1633,947.24Z"/><rect class="cls-6" x="357.88" y="291.85" width="1020.31" height="674.72" rx="14.57"/><path class="cls-6" d="M318,923H1423.43a0,0,0,0,1,0,0v41.24a17.8,17.8,0,0,1-17.8,17.8H335.8a17.8,17.8,0,0,1-17.8-17.8V923A0,0,0,0,1,318,923Z"/><rect class="cls-5" x="385.27" y="318.66" width="962.68" height="569.79"/><polygon class="cls-5" points="767.45 916.67 781.17 938.49 974.19 938.49 986.93 916.67 767.45 916.67"/><rect class="cls-2" x="405.1" y="337.95" width="925" height="548.68" rx="3.27"/><polygon class="cls-7" points="1329.11 887.43 404.11 887.43 405.1 378.95 1329.11 378.95 1329.11 887.43"/><path class="cls-5" d="M481,359.14a7.39,7.39,0,1,1-7.39-7.39A7.39,7.39,0,0,1,481,359.14Z"/><path class="cls-5" d="M436.19,359.14a7.39,7.39,0,1,1-7.39-7.39A7.39,7.39,0,0,1,436.19,359.14Z"/><path class="cls-5" d="M457.68,359.14a7.39,7.39,0,1,1-7.39-7.39A7.39,7.39,0,0,1,457.68,359.14Z"/><path class="cls-5" d="M1369.42,916.67c0,.37-226.46.66-505.75.66s-505.79-.29-505.79-.66S584.29,916,863.67,916,1369.42,916.31,1369.42,916.67Z"/><polygon class="cls-4" points="701.3 577.59 1077.63 574.07 1088.65 829.91 698.96 827.11 701.3 577.59"/><path class="cls-8" d="M701.3,577.59,879.11,433.1a20.45,20.45,0,0,1,25.83,0l172.69,141"/><path class="cls-4" d="M701.3,577.59,879.11,433.1a20.45,20.45,0,0,1,25.83,0l172.69,141"/><path class="cls-5" d="M699,827.1c-.47-.43,29.59-33.39,67.13-73.6s68.37-72.46,68.84-72-29.58,33.39-67.13,73.61S699.43,827.54,699,827.1Z"/><path class="cls-5" d="M1088.65,829.91c-.48.43-29.89-31.74-65.68-71.85s-64.42-73-63.94-73.4,29.88,31.74,65.68,71.85S1089.13,829.48,1088.65,829.91Z"/><g class="cls-9"><polyline points="1077.63 574.07 888.97 725.43 701.3 577.59"/></g><polygon class="cls-7" points="720.28 591.53 719.45 473.99 1048.97 469.41 1052.94 593.07 888.94 723.45 720.28 591.53"/><path class="cls-5" d="M720.28,591.53s1.09.78,3.13,2.34l9,6.93,34.11,26.49L889.29,723h-.7l163.93-130.48-.26.56c-.76-23.59-1.56-48.34-2.37-73.53-.54-16.95-1.08-33.7-1.61-50.13l.7.67-329.53,4.33.44-.44c.17,36.95.3,66.3.4,86.44,0,10.06,0,17.81.05,23.09,0,2.6,0,4.59,0,6s0,2,0,2,0-.67-.07-2-.06-3.34-.1-5.92c-.06-5.26-.16-13-.28-23-.19-20.18-.47-49.58-.82-86.6v-.44h.44L1049,468.72h.67l0,.68c.53,16.42,1.06,33.18,1.61,50.13.81,25.19,1.6,49.93,2.35,73.53v.34l-.26.21L889.3,723.89l-.35.28-.36-.27L766,627.64,732.09,601l-8.84-7C721.26,592.36,720.28,591.53,720.28,591.53Z"/><path class="cls-5" d="M997,528.69c0,.39-50.39,1.11-112.54,1.61s-112.56.61-112.56.23,50.38-1.1,112.55-1.61S997,528.31,997,528.69Z"/><path class="cls-5" d="M997.08,561.9c0,.38-50.39,1.1-112.54,1.6s-112.56.61-112.56.23,50.38-1.1,112.55-1.61S997.08,561.51,997.08,561.9Z"/><path class="cls-5" d="M997.16,600.16c0,.38-50.39,1.1-112.54,1.61s-112.56.61-112.57.23,50.38-1.11,112.56-1.61S997.16,599.78,997.16,600.16Z"/><path class="cls-5" d="M997.24,638.43c0,.38-48.07,1.08-107.37,1.56s-107.39.57-107.39.19,48.06-1.08,107.38-1.57S997.24,638.05,997.24,638.43Z"/><path class="cls-5" d="M955.16,672.1a4.59,4.59,0,0,1-1.32.15l-3.78.17-13.92.34-45.93.84c-17.94.33-34.19.44-45.94.43l-13.93-.09-3.79-.1a4.8,4.8,0,0,1-1.32-.13,4.68,4.68,0,0,1,1.32-.15l3.79-.16,13.92-.35,45.93-.83c17.94-.34,34.18-.45,45.94-.43l13.93.09,3.78.1A5,5,0,0,1,955.16,672.1Z"/><path class="cls-5" d="M912.81,704.48c0,.38-10.74.71-24,.74s-24-.26-24-.64,10.74-.72,24-.74S912.81,704.1,912.81,704.48Z"/><path class="cls-5" d="M1772.42,979.77c0,.38-396.8.69-886.17.69C396.72,980.46,0,980.15,0,979.77s396.72-.69,886.25-.69C1375.62,979.08,1772.42,979.39,1772.42,979.77Z"/><path class="cls-5" d="M957.21,468.37c.38,0,.54,1.55.36,3.37s-.63,3.27-1,3.24-.54-1.54-.36-3.37S956.83,468.33,957.21,468.37Z"/><path class="cls-5" d="M960.75,442.53c.37.06.24,3-.3,6.55s-1.29,6.39-1.67,6.34-.24-3,.3-6.55S960.37,442.46,960.75,442.53Z"/><path class="cls-5" d="M966,417c.37.09,0,3-.74,6.51s-1.71,6.3-2.09,6.22,0-3,.74-6.52S965.59,416.88,966,417Z"/><path class="cls-5" d="M973,391.86c.37.12-.18,3-1.22,6.44s-2.19,6.15-2.55,6,.18-3,1.22-6.44S972.66,391.74,973,391.86Z"/><path class="cls-5" d="M982.13,367.42c.35.15-.44,3-1.77,6.31s-2.69,5.94-3.05,5.81.43-3,1.77-6.32S981.78,367.27,982.13,367.42Z"/><path class="cls-5" d="M993.43,343.94c.34.18-.71,2.92-2.35,6.11s-3.24,5.65-3.58,5.49.71-2.9,2.35-6.12S993.1,343.75,993.43,343.94Z"/><path class="cls-5" d="M1007.07,321.7c.32.22-1.06,2.82-3.05,5.8s-3.74,5.34-4.07,5.14,1-2.83,2.91-5.89S1006.76,321.49,1007.07,321.7Z"/><path class="cls-5" d="M1023.15,301.17c.28.25-1.35,2.69-3.64,5.45s-4.4,4.81-4.7,4.58,1.33-2.68,3.64-5.46S1022.86,300.91,1023.15,301.17Z"/><path class="cls-5" d="M1041.53,282.67c.25.29-1.66,2.52-4.26,5s-4.94,4.25-5.21,4,1.63-2.5,4.26-5S1041.28,282.39,1041.53,282.67Z"/><path class="cls-5" d="M1062.06,266.6c.21.31-2,2.29-4.85,4.41s-5.43,3.59-5.67,3.3,1.93-2.28,4.85-4.42S1061.85,266.28,1062.06,266.6Z"/><path class="cls-5" d="M1084.55,253.39c.16.34-2.26,2-5.41,3.71s-5.87,2.83-6.07,2.5,2.23-2,5.41-3.71S1084.38,253.05,1084.55,253.39Z"/><path class="cls-5" d="M1108.7,243.57c.11.36-2.53,1.65-5.9,2.88s-6.22,1.93-6.36,1.57,2.49-1.64,5.89-2.87S1108.58,243.2,1108.7,243.57Z"/><path class="cls-5" d="M1134.08,237.66c.05.38-2.77,1.15-6.3,1.76s-6.42,1-6.51.67,2.71-1.28,6.25-2S1134,237.29,1134.08,237.66Z"/><path class="cls-5" d="M1160.11,236.22c0,.38-2.94.73-6.52.77s-6.5-.24-6.53-.62,2.89-.72,6.52-.76S1160.12,235.84,1160.11,236.22Z"/><path class="cls-5" d="M1186,239.27c-.08.38-3,.22-6.55-.35s-6.37-1.35-6.33-1.73,3-.21,6.55.36S1186.07,238.9,1186,239.27Z"/><path class="cls-5" d="M1211,246.73c-.15.35-3-.31-6.39-1.49s-6-2.42-5.94-2.79,3,.3,6.39,1.49S1211.11,246.38,1211,246.73Z"/><path class="cls-5" d="M1234.18,258.57c-.2.32-2.89-.86-6-2.64s-5.5-3.49-5.33-3.83,2.86.84,6,2.63S1234.39,258.25,1234.18,258.57Z"/><path class="cls-5" d="M1254.62,274.71c-.27.27-2.67-1.43-5.36-3.78s-4.68-4.52-4.44-4.82,2.63,1.39,5.36,3.78S1254.89,274.44,1254.62,274.71Z"/><path class="cls-5" d="M1267.51,289.56c-.31.23-1.46-.76-2.57-2.19s-1.78-2.81-1.49-3.05,1.45.74,2.58,2.2S1267.82,289.34,1267.51,289.56Z"/><path class="cls-5" d="M1390.22,449.44c-.15.35-3-.62-6.31-2.17s-5.89-3.08-5.72-3.42,3,.63,6.3,2.17S1390.37,449.09,1390.22,449.44Z"/><path class="cls-5" d="M1415.27,458.15c-.09.37-3-.2-6.54-1.27s-6.27-2.24-6.14-2.6,3.05.21,6.54,1.27S1415.36,457.78,1415.27,458.15Z"/><path class="cls-5" d="M1441.44,462.33c0,.38-3,.36-6.67,0s-6.58-1-6.52-1.41,3-.36,6.67,0S1441.46,462,1441.44,462.33Z"/><path class="cls-5" d="M1467.93,461.5c0,.38-2.89.91-6.56,1.19s-6.66.19-6.67-.19,2.93-.91,6.56-1.19S1467.88,461.12,1467.93,461.5Z"/><path class="cls-5" d="M1494,456.62c.1.37-2.72,1.37-6.3,2.25s-6.58,1-6.65.65,2.79-1.24,6.36-2S1493.88,456.25,1494,456.62Z"/><path class="cls-5" d="M1518.62,446.85c.18.34-2.39,1.86-5.74,3.4s-6.18,2.5-6.32,2.14,2.44-1.87,5.74-3.4S1518.44,446.51,1518.62,446.85Z"/><path class="cls-5" d="M1540.6,432.07c.25.28-1.82,2.47-4.77,4.69s-5.61,3.61-5.82,3.3,2.09-2.21,5-4.4S1540.35,431.77,1540.6,432.07Z"/><path class="cls-5" d="M1558.64,412.69c.31.22-1.17,2.84-3.52,5.69s-4.64,4.81-4.91,4.55,1.53-2.62,3.85-5.43S1558.33,412.47,1558.64,412.69Z"/><path class="cls-5" d="M1571.08,389.34c.35.13-.34,3.06-1.85,6.44s-3.22,5.86-3.55,5.67.81-2.92,2.29-6.24S1570.71,389.22,1571.08,389.34Z"/><path class="cls-5" d="M1576,363.38c.37,0,.68,3,.3,6.7s-1.29,6.57-1.66,6.49-.08-3,.28-6.63S1575.59,363.38,1576,363.38Z"/><path class="cls-5" d="M1572.15,337.23c.36-.12,1.58,2.65,2.4,6.25s.92,6.63.55,6.68-1.09-2.83-1.9-6.37S1571.78,337.35,1572.15,337.23Z"/><path class="cls-5" d="M1560.62,313.44c.3-.22,2.29,2.05,4.15,5.25s2.86,6.05,2.52,6.21-1.88-2.38-3.71-5.51S1560.3,313.66,1560.62,313.44Z"/><path class="cls-5" d="M1542.21,294.51c.21-.31,2.85,1.16,5.65,3.59s4.63,4.82,4.36,5.08-2.52-1.67-5.27-4S1542,294.83,1542.21,294.51Z"/><path class="cls-5" d="M1518.14,283.74c.07-.37,3.1-.09,6.63,1.07s6.13,2.73,6,3.07-3-.63-6.4-1.75S1518.07,284.12,1518.14,283.74Z"/><path class="cls-5" d="M1491.83,284.17c-.1-.35,2.74-1.44,6.43-1.92s6.71-.17,6.71.2-2.94.69-6.53,1.17S1491.93,284.55,1491.83,284.17Z"/><path class="cls-5" d="M1469,297c-.28-.24,1.55-2.71,4.54-5s5.82-3.38,6-3-2.29,2-5.16,4.15S1469.25,297.24,1469,297Z"/><path class="cls-5" d="M1458.46,320.79c-.36,0-.51-3.08.39-6.71s2.45-6.28,2.78-6.12-.6,3-1.44,6.45S1458.86,320.81,1458.46,320.79Z"/><path class="cls-5" d="M1463.64,346.51c-.32.18-2-2.36-3.22-5.89s-1.48-6.56-1.11-6.63,1.22,2.76,2.41,6.18S1464,346.33,1463.64,346.51Z"/><path class="cls-5" d="M1481,366.25c-.21.31-2.88-1.13-5.67-3.59s-4.53-5-4.24-5.2,2.44,1.77,5.16,4.16S1481.21,365.93,1481,366.25Z"/><path class="cls-5" d="M1505.07,377c-.09.37-3.08,0-6.58-1.22s-6.12-2.73-6-3.07,3,.59,6.4,1.76S1505.16,376.66,1505.07,377Z"/><path class="cls-5" d="M1531.4,379.55c0,.37-3,.86-6.65.78s-6.65-.69-6.61-1.06,3-.39,6.64-.32S1531.38,379.16,1531.4,379.55Z"/><path class="cls-5" d="M1557.4,374.73c.12.36-2.62,1.6-6.2,2.51s-6.58,1.13-6.64.76,2.78-1.2,6.3-2.1S1557.28,374.36,1557.4,374.73Z"/><path class="cls-5" d="M1581.47,363.7c.2.33-2.28,2-5.54,3.72s-6,2.83-6.19,2.48,2.33-2,5.54-3.71S1581.27,363.38,1581.47,363.7Z"/><path class="cls-5" d="M1602.74,347.9c.26.28-1.84,2.4-4.69,4.74s-5.34,4-5.57,3.68,1.88-2.44,4.69-4.75S1602.48,347.62,1602.74,347.9Z"/><path class="cls-5" d="M1620.81,328.5c.3.24-1.39,2.69-3.78,5.49s-4.56,4.86-4.84,4.6,1.42-2.72,3.79-5.49S1620.51,328.27,1620.81,328.5Z"/><path class="cls-5" d="M1635.4,306.36c.33.18-.93,2.89-2.83,6s-3.69,5.55-4,5.33,1-2.91,2.83-6S1635.06,306.18,1635.4,306.36Z"/><path class="cls-5" d="M1646.16,282.12c.36.13-.44,3-1.78,6.43s-2.75,6.07-3.12,5.9.53-3,1.84-6.41S1645.8,282,1646.16,282.12Z"/><path class="cls-5" d="M1653.58,256.66c.37.08-.08,3-1,6.59s-2,6.36-2.33,6.25.08-3.06,1-6.59S1653.21,256.58,1653.58,256.66Z"/><path class="cls-5" d="M1658.22,230.54c.38.05.24,3-.32,6.67s-1.31,6.52-1.69,6.45-.23-3,.32-6.66S1657.84,230.5,1658.22,230.54Z"/><path class="cls-5" d="M1660.67,204.13c.38,0,.46,3,.19,6.66s-.8,6.6-1.18,6.57-.47-3-.2-6.67S1660.28,204.11,1660.67,204.13Z"/><path class="cls-5" d="M1661.51,177.61c.38,0,.63,3,.56,6.65s-.44,6.63-.82,6.62-.63-3-.56-6.65S1661.13,177.61,1661.51,177.61Z"/><path class="cls-5" d="M1661.32,151.08c.38,0,.73,3,.78,6.62s-.21,6.64-.59,6.65-.74-3-.79-6.63S1660.93,151.09,1661.32,151.08Z"/><path class="cls-5" d="M1660.92,134.76c.38,0,.71.67.73,1.51s-.27,1.53-.65,1.54-.71-.66-.73-1.51S1660.54,134.77,1660.92,134.76Z"/><rect class="cls-4" x="1544.76" y="65.49" width="181.43" height="122.29" transform="translate(-4.11 177.32) rotate(-6.2)"/><path class="cls-5" d="M1551.84,197.29v-.07L1538.62,75.58h.07L1719.12,56V56l13.21,121.64h-.07ZM1538.77,75.7,1552,197.14l180.23-19.57L1719,56.12Z"/><path class="cls-5" d="M1719.8,57.45a12.7,12.7,0,0,1-1.5,1.8l-4.55,4.94-17,18-56.49,59.08-.46.49-.57-.36-1.38-.88-69.82-44.6-21-13.68-5.68-3.79a12.84,12.84,0,0,1-1.92-1.41,12.63,12.63,0,0,1,2.1,1.13l5.84,3.53,21.34,13.23,70.07,44.2,1.38.87-1,.13L1696,81.39l17.32-17.64,4.77-4.73A12.24,12.24,0,0,1,1719.8,57.45Z"/><path class="cls-5" d="M1552.63,198.61c-.38-.25,11.38-18.39,26.25-40.51s27.24-39.84,27.62-39.59-11.37,18.39-26.25,40.51S1553,198.87,1552.63,198.61Z"/><path class="cls-5" d="M1666.29,110.48c.33-.32,15.53,14.77,34,33.7S1733.33,178.71,1733,179s-15.52-14.76-34-33.69S1666,110.8,1666.29,110.48Z"/><path class="cls-5" d="M895.42,424.65c.38-.06.93,1.35,1.24,3.16s.25,3.32-.13,3.39-.93-1.35-1.24-3.16S895,424.71,895.42,424.65Z"/><path class="cls-5" d="M891.17,398.76c.38-.06,1.15,2.79,1.73,6.37s.74,6.52.36,6.58-1.15-2.79-1.73-6.36S890.8,398.82,891.17,398.76Z"/><path class="cls-5" d="M887.39,372.8c.37-.05,1.09,2.82,1.59,6.4s.6,6.54.22,6.59-1.09-2.81-1.59-6.4S887,372.85,887.39,372.8Z"/><path class="cls-5" d="M884.4,346.74c.38,0,1,2.85,1.37,6.45s.38,6.55,0,6.59-1-2.84-1.37-6.45S884,346.77,884.4,346.74Z"/><path class="cls-5" d="M882.58,320.57c.38,0,.85,2.9,1.06,6.51s.06,6.56-.32,6.59-.85-2.89-1.06-6.51S882.2,320.59,882.58,320.57Z"/><path class="cls-5" d="M882.3,294.33c.38,0,.67,2.95.65,6.57s-.35,6.55-.73,6.56-.67-2.94-.65-6.57S881.92,294.32,882.3,294.33Z"/><path class="cls-5" d="M884,268.16c.37,0,.44,3,.14,6.6s-.85,6.5-1.23,6.48-.45-3-.15-6.6S883.57,268.12,884,268.16Z"/><path class="cls-5" d="M887.89,242.23c.38.08.17,3-.46,6.58s-1.44,6.4-1.82,6.34-.17-3,.46-6.58S887.52,242.15,887.89,242.23Z"/><path class="cls-5" d="M894.58,216.88c.36.12-.18,3-1.21,6.48s-2.16,6.19-2.53,6.09.17-3,1.21-6.48S894.22,216.76,894.58,216.88Z"/><path class="cls-5" d="M904.39,192.56c.34.17-.56,3-2,6.28s-2.92,5.87-3.27,5.73.54-2.95,2-6.28S904.05,192.4,904.39,192.56Z"/><path class="cls-5" d="M917.19,169.68c.32.21-.93,2.88-2.79,6s-3.65,5.45-4,5.26.92-2.86,2.79-6S916.87,169.47,917.19,169.68Z"/><path class="cls-5" d="M932.92,148.7c.29.25-1.32,2.73-3.58,5.54s-4.34,4.9-4.65,4.67,1.29-2.7,3.58-5.54S932.63,148.45,932.92,148.7Z"/><path class="cls-5" d="M951.56,130.26c.24.3-1.72,2.51-4.38,4.94s-5,4.19-5.3,3.92,1.69-2.48,4.37-4.94S951.31,130,951.56,130.26Z"/><path class="cls-5" d="M973,115.19c.19.33-2.12,2.18-5.16,4.11s-5.68,3.26-5.9,3,2.09-2.15,5.16-4.11S972.81,114.86,973,115.19Z"/><path class="cls-5" d="M996.89,104.44c.12.36-2.5,1.72-5.86,3s-6.2,2.09-6.36,1.75,2.47-1.71,5.86-3S996.77,104.07,996.89,104.44Z"/><path class="cls-5" d="M1016.05,99.72c.06.37-1.34,1-3.12,1.3s-3.3.31-3.38-.06,1.31-1,3.12-1.3S1016,99.34,1016.05,99.72Z"/><rect class="cls-4" x="876.44" y="-0.97" width="132.97" height="197.27" transform="translate(511.75 941.9) rotate(-68.86)"/><path class="cls-5" d="M1011,195.34l-.06,0-184-71.17,0-.06L874.87,0l.06,0L1059,71.2l0,.06ZM827,124.07l183.86,71.1,47.91-123.9L874.94.17Z"/><path class="cls-5" d="M1058.91,73a13.24,13.24,0,0,1-2.35,1l-6.86,2.51-25.35,8.92-84.07,28.85-.69.24-.37-.64c-.28-.48-.59-1-.89-1.53L893.17,34.35,879.66,10.63c-1.49-2.7-2.69-4.86-3.59-6.5a12.46,12.46,0,0,1-1.15-2.33A15,15,0,0,1,876.38,4l3.88,6.33,14,23.43,45.61,77.68c.31.52.61,1,.9,1.53l-1.06-.39,84.23-28.36,25.54-8.38,7-2.19A13.81,13.81,0,0,1,1058.91,73Z"/><path class="cls-5" d="M827,125.82c-.24-.43,20.17-12.08,45.58-26S918.75,74.92,919,75.36s-20.17,12.08-45.59,26S827.2,126.26,827,125.82Z"/><path class="cls-5" d="M980.75,97.45c.47-.14,7.62,22,16,49.5s14.72,49.88,14.24,50-7.61-22-16-49.5S980.27,97.6,980.75,97.45Z"/><path class="cls-5" d="M818.14,453.69c.39,0,.57,1.54.43,3.37s-.58,3.29-1,3.25-.57-1.54-.42-3.36S817.76,453.67,818.14,453.69Z"/><path class="cls-5" d="M818.82,426.71c.38,0,.68,3,.67,6.75s-.32,6.76-.7,6.75-.69-3-.68-6.75S818.44,426.72,818.82,426.71Z"/><path class="cls-5" d="M817,399.78c.38,0,1,2.93,1.31,6.65s.31,6.77-.07,6.79-1-3-1.31-6.66S816.6,399.82,817,399.78Z"/><path class="cls-5" d="M812.48,373.16c.37-.08,1.26,2.82,2,6.49s1,6.7.62,6.76-1.26-2.84-2-6.49S812.11,373.25,812.48,373.16Z"/><path class="cls-5" d="M805.15,347.18c.36-.12,1.56,2.67,2.67,6.24s1.73,6.55,1.36,6.65-1.57-2.69-2.68-6.24S804.79,347.31,805.15,347.18Z"/><path class="cls-5" d="M794.83,322.26c.34-.17,1.86,2.46,3.4,5.87s2.5,6.3,2.14,6.44-1.87-2.48-3.4-5.87S794.49,322.43,794.83,322.26Z"/><path class="cls-5" d="M781.43,298.84c.31-.21,2.22,2.16,4.23,5.33s3.19,6,2.86,6.17-2.14-2.25-4-5.45S781.11,299.05,781.43,298.84Z"/><path class="cls-5" d="M764.89,277.51c.29-.25,2.46,1.87,4.86,4.75s4.09,5.39,3.79,5.62-2.48-1.89-4.86-4.74S764.61,277.77,764.89,277.51Z"/><path class="cls-5" d="M745.51,258.74c.24-.29,2.7,1.5,5.48,4s4.81,4.76,4.55,5-2.72-1.52-5.48-4S745.27,259,745.51,258.74Z"/><path class="cls-5" d="M723.62,243c.2-.32,2.88,1.09,6,3.17s5.46,4,5.24,4.32-2.91-1.11-6-3.17S723.42,243.29,723.62,243Z"/><path class="cls-5" d="M699.58,230.71c.14-.36,3,.63,6.42,2.2s6,3.11,5.85,3.45-3.06-.65-6.43-2.2S699.44,231.06,699.58,230.71Z"/><path class="cls-5" d="M673.86,222.57c.08-.37,3.08.12,6.7,1.09s6.45,2.06,6.33,2.43-3.11-.13-6.69-1.09S673.78,223,673.86,222.57Z"/><path class="cls-5" d="M647.11,219.15c0-.38,3-.53,6.8-.3,3.72.39,6.7,1,6.65,1.39s-3.08.37-6.77,0C650.1,220,647.1,219.54,647.11,219.15Z"/><path class="cls-5" d="M620.21,221c-.07-.37,2.89-1,6.62-1.48s6.76-.48,6.78-.1-2.94,1-6.62,1.48S620.27,221.38,620.21,221Z"/><path class="cls-5" d="M594.14,227.94c-.13-.35,2.65-1.56,6.23-2.7s6.55-1.75,6.64-1.38-2.69,1.58-6.22,2.7S594.28,228.3,594.14,227.94Z"/><path class="cls-5" d="M569.84,239.64c-.2-.32,2.31-2,5.61-3.82s6.1-2.95,6.26-2.61-2.34,2.06-5.6,3.83S570,240,569.84,239.64Z"/><path class="cls-5" d="M548.28,255.84c-.26-.27,1.86-2.45,4.74-4.85s5.41-4.1,5.63-3.79-1.89,2.48-4.74,4.85S548.55,256.12,548.28,255.84Z"/><path class="cls-5" d="M530.64,276.21c-.31-.21,1.13-2.91,3.43-5.88s4.55-5.05,4.83-4.8-1.47,2.71-3.73,5.64S531,276.42,530.64,276.21Z"/><path class="cls-5" d="M520.8,293.73c-.35-.15,0-1.62.82-3.29s1.74-2.86,2.07-2.68,0,1.65-.82,3.29S521.15,293.89,520.8,293.73Z"/><path class="cls-5" d="M352.2,450.32c0-.38,1.41-.86,3.21-1.08s3.31-.09,3.38.29-1.38.86-3.22,1.08S352.22,450.71,352.2,450.32Z"/><path class="cls-5" d="M325.92,447.34c.11-.37,3,.24,6.58,1s6.46,1.36,6.42,1.74-3.07.39-6.71-.38S325.8,447.7,325.92,447.34Z"/><path class="cls-5" d="M302.16,435.6c.23-.32,2.82,1.15,5.94,3s5.65,3.44,5.48,3.79-3-.7-6.18-2.6S302,435.9,302.16,435.6Z"/><path class="cls-5" d="M282.41,417.87c.3-.25,2.48,1.78,5,4.37s4.58,4.79,4.32,5.08-2.7-1.47-5.3-4.11S282.13,418.12,282.41,417.87Z"/><path class="cls-5" d="M266.81,396.38c.33-.2,2.22,2.12,4.22,5.18s3.37,5.71,3.07,5.94-2.2-2.1-4.22-5.19S266.48,396.57,266.81,396.38Z"/><path class="cls-5" d="M255.35,372.41c.35-.14,1.81,2.48,3.24,5.84s2.31,6.22,2,6.39-1.8-2.45-3.24-5.85S255,372.54,255.35,372.41Z"/><path class="cls-5" d="M247.72,346.94c.37-.08,1.43,2.72,2.36,6.26s1.39,6.49,1,6.6-1.42-2.68-2.36-6.25S247.35,347,247.72,346.94Z"/><path class="cls-5" d="M243.1,320.76c.38-.05,1.14,2.85,1.68,6.47s.69,6.61.32,6.68-1.13-2.83-1.68-6.48S242.73,320.8,243.1,320.76Z"/><path class="cls-5" d="M240.55,294.28c.39,0,.93,2.92,1.23,6.57s.23,6.65-.15,6.69-.93-2.91-1.23-6.57S240.17,294.31,240.55,294.28Z"/><path class="cls-5" d="M239.45,274.36c.39,0,.77,1.45.85,3.28s-.15,3.33-.53,3.35-.76-1.45-.85-3.28S239.07,274.38,239.45,274.36Z"/><rect class="cls-4" x="122.1" y="118.6" width="220.88" height="148.88" transform="translate(-8.83 11.16) rotate(-2.7)"/><path class="cls-5" d="M125.67,272.67v-.07l-7-148.78h.07l220.7-10.41v.07l7,148.78h-.07ZM118.79,124l7,148.58L346.3,262.14l-7-148.59Z"/><path class="cls-5" d="M340.15,115.24a15.2,15.2,0,0,1-2,2.07L332.3,123l-21.93,20.6-73,67.6-.6.56-.67-.48-1.61-1.17-81.52-59.39-24.57-18.18-6.62-5a16.93,16.93,0,0,1-2.23-1.86,15.19,15.19,0,0,1,2.47,1.53l6.84,4.72,24.94,17.67,81.87,58.92,1.61,1.16-1.27.08,73.44-67.16,22.36-20.14,6.15-5.4A15,15,0,0,1,340.15,115.24Z"/><path class="cls-5" d="M126.52,274.36c-.44-.34,15.19-21.51,34.91-47.28s36.06-46.39,36.5-46.06S182.75,202.52,163,228.3,127,274.69,126.52,274.36Z"/><path class="cls-5" d="M271.19,175.71c.42-.37,17.76,19.1,38.74,43.46s37.65,44.42,37.23,44.79-17.77-19.1-38.75-43.48S270.77,176.07,271.19,175.71Z"/><path class="cls-10" d="M513.59,641.75A6,6,0,0,0,509,635l-5.92.41L482,628.07a6.33,6.33,0,0,0-8,5.76c-.12,6.08-2.54,22.63-7.47,17.43-.11-.12-.23-.22-.35-.34-7-7.78-15.05-11.53-18.17-11.09s-3.79,4.26-1.52,6.26a3.79,3.79,0,0,0,1.26.88c.21.09.47.26.7.38a52.31,52.31,0,0,1,8.09,7.22,27.64,27.64,0,0,1,5.32,8c1.43,3.28,2.54,6.16,3.4,8.62l.33,19.45-8.45,90.94s-56-58.8-54.68-59.37l3.21,91.52,33.91,28.06a42.64,42.64,0,0,0,69.83-33.56l-2-117.59,1.38-15.42Z"/><path class="cls-10" d="M199.24,771,138,911.23,89.52,1012.38l-36,12.1S25,1032.75,25,1038.65s7.52,4.56,7.52,4.56c1.38,8.8,13.57,3.81,22.11-.15s27.5-4.73,27.5-4.73c-5.22,4-3.54,10.25-.53,12.36s8.28-.44,11.85-4.24,12.73-5.56,22.93-9.2,11.89-17.37,11.89-17.37L251,813.24Z"/><path class="cls-4" d="M402.61,821.92,418,842.29l33.4-74.11S419,728.61,407.16,712s-20.58-19.31-20.58-19.31-21.53-6.4-32.3-6.18l-53.22,3.18L247,713.31a74.84,74.84,0,0,0-32.55,27.4l-50.9,81.75,72.07,30.81,24.16,138.17c4.64,20.72,8.69,40.28,27.82,49.83L421.27,912.81l-15.66-24.66Z"/><path class="cls-5" d="M274.83,796.59c.32.21-7.92,13-18.4,28.59S237.21,853.23,236.89,853s7.92-13,18.4-28.6S274.51,796.37,274.83,796.59Z"/><path class="cls-5" d="M386.88,927.75a22.74,22.74,0,0,1-3.55,2.12c-2.33,1.29-5.72,3.1-9.94,5.28-8.44,4.38-20.2,10.25-33.32,16.44s-25.14,11.51-33.88,15.23c-4.38,1.86-7.93,3.33-10.41,4.31a24.7,24.7,0,0,1-3.89,1.39,22.63,22.63,0,0,1,3.68-1.89l10.22-4.7c8.64-3.95,20.58-9.42,33.69-15.59S364.4,938.43,373,934.28c4.11-2,7.52-3.62,10.13-4.89A25.59,25.59,0,0,1,386.88,927.75Z"/><path class="cls-5" d="M270.55,766.66c-.17.11-1.91-2.19-4.69-5.91A94.74,94.74,0,0,0,254,747.22a41.92,41.92,0,0,0-15.31-9c-4.38-1.35-7.3-1.32-7.29-1.57a5.16,5.16,0,0,1,2-.16,24.46,24.46,0,0,1,5.52.79,38.69,38.69,0,0,1,16,8.93,76.22,76.22,0,0,1,11.74,14C269.25,764.06,270.69,766.55,270.55,766.66Z"/><path class="cls-5" d="M380.52,834a5.58,5.58,0,0,1,.06,1.47c0,1,0,2.38-.13,4.2A100.37,100.37,0,0,1,378.32,855a109.78,109.78,0,0,1-61.77,77,101.31,101.31,0,0,1-14.49,5.4c-1.74.54-3.14.81-4.07,1a6.75,6.75,0,0,1-1.45.26,53.75,53.75,0,0,1,5.36-1.82,119.49,119.49,0,0,0,14.24-5.77,112.3,112.3,0,0,0,61.23-76.33,119.4,119.4,0,0,0,2.54-15.15C380.28,836,380.4,834,380.52,834Z"/><g class="cls-11"><path d="M245,906.68c-.23-1.31,17.13-91.16,17.13-91.16l-26.2,39.34"/></g><path class="cls-5" d="M399.19,735.7a6.55,6.55,0,0,1,.19,1.54c.07,1.17.17,2.64.28,4.44.2,4,.48,9.58.82,16.33.68,14,1.6,32.92,2.61,53.88s1.79,40.11,2.21,53.91c.21,6.9.34,12.49.38,16.35,0,1.81,0,3.28,0,4.45a6.26,6.26,0,0,1-.09,1.55,7.36,7.36,0,0,1-.19-1.55c-.07-1.16-.16-2.63-.28-4.43-.2-4-.48-9.58-.82-16.33-.67-14-1.59-32.93-2.61-53.89s-1.79-40.1-2.2-53.9c-.21-6.9-.34-12.49-.39-16.35,0-1.81,0-3.28,0-4.45A6.19,6.19,0,0,1,399.19,735.7Z"/><g class="cls-12"><path d="M292.51,972.44c-4.28-3.57-3.3-10.83.48-14.92s9.37-5.84,14.67-7.56c25.4-8.22,50.93-19.86,67.69-40.64,2.31-2.87,4.49-6,7.5-8.08s7.15-3.14,10.42-1.44c5.14,2.67,5.33,10.11,3.17,15.48a29.7,29.7,0,0,1-14,15.28"/></g><g class="cls-12"><polygon points="399.75 751.64 414.57 837.72 403.02 822.46 399.75 751.64"/></g><path class="cls-4" d="M540.87,977.75l-25.08,86,106.85,31.75c2.41-10.39-46.78-47.31-46.78-47.31l18.33-54.45Z"/><g class="cls-13"><path class="cls-14" d="M544.19,1033.75a4.55,4.55,0,0,0-4.49,4.08,4.38,4.38,0,0,0,4,4.5c2.23.09,4.85-2.12,4.73-4.35s-2.49-4.66-4.68-4.21"/></g><g class="cls-13"><path class="cls-14" d="M515.79,1063.76l2.86-8.57L620,1088.84s4.15,3.48,2.61,6.67Z"/></g><path class="cls-5" d="M577.75,1048.17c-.17.52-2.85,0-5.91.89s-5.09,2.7-5.51,2.35,1.26-3.13,5-4.17S578,1047.72,577.75,1048.17Z"/><path class="cls-5" d="M587.58,1056.14c0,.54-2.55.75-5,2.43s-3.63,3.87-4.14,3.69,0-3.23,3.09-5.26S587.72,1055.63,587.58,1056.14Z"/><path class="cls-5" d="M590,1071.44c-.5,0-.46-2.85,1.73-5.31s5-2.87,5.06-2.37-1.87,1.58-3.64,3.62S590.5,1071.54,590,1071.44Z"/><path class="cls-5" d="M580.55,1035.3c-.36.41-2.54-1-5.54-1.7s-5.59-.43-5.73-1,2.63-1.73,6.16-.88S580.93,1035,580.55,1035.3Z"/><path class="cls-5" d="M581.78,1021.86c-.06.22-2.22-.07-5.35-1.62a24.94,24.94,0,0,1-5.08-3.38,25.72,25.72,0,0,1-2.59-2.54,7.17,7.17,0,0,1-1.25-1.74,2.39,2.39,0,0,1,.59-2.85,3,3,0,0,1,2.64-.51,7.22,7.22,0,0,1,1.93.87,19.83,19.83,0,0,1,7,6.84c1.79,3,2.06,5.23,1.85,5.28s-1-1.89-3-4.54a22.2,22.2,0,0,0-4-4.1,20.2,20.2,0,0,0-2.79-1.86c-1-.64-2-.93-2.45-.52-.16.17-.19.24-.06.64a5.86,5.86,0,0,0,.92,1.27,27.68,27.68,0,0,0,2.35,2.46,30.83,30.83,0,0,0,4.58,3.52C579.9,1020.84,581.87,1021.58,581.78,1021.86Z"/><path class="cls-5" d="M580.87,1022.41c-.2,0-.68-2.15.13-5.59a18.11,18.11,0,0,1,4.8-8.49c.94-.87,2.12-2.05,4.22-1.68a2.61,2.61,0,0,1,1.79,2.15,7.46,7.46,0,0,1,0,2.13,12.46,12.46,0,0,1-1.06,3.6,12.91,12.91,0,0,1-3.93,4.85c-2.91,2.15-5.28,2.13-5.27,1.94s2-.78,4.41-3a12.93,12.93,0,0,0,3.19-4.52,11.35,11.35,0,0,0,.82-3.13c.17-1.18,0-2.22-.44-2.23-.53-.17-1.69.42-2.4,1.19a18.65,18.65,0,0,0-2.18,2.51,19.86,19.86,0,0,0-2.63,5C581.21,1020.29,581.18,1022.41,580.87,1022.41Z"/><path class="cls-5" d="M650.57,849.66c2.71,19.85-4.08,42.23-11.26,60.93l-46.86,110.18-51.87-8s-10.82,12-24.64,16.65c-6.19,2.06-26.53,6-43.27-6h0s-23.7,33-61,43-93.73,15.48-121.06-28.13L420.72,913c2.68.64,112-73.12,171.13-89.91C591.85,823.06,645.6,813.18,650.57,849.66Z"/><path class="cls-6" d="M536.71,1012.38a3.14,3.14,0,0,1,.7-.43l2.13-1.13c1.86-1,4.64-2.4,8.14-4.34a133.1,133.1,0,0,0,12.41-7.65,64.69,64.69,0,0,0,14-13,45.17,45.17,0,0,0,9.11-21.06,70.88,70.88,0,0,0-1.11-26.51c-2-9.09-6.25-18.59-14.32-24.91s-18.52-9.59-29.29-10.42a90.58,90.58,0,0,0-16.06.13,120.48,120.48,0,0,0-15.4,2.7,183.38,183.38,0,0,0-28,9.69c-17.34,7.57-32.39,15.75-45.61,21.4S409.1,946,401.22,947.59c-2,.44-3.73.72-5.25.95s-2.83.43-3.88.52l-2.4.23a3.9,3.9,0,0,1-.82,0,3,3,0,0,1,.81-.18l2.37-.36c1.05-.14,2.34-.34,3.85-.65s3.26-.6,5.21-1.08a170.64,170.64,0,0,0,32-11.13c13.12-5.74,28.09-14,45.5-21.67a181.4,181.4,0,0,1,28.17-9.83,121,121,0,0,1,15.58-2.76,92.54,92.54,0,0,1,16.32-.14c11,.85,21.74,4.19,30,10.74a37.87,37.87,0,0,1,9.75,11.86,54.57,54.57,0,0,1,5,13.84,71.5,71.5,0,0,1,1,27,46,46,0,0,1-9.47,21.48,65.09,65.09,0,0,1-14.37,13.05,125.33,125.33,0,0,1-12.59,7.48c-3.56,1.88-6.37,3.22-8.28,4.12l-2.18,1A4.76,4.76,0,0,1,536.71,1012.38Z"/><path class="cls-6" d="M569.25,867.8c.32.21-4.55,8.15-10.87,17.73s-11.71,17.19-12,17,4.54-8.15,10.87-17.74S568.93,867.59,569.25,867.8Z"/><path class="cls-6" d="M531.84,1003.62c0,.21-3.6,1-9.42,2.43s-13.81,3.66-22.45,6.67-16.26,6.28-21.71,8.79-8.78,4.16-8.88,4a9.74,9.74,0,0,1,2.18-1.45c1.45-.87,3.59-2,6.27-3.4a181.23,181.23,0,0,1,44.37-15.53c2.95-.61,5.36-1,7-1.26A9.85,9.85,0,0,1,531.84,1003.62Z"/><path class="cls-6" d="M591.52,1013.55c-.24.08-.86-2.35-3.06-5.59a22.46,22.46,0,0,0-26.7-8.67c-3.69,1.34-5.62,2.94-5.76,2.74s.36-.54,1.25-1.24a19.07,19.07,0,0,1,4.15-2.4,22.08,22.08,0,0,1,27.88,9,18.72,18.72,0,0,1,2,4.39C591.54,1012.91,591.6,1013.53,591.52,1013.55Z"/><path class="cls-6" d="M367.1,972.44a8.55,8.55,0,0,1,.67,2.48,38.76,38.76,0,0,1,.6,7,43,43,0,0,1-6.12,22.16,33.83,33.83,0,0,1-17.77,14.44,24.84,24.84,0,0,1-6.9,1.32,7.18,7.18,0,0,1-2.57-.12c0-.3,3.7-.08,9.14-2.12a34.6,34.6,0,0,0,16.92-14.25,45,45,0,0,0,6.32-21.45C367.63,976.06,366.84,972.48,367.1,972.44Z"/><path class="cls-6" d="M308.56,1032c-.29.23-1.66-1-2.95-2.77s-2-3.51-1.65-3.71,1.5,1.14,2.77,2.9S308.87,1031.72,308.56,1032Z"/><path class="cls-6" d="M319.49,1043.49c-.25.29-1.74-.72-3.33-2.26s-2.66-3-2.38-3.26,1.77.75,3.34,2.26S319.74,1043.2,319.49,1043.49Z"/><path class="cls-6" d="M332.37,1052.81c-.19.33-1.85-.38-3.71-1.59s-3.19-2.44-3-2.75,1.89.41,3.71,1.59S332.56,1052.48,332.37,1052.81Z"/><path class="cls-6" d="M347,1059.08c-.1.37-1.88.06-4-.7s-3.66-1.65-3.5-2,1.93,0,4,.7S347.06,1058.72,347,1059.08Z"/><path class="cls-6" d="M362.64,1061.54c0,.39-1.8.53-4,.33s-4-.67-3.89-1,1.86-.52,4-.32S362.65,1061.16,362.64,1061.54Z"/><path class="cls-6" d="M378.52,1060.68c.05.38-1.71.81-3.93,1a16.74,16.74,0,0,1-3,0h.05c-.65-.06-1.05-.18-1.06-.35s.34-.38,1-.57h.06a16.36,16.36,0,0,1,2.91-.43C376.69,1060.11,378.48,1060.3,378.52,1060.68Z"/><path class="cls-6" d="M394.16,1057.86c.09.37-1.58,1-3.74,1.5s-4,.54-4,.16,1.61-1,3.74-1.51S394.07,1057.49,394.16,1057.86Z"/><path class="cls-6" d="M409.37,1053.22c.13.36-1.46,1.22-3.55,1.92s-3.89,1-4,.61,1.48-1.22,3.56-1.92S409.24,1052.87,409.37,1053.22Z"/><path class="cls-6" d="M424,1047c.17.34-1.32,1.36-3.33,2.28s-3.76,1.37-3.91,1,1.35-1.37,3.34-2.28S423.84,1046.67,424,1047Z"/><path class="cls-6" d="M438,1039.36c.2.32-1.18,1.49-3.09,2.6s-3.6,1.73-3.79,1.4,1.2-1.5,3.09-2.6S437.75,1039,438,1039.36Z"/><path class="cls-6" d="M451.09,1030.4c.23.3-1,1.59-2.83,2.88s-3.42,2.07-3.63,1.75,1.05-1.6,2.83-2.88S450.86,1030.09,451.09,1030.4Z"/><path class="cls-6" d="M463.35,1020.26c.25.28-.89,1.68-2.56,3.13s-3.22,2.37-3.46,2.08.9-1.69,2.56-3.13S463.09,1020,463.35,1020.26Z"/><path class="cls-6" d="M474.93,1009.34c.25.28-.84,1.73-2.43,3.23s-3.11,2.49-3.37,2.23.81-1.72,2.42-3.24S474.68,1009.05,474.93,1009.34Z"/><path class="cls-6" d="M487.51,999.55c.21.32-1.06,1.62-2.83,2.9s-3.39,2.08-3.63,1.78,1-1.6,2.82-2.9S487.3,999.23,487.51,999.55Z"/><path class="cls-6" d="M501.45,991.86c.15.35-1.31,1.42-3.26,2.39s-3.69,1.48-3.88,1.14,1.27-1.4,3.27-2.38S501.3,991.51,501.45,991.86Z"/><path class="cls-6" d="M516.63,987.13c.07.38-1.59,1.11-3.69,1.64s-3.91.66-4,.29,1.53-1.09,3.69-1.63S516.57,986.76,516.63,987.13Z"/><path class="cls-6" d="M532.49,986.33c0,.38-1.82.51-4,.47s-4-.23-4-.62,1.76-.8,4-.76S532.53,986,532.49,986.33Z"/><path class="cls-6" d="M547.83,990.35c-.17.34-1.87-.17-3.91-.88s-3.67-1.43-3.58-1.81,1.93-.25,4,.51S548,990,547.83,990.35Z"/><path class="cls-6" d="M544.48,1001.9c-.24-.31.95-1.62,2.36-3.21s2.56-2.92,2.89-2.73-.34,1.95-1.86,3.65S544.7,1002.19,544.48,1001.9Z"/><path class="cls-6" d="M530.42,1009.19c-.12-.36,1.41-1.33,3.41-2.15s3.77-1.22,3.95-.88-1.35,1.3-3.41,2.15S530.54,1009.56,530.42,1009.19Z"/><path class="cls-6" d="M515.26,1014.06c-.13-.36,1.46-1.22,3.55-1.92s3.88-1,4-.61-1.48,1.22-3.56,1.92S515.39,1014.42,515.26,1014.06Z"/><path class="cls-6" d="M500.38,1019.74c-.14-.36,1.4-1.3,3.45-2.11s3.83-1.17,4-.81-1.41,1.3-3.45,2.1S500.52,1020.09,500.38,1019.74Z"/><path class="cls-6" d="M485.71,1025.93c-.16-.35,1.36-1.34,3.38-2.21s3.78-1.29,3.93-.94-1.36,1.34-3.38,2.21S485.86,1026.28,485.71,1025.93Z"/><path class="cls-6" d="M456.05,570.93s17.36-5.22,40.41-30.94,32.36-58.29,35.41-58.36,15.86-7.22,45.18,45.8,20.33,66.51,15.3,66.78-39.84-6.7-61-2.69-47.67,17.14-47.67,17.14Z"/><path class="cls-5" d="M420.8,603.64l6.87,11,3.08,4.93a15,15,0,0,0,20,5.17l36.83-16L461.78,560.1,425.5,583A15,15,0,0,0,420.8,603.64Z"/><path class="cls-5" d="M444,620.34l13.81,22.72,5.91-2.12L505.41,670l9.4-22.34s-24-8.29-28.92-16.27-.09-10.22-.09-10.22l-11.87-11.62Z"/><path class="cls-5" d="M575.09,528.58c15.64,28.74,23.2,54.83,16.89,58.26S567.86,569.77,552.22,541,529,486.2,535.33,482.77,559.44,499.84,575.09,528.58Z"/><polygon class="cls-6" points="418.78 620.41 428.79 616.43 421.55 604.85 414.22 610.2 418.78 620.41"/><polygon class="cls-6" points="478 613.55 451.76 633.16 447.82 626.69 478 613.55"/><polygon class="cls-6" points="421.55 604.85 428.79 616.43 426.74 617.25 420.68 605.49 421.55 604.85"/><path class="cls-6" d="M428.82,607.1c.18.32,5.15-2.05,11.1-5.29s10.64-6.13,10.46-6.45-5.14,2-11.09,5.29S428.65,606.78,428.82,607.1Z"/><path class="cls-6" d="M425.14,600.15c.18.32,4.67-2,10-5.12s9.53-5.95,9.35-6.27-4.67,2-10,5.13S425,599.84,425.14,600.15Z"/><path class="cls-6" d="M433.36,614.34c.07.17,1.26-.2,3.16-1,1-.37,2.07-.83,3.31-1.37s2.49-1.31,3.85-2c5.41-3,9.51-5.89,9.34-6.18s-4.61,2-10,5c-1.34.74-2.58,1.53-3.77,2.13s-2.24,1.13-3.13,1.6C434.37,613.49,433.29,614.17,433.36,614.34Z"/><path class="cls-6" d="M547.21,524s14.63-10.64,24.56,9.45-5.95,24.7-5.95,24.7A138.57,138.57,0,0,1,547.21,524Z"/><path class="cls-5" d="M529.07,500.53a22.76,22.76,0,0,0,.89,3.91c.68,2.49,1.64,6.12,2.95,10.56.82,2.17,1.71,4.55,2.66,7.09l1.49,3.95c.26.68.52,1.37.79,2.06s.63,1.37.95,2.06q2,4.15,4.13,8.68c.35.76.72,1.51,1.08,2.28s.84,1.48,1.25,2.24l2.63,4.53,2.64,4.52c.44.74.83,1.51,1.32,2.2s1,1.39,1.44,2.07l5.5,7.89c.45.62.86,1.26,1.32,1.85l1.41,1.7,2.69,3.26,4.86,5.82c3.19,3.34,5.86,6,7.69,7.78a25,25,0,0,0,3,2.72,21.62,21.62,0,0,0-2.58-3.08l-7.4-8.06-4.69-5.89-2.62-3.26-1.37-1.71c-.45-.59-.85-1.23-1.29-1.85l-5.4-7.88L553,553.91c-.48-.69-.86-1.46-1.31-2.19l-2.61-4.5-2.61-4.49c-.42-.75-.9-1.46-1.25-2.22l-1.09-2.25-4.17-8.59c-.33-.69-.68-1.35-1-2l-.81-2-1.54-3.9c-1-2.51-1.94-4.85-2.79-7-1.4-4.34-2.53-7.87-3.34-10.39A22.74,22.74,0,0,0,529.07,500.53Z"/><path class="cls-10" d="M489.63,621.25a4.5,4.5,0,0,1,3.1,5.44c-1.14,4.51-3,11.6-4.5,15.93a11.32,11.32,0,0,1-2,3.93,3.7,3.7,0,0,1-6.75-1.92,11.7,11.7,0,0,1,.39-4.62c.93-4.21,2.64-10.53,4.13-15.68a4.51,4.51,0,0,1,5.62-3.08Z"/><path class="cls-10" d="M496.81,628.58a4.52,4.52,0,0,1,3.11,5.44c-1.14,4.51-3,11.6-4.51,15.93a11.47,11.47,0,0,1-2,3.93,3.71,3.71,0,0,1-6.76-1.91,11.92,11.92,0,0,1,.39-4.63c.93-4.21,2.64-10.53,4.13-15.68a4.52,4.52,0,0,1,5.62-3.08Z"/><path class="cls-10" d="M503.75,633a3.91,3.91,0,0,1,2.69,4.71c-1,3.91-2.6,10-3.9,13.79a10.06,10.06,0,0,1-1.72,3.41,3.21,3.21,0,0,1-5.85-1.66,10.3,10.3,0,0,1,.33-4c.81-3.64,2.29-9.11,3.58-13.58a3.92,3.92,0,0,1,4.87-2.66Z"/><path class="cls-10" d="M511.62,633.87a3.92,3.92,0,0,1,2.7,4.73c-1,3.93-2.61,10.09-3.92,13.86a10.11,10.11,0,0,1-1.72,3.42,3.23,3.23,0,0,1-5.88-1.67,10.17,10.17,0,0,1,.34-4c.81-3.66,2.3-9.16,3.59-13.65a3.93,3.93,0,0,1,4.89-2.67Z"/><path class="cls-15" d="M487.12,646.63c-.37-.11.51-3.91,1.95-8.49s2.91-8.19,3.28-8.07-.51,3.91-2,8.49S487.48,646.75,487.12,646.63Z"/><path class="cls-15" d="M502.07,652.65c-.37-.14.78-3.86,2.14-8.44s2.43-8.31,2.82-8.24-.11,4-1.5,8.64S502.41,652.79,502.07,652.65Z"/><path class="cls-15" d="M494.66,651.69c-.36-.15.79-3.86,2.14-8.44s2.44-8.32,2.82-8.24-.11,4-1.49,8.63S495,651.83,494.66,651.69Z"/><path class="cls-5" d="M629.47,427.3c.31.23-10.57,15-24.29,33s-25.1,32.39-25.4,32.16,10.57-15,24.3-33S629.17,427.06,629.47,427.3Z"/><path class="cls-5" d="M700.68,469.41c.16.34-22.72,11.3-51.1,24.48s-51.52,23.57-51.68,23.22,22.71-11.3,51.1-24.48S700.52,469.06,700.68,469.41Z"/><path class="cls-5" d="M690.07,557c0,.38-16.34-.88-36.42-2.82s-36.32-3.82-36.29-4.2,16.34.89,36.43,2.82S690.11,556.66,690.07,557Z"/><path class="cls-10" d="M271.71,606.19l18,102.43a33.72,33.72,0,0,0,38,27.27h0a33.36,33.36,0,0,0,28.66-38.33l-2.93-17.63s25.2-6.83,22.57-32.14c-1.26-12.2-5.94-37.09-10.45-59.6-5.05-25.19-29.48-41.88-55.21-37.75h0C283.82,555,266.35,580.2,271.71,606.19Z"/><path class="cls-15" d="M353.46,680s-16.06,3.13-34.54-5.58c0,0,10,17.3,35.36,12.12Z"/><path class="cls-5" d="M360.06,605.27a3.64,3.64,0,0,1-3.1,4,3.52,3.52,0,0,1-4.16-2.82,3.65,3.65,0,0,1,3.1-4A3.53,3.53,0,0,1,360.06,605.27Z"/><path class="cls-5" d="M360.9,599.15c-.4.52-3.41-1.19-7.35-.73s-6.61,2.72-7.09,2.3c-.23-.19.13-1.09,1.28-2.14a10.23,10.23,0,0,1,5.61-2.42,9.84,9.84,0,0,1,5.92,1.17C360.59,598.11,361.1,598.91,360.9,599.15Z"/><path class="cls-5" d="M323,609.74a3.65,3.65,0,0,1-3.11,4,3.52,3.52,0,0,1-4.15-2.83,3.64,3.64,0,0,1,3.1-4A3.52,3.52,0,0,1,323,609.74Z"/><path class="cls-5" d="M322.81,604.26c-.4.52-3.42-1.19-7.36-.73s-6.6,2.72-7.09,2.3c-.23-.19.13-1.09,1.29-2.14a10.19,10.19,0,0,1,5.61-2.42,9.8,9.8,0,0,1,5.92,1.17C322.49,603.22,323,604,322.81,604.26Z"/><path class="cls-5" d="M340.47,633.78c0-.22,2.36-.92,6.28-1.87,1-.21,1.92-.52,2-1.21s-.39-1.77-1-2.87l-3.86-7.21c-5.39-10.29-9.41-18.79-9-19s5.13,8,10.52,18.24l3.74,7.28c.51,1.08,1.31,2.28,1,3.83a2.53,2.53,0,0,1-1.48,1.64A7,7,0,0,1,347,633C343,633.7,340.52,634,340.47,633.78Z"/><path class="cls-5" d="M329.18,637.78c.64-.11,1.14,4.1,5.15,6.68s8.52,1.6,8.62,2.18c.09.26-.92.94-2.84,1.21a10.92,10.92,0,0,1-7.17-1.59,9.23,9.23,0,0,1-4-5.63C328.53,638.88,328.89,637.78,329.18,637.78Z"/><path class="cls-5" d="M322.05,591.26c-.27,1.1-4.26,1-8.82,2.12s-8.16,2.73-8.88,1.86c-.33-.43.2-1.49,1.59-2.69a15.11,15.11,0,0,1,6.39-3,15.3,15.3,0,0,1,7.1,0C321.21,590,322.16,590.74,322.05,591.26Z"/><path class="cls-5" d="M358.72,590.41c-.59,1-3.41.35-6.69.68s-6,1.27-6.7.42c-.33-.41,0-1.35,1.11-2.32a9.37,9.37,0,0,1,5.26-2.06,9.47,9.47,0,0,1,5.53,1.17C358.49,589.08,359,589.94,358.72,590.41Z"/><path class="cls-5" d="M365.67,544.93c-3.39-2.57-8.83-2.45-11.64.73,2.32-3.27,1-8.18-2.26-10.61s-7.69-2.71-11.61-1.69-7.4,3.19-10.83,5.33a4.06,4.06,0,0,0-1.8-4.12,9.32,9.32,0,0,0-4.55-1.43c-6.6-.67-13.26,1.25-19.13,4.3a118.5,118.5,0,0,0-17.7,12h0A84.06,84.06,0,0,0,270,566.76l-.2.18c-3.75,3.35-6.91,13.41-6.34,18.37,2.09,18.2,8.12,28.75,11.52,46a6.1,6.1,0,0,0,1.3,3.2c2.1,2.18,5.87.33,7.86-2,4.82-5.57,6.5-13.18,6.74-20.5s-.81-14.63-.64-21.95c0-.17,0-.34,0-.52a37.67,37.67,0,0,1,.53-5.59c.32-1.19,3.42-11.64,13.48-13.36,10.67-1.81,31.71,8.54,42.14,6.89s11-9,11-9L363.49,581a37.61,37.61,0,0,0,1-15.58,17.64,17.64,0,0,0,5.17-9.1C370.43,552.16,369.07,547.5,365.67,544.93Z"/><path class="cls-10" d="M281.73,617.07c-.46-.14-18.23-3.14-15.66,14.07s19.59,11.12,19.55,10.62S281.73,617.07,281.73,617.07Z"/><path class="cls-15" d="M279.31,636c-.09,0-.28.26-.76.56a3.11,3.11,0,0,1-2.27.38c-1.94-.4-3.93-3.06-4.48-6.15a9.85,9.85,0,0,1,.21-4.42,3.52,3.52,0,0,1,1.95-2.63,1.58,1.58,0,0,1,1.92.56c.3.45.25.81.34.82s.33-.34.09-1a2,2,0,0,0-.85-1,2.3,2.3,0,0,0-1.75-.19,4.25,4.25,0,0,0-2.78,3.13,10.17,10.17,0,0,0-.34,5c.63,3.45,2.92,6.43,5.55,6.79a3.37,3.37,0,0,0,2.72-.86C279.34,636.43,279.37,636,279.31,636Z"/><path class="cls-7" d="M242.47,741.75a3.13,3.13,0,0,1,1.51-.24,5.93,5.93,0,0,1,3.92,2,8.56,8.56,0,0,1,2.3,6.53c-.06,2.77-1.11,5.74-2,8.93s-1.51,7,.6,10.21c1.89,3.29,5.74,5.81,7.31,10.39a12.28,12.28,0,0,1-3.85,13.34,12.54,12.54,0,0,1-7.16,2.78,26.83,26.83,0,0,1-7.68-1.24c-2.45-.62-4.93-1.12-7.14-.46s-3.89,2.4-5.29,4.3a37.35,37.35,0,0,1-4.53,5.66,9,9,0,0,1-6.7,2.46,13.37,13.37,0,0,1-10.59-7,25.61,25.61,0,0,1-2.7-10.82c-.2-3.4-.08-6.45-.15-9.11a42.51,42.51,0,0,0-.58-6.77,37.58,37.58,0,0,0-1.61-5.57,5,5,0,0,1,.76,1.32,19.36,19.36,0,0,1,1.37,4.14,39.82,39.82,0,0,1,.83,6.86c.15,2.68.1,5.73.36,9.06a24.9,24.9,0,0,0,2.72,10.33,12.25,12.25,0,0,0,9.65,6.32,7.72,7.72,0,0,0,5.76-2.17,38,38,0,0,0,4.33-5.49c1.42-1.94,3.29-4.06,6-4.81s5.39-.18,7.86.43a25.82,25.82,0,0,0,7.28,1.22,11.22,11.22,0,0,0,6.38-2.47,11,11,0,0,0,3.49-11.88c-1.3-4.06-5-6.64-7.09-10.2a10.56,10.56,0,0,1-1.51-5.75,20.59,20.59,0,0,1,1-5.32c1-3.25,2.06-6.08,2.18-8.7a8,8,0,0,0-1.91-6.12,5.83,5.83,0,0,0-3.55-2C243,741.67,242.48,741.83,242.47,741.75Z"/><path class="cls-7" d="M249.78,927.47c.08,0,.17.63.79,1.63a7,7,0,0,0,4.12,2.87,8.24,8.24,0,0,0,7.57-1.6c2.49-2,4.27-5.34,5.08-9.27s.7-8.47,1.45-13.33a21.84,21.84,0,0,1,2.45-7.25,12.14,12.14,0,0,1,6.1-5.46,17.46,17.46,0,0,1,8.52-.78c2.88.32,5.72,1,8.61,1.33a20.38,20.38,0,0,0,8.65-.41,19.6,19.6,0,0,0,7.76-4.31,16.84,16.84,0,0,0,4.77-7.4,14.11,14.11,0,0,0-.16-8.46c-1.73-5.37-6.35-9.71-11.53-10.26s-10.09,2-15.1,2.08a14.5,14.5,0,0,1-7-1.58,35.66,35.66,0,0,1-5.49-3.52c-3.26-2.5-6.25-4.71-9.3-5.68a9.48,9.48,0,0,0-7.84.51,7.17,7.17,0,0,0-3.4,3.7c-.39,1.11-.34,1.77-.42,1.77a4,4,0,0,1,.16-1.86,7.21,7.21,0,0,1,3.4-4.08,10,10,0,0,1,3.7-1.27,11.45,11.45,0,0,1,4.64.49c3.23,1,6.36,3.2,9.64,5.63s7.15,5,11.88,4.75a37.73,37.73,0,0,0,7.23-1.34,22.68,22.68,0,0,1,8.06-.87c5.78.61,10.78,5.3,12.67,11.11a15.42,15.42,0,0,1,.19,9.27,18.17,18.17,0,0,1-5.16,8,20.83,20.83,0,0,1-8.31,4.61,21.81,21.81,0,0,1-9.21.44c-3-.4-5.8-1.05-8.57-1.37a16.07,16.07,0,0,0-7.91.66,10.86,10.86,0,0,0-5.52,4.88,20.82,20.82,0,0,0-2.37,6.83c-.78,4.69-.7,9.26-1.63,13.34s-2.83,7.62-5.55,9.68a8.81,8.81,0,0,1-8.2,1.5,7,7,0,0,1-4.21-3.23A4.1,4.1,0,0,1,249.78,927.47Z"/><path class="cls-7" d="M339.91,766.7a9.19,9.19,0,0,1,1.84-2.48,14.15,14.15,0,0,1,7.85-4,13.72,13.72,0,0,1,12.69,5,14.63,14.63,0,0,1,3.2,8.21c.39,3,.26,6.47,2,9.24a7.23,7.23,0,0,0,3.88,2.87,19.43,19.43,0,0,0,5.26.82c1.85.1,3.77.09,5.74.29a10.9,10.9,0,0,1,5.82,2,7.25,7.25,0,0,1,2,2.59,7.09,7.09,0,0,1,.53,3.31,11,11,0,0,1-2.76,6,16.75,16.75,0,0,1-5.28,4.17c-2,1-4.09,1.83-6.12,2.77a21.65,21.65,0,0,0-5.67,3.49,11.09,11.09,0,0,0-3.31,5.65c-1.09,4.47-.08,9.28-.32,14.34a18.58,18.58,0,0,1-2,7.42,8.73,8.73,0,0,1-6.32,4.74,9.7,9.7,0,0,1-7.6-2.51,23.37,23.37,0,0,1-5.07-6.18,63.06,63.06,0,0,0-4.1-6.51,11.85,11.85,0,0,0-5.65-4.4,10.18,10.18,0,0,0-6.95.44,42.77,42.77,0,0,0-6.46,3.45,36.49,36.49,0,0,1-6.59,3.44,20.15,20.15,0,0,1-7.29,1.21A22.82,22.82,0,0,1,296,827.5a19,19,0,0,1-7.28-11.22c-.88-4.29-.05-9.15,3.17-12.11a12.31,12.31,0,0,1,5.46-2.83,46.22,46.22,0,0,1,5.69-1c3.68-.45,7.23-1.16,9.78-3.31a19.34,19.34,0,0,0,5.2-7.87c1.13-2.83,1.89-5.65,2.85-8.22a24.29,24.29,0,0,1,3.59-6.77,29.89,29.89,0,0,1,4.63-4.46c3-2.36,5.85-3.73,7.94-3.85a3.49,3.49,0,0,1,2.93.83,4.57,4.57,0,0,0-2.91-.55c-2,.2-4.68,1.6-7.62,4a30.56,30.56,0,0,0-4.46,4.44,24.19,24.19,0,0,0-3.37,6.64c-.92,2.53-1.64,5.36-2.76,8.27a20,20,0,0,1-5.4,8.3c-2.76,2.38-6.58,3.14-10.25,3.62s-7.7.93-10.52,3.59-3.6,7-2.76,11a17.73,17.73,0,0,0,6.86,10.45,21.62,21.62,0,0,0,12.55,4.36,18.82,18.82,0,0,0,6.79-1.14,36.57,36.57,0,0,0,6.36-3.34,42.79,42.79,0,0,1,6.67-3.57,11.6,11.6,0,0,1,7.87-.48,13.26,13.26,0,0,1,6.31,4.86,65.09,65.09,0,0,1,4.2,6.66,22.15,22.15,0,0,0,4.76,5.82,8.33,8.33,0,0,0,6.52,2.21,7.35,7.35,0,0,0,5.32-4,17.11,17.11,0,0,0,1.87-6.85c.26-4.76-.79-9.72.39-14.57a12.39,12.39,0,0,1,3.72-6.29,22.67,22.67,0,0,1,6-3.68c2.09-1,4.17-1.76,6.1-2.74a15.59,15.59,0,0,0,4.92-3.84,9.91,9.91,0,0,0,2.5-5.31,5.92,5.92,0,0,0-.41-2.74,6.11,6.11,0,0,0-1.69-2.17,9.75,9.75,0,0,0-5.21-1.83c-1.89-.21-3.79-.21-5.67-.33a20.39,20.39,0,0,1-5.55-.91,8.28,8.28,0,0,1-4.36-3.31c-1.93-3.19-1.69-6.69-2.06-9.67a13.89,13.89,0,0,0-2.93-7.82,13.13,13.13,0,0,0-12-5,14.21,14.21,0,0,0-7.73,3.66C340.5,765.8,340,766.75,339.91,766.7Z"/><path class="cls-7" d="M295.25,721.9c.11.07-1.68,1.91-5.5,2.71a17.89,17.89,0,0,1-6.76,0,11.73,11.73,0,0,1-7.24-4.16,15.79,15.79,0,0,1-2.61-7.9,21.42,21.42,0,0,1,.47-6.71c.85-3.8,2.75-5.56,2.82-5.43s-1.3,2-1.86,5.63a23.65,23.65,0,0,0-.17,6.39,15.32,15.32,0,0,0,2.46,7.19,10.83,10.83,0,0,0,6.39,3.74,18.37,18.37,0,0,0,6.33.23C293.22,723.14,295.12,721.68,295.25,721.9Z"/><path class="cls-7" d="M409.49,715.13c.05,0,0,.26-.19.73a7.11,7.11,0,0,1-1,1.9,11.73,11.73,0,0,1-6.59,4.4,12,12,0,0,1-5.61.13,14.83,14.83,0,0,1-5.64-3c-1.75-1.29-3.51-2.83-5.59-3.42a5,5,0,0,0-5.66,2.24c-1.37,1.93-2.15,4.3-3.26,6.46a13.06,13.06,0,0,1-4.69,5.34,12.57,12.57,0,0,1-17.71-3.82,6.07,6.07,0,0,1-1.09-2.69c.12,0,.46.93,1.54,2.39a12.91,12.91,0,0,0,6,4.47,11.77,11.77,0,0,0,10.57-1.41,12,12,0,0,0,4.18-4.89c1.05-2.06,1.8-4.46,3.35-6.66a7.06,7.06,0,0,1,3.15-2.58,6.35,6.35,0,0,1,4-.16c2.53.77,4.28,2.43,6,3.72a13.83,13.83,0,0,0,5.14,2.91,11,11,0,0,0,5.11,0,11.81,11.81,0,0,0,6.4-3.78C409,716.05,409.37,715.07,409.49,715.13Z"/><path class="cls-7" d="M428.4,819.31a15.11,15.11,0,0,1-2.95-1.92,62.77,62.77,0,0,1-7.24-6.3,34.19,34.19,0,0,1-4.2-5.19,17.78,17.78,0,0,1-2.65-7.3,14.37,14.37,0,0,1,1.35-8.52,11.07,11.07,0,0,1,3-3.58,33.24,33.24,0,0,1,3.92-2.5,16.68,16.68,0,0,0,3.53-2.54,8.26,8.26,0,0,0,2-3.5,20.15,20.15,0,0,0,.26-8,41,41,0,0,1-.54-7.64c.18-2.38.78-4.86,2.46-6.34a14.08,14.08,0,0,1,8.94-3.59c2.42,0,3.38,1.24,3.28,1.23a5.79,5.79,0,0,0-3.26-.69,14.09,14.09,0,0,0-8.27,3.74c-1.39,1.27-1.88,3.45-2,5.71a43.38,43.38,0,0,0,.67,7.42,21.12,21.12,0,0,1-.23,8.57,9.52,9.52,0,0,1-2.35,4.08,17.44,17.44,0,0,1-3.82,2.78c-2.7,1.5-5.18,3-6.42,5.51a13.26,13.26,0,0,0-1.27,7.73c.52,5.2,3.66,9.06,6.3,12C424.41,816.25,428.57,819.1,428.4,819.31Z"/><path class="cls-7" d="M372.91,872a4.3,4.3,0,0,1,1.24-.08c.81,0,2,0,3.55.2a34.7,34.7,0,0,1,12.57,3.67,22.84,22.84,0,0,1,11.89,15,16,16,0,0,1-1.65,11.5,15.54,15.54,0,0,1-10,7.45,13.91,13.91,0,0,1-6.44-.35c-2-.51-3.84-.8-5.53-.1a10.66,10.66,0,0,0-4.29,3.3,31.23,31.23,0,0,0-3,4.59c-1.72,3.15-3.79,6.35-6.91,7.9a13,13,0,0,1-9.11,1.08A11.51,11.51,0,0,1,349,922a12.82,12.82,0,0,1-2.44-5.16,10.76,10.76,0,0,1-.19-3.58,3.31,3.31,0,0,1,.28-1.22,17.76,17.76,0,0,0,.44,4.68,12.48,12.48,0,0,0,2.51,4.79,10.83,10.83,0,0,0,6,3.67,12.06,12.06,0,0,0,8.34-1.14c2.77-1.43,4.64-4.33,6.34-7.51s3.8-6.88,7.88-8.54c2-.86,4.39-.47,6.32,0a12.65,12.65,0,0,0,5.85.34,14.28,14.28,0,0,0,9.08-6.79,14.78,14.78,0,0,0,1.58-10.55,22.14,22.14,0,0,0-11.12-14.46,36.82,36.82,0,0,0-12.17-4C374.61,872.13,372.9,872.07,372.91,872Z"/><path class="cls-7" d="M323.23,959.6c-.28.06-.24-2.48-2.49-5.47a13.16,13.16,0,0,0-5-4,10.47,10.47,0,0,0-13.68,3.67,13.27,13.27,0,0,0-2.29,6c-.44,3.71.86,5.89.59,6-.07,0-.44-.45-.87-1.47a10.68,10.68,0,0,1-.69-4.6,13.38,13.38,0,0,1,2.2-6.58,11.46,11.46,0,0,1,15.3-4.1,13.44,13.44,0,0,1,5.2,4.58,10.72,10.72,0,0,1,1.71,4.34C323.39,959,323.31,959.6,323.23,959.6Z"/><path class="cls-7" d="M331.74,998.21c-.14,0-.25-1.25-1.2-3.26a13.87,13.87,0,0,0-6.36-6.53,13.13,13.13,0,0,0-12.94,1c-2.17,1.36-3.66,3.65-5.35,6.05a17.7,17.7,0,0,1-3,3.45,7.07,7.07,0,0,1-4.63,1.72c-3.55-.16-6.08-2.58-8-4.79s-3.48-4.55-5.62-5.87a9.94,9.94,0,0,0-6.88-1.24,13.72,13.72,0,0,0-5.81,2.42,23.69,23.69,0,0,0-6.12,7,25.5,25.5,0,0,1-1.81,3,12.44,12.44,0,0,1,1.34-3.26,22.21,22.21,0,0,1,6-7.55,14.41,14.41,0,0,1,6.2-2.77,11.11,11.11,0,0,1,7.74,1.28c2.46,1.5,4.14,3.93,6,6.09s4.17,4.19,6.95,4.28,4.92-2.29,6.54-4.58,3.32-4.84,5.76-6.32A13.73,13.73,0,0,1,331,994.74a11.5,11.5,0,0,1,.68,2.55C331.78,997.89,331.79,998.2,331.74,998.21Z"/><path class="cls-7" d="M352.09,901.94c-.16.25-2.6-2.12-7.63-3.36a23.58,23.58,0,0,0-8.93-.48A21.35,21.35,0,0,0,325.45,902a18.46,18.46,0,0,0-6.37,8.62,19.22,19.22,0,0,0-1,8.8c.72,5.13,3.11,7.66,2.82,7.81a6.1,6.1,0,0,1-1.49-1.77,15.61,15.61,0,0,1-2.29-5.89,19.23,19.23,0,0,1,7.47-18.68,21.89,21.89,0,0,1,10.75-4.08,23.4,23.4,0,0,1,9.34.8,18.61,18.61,0,0,1,5.68,2.74C351.59,901.26,352.14,901.88,352.09,901.94Z"/></g></g></svg>