<svg xmlns="http://www.w3.org/2000/svg" viewBox="0 0 1275.39 1257.51"><defs><style>.cls-1{fill:#f5f5f5;}.cls-2{fill:#e1e1e1;}.cls-3{fill:#0080ff;}.cls-4{opacity:0.15;}.cls-5{fill:#fff;}.cls-6{fill:#10273b;}.cls-7{fill:#19365c;}.cls-8{fill:#ffbd9e;}.cls-9{fill:#e3a88d;}.cls-10{opacity:0.45;}.cls-11{opacity:0.2;}.cls-12{fill:#ff9090;}.cls-13{fill:#fafafa;}</style></defs><title>Zasób 40</title><g id="Warstwa_2" data-name="Warstwa 2"><g id="DESIGNED_BY_FREEPIK" data-name="DESIGNED BY FREEPIK"><path id="Floor" class="cls-1" d="M186.78,1149.67c-249-143.78-249-376.9,0-520.68s652.8-143.77,901.83,0,249,376.9,0,520.68S435.81,1293.45,186.78,1149.67Z"/><ellipse id="Shadow" class="cls-2" cx="386.07" cy="1043.64" rx="195.65" ry="112.96"/><ellipse id="Shadow-2" data-name="Shadow" class="cls-2" cx="772.34" cy="868.65" rx="279.12" ry="138.89" transform="translate(-319.77 470.69) rotate(-28.34)"/><g id="Plants"><path class="cls-3" d="M973.31,830.48c27.13-32.35,69.63-53.42,117.42-65.86,47.18-12.27,55.64-41.3,24.36-50.72-35.45-10.68-79.69,8.94-108.21,36.23-49.72,47.57-56,84-56,84Z"/><path class="cls-4" d="M973.31,830.48c27.13-32.35,69.63-53.42,117.42-65.86,47.18-12.27,55.64-41.3,24.36-50.72-35.45-10.68-79.69,8.94-108.21,36.23-49.72,47.57-56,84-56,84Z"/><path class="cls-5" d="M959.34,828.59a1.47,1.47,0,0,1-.61-.14,1.37,1.37,0,0,1-.63-1.84c40.27-82.63,129.38-103,151-101.42a1.38,1.38,0,0,1,1.27,1.48,1.41,1.41,0,0,1-1.47,1.27c-21.16-1.62-108.72,18.52-148.37,99.87A1.37,1.37,0,0,1,959.34,828.59Z"/><path class="cls-3" d="M950.93,839.07a7.53,7.53,0,0,0,11.38,6.44c25.22-14.69,62-22.8,121.59-5.85,31.66,9,47.25,3,53.92-9.92,7.42-14.32-8.29-28.16-26.18-34.69-60.94-22.27-116-7.07-160.71,37.36Z"/><path class="cls-5" d="M954.4,840.25a1.37,1.37,0,0,1-.92-2.4c52.62-47,134.16-37.88,165-19.53a1.37,1.37,0,1,1-1.41,2.36c-30.23-18-110.14-26.92-161.77,19.22A1.32,1.32,0,0,1,954.4,840.25Z"/></g><g id="Plants-2" data-name="Plants"><path class="cls-3" d="M362,948.75c-23.13-35.32-62.85-61.26-108.84-79.25-45.4-17.75-50.38-47.58-18.21-53.24,36.47-6.43,78.09,18.28,103.19,48.75,43.76,53.09,45.65,90,45.65,90Z"/><path class="cls-4" d="M362,948.75c-23.13-35.32-62.85-61.26-108.84-79.25-45.4-17.75-50.38-47.58-18.21-53.24,36.47-6.43,78.09,18.28,103.19,48.75,43.76,53.09,45.65,90,45.65,90Z"/><path class="cls-5" d="M376.14,948.52a1.28,1.28,0,0,0,.61-.07,1.37,1.37,0,0,0,.85-1.75c-30.24-86.79-116.33-117.49-138-118.53a1.38,1.38,0,0,0-1.44,1.32,1.41,1.41,0,0,0,1.31,1.44c21.2.88,105.77,31.22,135.55,116.68A1.38,1.38,0,0,0,376.14,948.52Z"/><path class="cls-3" d="M384,953.31a11.45,11.45,0,0,1-17.77,8.16c-23.35-15.64-58.14-25.79-115.12-16.65-32.51,5.21-47.27-2.61-52.38-16.21-5.68-15.1,11.56-27,30.09-31.36,63.15-14.93,116,6.66,155.18,56.06Z"/><path class="cls-5" d="M379.66,960.69a1.41,1.41,0,0,0,1.08-.34,1.38,1.38,0,0,0,.12-1.94C334.15,905.49,252.11,905,219.3,919.54a1.38,1.38,0,0,0,1.12,2.52c32.14-14.28,112.56-13.74,158.37,38.17A1.36,1.36,0,0,0,379.66,960.69Z"/></g><g id="Check_Mark" data-name="Check Mark"><g id="Circle"><path class="cls-6" d="M998,319.44v0l-.43-.22-.05,0-105-60.44-.1-.05-.61-.31v0c-49.05-24.74-114.49-17.32-184.88,28.2C565.53,378,457.78,588.51,466.26,756.69c4.23,83.84,36.56,141.32,85.42,166.59v0l.43.22,0,0,105,60.45,0,0,.52.26v0c49.06,24.82,114.56,17.42,185-28.14,141.42-91.44,249.18-301.91,240.69-470.1C1079.2,402.19,1046.88,344.71,998,319.44Z"/><path class="cls-6" d="M653.59,982.09,552.18,923.54h-.07l-.48-.29c-48.83-25.33-81.14-82.82-85.36-166.53-3.79-75,15.59-158.39,50.66-235.82l.71-1.69L622,581.34c-35.15,77.44-54.45,160.81-50.67,235.82C575.44,899.19,606.48,956,653.59,982.09Z"/><path class="cls-7" d="M842.74,956.13c141.42-91.44,249.17-301.91,240.69-470.1s-130-230.41-271.42-139S562.84,649,571.33,817.17,701.33,1047.58,842.74,956.13Z"/></g><path id="Shadow-3" data-name="Shadow" class="cls-6" d="M962.5,306.39,785.27,671.45,747.12,630.1A62.7,62.7,0,0,0,655,715.18L755.49,824a62.32,62.32,0,0,0,42.67,20.06c1.16.07,2.31.1,3.47.1a65.16,65.16,0,0,0,9.09-.65A62.61,62.61,0,0,0,858,808.9l203.27-418.67C1040.46,343.81,1005.74,314.94,962.5,306.39Z"/><path class="cls-3" d="M1106.44,186.14c-1.11-.64-2.24-1.24-3.41-1.81a54.54,54.54,0,0,0-72.77,25.18L804.73,674.05l-12.81-13.88A53.38,53.38,0,0,0,779.13,650c-6.73-3.86-35.31-20.42-39.94-23.09A54.45,54.45,0,0,0,671.94,711L772.43,819.81a54.1,54.1,0,0,0,13,10.32c6.56,3.74,35.05,20.25,39.71,23a54.21,54.21,0,0,0,24.36,7.24,55.63,55.63,0,0,0,10.9-.48,54.39,54.39,0,0,0,41-30.08L1168.2,280.2a54.55,54.55,0,0,0-21.73-70.95C1145.36,208.61,1113.56,190.24,1106.44,186.14Z"/><path class="cls-4" d="M1106.44,186.14c-1.11-.64-2.24-1.24-3.41-1.81a54.54,54.54,0,0,0-72.77,25.18L804.73,674.05l-12.81-13.88A53.38,53.38,0,0,0,779.13,650c-6.73-3.86-35.31-20.42-39.94-23.09A54.45,54.45,0,0,0,671.94,711L772.43,819.81a54.1,54.1,0,0,0,13,10.32c6.56,3.74,35.05,20.25,39.71,23a54.21,54.21,0,0,0,24.36,7.24,55.63,55.63,0,0,0,10.9-.48,54.39,54.39,0,0,0,41-30.08L1168.2,280.2a54.55,54.55,0,0,0-21.73-70.95C1145.36,208.61,1113.56,190.24,1106.44,186.14Z"/><path class="cls-4" d="M825.1,853.08c-4.64-2.69-33.14-19.21-39.7-23a54.35,54.35,0,0,1-13-10.31L671.93,711a54.37,54.37,0,0,1-10.39-16.55l40,23.06A53.51,53.51,0,0,0,711.94,734L812.43,842.9A55.1,55.1,0,0,0,825.1,853.08Z"/><path class="cls-4" d="M1082.88,215.85a54,54,0,0,0-12.62,16.75l-232,477.82-33.55-36.37,225.53-464.53a53.27,53.27,0,0,1,12.65-16.75Z"/><path id="Check" class="cls-3" d="M1143,207.43a54.53,54.53,0,0,0-72.77,25.18l-232,477.81-46.36-50.25a54.44,54.44,0,0,0-80,73.87L812.43,842.91a54.15,54.15,0,0,0,37,17.41,55.63,55.63,0,0,0,10.9-.48,54.39,54.39,0,0,0,41-30.08L1168.2,280.2A54.52,54.52,0,0,0,1143,207.43Z"/></g><g id="Character"><path class="cls-8" d="M382.17,261.09c-21,0-35.39,5.47-50.31,26.73-13.69,19.49-51.34,84.49-51.34,84.49s-27.46-56.5-30.31-67.77-2.6-16.28.11-21.17c3.34-6,6.32-11.31,6.95-19.38,1.07-13.54,4.39-25.13,1.35-25.52-8.41-.48-8.73,10.31-13.14,16.69-1.58,2.28-6.73,2.61-8.47-.93-1.85-3.77-.85-10-1.75-14.42a61.56,61.56,0,0,1,1.19-7.37,32.72,32.72,0,0,0,9.64.27c3.63,5.71,6.12,8.11,11.18,5.79.67-1.07-2.17-8.38-5.47-13.66a3.92,3.92,0,0,0-2.26-1.73c-5.09-1.4-10.86-1.75-18.68-.51a3.49,3.49,0,0,0-2.39,1.33,45.33,45.33,0,0,0-5.37,10.93c-.38,1.17-1.46,1.14-1.74.12-2.68-13.3-2.72-32.18-2.72-41,0-7-10.18-8.05-10.54,1.92-.36,10.21-.63,29.11.69,40.13.16,1.21-1.2,1.78-1.69.47-1.78-4.73-6.1-19-7.91-43.53-.49-6.6-11.18-7.68-11.1,1.6a235.49,235.49,0,0,0,6.12,48.92c.31,1.16-.74,2.18-1.55.86-3.55-5.81-9.14-20.25-12-30.18-2.27-8-12.92-5.94-11.06,4,3.34,17.82,8.63,40.38,16.51,56.48,8.43,17.22,15.73,25.83,19.9,39.36s21.52,90.13,40.05,120c14.52,23.39,31.13,21.24,49,8.9S376.83,341.5,376.83,341.5Z"/><path class="cls-9" d="M280.52,372.31s9,15.19,10.32,27.33a47.66,47.66,0,0,0-6.32-34.21Z"/><path class="cls-7" d="M386.64,261.16c-10.69-1.1-24-1.47-38.82,7.86s-20,22.35-27.17,33.72-32,51.68-32,51.68,9.11,38.26,45.38,46.14l54.28-73.66Z"/><path class="cls-6" d="M435.32,933.8c2.65-.34,6.4,9,6.45,12.1s-3,9.65-7.08,15.81-9.69,13.8-13.34,23.76c-3.11,8.49-6,14-14.65,25.16-9.65,12.37-32.28,33.07-66.66,24.06-8.4-2.2-12.59-4.85-15.63-7.9a10.2,10.2,0,0,1-2.41-10.52Z"/><path class="cls-6" d="M367.79,923.07c0,.1-.05.2-.08.29-.59,2.53-.09,5.17.23,7.75a54.08,54.08,0,0,1-13,42.39c-4.11,4.69-10.83,9.65-16.07,13-17.42,11.12-19.29,18.55-16.84,29.78,5.83,13.08,45.31,21,68,1.56,8.87-7.62,15.6-14.31,21.61-29.38a210.2,210.2,0,0,1,11.45-24.23c4.4-8.26,12.72-17.58,13-26.1.14-4.67-4.5-13.38-9-20.54-4.12-6.58-8.38-12.84-12.09-12.1l1,3.72c-3.09,3.21-7.59,4.41-10.3,8.19-3.35,4.66-3.23,10.91-5.31,16.26a1.86,1.86,0,0,1-1,1.23,1.32,1.32,0,0,1-1.45-.73,4,4,0,0,1-.32-1.72l-.24-8c-.05-1.53-.14-3.19-1.16-4.34-2.15-2.43-7.45-2.14-10.39-2.26-4-.17-7.87.46-11.86.71-1.49.09-2.6,0-3.86,1A7,7,0,0,0,367.79,923.07Z"/><path class="cls-8" d="M309.44,762.94c9.17,30.16,52.05,134.56,54.63,140.84s8.53,20.73,8.53,20.73,7,2.88,17.41.72c.9,10,2.41,25.68,3,33.59.19,9.17,1,20.5-1,29.57-1.68,7.72-3.63,15.81-5.08,23.55-.65,3.43-1.29,6.85-1.81,10.3-.54,3.65-.9,7.58.87,10.82a13.37,13.37,0,0,0,3.4,3.87,30.39,30.39,0,0,0,21.61,6.34,22.76,22.76,0,0,0,11.45-3.79c6.66-4.78,9-13.07,12.4-20.12,3.68-7.65,2.48-8.48,2.8-16.67.22-5.73,1.8-20.28,4.1-35.47s12.15-68.64,16.88-121.89a436.19,436.19,0,0,0,0-71.05c37.63-102.22,54.38-163,59.3-196.94,5-34.49,2.6-46.75,2-66.6l-183,4.4C322.25,609.7,297.13,722.5,309.44,762.94Zm89.37-162.18Z"/><path class="cls-3" d="M306.58,687.46c3.77-34.76,29.77-168.37,29.77-168.37H520.68s1.16,25.65.83,37.42-4.12,33.33-10.72,60.55-31,104.34-35.68,115.73-13.84,44.27-13.84,44.27c4.53,61.81-7.23,117.28-16,191,0,0-2.56,10-28.68,8C391.17,974.13,386,964.77,386,964.77l-1.7-63.61s-13.88,4.26-22,2.31c0,0-54.56-134.69-57.2-142.81S302.81,722.22,306.58,687.46Z"/><path class="cls-10" d="M306.58,687.46c3.77-34.76,29.77-168.37,29.77-168.37H520.68s1.16,25.65.83,37.42-4.12,33.33-10.72,60.55-31,104.34-35.68,115.73-13.84,44.27-13.84,44.27c4.53,61.81-7.23,117.28-16,191,0,0-2.56,10-28.68,8C391.17,974.13,386,964.77,386,964.77l-1.7-63.61s-13.88,4.26-22,2.31c0,0-54.56-134.69-57.2-142.81S302.81,722.22,306.58,687.46Z"/><path class="cls-11" d="M384.76,606.19c-26.1-23.54-31.91-42.26-31.91-42.26,19.46,23,46,36.83,46,36.83s-24.78,130.88-23,157.8,8.51,142.6,8.51,142.6c.05,1.11-17.57-122.36-18.07-132.22C365,743,384.76,606.19,384.76,606.19Z"/><path class="cls-6" d="M442.21,1033.61c2.57.73,2.25,8.4,1.09,11.24s-5.74,8.27-11.91,12.35S419.48,1067,413.91,1076a88.21,88.21,0,0,1-27.41,26.76c-13.48,8.08-33.4,10.9-48.2,6.7-17.29-4.91-18.9-9.15-18.74-15.67Z"/><path class="cls-7" d="M388.71,993.56c-4.54,22.14-12.44,38.21-30.78,51.83-14.58,10.83-25.17,16.34-36.8,26-5,4.13-5.37,12.92-1.57,22.4,7.86,6.31,19,9.92,34.06,9.9,16.79,0,23.25-3,32.88-9.58a87.06,87.06,0,0,0,13.16-11.05c8.07-8.1,13.69-18.09,19.51-24.5s18.41-13,22-20.71c2-4.26,1.13-14.09-.18-22.47-1.21-7.68,1.14-21.17-2.56-22,.08,0-.51,5.5-.51,5.5-.3,1.25-1.08,1.88-3.68,2.78a18.76,18.76,0,0,1-7.09.21c-2.11-.36-3.33-.32-4.74,1.34-2.48,2.93-3.14,7.05-6.33,9.47a1.89,1.89,0,0,1-.74.39.76.76,0,0,1-.76-.22,1.16,1.16,0,0,1-.14-.9c.3-2.75.61-5.49.92-8.24a9.9,9.9,0,0,0,.06-2.49,5.36,5.36,0,0,0-2.66-3.62,29.45,29.45,0,0,0-7.4-3.07,45.65,45.65,0,0,0-8.2-1.4A25.45,25.45,0,0,0,388.71,993.56Z"/><path class="cls-3" d="M504,269s7.59,10.43,13.67,31.89A522.31,522.31,0,0,1,529.26,408.1c0,48.65-6.56,127.52-6.56,127.52-56.48,28.31-147.59,11.57-187.69-16,1.62-8.77,3-54.82,6.15-85.19,2.14-52.12,3.9-79.43,4.26-102.62.74-46.33,23.8-70.25,41.22-70.61l44.23.69Z"/><path class="cls-9" d="M518,521.31c-8.4,6.92-24.89,20.2-27.91,26.89-3.45,7.66-5.6,19.2-7.84,23.65s1.2,6.53,6,5,7.76-5.69,11.49-15.71,14.15-17.87,14.15-17.87Z"/><path class="cls-8" d="M487.29,611.48c2,3.88,6.7,3.89,11,4.25A35.39,35.39,0,0,0,514,614a28.39,28.39,0,0,0,15-10.45c4.25-6.09,5.33-13.76,7.75-20.77,5.09-14.75,20.18-25.37,22.64-41,1-6.46,1-14,2.86-18,1.08-2.36,25.89-45.09,34.74-63.59,8.5-17.79,14.86-26.16,7.15-47.55s-34-96.59-52.55-122.72C541,275,524.29,270.78,504,269c-15.42,40.18,2.53,81.68,2.53,81.68l40.79,78.71s-15.86,54.2-25.77,84.34c-2.75,8.37-8.32,13.55-14.58,22.83-2.71,4-9,11.08-11.18,15.41-2.86,5.57-2.79,9.13-4.13,16.93C489.55,581.34,486.33,609.63,487.29,611.48Z"/><path class="cls-7" d="M501.85,268.81c10.65.42,26,2.23,35.12,6.85s15.5,10.34,26,31.43,25.89,62.08,25.89,62.08-5.09,30.93-54,38.95l-33-60.94S487.11,309.2,501.85,268.81Z"/><path class="cls-6" d="M374.78,170.37c1.6,2.32,2.48,5.49,3.74,8,1.77,3.57,3.55,7.19,6.18,10.23,6.34,7.3,15.26,12.65,23.36,17.82,4.92,3.14,10.54,6.09,16.55,5.23s12.7.45,18.92,1l21.67,1.95L464,237.42s2.68-6,6.35-13.24c3.16-6.2,16.32-37.64,16.37-37.76,6.52-15.58,14.27-36.34,6.47-52.71a21.78,21.78,0,0,0-8.48-9.72,19.18,19.18,0,0,0,.72-7.76c-1.05-8.8-5.53-13.84-11.51-18.24s-13.21-6.75-20.44-8.42a129.72,129.72,0,0,0-29.58-3.29c-9.89,0-19.31,1.7-29,3.33a103.37,103.37,0,0,1-16.17,1.69,30.32,30.32,0,0,1-7-.33c-2.84-.66-5.69-2.06-8.44-3a2,2,0,0,0-1.51-.12,1.88,1.88,0,0,0-.82,1.3c-1.74,6.37.45,14.65,4.51,19.86a13.31,13.31,0,0,1-3.59-1,26.07,26.07,0,0,1-3.72-2.09,21.12,21.12,0,0,1-5.22-5,1.59,1.59,0,0,0-.86-.64c-.55-.1-1,.38-1.34.83-3.14,4.29-3.93,10-2.87,15.22A33.26,33.26,0,0,0,355,130.32c-3.6,5.35-3.66,12.62-1,18.49a25.15,25.15,0,0,0,4.87,7c2.47,2.53,5.4,4.6,8,7S372.74,167.38,374.78,170.37Z"/><path class="cls-8" d="M440.79,132.42a43.11,43.11,0,0,0,1.56,12.18c1.28,3.73,3.42,6.2,6.15,9.06s6.27,5.26,8.53,8.62c3.09,4.58,4.15,10.5,4.8,15.86.39,3.26,1.39,6.82,4.19,8.55,5.89,3.64,9.42-3.42,12.56-6.89,4.06-3.75,16.07-8.32,21.64,4.46,5.76,13.23-4.86,30.75-14.53,33.44C469,222.35,465.4,211,465.4,211l-3.2,59.49c-9.41,17.83-31.5,23.49-46,20.65-12.53-2.44-19.42-11.22-7.63-24l.63-18.12s-15,1.78-22.29.42c-12.07-2.27-18.06-12.53-21.32-25.79-5.22-21.29-7.61-43.67-1.15-91.62,3-1.63,14.88,7.65,32.92,8.9S431.8,137.39,440.79,132.42Z"/><path class="cls-9" d="M409.19,249.06s27.27-4.58,36.91-9.31c6.45-3.16,11.86-8.83,13.51-12.53a42.56,42.56,0,0,1-7.93,15c-7.22,8.63-42.72,14-42.72,14Z"/><path class="cls-6" d="M423.27,153.6l12.7,3.89a7,7,0,0,0-4.56-8.5A6.48,6.48,0,0,0,423.27,153.6Z"/><path class="cls-9" d="M418.86,213.86l-18.69,6.33a9.71,9.71,0,0,0,12.35,6.53A10.33,10.33,0,0,0,418.86,213.86Z"/><path class="cls-12" d="M417.35,218.44a11,11,0,0,0-10.66,8.36,9.53,9.53,0,0,0,5.83-.08,10.14,10.14,0,0,0,6.64-8.1A10.78,10.78,0,0,0,417.35,218.44Z"/><path class="cls-6" d="M366.6,155.73l12.89-1.7a6.28,6.28,0,0,0-7.14-5.5A6.63,6.63,0,0,0,366.6,155.73Z"/><path class="cls-6" d="M446,161.24l42.6,14.6s-6.68-.54-12.28,6.23l-30.17-11.46Z"/><path class="cls-6" d="M372.94,177.85a5.1,5.1,0,1,0,5.27-5.13A5.18,5.18,0,0,0,372.94,177.85Z"/><path class="cls-6" d="M421.62,177.88a5.1,5.1,0,1,0,5.26-5.14A5.18,5.18,0,0,0,421.62,177.88Z"/><path class="cls-6" d="M347.82,164.33a11.58,11.58,0,0,0,2.69,6,5.24,5.24,0,0,1,1.07,2.14c1,4.1,1.85,11.86,3.79,16.22s6,11.26,17.46,11.52a24.67,24.67,0,0,0,5.93-.5l.45-.09a16.86,16.86,0,0,0,4.83-1.91l.29-.17c.14-.09.28-.17.41-.27s.24-.16.52-.35.32-.24.48-.37.35-.27.52-.42a5.35,5.35,0,0,0,.5-.45c.33-.3.64-.61.94-.94a22.7,22.7,0,0,0,3.88-6.17c2.51-5.67,1.86-13.6,6-14.52a4,4,0,0,1,.5-.07,4.7,4.7,0,0,1,.54,0c5.63.08,5,8.72,8.15,14.89s8.36,12.2,20.57,12.37c.55,0,1.08,0,1.58,0s.86-.05,1.26-.09a20,20,0,0,0,2.95-.42c.31-.07.62-.13.92-.21l.88-.25a5.22,5.22,0,0,0,.56-.18,16.36,16.36,0,0,0,3.31-1.55c.39-.25.75-.49,1.11-.75a15.31,15.31,0,0,0,1.91-1.68,19.38,19.38,0,0,0,3.7-5.73c1.9-4.28,2.4-12,3.34-16.08a7.05,7.05,0,0,1,.93-2.34c.79-1.17,2.68-3.2,2.75-5.79s-1.75-4.85-3.4-5.09c-1-.14-2-.28-3-.4-9.64-1.17-22.22-1.68-29.73.35-9.43,2.58-12.7,5.6-18,5.53-4.92-.12-8.11-3.25-17-6.17-7.12-2.31-18.87-2.24-27.85-1.42-1,.08-1.89.18-2.78.29C349.26,159.41,347.63,161.74,347.82,164.33Zm62,5.89a8,8,0,0,1,2.68-2.19c.16-.1.32-.18.49-.27l.26-.14c.42-.21.86-.43,1.33-.62l1.23-.51a35.15,35.15,0,0,1,4-1.26c.53-.14,1.06-.26,1.61-.38a38.33,38.33,0,0,1,4.14-.65c.33,0,.66-.07,1-.08,9.07-.73,14.74,1.41,16.8,3.27s1.17,10.31.3,14.57l-.06.32c0,.1-.05.22-.07.33-.1.51-.23,1.1-.39,1.72l-.29,1.07s0,0,0,0a18.66,18.66,0,0,1-.6,1.78h0l-.25.61-.16.37c-.06.13-.12.27-.19.4l-.25.51c-.1.19-.2.38-.31.57l-.36.6c-.12.19-.25.4-.39.6-2.26,3.26-6.07,6-12.69,6s-10.73-2.27-13.41-5.11h0a19.06,19.06,0,0,1-4.39-8.6C408.71,178.37,408.07,172.82,409.84,170.22Zm-53.4-4.44a7.66,7.66,0,0,1,2.22-1.4l.18-.08a9.13,9.13,0,0,1,1-.38l.6-.2.5-.14.33-.08.13,0,.49-.12A20.28,20.28,0,0,1,364,163c.37,0,.74-.09,1.13-.11.22,0,.45,0,.69-.05l.52,0c.47,0,1,0,1.45,0h1a41.6,41.6,0,0,1,4.18.4c6.48.93,13.24,3.94,15,6.59s1.37,8.19.52,12.93a22.2,22.2,0,0,1-.81,3.18c0,.07-.06.16-.09.24a3,3,0,0,1-.12.32,1.43,1.43,0,0,1-.08.22l-.15.38c-.11.27-.23.53-.35.79s-.22.44-.34.66a2.6,2.6,0,0,1-.13.24c-.08.14-.17.3-.27.45a4.11,4.11,0,0,1-.24.39l0,.06c-2.25,3.45-6.27,6.43-13.48,6.16a16,16,0,0,1-6.79-1.63c-6.43-3.27-8.08-10.5-8.84-13.85C355.78,176.07,354.52,167.63,356.44,165.78Z"/><path class="cls-9" d="M400.17,174.26l-1,35.41L379.45,204l18.42-30A5.07,5.07,0,0,1,400.17,174.26Z"/></g><g id="Speech_Bubble" data-name="Speech Bubble"><g id="Speech_Bubble-2" data-name="Speech Bubble"><ellipse class="cls-3" cx="676.31" cy="89.38" rx="102.05" ry="89.38"/><path class="cls-3" d="M594.85,141.06c-.56,12-10.69,33.42-29,41.21a1.27,1.27,0,0,0,.21,2.41c10,2.08,36.75,4.6,56.47-21.39Z"/></g><path class="cls-13" d="M607.12,82.29A32.71,32.71,0,0,1,609.75,71a27.12,27.12,0,0,1,6.56-9.24,31.47,31.47,0,0,1,10.31-6.23,43.58,43.58,0,0,1,28,0A31.35,31.35,0,0,1,665,61.71,27.09,27.09,0,0,1,671.54,71a32.72,32.72,0,0,1,2.64,11.34q.21,4.62.21,9.67t-.21,9.45a32.66,32.66,0,0,1-2.64,11.34,27.72,27.72,0,0,1-6.55,9.3,30.22,30.22,0,0,1-10.37,6.23,44.49,44.49,0,0,1-28,0,30.32,30.32,0,0,1-10.31-6.23,27.74,27.74,0,0,1-6.56-9.3,32.65,32.65,0,0,1-2.63-11.34q-.21-4.39-.21-9.45T607.12,82.29Zm47.18,18.59c.07-1.29.14-2.72.21-4.3s.11-3.19.11-4.83,0-3.25-.11-4.79-.14-2.92-.21-4.14a16.84,16.84,0,0,0-1.13-4.94,11.44,11.44,0,0,0-6.72-6.55,17.83,17.83,0,0,0-11.6,0,11.44,11.44,0,0,0-6.72,6.55A16.53,16.53,0,0,0,627,82.82q-.21,1.83-.27,4.14c0,1.54-.05,3.14-.05,4.79s0,3.25.05,4.83.13,3,.27,4.3a14.42,14.42,0,0,0,3.71,8.92q3.27,3.54,9.94,3.54t9.89-3.54A15.12,15.12,0,0,0,654.3,100.88Z"/><path class="cls-13" d="M750.48,125.92a2,2,0,0,1,.32,1.18,2.39,2.39,0,0,1-2.37,2.36H731.35a4.39,4.39,0,0,1-2.48-.64,9.27,9.27,0,0,1-1.93-1.83l-20.31-25.58v25.15a2.79,2.79,0,0,1-.86,2,2.75,2.75,0,0,1-2,.86H689.65a2.75,2.75,0,0,1-2-.86,2.79,2.79,0,0,1-.86-2V57.14a2.94,2.94,0,0,1,2.9-2.9h14.08a2.94,2.94,0,0,1,2.9,2.9V79.82L725.54,56.6c.36-.43.83-.93,1.4-1.5a4,4,0,0,1,2.9-.86H746.6A2.39,2.39,0,0,1,749,56.6a2,2,0,0,1-.32,1.19L722.1,90.24Z"/></g><g id="Like_icon" data-name="Like icon"><polygon class="cls-2" points="939.61 173.88 924.17 178.53 913 141.28 928.41 136.63 939.61 173.88"/><path class="cls-2" d="M987.85,140.79c.6,2-1.38,6.31-4.37,7.21a10.63,10.63,0,0,1,2.16,3.95c.89,2.88-1.47,6.76-6.11,8.14l-35.34,10.63-10.39-34.6h0s6-15.31,6.29-17.61-3.23-10.79-3.72-12.4c-.39-1.3,5.23-3.68,9.76-1.85a7.84,7.84,0,0,1,2.88,2,24.31,24.31,0,0,1,4,5.81,21,21,0,0,1,2.16,9.77l21.35-6.43a6.63,6.63,0,0,1,4.57.15,6.21,6.21,0,0,1,3.52,3.74,6.32,6.32,0,0,1-1.82,6.44s4.55-.37,5.84,3.93a6.31,6.31,0,0,1-3.52,7.15A6.67,6.67,0,0,1,987.85,140.79Z"/></g><g id="Like_icon-2" data-name="Like icon"><polygon class="cls-2" points="1161.02 560.28 1141.22 555.52 1152.76 507.75 1172.54 512.5 1161.02 560.28"/><path class="cls-2" d="M1234.74,554.91c-.62,2.56-5.52,6-9.37,5.08a13.55,13.55,0,0,1-.15,5.68c-.86,3.71-5.91,6.44-11.85,5L1168,559.76l10.69-44.38,0,0s16.29-12.88,18.08-15.21,3.34-13.84,3.84-15.9c.4-1.67,8-.68,11.82,4.19a9.84,9.84,0,0,1,1.88,4,30.8,30.8,0,0,1,.72,8.91,26.52,26.52,0,0,1-3.87,12l27.39,6.59a8.46,8.46,0,0,1,4.89,3.07,7.85,7.85,0,0,1,1.46,6.32,8,8,0,0,1-6.09,5.89s5.21,2.49,3.88,8c-.75,3.09-4.08,5.8-8.41,5.57C1234.3,548.83,1235.67,551.08,1234.74,554.91Z"/></g><g id="Like_icon-3" data-name="Like icon"><polygon class="cls-2" points="160.72 531.7 182.33 538.21 197.97 486.04 176.39 479.54 160.72 531.7"/><path class="cls-2" d="M93.15,485.36c-.83,2.8,1.94,8.83,6.13,10.1a15.08,15.08,0,0,0-3,5.52c-1.24,4,2.06,9.47,8.56,11.41l49.48,14.89,14.57-48.46h0s-8.4-21.43-8.81-24.66,4.53-15.11,5.21-17.36c.55-1.83-7.33-5.15-13.66-2.6a11.14,11.14,0,0,0-4,2.79,34.2,34.2,0,0,0-5.67,8.13,29.45,29.45,0,0,0-3,13.68l-29.9-9a9.31,9.31,0,0,0-6.4.2,8.76,8.76,0,0,0-4.93,5.24,8.91,8.91,0,0,0,2.54,9s-6.37-.53-8.17,5.49c-1,3.37.66,7.83,4.93,10C97,479.79,94.41,481.18,93.15,485.36Z"/></g></g></g></svg>