<svg xmlns="http://www.w3.org/2000/svg" viewBox="0 0 1542.32 1008.67"><defs><style>.cls-1,.cls-9{fill:#f5f5f5;}.cls-2,.cls-8{fill:#e1e1e1;}.cls-3{fill:#ececec;}.cls-4{fill:#fafafa;}.cls-5{fill:#0080ff;}.cls-6{fill:#171b35;}.cls-7{fill:#10273b;}.cls-8,.cls-9{fill-rule:evenodd;}.cls-10{fill:none;}.cls-11{fill:#b78876;}.cls-12{fill:#bf654e;}.cls-13{opacity:0.4;}.cls-14{opacity:0.3;}</style></defs><title>Zasób 39</title><g id="Warstwa_2" data-name="Warstwa 2"><g id="DESIGNED_BY_FREEPIK" data-name="DESIGNED BY FREEPIK"><path class="cls-1" d="M279.46,857.21c27.76-19.38,37.1-43.26,40.26-77a118.69,118.69,0,0,0-32.87-92.75C267.12,667.33,240,654.08,225.26,630c-15.67-25.68-15.13-60.68-36.88-81.45-14.95-14.27-36.8-18.09-55-28-14.82-8.06-27-20.08-40.57-30.11S63.2,472.11,46.38,473.38C21,475.28,1.28,500.19.07,525.6s13,49.71,32.37,66.18c14.07,11.93,31.39,21.08,40.6,37.06,17.31,30-.77,71.74,17.81,101,13.58,21.36,44.34,31.58,48.61,56.52,1.58,9.18-1,18.53-1,27.84.22,29.1,27.43,52.55,56.08,57.71s57.87-3.81,84.87-14.69"/><path class="cls-2" d="M101.35,575.66c-.08.09,1,1.26,3.05,3.41,2.36,2.36,5.41,5.43,9.21,9.25,4.07,3.94,9,8.83,14.31,14.85s11.83,12.48,18.14,20.41c3.24,3.89,6.64,8,10.16,12.2s6.82,9,10.44,13.68c7.37,9.34,14.3,20,21.81,31a615.09,615.09,0,0,1,41.64,76.26,615.59,615.59,0,0,1,29.39,81.78c3.27,13,6.64,25.22,8.73,36.94,1.13,5.84,2.45,11.43,3.3,16.89s1.62,10.69,2.38,15.7c1.73,10,2.33,19.12,3.21,27.11s1.36,14.9,1.6,20.56c.34,5.37.6,9.7.81,13,.22,3,.4,4.54.52,4.54s.18-1.57.18-4.55c0-3.35-.09-7.69-.15-13.08,0-5.68-.24-12.63-1-20.66s-1.13-17.24-2.72-27.28l-2.16-15.81c-.78-5.49-2.05-11.13-3.12-17-2-11.81-5.26-24.16-8.47-37.22a592.89,592.89,0,0,0-29.3-82.37,591.83,591.83,0,0,0-42.13-76.58c-7.63-11.07-14.69-21.73-22.2-31-3.69-4.7-7.06-9.39-10.65-13.62s-7.07-8.25-10.39-12.11c-6.45-7.86-13-14.29-18.59-20.15s-10.55-10.68-14.78-14.48l-9.67-8.8C102.64,576.57,101.43,575.57,101.35,575.66Z"/><path class="cls-3" d="M1523.92,359.34s-24.41-16.14-54.17,42.25-41,92.06-41,92.06-7.87,12.24-16.27,4.24-19.91-30.68-34.2-26.6c-14.81,4.24-19.69,20.77-16.86,45.07s7.06,77.75,7.42,82.58-2.36,11.74-9,7.21-44.55-46.8-63.53-27.59,0,85.6,2,92.9.51,10.41-3,12.22-14.88-13.61-26.17-25.19-26.4-23-36.42-11-13.23,61.82,34.17,142.73l24.42,36,43.67-2.42c93.15-10.89,131-43.44,134.53-58.67s-14.7-20.4-30.74-22.44-35.22-1.87-35.87-5.73,1-6.87,8-9.72,71.43-27.66,75.34-54.38-52.7-31.57-60.29-34.11-3.64-8.92.36-11.49,49.31-31.43,70.4-43.81,31.36-26.22,25.82-40.6c-5.34-13.86-30.38-9.39-41.83-11.28s-6.41-15.54-6.41-15.54,20.09-29.28,48.78-88.2.36-68.8.36-68.8"/><path class="cls-2" d="M1497.18,411.59s-.16.44-.54,1.26-1,2.09-1.7,3.65l-6.68,14c-5.81,12.14-14.35,29.65-25,51.24C1442,524.91,1412.2,584.33,1379,649.84s-63.17,124.88-84.63,167.95c-10.68,21.52-19.34,38.94-25.36,51-3,6-5.3,10.65-6.9,13.87-.78,1.55-1.39,2.74-1.83,3.6s-.66,1.2-.66,1.2.16-.44.54-1.26,1-2.09,1.7-3.65c1.56-3.25,3.8-8,6.68-14,5.81-12.14,14.35-29.64,25-51.23,21.24-43.19,51.09-102.61,84.27-168.14S1441,524.38,1462.43,481.3c10.68-21.51,19.34-38.94,25.36-51,3-6,5.3-10.65,6.9-13.87l1.83-3.6C1496.94,412,1497.18,411.59,1497.18,411.59Z"/><path class="cls-2" d="M1393.08,503.68a14.23,14.23,0,0,1,1.1,2.95c.63,1.92,1.46,4.73,2.45,8.21,2,7,4.45,16.65,7,27.38l6.41,27.51c.79,3.3,1.46,6.08,2,8.32a14.33,14.33,0,0,1,.62,3.09,13.42,13.42,0,0,1-1.12-2.95c-.63-1.92-1.46-4.73-2.42-8.22-1.9-7-4.25-16.7-6.79-27.43l-6.61-27.45c-.8-3.3-1.48-6.08-2-8.32A13.8,13.8,0,0,1,1393.08,503.68Z"/><path class="cls-2" d="M1416.64,581.91c-.11-.35,19.64-6.34,44.09-13.37s44.36-12.44,44.46-12.08-19.63,6.35-44.09,13.38S1416.74,582.27,1416.64,581.91Z"/><path class="cls-2" d="M1361.15,680.24a13.66,13.66,0,0,1,3.21-.15l8.74,0c7.38,0,17.57,0,28.81-.45s21.4-1.13,28.75-1.72l8.72-.68a15.09,15.09,0,0,1,3.21-.1,14.76,14.76,0,0,1-3.16.62c-2,.31-5,.71-8.68,1.11-7.34.83-17.52,1.71-28.79,2.13s-21.49.31-28.88,0c-3.69-.14-6.67-.29-8.73-.46A15,15,0,0,1,1361.15,680.24Z"/><path class="cls-2" d="M1324.27,614.16a12.41,12.41,0,0,1,1.7,2.44q1.72,2.8,4.21,6.89c3.51,5.85,8.27,14,13.46,23s9.82,17.23,13.12,23.21q2.27,4.2,3.84,7.1a13.1,13.1,0,0,1,1.25,2.7,12.21,12.21,0,0,1-1.71-2.43c-1.14-1.88-2.55-4.18-4.21-6.9-3.51-5.85-8.27-14-13.46-23s-9.82-17.23-13.11-23.2l-3.85-7.11A12.15,12.15,0,0,1,1324.27,614.16Z"/><path class="cls-2" d="M1264.26,694.74a20.33,20.33,0,0,1,2.15,3.14l5.43,8.81c4.53,7.48,10.72,17.85,17.48,29.34s12.82,22,17.14,29.55l5.06,9a20.29,20.29,0,0,1,1.7,3.4,20.33,20.33,0,0,1-2.15-3.14c-1.42-2.29-3.24-5.26-5.43-8.81-4.54-7.48-10.72-17.85-17.49-29.35s-12.81-22-17.14-29.54l-5.06-9A20.5,20.5,0,0,1,1264.26,694.74Z"/><path class="cls-2" d="M1312.61,775.7a24.21,24.21,0,0,1,4.06-.29l11.09-.36c9.35-.32,22.27-.8,36.51-1.74s27.13-2.08,36.44-3l11-1.07a24.2,24.2,0,0,1,4.07-.24,24.35,24.35,0,0,1-4,.77c-2.58.4-6.34.92-11,1.49-9.3,1.16-22.18,2.48-36.46,3.4s-27.22,1.28-36.59,1.35c-4.68,0-8.47,0-11.09-.07A24.5,24.5,0,0,1,1312.61,775.7Z"/><path class="cls-2" d="M997.83,65.56h175.68a13.84,13.84,0,0,1,13.84,13.84V195.81a13.85,13.85,0,0,1-13.84,13.85H1081l-44,44v-44H997.83a10.27,10.27,0,0,1-10.27-10.27V75.82A10.26,10.26,0,0,1,997.83,65.56Z"/><path class="cls-4" d="M1056.11,140.05a10.34,10.34,0,1,1-10.33-10.34A10.33,10.33,0,0,1,1056.11,140.05Z"/><path class="cls-4" d="M1097,140.05a10.34,10.34,0,1,1-10.34-10.34A10.34,10.34,0,0,1,1097,140.05Z"/><path class="cls-4" d="M1137.89,140.05a10.34,10.34,0,1,1-10.34-10.34A10.34,10.34,0,0,1,1137.89,140.05Z"/><path class="cls-5" d="M1283.32,944.45c-44-42.73-44.72-108.89-33.34-166.39,1.9-9.6,2.5-19.94,8.47-27.66s17.63-11.76,25.61-6.29c6.61,4.54,8.38,13.39,11.27,20.94a57.18,57.18,0,0,0,19.11,25.31c5.62,4.19,12.91,7.37,19.52,5,9.08-3.24,11.93-14.58,13.44-24.19q4.2-26.87,8.41-53.72c1.5-9.61,3.07-19.42,7.54-28s12.45-16,22-17.08,20,6,20.38,15.74c.17,4-1.29,8-1.67,12s.75,8.74,4.36,10.47,7.93-.35,11.26-2.69c11.48-8.08,20.24-19.47,28.55-30.86s16.48-23.11,27.19-32.22,24.51-15.45,38.38-14,27.14,12.33,28.42,26.39-8.86,26.55-19.23,36.1a217.28,217.28,0,0,1-51.55,35.26c-3.37,1.65-7,3.44-8.77,6.8-3.12,6.06,1.9,13.41,7.88,16.54,6.77,3.55,14.65,4.07,22,6.17s14.91,6.73,16.59,14.26c2.33,10.45-7.55,19.4-16.72,24.82a185.89,185.89,0,0,1-59.43,22.5c-7.48,1.44-15.28,2.49-21.79,6.53s-11.34,12.1-9,19.42,10.81,10.93,18.43,10.76,14.9-3.1,22.38-4.61c14-2.83,30.89.86,37.48,13.63,4.33,8.4,3.12,18.92-1.14,27.39s-11.22,15.24-18.42,21.35c-25.19,21.36-55.51,36.92-87.84,42.54s-61.15,3.88-89.75-12.2"/><path class="cls-6" d="M1275.58,987.19c5.82-22.56,15.26-48.79,28.57-76.55s30.34-57,49.24-87l14.07-22.15c4.64-7.26,9.24-14.46,14.17-21.23A438.06,438.06,0,0,1,1412.2,743c10.3-11.38,20.49-21.8,30.08-31.47S1461,693,1469.71,685.32a346.59,346.59,0,0,1,43.57-33.23c5.43-3.5,9.74-6.09,12.68-7.8l3.35-1.92a6.46,6.46,0,0,1,1.17-.6,7.27,7.27,0,0,1-1.07.76l-3.27,2.07c-2.88,1.82-7.12,4.49-12.48,8.08a364.59,364.59,0,0,0-43.12,33.6c-8.59,7.73-17.65,16.6-27.21,26.29s-19.68,20.15-29.92,31.53a441,441,0,0,0-30.36,37.16c-4.9,6.74-9.45,13.88-14.09,21.16l-14.07,22.15c-18.88,30-36,59.12-49.26,86.79s-22.87,53.72-28.83,76.16"/><path class="cls-6" d="M1382.15,780.24a20.06,20.06,0,0,1-.27-4.25c-.07-2.74-.05-6.69.06-11.59.2-9.77.94-23.27,1.81-38.14s1.41-28.35,1.46-38.11c0-4.87,0-8.82,0-11.55a20.24,20.24,0,0,1,.14-4.25c.13,0,.32,1.49.55,4.22s.46,6.68.58,11.57c.28,9.78-.07,23.32-.94,38.21-.9,14.68-1.71,27.95-2.33,38.1-.25,4.58-.46,8.45-.63,11.55A19.57,19.57,0,0,1,1382.15,780.24Z"/><path class="cls-6" d="M1509.32,777.28c0,.13-1.81,0-5-.21s-7.86-.6-13.61-.86c-11.5-.62-27.42-.93-45-.49s-33.48,1.56-45,2.69c-5.74.52-10.38,1.07-13.58,1.43a27.68,27.68,0,0,1-5,.4c0-.13,1.73-.51,4.91-1.1s7.81-1.31,13.55-2c11.47-1.46,27.41-2.76,45-3.23a440.1,440.1,0,0,1,45.12,1c5.77.43,10.41,1,13.61,1.44A27.32,27.32,0,0,1,1509.32,777.28Z"/><path class="cls-6" d="M1306,908.62a6.79,6.79,0,0,1-.6-1.65c-.37-1.3-.83-2.89-1.38-4.81-1.19-4.18-2.74-10.27-4.56-17.83-3.65-15.11-8-36.13-12.56-59.4s-8.71-44.32-12-59.48c-1.64-7.38-3-13.44-4-18-.42-2-.77-3.57-1.06-4.89a6.63,6.63,0,0,1-.25-1.74,6.3,6.3,0,0,1,.6,1.64c.38,1.3.83,2.89,1.39,4.81,1.18,4.18,2.73,10.28,4.55,17.83,3.65,15.11,8,36.14,12.56,59.42s8.72,44.31,12,59.47c1.65,7.37,3,13.44,4,18,.42,2,.77,3.57,1.06,4.89A6.59,6.59,0,0,1,1306,908.62Z"/><path class="cls-6" d="M1478.65,882.49a6.59,6.59,0,0,1-1.74.4l-5,.82-18.49,2.83c-15.61,2.39-37.13,6-60.91,9.9s-45.36,7.32-61,9.39c-7.83,1-14.18,1.81-18.57,2.26l-5.07.48a6.9,6.9,0,0,1-1.78,0,6.44,6.44,0,0,1,1.74-.41l5-.82,18.49-2.83c15.61-2.39,37.13-5.94,60.92-9.9s45.35-7.32,61-9.39c7.83-1,14.18-1.81,18.57-2.25l5.07-.49A6.06,6.06,0,0,1,1478.65,882.49Z"/><path class="cls-5" d="M102.61,742.59c13.85-3.71,29-.21,41.16,7.33s21.7,18.8,29.29,31c14.7,23.51,19.74,55,20.24,82.75-30.76-1.42-56.91-25.75-69.4-38.93-19.75-20.83-42.78-70.46-21.29-82.1"/><path class="cls-5" d="M242.7,882.44c-12.6-9.88-18.15-27.28-15.42-43.05s13-29.69,26.27-38.67c6.13-4.15,13.71-7.42,20.8-5.3,6.62,2,11.21,8.48,12.51,15.27s-.18,13.84-2.48,20.37c-7.89,22.38-19.64,42.59-41.68,51.38"/><path class="cls-6" d="M270.65,970.18c-.19.1-1.28-1.67-3.07-4.95s-4.27-8.09-7.17-14.12c-5.71-12-13.39-29.16-17-49.5s-1-39.57,4.14-52.09A63.86,63.86,0,0,1,255,835.45c2.22-3.05,3.69-4.54,3.83-4.43.53.35-5,6.78-9.29,19.26s-6.68,30.94-3.14,50.79,10.8,36.91,16,49.13S271.07,970,270.65,970.18Z"/><path class="cls-6" d="M123.49,778.84c.17-.14,2.53,2.33,6.67,6.92s10,11.31,17.22,19.7c14.37,16.78,33.84,40.28,54.7,66.76s39.15,50.94,52.09,68.84c6.47,9,11.63,16.25,15.11,21.35s5.34,8,5.17,8.11-2.35-2.51-6.14-7.39l-15.9-20.76c-13.39-17.55-31.93-41.76-52.77-68.23s-40-50.15-53.95-67.27l-16.45-20.33C125.39,781.71,123.33,779,123.49,778.84Z"/><path class="cls-5" d="M221.93,916.63c-26.35-21.09-63.25-28.25-95.57-18.53-8.23,2.47-17.35,7.49-18.18,16s7.2,15.27,14.91,19.1c32.09,15.93,73.76,9.85,100-14.57"/><path class="cls-6" d="M146.8,913.75c-.05-.21,1.85-.76,5.34-1.6a45.73,45.73,0,0,1,6.44-1.19,76.33,76.33,0,0,1,8.64-.88,112.73,112.73,0,0,1,22.6,1,129.69,129.69,0,0,1,26.78,7.15A129.89,129.89,0,0,1,241,931.33a112.46,112.46,0,0,1,17.16,14.74,75.93,75.93,0,0,1,5.7,6.55,43.19,43.19,0,0,1,3.88,5.28c2,3,3,4.7,2.81,4.82-.5.35-4.89-6.27-13.95-15.1a124.6,124.6,0,0,0-17.21-13.92,139.15,139.15,0,0,0-24-12.59,139.29,139.29,0,0,0-26.08-7.21,124.8,124.8,0,0,0-22.08-1.62C154.65,912.52,146.92,914.35,146.8,913.75Z"/><path class="cls-5" d="M567.73,82.85l-21.46,17.94-10.44-4.65-2.16-8.84s23.07-17,22.2-17.92A13.31,13.31,0,0,0,548,65.74a21.18,21.18,0,0,0-15.55,4.17l-4.06,3a24.87,24.87,0,0,0-9.79,24.14c.09.51.15.79.15.79l-63.64,52.88a20.53,20.53,0,1,0,13.53,15l62.93-52.83c2.43,2.33,5.75,3.17,9,3.29a23.45,23.45,0,0,0,17.07-6.92l5.31-5.2C572.08,94.69,567.73,82.85,567.73,82.85ZM444.8,178.75A9.39,9.39,0,1,1,457.19,174,9.38,9.38,0,0,1,444.8,178.75Z"/><path class="cls-6" d="M664.09,204.91l-68.55,5.74.25-.12a127.39,127.39,0,0,1-95.31,45.67,133.13,133.13,0,0,1-44.43-7A128.11,128.11,0,0,1,369.85,131a46.88,46.88,0,0,1,.06-7l.36-7a57.54,57.54,0,0,1,.88-7c.36-2.34.71-4.69,1.07-7s1.16-4.62,1.73-6.94S375,91.26,375.84,89s1.65-4.51,2.48-6.77l1.24-3.39c.41-1.14,1-2.19,1.51-3.29a130.09,130.09,0,0,1,32.61-43.9A127.72,127.72,0,0,1,555.09,13.58C582.54,27.42,602.7,49.74,613.39,73a66.48,66.48,0,0,1,3.78,8.71c1.06,2.93,2.16,5.81,3.13,8.68,1.4,5.9,3.26,11.52,3.84,17.2.39,2.82.93,5.57,1.17,8.31s.26,5.44.39,8.09c.07,1.32.13,2.63.19,3.93s-.11,2.58-.16,3.85c-.12,2.55-.24,5-.36,7.49l0-.23c24.28,41.25,37.34,63.43,38.77,65.85-1.46-2.41-14.73-24.45-39.43-65.46l-.06-.1v-.13q.15-3.65.32-7.44c.05-1.26.13-2.54.15-3.83s-.14-2.59-.21-3.91c-.13-2.63-.28-5.31-.42-8s-.79-5.45-1.19-8.25c-.6-5.64-2.46-11.21-3.87-17.06-1-2.84-2.07-5.7-3.13-8.61a66.08,66.08,0,0,0-3.78-8.63c-10.67-23.07-30.7-45.15-57.93-58.82a126.15,126.15,0,0,0-140,18,128.65,128.65,0,0,0-32.26,43.45c-.5,1.09-1.1,2.13-1.5,3.25l-1.23,3.36q-1.23,3.36-2.45,6.7c-.8,2.23-1.24,4.57-1.87,6.84s-1.23,4.56-1.71,6.86-.71,4.65-1.07,7a58.39,58.39,0,0,0-.87,7q-.18,3.49-.35,7a45.82,45.82,0,0,0-.07,6.93,126.93,126.93,0,0,0,85.25,117.12,132.2,132.2,0,0,0,44,7.05,127.14,127.14,0,0,0,39.94-7.17,128.57,128.57,0,0,0,54.83-37.88l.1-.12h.15Z"/><rect class="cls-7" x="253.92" y="308.87" width="1044.1" height="690.45" rx="14.57"/><path class="cls-7" d="M211.71,948.26h1131.2a0,0,0,0,1,0,0v42.62a17.8,17.8,0,0,1-17.8,17.8H229.51a17.8,17.8,0,0,1-17.8-17.8V948.26a0,0,0,0,1,0,0Z"/><rect class="cls-1" x="283.4" y="336.3" width="985.13" height="583.08"/><path class="cls-6" d="M674.5,948.26s.35,0,1.09,0l3.31,0,12.86-.07,47.74-.19,159.6-.35h1.17l-.59,1-6.34,10.85c-2.27,3.9-4.53,7.77-6.7,11.48l-.19.33h-.39l-197.52-.37h-.17l-.09-.14-10.34-16.82c-1.13-1.84-2-3.26-2.6-4.26s-.84-1.41-.84-1.41.35.51,1,1.48l2.76,4.27,10.56,16.41-.26-.14,197.52-.37-.58.34,6.7-11.48,6.33-10.85.59,1-159-.34-48-.19-13.06-.08-3.42,0Z"/><path class="cls-8" d="M643.89,444.77a33.26,33.26,0,0,1,6.26-6.39l-1.49-8.16,12.62-5.38,4.86,6.72a33.42,33.42,0,0,1,8.94-.1l4.72-6.82,12.73,5.11-1.32,8.19a33.26,33.26,0,0,1,6.39,6.26l8.16-1.49,5.39,12.62-6.72,4.86a33.84,33.84,0,0,1,.1,8.94l6.82,4.72-5.12,12.73-8.18-1.32a33.86,33.86,0,0,1-6.26,6.39l1.48,8.16-12.62,5.39-4.86-6.72a33.84,33.84,0,0,1-8.94.1l-4.71,6.82-12.74-5.12,1.32-8.18a33.86,33.86,0,0,1-6.39-6.26l-8.16,1.48-5.38-12.61,6.72-4.87a33.42,33.42,0,0,1-.1-8.94l-6.82-4.71,5.11-12.73,8.19,1.31ZM657.54,459a14.72,14.72,0,1,0,19.15-8.17A14.73,14.73,0,0,0,657.54,459Z"/><path class="cls-9" d="M592.74,709.4a97,97,0,0,1,18.14-18.51l-4.32-23.65,36.57-15.6,14.08,19.47a97.29,97.29,0,0,1,25.92-.28l13.66-19.76,36.89,14.82-3.81,23.72a96.75,96.75,0,0,1,18.51,18.14L772,703.43,787.63,740l-19.47,14.08a97.71,97.71,0,0,1,.28,25.92l19.76,13.66-14.82,36.89-23.72-3.81a97,97,0,0,1-18.14,18.51l4.32,23.64L699.27,884.5,685.19,865a97.29,97.29,0,0,1-25.92.29l-13.66,19.76-36.89-14.82,3.81-23.72A96.75,96.75,0,0,1,594,828.39l-23.64,4.32-15.61-36.57,19.47-14.08a97.71,97.71,0,0,1-.28-25.92L554.2,742.48,569,705.59l23.72,3.81Zm39.56,41.09a42.65,42.65,0,1,0,55.47-23.67A42.66,42.66,0,0,0,632.3,750.49Z"/><path class="cls-10" d="M408,758.65a54.14,54.14,0,0,1,10-10.24l-2.39-13.08,20.23-8.63,7.79,10.77a54.16,54.16,0,0,1,14.34-.16l7.56-10.93,20.41,8.2-2.11,13.12a53.84,53.84,0,0,1,10.24,10l13.08-2.39,8.63,20.23L505,783.37a54.16,54.16,0,0,1,.16,14.34l10.93,7.56-8.2,20.41-13.12-2.11a54.09,54.09,0,0,1-10,10.24l2.38,13.08-20.23,8.63-7.79-10.77a54.16,54.16,0,0,1-14.34.16l-7.55,10.93-20.41-8.2,2.1-13.12a53.84,53.84,0,0,1-10.24-10l-13.08,2.39L387,806.64l10.77-7.79a54.16,54.16,0,0,1-.16-14.34L386.63,777l8.2-20.41,13.12,2.1Zm21.89,22.74a23.6,23.6,0,1,0,30.69-13.1A23.59,23.59,0,0,0,429.84,781.39Z"/><path class="cls-6" d="M429.84,781.39a17.86,17.86,0,0,1,2.62-5.23A23.44,23.44,0,0,1,445.35,767a23.78,23.78,0,0,1,11.09-.5,24.14,24.14,0,0,1,11.43,5.65,24.25,24.25,0,0,1,7.34,12,24.07,24.07,0,0,1-10.69,26.61,24.23,24.23,0,0,1-13.61,3.6,24.29,24.29,0,0,1-12.16-3.83,23.82,23.82,0,0,1-7.67-8,23.48,23.48,0,0,1-3-15.54,17.79,17.79,0,0,1,1.72-5.58c.16.05-.74,2-1.2,5.65a23.57,23.57,0,0,0,3.26,15A23.08,23.08,0,0,0,451,813.12a21.71,21.71,0,0,0,6.56-.75,21.42,21.42,0,0,0,6.31-2.73,22.86,22.86,0,0,0,10.1-25.15,21.32,21.32,0,0,0-2.67-6.33,21.72,21.72,0,0,0-4.21-5.08,23,23,0,0,0-21.43-5.16,23.5,23.5,0,0,0-12.72,8.55A56.67,56.67,0,0,0,429.84,781.39Z"/><path class="cls-6" d="M408,758.65a4.73,4.73,0,0,1-.82-.08l-2.49-.35-9.84-1.46.23-.13L387,777.08l-.12-.41,11,7.52.2.13,0,.24a53.67,53.67,0,0,0,.2,14.23l0,.26-.22.16L387.23,807l.16-.58q4.1,9.56,8.68,20.21l-.59-.31,13.08-2.41.33-.07.21.27a53.75,53.75,0,0,0,10.15,9.91l.29.21-.06.35c-.65,4.07-1.36,8.56-2.09,13.13l-.37-.66,20.42,8.18-.75.22,7.54-10.94.23-.32.38,0A53.57,53.57,0,0,0,459,844.1l.39-.05.23.32,7.8,10.77-.8-.22,20.23-8.65-.4.74c-.75-4.13-1.57-8.59-2.39-13.08l-.07-.4.32-.25a53.33,53.33,0,0,0,9.9-10.1v0l.25-.32.4.06L508,825l-.74.41q4.17-10.33,8.21-20.4l.24.8-10.93-7.56-.33-.23.05-.4a53.23,53.23,0,0,0-.15-14.16l-.05-.4.32-.23,10.78-7.78-.22.77-8.61-20.24.68.37-13.08,2.37-.36.07-.22-.29a53.74,53.74,0,0,0-10.12-9.94l-.29-.21.06-.35,2.13-13.12.35.61-20.4-8.24.62-.19-7.58,10.92-.17.24-.29,0a53.39,53.39,0,0,0-14.21.12l-.27,0-.16-.22-7.75-10.8.48.14-20.27,8.54.18-.33c.92,5.23,1.67,9.52,2.3,13.09l0,.13-.1.08a56.71,56.71,0,0,0-7.86,7.37l-1.73,2a4,4,0,0,1-.58.67s.16-.27.49-.74.89-1.19,1.65-2.11a52.57,52.57,0,0,1,7.76-7.56l-.08.21c-.67-3.57-1.48-7.85-2.47-13.07l0-.23.22-.1,20.19-8.72.3-.13.18.26c2.42,3.33,5,6.84,7.83,10.75l-.42-.18a54.71,54.71,0,0,1,14.46-.2l-.46.21,7.53-10.95.23-.34.39.15,20.43,8.16.41.17-.07.44c-.67,4.26-1.37,8.62-2.08,13.12l-.23-.56a54.56,54.56,0,0,1,10.37,10.13l-.58-.22,13.07-2.4.49-.09.19.46q4.23,9.85,8.66,20.22l.2.47-.42.3-10.76,7.8.26-.62a54.59,54.59,0,0,1,.17,14.51l-.28-.63,10.93,7.56.44.3-.2.5-8.19,20.41-.2.5-.54-.09-13.12-2.1.65-.27h0a54.57,54.57,0,0,1-10.15,10.36l.25-.65c.82,4.49,1.63,8.95,2.38,13.08l.1.53-.49.21-20.24,8.62-.49.21-.3-.43-7.79-10.77.62.26a55.25,55.25,0,0,1-14.51.15l.61-.28-7.57,10.93-.28.41-.47-.18-20.4-8.23-.45-.18.08-.48,2.13-13.11.22.56a54.77,54.77,0,0,1-10.33-10.16l.54.2-13.08,2.37-.42.07-.17-.39-8.59-20.25-.15-.35.32-.23,10.79-7.76-.18.42a54.33,54.33,0,0,1-.11-14.45l.17.38-10.9-7.6-.23-.16.1-.25,8.32-20.36.07-.17.17,0,9.71,1.68,2.51.46A6.81,6.81,0,0,1,408,758.65Z"/><path class="cls-8" d="M358,488.62A133.63,133.63,0,0,1,374.68,457l-15-29.55,42.19-35,26.27,20.19a134.75,134.75,0,0,1,34.14-10.56l10.29-31.49,54.58,5.09,4.29,32.84a134.29,134.29,0,0,1,31.61,16.7l29.55-15,35,42.2L607.4,478.7A134.7,134.7,0,0,1,618,512.85l31.49,10.28-5.09,54.59L611.52,582a134.22,134.22,0,0,1-16.7,31.6l15,29.55-42.19,35L541.36,658a134.75,134.75,0,0,1-34.14,10.56L496.93,700l-54.58-5.09-4.29-32.84a134.62,134.62,0,0,1-31.61-16.69l-29.54,15-35-42.19,20.2-26.27a134.75,134.75,0,0,1-10.56-34.14l-31.49-10.29,5.09-54.58L358,488.62Zm68.43,38.75a58.81,58.81,0,1,0,64-53.1A58.82,58.82,0,0,0,426.42,527.37Z"/><line class="cls-6" x1="253.92" y1="948.26" x2="1298.02" y2="948.26"/><path class="cls-6" d="M1298,948.26c0,.35-233.75.63-522,.63s-522.07-.28-522.07-.63,233.7-.64,522.07-.64S1298,947.91,1298,948.26Z"/><path class="cls-6" d="M736.45,163.78c-16.1,7.07-25.47,24.42-29,41.65s-2.37,35-3.89,52.55-6.33,35.83-19.11,47.9c-11.92,11.25-29.47,15.83-39.62,28.69a36.09,36.09,0,0,0,20.58,57.6c-8,12.72-4,30.47,6.26,41.46s25.36,16.21,40.23,18.48c26.15,4,54-.42,76.13-15s37.55-39.84,37.5-66.29"/><path class="cls-7" d="M666.71,423.71a21.11,21.11,0,0,1-2.83-5.7,34.28,34.28,0,0,1-1-17.27,47.61,47.61,0,0,1,3.69-11.47,63.76,63.76,0,0,1,7.39-11.67c6-7.7,14.05-14.78,22.14-22.4a233.48,233.48,0,0,0,21.52-22.78A106.55,106.55,0,0,0,731.36,311,74.46,74.46,0,0,0,737,294.72c.49-2,.62-3.56.85-4.62a8.82,8.82,0,0,1,.35-1.61,8.08,8.08,0,0,1-.1,1.64c-.14,1.07-.2,2.67-.61,4.68a70.3,70.3,0,0,1-5.26,16.53,104,104,0,0,1-13.67,21.81,223.18,223.18,0,0,1-21.57,23c-8.12,7.65-16.13,14.65-22.09,22.2a63.72,63.72,0,0,0-7.36,11.4,48.11,48.11,0,0,0-3.76,11.18,35,35,0,0,0,.62,17A60.28,60.28,0,0,0,666.71,423.71Z"/><path class="cls-6" d="M928.91,221.58c0,23.65,10.91,45.32,20.72,53.29,13.88,11.28,34.25,16.72,47.67,20.48,19.55,5.46,35.93,22.57,38.37,42.72s-10.73,41.69-30.39,46.76c12.36,12.62,8.68,34.31-1.49,48.74-19.27,27.36-57.73,37.87-89.63,27.76s-56.34-38.39-65.86-70.47"/><path class="cls-7" d="M977.54,454.49c-.09-.21,3.13-.21,7.52-3.3a22.21,22.21,0,0,0,6.3-7.22,26.27,26.27,0,0,0,3.36-12.17,29.73,29.73,0,0,0-4-14.75,47.75,47.75,0,0,0-11.49-13.48c-9.69-8.16-22.87-13.26-35.61-20.59a69.66,69.66,0,0,1-16.91-13.28,40.21,40.21,0,0,1-5.91-8.43,37.1,37.1,0,0,1-3.31-9.3,63.25,63.25,0,0,1-.83-18.1c.43-5.65,1.15-10.87,1.65-15.64,1-9.51.93-17.32-.36-22.52-.34-1.28-.65-2.42-.93-3.43s-.68-1.76-.92-2.43a14.1,14.1,0,0,1-.74-2,13.41,13.41,0,0,1,1,1.93c.28.65.72,1.43,1,2.41l1.05,3.43c1.45,5.24,1.71,13.16.77,22.73-.44,4.79-1.11,10-1.49,15.62a62.78,62.78,0,0,0,.92,17.78,36.75,36.75,0,0,0,9,17.15,68.75,68.75,0,0,0,16.62,13c12.6,7.26,25.87,12.42,35.72,20.79a48.53,48.53,0,0,1,11.66,13.88,30.46,30.46,0,0,1,3.93,15.28,26.74,26.74,0,0,1-3.65,12.5,22.14,22.14,0,0,1-6.63,7.26,18.37,18.37,0,0,1-5.66,2.58A11.73,11.73,0,0,1,977.54,454.49Z"/><path class="cls-7" d="M1023.61,375.59c-.24-.08,2.05-1.95,2.39-6.57a16,16,0,0,0-1.83-8,19.93,19.93,0,0,0-7.26-8,35.32,35.32,0,0,0-12.57-4.25c-4.76-.82-10-1.13-15.41-2a83,83,0,0,1-33.1-13.09,81.26,81.26,0,0,1-24.45-25.87,82.19,82.19,0,0,1-10-27.33,78.78,78.78,0,0,1-1.05-19.61c.18-2.32.39-4.11.61-5.31a10,10,0,0,1,.36-1.83c.15,0-.29,2.55-.48,7.17a84.26,84.26,0,0,0,11.6,46.31,81.24,81.24,0,0,0,24.16,25.42,82.72,82.72,0,0,0,32.58,13c5.36.87,10.57,1.21,15.4,2.1a35.89,35.89,0,0,1,12.87,4.52,20.41,20.41,0,0,1,7.41,8.46,16.15,16.15,0,0,1,1.69,8.32,11.39,11.39,0,0,1-1.69,5.09,13.15,13.15,0,0,1-.86,1.1C1023.74,375.49,1023.62,375.61,1023.61,375.59Z"/><path class="cls-11" d="M747.93,498.79c3.37-35.34,6.27-72.6,6.27-72.6s-44.77-12-48.35-72.34c-3.42-57.51,18.78-187.35,18.78-187.35h0c68.13-20.27,144,5.15,185.52,62.17h0L878.06,515.22c-3.72,33.27-35.29,56.56-70.88,52.3h0C771.24,563.21,744.72,532.46,747.93,498.79Z"/><path class="cls-6" d="M731.42,270.29A7.65,7.65,0,0,0,738,278.7a7.31,7.31,0,0,0,8.52-6.09A7.65,7.65,0,0,0,740,264.2,7.32,7.32,0,0,0,731.42,270.29Z"/><path class="cls-6" d="M719.91,260.55c.85,1.09,7-2.61,15.23-1.78s13.8,5.51,14.78,4.6c.48-.41-.3-2.29-2.73-4.46A21,21,0,0,0,735.48,254a20.22,20.22,0,0,0-12.25,2.66C720.52,258.35,719.49,260.06,719.91,260.55Z"/><path class="cls-6" d="M815.16,280a7.65,7.65,0,0,0,6.59,8.4,7.3,7.3,0,0,0,8.52-6.09,7.65,7.65,0,0,0-6.57-8.41A7.33,7.33,0,0,0,815.16,280Z"/><path class="cls-6" d="M805.12,271.94c.85,1.09,7-2.61,15.23-1.78s13.79,5.51,14.78,4.6c.48-.4-.3-2.29-2.74-4.46a21,21,0,0,0-11.71-4.91,20.2,20.2,0,0,0-12.24,2.67C805.74,269.74,804.7,271.45,805.12,271.94Z"/><path class="cls-6" d="M769.4,329.78c.09-.46-4.92-1.84-13.07-3.71-2.07-.42-4-1-4.22-2.49s.75-3.73,2-6.07l7.76-15.32c10.83-21.84,18.88-39.88,18-40.31s-10.38,16.93-21.2,38.77l-7.51,15.44c-1,2.3-2.65,4.86-1.89,8.11a5.25,5.25,0,0,0,3.14,3.39,14.13,14.13,0,0,0,3.5.85C764.18,329.7,769.32,330.25,769.4,329.78Z"/><path class="cls-12" d="M754.2,426.19s39.69,6.51,81.6-13.38c0,0-23.3,38.88-82.18,27.48Z"/><path class="cls-12" d="M770.92,349.87a14.88,14.88,0,0,1,13.78-4.18,13.54,13.54,0,0,1,8.82,5.91c1.87,3.11,1.92,7.26-.31,9.83-2.52,2.89-7.21,3.16-11,1.66s-6.92-4.4-9.86-7.28a9,9,0,0,1-2.1-2.65,2.75,2.75,0,0,1,.31-3.05"/><path class="cls-6" d="M793,337.83c-1.33-.21-2.22,8.68-10.45,14.24s-17.61,3.66-17.8,4.89c-.18.55,1.94,1.94,5.93,2.44a22.23,22.23,0,0,0,14.81-3.58,19.37,19.37,0,0,0,8.19-12C794.35,340.14,793.57,337.83,793,337.83Z"/><path class="cls-11" d="M881.89,292a35.58,35.58,0,0,1,19,3.1,24.87,24.87,0,0,1,12.74,14.07c2,6.19,1.09,13.12-1.71,19s-7.32,10.81-12.39,14.9c-3.63,2.94-7.7,5.56-12.27,6.52s-9.77,0-13-3.35"/><path class="cls-12" d="M881.61,330.86c-.75.16,1.64,4.27,7.6,3.28,2.86-.46,5.83-2.65,7.79-5.56a28.43,28.43,0,0,0,4.2-10.22,16.66,16.66,0,0,0-1.59-11.44,11.07,11.07,0,0,0-7.86-5.75c-6-.72-8.21,3.23-7.55,3.42.43.53,3-1.38,6.78,0,3.67,1.06,6.85,6.58,5.41,12.91s-4.45,12.2-8.08,13.35C884.51,332.29,882.07,330.37,881.61,330.86Z"/><path class="cls-6" d="M753.33,191.9a72.72,72.72,0,0,1-49,41.26c-1.27-14.66-2.13-29.5.27-44s8.31-28.84,18.9-39.06,26.28-15.72,40.5-11.91"/><path class="cls-6" d="M757.42,165a58.41,58.41,0,0,0,60.37,79.66c3.9-.41,8-1.19,11.63.22,3.9,1.5,6.47,5.18,8.79,8.65,9.47,14.14,19.47,28.85,34.38,37s36.27,7.38,46.25-6.4c4.85-6.71,6.27-15.23,7.4-23.43,3.78-27.57,5.33-57.16-7.8-81.69-9.76-18.22-26.91-31.77-45.88-40s-39.73-11.49-60.37-12.75c-12-.73-24.4-.75-35.52,3.79s-20.73,14.65-21.36,26.64"/><path class="cls-7" d="M923.61,268.49a12,12,0,0,1-.73-2c-.41-1.35-1.09-3.3-2-5.81a107.32,107.32,0,0,0-10.09-20.11,104.77,104.77,0,0,0-22.19-24.76c-9.74-8-22.14-14.39-35.53-20s-26.55-10.26-38-15.64-21.29-11.37-28.67-17.51a74.57,74.57,0,0,1-15.21-16.78,52.34,52.34,0,0,1-3-5.36,13.18,13.18,0,0,1-.9-2,13.08,13.08,0,0,1,1.13,1.83c.65,1.24,1.76,3,3.23,5.21a77.87,77.87,0,0,0,15.37,16.36,135.07,135.07,0,0,0,28.6,17.14c11.44,5.29,24.55,9.89,38,15.53s26,12.15,35.78,20.27a103.73,103.73,0,0,1,22.21,25.19,101,101,0,0,1,9.8,20.43c.85,2.54,1.46,4.52,1.78,5.9A14.36,14.36,0,0,1,923.61,268.49Z"/><path class="cls-7" d="M905.15,265.23a11.37,11.37,0,0,1-1-1.69,54.93,54.93,0,0,0-3-4.7,62.62,62.62,0,0,0-14.73-14.22c-7.06-5.09-16.41-9.67-27-14.18-5.3-2.29-10.9-4.64-16.59-7.34s-11.47-5.75-17.2-9.19a150.33,150.33,0,0,1-29.81-23,115.09,115.09,0,0,1-18.6-24.45,94.48,94.48,0,0,1-8.19-19c-.67-2.35-1.16-4.19-1.4-5.46a11.89,11.89,0,0,1-.35-1.93,11.27,11.27,0,0,1,.59,1.87c.33,1.25.89,3.05,1.63,5.37a101.59,101.59,0,0,0,8.5,18.74,117.21,117.21,0,0,0,18.65,24.08,153.47,153.47,0,0,0,29.63,22.72c5.69,3.41,11.44,6.42,17.09,9.14s11.22,5.07,16.52,7.4c10.59,4.58,20,9.28,27.07,14.52a60.35,60.35,0,0,1,14.62,14.67,41.13,41.13,0,0,1,2.86,4.86A11,11,0,0,1,905.15,265.23Z"/><path class="cls-7" d="M704.54,256.73a6.86,6.86,0,0,1-.58-1.37c-.33-.91-.84-2.26-1.4-4A70.34,70.34,0,0,1,700,235.89a74.06,74.06,0,0,1,15.32-48.49,68.28,68.28,0,0,1,10.29-10.62,133.49,133.49,0,0,1,11.17-8c7.31-4.75,13.83-9.1,18.48-13.73a41.27,41.27,0,0,0,9-12.45c1.49-3.35,1.82-5.39,2-5.36a7,7,0,0,1-.23,1.48,26.22,26.22,0,0,1-1.27,4.07,39.67,39.67,0,0,1-8.87,12.89c-4.64,4.8-11.21,9.29-18.46,14.08a133.17,133.17,0,0,0-11,8,68.5,68.5,0,0,0-10.08,10.44,72.85,72.85,0,0,0-12.57,24.95,74.25,74.25,0,0,0-2.86,22.72A77.4,77.4,0,0,0,703,251.21c.47,1.66.86,3,1.16,4.07A6.77,6.77,0,0,1,704.54,256.73Z"/><path class="cls-5" d="M851.18,375.14c-13.86,0-27.77-4.73-38-13.95l1.62-1.81c17.79,16,47.12,17.86,66.78,4.22s28.2-41.76,19.44-64l2.26-.89c9.16,23.27.23,52.66-20.31,66.91A55.91,55.91,0,0,1,851.18,375.14Z"/><path class="cls-5" d="M831.4,364.72a11.79,11.79,0,1,1-11.79-11.79A11.79,11.79,0,0,1,831.4,364.72Z"/><circle class="cls-5" cx="910.15" cy="304.79" r="39.49" transform="translate(496.83 1171.06) rotate(-83.01)"/><path class="cls-5" d="M903.75,299.3c-.26,0-.16-3.6.23-10,.13-3.24.29-7.16.46-11.69s.2-9.75,0-15.47c0-2.87-.2-5.86-.37-9s-.47-6.34-.78-9.69-.89-6.76-1.33-10.31q-.5-2.62-1-5.33c-.31-1.81-.7-3.63-1.18-5.44-3.34-14.61-9.64-30.29-20.67-43.54s-25.41-22.18-39.36-27.59-27.45-8.1-38.75-9.74-20.63-2.06-27-2.51-10-.56-10-.82,3.55-.5,10-.67a242.08,242.08,0,0,1,27.34,1.33A164,164,0,0,1,841,148c14.4,5.37,29.52,14.54,41,28.42s17.93,30.2,21.16,45.19c.47,1.87.84,3.74,1.13,5.59s.63,3.67.93,5.46c.4,3.62,1,7.12,1.17,10.52s.54,6.69.57,9.85.21,6.2.13,9.09c0,5.79-.33,11-.58,15.6s-.74,8.51-1.11,11.72C904.61,295.81,904,299.33,903.75,299.3Z"/><g class="cls-13"><path d="M938.4,304.79a27.18,27.18,0,1,1-27.17-27.18A27.16,27.16,0,0,1,938.4,304.79Z"/></g><path class="cls-6" d="M902.28,279.44a5.51,5.51,0,0,1,1.22-.63,18.24,18.24,0,0,1,3.77-1.12,21.44,21.44,0,0,1,14.09,2.41,19.12,19.12,0,0,1,7.25,6.95,21,21,0,0,1,2.9,11.15,20.55,20.55,0,0,1-29.08,18.19,20.06,20.06,0,0,1-9.06-8.94,20.94,20.94,0,0,1-2.32-11.29,21.35,21.35,0,0,1,3.35-9.46c3.34-5.24,7.94-8,11.26-8.76a12.68,12.68,0,0,1,3.91-.45,5.27,5.27,0,0,1,1.36.2,19,19,0,0,0-5.14.72,19.71,19.71,0,0,0-10.63,8.77,20.61,20.61,0,0,0-3.06,9.07,20,20,0,0,0,2.3,10.66,19,19,0,0,0,8.56,8.35,19.1,19.1,0,0,0,27.38-17.09,20,20,0,0,0-2.64-10.58,18.29,18.29,0,0,0-6.78-6.71,21.48,21.48,0,0,0-13.58-2.7A37.7,37.7,0,0,0,902.28,279.44Z"/><path class="cls-6" d="M911,331.56c-.34.06-1.1-2.8-1.24-6.41s.36-6.53.71-6.5.4,2.91.56,6.44S911.34,331.5,911,331.56Z"/><path class="cls-6" d="M926,326.28c-.32.12-1.59-2.34-2.82-5.5s-2-5.83-1.64-6,1.59,2.34,2.82,5.5S926.31,326.15,926,326.28Z"/><path class="cls-6" d="M936.08,314.46c-.23.26-2.09-1-4.16-2.92s-3.54-3.61-3.3-3.87,2.1,1.05,4.16,2.93S936.32,314.2,936.08,314.46Z"/><path class="cls-6" d="M936.8,298c-.12.33-1.47.14-3-.42s-2.7-1.27-2.58-1.6,1.47-.15,3,.41S936.92,297.63,936.8,298Z"/><path class="cls-6" d="M893.24,325.46c-.32-.11.38-3,2-6.24s3.59-5.5,3.87-5.3-1.13,2.73-2.74,5.88S893.58,325.58,893.24,325.46Z"/><path class="cls-6" d="M885.14,311.62c-.25-.25,1.3-2.17,3.45-4.28s4.1-3.62,4.34-3.37-1.3,2.17-3.45,4.28S885.38,311.87,885.14,311.62Z"/><path class="cls-6" d="M891.48,292.79c.09.34-1,.93-2.46,1.31s-2.7.42-2.79.09,1-.93,2.46-1.31S891.39,292.45,891.48,292.79Z"/><path class="cls-11" d="M1098,508.8c-2.55-14.46-8.2-22.31-12.42-26.43-4-3.85-7.77-7.87-12.51-10.75-5.74-3.49-13.55-7.83-18.54-8.91-6.17-1.34-7.67-9.36-2.5-11.65s22.26,1,38.71,13.08,8.12-18.54,5.29-29.75-10-46.27-7.17-49.78c4.07-5.14,10.49-1.65,13.06,9.61s12.64,44.53,18.52,42.9-9.39-58.49-9.39-58.49-5.23-11.69,1.5-13.79c12.13-3.79,23.79,57.76,24.76,63.64.67,4.09,7.13,2.55,6.17-1.8s-16.47-56.44-4.17-60.42c9.45-3.05,10.08,50.56,19.3,59.71s-4.65-40.71,4.5-43.25c3.41-1,6.09-1.19,9.91,28.48,2,15.95.72,37.93,6.94,68.36"/><path class="cls-11" d="M1067.33,623.24l55.94,80.28-26.87-207,80-31.53s100.92,386.89-34.43,392.33c0,0-93.66-2.56-163.57-164.71Z"/><path class="cls-12" d="M1157.05,463.43c.14.21-1.76,1.47-4.21,4.22a28.21,28.21,0,0,0-6.56,12.9l-.31,1.52-1.12-1.12a34.07,34.07,0,0,0-4.13-3.62,35.32,35.32,0,0,0-17-6.59c-4.73-.51-7.71,0-7.75-.29s2.9-1.13,7.84-.92a32.85,32.85,0,0,1,22.26,10.28l-1.43.4a26.61,26.61,0,0,1,7.42-13.3C1154.84,464.25,1157,463.3,1157.05,463.43Z"/><path class="cls-5" d="M1027.15,790.61l-67.69-85.87-17.59,87.82a182,182,0,0,0,10.54,105.93l8.74,20.89H647.73l7.83-27.9c4.43-34.19-1.49-69.88-.46-118.84l-8.71-55.2L599,919.38H459.59S536.1,605.94,584,543.93c60.42-78.2,166-67.88,166-67.88L814.7,577.43,877.87,486S986.42,463,1071.16,608.85l45.35,77.73h0l-21.06-160,98.14-22.66S1229,661.13,1226.7,745.3c-2.08,75.18-34.08,114.62-78.42,118.51C1078.56,869.9,1027.15,790.61,1027.15,790.61Z"/><path class="cls-5" d="M750,476.05l1.11-12.63s47.91,10.65,64,94.3c0,0,16.12-77.2,67.72-85l8.7,22.24-31.68,82.49-55.65,16.27-54.13-16.27-24.62-48.89Z"/><path class="cls-6" d="M616.52,509.32a15.21,15.21,0,0,1,.24,2.16q.16,2.29.45,6.23c.35,5.4.91,13.22,1.69,22.88,1.54,19.3,4.19,45.94,8.36,75.19s9.12,55.58,13,74.54c2,9.49,3.61,17.15,4.79,22.44.55,2.56,1,4.6,1.32,6.1a15,15,0,0,1,.37,2.14,13.2,13.2,0,0,1-.62-2.08l-1.55-6c-1.33-5.25-3.11-12.89-5.19-22.36-4.15-18.93-9.22-45.25-13.42-74.55s-6.69-56-8-75.31c-.66-9.67-1.09-17.5-1.28-22.92q-.13-3.93-.22-6.24A12.84,12.84,0,0,1,616.52,509.32Z"/><path class="cls-6" d="M890.33,483a5.7,5.7,0,0,1-.68,1.21c-.57.87-1.28,2-2.15,3.32l-8,12.19c-6.7,10.31-15.75,24.69-25.15,40.92-.38.64-.75,1.28-1.09,1.87l-.61,1.05-.51-1.09c-1.93-4.12-3.9-8.14-6.89-11.08s-6.93-4.68-10.66-4-6.7,3.14-8.8,5.78a26.66,26.66,0,0,0-4.39,8.43c-1.81,5.61-2.86,10.35-4.2,13.42a27.4,27.4,0,0,1-1.68,3.45,5.3,5.3,0,0,1-.76,1.1c-.1-.06.88-1.62,2-4.72s2.08-7.79,3.81-13.52a27.23,27.23,0,0,1,4.41-8.8c2.16-2.78,5.26-5.58,9.43-6.28s8.6,1.16,11.72,4.25,5.23,7.3,7.17,11.42l-1.13-.05c.35-.59.72-1.23,1.09-1.87,9.42-16.26,18.61-30.59,25.51-40.79,3.44-5.1,6.3-9.18,8.32-12l2.35-3.19A5.78,5.78,0,0,1,890.33,483Z"/><path class="cls-6" d="M844.71,530.41a4.29,4.29,0,0,1-.51,1.08l-1.7,3-6.43,10.79-9.67,15.91-5.75,9.37-3.09,5a4.37,4.37,0,0,1-1.21,1.22,2.3,2.3,0,0,1-2,.26,4.88,4.88,0,0,1-2.43-2.32c-9-13.53-15.7-26.59-21-35.78-2.59-4.62-4.72-8.34-6.22-10.89a35.69,35.69,0,0,1-2.24-4,4.27,4.27,0,0,1,.74.94c.45.64,1.12,1.58,1.92,2.83,1.63,2.48,3.88,6.13,6.58,10.7,5.45,9.1,12.28,22.09,21.22,35.52.56.88,1.06,1.62,1.75,1.82s1.23-.24,1.77-1l3.05-4.9c2-3.23,4-6.36,5.82-9.34l9.9-15.76c2.78-4.34,5.07-7.91,6.77-10.58l1.9-2.84A4.52,4.52,0,0,1,844.71,530.41Z"/><path class="cls-6" d="M1018.25,537.83a10.62,10.62,0,0,1-.73,1.67c-.58,1.18-1.35,2.73-2.3,4.68-2.05,4-4.92,9.93-8.35,17.25s-7.33,16.14-11.43,26-8.25,20.88-12.29,32.55-7.43,22.93-10.34,33.23-5.2,19.65-7,27.54-3.17,14.3-4,18.74l-1.06,5.1a9.08,9.08,0,0,1-.46,1.77,10.09,10.09,0,0,1,.21-1.81c.21-1.3.48-3,.83-5.15.72-4.48,2-10.92,3.65-18.84s3.94-17.32,6.74-27.67S978,631.29,982,619.58s8.3-22.68,12.41-32.58,8.15-18.67,11.7-26,6.53-13.13,8.72-17.1l2.51-4.57A9.33,9.33,0,0,1,1018.25,537.83Z"/><path class="cls-6" d="M874.88,855.81a10.35,10.35,0,0,1-2-.07l-5.59-.44c-2.43-.19-5.4-.46-8.84-.89s-7.36-.81-11.67-1.48c-8.64-1.18-18.87-3-30.16-5.3s-23.59-5.45-36.36-9.21-24.72-8-35.49-12.15-20.28-8.31-28.16-12c-4-1.79-7.48-3.6-10.58-5.13s-5.75-2.92-7.89-4.08l-4.92-2.69a13.29,13.29,0,0,1-1.68-1,11.1,11.1,0,0,1,1.8.78l5,2.48c2.17,1.1,4.84,2.43,8,3.88s6.66,3.22,10.65,5c7.91,3.62,17.47,7.63,28.2,11.77s22.72,8.21,35.44,12,25,6.81,36.23,9.29S838.35,850.75,847,852c4.29.73,8.2,1.19,11.63,1.67s6.38.84,8.8,1.1l5.57.68A11.94,11.94,0,0,1,874.88,855.81Z"/><path class="cls-6" d="M861,861.3a5.83,5.83,0,0,1-1.29.33l-3.74.71c-3.25.6-8,1.34-13.83,2.15-11.71,1.62-28,3.27-46,3.91a461.65,461.65,0,0,1-46.19-.71c-5.9-.39-10.67-.81-14-1.18l-3.78-.45a6,6,0,0,1-1.31-.24,4.84,4.84,0,0,1,1.33,0l3.8.21c3.29.23,8.06.51,14,.79,11.79.57,28.09,1,46.09.33s34.24-2.14,46-3.53c5.86-.69,10.6-1.3,13.87-1.75l3.77-.47A4.62,4.62,0,0,1,861,861.3Z"/><path class="cls-6" d="M971.93,720.57a11,11,0,0,1,.37-1.85q.5-2,1.3-5.21l4.87-19.15c4.11-16.16,9.57-38.56,16.28-63.13,3.38-12.28,6.84-23.92,10.2-34.43s6.67-19.9,9.69-27.69c1.44-3.91,2.91-7.39,4.16-10.47s2.38-5.69,3.35-7.82l2.22-4.89a9.91,9.91,0,0,1,.86-1.67,10.84,10.84,0,0,1-.62,1.77q-.76,1.88-2,5c-.9,2.15-2,4.79-3.14,7.89s-2.6,6.59-4,10.52c-2.9,7.81-6.07,17.22-9.42,27.72S999.35,619.3,996,631.57c-6.7,24.54-12.3,46.9-16.63,63-2.16,8.06-4,14.57-5.26,19q-1,3.21-1.53,5.15A9.18,9.18,0,0,1,971.93,720.57Z"/><path class="cls-6" d="M644.76,716.37a14,14,0,0,1-1.33-1.55c-.82-1.06-2.13-2.54-3.57-4.63a133.8,133.8,0,0,1-11.18-18.38A175.78,175.78,0,0,1,617,662.14a260.83,260.83,0,0,1-8.16-38.2c-3.73-27.5-4.34-52.61-5.47-70.69-.5-9-1-16.37-1.36-21.43q-.27-3.66-.43-5.82a14.23,14.23,0,0,1-.07-2,10.85,10.85,0,0,1,.33,2c.16,1.33.41,3.28.66,5.81.53,5,1.15,12.36,1.77,21.41,1.35,18.09,2.11,43.18,5.83,70.57a267.49,267.49,0,0,0,8,38,182.63,182.63,0,0,0,11.41,29.6,149,149,0,0,0,10.78,18.5c1.38,2.12,2.62,3.65,3.37,4.76A11.4,11.4,0,0,1,644.76,716.37Z"/><path class="cls-6" d="M632.85,660c.08.38-3.63,1.18-7.56,3.52s-6.48,5.13-6.77,4.88,1.93-3.54,6.13-6S632.84,659.7,632.85,660Z"/><path class="cls-6" d="M630.47,627.16c0,.38-4.61.79-9.55,3.44s-8,6.18-8.25,5.92,2.39-4.31,7.66-7S630.52,626.84,630.47,627.16Z"/><path class="cls-6" d="M623.28,597.11c0,.39-3.65.58-7.58,2.56s-6.33,4.74-6.62,4.5,1.79-3.54,6.06-5.63S623.34,596.8,623.28,597.11Z"/><path class="cls-6" d="M619.79,566.11c.05.37-3.2,1-6.89,2.58s-6.41,3.48-6.64,3.19,2.24-2.71,6.14-4.36S619.77,565.78,619.79,566.11Z"/><path class="cls-6" d="M617.77,541c.05.37-3.25,1-6.91,2.7s-6.24,3.86-6.5,3.59,2.06-2.92,6-4.73S617.77,540.7,617.77,541Z"/><path class="cls-6" d="M978.51,682.24c-.3.21-2-2-5-3.23s-5.78-.83-5.85-1.2,2.87-1.41,6.33,0S978.84,682.13,978.51,682.24Z"/><path class="cls-6" d="M988,656.61c-.34.15-1.67-3.67-5.64-6.17s-7.94-2.23-7.94-2.6c0-.15.95-.48,2.59-.43a12.42,12.42,0,0,1,10.31,6.66C988.09,655.54,988.18,656.57,988,656.61Z"/><path class="cls-6" d="M995.17,628.45c-.3.23-2.36-2.93-6.47-4.51s-7.73-.77-7.8-1.15c0-.14.81-.59,2.34-.81a12,12,0,0,1,5.93.79,11.83,11.83,0,0,1,4.85,3.49C995,627.46,995.3,628.38,995.17,628.45Z"/><path class="cls-6" d="M1003.58,601.39c-.33.17-1.66-2.34-4.62-3.85s-5.73-1.27-5.78-1.64c0-.15.66-.47,1.86-.54a9.18,9.18,0,0,1,7.94,4.19C1003.6,600.58,1003.72,601.33,1003.58,601.39Z"/><path class="cls-6" d="M1013.41,576.54c-.32.17-1.7-2.85-5.2-4.41s-6.65-.75-6.73-1.11c-.05-.14.67-.61,2-.83a9.46,9.46,0,0,1,9.23,4.27C1013.45,575.64,1013.56,576.49,1013.41,576.54Z"/><path class="cls-6" d="M852.55,541a4.79,4.79,0,0,1-.55,1.18c-.48.88-1.07,2-1.8,3.27-1.59,2.83-3.93,6.89-6.9,11.87s-6.55,10.87-10.65,17.35c-2.06,3.23-4.25,6.61-6.59,10.06a115.29,115.29,0,0,1-7.74,10.42,11,11,0,0,1-2.63,2.34,1.73,1.73,0,0,1-1.12.23,3.63,3.63,0,0,1-1-.31,8.59,8.59,0,0,1-1.45-1,36.35,36.35,0,0,1-4.48-4.67c-2.68-3.23-5-6.5-7.26-9.64-4.4-6.28-8.13-12.09-11.22-17s-5.5-8.92-7.14-11.72c-.74-1.31-1.35-2.38-1.85-3.24a5.16,5.16,0,0,1-.56-1.18,5,5,0,0,1,.78,1l2.05,3.12,7.47,11.5c3.18,4.84,7,10.58,11.43,16.81,2.22,3.1,4.6,6.34,7.25,9.52a36.59,36.59,0,0,0,4.32,4.48c.77.62,1.74,1.3,2.21.91a10.47,10.47,0,0,0,2.23-2A114.91,114.91,0,0,0,825,584.06c2.35-3.43,4.55-6.78,6.63-10,4.16-6.42,7.81-12.27,10.87-17.18l7.25-11.65,2-3.15A5.19,5.19,0,0,1,852.55,541Z"/><path class="cls-6" d="M798,577.43c-.15,0-.45-.86-.34-2.33a10.26,10.26,0,0,1,6.79-8.6c1.41-.45,2.33-.36,2.35-.21.09.35-3.46,1-6,4.31S798.4,577.44,798,577.43Z"/><path class="cls-6" d="M814.85,597.61c-.34,0-1.21-4.45-1.24-10.08s.76-10.14,1.09-10.1.13,4.54.18,10.09S815.21,597.57,814.85,597.61Z"/><path class="cls-6" d="M833.93,571.9c-.35.1-1.15-2.73-3.81-4.89s-5.53-2.51-5.49-2.88c0-.16.76-.33,2-.13a9.45,9.45,0,0,1,7.1,5.93C834.12,571.1,834.09,571.87,833.93,571.9Z"/><path class="cls-6" d="M846.4,551.05c-.36.05-.8-2.83-3.15-5.28s-5.14-3.14-5.06-3.51c0-.15.79-.23,2,.11a9.25,9.25,0,0,1,4,2.53,9.14,9.14,0,0,1,2.26,4.18C846.68,550.28,846.56,551,846.4,551.05Z"/><path class="cls-6" d="M785.32,558.34c-.15,0-.55-1-.62-2.68a13.37,13.37,0,0,1,6-11.35c1.46-.9,2.51-1.12,2.57-1,.19.33-3.66,2.1-5.93,6.48S785.69,558.32,785.32,558.34Z"/><g class="cls-13"><path d="M749.37,475.86c5.48,21,14.63,55.28,24.54,82.08a8.68,8.68,0,0,0,1.89,3.4c2.52,2.4,6.84.93,9.21-1.61s3.56-5.52,5.4-8.25,4.56-5.26,7.85-5.37c2.68-.09,5.19,1.48,7,3.5a39.17,39.17,0,0,1,4.27,6.81c.7,1.26,1.61,2.62,3,2.91a1.82,1.82,0,0,0,2.16-2.54l-8.76-22.72S801.89,517.4,788,520c-15.58,2.9-8.51,28.48-8.51,28.48S749.13,475,749.37,475.86Z"/></g><path class="cls-6" d="M815.1,557.72a8.06,8.06,0,0,1-.75-1.49c-.45-1-1.09-2.47-1.88-4.38L806,535.55c-.69-1.71-1.42-3.5-2.23-5.34a16.46,16.46,0,0,0-3.19-5.17,15.25,15.25,0,0,0-12.13-4.52,11.76,11.76,0,0,0-6.4,2.86c-1.72,1.67-2.62,4.13-3.45,6.62a18.85,18.85,0,0,0-.53,7.78,62.09,62.09,0,0,0,1.44,8.14c.25,1,.49,2,.72,2.92l-1.21.36c-3.59-10.31-7.72-19.86-11.48-28.5s-7.23-16.39-9.95-23-4.7-12-5.91-15.76c-.64-1.88-1-3.37-1.31-4.37a7.5,7.5,0,0,1-.36-1.55,7.7,7.7,0,0,1,.6,1.48c.36,1,.82,2.44,1.53,4.29,1.34,3.72,3.44,9.05,6.26,15.57s6.34,14.22,10.19,22.84,8,18.18,11.63,28.56l-1.22.36c-.23-.93-.47-1.93-.72-2.94a62.93,62.93,0,0,1-1.47-8.31,20,20,0,0,1,.61-8.29c.86-2.51,1.79-5.16,3.79-7.1a12.9,12.9,0,0,1,7.11-3.16,16.28,16.28,0,0,1,13,5,17.44,17.44,0,0,1,3.32,5.51c.81,1.87,1.51,3.68,2.18,5.41,2.53,6.83,4.59,12.41,6.08,16.44.68,1.84,1.23,3.32,1.66,4.46A8.67,8.67,0,0,1,815.1,557.72Z"/><g class="cls-13"><path d="M816.34,557.09c-.53.37-.14,1.31.49,1.44a2.24,2.24,0,0,0,1.75-.62c3.26-2.52,5.08-6.42,7.38-9.84s5.66-6.7,9.78-6.72c4.37,0,7.88,3.65,10,7.46s3.63,8.12,6.75,11.19a307.3,307.3,0,0,0,37.12-74.44c-5.13,3.56-8.5,9.09-11.72,14.45Q865.47,520.8,853,541.58c-1.75-4-3.81-8.07-7-11.08s-7.8-4.87-12.09-3.87c-4.85,1.14-8.21,5.53-10.58,9.91a59.33,59.33,0,0,0-6.66,20.71"/></g><path class="cls-6" d="M1143.13,762.09a15.83,15.83,0,0,1-1.67-2.8c-1-1.83-2.37-4.53-4-7.9a291,291,0,0,1-19.68-55c-.89-3.63-1.54-6.59-1.93-8.64a16.92,16.92,0,0,1-.5-3.22,15.73,15.73,0,0,1,1,3.1c.61,2.26,1.39,5.12,2.32,8.53,2,7.19,4.95,17.06,8.78,27.78s7.82,20.21,10.85,27l3.62,8.06A16.87,16.87,0,0,1,1143.13,762.09Z"/><path class="cls-6" d="M1118.8,757.28a12.84,12.84,0,0,1-1-2.8c-.59-1.82-1.33-4.5-2.15-7.82a171,171,0,0,1-4.2-53.22c.29-3.42.6-6.17.9-8.07a14.42,14.42,0,0,1,.57-2.92,12.8,12.8,0,0,1-.08,3c-.15,1.9-.33,4.66-.49,8.06a205.41,205.41,0,0,0,4.18,53c.69,3.34,1.3,6,1.75,7.89A14,14,0,0,1,1118.8,757.28Z"/><path class="cls-6" d="M1197,533.27a9.49,9.49,0,0,1,2,.75l.38.17-.41.15a345.79,345.79,0,0,1-48.84,12.49c-14.28,2.63-27.34,4.16-36.82,4.92-4.74.38-8.58.62-11.24.7a24.76,24.76,0,0,1-4.13,0,27.93,27.93,0,0,1,4.1-.51l11.19-1.11c9.43-1,22.44-2.64,36.67-5.27,23.74-4.31,43.27-10.07,49-11.57l0,.32A8.34,8.34,0,0,1,1197,533.27Z"/><path class="cls-6" d="M1175,522.18s.25-.42,1-.65a4.06,4.06,0,0,1,3.28.73,4.71,4.71,0,0,1,2.11,4.56,3.77,3.77,0,0,1-1.87,2.57,5.28,5.28,0,0,1-3.27.6,5.43,5.43,0,0,1-3-1.4,4,4,0,0,1-1.2-2.94,5.09,5.09,0,0,1,2.73-4.2,4.62,4.62,0,0,1,3.3-.53c.79.21,1.1.55,1.07.6,0,.22-1.74-.74-3.91.7a4.32,4.32,0,0,0-2,3.43,3.35,3.35,0,0,0,3.22,3.08c1.79.26,3.57-.68,3.84-2.16a4.2,4.2,0,0,0-4.17-4.55C1175.38,522.07,1175,522.29,1175,522.18Z"/><path class="cls-4" d="M794.7,576.18a9.35,9.35,0,0,1-1.4,1.22c-1,.74-2.3,2-4.22,3.25a95.6,95.6,0,0,1-17,9.68,103.74,103.74,0,0,1-27.93,7.94,100.7,100.7,0,0,1-35.5-1.34c-12.38-2.8-23.55-7.36-34-10.18a92.08,92.08,0,0,0-15.09-3,62.25,62.25,0,0,0-13.36.13A40.91,40.91,0,0,0,628,590.29a67.21,67.21,0,0,0-5.54,4.48,24.61,24.61,0,0,1,5.26-4.89A40.18,40.18,0,0,1,646,583a61.85,61.85,0,0,1,13.58-.29,91.4,91.4,0,0,1,15.3,2.89c10.6,2.78,21.78,7.31,34,10.07A107.41,107.41,0,0,0,727,598a109.09,109.09,0,0,0,17-.84,106,106,0,0,0,27.73-7.61,103.86,103.86,0,0,0,17.1-9.27c2-1.22,3.33-2.37,4.34-3A11,11,0,0,1,794.7,576.18Z"/><path class="cls-4" d="M957.3,681.56a4.2,4.2,0,0,1-.77-.35l-2.22-1.15c-1-.5-2.23-1-3.69-1.66s-3.21-1.25-5.22-1.77c-7.93-2.39-20.16-3.62-34.86-1.27a202,202,0,0,0-23.71,5.39c-8.45,2.31-17.44,5-27.14,7a99.27,99.27,0,0,1-30.92,1.89c-10.76-1-21.58-4-32.38-7.62s-21.15-7.7-31.31-11.08a159.45,159.45,0,0,0-29.88-7.34,140,140,0,0,0-51.78,2.82,153.5,153.5,0,0,0-19.08,6.16c-2.71,1.18-5.25,2.22-7.53,3.32s-4.36,2.11-6.18,3.13l-4.83,2.7-3.45,2.12-2.13,1.3a4,4,0,0,1-.75.41,4.37,4.37,0,0,1,.68-.51l2.06-1.41c.92-.6,2-1.39,3.4-2.24l4.78-2.81c1.81-1,3.91-2,6.16-3.23s4.81-2.22,7.52-3.44a149.59,149.59,0,0,1,19.13-6.37,139.35,139.35,0,0,1,52.16-3.1,158.53,158.53,0,0,1,30.12,7.31c10.2,3.38,20.55,7.44,31.31,11.06s21.48,6.58,32.11,7.59a99,99,0,0,0,30.56-1.8c9.63-1.93,18.63-4.56,27.1-6.83a199.23,199.23,0,0,1,23.85-5.25c14.82-2.26,27.17-.89,35.13,1.68,2,.55,3.72,1.33,5.23,1.89s2.7,1.25,3.66,1.78l2.16,1.27A5.7,5.7,0,0,1,957.3,681.56Z"/><path class="cls-4" d="M828.36,574.37a58.18,58.18,0,0,0,6.54,1.43A47.09,47.09,0,0,0,853,574.36c7.5-1.82,15.87-5.72,25.42-9.51a84.56,84.56,0,0,1,15.49-4.61,73,73,0,0,1,17.34-1A100.74,100.74,0,0,1,943.66,567a175.35,175.35,0,0,1,24.22,12.56c6.62,4,11.81,7.57,15.4,10l4.09,2.85a8.56,8.56,0,0,1,1.38,1.07,9.43,9.43,0,0,1-1.52-.85L983,590c-3.67-2.31-8.93-5.72-15.59-9.65a184.83,184.83,0,0,0-24.2-12.25,101.66,101.66,0,0,0-32.1-7.61,73.73,73.73,0,0,0-17,1,85.24,85.24,0,0,0-15.29,4.48c-9.51,3.7-18,7.55-25.63,9.29a45.7,45.7,0,0,1-18.33,1.06A22.15,22.15,0,0,1,828.36,574.37Z"/><path class="cls-4" d="M977.92,510.18a21,21,0,0,1-3.64,1.11c-1.18.33-2.63.7-4.34,1s-3.63.8-5.8,1.1a134.18,134.18,0,0,1-15.29,1.65,139.35,139.35,0,0,1-37.47-3.18,134.8,134.8,0,0,1-14.79-4.21c-2.09-.67-3.91-1.44-5.54-2.07s-3-1.22-4.1-1.74a21.77,21.77,0,0,1-3.39-1.71,22,22,0,0,1,3.58,1.25c1.14.45,2.52,1,4.17,1.54s3.47,1.27,5.56,1.88c4.14,1.35,9.14,2.69,14.76,3.92a150,150,0,0,0,37.17,3.16c5.74-.26,10.9-.74,15.2-1.37,2.17-.25,4.1-.64,5.81-.92s3.17-.56,4.36-.81A23.13,23.13,0,0,1,977.92,510.18Z"/><path class="cls-4" d="M617.55,526.63a5.94,5.94,0,0,1,1.12-1c.76-.61,1.87-1.51,3.35-2.63,2.94-2.25,7.27-5.42,12.77-9.11,11-7.33,26.88-16.88,46.32-22.87s38.33-6.18,51.34-3.59a80.28,80.28,0,0,1,15.1,4.32c1.75.64,3,1.33,3.91,1.72a6.62,6.62,0,0,1,1.32.7c0,.11-1.93-.71-5.4-1.95a88.16,88.16,0,0,0-15.08-3.9c-12.93-2.35-31.57-2-50.82,3.91s-35.14,15.29-46.2,22.41c-5.55,3.59-9.94,6.64-13,8.76l-3.49,2.43A7.1,7.1,0,0,1,617.55,526.63Z"/><path class="cls-4" d="M939.62,795a3.41,3.41,0,0,1-.72.2l-2.14.46a22.25,22.25,0,0,1-3.53.54l-2.27.24-2.59.07c-7.36.31-18-1.59-30.4-5.59-6.24-1.95-13-4.33-20.34-6.51a123.37,123.37,0,0,0-23.92-4.64c-17.16-1.64-36.15.42-55.71,4s-38.11,8-55.32,10-32.92,2.26-45.9.29a95.56,95.56,0,0,1-29.59-8.93c-1.62-.86-3.07-1.59-4.3-2.27l-3-1.92L658,779.75a2.9,2.9,0,0,1-.59-.45,5,5,0,0,1,.67.34l1.89,1.09,3.06,1.8,4.34,2.15a98.1,98.1,0,0,0,29.5,8.5c12.89,1.84,28.53,1.6,45.62-.57s35.6-6.58,55.25-10.12,38.73-5.63,56-3.91a123.13,123.13,0,0,1,24.11,4.8c7.37,2.23,14.1,4.67,20.31,6.66,12.38,4.1,22.83,6.11,30.13,6h2.57l2.25-.19a25.57,25.57,0,0,0,3.52-.41l2.16-.33A3.77,3.77,0,0,1,939.62,795Z"/><g class="cls-14"><path d="M714.17,812.61c11.6,28.93,34,49.49,64.92,53.74s62.13-2.82,92.2-11c-54.69-7.64-103.06-15.22-157.12-42.73"/></g><path class="cls-4" d="M947.45,892.18a3.61,3.61,0,0,1-.75-.27l-2.17-.93-8.28-3.67c-7.19-3.16-17.5-8-30.38-13.6a132.12,132.12,0,0,0-21.67-7.33,69.46,69.46,0,0,0-26-1.21,93.47,93.47,0,0,0-13.81,3.13,143.16,143.16,0,0,0-13.85,5.24c-9.25,4-18.43,9.05-27.88,14.12a222.2,222.2,0,0,1-28.46,13.24c-9.54,3.46-19.24,5.71-28.64,5.83a64.4,64.4,0,0,1-25.93-5.08,172,172,0,0,1-20.54-10.45c-6.11-3.48-11.61-6.66-16.62-9.09a88.24,88.24,0,0,0-13.21-5.38,50.49,50.49,0,0,0-5-1.36,29.34,29.34,0,0,0-3.75-.72l-2.32-.37a4.07,4.07,0,0,1-.79-.17,3.81,3.81,0,0,1,.81,0l2.34.25a26.11,26.11,0,0,1,3.79.61,46.32,46.32,0,0,1,5.09,1.24,86.42,86.42,0,0,1,13.37,5.22c5.07,2.38,10.62,5.52,16.75,8.95A174.55,174.55,0,0,0,720,900.67a63.4,63.4,0,0,0,25.52,4.89c9.23-.15,18.79-2.38,28.24-5.83a223.41,223.41,0,0,0,28.28-13.19c9.44-5.06,18.66-10.09,28-14.14a141.2,141.2,0,0,1,14-5.26A95.68,95.68,0,0,1,858,864a70.35,70.35,0,0,1,26.4,1.34,131.4,131.4,0,0,1,21.79,7.54c12.87,5.7,23.1,10.67,30.24,14l8.18,3.89,2.11,1A3.92,3.92,0,0,1,947.45,892.18Z"/></g></g></svg>