<svg xmlns="http://www.w3.org/2000/svg" viewBox="0 0 1320.98 796.56"><defs><style>.cls-1{fill:#f5f5f5;}.cls-2{fill:#ececec;}.cls-3{fill:#10273b;}.cls-4{fill:#fff;}.cls-5{opacity:0.5;}.cls-6{fill:#0080ff;}.cls-7{opacity:0.2;}.cls-8{opacity:0.3;}.cls-9{fill:#fafafa;}.cls-10{fill:#ffbf9d;}.cls-11{fill:#ff9a6c;}.cls-12{opacity:0.78;}.cls-13{opacity:0.6;}</style></defs><title>Zasób 42</title><g id="Warstwa_2" data-name="Warstwa 2"><g id="DESIGNED_BY_FREEPIK" data-name="DESIGNED BY FREEPIK"><path class="cls-1" d="M798.25,87.75A83.15,83.15,0,1,1,704,17.61,83.05,83.05,0,0,1,798.25,87.75Z"/><path class="cls-2" d="M778.67,90.59a63.36,63.36,0,1,1-71.8-53.45A63.3,63.3,0,0,1,778.67,90.59Z"/><path class="cls-3" d="M778.37,88.63c-.38.07-1-2.65-2.75-7.3a67.31,67.31,0,0,0-10-18.17,65,65,0,0,0-10-10.19,63.84,63.84,0,0,0-13.85-8.56,60,60,0,0,0-8.26-3,59,59,0,0,0-9-1.91,61.64,61.64,0,0,0-9.47-.55,68.87,68.87,0,0,0-9.74.94,66.64,66.64,0,0,0-9.46,2.47,60.73,60.73,0,0,0-8.71,3.78A58.62,58.62,0,0,0,679.41,51a59.22,59.22,0,0,0-6.7,5.71,62.7,62.7,0,0,0-10.05,12.8,64.14,64.14,0,0,0-5.84,13A67.19,67.19,0,0,0,653.66,103c0,5,.31,7.73-.07,7.8s-1.22-2.62-1.81-7.7a58.5,58.5,0,0,1,1.74-21.57,63.86,63.86,0,0,1,5.64-14,64.53,64.53,0,0,1,10.38-14,64.56,64.56,0,0,1,15.39-11.62,64.36,64.36,0,0,1,9.37-4.16,71.37,71.37,0,0,1,10.2-2.68,69.8,69.8,0,0,1,10.51-1,65,65,0,0,1,10.22.67,62.57,62.57,0,0,1,9.64,2.18,61,61,0,0,1,8.81,3.43,63.47,63.47,0,0,1,24.68,20.76,58.86,58.86,0,0,1,9.07,19.65C778.62,85.75,778.65,88.58,778.37,88.63Z"/><path class="cls-3" d="M728.5,136.08l1.74,10.9-9.73,1.55-1.7-10.6c-9.72.95-19.45-.58-25.47-3.91l3.45-12.73a39.83,39.83,0,0,0,20,3.89l-2.6-16.26C703,108,690.3,106.36,688.08,92.44c-1.65-10.31,4.42-20.36,19.51-24.58l-1.73-10.8,9.74-1.56,1.69,10.61c7.4-.58,14.81.22,20.71,2.77l-3,12.75A40.58,40.58,0,0,0,719.35,79L722,95.5c11.21.8,23.65,2.5,25.85,16.22C749.47,121.84,743.48,131.78,728.5,136.08ZM711.88,94.62,709.67,80.8c-5,2-6.56,5.15-6,8.36C704.16,92.56,707.38,94,711.88,94.62Zm20.49,20.78c-.54-3.41-3.66-4.81-8.08-5.6l2.15,13.43C731.14,121.38,732.87,118.51,732.37,115.4Z"/><path class="cls-2" d="M1232.28,445.8s-18.44-10.65-37.5,33.05S1169,547.51,1169,547.51s-5.18,9.23-11.63,3.79-15.81-21.41-26-17.82c-10.58,3.72-13.4,15.94-10.28,33.46s8.52,56.16,9,59.66-1.2,8.63-6.19,5.62-34.41-32-47.35-17.26,3.75,62.17,5.47,67.39.83,7.54-1.61,9-11.41-9.23-20.11-17.15-20.18-15.57-26.94-6.41-6.91,45.47,31.06,102.16l19.31,25.12,31.61-3.67c67.17-12,93.23-37.27,95.14-48.48s-11.57-14.18-23.31-15-25.66.18-26.3-2.59.42-5,5.37-7.41,50.67-23.22,52.34-42.79-39.65-20.63-45.27-22.14-3-6.32-.24-8.36,34.43-25,49.21-34.89,21.63-20.42,17-30.62c-4.49-9.84-22.48-5.49-30.87-6.37s-5.34-11-5.34-11,13.31-22.14,31.58-66.18-2.74-50-2.74-50"/><path class="cls-3" d="M1084.93,788.51c13.53-32.29,32.61-76.76,53.85-125.8s40.41-93.44,54.13-125.66c6.82-16.08,12.35-29.11,16.2-38.17,1.9-4.47,3.39-7.95,4.42-10.37l1.17-2.69c.27-.6.44-.9.44-.9s-.1.32-.34.94-.61,1.57-1.07,2.73L1209.5,499c-3.69,9.08-9.12,22.17-15.89,38.31-13.53,32.3-32.61,76.76-53.84,125.79s-40.42,93.45-54.13,125.67"/><path class="cls-3" d="M1143.55,556.35a9.28,9.28,0,0,1,.94,2.09c.55,1.37,1.28,3.37,2.16,5.85,1.75,5,4,11.89,6.29,19.58s4.27,14.41,5.84,19.7q1.07,3.51,1.8,6a9.31,9.31,0,0,1,.56,2.22,9,9,0,0,1-1-2.08c-.55-1.37-1.28-3.37-2.13-5.86-1.7-5-3.83-11.94-6.15-19.63-2.29-7.54-4.37-14.37-6-19.65-.71-2.33-1.32-4.32-1.83-5.95A9.75,9.75,0,0,1,1143.55,556.35Z"/><path class="cls-3" d="M1164.08,612.14c-.1-.28,14-5.51,31.42-11.69s31.68-11,31.78-10.67-14,5.52-31.42,11.7S1164.18,612.42,1164.08,612.14Z"/><path class="cls-3" d="M1128.07,686a9.32,9.32,0,0,1,2.33-.27l6.35-.38c5.36-.32,12.75-.78,20.89-1.59s15.5-1.76,20.82-2.49l6.29-.87a10.21,10.21,0,0,1,2.34-.19,9.2,9.2,0,0,1-2.26.61c-1.47.32-3.61.74-6.26,1.2-5.29.94-12.65,2-20.82,2.82s-15.6,1.16-21,1.28c-2.69,0-4.86.07-6.37,0A10.54,10.54,0,0,1,1128.07,686Z"/><path class="cls-3" d="M1098.4,639.6a8.67,8.67,0,0,1,1.36,1.68c.82,1.13,2,2.77,3.37,4.82,2.81,4.09,6.63,9.78,10.8,16.11s7.88,12.08,10.52,16.28c1.33,2.1,2.38,3.81,3.09,5a8.43,8.43,0,0,1,1,1.91,7.85,7.85,0,0,1-1.36-1.68c-.82-1.12-2-2.77-3.38-4.82-2.81-4.09-6.63-9.78-10.79-16.11s-7.88-12.08-10.53-16.28c-1.32-2.1-2.37-3.81-3.08-5A8.43,8.43,0,0,1,1098.4,639.6Z"/><path class="cls-3" d="M1058.33,700.74a13.5,13.5,0,0,1,1.72,2.18l4.34,6.15c3.63,5.23,8.58,12.49,14,20.54s10.27,15.39,13.73,20.72l4.06,6.35a12.52,12.52,0,0,1,1.36,2.41,13.42,13.42,0,0,1-1.71-2.17l-4.35-6.16c-3.62-5.22-8.57-12.48-14-20.54s-10.26-15.39-13.72-20.72l-4.06-6.35A13.85,13.85,0,0,1,1058.33,700.74Z"/><path class="cls-3" d="M1097,757.43a16.73,16.73,0,0,1,2.94-.41l8-.76c6.78-.64,16.14-1.57,26.44-2.87s19.61-2.69,26.34-3.75l8-1.25a15.07,15.07,0,0,1,3-.33,16.85,16.85,0,0,1-2.88.75c-1.86.41-4.56,1-7.91,1.58-6.7,1.26-16,2.79-26.33,4.08s-19.72,2.11-26.52,2.56c-3.4.21-6.16.36-8.06.42A14.81,14.81,0,0,1,1097,757.43Z"/><path class="cls-3" d="M528.58,579.88,151.08,462.37a18.38,18.38,0,0,1-12.09-23l72.58-233.2a18.4,18.4,0,0,1,23-12.09L612.1,311.57a18.39,18.39,0,0,1,12.09,23L551.6,567.78A18.39,18.39,0,0,1,528.58,579.88Z"/><path class="cls-4" d="M549.44,360.53a29.83,29.83,0,1,1-19.61-37.35A29.82,29.82,0,0,1,549.44,360.53Z"/><path class="cls-4" d="M551.46,393.16a31.85,31.85,0,0,1-5.41-1.17,31,31,0,1,1,5.41,1.17Zm7.38-59.2a28.61,28.61,0,1,0,23.75,36.89h0A28.64,28.64,0,0,0,563.78,335,28,28,0,0,0,558.84,334Z"/><path class="cls-4" d="M200.15,371.64,193,394.55l-2.36-.74L197.14,373l-5.4-1.68.66-2.09Z"/><path class="cls-4" d="M217.23,399.78l-.65,2.1-16.07-5,.52-1.67,12.42-6.36c3.38-1.75,4.35-3.14,4.84-4.71.83-2.65-.53-4.86-4-5.95a8.14,8.14,0,0,0-7,.6l-1.22-2c2.42-1.54,5.63-1.83,9.13-.74,4.65,1.44,6.86,4.72,5.67,8.55-.69,2.19-2,3.94-6,6l-10.17,5.23Z"/><path class="cls-4" d="M242.56,403.36,238,401.94l-1.87,6-2.36-.73,1.88-6-12.93-4,.53-1.7,16.87-11.4,2.62.81L226.4,396l9.95,3.1,1.65-5.3,2.28.71-1.65,5.3,4.59,1.43Z"/><path class="cls-4" d="M277.67,414.29l-4.58-1.42-1.88,6-2.35-.74,1.87-6-12.92-4,.53-1.7L275.2,395l2.62.82L261.5,407l9.95,3.1,1.65-5.3,2.29.71-1.65,5.3,4.58,1.43Z"/><path class="cls-4" d="M297.91,419.8c-1.21,3.9-4.88,6.09-10.47,4.35-3.31-1-6.09-3.15-7.3-5.5l1.73-1.51a10.37,10.37,0,0,0,6.21,4.84c3.89,1.21,6.54,0,7.41-2.82.92-3-.35-5.35-6.17-7.16l-4.88-1.52,4.76-11.12,12.53,3.9-.65,2.09-10.47-3.26-3.06,7.06,2.95.91C297.4,412.21,299.17,415.74,297.91,419.8Z"/><path class="cls-4" d="M320.58,426.75c-1.33,4.29-5.56,6-10,4.6-6.08-1.89-8.08-7.14-5.83-14.37,2.43-7.79,7.94-10.53,14.16-8.59a11.05,11.05,0,0,1,5.05,2.93l-1.55,1.61a8.41,8.41,0,0,0-4.11-2.47c-4.94-1.54-9.1.65-11,6.87-.16.52-.33,1.19-.48,1.89,1.93-2.16,5.05-2.73,8.23-1.74C319.55,418.89,321.88,422.56,320.58,426.75Zm-2.34-.66c.93-3-.69-5.63-4.23-6.73s-6.56.33-7.44,3.17c-.79,2.52.56,5.56,4.52,6.79C314.4,430.35,317.29,429.14,318.24,426.09Z"/><path class="cls-4" d="M351.84,436.77c-1.19,3.83-4.89,5.91-10.42,4.18-3.31-1-6.12-3.16-7.33-5.51l1.73-1.51a10.44,10.44,0,0,0,6.27,4.86c3.8,1.19,6.44.07,7.33-2.78s-.52-5.14-4.77-6.47L343,429l.54-1.73,8.83-6-11.72-3.64.65-2.1L356,420.16l-.52,1.67-9,6.13C351.33,429.75,353,433.1,351.84,436.77Z"/><path class="cls-4" d="M374.88,443.65c-1.33,4.29-5.55,6-10,4.61-6.09-1.9-8.08-7.15-5.83-14.38,2.43-7.79,7.94-10.52,14.16-8.59a11.07,11.07,0,0,1,5,2.94l-1.54,1.6a8.4,8.4,0,0,0-4.11-2.46c-4.94-1.54-9.1.64-11,6.86-.16.52-.33,1.19-.48,1.9,1.93-2.17,5.05-2.74,8.22-1.75C373.85,435.8,376.19,439.47,374.88,443.65Zm-2.34-.65c.94-3-.69-5.64-4.22-6.74s-6.56.33-7.44,3.18c-.79,2.52.56,5.56,4.52,6.79C368.71,447.26,371.6,446,372.54,443Z"/><path class="cls-4" d="M401,434.15l-.52,1.67-16.2,18.25-2.55-.8,15.9-17.87-11.78-3.67L384.47,436l-2.32-.72,2-6.38Z"/><path class="cls-4" d="M433.7,444.34l-.52,1.67L417,464.26l-2.56-.79,15.91-17.88-11.79-3.67-1.33,4.29-2.32-.73,2-6.38Z"/><path class="cls-4" d="M451.1,467.88c-1.27,4.06-5.48,5.51-11,3.81s-8-5.27-6.79-9.33c.86-2.75,3-4.19,6.17-4.25a5.43,5.43,0,0,1-2-6.16c1.16-3.73,5.06-5.07,9.9-3.56s7.36,4.84,6.2,8.57a5.43,5.43,0,0,1-5.23,3.9C451,462.7,451.94,465.17,451.1,467.88Zm-2.41-.79c.88-2.81-1-5.33-5.06-6.59s-7-.24-7.87,2.57,1,5.36,5,6.62S447.8,469.94,448.69,467.09Zm-4.48-8.46c3.57,1.11,6.2.17,7-2.32s-1-4.86-4.4-5.92-6.15-.2-6.94,2.36S440.65,457.52,444.21,458.63Z"/><path class="cls-4" d="M475,469.54c-2.42,7.78-7.94,10.52-14.15,8.58a11,11,0,0,1-5.05-2.93l1.54-1.6a8.43,8.43,0,0,0,4.12,2.46c4.94,1.54,9.1-.65,11-6.86.17-.53.34-1.19.49-1.9-1.93,2.16-5.06,2.73-8.23,1.75-4.55-1.42-6.89-5.09-5.58-9.28s5.56-6,10-4.6C475.24,457.06,477.23,462.3,475,469.54ZM473.16,464c.78-2.52-.56-5.56-4.52-6.79-3.31-1-6.2.19-7.15,3.23s.69,5.63,4.23,6.73S472.27,466.83,473.16,464Z"/><path class="cls-4" d="M501.71,465.51l-7.13,22.91-2.35-.74,6.48-20.81-5.4-1.68.65-2.09Z"/><path class="cls-4" d="M518.79,493.65l-.65,2.1-16.07-5,.52-1.67L515,482.72c3.38-1.75,4.35-3.14,4.84-4.71.82-2.65-.54-4.86-4-5.95a8.14,8.14,0,0,0-7,.6l-1.22-2c2.42-1.54,5.63-1.83,9.13-.74,4.65,1.44,6.86,4.72,5.67,8.55-.68,2.19-2,3.94-6,6l-10.18,5.23Z"/><path class="cls-4" d="M540.73,495.57c-1.19,3.82-4.89,5.9-10.42,4.18-3.3-1-6.12-3.16-7.32-5.51l1.72-1.51a10.47,10.47,0,0,0,6.27,4.86c3.8,1.18,6.44.07,7.33-2.78s-.52-5.15-4.77-6.47l-1.63-.51.54-1.73,8.82-6-11.71-3.65.65-2.09L544.93,479l-.52,1.67-9,6.13C540.23,488.55,541.87,491.9,540.73,495.57Z"/><rect class="cls-4" x="442.48" y="401.79" width="10.42" height="192.15" transform="translate(-160.72 777.39) rotate(-72.71)"/><rect class="cls-4" x="480.99" y="482.36" width="10.42" height="98.55" transform="translate(-165.9 837.89) rotate(-72.71)"/><g class="cls-5"><path class="cls-2" d="M258,368,203.6,351.05a11.81,11.81,0,0,1-7.77-14.78l10.89-35a11.81,11.81,0,0,1,14.78-7.77l54.44,16.95a11.8,11.8,0,0,1,7.76,14.78l-10.88,35A11.81,11.81,0,0,1,258,368Z"/></g><path class="cls-3" d="M197.28,331.62l1.15-3.69,39.64,12.34a8.69,8.69,0,1,0,5.16-16.59l-39.64-12.34,1.15-3.69L244.38,320a12.55,12.55,0,0,1-7.46,24Z"/><rect class="cls-3" x="262.46" y="325.12" width="3.86" height="28.49" transform="translate(-138.36 490.57) rotate(-72.66)"/><rect class="cls-4" x="226.72" y="275.96" width="207.35" height="17.8" transform="translate(99.61 -85.34) rotate(17.29)"/><path class="cls-1" d="M295.51,690.45a52.59,52.59,0,1,1-59.59-44.36A52.53,52.53,0,0,1,295.51,690.45Z"/><path class="cls-2" d="M283.13,692.25a40.08,40.08,0,1,1-45.41-33.8A40,40,0,0,1,283.13,692.25Z"/><path class="cls-3" d="M282.94,691c-.24,0-.66-1.67-1.74-4.62a42.87,42.87,0,0,0-6.34-11.49A39.94,39.94,0,0,0,259.8,663a38.46,38.46,0,0,0-5.22-1.93,37.27,37.27,0,0,0-5.67-1.2,39.64,39.64,0,0,0-6-.35,38.9,38.9,0,0,0-12.14,2.15,38.82,38.82,0,0,0-5.51,2.39,38.09,38.09,0,0,0-4.91,3.09,36.46,36.46,0,0,0-4.24,3.61,40,40,0,0,0-6.36,8.1,41.11,41.11,0,0,0-3.69,8.22,42.52,42.52,0,0,0-2,13c0,3.14.2,4.9,0,4.94s-.78-1.66-1.15-4.87a37.24,37.24,0,0,1,1.1-13.64,40.36,40.36,0,0,1,3.57-8.87,41.3,41.3,0,0,1,6.56-8.83,39.08,39.08,0,0,1,4.49-4,38.66,38.66,0,0,1,5.25-3.39,41.06,41.06,0,0,1,5.92-2.63,41.42,41.42,0,0,1,13.1-2.32,40.66,40.66,0,0,1,6.47.42,38.55,38.55,0,0,1,6.09,1.38,40.39,40.39,0,0,1,5.58,2.17,41.17,41.17,0,0,1,9.2,6,40.26,40.26,0,0,1,6.4,7.09A37,37,0,0,1,282.34,686C283.1,689.19,283.12,691,282.94,691Z"/><path class="cls-3" d="M251.39,721l1.11,6.89-6.16,1-1.07-6.7c-6.15.6-12.31-.37-16.11-2.47l2.18-8.05A25.23,25.23,0,0,0,244,714.12l-1.65-10.27c-7.1-.57-15.09-1.63-16.5-10.43-1-6.52,2.8-12.88,12.34-15.54L237.08,671l6.15-1,1.08,6.71a28.21,28.21,0,0,1,13.09,1.75l-1.86,8.06a25.61,25.61,0,0,0-9.93-1.69l1.67,10.46c7.09.51,15,1.59,16.35,10.26C264.66,712,260.87,718.3,251.39,721ZM240.88,694.8l-1.4-8.74c-3.14,1.26-4.15,3.25-3.82,5.28S238,694.37,240.88,694.8Zm13,13.14c-.34-2.16-2.31-3-5.11-3.54l1.36,8.49C253.06,711.72,254.16,709.91,253.84,707.94Z"/><path class="cls-6" d="M1081.24,712.34c-3.84,5.49-11.3,3.67-14.76.33s-4.93-8.2-6.26-12.83c-3-10.57-6.1-21.66-3.84-32.42a18,18,0,0,1,4.14-8.82c2.26-2.39,5.74-3.81,8.92-3,3.76,1,6.1,4.68,7.79,8.19a77.12,77.12,0,0,1,7.63,33.17c0,5.34-.61,10.94-3.62,15.35"/><g class="cls-7"><path d="M1081.24,712.34c-3.84,5.49-11.3,3.67-14.76.33s-4.93-8.2-6.26-12.83c-3-10.57-6.1-21.66-3.84-32.42a18,18,0,0,1,4.14-8.82c2.26-2.39,5.74-3.81,8.92-3,3.76,1,6.1,4.68,7.79,8.19a77.12,77.12,0,0,1,7.63,33.17c0,5.34-.61,10.94-3.62,15.35"/></g><path class="cls-6" d="M1066.85,740.12c-6.28-3.24-13.67-3.67-20.64-2.51-3.75.62-7.65,1.74-10.2,4.55s-3,7.76-.1,10.18c1.74,1.44,4.17,1.66,6.43,1.63,5.45-.06,11.51-1,15.87,2.26,2.49,1.87,4.14,5,7.12,5.91s6.19-.82,7.73-3.44a12,12,0,0,0,.88-8.87A13.53,13.53,0,0,0,1066.85,740.12Z"/><path class="cls-6" d="M1091.78,720.21c-4.17-4.94-5-12.16-3.1-18.36s6-11.47,10.87-15.78A58.79,58.79,0,0,1,1119,674.58a20.68,20.68,0,0,1,8.76-1.48,9.19,9.19,0,0,1,7.35,4.44c2,3.91.08,8.65-2,12.52a148.91,148.91,0,0,1-12.79,19.48c-3.84,4.94-8.23,9.82-14.07,12.05s-11.92,2-15-2.08"/><path class="cls-3" d="M1081.5,795.07a12.24,12.24,0,0,1-.35-2.49c-.17-1.82-.4-4.09-.66-6.8a97.5,97.5,0,0,0-1.53-10,76.75,76.75,0,0,0-3.62-11.77,43.33,43.33,0,0,0-6-10.65,22.31,22.31,0,0,0-7.6-6.32,21.24,21.24,0,0,0-6.4-2,11.68,11.68,0,0,1-2.48-.36,11.74,11.74,0,0,1,2.53,0,19.17,19.17,0,0,1,6.67,1.73,22.33,22.33,0,0,1,8,6.38,42.23,42.23,0,0,1,6.23,10.86,72.39,72.39,0,0,1,3.6,12,83.72,83.72,0,0,1,1.32,10.1c.22,2.89.3,5.23.34,6.84A11.55,11.55,0,0,1,1081.5,795.07Z"/><path class="cls-3" d="M1081,789.84a5.32,5.32,0,0,1-.07-1.16c0-.87,0-2,0-3.31,0-2.87,0-7-.14-12.15-.26-10.25-1.14-24.41-2.85-40s-4-29.57-6.07-39.61c-.49-2.52-1-4.79-1.45-6.77s-.82-3.7-1.18-5.09-.57-2.37-.78-3.21a5.6,5.6,0,0,1-.2-1.14,5.1,5.1,0,0,1,.4,1.08l1,3.17c.43,1.37.86,3.08,1.36,5.06s1.07,4.23,1.6,6.75a375.2,375.2,0,0,1,6.39,39.65c1.7,15.59,2.47,29.79,2.54,40.07.06,5.14,0,9.3-.18,12.17-.08,1.35-.15,2.44-.2,3.31A4.86,4.86,0,0,1,1081,789.84Z"/><path class="cls-3" d="M1081,762.45a21.67,21.67,0,0,1,0-3.45c.12-2.22.43-5.43,1-9.36a123.57,123.57,0,0,1,3-13.63,120,120,0,0,1,5.7-16.14c4.73-11.22,11.15-20.39,16.74-26.07a42.36,42.36,0,0,1,3.94-3.66c.61-.51,1.14-1,1.68-1.42l1.53-1.06a22.74,22.74,0,0,1,2.91-1.86c.16.23-4.12,2.75-9.53,8.5a90.68,90.68,0,0,0-16.33,26,129.16,129.16,0,0,0-5.73,16,137.3,137.3,0,0,0-3.24,13.49c-.71,3.89-1.13,7.07-1.37,9.27A22.56,22.56,0,0,1,1081,762.45Z"/><path class="cls-6" d="M650.61,605.35,344,281.06a8.52,8.52,0,0,1,.34-12L545.57,78.8a8.52,8.52,0,0,1,12,.34L864.19,403.43a8.52,8.52,0,0,1-.34,12L662.65,605.69A8.52,8.52,0,0,1,650.61,605.35Z"/><g class="cls-8"><path d="M650.61,605.35,344,281.06a8.52,8.52,0,0,1,.34-12L545.57,78.8a8.52,8.52,0,0,1,12,.34L864.19,403.43a8.52,8.52,0,0,1-.34,12L662.65,605.69A8.52,8.52,0,0,1,650.61,605.35Z"/></g><path class="cls-6" d="M862,401.06,559.85,81.51A11.79,11.79,0,0,0,543.2,81L486,135.09a4.68,4.68,0,0,0-1.42,4.21c5.7,32,28.58,60.54,55.81,79.47,32.94,22.89,72,34.94,109,50.21s74.29,35.4,96.52,68.78c21,31.5,25.95,70.58,36.61,106.89a206.91,206.91,0,0,0,10.79,28.87A4.72,4.72,0,0,0,800.9,475l60.58-57.28A11.77,11.77,0,0,0,862,401.06Z"/><path class="cls-4" d="M555.39,174.52c-2.73,2.58-6.36,1.91-10.29-2.25l-7.73-8.17,15.8-14.94,7.31,7.72c3.73,4,4,7.54,1.54,9.87a5.24,5.24,0,0,1-5.46,1.19A5.38,5.38,0,0,1,555.39,174.52Zm-1.53-19.12-3.73,3.52,3.44,3.63c1.69,1.79,3.24,2.16,4.48,1s.93-2.73-.75-4.51Zm-1.57,15.07c1.33-1.25,1-2.87-.79-4.77l-4-4.26-3.91,3.69,4,4.27C549.39,171.29,550.94,171.75,552.29,170.47Z"/><path class="cls-4" d="M566.92,188.57,560,181.23l-4.71,1.8-3.55-3.75,22.47-7.9L577.6,175l-9.12,22-3.63-3.84Zm1.68-3.78,3.69-8.23-8.42,3.22Z"/><path class="cls-4" d="M599.53,198.19l-15.8,14.94-2.84-3L583,193.18l-9.6,9.07L570,198.64l15.81-14.94,2.86,3-2.17,16.93,9.6-9.07Z"/><path class="cls-4" d="M598.91,216.76l-4.22,0-4,3.77-3.44-3.63,15.8-14.94,3.44,3.63-7.38,7,14,0,3.84,4.06-13.24.12L601.52,232l-4-4.27Z"/><path class="cls-4" d="M486.87,233.69l-2.74-2.91-3.81,3.61-1.41-1.49,3.81-3.61L475,221.11l1.08-1,16.88-1.41,1.57,1.66-16.38,1.44,6,6.3,3.35-3.17,1.37,1.45-3.35,3.17,2.74,2.9Z"/><path class="cls-4" d="M497.3,244c-2.43,2.29-6,2.29-9.27-1.21a10.4,10.4,0,0,1-3.07-7l1.87-.39a8.71,8.71,0,0,0,2.57,6.08c2.27,2.41,4.64,2.68,6.45,1s1.72-3.95-.83-6.64l-1-1,1.1-1L504,233l-7-7.42,1.32-1.26,8.82,9.33-1.06,1-9,.77C499.79,238.71,499.62,241.81,497.3,244Z"/><path class="cls-4" d="M508.49,255.64c-2.47,2.33-6,2.43-9.37-1.12a10.28,10.28,0,0,1-3.05-7l1.87-.39a8.57,8.57,0,0,0,2.53,6c2.33,2.47,4.76,2.64,6.53,1s1.93-4-1.56-7.71l-2.92-3.09,8-6.13,7.5,7.94-1.32,1.25-6.27-6.63-5.1,3.87,1.77,1.87C511.21,249.92,511.06,253.21,508.49,255.64Z"/><path class="cls-4" d="M520.64,268.36c-2.72,2.57-6.48,2.08-9.14-.74-3.64-3.85-2.95-8.47,1.63-12.8,4.93-4.67,10-4.4,13.77-.47a9.23,9.23,0,0,1,2.47,4.19l-1.77.53a7,7,0,0,0-2-3.46c-3-3.13-6.86-3.24-10.8.48-.33.32-.73.73-1.12,1.18,2.28-.78,4.78.08,6.68,2.09C523.09,262.24,523.29,265.85,520.64,268.36Zm-1.44-1.43c1.91-1.8,1.8-4.37-.31-6.61s-4.9-2.43-6.7-.73c-1.6,1.51-1.86,4.27.51,6.77C514.68,268.46,517.28,268.75,519.2,266.93Z"/><path class="cls-4" d="M545.94,303.81l1.29-7.78-7.85.83-1.57-1.65,9.67-1,1.43-9.12,1.57,1.66-1.18,7.31,7.37-.77,1.53,1.62-9.19.91-1.48,9.65Z"/><path class="cls-4" d="M556.41,314.87l1.28-7.77-7.85.83-1.56-1.66,9.67-1,1.42-9.12,1.57,1.66-1.17,7.31,7.36-.76,1.53,1.62-9.19.91L558,316.55Z"/><path class="cls-4" d="M566.87,325.94l1.28-7.77-7.85.83-1.56-1.66,9.67-1,1.42-9.12,1.57,1.66-1.17,7.31,7.36-.76,1.53,1.61-9.19.91-1.48,9.65Z"/><path class="cls-4" d="M577.33,337l1.29-7.77-7.85.83-1.57-1.66,9.67-1,1.42-9.12,1.57,1.66-1.17,7.31,7.36-.76,1.53,1.62-9.18.91-1.48,9.64Z"/><path class="cls-4" d="M613.45,375.21l1.29-7.77-7.85.83-1.57-1.66,9.67-1,1.43-9.12,1.57,1.66-1.18,7.31,7.37-.76,1.52,1.62-9.18.91L615,376.89Z"/><path class="cls-4" d="M623.91,386.28l1.29-7.77-7.85.83-1.57-1.66,9.67-1,1.43-9.12,1.57,1.66-1.18,7.31,7.37-.76,1.53,1.61-9.19.91L625.5,388Z"/><path class="cls-4" d="M634.37,397.34l1.29-7.77-7.85.83-1.57-1.66,9.68-1,1.42-9.12,1.57,1.65-1.18,7.31,7.37-.76,1.53,1.62-9.19.91L636,399Z"/><path class="cls-4" d="M644.83,408.41l1.29-7.77-7.85.83-1.57-1.66,9.68-1,1.42-9.12,1.57,1.66-1.18,7.31,7.37-.76,1.53,1.61-9.19.91-1.48,9.65Z"/><path class="cls-4" d="M691.78,429l-14.5,13.71-1.41-1.49,13.18-12.46-3.24-3.42,1.33-1.25Z"/><path class="cls-4" d="M693.78,451.84c-2.42,2.29-5.95,2.29-9.26-1.21a10.39,10.39,0,0,1-3.08-7l1.87-.4a8.74,8.74,0,0,0,2.58,6.09c2.27,2.4,4.64,2.67,6.44,1s1.73-3.95-.82-6.65l-1-1,1.1-1,8.84-.74-7-7.42,1.33-1.25,8.82,9.32-1.06,1-9,.78C696.27,446.54,696.1,449.65,693.78,451.84Z"/><path class="cls-4" d="M707.07,466.59l-2.75-2.9-3.81,3.61-1.41-1.49,3.81-3.61L695.17,454l1.08-1,16.89-1.41,1.56,1.66-16.38,1.44,6,6.3,3.36-3.17,1.37,1.45-3.36,3.17,2.74,2.9Z"/><path class="cls-4" d="M715.16,480.14l-1.33,1.25-9.62-10.18,1.06-1,11.61.44c3.16.11,4.43-.5,5.42-1.44,1.68-1.59,1.6-3.75-.49-6a6.77,6.77,0,0,0-5.36-2.43l-.09-1.92a9,9,0,0,1,6.93,3.18c2.78,2.94,3.05,6.22.63,8.51-1.39,1.31-3,2-6.79,1.91l-9.51-.35Z"/><path class="cls-4" d="M434,245.72a4.88,4.88,0,0,1,7.13.37,5,5,0,0,1,1.47,4l-1.93-.13a3.06,3.06,0,0,0-.83-2.51,3,3,0,1,0-4.43,4.19,3,3,0,0,0,2.47,1l0,1.93a5.23,5.23,0,0,1-3.9-8.82Z"/><path class="cls-4" d="M443.48,259.7l-3-3.21-2.07.79-1.55-1.64,9.84-3.46,1.5,1.58-4,9.64-1.59-1.68Zm.74-1.65,1.62-3.6-3.69,1.4Z"/><path class="cls-4" d="M449,268.54l.67-3.16-.08-.08-1.32-1.39-1.92,1.82-1.52-1.6,6.92-6.54,2.84,3c1.74,1.85,1.88,3.92.33,5.38a3.11,3.11,0,0,1-3.54.65l-.75,3.65Zm4.2-6.81L452,260.42l-2.41,2.28,1.23,1.31c.93,1,1.85,1.05,2.6.33S454.15,262.71,453.23,261.73Z"/><path class="cls-4" d="M451.91,270.22l1.72-.59a5.66,5.66,0,0,0,1.44,3c.9.94,1.58,1,2,.63,1.3-1.23-3.39-4.41-.82-6.84,1.17-1.11,3.05-1.09,4.91.88a6.42,6.42,0,0,1,1.66,3l-1.68.66a5.62,5.62,0,0,0-1.27-2.44c-.9-1-1.6-1-2-.56-1.27,1.2,3.41,4.4.87,6.8-1.16,1.09-3.05,1.07-4.92-.91A6.82,6.82,0,0,1,451.91,270.22Z"/><path class="cls-4" d="M473.29,280.34l-6.92,6.54-1.51-1.6,2.83-2.68-3-3.15-2.84,2.69-1.51-1.61,6.92-6.54,1.51,1.6-2.73,2.58,3,3.15,2.73-2.58Z"/><path class="cls-4" d="M471,284.83a5.22,5.22,0,1,1,0,7.17A4.93,4.93,0,0,1,471,284.83Zm5.63,5.95a3,3,0,1,0-4.26-.07A2.9,2.9,0,0,0,476.61,290.78Z"/><path class="cls-4" d="M482.76,290.35l1.51,1.6-5.61,5.31,3.28,3.48L480.63,302l-4.79-5.07Z"/><path class="cls-4" d="M488.42,296.34l3,3.14c2.14,2.27,2.24,5.11.15,7.09s-4.93,1.72-7.07-.55l-3-3.14Zm-2.71,8.36a3,3,0,1,0,4.29-4.06l-1.39-1.46-4.29,4.06Z"/><path class="cls-4" d="M495.58,315.2l-1.29,1.22-5.06-5.36,6.92-6.54,5,5.23L499.81,311l-3.44-3.64-1.5,1.42,3,3.22-1.24,1.18-3-3.22-1.6,1.52Z"/><path class="cls-4" d="M499.68,322.11l.66-3.15-.07-.08-1.32-1.4L497,319.31l-1.51-1.6,6.92-6.55,2.83,3c1.75,1.85,1.89,3.91.33,5.38a3.1,3.1,0,0,1-3.53.64l-.75,3.66Zm4.19-6.81-1.23-1.3-2.41,2.28,1.23,1.3c.93,1,1.85,1.05,2.6.34S504.8,316.28,503.87,315.3Z"/><path class="cls-4" d="M406.3,270.6l3.68-.23a4.23,4.23,0,0,0,.87,3.87c1.17,1.23,2.53,1.18,4-.21l6.34-6-4.43-4.69,2.48-2.34,7.33,7.75-8.65,8.18c-3.3,3.11-6.49,3-9.46-.16A7.38,7.38,0,0,1,406.3,270.6Z"/><path class="cls-4" d="M416.81,281.72a2.54,2.54,0,0,1,3.49,3.7,2.54,2.54,0,1,1-3.49-3.7Z"/><path class="cls-4" d="M452.4,296.08l-17.46,8.25L431.8,301l6.26-11.47-11.89,5.51-3.12-3.29,9.19-17,3,3.2-6.53,11.87,12.35-5.72,2.7,2.86-6.57,12,12.39-5.83Z"/><path class="cls-4" d="M453.64,297.4a2.34,2.34,0,0,1,3.41.28,2.29,2.29,0,0,1,.14,3.36,2.55,2.55,0,0,1-3.55-3.64Zm-2.74,3.28,2.81,3-10.25,9.69-2.81-3Z"/><path class="cls-4" d="M460.2,302.74l2.81,3-14.14,13.36-2.81-3Z"/><path class="cls-4" d="M465.62,308.46l2.81,3L454.29,324.8l-2.81-3Z"/><path class="cls-4" d="M469.89,314.59a2.32,2.32,0,0,1,3.4.28,2.29,2.29,0,0,1,.15,3.36,2.55,2.55,0,0,1-3.55-3.64Zm-2.74,3.28,2.81,3-10.25,9.69-2.81-3Z"/><path class="cls-4" d="M476.73,336.82l-5.84,5.53-2.64-2.78,1.28-1.21c-1.45.33-3-.27-4.38-1.77-2.27-2.4-2.29-5.09-.52-6.76s4.28-1.63,7.23,1.5l2.24,2.36c1.27-1.21,1.29-2.67-.22-4.27a6.7,6.7,0,0,0-3.74-2.05l1.07-3a10.83,10.83,0,0,1,5.41,3.24C479.58,330.71,479.84,333.89,476.73,336.82Zm-5.42-.5,1.05-1-1.93-2c-1.31-1.39-2.24-1.34-2.93-.7s-.64,1.81.35,2.85A3,3,0,0,0,471.31,336.32Z"/><path class="cls-4" d="M495.65,356.8l-5.87,5.54-2.8-3,5.41-5.11c1.65-1.57,1.71-3,.58-4.23s-3-1.46-4.83.27L483,355.16l-2.81-3,5.42-5.12c1.65-1.56,1.75-3,.58-4.23s-3-1.43-4.81.3L476.22,348l-2.81-3,10.25-9.69,2.69,2.83-1.19,1.12a5.75,5.75,0,0,1,4.38,2,5.27,5.27,0,0,1,1.51,5,6.36,6.36,0,0,1,5.18,2.11C498.53,350.76,498.78,353.84,495.65,356.8Z"/><path class="cls-4" d="M492.31,363.1l3.07-1a9.61,9.61,0,0,0,2.37,4.5c1.3,1.37,2.15,1.54,2.72,1,1.68-1.59-5.89-6.16-1.8-10,1.95-1.84,5-1.38,7.8,1.61a11.59,11.59,0,0,1,2.84,4.79l-3.06,1a8.05,8.05,0,0,0-2-3.67c-1.26-1.34-2.23-1.51-2.76-1-1.75,1.66,5.8,6.25,1.76,10.07-1.91,1.8-4.93,1.3-7.83-1.77A12,12,0,0,1,492.31,363.1Z"/><path class="cls-4" d="M610.65,477.64c4.4-4.16,9.2-4.08,12.3-.8s2.91,8.07-1.49,12.23-9.19,4.1-12.3.81S606.25,481.8,610.65,477.64Zm7.87,8.33c3-2.87,3.28-5.12,1.82-6.66s-3.71-1.41-6.74,1.46-3.27,5.12-1.83,6.64S615.49,488.83,618.52,486Z"/><path class="cls-4" d="M630.82,503.9c-2.72,2.58-6.54,2-9.21-.85-3.47-3.68-3.33-8.14,1-12.21,4.61-4.36,9.82-4,13.62,0a9.91,9.91,0,0,1,2.59,4.58l-3.34,1a6.09,6.09,0,0,0-1.7-3.13c-2.1-2.23-4.77-2.41-7.41-.09a6.15,6.15,0,0,1,4.29,2.17C633.07,498,633.34,501.53,630.82,503.9Zm-3-2.85c1.22-1.15,1.15-2.78-.14-4.15s-3-1.52-4.18-.42-1.17,2.73.23,4.22C625,502,626.62,502.21,627.84,501.05Z"/><path class="cls-4" d="M648.53,498.93l2.51,2.65-23.9,10.68-2.5-2.64Z"/><path class="cls-4" d="M646.83,524.23l-2.51,2.38-9.53-10.08,2-1.89,9.72.55c2.24.12,3.13-.32,3.77-.93,1.05-1,1-2.29-.36-3.7a4.48,4.48,0,0,0-3.94-1.5l-.68-3.62a8.54,8.54,0,0,1,7.48,2.95c2.82,3,3.16,6.4.74,8.69-1.29,1.22-2.82,2-6.31,1.75l-5.8-.33Z"/><path class="cls-4" d="M659.68,537.25l-2-2.17-2.8,2.65-2.85-3,2.8-2.65L648,524.89l2.08-2,14.4-1.71,3.06,3.24L654,526.2l3.38,3.58,2.5-2.36,2.76,2.92-2.5,2.36,2.05,2.17Z"/><path class="cls-6" d="M722.25,372.28c7.51-11.56,4.57-26.93-5.53-36.32a35.74,35.74,0,0,0-10.51-6.9c-9.65-4-22.43-1.09-27.5,8.06-4.14,7.47-2.46,16.79.43,24.82,3,8.42,8,17,16.27,20.29,8,3.15,17.66.26,23.65-5.93A26.7,26.7,0,0,0,722.25,372.28Z"/><rect class="cls-6" x="364.9" y="377.05" width="575.59" height="417.74" rx="34.54"/><path class="cls-3" d="M940.49,411.59s0-.42-.09-1.25a27.39,27.39,0,0,0-.36-3.69A33.85,33.85,0,0,0,935,393.11a35.44,35.44,0,0,0-7.06-8,34.89,34.89,0,0,0-11.27-6.18c-1.11-.39-2.28-.61-3.45-.93s-2.41-.39-3.65-.59l-3.84-.18h-4l-17.26,0-206.52.16-142.61.07-79.45,0H403.76c-3.54,0-7.07-.13-10.51.59A33.54,33.54,0,0,0,374.91,388a32.9,32.9,0,0,0-6.08,8.73,32.12,32.12,0,0,0-3.1,10.25,87.25,87.25,0,0,0-.35,10.89c0,3.67,0,7.34,0,11v44.78q0,45.26,0,92.34c0,62.72,0,127.66,0,194.18a34.33,34.33,0,0,0,8.44,22.44,33.63,33.63,0,0,0,21,11.29,105.31,105.31,0,0,0,12.21.35H539.39l180.91,0,163.7,0h19.06a47,47,0,0,0,9.29-.62,33.84,33.84,0,0,0,8.69-2.92,38,38,0,0,0,4-2.27,38.68,38.68,0,0,0,3.57-2.81,34.14,34.14,0,0,0,5.91-6.8,33.8,33.8,0,0,0,5.5-16.72c.21-23.75.08-46.62.14-68.41.06-87.18.12-157.74.16-206.51,0-24.37.07-43.3.1-56.14,0-6.41,0-11.3.05-14.6s0-5,0-5,0,1.69,0,5,0,8.19.05,14.6c0,12.84.06,31.77.1,56.14,0,48.77.1,119.33.16,206.51,0,21.81.13,44.62-.06,68.46a34.6,34.6,0,0,1-11.67,24.08,39.25,39.25,0,0,1-3.65,2.89,40.71,40.71,0,0,1-4.07,2.32,34.09,34.09,0,0,1-8.9,3,47.44,47.44,0,0,1-9.44.64H884l-163.7,0-180.91,0H407.05A106.59,106.59,0,0,1,394.7,795a34.64,34.64,0,0,1-21.61-11.63,35.29,35.29,0,0,1-8.7-23.12c0-66.52,0-131.46,0-194.18q0-47.06,0-92.34,0-22.64,0-44.78v-11a86.47,86.47,0,0,1,.36-11A33.1,33.1,0,0,1,368,396.31a33.92,33.92,0,0,1,6.25-9,34.61,34.61,0,0,1,18.86-10.16l2.67-.4,2.69-.15c1.8-.1,3.55,0,5.32-.05h52.12l79.45,0,142.61.06,206.52.17,17.26,0h4l3.87.19c1.25.21,2.49.35,3.69.61s2.36.56,3.47.95a34.9,34.9,0,0,1,11.34,6.27,35.63,35.63,0,0,1,7.08,8.1,33.86,33.86,0,0,1,5,13.63,25.65,25.65,0,0,1,.3,3.71C940.49,411.17,940.49,411.59,940.49,411.59Z"/><path class="cls-3" d="M920.32,402.8c0-.28,2.67-.51,5.95-.51s5.94.23,5.94.51-2.66.52-5.94.52S920.32,403.09,920.32,402.8Z"/><path class="cls-3" d="M871.85,402.8c0-.28,5.42-.51,12.12-.51s12.12.23,12.12.51-5.43.52-12.12.52S871.85,403.09,871.85,402.8Z"/><path class="cls-3" d="M823.37,402.8c0-.28,5.43-.51,12.12-.51s12.12.23,12.12.51-5.43.52-12.12.52S823.37,403.09,823.37,402.8Z"/><path class="cls-3" d="M774.89,402.8c0-.28,5.43-.51,12.12-.51s12.12.23,12.12.51-5.42.52-12.12.52S774.89,403.09,774.89,402.8Z"/><path class="cls-3" d="M726.42,402.8c0-.28,5.42-.51,12.12-.51s12.12.23,12.12.51-5.43.52-12.12.52S726.42,403.09,726.42,402.8Z"/><path class="cls-3" d="M677.94,402.8c0-.28,5.43-.51,12.12-.51s12.12.23,12.12.51-5.43.52-12.12.52S677.94,403.09,677.94,402.8Z"/><path class="cls-3" d="M629.46,402.8c0-.28,5.43-.51,12.12-.51s12.12.23,12.12.51-5.42.52-12.12.52S629.46,403.09,629.46,402.8Z"/><path class="cls-3" d="M581,402.8c0-.28,5.42-.51,12.12-.51s12.11.23,12.11.51-5.42.52-12.11.52S581,403.09,581,402.8Z"/><path class="cls-3" d="M532.51,402.8c0-.28,5.43-.51,12.12-.51s12.12.23,12.12.51-5.43.52-12.12.52S532.51,403.09,532.51,402.8Z"/><path class="cls-3" d="M484,402.8c0-.28,5.43-.51,12.12-.51s12.12.23,12.12.51-5.42.52-12.12.52S484,403.09,484,402.8Z"/><path class="cls-3" d="M435.56,402.8c0-.28,5.42-.51,12.11-.51s12.12.23,12.12.51-5.42.52-12.12.52S435.56,403.09,435.56,402.8Z"/><path class="cls-3" d="M399.43,414.69c-.28,0-.51-5.32-.51-11.89,1-1,.29-.28.52-.51h2.39l2.23,0,3.78.11c2.15.09,3.48.22,3.48.36s-1.33.28-3.48.37l-3.78.11-2.23,0h-2.39c.23-.23-.52.51.51-.52C400,409.37,399.72,414.69,399.43,414.69Z"/><path class="cls-3" d="M399.43,459.11c-.28,0-.51-5-.51-11.1s.23-11.11.51-11.11.52,5,.52,11.11S399.72,459.11,399.43,459.11Z"/><path class="cls-3" d="M399.43,503.53c-.28,0-.51-5-.51-11.1s.23-11.11.51-11.11.52,5,.52,11.11S399.72,503.53,399.43,503.53Z"/><path class="cls-3" d="M399.43,548c-.28,0-.51-5-.51-11.11s.23-11.11.51-11.11.52,5,.52,11.11S399.72,548,399.43,548Z"/><path class="cls-3" d="M399.43,592.38c-.28,0-.51-5-.51-11.11s.23-11.1.51-11.1.52,5,.52,11.1S399.72,592.38,399.43,592.38Z"/><path class="cls-3" d="M399.43,636.8c-.28,0-.51-5-.51-11.1s.23-11.11.51-11.11.52,5,.52,11.11S399.72,636.8,399.43,636.8Z"/><path class="cls-3" d="M399.43,681.22c-.28,0-.51-5-.51-11.1s.23-11.11.51-11.11.52,5,.52,11.11S399.72,681.22,399.43,681.22Z"/><path class="cls-3" d="M399.43,725.65c-.28,0-.51-5-.51-11.11s.23-11.1.51-11.1.52,5,.52,11.1S399.72,725.65,399.43,725.65Z"/><path class="cls-3" d="M411.32,759.74c0,.29-5.32.52-11.89.52-1-1-.28-.29-.51-.52h0v-1.19c0-.4,0-.79,0-1.18,0-.76,0-1.5,0-2.23,0-1.3.07-2.56.11-3.78.09-2.15.22-3.48.36-3.48s.27,1.33.37,3.48c0,1.22.07,2.48.11,3.78,0,.73,0,1.47,0,2.23,0,.39,0,.78,0,1.18v1.19h0c-.23-.23.51.52-.52-.51C406,759.23,411.32,759.46,411.32,759.74Z"/><path class="cls-3" d="M459.09,759.74c0,.29-5.35.52-11.94.52s-11.95-.23-11.95-.52,5.35-.51,11.95-.51S459.09,759.46,459.09,759.74Z"/><path class="cls-3" d="M506.87,759.74c0,.29-5.35.52-11.95.52S483,760,483,759.74s5.35-.51,11.94-.51S506.87,759.46,506.87,759.74Z"/><path class="cls-3" d="M554.64,759.74c0,.29-5.35.52-11.94.52s-12-.23-12-.52,5.35-.51,12-.51S554.64,759.46,554.64,759.74Z"/><path class="cls-3" d="M602.42,759.74c0,.29-5.35.52-11.95.52s-11.94-.23-11.94-.52,5.35-.51,11.94-.51S602.42,759.46,602.42,759.74Z"/><path class="cls-3" d="M650.19,759.74c0,.29-5.35.52-11.94.52s-12-.23-12-.52,5.35-.51,12-.51S650.19,759.46,650.19,759.74Z"/><path class="cls-3" d="M698,759.74c0,.29-5.35.52-12,.52s-11.94-.23-11.94-.52,5.35-.51,11.94-.51S698,759.46,698,759.74Z"/><path class="cls-3" d="M745.74,759.74c0,.29-5.35.52-11.94.52s-11.95-.23-11.95-.52,5.35-.51,11.95-.51S745.74,759.46,745.74,759.74Z"/><path class="cls-3" d="M793.52,759.74c0,.29-5.35.52-11.95.52s-11.94-.23-11.94-.52,5.35-.51,11.94-.51S793.52,759.46,793.52,759.74Z"/><path class="cls-3" d="M841.29,759.74c0,.29-5.35.52-11.94.52s-12-.23-12-.52,5.35-.51,12-.51S841.29,759.46,841.29,759.74Z"/><path class="cls-3" d="M889.07,759.74c0,.29-5.35.52-12,.52s-11.94-.23-11.94-.52,5.35-.51,11.94-.51S889.07,759.46,889.07,759.74Z"/><path class="cls-3" d="M924.84,759.74c0,.29-2.66.52-5.94.52S913,760,913,759.74s2.66-.51,5.95-.51S924.84,759.46,924.84,759.74Z"/><g class="cls-8"><path d="M563.51,608.74s.13,19.81-5.86,31.79-8,16.58-20.59,21.19S364.9,683.83,364.9,683.83v-53.9Z"/></g><g class="cls-8"><path d="M560.65,534.07s1.83-20.21-48.9-27.72c-58-8.58-146.85-19.12-146.85-19.12v38.24Z"/></g><rect class="cls-6" x="341.82" y="515.73" width="221.7" height="130.56" rx="28.35"/><path class="cls-3" d="M370.17,646.28s-.57,0-1.69,0a24.45,24.45,0,0,1-4.93-.67,28.23,28.23,0,0,1-15.89-10.12A28.31,28.31,0,0,1,342,622.89a41.69,41.69,0,0,1-.48-7.91c0-2.73,0-5.58,0-8.52,0-11.79,0-25.21-.08-40,0-7.43-.07-15.18,0-23.3a28.61,28.61,0,0,1,11.37-22,28.19,28.19,0,0,1,12.25-5.38,35.83,35.83,0,0,1,6.86-.48h6.92l28.66,0,127.62,0a32.42,32.42,0,0,1,8.49,1.27,28.77,28.77,0,0,1,13.94,9.43,30.46,30.46,0,0,1,4.29,7.24,30.89,30.89,0,0,1,2,8.11c.21,2.8.13,5.51.14,8.22v16.15q0,16,0,31.43,0,7.7,0,15.24c0,2.52.09,5-.1,7.52a26.83,26.83,0,0,1-1.45,7.35,28.87,28.87,0,0,1-20.64,18.77,31.91,31.91,0,0,1-3.47.61c-1.17.1-2.34.15-3.49.18H528l-13.3,0-48.53-.06-70.27-.16-19.1-.1-5,0c-1.12,0-1.69-.06-1.69-.06s.57,0,1.69,0l5-.05,19.1-.1,70.27-.16,48.53-.06,13.3,0c4.51-.11,9.13.38,13.57-.79a27.92,27.92,0,0,0,19.95-18.18c1.72-4.57,1.48-9.55,1.48-14.57s0-10.11,0-15.24q0-15.4,0-31.43,0-8,0-16.15c0-2.7.06-5.46-.14-8.12a27.77,27.77,0,0,0-6.08-14.8,30.2,30.2,0,0,0-6-5.54,30.53,30.53,0,0,0-7.42-3.55,31,31,0,0,0-8.19-1.23l-127.62,0-28.66,0H372a34.68,34.68,0,0,0-6.71.45,27.38,27.38,0,0,0-11.88,5.19,27.84,27.84,0,0,0-11.1,21.33c-.1,8.06,0,15.86-.08,23.27,0,14.83-.05,28.25-.07,40,0,2.94,0,5.79,0,8.52a41.48,41.48,0,0,0,.42,7.83,28.22,28.22,0,0,0,21.09,22.57,26.61,26.61,0,0,0,4.88.77C369.6,646.22,370.17,646.28,370.17,646.28Z"/><circle class="cls-3" cx="496.73" cy="585.92" r="47.46"/><path class="cls-9" d="M508.9,624.69c-.12-.26,4.88-1.26,11.31-5.93a40.53,40.53,0,0,0,9.59-9.89,37.11,37.11,0,0,0,5.13-32.28,40.72,40.72,0,0,0-6-12.38c-4.66-6.42-9.11-8.93-8.92-9.14a2.78,2.78,0,0,1,.78.44,23.83,23.83,0,0,1,2.11,1.49,35.92,35.92,0,0,1,6.62,6.78,40.09,40.09,0,0,1,6.37,12.54,37.34,37.34,0,0,1-5.26,33.09,39.93,39.93,0,0,1-9.94,9.94,35.57,35.57,0,0,1-8.4,4.4,22.21,22.21,0,0,1-2.46.76A3.21,3.21,0,0,1,508.9,624.69Z"/><path class="cls-6" d="M1239.66,281.74a87.67,87.67,0,1,1-95.11-79.31A87.57,87.57,0,0,1,1239.66,281.74Z"/><g class="cls-8"><path d="M1218.68,281.51c-.4.05-.94-2.84-2.47-7.84a70.9,70.9,0,0,0-9.5-19.71,68.86,68.86,0,0,0-9.89-11.31,66.89,66.89,0,0,0-14.08-9.81,65.59,65.59,0,0,0-17.85-6.22,63.52,63.52,0,0,0-9.94-1.13,71.4,71.4,0,0,0-10.3.42,72.39,72.39,0,0,0-10.11,2.05,64,64,0,0,0-9.39,3.47,65.89,65.89,0,0,0-15.85,10.31A67.12,67.12,0,0,0,1098,254.63a68.63,68.63,0,0,0-6.91,13.34,71,71,0,0,0-4.51,21.4c-.28,5.22-.12,8.17-.52,8.21s-1.14-2.83-1.47-8.21a61.94,61.94,0,0,1,3.09-22.6,66.93,66.93,0,0,1,18.49-28.53,64.26,64.26,0,0,1,7.82-6.18,65,65,0,0,1,9.06-5.16,67,67,0,0,1,10.1-3.83,74.91,74.91,0,0,1,10.9-2.23,73,73,0,0,1,11.12-.43,67.4,67.4,0,0,1,10.72,1.3,68.15,68.15,0,0,1,19.1,7A67,67,0,0,1,1209.74,252a62.09,62.09,0,0,1,8.41,21.22C1219.11,278.49,1219,281.48,1218.68,281.51Z"/></g><g class="cls-8"><path d="M1163.42,328.56l1.21,11.58-10.34,1.07L1153.12,330c-10.3.44-20.45-1.74-26.59-5.59l4.37-13.2a41.94,41.94,0,0,0,20.81,5.25l-1.79-17.26c-11.77-1.59-25-4.09-26.52-18.87-1.13-10.95,5.84-21.18,22-24.74l-1.19-11.47,10.33-1.08,1.17,11.27c7.82-.19,15.58,1.09,21.64,4.12l-3.85,13.25a42.44,42.44,0,0,0-16.37-3.73l1.83,17.57c11.75,1.49,24.76,4,26.27,18.58C1186.33,314.8,1179.44,324.91,1163.42,328.56ZM1148.34,284l-1.53-14.68c-5.35,1.81-7.21,5-6.85,8.45C1140.33,281.34,1143.64,283,1148.34,284ZM1168.7,307c-.37-3.62-3.57-5.27-8.18-6.36l1.48,14.26C1167.05,313.25,1169.05,310.33,1168.7,307Z"/></g><path class="cls-3" d="M1085.82,295.67a2.64,2.64,0,0,1,.12.53c.08.41.17.92.28,1.56s.25,1.56.41,2.55a26.77,26.77,0,0,0,.69,3.44,67.16,67.16,0,0,0,8.5,20.56,69.12,69.12,0,0,0,9.56,12l3.12,2.84c.54.47,1,1,1.62,1.44l1.76,1.31c1.2.86,2.35,1.83,3.63,2.64l3.93,2.4a68,68,0,0,0,18.13,7,66.13,66.13,0,0,0,41-3.78A67.86,67.86,0,0,0,1195.17,340l3.43-3.07c1.11-1,2.07-2.19,3.09-3.26.5-.54,1-1.08,1.49-1.61s.88-1.15,1.32-1.71l2.56-3.36a69.33,69.33,0,0,0,7.2-13.59,67.13,67.13,0,0,0,4.61-21.76,26.15,26.15,0,0,0,0-3.51c0-1,0-1.86-.05-2.58s0-1.17,0-1.59a1.85,1.85,0,0,1,0-.54,2.26,2.26,0,0,1,.08.53c0,.42.07.94.11,1.59s.1,1.58.16,2.58a25.2,25.2,0,0,1,0,3.53,65.3,65.3,0,0,1-4.33,22,69,69,0,0,1-7.17,13.81l-2.57,3.43c-.45.57-.86,1.18-1.34,1.73l-1.5,1.65c-1,1.08-2,2.26-3.11,3.31l-3.47,3.14A68.22,68.22,0,0,1,1179,351.17a66.84,66.84,0,0,1-41.67,3.83,68.1,68.1,0,0,1-18.38-7.19l-4-2.45c-1.29-.84-2.46-1.82-3.66-2.7l-1.78-1.34c-.57-.46-1.09-1-1.63-1.46-1.06-1-2.11-1.95-3.15-2.9a69.31,69.31,0,0,1-9.57-12.27,65,65,0,0,1-8.27-20.85,23.14,23.14,0,0,1-.6-3.48c-.12-1-.23-1.85-.32-2.57s-.12-1.17-.17-1.58A2,2,0,0,1,1085.82,295.67Z"/><path class="cls-6" d="M1116.12,540.24a50.94,50.94,0,1,1-23.83-67.9A50.88,50.88,0,0,1,1116.12,540.24Z"/><g class="cls-8"><path d="M1105.72,533.87c-.22-.09.37-1.7,1.1-4.65a40.88,40.88,0,0,0,1.13-12.66,39.7,39.7,0,0,0-1.56-8.58,38.85,38.85,0,0,0-4.1-9.09,38.19,38.19,0,0,0-7-8.42,37.15,37.15,0,0,0-4.63-3.53,37.52,37.52,0,0,0-10.92-4.85A37.16,37.16,0,0,0,1074,481a35.49,35.49,0,0,0-5.62-.19,35.87,35.87,0,0,0-5.36.61,38.4,38.4,0,0,0-9.49,3.06,39.58,39.58,0,0,0-7.42,4.6,41,41,0,0,0-8.62,9.33c-1.7,2.52-2.5,4-2.71,3.94s.27-1.75,1.71-4.54a35.9,35.9,0,0,1,8.28-10.35,38.84,38.84,0,0,1,17.72-8.73,38.15,38.15,0,0,1,5.74-.75,37.33,37.33,0,0,1,6.06.12,39.71,39.71,0,0,1,6.18,1.1,42.54,42.54,0,0,1,6.1,2.14,43.49,43.49,0,0,1,5.67,3.09,39.61,39.61,0,0,1,5,3.85,39,39,0,0,1,4.15,4.4,38,38,0,0,1,3.3,4.77,39,39,0,0,1,5.42,19,36,36,0,0,1-2.13,13.09C1106.83,532.5,1105.88,534,1105.72,533.87Z"/></g><g class="cls-8"><path d="M1064.13,540.89l-2.84,6.13-5.48-2.54,2.77-6c-5.27-2.85-9.68-7-11.6-10.71l6.11-5.29a24.42,24.42,0,0,0,8.82,8.82l4.25-9.14c-5.39-4.3-11.24-9.48-7.61-17.31,2.7-5.81,9.23-8.83,18.34-5.8l2.82-6.08,5.47,2.54-2.77,6A27.35,27.35,0,0,1,1092,510l-5.87,5.47a24.76,24.76,0,0,0-7-6.74l-4.32,9.31c5.41,4.25,11.15,9.38,7.57,17.09C1079.66,540.84,1073.21,543.84,1064.13,540.89Zm5.77-26.75,3.6-7.78c-3.2-.69-5.09.37-5.93,2.17S1067.84,512.26,1069.9,514.14Zm3.29,17.57c.89-1.92-.22-3.69-2.19-5.61l-3.51,7.56C1070.51,534.33,1072.37,533.46,1073.19,531.71Z"/></g><path class="cls-3" d="M1035.22,501.36c.1,0-.61,1.6-1.58,4.5a39.4,39.4,0,0,0-1.81,12.76,37.91,37.91,0,0,0,5.05,18.25,39.26,39.26,0,0,0,6.92,8.86A38.24,38.24,0,0,0,1065.29,556a39.38,39.38,0,0,0,11.24-.16,38,38,0,0,0,17.39-7.51,39.54,39.54,0,0,0,8.8-9.41c1.65-2.57,2.43-4.1,2.52-4.05a5.9,5.9,0,0,1-.5,1.13,29.34,29.34,0,0,1-1.68,3.14,37.49,37.49,0,0,1-8.7,9.76,40,40,0,0,1-7.71,4.8,41.39,41.39,0,0,1-10,3.08,39.83,39.83,0,0,1-11.52.22,38.89,38.89,0,0,1-22.06-10.56,39.83,39.83,0,0,1-7-9.12,41.78,41.78,0,0,1-3.85-9.69,40.25,40.25,0,0,1-1.1-9,37.3,37.3,0,0,1,2.16-12.89,32.61,32.61,0,0,1,1.38-3.28A5.47,5.47,0,0,1,1035.22,501.36Z"/><path class="cls-6" d="M275.13,533a83.15,83.15,0,1,1-94.21-70.14A83,83,0,0,1,275.13,533Z"/><g class="cls-8"><path d="M255.25,533.84c-.37.07-1-2.64-2.75-7.3a67.45,67.45,0,0,0-10-18.17,64.55,64.55,0,0,0-9.95-10.18,63.46,63.46,0,0,0-13.85-8.56,59.55,59.55,0,0,0-8.26-3.06,59,59,0,0,0-9-1.9,61.63,61.63,0,0,0-9.47-.56,62.29,62.29,0,0,0-19.2,3.41,61.22,61.22,0,0,0-8.71,3.78,62,62,0,0,0-14.47,10.59,63.25,63.25,0,0,0-10.05,12.8,65,65,0,0,0-5.84,13,67.17,67.17,0,0,0-3.16,20.5c0,5,.31,7.74-.07,7.8s-1.22-2.62-1.81-7.7a58.5,58.5,0,0,1,1.74-21.57,63.59,63.59,0,0,1,16-28,64.56,64.56,0,0,1,15.39-11.62,64.32,64.32,0,0,1,9.37-4.15,68.63,68.63,0,0,1,10.21-2.68,69.57,69.57,0,0,1,10.5-1,63.82,63.82,0,0,1,10.22.68,60.91,60.91,0,0,1,9.64,2.17,61.77,61.77,0,0,1,8.81,3.44,63.47,63.47,0,0,1,24.68,20.76A58.69,58.69,0,0,1,254.31,526C255.5,531,255.53,533.8,255.25,533.84Z"/></g><g class="cls-8"><path d="M205.38,581.29l1.74,10.9-9.73,1.55-1.7-10.6c-9.72,1-19.45-.58-25.47-3.91l3.45-12.73a39.75,39.75,0,0,0,20,3.89l-2.6-16.25c-11.22-.9-23.86-2.57-26.09-16.48-1.65-10.32,4.42-20.37,19.52-24.58l-1.73-10.81,9.73-1.56,1.7,10.61c7.39-.58,14.8.23,20.7,2.78l-2.95,12.75a40.18,40.18,0,0,0-15.7-2.68l2.65,16.54c11.21.8,23.66,2.5,25.85,16.22C226.35,567.05,220.36,577,205.38,581.29Zm-16.62-41.46L186.55,526c-5,2-6.56,5.14-6.05,8.35C181.05,537.78,184.26,539.16,188.76,539.83Zm20.49,20.78c-.54-3.41-3.66-4.8-8.08-5.6l2.15,13.43C208,566.59,209.75,563.72,209.25,560.61Z"/></g><path class="cls-3" d="M130.16,554.19a2.1,2.1,0,0,1,.16.5c.09.38.2.87.34,1.46s.33,1.47.53,2.39a24,24,0,0,0,.83,3.22,63.6,63.6,0,0,0,9.13,19,65.64,65.64,0,0,0,9.68,10.9l3.11,2.53c.53.41,1,.87,1.61,1.27l1.73,1.15c1.18.75,2.32,1.61,3.57,2.31L164.7,601a64.76,64.76,0,0,0,17.53,5.71A62.72,62.72,0,0,0,220.9,601,64.36,64.36,0,0,0,236,590.46q1.56-1.58,3.09-3.09c1-1,1.84-2.19,2.74-3.25l1.33-1.61c.43-.54.78-1.12,1.17-1.68l2.25-3.32a65.38,65.38,0,0,0,6.1-13.24A63.76,63.76,0,0,0,256,543.43a24.13,24.13,0,0,0-.14-3.32c-.07-1-.14-1.76-.19-2.44s-.07-1.11-.09-1.5a1.72,1.72,0,0,1,0-.52,1.64,1.64,0,0,1,.1.5c.06.4.12.89.2,1.49s.17,1.5.28,2.44a21.88,21.88,0,0,1,.24,3.34,62.07,62.07,0,0,1-2.94,21.08A66.32,66.32,0,0,1,247.34,578c-.74,1.11-1.5,2.23-2.26,3.38-.39.56-.75,1.16-1.17,1.71s-.89,1.09-1.34,1.64c-.91,1.08-1.77,2.25-2.77,3.3l-3.12,3.16a65.19,65.19,0,0,1-15.33,10.76,63.43,63.43,0,0,1-39.29,5.81,65,65,0,0,1-17.78-5.86l-3.9-2.12c-1.27-.72-2.42-1.59-3.61-2.36L155,596.2c-.57-.4-1.09-.87-1.63-1.3l-3.13-2.58a66,66,0,0,1-9.71-11.13,61.85,61.85,0,0,1-8.92-19.32,23.33,23.33,0,0,1-.74-3.26c-.17-.94-.31-1.74-.43-2.42s-.18-1.09-.25-1.49A2.43,2.43,0,0,1,130.16,554.19Z"/><path class="cls-3" d="M1321,794.86c0,.28-295.74.51-660.46.51S0,795.14,0,794.86s295.67-.52,660.52-.52S1321,794.57,1321,794.86Z"/><path class="cls-10" d="M1013.05,422.77s-.15-13.18-.71-13.29l-27.09,6c-.28,1.72-3.7,23.34-3.12,25.44l30.48,8.46S1013.05,423.54,1013.05,422.77Z"/><path class="cls-10" d="M1013.08,447.4s.09-.24.13-.6c.31-2.95.12-15.83-1.45-16.38-1.76-.62-6.16.39-6.46,2.09s.73,16.19.73,16.19.3,2.29,4.14,2.84C1012.55,451.88,1013.08,447.4,1013.08,447.4Z"/><path class="cls-10" d="M1005.35,452a1.27,1.27,0,0,0,.14-.59c.31-3,.12-15.84-1.45-16.39-1.76-.61-6.17.39-6.47,2.09s.73,16.2.73,16.2.31,2.28,4.15,2.83C1004.82,456.52,1005.35,452,1005.35,452Z"/><path class="cls-10" d="M997.79,454.34c.05,0,.1-.23.14-.59.31-2.95.12-15.83-1.45-16.38-1.76-.62-6.17.39-6.47,2.08s.73,16.2.73,16.2.31,2.28,4.15,2.84C997.26,458.83,997.79,454.34,997.79,454.34Z"/><path class="cls-10" d="M990.28,456.52c.05,0,.09-.24.13-.6.31-2.95.12-15.83-1.45-16.38-1.76-.62-6.16.39-6.47,2.09s.73,16.19.73,16.19.31,2.28,4.15,2.84C989.74,461,990.28,456.52,990.28,456.52Z"/><path class="cls-11" d="M1005.24,436.28c.22,0,.49,2.82.6,6.26s0,6.23-.2,6.21-.49-2.83-.6-6.27S1005,436.26,1005.24,436.28Z"/><path class="cls-11" d="M997.64,436.23c.23,0,.55,4,.72,8.92s.14,8.93-.08,8.94-.55-4-.73-8.91S997.42,436.24,997.64,436.23Z"/><g class="cls-12"><path class="cls-11" d="M989.93,436.87c.22,0,.54,4,.72,8.92s.13,8.93-.09,8.94-.55-4-.72-8.92S989.7,436.88,989.93,436.87Z"/></g><path class="cls-10" d="M985.08,416.22s-10.72,24.35-9.16,25.87,6.6,3.83,6.6,3.83Z"/><path class="cls-10" d="M925.8,89.51l-7.86,91.1L872.31,177c-.28-5.33.1-25.93.1-25.93s-19-3-19.22-21.94c-.11-9.21,1.21-28.26,2.59-45.42a35.14,35.14,0,0,1,37.07-32.25h0A35.15,35.15,0,0,1,925.8,89.51Z"/><path class="cls-11" d="M872.38,150.75s12,1,24.74-7c0,0-5.85,13.66-24.78,11.95Z"/><path class="cls-3" d="M860.84,97a2.71,2.71,0,0,0,2.61,2.73,2.6,2.6,0,0,0,2.8-2.44,2.72,2.72,0,0,0-2.61-2.74A2.59,2.59,0,0,0,860.84,97Z"/><path class="cls-3" d="M859.84,93.23c.34.35,2.39-1.17,5.31-1.16s5.05,1.47,5.37,1.11c.15-.16-.19-.79-1.12-1.47a7.39,7.39,0,0,0-4.3-1.33,7.13,7.13,0,0,0-4.22,1.36C860,92.43,859.68,93.07,859.84,93.23Z"/><path class="cls-3" d="M889.56,97a2.71,2.71,0,0,0,2.61,2.73,2.6,2.6,0,0,0,2.8-2.44,2.72,2.72,0,0,0-2.62-2.74A2.59,2.59,0,0,0,889.56,97Z"/><path class="cls-3" d="M888.51,93.77c.34.36,2.39-1.16,5.31-1.15s5,1.46,5.37,1.11c.15-.16-.18-.8-1.12-1.48a7.46,7.46,0,0,0-4.3-1.32,7.09,7.09,0,0,0-4.22,1.36C888.65,93,888.35,93.62,888.51,93.77Z"/><path class="cls-3" d="M877.93,115.41c0-.17-1.8-.48-4.74-.86-.75-.08-1.45-.22-1.58-.73a3.86,3.86,0,0,1,.5-2.21l2.2-5.67c3.06-8.08,5.28-14.72,5-14.84s-3.07,6.33-6.13,14.41l-2.11,5.7a4.32,4.32,0,0,0-.39,2.92,1.86,1.86,0,0,0,1.23,1.09,4.82,4.82,0,0,0,1.26.18C876.08,115.56,877.91,115.57,877.93,115.41Z"/><path class="cls-3" d="M886.51,117.42c-.47,0-.48,3.14-3.19,5.39s-6.08,1.9-6.11,2.34c0,.2.76.62,2.18.65a7.9,7.9,0,0,0,5.1-1.77,6.89,6.89,0,0,0,2.47-4.52C887.08,118.19,886.73,117.41,886.51,117.42Z"/><path class="cls-3" d="M887.76,82.34c.29.8,3.2.42,6.62.83s6.19,1.35,6.64.64c.21-.34-.27-1.09-1.39-1.86a11.61,11.61,0,0,0-10.11-1.11C888.27,81.35,887.63,82,887.76,82.34Z"/><path class="cls-3" d="M860.91,84.79c.52.66,2.53,0,4.94-.06s4.46.45,4.94-.25c.2-.33-.12-1-1-1.62a7.15,7.15,0,0,0-8,.24C861,83.78,860.69,84.47,860.91,84.79Z"/><path class="cls-3" d="M929.87,77.77c-1.08,9.22-3.6,20.89-4.33,30.31a4.63,4.63,0,0,1-.67,2.49c-1.35,1.79-4.57,5.66-6.21,4.13-4-3.72-5.57-14.15-6.36-19.56s-.66-10.91-1.41-16.33c0-.12,0-.24,0-.38a14.94,14.94,0,0,0-5.51-9.62,10.21,10.21,0,0,0-2.24-1.18c-5.57-2-14.87,1.66-20.42,3.69-2.87,1-5.65,2.33-8.43,3.6a19.66,19.66,0,0,1-19.59-1.65c-3.38-2.44-3.68-10.19-2.2-15.08,4-13.22,20.63-17.77,42-12.72C915.58,50.48,932,58.8,929.87,77.77Z"/><path class="cls-10" d="M919.4,98.1c.32-.14,13-3.86,12.62,9.11s-13.35,9.89-13.36,9.52S919.4,98.1,919.4,98.1Z"/><path class="cls-11" d="M922.78,111.94c.06,0,.22.16.59.35a2.29,2.29,0,0,0,1.69.09c1.39-.46,2.61-2.6,2.75-4.94a7.42,7.42,0,0,0-.53-3.25,2.58,2.58,0,0,0-1.64-1.79,1.15,1.15,0,0,0-1.36.57c-.18.36-.11.62-.18.64s-.27-.22-.15-.76a1.46,1.46,0,0,1,.54-.79,1.66,1.66,0,0,1,1.26-.29,3.18,3.18,0,0,1,2.3,2.08,7.72,7.72,0,0,1,.66,3.64c-.16,2.62-1.58,5-3.47,5.5a2.43,2.43,0,0,1-2.06-.41C922.79,112.25,922.73,112,922.78,111.94Z"/><path class="cls-6" d="M929.66,78.65c.16.21-3.82,2.41-9.27,2.47S910.88,79.2,911,79s4.14,1.23,9.34,1.1S929.55,78.35,929.66,78.65Z"/><path class="cls-6" d="M929.21,82.36c.16.21-3.63,2.41-8.89,2.48s-9.12-1.93-9-2.14,4,1.23,8.95,1.11S929.1,82.07,929.21,82.36Z"/><path class="cls-3" d="M838.91,728.8l8.43,38.83s-36.63,21.61-35.77,28.93l75.87-13.64-10.66-61Z"/><path class="cls-6" d="M887.44,782.92l-1.32-6.11-72.25,15.37s-3.11,2.07-2.3,4.38Z"/><path class="cls-3" d="M925.2,733.08l1.25,39.71s-39.94,14.61-40.42,22l77.08.33.59-62Z"/><g class="cls-13"><path class="cls-6" d="M963.11,795.09l-.18-6.24-73.84,2s-3.44,1.48-3.06,3.9Z"/></g><path class="cls-3" d="M834.76,762.1s-39.51-193.83-39.55-197.71l70.59-37.32,27.33,227.48Z"/><path class="cls-3" d="M923.64,768.6l-54.58-336V360.18l74.57,6.92C944.57,369.92,969,769,969,769l-7.69-.44H923.64"/><polygon class="cls-3" points="826.16 355.05 795.21 564.39 864.39 547.61 892.59 361.86 826.16 355.05"/><path class="cls-6" d="M890.15,372.8s0,.35.08,1,.18,1.71.32,3c.3,2.68.74,6.56,1.31,11.54,1.18,10,3,24.49,5.29,42.37,4.62,35.77,11.62,85.08,19.15,139.58,3.75,27.26,7.19,53.24,10.13,76.9.76,5.91,1.37,11.69,2.2,17.29s1.69,11,2.49,16.24c1.59,10.47,3.07,20.24,4.42,29.15,2.68,17.83,4.8,32.26,6.18,42.25.7,5,1.21,8.87,1.51,11.5.16,1.32.26,2.33.3,3a5.09,5.09,0,0,1,0,.77c0,.21-.12,0-.12,0l0,.07c0,.07.15,0,.14-.08a4.14,4.14,0,0,0,0-.78c0-.68-.08-1.69-.21-3-.24-2.64-.69-6.53-1.33-11.53-1.27-10-3.29-24.46-5.88-42.3-1.32-8.92-2.76-18.69-4.31-29.17-.79-5.24-1.6-10.67-2.44-16.25s-1.41-11.36-2.16-17.27c-2.89-23.67-6.31-49.66-10.06-76.92-7.53-54.5-14.64-103.8-19.42-139.54-2.36-17.84-4.27-32.3-5.59-42.33-.65-5-1.15-8.84-1.49-11.51l-.42-3C890.23,373.14,890.15,372.8,890.15,372.8Z"/><path class="cls-6" d="M848.54,760.31s0-.34-.13-1-.27-1.65-.47-2.9L846,745.26c-1.71-9.72-4.16-23.71-7.19-41L814.8,569.14a31.37,31.37,0,0,1-.58-9.79c.41-3.23.95-6.51,1.43-9.73q1.5-9.68,3-19c2-12.49,3.9-24.52,5.82-36,3.8-22.91,7.48-43.5,10.76-60.75s6.18-31.16,8.38-40.74c1-4.8,2-8.49,2.56-11,.28-1.23.5-2.18.66-2.86s.2-1,.2-1-.12.32-.29,1-.43,1.62-.76,2.84c-.64,2.51-1.64,6.19-2.73,11-2.31,9.55-5.3,23.45-8.67,40.69s-7.12,37.83-11,60.73c-1.93,11.45-3.89,23.49-5.87,36q-1.45,9.38-3,19.05c-.48,3.24-1,6.45-1.45,9.78a32.49,32.49,0,0,0,.6,10.07C823.36,622.06,832,669.8,838.19,704.4c3.16,17.25,5.71,31.22,7.48,40.92.9,4.8,1.6,8.54,2.08,11.12.25,1.24.43,2.2.57,2.89S848.54,760.31,848.54,760.31Z"/><path class="cls-6" d="M869.06,430.27c-.26,0,3,21.74,7.2,48.47s7.88,48.37,8.14,48.33-3-21.74-7.2-48.48S869.32,430.23,869.06,430.27Z"/><path class="cls-6" d="M923,768a7.16,7.16,0,0,0,1.79.31c1.15.14,2.83.3,4.9.46,4.15.32,9.89.63,16.24.73s12.1,0,16.25-.2c2.08-.09,3.76-.19,4.92-.29a6.31,6.31,0,0,0,1.8-.26,55.7,55.7,0,0,0-6.73-.12c-4.15,0-9.89,0-16.22-.08s-12.07-.3-16.22-.45S923,767.86,923,768Z"/><path class="cls-6" d="M834.76,762.1a10.7,10.7,0,0,0,2.32-.11l6.27-.67c5.29-.6,12.59-1.5,20.65-2.55s15.35-2,20.62-2.81l6.24-1a11.73,11.73,0,0,0,2.27-.46,10.2,10.2,0,0,0-2.32.1c-1.48.13-3.63.35-6.27.65-5.3.59-12.6,1.48-20.66,2.53s-15.35,2-20.62,2.83l-6.23,1A11.51,11.51,0,0,0,834.76,762.1Z"/><path class="cls-6" d="M730.87,231.31l44.51,33.85s41.41-70.62,45.07-75,13-9.09,13-9.09l-5.14,90.54s-22.4,57.16-53.14,54.06c-23.53-2.38-64.21-64.48-64.21-64.48Z"/><g class="cls-7"><path d="M774.55,264.09a39.13,39.13,0,0,0-4.5,32.56,4.86,4.86,0,0,0,1.8,2.87c1.49.89,3.53,0,4.46-1.49a10.29,10.29,0,0,0,1.15-5,11.44,11.44,0,0,0,3.29,4.31c1.5,1,3.78,1.18,5-.17,1.48-1.63.66-4.21-.23-6.22l-11.37-25.77"/></g><path class="cls-3" d="M742.07,241.46c.28.17-4.28,7.82-10.19,17.07S721,275.13,720.67,275s4.28-7.82,10.19-17.07S741.79,241.28,742.07,241.46Z"/><path class="cls-3" d="M730.74,240.21c-.12-.1.46-.69,1.47-.31a1.94,1.94,0,0,1,1.19,1.4,2,2,0,0,1-1.07,2,1.86,1.86,0,0,1-2.78-2c.27-1.05,1.08-1.19,1.09-1s-.28.49-.24,1.13.56,1.31,1.36.88a.9.9,0,0,0,.06-1.62C731.31,240.26,730.82,240.37,730.74,240.21Z"/><path class="cls-3" d="M775.43,286.61c-.28.1-1.94-4.59-2-10.67s1.4-10.83,1.69-10.73-.6,4.81-.48,10.71S775.79,286.52,775.43,286.61Z"/><path class="cls-3" d="M784.06,286.31c-.27.16-3.19-4.14-5.71-10s-3.66-10.94-3.35-11,2,4.76,4.46,10.54S784.36,286.13,784.06,286.31Z"/><path class="cls-6" d="M926.52,172.45l-6.73-13.3H871.13l-7.65,15.11-30.07,6.8L820.46,375a13.29,13.29,0,0,0,1.72,7h0l118.22,4.54,4.81,2c4.25-2.61,1.6-13.42,1.65-18.49l1.51-96,23.39-76.73Z"/><g class="cls-7"><path d="M876.08,179.18q4.29-4.31,8.6-8.6l9.66,23.3A243.54,243.54,0,0,0,926,171.72l-32.75,10.51-8.3-22a83.85,83.85,0,0,1-8.23,19.06"/></g><path class="cls-6" d="M1013.26,415.58l-31.86,1.65-.07-91.45-33-51.81,23.39-76.73c4.83,1.9,41.13,93.06,50.37,117.81a27.68,27.68,0,0,1,1.72,11.18Z"/><path class="cls-3" d="M833.41,221.08c.33,0-1.25,18.78-3.53,41.87s-4.4,41.8-4.73,41.77,1.25-18.78,3.53-41.88S833.08,221.05,833.41,221.08Z"/><path class="cls-3" d="M884.93,160.27c.31.13-2.29,7.1-5.79,15.58-.22.53-.44,1.06-.66,1.57a3.91,3.91,0,0,1-1.06,1.62,1.92,1.92,0,0,1-2.11.13,12.8,12.8,0,0,1-1.35-.85l-4.38-3c-2.47-1.71-4-2.85-3.86-3s1.73.74,4.32,2.27l4.52,2.75c.86.54,1.74,1.18,2.13.72a10,10,0,0,0,1.33-2.72C881.53,166.91,884.62,160.14,884.93,160.27Z"/><path class="cls-3" d="M923.63,172.14c.06.16-2.79,1.29-7.43,3s-11.08,4-18.21,6.42l-3.9,1.32-.53.18-.21-.51c-2.51-6.08-4.68-11.46-6.18-15.33s-2.35-6.25-2.21-6.3,1.24,2.2,2.93,6,4,9.11,6.56,15.17l-.74-.34,3.89-1.33c7.13-2.45,13.61-4.59,18.33-6.09S923.58,172,923.63,172.14Z"/><path class="cls-3" d="M966.76,200c.09.36-6.76,2.21-14.7,5.77s-13.93,7.36-14.13,7.06c-.09-.13,1.29-1.26,3.72-2.83a73.12,73.12,0,0,1,9.92-5.33,75.18,75.18,0,0,1,10.6-3.8C965,200.1,966.72,199.83,966.76,200Z"/><path class="cls-3" d="M884.93,160.27a2.33,2.33,0,0,1,.07.58c0,.45,0,1,.08,1.7,0,1.5.13,3.7.16,6.55.06,5.69,0,13.92-.37,24.09-.73,20.34-3.27,48.36-7.33,79.13-2,15.4-4.15,30-5.61,43.37A280.3,280.3,0,0,0,870,351.27a180.54,180.54,0,0,0,1.89,23.94c.35,2.82.8,5,1,6.47.1.68.18,1.23.25,1.68a2.31,2.31,0,0,1,.05.58,1.85,1.85,0,0,1-.17-.56l-.37-1.66c-.3-1.47-.82-3.62-1.24-6.43a164,164,0,0,1-2.28-24,269,269,0,0,1,1.67-35.72c1.41-13.39,3.55-28,5.52-43.4,4.06-30.75,6.73-58.72,7.67-79,.51-10.15.67-18.37.76-24.05q0-4.15.06-6.55c0-.69,0-1.25,0-1.7A2,2,0,0,1,884.93,160.27Z"/><path class="cls-3" d="M1015,401.58c0,.33-7.58.23-16.89-.22s-16.85-1.1-16.83-1.43,7.58-.24,16.89.22S1015,401.25,1015,401.58Z"/><path class="cls-3" d="M986.72,405.14c.1.14-.06.45.1.87s.51.66.94.33.27-.71-.13-1-.72-.15-.83-.28.21-.66,1.08-.53a1.56,1.56,0,0,1,1.17.91,1.6,1.6,0,0,1-.54,1.83,1.58,1.58,0,0,1-1.89.13,1.52,1.52,0,0,1-.65-1.33C986,405.21,986.66,405,986.72,405.14Z"/><g class="cls-7"><path d="M948.84,273.73,938.45,255a257.84,257.84,0,0,0,6.86,98.92q1.59-39.87,3.2-79.75"/></g><path class="cls-3" d="M896.11,239.26a10.3,10.3,0,0,1,1.87-.12l5.54-.14c4.81-.1,11.76-.21,20.11-.26h.57l0,.57c-.54,7.32-1.16,15.8-1.83,24.84l0,.33-.3.15-1.23.66-13.46,7.07-.34.18-.3-.24-12.49-10.22-.2-.16,0-.25c.58-6.72,1.07-12.32,1.43-16.45.18-1.8.33-3.28.45-4.46a6.73,6.73,0,0,1,.22-1.49,14.19,14.19,0,0,1,0,1.7c-.06,1.21-.12,2.73-.21,4.57-.22,4.08-.53,9.59-.91,16.2l-.18-.42,12.61,10.08-.63-.06,13.43-7.12,1.24-.65-.32.48c.72-9,1.39-17.5,2-24.82l.52.57c-8.13,0-15-.17-19.78-.26l-5.66-.14A12.6,12.6,0,0,1,896.11,239.26Z"/><path class="cls-3" d="M837.65,383c0,.33-2.49-.12-4.09-2.52s-1.1-4.84-.79-4.73.42,2.08,1.79,4.06S837.77,382.62,837.65,383Z"/><path class="cls-3" d="M840.73,381.67c-.2.23-2.45-1.91-3.33-5.49s0-6.52.33-6.41,0,2.85.84,6.12S841,381.45,840.73,381.67Z"/><path class="cls-3" d="M930,368.34c.3,0,.58,4.65-1.85,9.76s-6.19,7.9-6.34,7.64,3-3.29,5.25-8.16S929.6,368.31,930,368.34Z"/><path class="cls-10" d="M728.39,235s-36-27.27-41-29.1c-8.37-3-10.38-2.22-10.38-2.22L696.7,225s-20.87,7.05-22.38,7.87c-1.68.92-2.25,5.43,2.83,5.43,4.17,0,24.2.46,24.2.46l16.51,12.06Z"/><path class="cls-3" d="M1047,0a5.56,5.56,0,0,1,1.18,0l3.5.1c.76,0,1.62,0,2.57.11l3.08.43,3.59.52,4,1a65.12,65.12,0,0,1,19.46,8.49,69.76,69.76,0,0,1,20.13,19.6,70.48,70.48,0,0,1,11.42,32,70,70,0,0,1,.19,9.41c-.11,1.59-.08,3.21-.31,4.81s-.49,3.22-.73,4.85a69,69,0,0,1-6.54,19.15A74,74,0,0,1,1096,117.72a72.48,72.48,0,0,1-18,12.94,65.45,65.45,0,0,1-22,6.75,44.12,44.12,0,0,1-5.86.5,53.26,53.26,0,0,1-5.93.1,70.35,70.35,0,0,1-11.86-1.5,69.18,69.18,0,0,1-23.62-9.94l.72.08-24.06,9.65-1.43.58.41-1.48q3.65-13.25,7.07-25.72l.12.63a69,69,0,0,1-12.83-29.39,62.11,62.11,0,0,1-.94-15.06,49.19,49.19,0,0,1,.68-7.23c.19-1.18.37-2.35.55-3.52s.57-2.28.84-3.41a68.86,68.86,0,0,1,26.84-39.13,65.78,65.78,0,0,1,16-8.42l3.6-1.29,3.41-.87,3.13-.77c1-.2,2-.3,2.87-.44,1.82-.23,3.42-.54,4.82-.61l3.54-.12,2.16,0h.73s-.25.07-.73.12l-2.15.17-3.52.23c-1.39.11-3,.46-4.77.73A68.4,68.4,0,0,0,981.12,52c-.27,1.11-.61,2.21-.81,3.35s-.35,2.29-.52,3.45a46.27,46.27,0,0,0-.64,7.1,61.74,61.74,0,0,0,1,14.77,67.8,67.8,0,0,0,12.67,28.75l.21.28-.09.35q-3.4,12.47-7,25.74l-1-.91,24-9.68.38-.15.34.22a67.62,67.62,0,0,0,34.68,11.17,48.78,48.78,0,0,0,5.8-.1,43.85,43.85,0,0,0,5.73-.48,64.31,64.31,0,0,0,21.48-6.57A70.71,70.71,0,0,0,1095,116.66a72.54,72.54,0,0,0,12.29-16.82,67.52,67.52,0,0,0,6.47-18.74c.25-1.59.49-3.18.73-4.75s.21-3.16.33-4.72a69.06,69.06,0,0,0-.15-9.23,68,68,0,0,0-30.73-51,65.43,65.43,0,0,0-19.15-8.63l-4-1.06-3.56-.58-3-.5c-.94-.11-1.79-.13-2.56-.19l-3.47-.25A8.45,8.45,0,0,1,1047,0Z"/></g></g></svg>